G04 #@! TF.GenerationSoftware,KiCad,Pcbnew,7.0.2-0*
G04 #@! TF.CreationDate,2023-11-29T23:04:12+01:00*
G04 #@! TF.ProjectId,m4live_ctrl_frontpanel,6d346c69-7665-45f6-9374-726c5f66726f,rev?*
G04 #@! TF.SameCoordinates,Original*
G04 #@! TF.FileFunction,Legend,Top*
G04 #@! TF.FilePolarity,Positive*
%FSLAX46Y46*%
G04 Gerber Fmt 4.6, Leading zero omitted, Abs format (unit mm)*
G04 Created by KiCad (PCBNEW 7.0.2-0) date 2023-11-29 23:04:12*
%MOMM*%
%LPD*%
G01*
G04 APERTURE LIST*
%ADD10C,0.000000*%
%ADD11C,0.360000*%
%ADD12C,0.500000*%
%ADD13C,0.300000*%
G04 APERTURE END LIST*
D10*
G36*
X12562671Y-88494554D02*
G01*
X12590602Y-88496678D01*
X12618127Y-88500176D01*
X12645212Y-88505012D01*
X12671821Y-88511154D01*
X12697920Y-88518565D01*
X12723475Y-88527213D01*
X12748451Y-88537060D01*
X12772814Y-88548075D01*
X12796528Y-88560221D01*
X12819560Y-88573464D01*
X12841875Y-88587771D01*
X12863438Y-88603105D01*
X12884214Y-88619433D01*
X12904170Y-88636720D01*
X12923271Y-88654931D01*
X12941481Y-88674032D01*
X12958768Y-88693989D01*
X12975095Y-88714766D01*
X12990428Y-88736330D01*
X13004734Y-88758645D01*
X13017977Y-88781678D01*
X13030122Y-88805393D01*
X13041136Y-88829756D01*
X13050984Y-88854732D01*
X13059630Y-88880288D01*
X13067041Y-88906388D01*
X13073182Y-88932997D01*
X13078019Y-88960082D01*
X13081516Y-88987607D01*
X13083640Y-89015538D01*
X13084356Y-89043841D01*
X13083640Y-89072144D01*
X13081516Y-89100076D01*
X13078019Y-89127601D01*
X13073182Y-89154686D01*
X13067041Y-89181295D01*
X13059630Y-89207395D01*
X13050984Y-89232950D01*
X13041136Y-89257927D01*
X13030122Y-89282290D01*
X13017977Y-89306005D01*
X13004734Y-89329037D01*
X12990428Y-89351353D01*
X12975095Y-89372916D01*
X12958768Y-89393694D01*
X12941481Y-89413650D01*
X12923271Y-89432752D01*
X12904170Y-89450963D01*
X12884214Y-89468250D01*
X12863438Y-89484578D01*
X12841875Y-89499912D01*
X12819560Y-89514218D01*
X12796528Y-89527462D01*
X12772814Y-89539608D01*
X12748451Y-89550622D01*
X12723475Y-89560470D01*
X12697920Y-89569117D01*
X12671821Y-89576529D01*
X12645212Y-89582670D01*
X12618127Y-89587507D01*
X12590602Y-89591005D01*
X12562671Y-89593129D01*
X12534368Y-89593844D01*
X12506064Y-89593129D01*
X12478131Y-89591005D01*
X12450605Y-89587507D01*
X12423519Y-89582670D01*
X12396909Y-89576529D01*
X12370809Y-89569117D01*
X12345253Y-89560470D01*
X12320276Y-89550622D01*
X12295913Y-89539608D01*
X12272198Y-89527462D01*
X12249165Y-89514218D01*
X12226850Y-89499912D01*
X12205287Y-89484578D01*
X12184509Y-89468250D01*
X12164553Y-89450963D01*
X12145452Y-89432752D01*
X12127241Y-89413650D01*
X12109955Y-89393694D01*
X12093627Y-89372916D01*
X12078293Y-89351353D01*
X12063988Y-89329037D01*
X12050745Y-89306005D01*
X12038599Y-89282290D01*
X12027585Y-89257927D01*
X12017738Y-89232950D01*
X12009091Y-89207395D01*
X12001680Y-89181295D01*
X11995539Y-89154686D01*
X11990702Y-89127601D01*
X11987205Y-89100076D01*
X11985081Y-89072144D01*
X11984365Y-89043841D01*
X11985081Y-89015538D01*
X11987205Y-88987607D01*
X11990702Y-88960082D01*
X11995539Y-88932997D01*
X12001680Y-88906388D01*
X12009091Y-88880288D01*
X12017738Y-88854732D01*
X12027585Y-88829756D01*
X12038599Y-88805393D01*
X12050745Y-88781678D01*
X12063988Y-88758645D01*
X12078293Y-88736330D01*
X12093627Y-88714766D01*
X12109955Y-88693989D01*
X12127241Y-88674032D01*
X12145452Y-88654931D01*
X12164553Y-88636720D01*
X12184509Y-88619433D01*
X12205287Y-88603105D01*
X12226850Y-88587771D01*
X12249165Y-88573464D01*
X12272198Y-88560221D01*
X12295913Y-88548075D01*
X12320276Y-88537060D01*
X12345253Y-88527213D01*
X12370809Y-88518565D01*
X12396909Y-88511154D01*
X12423519Y-88505012D01*
X12450605Y-88500176D01*
X12478131Y-88496678D01*
X12506064Y-88494554D01*
X12534368Y-88493838D01*
X12562671Y-88494554D01*
G37*
G36*
X19231067Y-42094560D02*
G01*
X19258999Y-42096684D01*
X19286524Y-42100182D01*
X19313608Y-42105019D01*
X19340218Y-42111160D01*
X19366318Y-42118571D01*
X19391873Y-42127218D01*
X19416849Y-42137066D01*
X19441213Y-42148081D01*
X19464928Y-42160227D01*
X19487960Y-42173470D01*
X19510275Y-42187776D01*
X19531839Y-42203110D01*
X19552617Y-42219438D01*
X19572573Y-42236724D01*
X19591674Y-42254935D01*
X19609886Y-42274036D01*
X19627173Y-42293992D01*
X19643501Y-42314769D01*
X19658835Y-42336332D01*
X19673141Y-42358647D01*
X19686384Y-42381679D01*
X19698531Y-42405393D01*
X19709545Y-42429756D01*
X19719393Y-42454731D01*
X19728040Y-42480286D01*
X19735452Y-42506384D01*
X19741593Y-42532993D01*
X19746430Y-42560076D01*
X19749928Y-42587601D01*
X19752052Y-42615531D01*
X19752767Y-42643832D01*
X19752052Y-42672135D01*
X19749928Y-42700067D01*
X19746430Y-42727592D01*
X19741593Y-42754677D01*
X19735452Y-42781286D01*
X19728040Y-42807386D01*
X19719393Y-42832941D01*
X19709545Y-42857918D01*
X19698531Y-42882281D01*
X19686384Y-42905996D01*
X19673141Y-42929028D01*
X19658835Y-42951343D01*
X19643501Y-42972907D01*
X19627173Y-42993685D01*
X19609886Y-43013641D01*
X19591674Y-43032742D01*
X19572573Y-43050954D01*
X19552617Y-43068241D01*
X19531839Y-43084569D01*
X19510275Y-43099903D01*
X19487960Y-43114209D01*
X19464928Y-43127453D01*
X19441213Y-43139599D01*
X19416849Y-43150613D01*
X19391873Y-43160461D01*
X19366318Y-43169108D01*
X19340218Y-43176520D01*
X19313608Y-43182661D01*
X19286524Y-43187498D01*
X19258999Y-43190996D01*
X19231067Y-43193120D01*
X19202764Y-43193835D01*
X19174461Y-43193120D01*
X19146530Y-43190996D01*
X19119004Y-43187498D01*
X19091920Y-43182661D01*
X19065310Y-43176520D01*
X19039211Y-43169108D01*
X19013655Y-43160461D01*
X18988679Y-43150613D01*
X18964316Y-43139599D01*
X18940601Y-43127453D01*
X18917568Y-43114209D01*
X18895253Y-43099903D01*
X18873689Y-43084569D01*
X18852912Y-43068241D01*
X18832955Y-43050954D01*
X18813854Y-43032742D01*
X18795642Y-43013641D01*
X18778356Y-42993685D01*
X18762028Y-42972907D01*
X18746693Y-42951343D01*
X18732387Y-42929028D01*
X18719144Y-42905996D01*
X18706998Y-42882281D01*
X18695983Y-42857918D01*
X18686135Y-42832941D01*
X18677488Y-42807386D01*
X18670077Y-42781286D01*
X18663935Y-42754677D01*
X18659098Y-42727592D01*
X18655601Y-42700067D01*
X18653477Y-42672135D01*
X18652761Y-42643832D01*
X18653477Y-42615531D01*
X18655601Y-42587601D01*
X18659098Y-42560076D01*
X18663935Y-42532993D01*
X18670077Y-42506384D01*
X18677488Y-42480286D01*
X18686135Y-42454731D01*
X18695983Y-42429756D01*
X18706998Y-42405393D01*
X18719144Y-42381679D01*
X18732387Y-42358647D01*
X18746693Y-42336332D01*
X18762028Y-42314769D01*
X18778356Y-42293992D01*
X18795642Y-42274036D01*
X18813854Y-42254935D01*
X18832955Y-42236724D01*
X18852912Y-42219438D01*
X18873689Y-42203110D01*
X18895253Y-42187776D01*
X18917568Y-42173470D01*
X18940601Y-42160227D01*
X18964316Y-42148081D01*
X18988679Y-42137066D01*
X19013655Y-42127218D01*
X19039211Y-42118571D01*
X19065310Y-42111160D01*
X19091920Y-42105019D01*
X19119004Y-42100182D01*
X19146530Y-42096684D01*
X19174461Y-42094560D01*
X19202764Y-42093844D01*
X19231067Y-42094560D01*
G37*
G36*
X22875088Y-84235417D02*
G01*
X2132900Y-84235417D01*
X2132900Y-83969792D01*
X22875088Y-83969792D01*
X22875088Y-84235417D01*
G37*
G36*
X12562671Y-63494554D02*
G01*
X12590602Y-63496678D01*
X12618127Y-63500176D01*
X12645212Y-63505012D01*
X12671821Y-63511154D01*
X12697920Y-63518565D01*
X12723475Y-63527213D01*
X12748451Y-63537060D01*
X12772814Y-63548075D01*
X12796528Y-63560221D01*
X12819560Y-63573464D01*
X12841875Y-63587771D01*
X12863438Y-63603105D01*
X12884214Y-63619433D01*
X12904170Y-63636720D01*
X12923271Y-63654931D01*
X12941481Y-63674032D01*
X12958768Y-63693989D01*
X12975095Y-63714766D01*
X12990428Y-63736330D01*
X13004734Y-63758645D01*
X13017977Y-63781678D01*
X13030122Y-63805393D01*
X13041136Y-63829756D01*
X13050984Y-63854732D01*
X13059630Y-63880288D01*
X13067041Y-63906388D01*
X13073182Y-63932997D01*
X13078019Y-63960082D01*
X13081516Y-63987607D01*
X13083640Y-64015538D01*
X13084356Y-64043841D01*
X13083640Y-64072144D01*
X13081516Y-64100076D01*
X13078019Y-64127601D01*
X13073182Y-64154686D01*
X13067041Y-64181295D01*
X13059630Y-64207395D01*
X13050984Y-64232950D01*
X13041136Y-64257927D01*
X13030122Y-64282290D01*
X13017977Y-64306005D01*
X13004734Y-64329037D01*
X12990428Y-64351353D01*
X12975095Y-64372916D01*
X12958768Y-64393694D01*
X12941481Y-64413650D01*
X12923271Y-64432752D01*
X12904170Y-64450963D01*
X12884214Y-64468250D01*
X12863438Y-64484578D01*
X12841875Y-64499912D01*
X12819560Y-64514218D01*
X12796528Y-64527462D01*
X12772814Y-64539608D01*
X12748451Y-64550622D01*
X12723475Y-64560470D01*
X12697920Y-64569117D01*
X12671821Y-64576529D01*
X12645212Y-64582670D01*
X12618127Y-64587507D01*
X12590602Y-64591005D01*
X12562671Y-64593129D01*
X12534368Y-64593844D01*
X12506064Y-64593129D01*
X12478131Y-64591005D01*
X12450605Y-64587507D01*
X12423519Y-64582670D01*
X12396909Y-64576529D01*
X12370809Y-64569117D01*
X12345253Y-64560470D01*
X12320276Y-64550622D01*
X12295913Y-64539608D01*
X12272198Y-64527462D01*
X12249165Y-64514218D01*
X12226850Y-64499912D01*
X12205287Y-64484578D01*
X12184509Y-64468250D01*
X12164553Y-64450963D01*
X12145452Y-64432752D01*
X12127241Y-64413650D01*
X12109955Y-64393694D01*
X12093627Y-64372916D01*
X12078293Y-64351353D01*
X12063988Y-64329037D01*
X12050745Y-64306005D01*
X12038599Y-64282290D01*
X12027585Y-64257927D01*
X12017738Y-64232950D01*
X12009091Y-64207395D01*
X12001680Y-64181295D01*
X11995539Y-64154686D01*
X11990702Y-64127601D01*
X11987205Y-64100076D01*
X11985081Y-64072144D01*
X11984365Y-64043841D01*
X11985081Y-64015538D01*
X11987205Y-63987607D01*
X11990702Y-63960082D01*
X11995539Y-63932997D01*
X12001680Y-63906388D01*
X12009091Y-63880288D01*
X12017738Y-63854732D01*
X12027585Y-63829756D01*
X12038599Y-63805393D01*
X12050745Y-63781678D01*
X12063988Y-63758645D01*
X12078293Y-63736330D01*
X12093627Y-63714766D01*
X12109955Y-63693989D01*
X12127241Y-63674032D01*
X12145452Y-63654931D01*
X12164553Y-63636720D01*
X12184509Y-63619433D01*
X12205287Y-63603105D01*
X12226850Y-63587771D01*
X12249165Y-63573464D01*
X12272198Y-63560221D01*
X12295913Y-63548075D01*
X12320276Y-63537060D01*
X12345253Y-63527213D01*
X12370809Y-63518565D01*
X12396909Y-63511154D01*
X12423519Y-63505012D01*
X12450605Y-63500176D01*
X12478131Y-63496678D01*
X12506064Y-63494554D01*
X12534368Y-63493838D01*
X12562671Y-63494554D01*
G37*
G36*
X20262668Y-96194551D02*
G01*
X20290599Y-96196675D01*
X20318125Y-96200173D01*
X20345209Y-96205009D01*
X20371819Y-96211151D01*
X20397919Y-96218562D01*
X20423474Y-96227209D01*
X20448450Y-96237057D01*
X20472813Y-96248072D01*
X20496529Y-96260218D01*
X20519561Y-96273461D01*
X20541876Y-96287768D01*
X20563440Y-96303102D01*
X20584217Y-96319430D01*
X20604174Y-96336717D01*
X20623275Y-96354928D01*
X20641487Y-96374029D01*
X20658774Y-96393986D01*
X20675102Y-96414763D01*
X20690436Y-96436327D01*
X20704742Y-96458642D01*
X20717985Y-96481675D01*
X20730132Y-96505390D01*
X20741146Y-96529753D01*
X20750994Y-96554729D01*
X20759641Y-96580285D01*
X20767053Y-96606384D01*
X20773194Y-96632994D01*
X20778031Y-96660079D01*
X20781529Y-96687604D01*
X20783652Y-96715535D01*
X20784368Y-96743838D01*
X20783652Y-96772141D01*
X20781529Y-96800073D01*
X20778031Y-96827598D01*
X20773194Y-96854683D01*
X20767053Y-96881292D01*
X20759641Y-96907392D01*
X20750994Y-96932947D01*
X20741146Y-96957924D01*
X20730132Y-96982287D01*
X20717985Y-97006002D01*
X20704742Y-97029034D01*
X20690436Y-97051350D01*
X20675102Y-97072913D01*
X20658774Y-97093691D01*
X20641487Y-97113647D01*
X20623275Y-97132749D01*
X20604174Y-97150960D01*
X20584217Y-97168247D01*
X20563440Y-97184575D01*
X20541876Y-97199909D01*
X20519561Y-97214215D01*
X20496529Y-97227459D01*
X20472813Y-97239605D01*
X20448450Y-97250619D01*
X20423474Y-97260467D01*
X20397919Y-97269114D01*
X20371819Y-97276526D01*
X20345209Y-97282667D01*
X20318125Y-97287504D01*
X20290599Y-97291002D01*
X20262668Y-97293126D01*
X20234365Y-97293841D01*
X20206062Y-97293126D01*
X20178131Y-97291002D01*
X20150605Y-97287504D01*
X20123521Y-97282667D01*
X20096911Y-97276526D01*
X20070812Y-97269114D01*
X20045256Y-97260467D01*
X20020280Y-97250619D01*
X19995917Y-97239605D01*
X19972202Y-97227459D01*
X19949169Y-97214215D01*
X19926854Y-97199909D01*
X19905290Y-97184575D01*
X19884513Y-97168247D01*
X19864556Y-97150960D01*
X19845455Y-97132749D01*
X19827243Y-97113647D01*
X19809957Y-97093691D01*
X19793629Y-97072913D01*
X19778294Y-97051350D01*
X19763988Y-97029034D01*
X19750745Y-97006002D01*
X19738599Y-96982287D01*
X19727584Y-96957924D01*
X19717736Y-96932947D01*
X19709089Y-96907392D01*
X19701678Y-96881292D01*
X19695536Y-96854683D01*
X19690699Y-96827598D01*
X19687202Y-96800073D01*
X19685078Y-96772141D01*
X19684362Y-96743838D01*
X19685078Y-96715535D01*
X19687202Y-96687604D01*
X19690699Y-96660079D01*
X19695536Y-96632994D01*
X19701678Y-96606384D01*
X19709089Y-96580285D01*
X19717736Y-96554729D01*
X19727584Y-96529753D01*
X19738599Y-96505390D01*
X19750745Y-96481675D01*
X19763988Y-96458642D01*
X19778294Y-96436327D01*
X19793629Y-96414763D01*
X19809957Y-96393986D01*
X19827243Y-96374029D01*
X19845455Y-96354928D01*
X19864556Y-96336717D01*
X19884513Y-96319430D01*
X19905290Y-96303102D01*
X19926854Y-96287768D01*
X19949169Y-96273461D01*
X19972202Y-96260218D01*
X19995917Y-96248072D01*
X20020280Y-96237057D01*
X20045256Y-96227209D01*
X20070812Y-96218562D01*
X20096911Y-96211151D01*
X20123521Y-96205009D01*
X20150605Y-96200173D01*
X20178131Y-96196675D01*
X20206062Y-96194551D01*
X20234365Y-96193835D01*
X20262668Y-96194551D01*
G37*
G36*
X4862660Y-71194551D02*
G01*
X4890593Y-71196675D01*
X4918119Y-71200173D01*
X4945205Y-71205009D01*
X4971815Y-71211151D01*
X4997915Y-71218562D01*
X5023471Y-71227209D01*
X5048448Y-71237057D01*
X5072811Y-71248072D01*
X5096526Y-71260218D01*
X5119559Y-71273461D01*
X5141874Y-71287768D01*
X5163437Y-71303102D01*
X5184215Y-71319430D01*
X5204171Y-71336717D01*
X5223272Y-71354928D01*
X5241483Y-71374029D01*
X5258769Y-71393986D01*
X5275097Y-71414763D01*
X5290431Y-71436327D01*
X5304736Y-71458642D01*
X5317979Y-71481675D01*
X5330125Y-71505390D01*
X5341139Y-71529753D01*
X5350986Y-71554729D01*
X5359633Y-71580285D01*
X5367044Y-71606384D01*
X5373185Y-71632994D01*
X5378022Y-71660079D01*
X5381520Y-71687604D01*
X5383643Y-71715535D01*
X5384359Y-71743838D01*
X5383643Y-71772141D01*
X5381520Y-71800073D01*
X5378022Y-71827598D01*
X5373185Y-71854683D01*
X5367044Y-71881292D01*
X5359633Y-71907392D01*
X5350986Y-71932947D01*
X5341139Y-71957924D01*
X5330125Y-71982287D01*
X5317979Y-72006002D01*
X5304736Y-72029034D01*
X5290431Y-72051350D01*
X5275097Y-72072913D01*
X5258769Y-72093691D01*
X5241483Y-72113647D01*
X5223272Y-72132749D01*
X5204171Y-72150960D01*
X5184215Y-72168247D01*
X5163437Y-72184575D01*
X5141874Y-72199909D01*
X5119559Y-72214215D01*
X5096526Y-72227459D01*
X5072811Y-72239605D01*
X5048448Y-72250619D01*
X5023471Y-72260467D01*
X4997915Y-72269114D01*
X4971815Y-72276526D01*
X4945205Y-72282667D01*
X4918119Y-72287504D01*
X4890593Y-72291002D01*
X4862660Y-72293126D01*
X4834356Y-72293841D01*
X4806053Y-72293126D01*
X4778122Y-72291002D01*
X4750597Y-72287504D01*
X4723512Y-72282667D01*
X4696903Y-72276526D01*
X4670804Y-72269114D01*
X4645249Y-72260467D01*
X4620273Y-72250619D01*
X4595911Y-72239605D01*
X4572196Y-72227459D01*
X4549164Y-72214215D01*
X4526850Y-72199909D01*
X4505287Y-72184575D01*
X4484510Y-72168247D01*
X4464554Y-72150960D01*
X4445453Y-72132749D01*
X4427243Y-72113647D01*
X4409956Y-72093691D01*
X4393629Y-72072913D01*
X4378296Y-72051350D01*
X4363990Y-72029034D01*
X4350747Y-72006002D01*
X4338602Y-71982287D01*
X4327588Y-71957924D01*
X4317741Y-71932947D01*
X4309094Y-71907392D01*
X4301683Y-71881292D01*
X4295542Y-71854683D01*
X4290705Y-71827598D01*
X4287208Y-71800073D01*
X4285084Y-71772141D01*
X4284368Y-71743838D01*
X4285084Y-71715535D01*
X4287208Y-71687604D01*
X4290705Y-71660079D01*
X4295542Y-71632994D01*
X4301683Y-71606384D01*
X4309094Y-71580285D01*
X4317741Y-71554729D01*
X4327588Y-71529753D01*
X4338602Y-71505390D01*
X4350747Y-71481675D01*
X4363990Y-71458642D01*
X4378296Y-71436327D01*
X4393629Y-71414763D01*
X4409956Y-71393986D01*
X4427243Y-71374029D01*
X4445453Y-71354928D01*
X4464554Y-71336717D01*
X4484510Y-71319430D01*
X4505287Y-71303102D01*
X4526850Y-71287768D01*
X4549164Y-71273461D01*
X4572196Y-71260218D01*
X4595911Y-71248072D01*
X4620273Y-71237057D01*
X4645249Y-71227209D01*
X4670804Y-71218562D01*
X4696903Y-71211151D01*
X4723512Y-71205009D01*
X4750597Y-71200173D01*
X4778122Y-71196675D01*
X4806053Y-71194551D01*
X4834356Y-71193835D01*
X4862660Y-71194551D01*
G37*
G36*
X5894275Y-42094560D02*
G01*
X5922206Y-42096684D01*
X5949731Y-42100182D01*
X5976816Y-42105019D01*
X6003425Y-42111160D01*
X6029524Y-42118571D01*
X6055079Y-42127218D01*
X6080055Y-42137066D01*
X6104418Y-42148081D01*
X6128132Y-42160227D01*
X6151164Y-42173470D01*
X6173479Y-42187776D01*
X6195042Y-42203110D01*
X6215818Y-42219438D01*
X6235774Y-42236724D01*
X6254875Y-42254935D01*
X6273085Y-42274036D01*
X6290372Y-42293992D01*
X6306699Y-42314769D01*
X6322032Y-42336332D01*
X6336338Y-42358647D01*
X6349581Y-42381679D01*
X6361726Y-42405393D01*
X6372740Y-42429756D01*
X6382588Y-42454731D01*
X6391234Y-42480286D01*
X6398645Y-42506384D01*
X6404786Y-42532993D01*
X6409623Y-42560076D01*
X6413121Y-42587601D01*
X6415244Y-42615531D01*
X6415960Y-42643832D01*
X6415244Y-42672135D01*
X6413121Y-42700067D01*
X6409623Y-42727592D01*
X6404786Y-42754677D01*
X6398645Y-42781286D01*
X6391234Y-42807386D01*
X6382588Y-42832941D01*
X6372740Y-42857918D01*
X6361726Y-42882281D01*
X6349581Y-42905996D01*
X6336338Y-42929028D01*
X6322032Y-42951343D01*
X6306699Y-42972907D01*
X6290372Y-42993685D01*
X6273085Y-43013641D01*
X6254875Y-43032742D01*
X6235774Y-43050954D01*
X6215818Y-43068241D01*
X6195042Y-43084569D01*
X6173479Y-43099903D01*
X6151164Y-43114209D01*
X6128132Y-43127453D01*
X6104418Y-43139599D01*
X6080055Y-43150613D01*
X6055079Y-43160461D01*
X6029524Y-43169108D01*
X6003425Y-43176520D01*
X5976816Y-43182661D01*
X5949731Y-43187498D01*
X5922206Y-43190996D01*
X5894275Y-43193120D01*
X5865972Y-43193835D01*
X5837668Y-43193120D01*
X5809735Y-43190996D01*
X5782209Y-43187498D01*
X5755123Y-43182661D01*
X5728513Y-43176520D01*
X5702413Y-43169108D01*
X5676857Y-43160461D01*
X5651880Y-43150613D01*
X5627517Y-43139599D01*
X5603802Y-43127453D01*
X5580769Y-43114209D01*
X5558454Y-43099903D01*
X5536891Y-43084569D01*
X5516113Y-43068241D01*
X5496157Y-43050954D01*
X5477056Y-43032742D01*
X5458845Y-43013641D01*
X5441559Y-42993685D01*
X5425231Y-42972907D01*
X5409897Y-42951343D01*
X5395592Y-42929028D01*
X5382349Y-42905996D01*
X5370203Y-42882281D01*
X5359189Y-42857918D01*
X5349342Y-42832941D01*
X5340695Y-42807386D01*
X5333284Y-42781286D01*
X5327143Y-42754677D01*
X5322306Y-42727592D01*
X5318809Y-42700067D01*
X5316685Y-42672135D01*
X5315969Y-42643832D01*
X5316685Y-42615531D01*
X5318809Y-42587601D01*
X5322306Y-42560076D01*
X5327143Y-42532993D01*
X5333284Y-42506384D01*
X5340695Y-42480286D01*
X5349342Y-42454731D01*
X5359189Y-42429756D01*
X5370203Y-42405393D01*
X5382349Y-42381679D01*
X5395592Y-42358647D01*
X5409897Y-42336332D01*
X5425231Y-42314769D01*
X5441559Y-42293992D01*
X5458845Y-42274036D01*
X5477056Y-42254935D01*
X5496157Y-42236724D01*
X5516113Y-42219438D01*
X5536891Y-42203110D01*
X5558454Y-42187776D01*
X5580769Y-42173470D01*
X5603802Y-42160227D01*
X5627517Y-42148081D01*
X5651880Y-42137066D01*
X5676857Y-42127218D01*
X5702413Y-42118571D01*
X5728513Y-42111160D01*
X5755123Y-42105019D01*
X5782209Y-42100182D01*
X5809735Y-42096684D01*
X5837668Y-42094560D01*
X5865972Y-42093844D01*
X5894275Y-42094560D01*
G37*
G36*
X5894275Y-67344560D02*
G01*
X5922206Y-67346684D01*
X5949731Y-67350182D01*
X5976816Y-67355019D01*
X6003425Y-67361160D01*
X6029524Y-67368571D01*
X6055079Y-67377218D01*
X6080055Y-67387066D01*
X6104418Y-67398081D01*
X6128132Y-67410227D01*
X6151164Y-67423470D01*
X6173479Y-67437776D01*
X6195042Y-67453110D01*
X6215818Y-67469438D01*
X6235774Y-67486724D01*
X6254875Y-67504935D01*
X6273085Y-67524036D01*
X6290372Y-67543992D01*
X6306699Y-67564769D01*
X6322032Y-67586332D01*
X6336338Y-67608647D01*
X6349581Y-67631679D01*
X6361726Y-67655393D01*
X6372740Y-67679756D01*
X6382588Y-67704731D01*
X6391234Y-67730286D01*
X6398645Y-67756384D01*
X6404786Y-67782993D01*
X6409623Y-67810076D01*
X6413121Y-67837601D01*
X6415244Y-67865531D01*
X6415960Y-67893832D01*
X6415244Y-67922135D01*
X6413121Y-67950067D01*
X6409623Y-67977592D01*
X6404786Y-68004677D01*
X6398645Y-68031286D01*
X6391234Y-68057386D01*
X6382588Y-68082941D01*
X6372740Y-68107918D01*
X6361726Y-68132281D01*
X6349581Y-68155996D01*
X6336338Y-68179028D01*
X6322032Y-68201343D01*
X6306699Y-68222907D01*
X6290372Y-68243685D01*
X6273085Y-68263641D01*
X6254875Y-68282742D01*
X6235774Y-68300954D01*
X6215818Y-68318241D01*
X6195042Y-68334569D01*
X6173479Y-68349903D01*
X6151164Y-68364209D01*
X6128132Y-68377453D01*
X6104418Y-68389599D01*
X6080055Y-68400613D01*
X6055079Y-68410461D01*
X6029524Y-68419108D01*
X6003425Y-68426520D01*
X5976816Y-68432661D01*
X5949731Y-68437498D01*
X5922206Y-68440996D01*
X5894275Y-68443120D01*
X5865972Y-68443835D01*
X5837668Y-68443120D01*
X5809735Y-68440996D01*
X5782209Y-68437498D01*
X5755123Y-68432661D01*
X5728513Y-68426520D01*
X5702413Y-68419108D01*
X5676857Y-68410461D01*
X5651880Y-68400613D01*
X5627517Y-68389599D01*
X5603802Y-68377453D01*
X5580769Y-68364209D01*
X5558454Y-68349903D01*
X5536891Y-68334569D01*
X5516113Y-68318241D01*
X5496157Y-68300954D01*
X5477056Y-68282742D01*
X5458845Y-68263641D01*
X5441559Y-68243685D01*
X5425231Y-68222907D01*
X5409897Y-68201343D01*
X5395592Y-68179028D01*
X5382349Y-68155996D01*
X5370203Y-68132281D01*
X5359189Y-68107918D01*
X5349342Y-68082941D01*
X5340695Y-68057386D01*
X5333284Y-68031286D01*
X5327143Y-68004677D01*
X5322306Y-67977592D01*
X5318809Y-67950067D01*
X5316685Y-67922135D01*
X5315969Y-67893832D01*
X5316685Y-67865531D01*
X5318809Y-67837601D01*
X5322306Y-67810076D01*
X5327143Y-67782993D01*
X5333284Y-67756384D01*
X5340695Y-67730286D01*
X5349342Y-67704731D01*
X5359189Y-67679756D01*
X5370203Y-67655393D01*
X5382349Y-67631679D01*
X5395592Y-67608647D01*
X5409897Y-67586332D01*
X5425231Y-67564769D01*
X5441559Y-67543992D01*
X5458845Y-67524036D01*
X5477056Y-67504935D01*
X5496157Y-67486724D01*
X5516113Y-67469438D01*
X5536891Y-67453110D01*
X5558454Y-67437776D01*
X5580769Y-67423470D01*
X5603802Y-67410227D01*
X5627517Y-67398081D01*
X5651880Y-67387066D01*
X5676857Y-67377218D01*
X5702413Y-67368571D01*
X5728513Y-67361160D01*
X5755123Y-67355019D01*
X5782209Y-67350182D01*
X5809735Y-67346684D01*
X5837668Y-67344560D01*
X5865972Y-67343844D01*
X5894275Y-67344560D01*
G37*
G36*
X16412663Y-77862947D02*
G01*
X16440596Y-77865071D01*
X16468122Y-77868569D01*
X16495208Y-77873405D01*
X16521818Y-77879547D01*
X16547918Y-77886958D01*
X16573474Y-77895605D01*
X16598451Y-77905453D01*
X16622814Y-77916468D01*
X16646529Y-77928614D01*
X16669562Y-77941857D01*
X16691877Y-77956164D01*
X16713440Y-77971498D01*
X16734218Y-77987826D01*
X16754174Y-78005113D01*
X16773275Y-78023324D01*
X16791486Y-78042425D01*
X16808773Y-78062382D01*
X16825100Y-78083159D01*
X16840434Y-78104723D01*
X16854739Y-78127038D01*
X16867982Y-78150071D01*
X16880128Y-78173786D01*
X16891142Y-78198149D01*
X16900990Y-78223125D01*
X16909636Y-78248681D01*
X16917047Y-78274780D01*
X16923189Y-78301390D01*
X16928025Y-78328475D01*
X16931523Y-78356000D01*
X16933646Y-78383931D01*
X16934362Y-78412234D01*
X16933646Y-78440537D01*
X16931523Y-78468469D01*
X16928025Y-78495994D01*
X16923189Y-78523079D01*
X16917047Y-78549688D01*
X16909636Y-78575788D01*
X16900990Y-78601343D01*
X16891142Y-78626320D01*
X16880128Y-78650683D01*
X16867982Y-78674398D01*
X16854739Y-78697430D01*
X16840434Y-78719746D01*
X16825100Y-78741309D01*
X16808773Y-78762087D01*
X16791486Y-78782043D01*
X16773275Y-78801145D01*
X16754174Y-78819356D01*
X16734218Y-78836643D01*
X16713440Y-78852971D01*
X16691877Y-78868305D01*
X16669562Y-78882611D01*
X16646529Y-78895855D01*
X16622814Y-78908001D01*
X16598451Y-78919015D01*
X16573474Y-78928863D01*
X16547918Y-78937510D01*
X16521818Y-78944922D01*
X16495208Y-78951063D01*
X16468122Y-78955900D01*
X16440596Y-78959398D01*
X16412663Y-78961522D01*
X16384359Y-78962237D01*
X16356056Y-78961522D01*
X16328125Y-78959398D01*
X16300599Y-78955900D01*
X16273515Y-78951063D01*
X16246905Y-78944922D01*
X16220806Y-78937510D01*
X16195250Y-78928863D01*
X16170274Y-78919015D01*
X16145911Y-78908001D01*
X16122196Y-78895855D01*
X16099163Y-78882611D01*
X16076848Y-78868305D01*
X16055284Y-78852971D01*
X16034507Y-78836643D01*
X16014550Y-78819356D01*
X15995449Y-78801145D01*
X15977237Y-78782043D01*
X15959950Y-78762087D01*
X15943623Y-78741309D01*
X15928288Y-78719746D01*
X15913982Y-78697430D01*
X15900739Y-78674398D01*
X15888592Y-78650683D01*
X15877578Y-78626320D01*
X15867730Y-78601343D01*
X15859083Y-78575788D01*
X15851672Y-78549688D01*
X15845530Y-78523079D01*
X15840693Y-78495994D01*
X15837196Y-78468469D01*
X15835072Y-78440537D01*
X15834356Y-78412234D01*
X15835072Y-78383931D01*
X15837196Y-78356000D01*
X15840693Y-78328475D01*
X15845530Y-78301390D01*
X15851672Y-78274780D01*
X15859083Y-78248681D01*
X15867730Y-78223125D01*
X15877578Y-78198149D01*
X15888592Y-78173786D01*
X15900739Y-78150071D01*
X15913982Y-78127038D01*
X15928288Y-78104723D01*
X15943623Y-78083159D01*
X15959950Y-78062382D01*
X15977237Y-78042425D01*
X15995449Y-78023324D01*
X16014550Y-78005113D01*
X16034507Y-77987826D01*
X16055284Y-77971498D01*
X16076848Y-77956164D01*
X16099163Y-77941857D01*
X16122196Y-77928614D01*
X16145911Y-77916468D01*
X16170274Y-77905453D01*
X16195250Y-77895605D01*
X16220806Y-77886958D01*
X16246905Y-77879547D01*
X16273515Y-77873405D01*
X16300599Y-77868569D01*
X16328125Y-77865071D01*
X16356056Y-77862947D01*
X16384359Y-77862231D01*
X16412663Y-77862947D01*
G37*
G36*
X19231067Y-92344560D02*
G01*
X19258999Y-92346684D01*
X19286524Y-92350182D01*
X19313608Y-92355019D01*
X19340218Y-92361160D01*
X19366318Y-92368571D01*
X19391873Y-92377218D01*
X19416849Y-92387066D01*
X19441213Y-92398081D01*
X19464928Y-92410227D01*
X19487960Y-92423470D01*
X19510275Y-92437776D01*
X19531839Y-92453110D01*
X19552617Y-92469438D01*
X19572573Y-92486724D01*
X19591674Y-92504935D01*
X19609886Y-92524036D01*
X19627173Y-92543992D01*
X19643501Y-92564769D01*
X19658835Y-92586332D01*
X19673141Y-92608647D01*
X19686384Y-92631679D01*
X19698531Y-92655393D01*
X19709545Y-92679756D01*
X19719393Y-92704731D01*
X19728040Y-92730286D01*
X19735452Y-92756384D01*
X19741593Y-92782993D01*
X19746430Y-92810076D01*
X19749928Y-92837601D01*
X19752052Y-92865531D01*
X19752767Y-92893832D01*
X19752052Y-92922135D01*
X19749928Y-92950067D01*
X19746430Y-92977592D01*
X19741593Y-93004677D01*
X19735452Y-93031286D01*
X19728040Y-93057386D01*
X19719393Y-93082941D01*
X19709545Y-93107918D01*
X19698531Y-93132281D01*
X19686384Y-93155996D01*
X19673141Y-93179028D01*
X19658835Y-93201343D01*
X19643501Y-93222907D01*
X19627173Y-93243685D01*
X19609886Y-93263641D01*
X19591674Y-93282742D01*
X19572573Y-93300954D01*
X19552617Y-93318241D01*
X19531839Y-93334569D01*
X19510275Y-93349903D01*
X19487960Y-93364209D01*
X19464928Y-93377453D01*
X19441213Y-93389599D01*
X19416849Y-93400613D01*
X19391873Y-93410461D01*
X19366318Y-93419108D01*
X19340218Y-93426520D01*
X19313608Y-93432661D01*
X19286524Y-93437498D01*
X19258999Y-93440996D01*
X19231067Y-93443120D01*
X19202764Y-93443835D01*
X19174461Y-93443120D01*
X19146530Y-93440996D01*
X19119004Y-93437498D01*
X19091920Y-93432661D01*
X19065310Y-93426520D01*
X19039211Y-93419108D01*
X19013655Y-93410461D01*
X18988679Y-93400613D01*
X18964316Y-93389599D01*
X18940601Y-93377453D01*
X18917568Y-93364209D01*
X18895253Y-93349903D01*
X18873689Y-93334569D01*
X18852912Y-93318241D01*
X18832955Y-93300954D01*
X18813854Y-93282742D01*
X18795642Y-93263641D01*
X18778356Y-93243685D01*
X18762028Y-93222907D01*
X18746693Y-93201343D01*
X18732387Y-93179028D01*
X18719144Y-93155996D01*
X18706998Y-93132281D01*
X18695983Y-93107918D01*
X18686135Y-93082941D01*
X18677488Y-93057386D01*
X18670077Y-93031286D01*
X18663935Y-93004677D01*
X18659098Y-92977592D01*
X18655601Y-92950067D01*
X18653477Y-92922135D01*
X18652761Y-92893832D01*
X18653477Y-92865531D01*
X18655601Y-92837601D01*
X18659098Y-92810076D01*
X18663935Y-92782993D01*
X18670077Y-92756384D01*
X18677488Y-92730286D01*
X18686135Y-92704731D01*
X18695983Y-92679756D01*
X18706998Y-92655393D01*
X18719144Y-92631679D01*
X18732387Y-92608647D01*
X18746693Y-92586332D01*
X18762028Y-92564769D01*
X18778356Y-92543992D01*
X18795642Y-92524036D01*
X18813854Y-92504935D01*
X18832955Y-92486724D01*
X18852912Y-92469438D01*
X18873689Y-92453110D01*
X18895253Y-92437776D01*
X18917568Y-92423470D01*
X18940601Y-92410227D01*
X18964316Y-92398081D01*
X18988679Y-92387066D01*
X19013655Y-92377218D01*
X19039211Y-92368571D01*
X19065310Y-92361160D01*
X19091920Y-92355019D01*
X19119004Y-92350182D01*
X19146530Y-92346684D01*
X19174461Y-92344560D01*
X19202764Y-92343844D01*
X19231067Y-92344560D01*
G37*
G36*
X22902431Y-59235417D02*
G01*
X2160244Y-59235417D01*
X2160244Y-58969792D01*
X22902431Y-58969792D01*
X22902431Y-59235417D01*
G37*
G36*
X12562671Y-38244554D02*
G01*
X12590602Y-38246678D01*
X12618127Y-38250176D01*
X12645212Y-38255012D01*
X12671821Y-38261154D01*
X12697920Y-38268565D01*
X12723475Y-38277213D01*
X12748451Y-38287060D01*
X12772814Y-38298075D01*
X12796528Y-38310221D01*
X12819560Y-38323464D01*
X12841875Y-38337771D01*
X12863438Y-38353105D01*
X12884214Y-38369433D01*
X12904170Y-38386720D01*
X12923271Y-38404931D01*
X12941481Y-38424032D01*
X12958768Y-38443989D01*
X12975095Y-38464766D01*
X12990428Y-38486330D01*
X13004734Y-38508645D01*
X13017977Y-38531678D01*
X13030122Y-38555393D01*
X13041136Y-38579756D01*
X13050984Y-38604732D01*
X13059630Y-38630288D01*
X13067041Y-38656388D01*
X13073182Y-38682997D01*
X13078019Y-38710082D01*
X13081516Y-38737607D01*
X13083640Y-38765538D01*
X13084356Y-38793841D01*
X13083640Y-38822144D01*
X13081516Y-38850076D01*
X13078019Y-38877601D01*
X13073182Y-38904686D01*
X13067041Y-38931295D01*
X13059630Y-38957395D01*
X13050984Y-38982950D01*
X13041136Y-39007927D01*
X13030122Y-39032290D01*
X13017977Y-39056005D01*
X13004734Y-39079037D01*
X12990428Y-39101353D01*
X12975095Y-39122916D01*
X12958768Y-39143694D01*
X12941481Y-39163650D01*
X12923271Y-39182752D01*
X12904170Y-39200963D01*
X12884214Y-39218250D01*
X12863438Y-39234578D01*
X12841875Y-39249912D01*
X12819560Y-39264218D01*
X12796528Y-39277462D01*
X12772814Y-39289608D01*
X12748451Y-39300622D01*
X12723475Y-39310470D01*
X12697920Y-39319117D01*
X12671821Y-39326529D01*
X12645212Y-39332670D01*
X12618127Y-39337507D01*
X12590602Y-39341005D01*
X12562671Y-39343129D01*
X12534368Y-39343844D01*
X12506064Y-39343129D01*
X12478131Y-39341005D01*
X12450605Y-39337507D01*
X12423519Y-39332670D01*
X12396909Y-39326529D01*
X12370809Y-39319117D01*
X12345253Y-39310470D01*
X12320276Y-39300622D01*
X12295913Y-39289608D01*
X12272198Y-39277462D01*
X12249165Y-39264218D01*
X12226850Y-39249912D01*
X12205287Y-39234578D01*
X12184509Y-39218250D01*
X12164553Y-39200963D01*
X12145452Y-39182752D01*
X12127241Y-39163650D01*
X12109955Y-39143694D01*
X12093627Y-39122916D01*
X12078293Y-39101353D01*
X12063988Y-39079037D01*
X12050745Y-39056005D01*
X12038599Y-39032290D01*
X12027585Y-39007927D01*
X12017738Y-38982950D01*
X12009091Y-38957395D01*
X12001680Y-38931295D01*
X11995539Y-38904686D01*
X11990702Y-38877601D01*
X11987205Y-38850076D01*
X11985081Y-38822144D01*
X11984365Y-38793841D01*
X11985081Y-38765538D01*
X11987205Y-38737607D01*
X11990702Y-38710082D01*
X11995539Y-38682997D01*
X12001680Y-38656388D01*
X12009091Y-38630288D01*
X12017738Y-38604732D01*
X12027585Y-38579756D01*
X12038599Y-38555393D01*
X12050745Y-38531678D01*
X12063988Y-38508645D01*
X12078293Y-38486330D01*
X12093627Y-38464766D01*
X12109955Y-38443989D01*
X12127241Y-38424032D01*
X12145452Y-38404931D01*
X12164553Y-38386720D01*
X12184509Y-38369433D01*
X12205287Y-38353105D01*
X12226850Y-38337771D01*
X12249165Y-38323464D01*
X12272198Y-38310221D01*
X12295913Y-38298075D01*
X12320276Y-38287060D01*
X12345253Y-38277213D01*
X12370809Y-38268565D01*
X12396909Y-38261154D01*
X12423519Y-38255012D01*
X12450605Y-38250176D01*
X12478131Y-38246678D01*
X12506064Y-38244554D01*
X12534368Y-38243838D01*
X12562671Y-38244554D01*
G37*
G36*
X16412663Y-64526155D02*
G01*
X16440596Y-64528279D01*
X16468122Y-64531777D01*
X16495208Y-64536613D01*
X16521818Y-64542755D01*
X16547918Y-64550166D01*
X16573474Y-64558813D01*
X16598451Y-64568661D01*
X16622814Y-64579676D01*
X16646529Y-64591822D01*
X16669562Y-64605065D01*
X16691877Y-64619372D01*
X16713440Y-64634706D01*
X16734218Y-64651034D01*
X16754174Y-64668321D01*
X16773275Y-64686532D01*
X16791486Y-64705633D01*
X16808773Y-64725590D01*
X16825100Y-64746367D01*
X16840434Y-64767931D01*
X16854739Y-64790246D01*
X16867982Y-64813279D01*
X16880128Y-64836994D01*
X16891142Y-64861357D01*
X16900990Y-64886333D01*
X16909636Y-64911889D01*
X16917047Y-64937988D01*
X16923189Y-64964598D01*
X16928025Y-64991683D01*
X16931523Y-65019208D01*
X16933646Y-65047139D01*
X16934362Y-65075442D01*
X16933646Y-65103745D01*
X16931523Y-65131677D01*
X16928025Y-65159202D01*
X16923189Y-65186287D01*
X16917047Y-65212896D01*
X16909636Y-65238996D01*
X16900990Y-65264551D01*
X16891142Y-65289528D01*
X16880128Y-65313891D01*
X16867982Y-65337606D01*
X16854739Y-65360638D01*
X16840434Y-65382954D01*
X16825100Y-65404517D01*
X16808773Y-65425295D01*
X16791486Y-65445251D01*
X16773275Y-65464353D01*
X16754174Y-65482564D01*
X16734218Y-65499851D01*
X16713440Y-65516179D01*
X16691877Y-65531513D01*
X16669562Y-65545819D01*
X16646529Y-65559063D01*
X16622814Y-65571209D01*
X16598451Y-65582223D01*
X16573474Y-65592071D01*
X16547918Y-65600718D01*
X16521818Y-65608130D01*
X16495208Y-65614271D01*
X16468122Y-65619108D01*
X16440596Y-65622606D01*
X16412663Y-65624730D01*
X16384359Y-65625445D01*
X16356056Y-65624730D01*
X16328125Y-65622606D01*
X16300599Y-65619108D01*
X16273515Y-65614271D01*
X16246905Y-65608130D01*
X16220806Y-65600718D01*
X16195250Y-65592071D01*
X16170274Y-65582223D01*
X16145911Y-65571209D01*
X16122196Y-65559063D01*
X16099163Y-65545819D01*
X16076848Y-65531513D01*
X16055284Y-65516179D01*
X16034507Y-65499851D01*
X16014550Y-65482564D01*
X15995449Y-65464353D01*
X15977237Y-65445251D01*
X15959950Y-65425295D01*
X15943623Y-65404517D01*
X15928288Y-65382954D01*
X15913982Y-65360638D01*
X15900739Y-65337606D01*
X15888592Y-65313891D01*
X15877578Y-65289528D01*
X15867730Y-65264551D01*
X15859083Y-65238996D01*
X15851672Y-65212896D01*
X15845530Y-65186287D01*
X15840693Y-65159202D01*
X15837196Y-65131677D01*
X15835072Y-65103745D01*
X15834356Y-65075442D01*
X15835072Y-65047139D01*
X15837196Y-65019208D01*
X15840693Y-64991683D01*
X15845530Y-64964598D01*
X15851672Y-64937988D01*
X15859083Y-64911889D01*
X15867730Y-64886333D01*
X15877578Y-64861357D01*
X15888592Y-64836994D01*
X15900739Y-64813279D01*
X15913982Y-64790246D01*
X15928288Y-64767931D01*
X15943623Y-64746367D01*
X15959950Y-64725590D01*
X15977237Y-64705633D01*
X15995449Y-64686532D01*
X16014550Y-64668321D01*
X16034507Y-64651034D01*
X16055284Y-64634706D01*
X16076848Y-64619372D01*
X16099163Y-64605065D01*
X16122196Y-64591822D01*
X16145911Y-64579676D01*
X16170274Y-64568661D01*
X16195250Y-64558813D01*
X16220806Y-64550166D01*
X16246905Y-64542755D01*
X16273515Y-64536613D01*
X16300599Y-64531777D01*
X16328125Y-64528279D01*
X16356056Y-64526155D01*
X16384359Y-64525439D01*
X16412663Y-64526155D01*
G37*
G36*
X16412663Y-39276155D02*
G01*
X16440596Y-39278279D01*
X16468122Y-39281777D01*
X16495208Y-39286613D01*
X16521818Y-39292755D01*
X16547918Y-39300166D01*
X16573474Y-39308813D01*
X16598451Y-39318661D01*
X16622814Y-39329676D01*
X16646529Y-39341822D01*
X16669562Y-39355065D01*
X16691877Y-39369372D01*
X16713440Y-39384706D01*
X16734218Y-39401034D01*
X16754174Y-39418321D01*
X16773275Y-39436532D01*
X16791486Y-39455633D01*
X16808773Y-39475590D01*
X16825100Y-39496367D01*
X16840434Y-39517931D01*
X16854739Y-39540246D01*
X16867982Y-39563279D01*
X16880128Y-39586994D01*
X16891142Y-39611357D01*
X16900990Y-39636333D01*
X16909636Y-39661889D01*
X16917047Y-39687988D01*
X16923189Y-39714598D01*
X16928025Y-39741683D01*
X16931523Y-39769208D01*
X16933646Y-39797139D01*
X16934362Y-39825442D01*
X16933646Y-39853745D01*
X16931523Y-39881677D01*
X16928025Y-39909202D01*
X16923189Y-39936287D01*
X16917047Y-39962896D01*
X16909636Y-39988996D01*
X16900990Y-40014551D01*
X16891142Y-40039528D01*
X16880128Y-40063891D01*
X16867982Y-40087606D01*
X16854739Y-40110638D01*
X16840434Y-40132954D01*
X16825100Y-40154517D01*
X16808773Y-40175295D01*
X16791486Y-40195251D01*
X16773275Y-40214353D01*
X16754174Y-40232564D01*
X16734218Y-40249851D01*
X16713440Y-40266179D01*
X16691877Y-40281513D01*
X16669562Y-40295819D01*
X16646529Y-40309063D01*
X16622814Y-40321209D01*
X16598451Y-40332223D01*
X16573474Y-40342071D01*
X16547918Y-40350718D01*
X16521818Y-40358130D01*
X16495208Y-40364271D01*
X16468122Y-40369108D01*
X16440596Y-40372606D01*
X16412663Y-40374730D01*
X16384359Y-40375445D01*
X16356056Y-40374730D01*
X16328125Y-40372606D01*
X16300599Y-40369108D01*
X16273515Y-40364271D01*
X16246905Y-40358130D01*
X16220806Y-40350718D01*
X16195250Y-40342071D01*
X16170274Y-40332223D01*
X16145911Y-40321209D01*
X16122196Y-40309063D01*
X16099163Y-40295819D01*
X16076848Y-40281513D01*
X16055284Y-40266179D01*
X16034507Y-40249851D01*
X16014550Y-40232564D01*
X15995449Y-40214353D01*
X15977237Y-40195251D01*
X15959950Y-40175295D01*
X15943623Y-40154517D01*
X15928288Y-40132954D01*
X15913982Y-40110638D01*
X15900739Y-40087606D01*
X15888592Y-40063891D01*
X15877578Y-40039528D01*
X15867730Y-40014551D01*
X15859083Y-39988996D01*
X15851672Y-39962896D01*
X15845530Y-39936287D01*
X15840693Y-39909202D01*
X15837196Y-39881677D01*
X15835072Y-39853745D01*
X15834356Y-39825442D01*
X15835072Y-39797139D01*
X15837196Y-39769208D01*
X15840693Y-39741683D01*
X15845530Y-39714598D01*
X15851672Y-39687988D01*
X15859083Y-39661889D01*
X15867730Y-39636333D01*
X15877578Y-39611357D01*
X15888592Y-39586994D01*
X15900739Y-39563279D01*
X15913982Y-39540246D01*
X15928288Y-39517931D01*
X15943623Y-39496367D01*
X15959950Y-39475590D01*
X15977237Y-39455633D01*
X15995449Y-39436532D01*
X16014550Y-39418321D01*
X16034507Y-39401034D01*
X16055284Y-39384706D01*
X16076848Y-39369372D01*
X16099163Y-39355065D01*
X16122196Y-39341822D01*
X16145911Y-39329676D01*
X16170274Y-39318661D01*
X16195250Y-39308813D01*
X16220806Y-39300166D01*
X16246905Y-39292755D01*
X16273515Y-39286613D01*
X16300599Y-39281777D01*
X16328125Y-39278279D01*
X16356056Y-39276155D01*
X16384359Y-39275439D01*
X16412663Y-39276155D01*
G37*
G36*
X19231067Y-100044557D02*
G01*
X19258999Y-100046681D01*
X19286524Y-100050179D01*
X19313608Y-100055016D01*
X19340218Y-100061157D01*
X19366318Y-100068569D01*
X19391873Y-100077216D01*
X19416849Y-100087064D01*
X19441213Y-100098078D01*
X19464928Y-100110224D01*
X19487960Y-100123468D01*
X19510275Y-100137774D01*
X19531839Y-100153108D01*
X19552617Y-100169436D01*
X19572573Y-100186723D01*
X19591674Y-100204934D01*
X19609886Y-100224035D01*
X19627173Y-100243992D01*
X19643501Y-100264769D01*
X19658835Y-100286333D01*
X19673141Y-100308649D01*
X19686384Y-100331681D01*
X19698531Y-100355396D01*
X19709545Y-100379759D01*
X19719393Y-100404736D01*
X19728040Y-100430291D01*
X19735452Y-100456391D01*
X19741593Y-100483000D01*
X19746430Y-100510085D01*
X19749928Y-100537610D01*
X19752052Y-100565541D01*
X19752767Y-100593844D01*
X19752052Y-100622146D01*
X19749928Y-100650076D01*
X19746430Y-100677600D01*
X19741593Y-100704684D01*
X19735452Y-100731292D01*
X19728040Y-100757391D01*
X19719393Y-100782945D01*
X19709545Y-100807921D01*
X19698531Y-100832283D01*
X19686384Y-100855998D01*
X19673141Y-100879029D01*
X19658835Y-100901344D01*
X19643501Y-100922907D01*
X19627173Y-100943684D01*
X19609886Y-100963640D01*
X19591674Y-100982741D01*
X19572573Y-101000952D01*
X19552617Y-101018239D01*
X19531839Y-101034567D01*
X19510275Y-101049901D01*
X19487960Y-101064207D01*
X19464928Y-101077450D01*
X19441213Y-101089596D01*
X19416849Y-101100610D01*
X19391873Y-101110458D01*
X19366318Y-101119105D01*
X19340218Y-101126517D01*
X19313608Y-101132658D01*
X19286524Y-101137495D01*
X19258999Y-101140993D01*
X19231067Y-101143117D01*
X19202764Y-101143832D01*
X19174461Y-101143117D01*
X19146530Y-101140993D01*
X19119004Y-101137495D01*
X19091920Y-101132658D01*
X19065310Y-101126517D01*
X19039211Y-101119105D01*
X19013655Y-101110458D01*
X18988679Y-101100610D01*
X18964316Y-101089596D01*
X18940601Y-101077450D01*
X18917568Y-101064207D01*
X18895253Y-101049901D01*
X18873689Y-101034567D01*
X18852912Y-101018239D01*
X18832955Y-101000952D01*
X18813854Y-100982741D01*
X18795642Y-100963640D01*
X18778356Y-100943684D01*
X18762028Y-100922907D01*
X18746693Y-100901344D01*
X18732387Y-100879029D01*
X18719144Y-100855998D01*
X18706998Y-100832283D01*
X18695983Y-100807921D01*
X18686135Y-100782945D01*
X18677488Y-100757391D01*
X18670077Y-100731292D01*
X18663935Y-100704684D01*
X18659098Y-100677600D01*
X18655601Y-100650076D01*
X18653477Y-100622146D01*
X18652761Y-100593844D01*
X18653477Y-100565541D01*
X18655601Y-100537610D01*
X18659098Y-100510085D01*
X18663935Y-100483000D01*
X18670077Y-100456391D01*
X18677488Y-100430291D01*
X18686135Y-100404736D01*
X18695983Y-100379759D01*
X18706998Y-100355396D01*
X18719144Y-100331681D01*
X18732387Y-100308649D01*
X18746693Y-100286333D01*
X18762028Y-100264769D01*
X18778356Y-100243992D01*
X18795642Y-100224035D01*
X18813854Y-100204934D01*
X18832955Y-100186723D01*
X18852912Y-100169436D01*
X18873689Y-100153108D01*
X18895253Y-100137774D01*
X18917568Y-100123468D01*
X18940601Y-100110224D01*
X18964316Y-100098078D01*
X18988679Y-100087064D01*
X19013655Y-100077216D01*
X19039211Y-100068569D01*
X19065310Y-100061157D01*
X19091920Y-100055016D01*
X19119004Y-100050179D01*
X19146530Y-100046681D01*
X19174461Y-100044557D01*
X19202764Y-100043841D01*
X19231067Y-100044557D01*
G37*
G36*
X19231067Y-49794557D02*
G01*
X19258999Y-49796681D01*
X19286524Y-49800179D01*
X19313608Y-49805016D01*
X19340218Y-49811157D01*
X19366318Y-49818569D01*
X19391873Y-49827216D01*
X19416849Y-49837064D01*
X19441213Y-49848078D01*
X19464928Y-49860224D01*
X19487960Y-49873468D01*
X19510275Y-49887774D01*
X19531839Y-49903108D01*
X19552617Y-49919436D01*
X19572573Y-49936723D01*
X19591674Y-49954934D01*
X19609886Y-49974035D01*
X19627173Y-49993992D01*
X19643501Y-50014769D01*
X19658835Y-50036333D01*
X19673141Y-50058649D01*
X19686384Y-50081681D01*
X19698531Y-50105396D01*
X19709545Y-50129759D01*
X19719393Y-50154736D01*
X19728040Y-50180291D01*
X19735452Y-50206391D01*
X19741593Y-50233000D01*
X19746430Y-50260085D01*
X19749928Y-50287610D01*
X19752052Y-50315541D01*
X19752767Y-50343844D01*
X19752052Y-50372146D01*
X19749928Y-50400076D01*
X19746430Y-50427600D01*
X19741593Y-50454684D01*
X19735452Y-50481292D01*
X19728040Y-50507391D01*
X19719393Y-50532945D01*
X19709545Y-50557921D01*
X19698531Y-50582283D01*
X19686384Y-50605998D01*
X19673141Y-50629029D01*
X19658835Y-50651344D01*
X19643501Y-50672907D01*
X19627173Y-50693684D01*
X19609886Y-50713640D01*
X19591674Y-50732741D01*
X19572573Y-50750952D01*
X19552617Y-50768239D01*
X19531839Y-50784567D01*
X19510275Y-50799901D01*
X19487960Y-50814207D01*
X19464928Y-50827450D01*
X19441213Y-50839596D01*
X19416849Y-50850610D01*
X19391873Y-50860458D01*
X19366318Y-50869105D01*
X19340218Y-50876517D01*
X19313608Y-50882658D01*
X19286524Y-50887495D01*
X19258999Y-50890993D01*
X19231067Y-50893117D01*
X19202764Y-50893832D01*
X19174461Y-50893117D01*
X19146530Y-50890993D01*
X19119004Y-50887495D01*
X19091920Y-50882658D01*
X19065310Y-50876517D01*
X19039211Y-50869105D01*
X19013655Y-50860458D01*
X18988679Y-50850610D01*
X18964316Y-50839596D01*
X18940601Y-50827450D01*
X18917568Y-50814207D01*
X18895253Y-50799901D01*
X18873689Y-50784567D01*
X18852912Y-50768239D01*
X18832955Y-50750952D01*
X18813854Y-50732741D01*
X18795642Y-50713640D01*
X18778356Y-50693684D01*
X18762028Y-50672907D01*
X18746693Y-50651344D01*
X18732387Y-50629029D01*
X18719144Y-50605998D01*
X18706998Y-50582283D01*
X18695983Y-50557921D01*
X18686135Y-50532945D01*
X18677488Y-50507391D01*
X18670077Y-50481292D01*
X18663935Y-50454684D01*
X18659098Y-50427600D01*
X18655601Y-50400076D01*
X18653477Y-50372146D01*
X18652761Y-50343844D01*
X18653477Y-50315541D01*
X18655601Y-50287610D01*
X18659098Y-50260085D01*
X18663935Y-50233000D01*
X18670077Y-50206391D01*
X18677488Y-50180291D01*
X18686135Y-50154736D01*
X18695983Y-50129759D01*
X18706998Y-50105396D01*
X18719144Y-50081681D01*
X18732387Y-50058649D01*
X18746693Y-50036333D01*
X18762028Y-50014769D01*
X18778356Y-49993992D01*
X18795642Y-49974035D01*
X18813854Y-49954934D01*
X18832955Y-49936723D01*
X18852912Y-49919436D01*
X18873689Y-49903108D01*
X18895253Y-49887774D01*
X18917568Y-49873468D01*
X18940601Y-49860224D01*
X18964316Y-49848078D01*
X18988679Y-49837064D01*
X19013655Y-49827216D01*
X19039211Y-49818569D01*
X19065310Y-49811157D01*
X19091920Y-49805016D01*
X19119004Y-49800179D01*
X19146530Y-49796681D01*
X19174461Y-49794557D01*
X19202764Y-49793841D01*
X19231067Y-49794557D01*
G37*
G36*
X19231067Y-75044557D02*
G01*
X19258999Y-75046681D01*
X19286524Y-75050179D01*
X19313608Y-75055016D01*
X19340218Y-75061157D01*
X19366318Y-75068569D01*
X19391873Y-75077216D01*
X19416849Y-75087064D01*
X19441213Y-75098078D01*
X19464928Y-75110224D01*
X19487960Y-75123468D01*
X19510275Y-75137774D01*
X19531839Y-75153108D01*
X19552617Y-75169436D01*
X19572573Y-75186723D01*
X19591674Y-75204934D01*
X19609886Y-75224035D01*
X19627173Y-75243992D01*
X19643501Y-75264769D01*
X19658835Y-75286333D01*
X19673141Y-75308649D01*
X19686384Y-75331681D01*
X19698531Y-75355396D01*
X19709545Y-75379759D01*
X19719393Y-75404736D01*
X19728040Y-75430291D01*
X19735452Y-75456391D01*
X19741593Y-75483000D01*
X19746430Y-75510085D01*
X19749928Y-75537610D01*
X19752052Y-75565541D01*
X19752767Y-75593844D01*
X19752052Y-75622146D01*
X19749928Y-75650076D01*
X19746430Y-75677600D01*
X19741593Y-75704684D01*
X19735452Y-75731292D01*
X19728040Y-75757391D01*
X19719393Y-75782945D01*
X19709545Y-75807921D01*
X19698531Y-75832283D01*
X19686384Y-75855998D01*
X19673141Y-75879029D01*
X19658835Y-75901344D01*
X19643501Y-75922907D01*
X19627173Y-75943684D01*
X19609886Y-75963640D01*
X19591674Y-75982741D01*
X19572573Y-76000952D01*
X19552617Y-76018239D01*
X19531839Y-76034567D01*
X19510275Y-76049901D01*
X19487960Y-76064207D01*
X19464928Y-76077450D01*
X19441213Y-76089596D01*
X19416849Y-76100610D01*
X19391873Y-76110458D01*
X19366318Y-76119105D01*
X19340218Y-76126517D01*
X19313608Y-76132658D01*
X19286524Y-76137495D01*
X19258999Y-76140993D01*
X19231067Y-76143117D01*
X19202764Y-76143832D01*
X19174461Y-76143117D01*
X19146530Y-76140993D01*
X19119004Y-76137495D01*
X19091920Y-76132658D01*
X19065310Y-76126517D01*
X19039211Y-76119105D01*
X19013655Y-76110458D01*
X18988679Y-76100610D01*
X18964316Y-76089596D01*
X18940601Y-76077450D01*
X18917568Y-76064207D01*
X18895253Y-76049901D01*
X18873689Y-76034567D01*
X18852912Y-76018239D01*
X18832955Y-76000952D01*
X18813854Y-75982741D01*
X18795642Y-75963640D01*
X18778356Y-75943684D01*
X18762028Y-75922907D01*
X18746693Y-75901344D01*
X18732387Y-75879029D01*
X18719144Y-75855998D01*
X18706998Y-75832283D01*
X18695983Y-75807921D01*
X18686135Y-75782945D01*
X18677488Y-75757391D01*
X18670077Y-75731292D01*
X18663935Y-75704684D01*
X18659098Y-75677600D01*
X18655601Y-75650076D01*
X18653477Y-75622146D01*
X18652761Y-75593844D01*
X18653477Y-75565541D01*
X18655601Y-75537610D01*
X18659098Y-75510085D01*
X18663935Y-75483000D01*
X18670077Y-75456391D01*
X18677488Y-75430291D01*
X18686135Y-75404736D01*
X18695983Y-75379759D01*
X18706998Y-75355396D01*
X18719144Y-75331681D01*
X18732387Y-75308649D01*
X18746693Y-75286333D01*
X18762028Y-75264769D01*
X18778356Y-75243992D01*
X18795642Y-75224035D01*
X18813854Y-75204934D01*
X18832955Y-75186723D01*
X18852912Y-75169436D01*
X18873689Y-75153108D01*
X18895253Y-75137774D01*
X18917568Y-75123468D01*
X18940601Y-75110224D01*
X18964316Y-75098078D01*
X18988679Y-75087064D01*
X19013655Y-75077216D01*
X19039211Y-75068569D01*
X19065310Y-75061157D01*
X19091920Y-75055016D01*
X19119004Y-75050179D01*
X19146530Y-75046681D01*
X19174461Y-75044557D01*
X19202764Y-75043841D01*
X19231067Y-75044557D01*
G37*
G36*
X16412663Y-102862947D02*
G01*
X16440596Y-102865071D01*
X16468122Y-102868569D01*
X16495208Y-102873405D01*
X16521818Y-102879547D01*
X16547918Y-102886958D01*
X16573474Y-102895605D01*
X16598451Y-102905453D01*
X16622814Y-102916468D01*
X16646529Y-102928614D01*
X16669562Y-102941857D01*
X16691877Y-102956164D01*
X16713440Y-102971498D01*
X16734218Y-102987826D01*
X16754174Y-103005113D01*
X16773275Y-103023324D01*
X16791486Y-103042425D01*
X16808773Y-103062382D01*
X16825100Y-103083159D01*
X16840434Y-103104723D01*
X16854739Y-103127038D01*
X16867982Y-103150071D01*
X16880128Y-103173786D01*
X16891142Y-103198149D01*
X16900990Y-103223125D01*
X16909636Y-103248681D01*
X16917047Y-103274780D01*
X16923189Y-103301390D01*
X16928025Y-103328475D01*
X16931523Y-103356000D01*
X16933646Y-103383931D01*
X16934362Y-103412234D01*
X16933646Y-103440537D01*
X16931523Y-103468469D01*
X16928025Y-103495994D01*
X16923189Y-103523079D01*
X16917047Y-103549688D01*
X16909636Y-103575788D01*
X16900990Y-103601343D01*
X16891142Y-103626320D01*
X16880128Y-103650683D01*
X16867982Y-103674398D01*
X16854739Y-103697430D01*
X16840434Y-103719746D01*
X16825100Y-103741309D01*
X16808773Y-103762087D01*
X16791486Y-103782043D01*
X16773275Y-103801145D01*
X16754174Y-103819356D01*
X16734218Y-103836643D01*
X16713440Y-103852971D01*
X16691877Y-103868305D01*
X16669562Y-103882611D01*
X16646529Y-103895855D01*
X16622814Y-103908001D01*
X16598451Y-103919015D01*
X16573474Y-103928863D01*
X16547918Y-103937510D01*
X16521818Y-103944922D01*
X16495208Y-103951063D01*
X16468122Y-103955900D01*
X16440596Y-103959398D01*
X16412663Y-103961522D01*
X16384359Y-103962237D01*
X16356056Y-103961522D01*
X16328125Y-103959398D01*
X16300599Y-103955900D01*
X16273515Y-103951063D01*
X16246905Y-103944922D01*
X16220806Y-103937510D01*
X16195250Y-103928863D01*
X16170274Y-103919015D01*
X16145911Y-103908001D01*
X16122196Y-103895855D01*
X16099163Y-103882611D01*
X16076848Y-103868305D01*
X16055284Y-103852971D01*
X16034507Y-103836643D01*
X16014550Y-103819356D01*
X15995449Y-103801145D01*
X15977237Y-103782043D01*
X15959950Y-103762087D01*
X15943623Y-103741309D01*
X15928288Y-103719746D01*
X15913982Y-103697430D01*
X15900739Y-103674398D01*
X15888592Y-103650683D01*
X15877578Y-103626320D01*
X15867730Y-103601343D01*
X15859083Y-103575788D01*
X15851672Y-103549688D01*
X15845530Y-103523079D01*
X15840693Y-103495994D01*
X15837196Y-103468469D01*
X15835072Y-103440537D01*
X15834356Y-103412234D01*
X15835072Y-103383931D01*
X15837196Y-103356000D01*
X15840693Y-103328475D01*
X15845530Y-103301390D01*
X15851672Y-103274780D01*
X15859083Y-103248681D01*
X15867730Y-103223125D01*
X15877578Y-103198149D01*
X15888592Y-103173786D01*
X15900739Y-103150071D01*
X15913982Y-103127038D01*
X15928288Y-103104723D01*
X15943623Y-103083159D01*
X15959950Y-103062382D01*
X15977237Y-103042425D01*
X15995449Y-103023324D01*
X16014550Y-103005113D01*
X16034507Y-102987826D01*
X16055284Y-102971498D01*
X16076848Y-102956164D01*
X16099163Y-102941857D01*
X16122196Y-102928614D01*
X16145911Y-102916468D01*
X16170274Y-102905453D01*
X16195250Y-102895605D01*
X16220806Y-102886958D01*
X16246905Y-102879547D01*
X16273515Y-102873405D01*
X16300599Y-102868569D01*
X16328125Y-102865071D01*
X16356056Y-102862947D01*
X16384359Y-102862231D01*
X16412663Y-102862947D01*
G37*
G36*
X20262668Y-71194551D02*
G01*
X20290599Y-71196675D01*
X20318125Y-71200173D01*
X20345209Y-71205009D01*
X20371819Y-71211151D01*
X20397919Y-71218562D01*
X20423474Y-71227209D01*
X20448450Y-71237057D01*
X20472813Y-71248072D01*
X20496529Y-71260218D01*
X20519561Y-71273461D01*
X20541876Y-71287768D01*
X20563440Y-71303102D01*
X20584217Y-71319430D01*
X20604174Y-71336717D01*
X20623275Y-71354928D01*
X20641487Y-71374029D01*
X20658774Y-71393986D01*
X20675102Y-71414763D01*
X20690436Y-71436327D01*
X20704742Y-71458642D01*
X20717985Y-71481675D01*
X20730132Y-71505390D01*
X20741146Y-71529753D01*
X20750994Y-71554729D01*
X20759641Y-71580285D01*
X20767053Y-71606384D01*
X20773194Y-71632994D01*
X20778031Y-71660079D01*
X20781529Y-71687604D01*
X20783652Y-71715535D01*
X20784368Y-71743838D01*
X20783652Y-71772141D01*
X20781529Y-71800073D01*
X20778031Y-71827598D01*
X20773194Y-71854683D01*
X20767053Y-71881292D01*
X20759641Y-71907392D01*
X20750994Y-71932947D01*
X20741146Y-71957924D01*
X20730132Y-71982287D01*
X20717985Y-72006002D01*
X20704742Y-72029034D01*
X20690436Y-72051350D01*
X20675102Y-72072913D01*
X20658774Y-72093691D01*
X20641487Y-72113647D01*
X20623275Y-72132749D01*
X20604174Y-72150960D01*
X20584217Y-72168247D01*
X20563440Y-72184575D01*
X20541876Y-72199909D01*
X20519561Y-72214215D01*
X20496529Y-72227459D01*
X20472813Y-72239605D01*
X20448450Y-72250619D01*
X20423474Y-72260467D01*
X20397919Y-72269114D01*
X20371819Y-72276526D01*
X20345209Y-72282667D01*
X20318125Y-72287504D01*
X20290599Y-72291002D01*
X20262668Y-72293126D01*
X20234365Y-72293841D01*
X20206062Y-72293126D01*
X20178131Y-72291002D01*
X20150605Y-72287504D01*
X20123521Y-72282667D01*
X20096911Y-72276526D01*
X20070812Y-72269114D01*
X20045256Y-72260467D01*
X20020280Y-72250619D01*
X19995917Y-72239605D01*
X19972202Y-72227459D01*
X19949169Y-72214215D01*
X19926854Y-72199909D01*
X19905290Y-72184575D01*
X19884513Y-72168247D01*
X19864556Y-72150960D01*
X19845455Y-72132749D01*
X19827243Y-72113647D01*
X19809957Y-72093691D01*
X19793629Y-72072913D01*
X19778294Y-72051350D01*
X19763988Y-72029034D01*
X19750745Y-72006002D01*
X19738599Y-71982287D01*
X19727584Y-71957924D01*
X19717736Y-71932947D01*
X19709089Y-71907392D01*
X19701678Y-71881292D01*
X19695536Y-71854683D01*
X19690699Y-71827598D01*
X19687202Y-71800073D01*
X19685078Y-71772141D01*
X19684362Y-71743838D01*
X19685078Y-71715535D01*
X19687202Y-71687604D01*
X19690699Y-71660079D01*
X19695536Y-71632994D01*
X19701678Y-71606384D01*
X19709089Y-71580285D01*
X19717736Y-71554729D01*
X19727584Y-71529753D01*
X19738599Y-71505390D01*
X19750745Y-71481675D01*
X19763988Y-71458642D01*
X19778294Y-71436327D01*
X19793629Y-71414763D01*
X19809957Y-71393986D01*
X19827243Y-71374029D01*
X19845455Y-71354928D01*
X19864556Y-71336717D01*
X19884513Y-71319430D01*
X19905290Y-71303102D01*
X19926854Y-71287768D01*
X19949169Y-71273461D01*
X19972202Y-71260218D01*
X19995917Y-71248072D01*
X20020280Y-71237057D01*
X20045256Y-71227209D01*
X20070812Y-71218562D01*
X20096911Y-71211151D01*
X20123521Y-71205009D01*
X20150605Y-71200173D01*
X20178131Y-71196675D01*
X20206062Y-71194551D01*
X20234365Y-71193835D01*
X20262668Y-71194551D01*
G37*
G36*
X5894275Y-49794557D02*
G01*
X5922206Y-49796681D01*
X5949731Y-49800179D01*
X5976816Y-49805016D01*
X6003425Y-49811157D01*
X6029524Y-49818569D01*
X6055079Y-49827216D01*
X6080055Y-49837064D01*
X6104418Y-49848078D01*
X6128132Y-49860224D01*
X6151164Y-49873468D01*
X6173479Y-49887774D01*
X6195042Y-49903108D01*
X6215818Y-49919436D01*
X6235774Y-49936723D01*
X6254875Y-49954934D01*
X6273085Y-49974035D01*
X6290372Y-49993992D01*
X6306699Y-50014769D01*
X6322032Y-50036333D01*
X6336338Y-50058649D01*
X6349581Y-50081681D01*
X6361726Y-50105396D01*
X6372740Y-50129759D01*
X6382588Y-50154736D01*
X6391234Y-50180291D01*
X6398645Y-50206391D01*
X6404786Y-50233000D01*
X6409623Y-50260085D01*
X6413121Y-50287610D01*
X6415244Y-50315541D01*
X6415960Y-50343844D01*
X6415244Y-50372146D01*
X6413121Y-50400076D01*
X6409623Y-50427600D01*
X6404786Y-50454684D01*
X6398645Y-50481292D01*
X6391234Y-50507391D01*
X6382588Y-50532945D01*
X6372740Y-50557921D01*
X6361726Y-50582283D01*
X6349581Y-50605998D01*
X6336338Y-50629029D01*
X6322032Y-50651344D01*
X6306699Y-50672907D01*
X6290372Y-50693684D01*
X6273085Y-50713640D01*
X6254875Y-50732741D01*
X6235774Y-50750952D01*
X6215818Y-50768239D01*
X6195042Y-50784567D01*
X6173479Y-50799901D01*
X6151164Y-50814207D01*
X6128132Y-50827450D01*
X6104418Y-50839596D01*
X6080055Y-50850610D01*
X6055079Y-50860458D01*
X6029524Y-50869105D01*
X6003425Y-50876517D01*
X5976816Y-50882658D01*
X5949731Y-50887495D01*
X5922206Y-50890993D01*
X5894275Y-50893117D01*
X5865972Y-50893832D01*
X5837668Y-50893117D01*
X5809735Y-50890993D01*
X5782209Y-50887495D01*
X5755123Y-50882658D01*
X5728513Y-50876517D01*
X5702413Y-50869105D01*
X5676857Y-50860458D01*
X5651880Y-50850610D01*
X5627517Y-50839596D01*
X5603802Y-50827450D01*
X5580769Y-50814207D01*
X5558454Y-50799901D01*
X5536891Y-50784567D01*
X5516113Y-50768239D01*
X5496157Y-50750952D01*
X5477056Y-50732741D01*
X5458845Y-50713640D01*
X5441559Y-50693684D01*
X5425231Y-50672907D01*
X5409897Y-50651344D01*
X5395592Y-50629029D01*
X5382349Y-50605998D01*
X5370203Y-50582283D01*
X5359189Y-50557921D01*
X5349342Y-50532945D01*
X5340695Y-50507391D01*
X5333284Y-50481292D01*
X5327143Y-50454684D01*
X5322306Y-50427600D01*
X5318809Y-50400076D01*
X5316685Y-50372146D01*
X5315969Y-50343844D01*
X5316685Y-50315541D01*
X5318809Y-50287610D01*
X5322306Y-50260085D01*
X5327143Y-50233000D01*
X5333284Y-50206391D01*
X5340695Y-50180291D01*
X5349342Y-50154736D01*
X5359189Y-50129759D01*
X5370203Y-50105396D01*
X5382349Y-50081681D01*
X5395592Y-50058649D01*
X5409897Y-50036333D01*
X5425231Y-50014769D01*
X5441559Y-49993992D01*
X5458845Y-49974035D01*
X5477056Y-49954934D01*
X5496157Y-49936723D01*
X5516113Y-49919436D01*
X5536891Y-49903108D01*
X5558454Y-49887774D01*
X5580769Y-49873468D01*
X5603802Y-49860224D01*
X5627517Y-49848078D01*
X5651880Y-49837064D01*
X5676857Y-49827216D01*
X5702413Y-49818569D01*
X5728513Y-49811157D01*
X5755123Y-49805016D01*
X5782209Y-49800179D01*
X5809735Y-49796681D01*
X5837668Y-49794557D01*
X5865972Y-49793841D01*
X5894275Y-49794557D01*
G37*
G36*
X22847744Y-34297917D02*
G01*
X2105556Y-34297917D01*
X2105556Y-34034245D01*
X22847744Y-34034245D01*
X22847744Y-34297917D01*
G37*
G36*
X19231067Y-67344560D02*
G01*
X19258999Y-67346684D01*
X19286524Y-67350182D01*
X19313608Y-67355019D01*
X19340218Y-67361160D01*
X19366318Y-67368571D01*
X19391873Y-67377218D01*
X19416849Y-67387066D01*
X19441213Y-67398081D01*
X19464928Y-67410227D01*
X19487960Y-67423470D01*
X19510275Y-67437776D01*
X19531839Y-67453110D01*
X19552617Y-67469438D01*
X19572573Y-67486724D01*
X19591674Y-67504935D01*
X19609886Y-67524036D01*
X19627173Y-67543992D01*
X19643501Y-67564769D01*
X19658835Y-67586332D01*
X19673141Y-67608647D01*
X19686384Y-67631679D01*
X19698531Y-67655393D01*
X19709545Y-67679756D01*
X19719393Y-67704731D01*
X19728040Y-67730286D01*
X19735452Y-67756384D01*
X19741593Y-67782993D01*
X19746430Y-67810076D01*
X19749928Y-67837601D01*
X19752052Y-67865531D01*
X19752767Y-67893832D01*
X19752052Y-67922135D01*
X19749928Y-67950067D01*
X19746430Y-67977592D01*
X19741593Y-68004677D01*
X19735452Y-68031286D01*
X19728040Y-68057386D01*
X19719393Y-68082941D01*
X19709545Y-68107918D01*
X19698531Y-68132281D01*
X19686384Y-68155996D01*
X19673141Y-68179028D01*
X19658835Y-68201343D01*
X19643501Y-68222907D01*
X19627173Y-68243685D01*
X19609886Y-68263641D01*
X19591674Y-68282742D01*
X19572573Y-68300954D01*
X19552617Y-68318241D01*
X19531839Y-68334569D01*
X19510275Y-68349903D01*
X19487960Y-68364209D01*
X19464928Y-68377453D01*
X19441213Y-68389599D01*
X19416849Y-68400613D01*
X19391873Y-68410461D01*
X19366318Y-68419108D01*
X19340218Y-68426520D01*
X19313608Y-68432661D01*
X19286524Y-68437498D01*
X19258999Y-68440996D01*
X19231067Y-68443120D01*
X19202764Y-68443835D01*
X19174461Y-68443120D01*
X19146530Y-68440996D01*
X19119004Y-68437498D01*
X19091920Y-68432661D01*
X19065310Y-68426520D01*
X19039211Y-68419108D01*
X19013655Y-68410461D01*
X18988679Y-68400613D01*
X18964316Y-68389599D01*
X18940601Y-68377453D01*
X18917568Y-68364209D01*
X18895253Y-68349903D01*
X18873689Y-68334569D01*
X18852912Y-68318241D01*
X18832955Y-68300954D01*
X18813854Y-68282742D01*
X18795642Y-68263641D01*
X18778356Y-68243685D01*
X18762028Y-68222907D01*
X18746693Y-68201343D01*
X18732387Y-68179028D01*
X18719144Y-68155996D01*
X18706998Y-68132281D01*
X18695983Y-68107918D01*
X18686135Y-68082941D01*
X18677488Y-68057386D01*
X18670077Y-68031286D01*
X18663935Y-68004677D01*
X18659098Y-67977592D01*
X18655601Y-67950067D01*
X18653477Y-67922135D01*
X18652761Y-67893832D01*
X18653477Y-67865531D01*
X18655601Y-67837601D01*
X18659098Y-67810076D01*
X18663935Y-67782993D01*
X18670077Y-67756384D01*
X18677488Y-67730286D01*
X18686135Y-67704731D01*
X18695983Y-67679756D01*
X18706998Y-67655393D01*
X18719144Y-67631679D01*
X18732387Y-67608647D01*
X18746693Y-67586332D01*
X18762028Y-67564769D01*
X18778356Y-67543992D01*
X18795642Y-67524036D01*
X18813854Y-67504935D01*
X18832955Y-67486724D01*
X18852912Y-67469438D01*
X18873689Y-67453110D01*
X18895253Y-67437776D01*
X18917568Y-67423470D01*
X18940601Y-67410227D01*
X18964316Y-67398081D01*
X18988679Y-67387066D01*
X19013655Y-67377218D01*
X19039211Y-67368571D01*
X19065310Y-67361160D01*
X19091920Y-67355019D01*
X19119004Y-67350182D01*
X19146530Y-67346684D01*
X19174461Y-67344560D01*
X19202764Y-67343844D01*
X19231067Y-67344560D01*
G37*
G36*
X5894275Y-100044557D02*
G01*
X5922206Y-100046681D01*
X5949731Y-100050179D01*
X5976816Y-100055016D01*
X6003425Y-100061157D01*
X6029524Y-100068569D01*
X6055079Y-100077216D01*
X6080055Y-100087064D01*
X6104418Y-100098078D01*
X6128132Y-100110224D01*
X6151164Y-100123468D01*
X6173479Y-100137774D01*
X6195042Y-100153108D01*
X6215818Y-100169436D01*
X6235774Y-100186723D01*
X6254875Y-100204934D01*
X6273085Y-100224035D01*
X6290372Y-100243992D01*
X6306699Y-100264769D01*
X6322032Y-100286333D01*
X6336338Y-100308649D01*
X6349581Y-100331681D01*
X6361726Y-100355396D01*
X6372740Y-100379759D01*
X6382588Y-100404736D01*
X6391234Y-100430291D01*
X6398645Y-100456391D01*
X6404786Y-100483000D01*
X6409623Y-100510085D01*
X6413121Y-100537610D01*
X6415244Y-100565541D01*
X6415960Y-100593844D01*
X6415244Y-100622146D01*
X6413121Y-100650076D01*
X6409623Y-100677600D01*
X6404786Y-100704684D01*
X6398645Y-100731292D01*
X6391234Y-100757391D01*
X6382588Y-100782945D01*
X6372740Y-100807921D01*
X6361726Y-100832283D01*
X6349581Y-100855998D01*
X6336338Y-100879029D01*
X6322032Y-100901344D01*
X6306699Y-100922907D01*
X6290372Y-100943684D01*
X6273085Y-100963640D01*
X6254875Y-100982741D01*
X6235774Y-101000952D01*
X6215818Y-101018239D01*
X6195042Y-101034567D01*
X6173479Y-101049901D01*
X6151164Y-101064207D01*
X6128132Y-101077450D01*
X6104418Y-101089596D01*
X6080055Y-101100610D01*
X6055079Y-101110458D01*
X6029524Y-101119105D01*
X6003425Y-101126517D01*
X5976816Y-101132658D01*
X5949731Y-101137495D01*
X5922206Y-101140993D01*
X5894275Y-101143117D01*
X5865972Y-101143832D01*
X5837668Y-101143117D01*
X5809735Y-101140993D01*
X5782209Y-101137495D01*
X5755123Y-101132658D01*
X5728513Y-101126517D01*
X5702413Y-101119105D01*
X5676857Y-101110458D01*
X5651880Y-101100610D01*
X5627517Y-101089596D01*
X5603802Y-101077450D01*
X5580769Y-101064207D01*
X5558454Y-101049901D01*
X5536891Y-101034567D01*
X5516113Y-101018239D01*
X5496157Y-101000952D01*
X5477056Y-100982741D01*
X5458845Y-100963640D01*
X5441559Y-100943684D01*
X5425231Y-100922907D01*
X5409897Y-100901344D01*
X5395592Y-100879029D01*
X5382349Y-100855998D01*
X5370203Y-100832283D01*
X5359189Y-100807921D01*
X5349342Y-100782945D01*
X5340695Y-100757391D01*
X5333284Y-100731292D01*
X5327143Y-100704684D01*
X5322306Y-100677600D01*
X5318809Y-100650076D01*
X5316685Y-100622146D01*
X5315969Y-100593844D01*
X5316685Y-100565541D01*
X5318809Y-100537610D01*
X5322306Y-100510085D01*
X5327143Y-100483000D01*
X5333284Y-100456391D01*
X5340695Y-100430291D01*
X5349342Y-100404736D01*
X5359189Y-100379759D01*
X5370203Y-100355396D01*
X5382349Y-100331681D01*
X5395592Y-100308649D01*
X5409897Y-100286333D01*
X5425231Y-100264769D01*
X5441559Y-100243992D01*
X5458845Y-100224035D01*
X5477056Y-100204934D01*
X5496157Y-100186723D01*
X5516113Y-100169436D01*
X5536891Y-100153108D01*
X5558454Y-100137774D01*
X5580769Y-100123468D01*
X5603802Y-100110224D01*
X5627517Y-100098078D01*
X5651880Y-100087064D01*
X5676857Y-100077216D01*
X5702413Y-100068569D01*
X5728513Y-100061157D01*
X5755123Y-100055016D01*
X5782209Y-100050179D01*
X5809735Y-100046681D01*
X5837668Y-100044557D01*
X5865972Y-100043841D01*
X5894275Y-100044557D01*
G37*
G36*
X8712665Y-39276155D02*
G01*
X8740596Y-39278279D01*
X8768122Y-39281777D01*
X8795206Y-39286613D01*
X8821816Y-39292755D01*
X8847916Y-39300166D01*
X8873471Y-39308813D01*
X8898447Y-39318661D01*
X8922810Y-39329676D01*
X8946525Y-39341822D01*
X8969558Y-39355065D01*
X8991873Y-39369372D01*
X9013437Y-39384706D01*
X9034214Y-39401034D01*
X9054171Y-39418321D01*
X9073272Y-39436532D01*
X9091484Y-39455633D01*
X9108771Y-39475590D01*
X9125099Y-39496367D01*
X9140433Y-39517931D01*
X9154739Y-39540246D01*
X9167982Y-39563279D01*
X9180129Y-39586994D01*
X9191143Y-39611357D01*
X9200991Y-39636333D01*
X9209638Y-39661889D01*
X9217049Y-39687988D01*
X9223191Y-39714598D01*
X9228028Y-39741683D01*
X9231525Y-39769208D01*
X9233649Y-39797139D01*
X9234365Y-39825442D01*
X9233649Y-39853745D01*
X9231525Y-39881677D01*
X9228028Y-39909202D01*
X9223191Y-39936287D01*
X9217049Y-39962896D01*
X9209638Y-39988996D01*
X9200991Y-40014551D01*
X9191143Y-40039528D01*
X9180129Y-40063891D01*
X9167982Y-40087606D01*
X9154739Y-40110638D01*
X9140433Y-40132954D01*
X9125099Y-40154517D01*
X9108771Y-40175295D01*
X9091484Y-40195251D01*
X9073272Y-40214353D01*
X9054171Y-40232564D01*
X9034214Y-40249851D01*
X9013437Y-40266179D01*
X8991873Y-40281513D01*
X8969558Y-40295819D01*
X8946525Y-40309063D01*
X8922810Y-40321209D01*
X8898447Y-40332223D01*
X8873471Y-40342071D01*
X8847916Y-40350718D01*
X8821816Y-40358130D01*
X8795206Y-40364271D01*
X8768122Y-40369108D01*
X8740596Y-40372606D01*
X8712665Y-40374730D01*
X8684362Y-40375445D01*
X8656059Y-40374730D01*
X8628128Y-40372606D01*
X8600602Y-40369108D01*
X8573518Y-40364271D01*
X8546908Y-40358130D01*
X8520809Y-40350718D01*
X8495253Y-40342071D01*
X8470277Y-40332223D01*
X8445914Y-40321209D01*
X8422199Y-40309063D01*
X8399166Y-40295819D01*
X8376851Y-40281513D01*
X8355287Y-40266179D01*
X8334510Y-40249851D01*
X8314553Y-40232564D01*
X8295452Y-40214353D01*
X8277240Y-40195251D01*
X8259953Y-40175295D01*
X8243626Y-40154517D01*
X8228291Y-40132954D01*
X8213985Y-40110638D01*
X8200742Y-40087606D01*
X8188596Y-40063891D01*
X8177581Y-40039528D01*
X8167733Y-40014551D01*
X8159086Y-39988996D01*
X8151675Y-39962896D01*
X8145533Y-39936287D01*
X8140696Y-39909202D01*
X8137199Y-39881677D01*
X8135075Y-39853745D01*
X8134359Y-39825442D01*
X8135075Y-39797139D01*
X8137199Y-39769208D01*
X8140696Y-39741683D01*
X8145533Y-39714598D01*
X8151675Y-39687988D01*
X8159086Y-39661889D01*
X8167733Y-39636333D01*
X8177581Y-39611357D01*
X8188596Y-39586994D01*
X8200742Y-39563279D01*
X8213985Y-39540246D01*
X8228291Y-39517931D01*
X8243626Y-39496367D01*
X8259953Y-39475590D01*
X8277240Y-39455633D01*
X8295452Y-39436532D01*
X8314553Y-39418321D01*
X8334510Y-39401034D01*
X8355287Y-39384706D01*
X8376851Y-39369372D01*
X8399166Y-39355065D01*
X8422199Y-39341822D01*
X8445914Y-39329676D01*
X8470277Y-39318661D01*
X8495253Y-39308813D01*
X8520809Y-39300166D01*
X8546908Y-39292755D01*
X8573518Y-39286613D01*
X8600602Y-39281777D01*
X8628128Y-39278279D01*
X8656059Y-39276155D01*
X8684362Y-39275439D01*
X8712665Y-39276155D01*
G37*
G36*
X8712665Y-52612947D02*
G01*
X8740596Y-52615071D01*
X8768122Y-52618569D01*
X8795206Y-52623405D01*
X8821816Y-52629547D01*
X8847916Y-52636958D01*
X8873471Y-52645605D01*
X8898447Y-52655453D01*
X8922810Y-52666468D01*
X8946525Y-52678614D01*
X8969558Y-52691857D01*
X8991873Y-52706164D01*
X9013437Y-52721498D01*
X9034214Y-52737826D01*
X9054171Y-52755113D01*
X9073272Y-52773324D01*
X9091484Y-52792425D01*
X9108771Y-52812382D01*
X9125099Y-52833159D01*
X9140433Y-52854723D01*
X9154739Y-52877038D01*
X9167982Y-52900071D01*
X9180129Y-52923786D01*
X9191143Y-52948149D01*
X9200991Y-52973125D01*
X9209638Y-52998681D01*
X9217049Y-53024780D01*
X9223191Y-53051390D01*
X9228028Y-53078475D01*
X9231525Y-53106000D01*
X9233649Y-53133931D01*
X9234365Y-53162234D01*
X9233649Y-53190537D01*
X9231525Y-53218469D01*
X9228028Y-53245994D01*
X9223191Y-53273079D01*
X9217049Y-53299688D01*
X9209638Y-53325788D01*
X9200991Y-53351343D01*
X9191143Y-53376320D01*
X9180129Y-53400683D01*
X9167982Y-53424398D01*
X9154739Y-53447430D01*
X9140433Y-53469746D01*
X9125099Y-53491309D01*
X9108771Y-53512087D01*
X9091484Y-53532043D01*
X9073272Y-53551145D01*
X9054171Y-53569356D01*
X9034214Y-53586643D01*
X9013437Y-53602971D01*
X8991873Y-53618305D01*
X8969558Y-53632611D01*
X8946525Y-53645855D01*
X8922810Y-53658001D01*
X8898447Y-53669015D01*
X8873471Y-53678863D01*
X8847916Y-53687510D01*
X8821816Y-53694922D01*
X8795206Y-53701063D01*
X8768122Y-53705900D01*
X8740596Y-53709398D01*
X8712665Y-53711522D01*
X8684362Y-53712237D01*
X8656059Y-53711522D01*
X8628128Y-53709398D01*
X8600602Y-53705900D01*
X8573518Y-53701063D01*
X8546908Y-53694922D01*
X8520809Y-53687510D01*
X8495253Y-53678863D01*
X8470277Y-53669015D01*
X8445914Y-53658001D01*
X8422199Y-53645855D01*
X8399166Y-53632611D01*
X8376851Y-53618305D01*
X8355287Y-53602971D01*
X8334510Y-53586643D01*
X8314553Y-53569356D01*
X8295452Y-53551145D01*
X8277240Y-53532043D01*
X8259953Y-53512087D01*
X8243626Y-53491309D01*
X8228291Y-53469746D01*
X8213985Y-53447430D01*
X8200742Y-53424398D01*
X8188596Y-53400683D01*
X8177581Y-53376320D01*
X8167733Y-53351343D01*
X8159086Y-53325788D01*
X8151675Y-53299688D01*
X8145533Y-53273079D01*
X8140696Y-53245994D01*
X8137199Y-53218469D01*
X8135075Y-53190537D01*
X8134359Y-53162234D01*
X8135075Y-53133931D01*
X8137199Y-53106000D01*
X8140696Y-53078475D01*
X8145533Y-53051390D01*
X8151675Y-53024780D01*
X8159086Y-52998681D01*
X8167733Y-52973125D01*
X8177581Y-52948149D01*
X8188596Y-52923786D01*
X8200742Y-52900071D01*
X8213985Y-52877038D01*
X8228291Y-52854723D01*
X8243626Y-52833159D01*
X8259953Y-52812382D01*
X8277240Y-52792425D01*
X8295452Y-52773324D01*
X8314553Y-52755113D01*
X8334510Y-52737826D01*
X8355287Y-52721498D01*
X8376851Y-52706164D01*
X8399166Y-52691857D01*
X8422199Y-52678614D01*
X8445914Y-52666468D01*
X8470277Y-52655453D01*
X8495253Y-52645605D01*
X8520809Y-52636958D01*
X8546908Y-52629547D01*
X8573518Y-52623405D01*
X8600602Y-52618569D01*
X8628128Y-52615071D01*
X8656059Y-52612947D01*
X8684362Y-52612231D01*
X8712665Y-52612947D01*
G37*
G36*
X8712665Y-89526155D02*
G01*
X8740596Y-89528279D01*
X8768122Y-89531777D01*
X8795206Y-89536613D01*
X8821816Y-89542755D01*
X8847916Y-89550166D01*
X8873471Y-89558813D01*
X8898447Y-89568661D01*
X8922810Y-89579676D01*
X8946525Y-89591822D01*
X8969558Y-89605065D01*
X8991873Y-89619372D01*
X9013437Y-89634706D01*
X9034214Y-89651034D01*
X9054171Y-89668321D01*
X9073272Y-89686532D01*
X9091484Y-89705633D01*
X9108771Y-89725590D01*
X9125099Y-89746367D01*
X9140433Y-89767931D01*
X9154739Y-89790246D01*
X9167982Y-89813279D01*
X9180129Y-89836994D01*
X9191143Y-89861357D01*
X9200991Y-89886333D01*
X9209638Y-89911889D01*
X9217049Y-89937988D01*
X9223191Y-89964598D01*
X9228028Y-89991683D01*
X9231525Y-90019208D01*
X9233649Y-90047139D01*
X9234365Y-90075442D01*
X9233649Y-90103745D01*
X9231525Y-90131677D01*
X9228028Y-90159202D01*
X9223191Y-90186287D01*
X9217049Y-90212896D01*
X9209638Y-90238996D01*
X9200991Y-90264551D01*
X9191143Y-90289528D01*
X9180129Y-90313891D01*
X9167982Y-90337606D01*
X9154739Y-90360638D01*
X9140433Y-90382954D01*
X9125099Y-90404517D01*
X9108771Y-90425295D01*
X9091484Y-90445251D01*
X9073272Y-90464353D01*
X9054171Y-90482564D01*
X9034214Y-90499851D01*
X9013437Y-90516179D01*
X8991873Y-90531513D01*
X8969558Y-90545819D01*
X8946525Y-90559063D01*
X8922810Y-90571209D01*
X8898447Y-90582223D01*
X8873471Y-90592071D01*
X8847916Y-90600718D01*
X8821816Y-90608130D01*
X8795206Y-90614271D01*
X8768122Y-90619108D01*
X8740596Y-90622606D01*
X8712665Y-90624730D01*
X8684362Y-90625445D01*
X8656059Y-90624730D01*
X8628128Y-90622606D01*
X8600602Y-90619108D01*
X8573518Y-90614271D01*
X8546908Y-90608130D01*
X8520809Y-90600718D01*
X8495253Y-90592071D01*
X8470277Y-90582223D01*
X8445914Y-90571209D01*
X8422199Y-90559063D01*
X8399166Y-90545819D01*
X8376851Y-90531513D01*
X8355287Y-90516179D01*
X8334510Y-90499851D01*
X8314553Y-90482564D01*
X8295452Y-90464353D01*
X8277240Y-90445251D01*
X8259953Y-90425295D01*
X8243626Y-90404517D01*
X8228291Y-90382954D01*
X8213985Y-90360638D01*
X8200742Y-90337606D01*
X8188596Y-90313891D01*
X8177581Y-90289528D01*
X8167733Y-90264551D01*
X8159086Y-90238996D01*
X8151675Y-90212896D01*
X8145533Y-90186287D01*
X8140696Y-90159202D01*
X8137199Y-90131677D01*
X8135075Y-90103745D01*
X8134359Y-90075442D01*
X8135075Y-90047139D01*
X8137199Y-90019208D01*
X8140696Y-89991683D01*
X8145533Y-89964598D01*
X8151675Y-89937988D01*
X8159086Y-89911889D01*
X8167733Y-89886333D01*
X8177581Y-89861357D01*
X8188596Y-89836994D01*
X8200742Y-89813279D01*
X8213985Y-89790246D01*
X8228291Y-89767931D01*
X8243626Y-89746367D01*
X8259953Y-89725590D01*
X8277240Y-89705633D01*
X8295452Y-89686532D01*
X8314553Y-89668321D01*
X8334510Y-89651034D01*
X8355287Y-89634706D01*
X8376851Y-89619372D01*
X8399166Y-89605065D01*
X8422199Y-89591822D01*
X8445914Y-89579676D01*
X8470277Y-89568661D01*
X8495253Y-89558813D01*
X8520809Y-89550166D01*
X8546908Y-89542755D01*
X8573518Y-89536613D01*
X8600602Y-89531777D01*
X8628128Y-89528279D01*
X8656059Y-89526155D01*
X8684362Y-89525439D01*
X8712665Y-89526155D01*
G37*
G36*
X8712665Y-102862947D02*
G01*
X8740596Y-102865071D01*
X8768122Y-102868569D01*
X8795206Y-102873405D01*
X8821816Y-102879547D01*
X8847916Y-102886958D01*
X8873471Y-102895605D01*
X8898447Y-102905453D01*
X8922810Y-102916468D01*
X8946525Y-102928614D01*
X8969558Y-102941857D01*
X8991873Y-102956164D01*
X9013437Y-102971498D01*
X9034214Y-102987826D01*
X9054171Y-103005113D01*
X9073272Y-103023324D01*
X9091484Y-103042425D01*
X9108771Y-103062382D01*
X9125099Y-103083159D01*
X9140433Y-103104723D01*
X9154739Y-103127038D01*
X9167982Y-103150071D01*
X9180129Y-103173786D01*
X9191143Y-103198149D01*
X9200991Y-103223125D01*
X9209638Y-103248681D01*
X9217049Y-103274780D01*
X9223191Y-103301390D01*
X9228028Y-103328475D01*
X9231525Y-103356000D01*
X9233649Y-103383931D01*
X9234365Y-103412234D01*
X9233649Y-103440537D01*
X9231525Y-103468469D01*
X9228028Y-103495994D01*
X9223191Y-103523079D01*
X9217049Y-103549688D01*
X9209638Y-103575788D01*
X9200991Y-103601343D01*
X9191143Y-103626320D01*
X9180129Y-103650683D01*
X9167982Y-103674398D01*
X9154739Y-103697430D01*
X9140433Y-103719746D01*
X9125099Y-103741309D01*
X9108771Y-103762087D01*
X9091484Y-103782043D01*
X9073272Y-103801145D01*
X9054171Y-103819356D01*
X9034214Y-103836643D01*
X9013437Y-103852971D01*
X8991873Y-103868305D01*
X8969558Y-103882611D01*
X8946525Y-103895855D01*
X8922810Y-103908001D01*
X8898447Y-103919015D01*
X8873471Y-103928863D01*
X8847916Y-103937510D01*
X8821816Y-103944922D01*
X8795206Y-103951063D01*
X8768122Y-103955900D01*
X8740596Y-103959398D01*
X8712665Y-103961522D01*
X8684362Y-103962237D01*
X8656059Y-103961522D01*
X8628128Y-103959398D01*
X8600602Y-103955900D01*
X8573518Y-103951063D01*
X8546908Y-103944922D01*
X8520809Y-103937510D01*
X8495253Y-103928863D01*
X8470277Y-103919015D01*
X8445914Y-103908001D01*
X8422199Y-103895855D01*
X8399166Y-103882611D01*
X8376851Y-103868305D01*
X8355287Y-103852971D01*
X8334510Y-103836643D01*
X8314553Y-103819356D01*
X8295452Y-103801145D01*
X8277240Y-103782043D01*
X8259953Y-103762087D01*
X8243626Y-103741309D01*
X8228291Y-103719746D01*
X8213985Y-103697430D01*
X8200742Y-103674398D01*
X8188596Y-103650683D01*
X8177581Y-103626320D01*
X8167733Y-103601343D01*
X8159086Y-103575788D01*
X8151675Y-103549688D01*
X8145533Y-103523079D01*
X8140696Y-103495994D01*
X8137199Y-103468469D01*
X8135075Y-103440537D01*
X8134359Y-103412234D01*
X8135075Y-103383931D01*
X8137199Y-103356000D01*
X8140696Y-103328475D01*
X8145533Y-103301390D01*
X8151675Y-103274780D01*
X8159086Y-103248681D01*
X8167733Y-103223125D01*
X8177581Y-103198149D01*
X8188596Y-103173786D01*
X8200742Y-103150071D01*
X8213985Y-103127038D01*
X8228291Y-103104723D01*
X8243626Y-103083159D01*
X8259953Y-103062382D01*
X8277240Y-103042425D01*
X8295452Y-103023324D01*
X8314553Y-103005113D01*
X8334510Y-102987826D01*
X8355287Y-102971498D01*
X8376851Y-102956164D01*
X8399166Y-102941857D01*
X8422199Y-102928614D01*
X8445914Y-102916468D01*
X8470277Y-102905453D01*
X8495253Y-102895605D01*
X8520809Y-102886958D01*
X8546908Y-102879547D01*
X8573518Y-102873405D01*
X8600602Y-102868569D01*
X8628128Y-102865071D01*
X8656059Y-102862947D01*
X8684362Y-102862231D01*
X8712665Y-102862947D01*
G37*
G36*
X8712665Y-64526155D02*
G01*
X8740596Y-64528279D01*
X8768122Y-64531777D01*
X8795206Y-64536613D01*
X8821816Y-64542755D01*
X8847916Y-64550166D01*
X8873471Y-64558813D01*
X8898447Y-64568661D01*
X8922810Y-64579676D01*
X8946525Y-64591822D01*
X8969558Y-64605065D01*
X8991873Y-64619372D01*
X9013437Y-64634706D01*
X9034214Y-64651034D01*
X9054171Y-64668321D01*
X9073272Y-64686532D01*
X9091484Y-64705633D01*
X9108771Y-64725590D01*
X9125099Y-64746367D01*
X9140433Y-64767931D01*
X9154739Y-64790246D01*
X9167982Y-64813279D01*
X9180129Y-64836994D01*
X9191143Y-64861357D01*
X9200991Y-64886333D01*
X9209638Y-64911889D01*
X9217049Y-64937988D01*
X9223191Y-64964598D01*
X9228028Y-64991683D01*
X9231525Y-65019208D01*
X9233649Y-65047139D01*
X9234365Y-65075442D01*
X9233649Y-65103745D01*
X9231525Y-65131677D01*
X9228028Y-65159202D01*
X9223191Y-65186287D01*
X9217049Y-65212896D01*
X9209638Y-65238996D01*
X9200991Y-65264551D01*
X9191143Y-65289528D01*
X9180129Y-65313891D01*
X9167982Y-65337606D01*
X9154739Y-65360638D01*
X9140433Y-65382954D01*
X9125099Y-65404517D01*
X9108771Y-65425295D01*
X9091484Y-65445251D01*
X9073272Y-65464353D01*
X9054171Y-65482564D01*
X9034214Y-65499851D01*
X9013437Y-65516179D01*
X8991873Y-65531513D01*
X8969558Y-65545819D01*
X8946525Y-65559063D01*
X8922810Y-65571209D01*
X8898447Y-65582223D01*
X8873471Y-65592071D01*
X8847916Y-65600718D01*
X8821816Y-65608130D01*
X8795206Y-65614271D01*
X8768122Y-65619108D01*
X8740596Y-65622606D01*
X8712665Y-65624730D01*
X8684362Y-65625445D01*
X8656059Y-65624730D01*
X8628128Y-65622606D01*
X8600602Y-65619108D01*
X8573518Y-65614271D01*
X8546908Y-65608130D01*
X8520809Y-65600718D01*
X8495253Y-65592071D01*
X8470277Y-65582223D01*
X8445914Y-65571209D01*
X8422199Y-65559063D01*
X8399166Y-65545819D01*
X8376851Y-65531513D01*
X8355287Y-65516179D01*
X8334510Y-65499851D01*
X8314553Y-65482564D01*
X8295452Y-65464353D01*
X8277240Y-65445251D01*
X8259953Y-65425295D01*
X8243626Y-65404517D01*
X8228291Y-65382954D01*
X8213985Y-65360638D01*
X8200742Y-65337606D01*
X8188596Y-65313891D01*
X8177581Y-65289528D01*
X8167733Y-65264551D01*
X8159086Y-65238996D01*
X8151675Y-65212896D01*
X8145533Y-65186287D01*
X8140696Y-65159202D01*
X8137199Y-65131677D01*
X8135075Y-65103745D01*
X8134359Y-65075442D01*
X8135075Y-65047139D01*
X8137199Y-65019208D01*
X8140696Y-64991683D01*
X8145533Y-64964598D01*
X8151675Y-64937988D01*
X8159086Y-64911889D01*
X8167733Y-64886333D01*
X8177581Y-64861357D01*
X8188596Y-64836994D01*
X8200742Y-64813279D01*
X8213985Y-64790246D01*
X8228291Y-64767931D01*
X8243626Y-64746367D01*
X8259953Y-64725590D01*
X8277240Y-64705633D01*
X8295452Y-64686532D01*
X8314553Y-64668321D01*
X8334510Y-64651034D01*
X8355287Y-64634706D01*
X8376851Y-64619372D01*
X8399166Y-64605065D01*
X8422199Y-64591822D01*
X8445914Y-64579676D01*
X8470277Y-64568661D01*
X8495253Y-64558813D01*
X8520809Y-64550166D01*
X8546908Y-64542755D01*
X8573518Y-64536613D01*
X8600602Y-64531777D01*
X8628128Y-64528279D01*
X8656059Y-64526155D01*
X8684362Y-64525439D01*
X8712665Y-64526155D01*
G37*
G36*
X5894275Y-75044557D02*
G01*
X5922206Y-75046681D01*
X5949731Y-75050179D01*
X5976816Y-75055016D01*
X6003425Y-75061157D01*
X6029524Y-75068569D01*
X6055079Y-75077216D01*
X6080055Y-75087064D01*
X6104418Y-75098078D01*
X6128132Y-75110224D01*
X6151164Y-75123468D01*
X6173479Y-75137774D01*
X6195042Y-75153108D01*
X6215818Y-75169436D01*
X6235774Y-75186723D01*
X6254875Y-75204934D01*
X6273085Y-75224035D01*
X6290372Y-75243992D01*
X6306699Y-75264769D01*
X6322032Y-75286333D01*
X6336338Y-75308649D01*
X6349581Y-75331681D01*
X6361726Y-75355396D01*
X6372740Y-75379759D01*
X6382588Y-75404736D01*
X6391234Y-75430291D01*
X6398645Y-75456391D01*
X6404786Y-75483000D01*
X6409623Y-75510085D01*
X6413121Y-75537610D01*
X6415244Y-75565541D01*
X6415960Y-75593844D01*
X6415244Y-75622146D01*
X6413121Y-75650076D01*
X6409623Y-75677600D01*
X6404786Y-75704684D01*
X6398645Y-75731292D01*
X6391234Y-75757391D01*
X6382588Y-75782945D01*
X6372740Y-75807921D01*
X6361726Y-75832283D01*
X6349581Y-75855998D01*
X6336338Y-75879029D01*
X6322032Y-75901344D01*
X6306699Y-75922907D01*
X6290372Y-75943684D01*
X6273085Y-75963640D01*
X6254875Y-75982741D01*
X6235774Y-76000952D01*
X6215818Y-76018239D01*
X6195042Y-76034567D01*
X6173479Y-76049901D01*
X6151164Y-76064207D01*
X6128132Y-76077450D01*
X6104418Y-76089596D01*
X6080055Y-76100610D01*
X6055079Y-76110458D01*
X6029524Y-76119105D01*
X6003425Y-76126517D01*
X5976816Y-76132658D01*
X5949731Y-76137495D01*
X5922206Y-76140993D01*
X5894275Y-76143117D01*
X5865972Y-76143832D01*
X5837668Y-76143117D01*
X5809735Y-76140993D01*
X5782209Y-76137495D01*
X5755123Y-76132658D01*
X5728513Y-76126517D01*
X5702413Y-76119105D01*
X5676857Y-76110458D01*
X5651880Y-76100610D01*
X5627517Y-76089596D01*
X5603802Y-76077450D01*
X5580769Y-76064207D01*
X5558454Y-76049901D01*
X5536891Y-76034567D01*
X5516113Y-76018239D01*
X5496157Y-76000952D01*
X5477056Y-75982741D01*
X5458845Y-75963640D01*
X5441559Y-75943684D01*
X5425231Y-75922907D01*
X5409897Y-75901344D01*
X5395592Y-75879029D01*
X5382349Y-75855998D01*
X5370203Y-75832283D01*
X5359189Y-75807921D01*
X5349342Y-75782945D01*
X5340695Y-75757391D01*
X5333284Y-75731292D01*
X5327143Y-75704684D01*
X5322306Y-75677600D01*
X5318809Y-75650076D01*
X5316685Y-75622146D01*
X5315969Y-75593844D01*
X5316685Y-75565541D01*
X5318809Y-75537610D01*
X5322306Y-75510085D01*
X5327143Y-75483000D01*
X5333284Y-75456391D01*
X5340695Y-75430291D01*
X5349342Y-75404736D01*
X5359189Y-75379759D01*
X5370203Y-75355396D01*
X5382349Y-75331681D01*
X5395592Y-75308649D01*
X5409897Y-75286333D01*
X5425231Y-75264769D01*
X5441559Y-75243992D01*
X5458845Y-75224035D01*
X5477056Y-75204934D01*
X5496157Y-75186723D01*
X5516113Y-75169436D01*
X5536891Y-75153108D01*
X5558454Y-75137774D01*
X5580769Y-75123468D01*
X5603802Y-75110224D01*
X5627517Y-75098078D01*
X5651880Y-75087064D01*
X5676857Y-75077216D01*
X5702413Y-75068569D01*
X5728513Y-75061157D01*
X5755123Y-75055016D01*
X5782209Y-75050179D01*
X5809735Y-75046681D01*
X5837668Y-75044557D01*
X5865972Y-75043841D01*
X5894275Y-75044557D01*
G37*
G36*
X4862660Y-45944551D02*
G01*
X4890593Y-45946675D01*
X4918119Y-45950173D01*
X4945205Y-45955009D01*
X4971815Y-45961151D01*
X4997915Y-45968562D01*
X5023471Y-45977209D01*
X5048448Y-45987057D01*
X5072811Y-45998072D01*
X5096526Y-46010218D01*
X5119559Y-46023461D01*
X5141874Y-46037768D01*
X5163437Y-46053102D01*
X5184215Y-46069430D01*
X5204171Y-46086717D01*
X5223272Y-46104928D01*
X5241483Y-46124029D01*
X5258769Y-46143986D01*
X5275097Y-46164763D01*
X5290431Y-46186327D01*
X5304736Y-46208642D01*
X5317979Y-46231675D01*
X5330125Y-46255390D01*
X5341139Y-46279753D01*
X5350986Y-46304729D01*
X5359633Y-46330285D01*
X5367044Y-46356384D01*
X5373185Y-46382994D01*
X5378022Y-46410079D01*
X5381520Y-46437604D01*
X5383643Y-46465535D01*
X5384359Y-46493838D01*
X5383643Y-46522141D01*
X5381520Y-46550073D01*
X5378022Y-46577598D01*
X5373185Y-46604683D01*
X5367044Y-46631292D01*
X5359633Y-46657392D01*
X5350986Y-46682947D01*
X5341139Y-46707924D01*
X5330125Y-46732287D01*
X5317979Y-46756002D01*
X5304736Y-46779034D01*
X5290431Y-46801350D01*
X5275097Y-46822913D01*
X5258769Y-46843691D01*
X5241483Y-46863647D01*
X5223272Y-46882749D01*
X5204171Y-46900960D01*
X5184215Y-46918247D01*
X5163437Y-46934575D01*
X5141874Y-46949909D01*
X5119559Y-46964215D01*
X5096526Y-46977459D01*
X5072811Y-46989605D01*
X5048448Y-47000619D01*
X5023471Y-47010467D01*
X4997915Y-47019114D01*
X4971815Y-47026526D01*
X4945205Y-47032667D01*
X4918119Y-47037504D01*
X4890593Y-47041002D01*
X4862660Y-47043126D01*
X4834356Y-47043841D01*
X4806053Y-47043126D01*
X4778122Y-47041002D01*
X4750597Y-47037504D01*
X4723512Y-47032667D01*
X4696903Y-47026526D01*
X4670804Y-47019114D01*
X4645249Y-47010467D01*
X4620273Y-47000619D01*
X4595911Y-46989605D01*
X4572196Y-46977459D01*
X4549164Y-46964215D01*
X4526850Y-46949909D01*
X4505287Y-46934575D01*
X4484510Y-46918247D01*
X4464554Y-46900960D01*
X4445453Y-46882749D01*
X4427243Y-46863647D01*
X4409956Y-46843691D01*
X4393629Y-46822913D01*
X4378296Y-46801350D01*
X4363990Y-46779034D01*
X4350747Y-46756002D01*
X4338602Y-46732287D01*
X4327588Y-46707924D01*
X4317741Y-46682947D01*
X4309094Y-46657392D01*
X4301683Y-46631292D01*
X4295542Y-46604683D01*
X4290705Y-46577598D01*
X4287208Y-46550073D01*
X4285084Y-46522141D01*
X4284368Y-46493838D01*
X4285084Y-46465535D01*
X4287208Y-46437604D01*
X4290705Y-46410079D01*
X4295542Y-46382994D01*
X4301683Y-46356384D01*
X4309094Y-46330285D01*
X4317741Y-46304729D01*
X4327588Y-46279753D01*
X4338602Y-46255390D01*
X4350747Y-46231675D01*
X4363990Y-46208642D01*
X4378296Y-46186327D01*
X4393629Y-46164763D01*
X4409956Y-46143986D01*
X4427243Y-46124029D01*
X4445453Y-46104928D01*
X4464554Y-46086717D01*
X4484510Y-46069430D01*
X4505287Y-46053102D01*
X4526850Y-46037768D01*
X4549164Y-46023461D01*
X4572196Y-46010218D01*
X4595911Y-45998072D01*
X4620273Y-45987057D01*
X4645249Y-45977209D01*
X4670804Y-45968562D01*
X4696903Y-45961151D01*
X4723512Y-45955009D01*
X4750597Y-45950173D01*
X4778122Y-45946675D01*
X4806053Y-45944551D01*
X4834356Y-45943835D01*
X4862660Y-45944551D01*
G37*
G36*
X4862660Y-96194551D02*
G01*
X4890593Y-96196675D01*
X4918119Y-96200173D01*
X4945205Y-96205009D01*
X4971815Y-96211151D01*
X4997915Y-96218562D01*
X5023471Y-96227209D01*
X5048448Y-96237057D01*
X5072811Y-96248072D01*
X5096526Y-96260218D01*
X5119559Y-96273461D01*
X5141874Y-96287768D01*
X5163437Y-96303102D01*
X5184215Y-96319430D01*
X5204171Y-96336717D01*
X5223272Y-96354928D01*
X5241483Y-96374029D01*
X5258769Y-96393986D01*
X5275097Y-96414763D01*
X5290431Y-96436327D01*
X5304736Y-96458642D01*
X5317979Y-96481675D01*
X5330125Y-96505390D01*
X5341139Y-96529753D01*
X5350986Y-96554729D01*
X5359633Y-96580285D01*
X5367044Y-96606384D01*
X5373185Y-96632994D01*
X5378022Y-96660079D01*
X5381520Y-96687604D01*
X5383643Y-96715535D01*
X5384359Y-96743838D01*
X5383643Y-96772141D01*
X5381520Y-96800073D01*
X5378022Y-96827598D01*
X5373185Y-96854683D01*
X5367044Y-96881292D01*
X5359633Y-96907392D01*
X5350986Y-96932947D01*
X5341139Y-96957924D01*
X5330125Y-96982287D01*
X5317979Y-97006002D01*
X5304736Y-97029034D01*
X5290431Y-97051350D01*
X5275097Y-97072913D01*
X5258769Y-97093691D01*
X5241483Y-97113647D01*
X5223272Y-97132749D01*
X5204171Y-97150960D01*
X5184215Y-97168247D01*
X5163437Y-97184575D01*
X5141874Y-97199909D01*
X5119559Y-97214215D01*
X5096526Y-97227459D01*
X5072811Y-97239605D01*
X5048448Y-97250619D01*
X5023471Y-97260467D01*
X4997915Y-97269114D01*
X4971815Y-97276526D01*
X4945205Y-97282667D01*
X4918119Y-97287504D01*
X4890593Y-97291002D01*
X4862660Y-97293126D01*
X4834356Y-97293841D01*
X4806053Y-97293126D01*
X4778122Y-97291002D01*
X4750597Y-97287504D01*
X4723512Y-97282667D01*
X4696903Y-97276526D01*
X4670804Y-97269114D01*
X4645249Y-97260467D01*
X4620273Y-97250619D01*
X4595911Y-97239605D01*
X4572196Y-97227459D01*
X4549164Y-97214215D01*
X4526850Y-97199909D01*
X4505287Y-97184575D01*
X4484510Y-97168247D01*
X4464554Y-97150960D01*
X4445453Y-97132749D01*
X4427243Y-97113647D01*
X4409956Y-97093691D01*
X4393629Y-97072913D01*
X4378296Y-97051350D01*
X4363990Y-97029034D01*
X4350747Y-97006002D01*
X4338602Y-96982287D01*
X4327588Y-96957924D01*
X4317741Y-96932947D01*
X4309094Y-96907392D01*
X4301683Y-96881292D01*
X4295542Y-96854683D01*
X4290705Y-96827598D01*
X4287208Y-96800073D01*
X4285084Y-96772141D01*
X4284368Y-96743838D01*
X4285084Y-96715535D01*
X4287208Y-96687604D01*
X4290705Y-96660079D01*
X4295542Y-96632994D01*
X4301683Y-96606384D01*
X4309094Y-96580285D01*
X4317741Y-96554729D01*
X4327588Y-96529753D01*
X4338602Y-96505390D01*
X4350747Y-96481675D01*
X4363990Y-96458642D01*
X4378296Y-96436327D01*
X4393629Y-96414763D01*
X4409956Y-96393986D01*
X4427243Y-96374029D01*
X4445453Y-96354928D01*
X4464554Y-96336717D01*
X4484510Y-96319430D01*
X4505287Y-96303102D01*
X4526850Y-96287768D01*
X4549164Y-96273461D01*
X4572196Y-96260218D01*
X4595911Y-96248072D01*
X4620273Y-96237057D01*
X4645249Y-96227209D01*
X4670804Y-96218562D01*
X4696903Y-96211151D01*
X4723512Y-96205009D01*
X4750597Y-96200173D01*
X4778122Y-96196675D01*
X4806053Y-96194551D01*
X4834356Y-96193835D01*
X4862660Y-96194551D01*
G37*
G36*
X16412663Y-89526155D02*
G01*
X16440596Y-89528279D01*
X16468122Y-89531777D01*
X16495208Y-89536613D01*
X16521818Y-89542755D01*
X16547918Y-89550166D01*
X16573474Y-89558813D01*
X16598451Y-89568661D01*
X16622814Y-89579676D01*
X16646529Y-89591822D01*
X16669562Y-89605065D01*
X16691877Y-89619372D01*
X16713440Y-89634706D01*
X16734218Y-89651034D01*
X16754174Y-89668321D01*
X16773275Y-89686532D01*
X16791486Y-89705633D01*
X16808773Y-89725590D01*
X16825100Y-89746367D01*
X16840434Y-89767931D01*
X16854739Y-89790246D01*
X16867982Y-89813279D01*
X16880128Y-89836994D01*
X16891142Y-89861357D01*
X16900990Y-89886333D01*
X16909636Y-89911889D01*
X16917047Y-89937988D01*
X16923189Y-89964598D01*
X16928025Y-89991683D01*
X16931523Y-90019208D01*
X16933646Y-90047139D01*
X16934362Y-90075442D01*
X16933646Y-90103745D01*
X16931523Y-90131677D01*
X16928025Y-90159202D01*
X16923189Y-90186287D01*
X16917047Y-90212896D01*
X16909636Y-90238996D01*
X16900990Y-90264551D01*
X16891142Y-90289528D01*
X16880128Y-90313891D01*
X16867982Y-90337606D01*
X16854739Y-90360638D01*
X16840434Y-90382954D01*
X16825100Y-90404517D01*
X16808773Y-90425295D01*
X16791486Y-90445251D01*
X16773275Y-90464353D01*
X16754174Y-90482564D01*
X16734218Y-90499851D01*
X16713440Y-90516179D01*
X16691877Y-90531513D01*
X16669562Y-90545819D01*
X16646529Y-90559063D01*
X16622814Y-90571209D01*
X16598451Y-90582223D01*
X16573474Y-90592071D01*
X16547918Y-90600718D01*
X16521818Y-90608130D01*
X16495208Y-90614271D01*
X16468122Y-90619108D01*
X16440596Y-90622606D01*
X16412663Y-90624730D01*
X16384359Y-90625445D01*
X16356056Y-90624730D01*
X16328125Y-90622606D01*
X16300599Y-90619108D01*
X16273515Y-90614271D01*
X16246905Y-90608130D01*
X16220806Y-90600718D01*
X16195250Y-90592071D01*
X16170274Y-90582223D01*
X16145911Y-90571209D01*
X16122196Y-90559063D01*
X16099163Y-90545819D01*
X16076848Y-90531513D01*
X16055284Y-90516179D01*
X16034507Y-90499851D01*
X16014550Y-90482564D01*
X15995449Y-90464353D01*
X15977237Y-90445251D01*
X15959950Y-90425295D01*
X15943623Y-90404517D01*
X15928288Y-90382954D01*
X15913982Y-90360638D01*
X15900739Y-90337606D01*
X15888592Y-90313891D01*
X15877578Y-90289528D01*
X15867730Y-90264551D01*
X15859083Y-90238996D01*
X15851672Y-90212896D01*
X15845530Y-90186287D01*
X15840693Y-90159202D01*
X15837196Y-90131677D01*
X15835072Y-90103745D01*
X15834356Y-90075442D01*
X15835072Y-90047139D01*
X15837196Y-90019208D01*
X15840693Y-89991683D01*
X15845530Y-89964598D01*
X15851672Y-89937988D01*
X15859083Y-89911889D01*
X15867730Y-89886333D01*
X15877578Y-89861357D01*
X15888592Y-89836994D01*
X15900739Y-89813279D01*
X15913982Y-89790246D01*
X15928288Y-89767931D01*
X15943623Y-89746367D01*
X15959950Y-89725590D01*
X15977237Y-89705633D01*
X15995449Y-89686532D01*
X16014550Y-89668321D01*
X16034507Y-89651034D01*
X16055284Y-89634706D01*
X16076848Y-89619372D01*
X16099163Y-89605065D01*
X16122196Y-89591822D01*
X16145911Y-89579676D01*
X16170274Y-89568661D01*
X16195250Y-89558813D01*
X16220806Y-89550166D01*
X16246905Y-89542755D01*
X16273515Y-89536613D01*
X16300599Y-89531777D01*
X16328125Y-89528279D01*
X16356056Y-89526155D01*
X16384359Y-89525439D01*
X16412663Y-89526155D01*
G37*
G36*
X8712665Y-77862947D02*
G01*
X8740596Y-77865071D01*
X8768122Y-77868569D01*
X8795206Y-77873405D01*
X8821816Y-77879547D01*
X8847916Y-77886958D01*
X8873471Y-77895605D01*
X8898447Y-77905453D01*
X8922810Y-77916468D01*
X8946525Y-77928614D01*
X8969558Y-77941857D01*
X8991873Y-77956164D01*
X9013437Y-77971498D01*
X9034214Y-77987826D01*
X9054171Y-78005113D01*
X9073272Y-78023324D01*
X9091484Y-78042425D01*
X9108771Y-78062382D01*
X9125099Y-78083159D01*
X9140433Y-78104723D01*
X9154739Y-78127038D01*
X9167982Y-78150071D01*
X9180129Y-78173786D01*
X9191143Y-78198149D01*
X9200991Y-78223125D01*
X9209638Y-78248681D01*
X9217049Y-78274780D01*
X9223191Y-78301390D01*
X9228028Y-78328475D01*
X9231525Y-78356000D01*
X9233649Y-78383931D01*
X9234365Y-78412234D01*
X9233649Y-78440537D01*
X9231525Y-78468469D01*
X9228028Y-78495994D01*
X9223191Y-78523079D01*
X9217049Y-78549688D01*
X9209638Y-78575788D01*
X9200991Y-78601343D01*
X9191143Y-78626320D01*
X9180129Y-78650683D01*
X9167982Y-78674398D01*
X9154739Y-78697430D01*
X9140433Y-78719746D01*
X9125099Y-78741309D01*
X9108771Y-78762087D01*
X9091484Y-78782043D01*
X9073272Y-78801145D01*
X9054171Y-78819356D01*
X9034214Y-78836643D01*
X9013437Y-78852971D01*
X8991873Y-78868305D01*
X8969558Y-78882611D01*
X8946525Y-78895855D01*
X8922810Y-78908001D01*
X8898447Y-78919015D01*
X8873471Y-78928863D01*
X8847916Y-78937510D01*
X8821816Y-78944922D01*
X8795206Y-78951063D01*
X8768122Y-78955900D01*
X8740596Y-78959398D01*
X8712665Y-78961522D01*
X8684362Y-78962237D01*
X8656059Y-78961522D01*
X8628128Y-78959398D01*
X8600602Y-78955900D01*
X8573518Y-78951063D01*
X8546908Y-78944922D01*
X8520809Y-78937510D01*
X8495253Y-78928863D01*
X8470277Y-78919015D01*
X8445914Y-78908001D01*
X8422199Y-78895855D01*
X8399166Y-78882611D01*
X8376851Y-78868305D01*
X8355287Y-78852971D01*
X8334510Y-78836643D01*
X8314553Y-78819356D01*
X8295452Y-78801145D01*
X8277240Y-78782043D01*
X8259953Y-78762087D01*
X8243626Y-78741309D01*
X8228291Y-78719746D01*
X8213985Y-78697430D01*
X8200742Y-78674398D01*
X8188596Y-78650683D01*
X8177581Y-78626320D01*
X8167733Y-78601343D01*
X8159086Y-78575788D01*
X8151675Y-78549688D01*
X8145533Y-78523079D01*
X8140696Y-78495994D01*
X8137199Y-78468469D01*
X8135075Y-78440537D01*
X8134359Y-78412234D01*
X8135075Y-78383931D01*
X8137199Y-78356000D01*
X8140696Y-78328475D01*
X8145533Y-78301390D01*
X8151675Y-78274780D01*
X8159086Y-78248681D01*
X8167733Y-78223125D01*
X8177581Y-78198149D01*
X8188596Y-78173786D01*
X8200742Y-78150071D01*
X8213985Y-78127038D01*
X8228291Y-78104723D01*
X8243626Y-78083159D01*
X8259953Y-78062382D01*
X8277240Y-78042425D01*
X8295452Y-78023324D01*
X8314553Y-78005113D01*
X8334510Y-77987826D01*
X8355287Y-77971498D01*
X8376851Y-77956164D01*
X8399166Y-77941857D01*
X8422199Y-77928614D01*
X8445914Y-77916468D01*
X8470277Y-77905453D01*
X8495253Y-77895605D01*
X8520809Y-77886958D01*
X8546908Y-77879547D01*
X8573518Y-77873405D01*
X8600602Y-77868569D01*
X8628128Y-77865071D01*
X8656059Y-77862947D01*
X8684362Y-77862231D01*
X8712665Y-77862947D01*
G37*
G36*
X20262668Y-45944551D02*
G01*
X20290599Y-45946675D01*
X20318125Y-45950173D01*
X20345209Y-45955009D01*
X20371819Y-45961151D01*
X20397919Y-45968562D01*
X20423474Y-45977209D01*
X20448450Y-45987057D01*
X20472813Y-45998072D01*
X20496529Y-46010218D01*
X20519561Y-46023461D01*
X20541876Y-46037768D01*
X20563440Y-46053102D01*
X20584217Y-46069430D01*
X20604174Y-46086717D01*
X20623275Y-46104928D01*
X20641487Y-46124029D01*
X20658774Y-46143986D01*
X20675102Y-46164763D01*
X20690436Y-46186327D01*
X20704742Y-46208642D01*
X20717985Y-46231675D01*
X20730132Y-46255390D01*
X20741146Y-46279753D01*
X20750994Y-46304729D01*
X20759641Y-46330285D01*
X20767053Y-46356384D01*
X20773194Y-46382994D01*
X20778031Y-46410079D01*
X20781529Y-46437604D01*
X20783652Y-46465535D01*
X20784368Y-46493838D01*
X20783652Y-46522141D01*
X20781529Y-46550073D01*
X20778031Y-46577598D01*
X20773194Y-46604683D01*
X20767053Y-46631292D01*
X20759641Y-46657392D01*
X20750994Y-46682947D01*
X20741146Y-46707924D01*
X20730132Y-46732287D01*
X20717985Y-46756002D01*
X20704742Y-46779034D01*
X20690436Y-46801350D01*
X20675102Y-46822913D01*
X20658774Y-46843691D01*
X20641487Y-46863647D01*
X20623275Y-46882749D01*
X20604174Y-46900960D01*
X20584217Y-46918247D01*
X20563440Y-46934575D01*
X20541876Y-46949909D01*
X20519561Y-46964215D01*
X20496529Y-46977459D01*
X20472813Y-46989605D01*
X20448450Y-47000619D01*
X20423474Y-47010467D01*
X20397919Y-47019114D01*
X20371819Y-47026526D01*
X20345209Y-47032667D01*
X20318125Y-47037504D01*
X20290599Y-47041002D01*
X20262668Y-47043126D01*
X20234365Y-47043841D01*
X20206062Y-47043126D01*
X20178131Y-47041002D01*
X20150605Y-47037504D01*
X20123521Y-47032667D01*
X20096911Y-47026526D01*
X20070812Y-47019114D01*
X20045256Y-47010467D01*
X20020280Y-47000619D01*
X19995917Y-46989605D01*
X19972202Y-46977459D01*
X19949169Y-46964215D01*
X19926854Y-46949909D01*
X19905290Y-46934575D01*
X19884513Y-46918247D01*
X19864556Y-46900960D01*
X19845455Y-46882749D01*
X19827243Y-46863647D01*
X19809957Y-46843691D01*
X19793629Y-46822913D01*
X19778294Y-46801350D01*
X19763988Y-46779034D01*
X19750745Y-46756002D01*
X19738599Y-46732287D01*
X19727584Y-46707924D01*
X19717736Y-46682947D01*
X19709089Y-46657392D01*
X19701678Y-46631292D01*
X19695536Y-46604683D01*
X19690699Y-46577598D01*
X19687202Y-46550073D01*
X19685078Y-46522141D01*
X19684362Y-46493838D01*
X19685078Y-46465535D01*
X19687202Y-46437604D01*
X19690699Y-46410079D01*
X19695536Y-46382994D01*
X19701678Y-46356384D01*
X19709089Y-46330285D01*
X19717736Y-46304729D01*
X19727584Y-46279753D01*
X19738599Y-46255390D01*
X19750745Y-46231675D01*
X19763988Y-46208642D01*
X19778294Y-46186327D01*
X19793629Y-46164763D01*
X19809957Y-46143986D01*
X19827243Y-46124029D01*
X19845455Y-46104928D01*
X19864556Y-46086717D01*
X19884513Y-46069430D01*
X19905290Y-46053102D01*
X19926854Y-46037768D01*
X19949169Y-46023461D01*
X19972202Y-46010218D01*
X19995917Y-45998072D01*
X20020280Y-45987057D01*
X20045256Y-45977209D01*
X20070812Y-45968562D01*
X20096911Y-45961151D01*
X20123521Y-45955009D01*
X20150605Y-45950173D01*
X20178131Y-45946675D01*
X20206062Y-45944551D01*
X20234365Y-45943835D01*
X20262668Y-45944551D01*
G37*
G36*
X5894275Y-92344560D02*
G01*
X5922206Y-92346684D01*
X5949731Y-92350182D01*
X5976816Y-92355019D01*
X6003425Y-92361160D01*
X6029524Y-92368571D01*
X6055079Y-92377218D01*
X6080055Y-92387066D01*
X6104418Y-92398081D01*
X6128132Y-92410227D01*
X6151164Y-92423470D01*
X6173479Y-92437776D01*
X6195042Y-92453110D01*
X6215818Y-92469438D01*
X6235774Y-92486724D01*
X6254875Y-92504935D01*
X6273085Y-92524036D01*
X6290372Y-92543992D01*
X6306699Y-92564769D01*
X6322032Y-92586332D01*
X6336338Y-92608647D01*
X6349581Y-92631679D01*
X6361726Y-92655393D01*
X6372740Y-92679756D01*
X6382588Y-92704731D01*
X6391234Y-92730286D01*
X6398645Y-92756384D01*
X6404786Y-92782993D01*
X6409623Y-92810076D01*
X6413121Y-92837601D01*
X6415244Y-92865531D01*
X6415960Y-92893832D01*
X6415244Y-92922135D01*
X6413121Y-92950067D01*
X6409623Y-92977592D01*
X6404786Y-93004677D01*
X6398645Y-93031286D01*
X6391234Y-93057386D01*
X6382588Y-93082941D01*
X6372740Y-93107918D01*
X6361726Y-93132281D01*
X6349581Y-93155996D01*
X6336338Y-93179028D01*
X6322032Y-93201343D01*
X6306699Y-93222907D01*
X6290372Y-93243685D01*
X6273085Y-93263641D01*
X6254875Y-93282742D01*
X6235774Y-93300954D01*
X6215818Y-93318241D01*
X6195042Y-93334569D01*
X6173479Y-93349903D01*
X6151164Y-93364209D01*
X6128132Y-93377453D01*
X6104418Y-93389599D01*
X6080055Y-93400613D01*
X6055079Y-93410461D01*
X6029524Y-93419108D01*
X6003425Y-93426520D01*
X5976816Y-93432661D01*
X5949731Y-93437498D01*
X5922206Y-93440996D01*
X5894275Y-93443120D01*
X5865972Y-93443835D01*
X5837668Y-93443120D01*
X5809735Y-93440996D01*
X5782209Y-93437498D01*
X5755123Y-93432661D01*
X5728513Y-93426520D01*
X5702413Y-93419108D01*
X5676857Y-93410461D01*
X5651880Y-93400613D01*
X5627517Y-93389599D01*
X5603802Y-93377453D01*
X5580769Y-93364209D01*
X5558454Y-93349903D01*
X5536891Y-93334569D01*
X5516113Y-93318241D01*
X5496157Y-93300954D01*
X5477056Y-93282742D01*
X5458845Y-93263641D01*
X5441559Y-93243685D01*
X5425231Y-93222907D01*
X5409897Y-93201343D01*
X5395592Y-93179028D01*
X5382349Y-93155996D01*
X5370203Y-93132281D01*
X5359189Y-93107918D01*
X5349342Y-93082941D01*
X5340695Y-93057386D01*
X5333284Y-93031286D01*
X5327143Y-93004677D01*
X5322306Y-92977592D01*
X5318809Y-92950067D01*
X5316685Y-92922135D01*
X5315969Y-92893832D01*
X5316685Y-92865531D01*
X5318809Y-92837601D01*
X5322306Y-92810076D01*
X5327143Y-92782993D01*
X5333284Y-92756384D01*
X5340695Y-92730286D01*
X5349342Y-92704731D01*
X5359189Y-92679756D01*
X5370203Y-92655393D01*
X5382349Y-92631679D01*
X5395592Y-92608647D01*
X5409897Y-92586332D01*
X5425231Y-92564769D01*
X5441559Y-92543992D01*
X5458845Y-92524036D01*
X5477056Y-92504935D01*
X5496157Y-92486724D01*
X5516113Y-92469438D01*
X5536891Y-92453110D01*
X5558454Y-92437776D01*
X5580769Y-92423470D01*
X5603802Y-92410227D01*
X5627517Y-92398081D01*
X5651880Y-92387066D01*
X5676857Y-92377218D01*
X5702413Y-92368571D01*
X5728513Y-92361160D01*
X5755123Y-92355019D01*
X5782209Y-92350182D01*
X5809735Y-92346684D01*
X5837668Y-92344560D01*
X5865972Y-92343844D01*
X5894275Y-92344560D01*
G37*
G36*
X16412663Y-52612947D02*
G01*
X16440596Y-52615071D01*
X16468122Y-52618569D01*
X16495208Y-52623405D01*
X16521818Y-52629547D01*
X16547918Y-52636958D01*
X16573474Y-52645605D01*
X16598451Y-52655453D01*
X16622814Y-52666468D01*
X16646529Y-52678614D01*
X16669562Y-52691857D01*
X16691877Y-52706164D01*
X16713440Y-52721498D01*
X16734218Y-52737826D01*
X16754174Y-52755113D01*
X16773275Y-52773324D01*
X16791486Y-52792425D01*
X16808773Y-52812382D01*
X16825100Y-52833159D01*
X16840434Y-52854723D01*
X16854739Y-52877038D01*
X16867982Y-52900071D01*
X16880128Y-52923786D01*
X16891142Y-52948149D01*
X16900990Y-52973125D01*
X16909636Y-52998681D01*
X16917047Y-53024780D01*
X16923189Y-53051390D01*
X16928025Y-53078475D01*
X16931523Y-53106000D01*
X16933646Y-53133931D01*
X16934362Y-53162234D01*
X16933646Y-53190537D01*
X16931523Y-53218469D01*
X16928025Y-53245994D01*
X16923189Y-53273079D01*
X16917047Y-53299688D01*
X16909636Y-53325788D01*
X16900990Y-53351343D01*
X16891142Y-53376320D01*
X16880128Y-53400683D01*
X16867982Y-53424398D01*
X16854739Y-53447430D01*
X16840434Y-53469746D01*
X16825100Y-53491309D01*
X16808773Y-53512087D01*
X16791486Y-53532043D01*
X16773275Y-53551145D01*
X16754174Y-53569356D01*
X16734218Y-53586643D01*
X16713440Y-53602971D01*
X16691877Y-53618305D01*
X16669562Y-53632611D01*
X16646529Y-53645855D01*
X16622814Y-53658001D01*
X16598451Y-53669015D01*
X16573474Y-53678863D01*
X16547918Y-53687510D01*
X16521818Y-53694922D01*
X16495208Y-53701063D01*
X16468122Y-53705900D01*
X16440596Y-53709398D01*
X16412663Y-53711522D01*
X16384359Y-53712237D01*
X16356056Y-53711522D01*
X16328125Y-53709398D01*
X16300599Y-53705900D01*
X16273515Y-53701063D01*
X16246905Y-53694922D01*
X16220806Y-53687510D01*
X16195250Y-53678863D01*
X16170274Y-53669015D01*
X16145911Y-53658001D01*
X16122196Y-53645855D01*
X16099163Y-53632611D01*
X16076848Y-53618305D01*
X16055284Y-53602971D01*
X16034507Y-53586643D01*
X16014550Y-53569356D01*
X15995449Y-53551145D01*
X15977237Y-53532043D01*
X15959950Y-53512087D01*
X15943623Y-53491309D01*
X15928288Y-53469746D01*
X15913982Y-53447430D01*
X15900739Y-53424398D01*
X15888592Y-53400683D01*
X15877578Y-53376320D01*
X15867730Y-53351343D01*
X15859083Y-53325788D01*
X15851672Y-53299688D01*
X15845530Y-53273079D01*
X15840693Y-53245994D01*
X15837196Y-53218469D01*
X15835072Y-53190537D01*
X15834356Y-53162234D01*
X15835072Y-53133931D01*
X15837196Y-53106000D01*
X15840693Y-53078475D01*
X15845530Y-53051390D01*
X15851672Y-53024780D01*
X15859083Y-52998681D01*
X15867730Y-52973125D01*
X15877578Y-52948149D01*
X15888592Y-52923786D01*
X15900739Y-52900071D01*
X15913982Y-52877038D01*
X15928288Y-52854723D01*
X15943623Y-52833159D01*
X15959950Y-52812382D01*
X15977237Y-52792425D01*
X15995449Y-52773324D01*
X16014550Y-52755113D01*
X16034507Y-52737826D01*
X16055284Y-52721498D01*
X16076848Y-52706164D01*
X16099163Y-52691857D01*
X16122196Y-52678614D01*
X16145911Y-52666468D01*
X16170274Y-52655453D01*
X16195250Y-52645605D01*
X16220806Y-52636958D01*
X16246905Y-52629547D01*
X16273515Y-52623405D01*
X16300599Y-52618569D01*
X16328125Y-52615071D01*
X16356056Y-52612947D01*
X16384359Y-52612231D01*
X16412663Y-52612947D01*
G37*
D11*
G36*
X2957320Y-9490585D02*
G01*
X1518095Y-9490585D01*
X1518095Y-9325354D01*
X1727362Y-9325354D01*
X2747027Y-9325354D01*
X2747027Y-6457601D01*
X2237194Y-6457601D01*
X2186032Y-6459453D01*
X2136664Y-6465006D01*
X2089092Y-6474263D01*
X2043314Y-6487222D01*
X1999332Y-6503883D01*
X1957145Y-6524248D01*
X1916754Y-6548314D01*
X1878157Y-6576084D01*
X1842815Y-6606485D01*
X1812184Y-6638448D01*
X1786266Y-6671973D01*
X1765061Y-6707059D01*
X1748567Y-6743707D01*
X1736787Y-6781916D01*
X1729718Y-6821687D01*
X1727362Y-6863020D01*
X1727362Y-9325354D01*
X1518095Y-9325354D01*
X1518095Y-6863826D01*
X1519952Y-6820293D01*
X1525524Y-6777949D01*
X1534810Y-6736796D01*
X1547811Y-6696833D01*
X1564527Y-6658060D01*
X1584957Y-6620477D01*
X1609102Y-6584084D01*
X1636961Y-6548881D01*
X1668535Y-6514868D01*
X1703824Y-6482046D01*
X1729413Y-6460825D01*
X1769958Y-6430721D01*
X1811964Y-6403577D01*
X1855430Y-6379395D01*
X1900357Y-6358174D01*
X1946744Y-6339913D01*
X1994592Y-6324614D01*
X2043900Y-6312276D01*
X2094669Y-6302899D01*
X2146899Y-6296484D01*
X2200589Y-6293029D01*
X2237194Y-6292371D01*
X2957320Y-6292371D01*
X2957320Y-9490585D01*
G37*
G36*
X4500153Y-9490585D02*
G01*
X3058876Y-9490585D01*
X3058876Y-6457601D01*
X3268143Y-6457601D01*
X3268143Y-9325354D01*
X4290886Y-9325354D01*
X4290886Y-6457601D01*
X3268143Y-6457601D01*
X3058876Y-6457601D01*
X3058876Y-6292371D01*
X4500153Y-6292371D01*
X4500153Y-9490585D01*
G37*
G36*
X5376490Y-6293852D02*
G01*
X5429666Y-6298293D01*
X5481364Y-6305696D01*
X5531583Y-6316060D01*
X5580324Y-6329385D01*
X5627585Y-6345671D01*
X5673369Y-6364918D01*
X5717673Y-6387127D01*
X5760499Y-6412296D01*
X5801847Y-6440427D01*
X5828590Y-6460825D01*
X5866538Y-6492854D01*
X5900754Y-6526074D01*
X5931237Y-6560483D01*
X5957988Y-6596082D01*
X5981005Y-6632872D01*
X6000291Y-6670852D01*
X6015843Y-6710021D01*
X6027663Y-6750381D01*
X6035751Y-6791931D01*
X6040105Y-6834671D01*
X6040935Y-6863826D01*
X6040935Y-9490585D01*
X4601709Y-9490585D01*
X4601709Y-6457601D01*
X4812002Y-6457601D01*
X4812002Y-9325354D01*
X5830642Y-9325354D01*
X5830642Y-6863020D01*
X5828285Y-6821687D01*
X5821217Y-6781916D01*
X5809436Y-6743707D01*
X5792943Y-6707059D01*
X5771737Y-6671973D01*
X5745819Y-6638448D01*
X5715189Y-6606485D01*
X5679846Y-6576084D01*
X5641490Y-6548314D01*
X5601307Y-6524248D01*
X5559296Y-6503883D01*
X5515458Y-6487222D01*
X5469793Y-6474263D01*
X5422301Y-6465006D01*
X5372982Y-6459453D01*
X5321835Y-6457601D01*
X4812002Y-6457601D01*
X4601709Y-6457601D01*
X4601709Y-6292371D01*
X5321835Y-6292371D01*
X5376490Y-6293852D01*
G37*
G36*
X7158522Y-6293859D02*
G01*
X7211864Y-6298322D01*
X7263709Y-6305760D01*
X7314057Y-6316173D01*
X7362909Y-6329562D01*
X7410264Y-6345926D01*
X7456122Y-6365265D01*
X7500484Y-6387580D01*
X7543349Y-6412870D01*
X7584718Y-6441135D01*
X7611465Y-6461631D01*
X7649413Y-6493963D01*
X7683629Y-6527484D01*
X7714112Y-6562196D01*
X7740863Y-6598097D01*
X7763880Y-6635189D01*
X7783166Y-6673471D01*
X7798718Y-6712943D01*
X7810538Y-6753605D01*
X7818626Y-6795458D01*
X7822980Y-6838500D01*
X7823810Y-6867856D01*
X7823810Y-8417797D01*
X6384584Y-8417797D01*
X6384584Y-6457601D01*
X6593852Y-6457601D01*
X6593852Y-8252566D01*
X7613517Y-8252566D01*
X7613517Y-6867050D01*
X7611177Y-6825868D01*
X7604156Y-6786148D01*
X7592455Y-6747888D01*
X7576074Y-6711089D01*
X7555013Y-6675751D01*
X7529271Y-6641873D01*
X7498849Y-6609457D01*
X7463747Y-6578502D01*
X7425583Y-6550166D01*
X7385464Y-6525608D01*
X7343389Y-6504828D01*
X7299359Y-6487826D01*
X7253374Y-6474603D01*
X7205433Y-6465158D01*
X7155536Y-6459490D01*
X7103684Y-6457601D01*
X6593852Y-6457601D01*
X6384584Y-6457601D01*
X6384584Y-6292371D01*
X7103684Y-6292371D01*
X7158522Y-6293859D01*
G37*
G36*
X9366643Y-9490585D02*
G01*
X7925366Y-9490585D01*
X7925366Y-9325354D01*
X8134633Y-9325354D01*
X9157376Y-9325354D01*
X9157376Y-6457601D01*
X8647543Y-6457601D01*
X8595419Y-6459478D01*
X8545218Y-6465107D01*
X8496940Y-6474490D01*
X8450586Y-6487625D01*
X8406155Y-6504513D01*
X8363648Y-6525154D01*
X8323064Y-6549548D01*
X8284403Y-6577696D01*
X8249301Y-6608248D01*
X8218879Y-6640261D01*
X8193137Y-6673736D01*
X8172076Y-6708671D01*
X8155695Y-6745067D01*
X8143994Y-6782924D01*
X8136973Y-6822241D01*
X8134633Y-6863020D01*
X8134633Y-9325354D01*
X7925366Y-9325354D01*
X7925366Y-6863826D01*
X7927223Y-6820293D01*
X7932795Y-6777949D01*
X7942082Y-6736796D01*
X7955083Y-6696833D01*
X7971798Y-6658060D01*
X7992229Y-6620477D01*
X8016373Y-6584084D01*
X8044233Y-6548881D01*
X8075807Y-6514868D01*
X8111095Y-6482046D01*
X8136685Y-6460825D01*
X8177083Y-6430721D01*
X8219031Y-6403577D01*
X8262530Y-6379395D01*
X8307580Y-6358174D01*
X8354181Y-6339913D01*
X8402332Y-6324614D01*
X8452034Y-6312276D01*
X8503287Y-6302899D01*
X8556091Y-6296484D01*
X8610445Y-6293029D01*
X8647543Y-6292371D01*
X9366643Y-6292371D01*
X9366643Y-9490585D01*
G37*
D12*
G36*
X12642235Y-6292546D02*
G01*
X12681745Y-6296691D01*
X12735901Y-6308088D01*
X12783926Y-6325702D01*
X12825821Y-6349533D01*
X12861584Y-6379581D01*
X12891217Y-6415845D01*
X12914718Y-6458326D01*
X12932089Y-6507024D01*
X12943329Y-6561939D01*
X12947416Y-6602002D01*
X12948779Y-6644829D01*
X12948779Y-9125359D01*
X12947416Y-9168304D01*
X12943329Y-9208478D01*
X12932089Y-9263544D01*
X12914718Y-9312376D01*
X12891217Y-9354975D01*
X12861584Y-9391339D01*
X12825821Y-9421470D01*
X12783926Y-9445367D01*
X12735901Y-9463029D01*
X12681745Y-9474458D01*
X12642235Y-9478614D01*
X12600000Y-9480000D01*
X10158548Y-9480000D01*
X10116313Y-9478614D01*
X10076803Y-9474458D01*
X10022647Y-9463029D01*
X9974622Y-9445367D01*
X9932728Y-9421470D01*
X9896964Y-9391339D01*
X9867332Y-9354975D01*
X9843830Y-9312376D01*
X9826459Y-9263544D01*
X9815219Y-9208478D01*
X9811132Y-9168304D01*
X9809770Y-9125359D01*
X9809770Y-6999469D01*
X10510258Y-6999469D01*
X10510258Y-8771695D01*
X12248290Y-8771695D01*
X12248290Y-8417055D01*
X10858060Y-8417055D01*
X10858060Y-6999469D01*
X10510258Y-6999469D01*
X9809770Y-6999469D01*
X9809770Y-6644829D01*
X9811132Y-6602002D01*
X9815219Y-6561939D01*
X9826459Y-6507024D01*
X9843830Y-6458326D01*
X9867332Y-6415845D01*
X9896964Y-6379581D01*
X9932728Y-6349533D01*
X9974622Y-6325702D01*
X10022647Y-6308088D01*
X10076803Y-6296691D01*
X10116313Y-6292546D01*
X10158548Y-6291165D01*
X12600000Y-6291165D01*
X12642235Y-6292546D01*
G37*
G36*
X16128809Y-6292546D02*
G01*
X16168098Y-6296691D01*
X16221951Y-6308088D01*
X16269707Y-6325702D01*
X16311366Y-6349533D01*
X16346929Y-6379581D01*
X16376396Y-6415845D01*
X16399766Y-6458326D01*
X16417040Y-6507024D01*
X16428217Y-6561939D01*
X16432281Y-6602002D01*
X16433636Y-6644829D01*
X16433636Y-9125359D01*
X16432281Y-9168304D01*
X16428217Y-9208478D01*
X16417040Y-9263544D01*
X16399766Y-9312376D01*
X16376396Y-9354975D01*
X16346929Y-9391339D01*
X16311366Y-9421470D01*
X16269707Y-9445367D01*
X16221951Y-9463029D01*
X16168098Y-9474458D01*
X16128809Y-9478614D01*
X16086811Y-9480000D01*
X13654152Y-9480000D01*
X13612154Y-9478614D01*
X13572865Y-9474458D01*
X13519012Y-9463029D01*
X13471256Y-9445367D01*
X13429597Y-9421470D01*
X13394033Y-9391339D01*
X13364567Y-9354975D01*
X13341197Y-9312376D01*
X13323923Y-9263544D01*
X13312746Y-9208478D01*
X13308682Y-9168304D01*
X13307327Y-9125359D01*
X13307327Y-6999469D01*
X14682903Y-6999469D01*
X14682903Y-8771695D01*
X15058060Y-8771695D01*
X15058060Y-6999469D01*
X14682903Y-6999469D01*
X13307327Y-6999469D01*
X13307327Y-6644829D01*
X13308682Y-6602002D01*
X13312746Y-6561939D01*
X13323923Y-6507024D01*
X13341197Y-6458326D01*
X13364567Y-6415845D01*
X13394033Y-6379581D01*
X13429597Y-6349533D01*
X13471256Y-6325702D01*
X13519012Y-6308088D01*
X13572865Y-6296691D01*
X13612154Y-6292546D01*
X13654152Y-6291165D01*
X16086811Y-6291165D01*
X16128809Y-6292546D01*
G37*
G36*
X19626367Y-6292546D02*
G01*
X19665655Y-6296691D01*
X19719508Y-6308088D01*
X19767264Y-6325702D01*
X19808924Y-6349533D01*
X19844487Y-6379581D01*
X19873954Y-6415845D01*
X19897324Y-6458326D01*
X19914597Y-6507024D01*
X19925774Y-6561939D01*
X19929838Y-6602002D01*
X19931193Y-6644829D01*
X19931193Y-9125359D01*
X19929838Y-9168304D01*
X19925774Y-9208478D01*
X19914597Y-9263544D01*
X19897324Y-9312376D01*
X19873954Y-9354975D01*
X19844487Y-9391339D01*
X19808924Y-9421470D01*
X19767264Y-9445367D01*
X19719508Y-9463029D01*
X19665655Y-9474458D01*
X19626367Y-9478614D01*
X19584368Y-9480000D01*
X17151710Y-9480000D01*
X17109711Y-9478614D01*
X17070423Y-9474458D01*
X17016570Y-9463029D01*
X16968814Y-9445367D01*
X16927154Y-9421470D01*
X16891591Y-9391339D01*
X16862124Y-9354975D01*
X16838754Y-9312376D01*
X16821481Y-9263544D01*
X16810304Y-9208478D01*
X16806240Y-9168304D01*
X16804885Y-9125359D01*
X16804885Y-6999469D01*
X17499511Y-6999469D01*
X18194138Y-8771695D01*
X18541940Y-8771695D01*
X19236567Y-6999469D01*
X18829170Y-6999469D01*
X18368039Y-8240223D01*
X17896162Y-6999469D01*
X17499511Y-6999469D01*
X16804885Y-6999469D01*
X16804885Y-6644829D01*
X16806240Y-6602002D01*
X16810304Y-6561939D01*
X16821481Y-6507024D01*
X16838754Y-6458326D01*
X16862124Y-6415845D01*
X16891591Y-6379581D01*
X16927154Y-6349533D01*
X16968814Y-6325702D01*
X17016570Y-6308088D01*
X17070423Y-6296691D01*
X17109711Y-6292546D01*
X17151710Y-6291165D01*
X19584368Y-6291165D01*
X19626367Y-6292546D01*
G37*
G36*
X23134908Y-6292546D02*
G01*
X23174418Y-6296691D01*
X23228574Y-6308088D01*
X23276599Y-6325702D01*
X23318493Y-6349533D01*
X23354257Y-6379581D01*
X23383889Y-6415845D01*
X23407391Y-6458326D01*
X23424762Y-6507024D01*
X23436002Y-6561939D01*
X23440089Y-6602002D01*
X23441451Y-6644829D01*
X23441451Y-9125359D01*
X23440089Y-9168304D01*
X23436002Y-9208478D01*
X23424762Y-9263544D01*
X23407391Y-9312376D01*
X23383889Y-9354975D01*
X23354257Y-9391339D01*
X23318493Y-9421470D01*
X23276599Y-9445367D01*
X23228574Y-9463029D01*
X23174418Y-9474458D01*
X23134908Y-9478614D01*
X23092673Y-9480000D01*
X20651221Y-9480000D01*
X20608986Y-9478614D01*
X20569476Y-9474458D01*
X20515320Y-9463029D01*
X20467295Y-9445367D01*
X20425401Y-9421470D01*
X20389637Y-9391339D01*
X20360004Y-9354975D01*
X20336503Y-9312376D01*
X20319132Y-9263544D01*
X20307892Y-9208478D01*
X20303805Y-9168304D01*
X20302442Y-9125359D01*
X20302442Y-6999469D01*
X21002931Y-6999469D01*
X21002931Y-8771695D01*
X22740963Y-8771695D01*
X22740963Y-8417055D01*
X21350733Y-8417055D01*
X21350733Y-8062414D01*
X22740963Y-8062414D01*
X22740963Y-7708750D01*
X21350733Y-7708750D01*
X21350733Y-7354110D01*
X22740963Y-7354110D01*
X22740963Y-6999469D01*
X21002931Y-6999469D01*
X20302442Y-6999469D01*
X20302442Y-6644829D01*
X20303805Y-6602002D01*
X20307892Y-6561939D01*
X20319132Y-6507024D01*
X20336503Y-6458326D01*
X20360004Y-6415845D01*
X20389637Y-6379581D01*
X20425401Y-6349533D01*
X20467295Y-6325702D01*
X20515320Y-6308088D01*
X20569476Y-6296691D01*
X20608986Y-6292546D01*
X20651221Y-6291165D01*
X23092673Y-6291165D01*
X23134908Y-6292546D01*
G37*
D11*
G36*
X19252914Y-1637021D02*
G01*
X19317657Y-1644166D01*
X19377936Y-1656072D01*
X19459981Y-1682863D01*
X19531980Y-1720369D01*
X19593933Y-1768592D01*
X19645840Y-1827531D01*
X19687700Y-1897186D01*
X19719513Y-1977557D01*
X19735141Y-2037091D01*
X19746304Y-2101388D01*
X19753001Y-2170448D01*
X19755234Y-2244270D01*
X19755234Y-2808471D01*
X19752990Y-2882116D01*
X19746258Y-2951010D01*
X19735038Y-3015152D01*
X19719330Y-3074543D01*
X19687353Y-3154721D01*
X19645279Y-3224209D01*
X19593106Y-3283006D01*
X19530836Y-3331113D01*
X19458467Y-3368529D01*
X19376001Y-3395255D01*
X19315413Y-3407133D01*
X19250338Y-3414260D01*
X19180774Y-3416636D01*
X18870098Y-3416636D01*
X19815317Y-4448318D01*
X19006385Y-4448318D01*
X18122714Y-3416636D01*
X17691870Y-3416636D01*
X17691870Y-4448318D01*
X17035345Y-4448318D01*
X17035345Y-2291165D01*
X17691870Y-2291165D01*
X17691870Y-2760111D01*
X19098709Y-2760111D01*
X19098709Y-2291165D01*
X17691870Y-2291165D01*
X17035345Y-2291165D01*
X17035345Y-1634640D01*
X19183705Y-1634640D01*
X19252914Y-1637021D01*
G37*
G36*
X13535345Y-1634640D02*
G01*
X16255234Y-1634640D01*
X16255234Y-2291165D01*
X15223552Y-2291165D01*
X15223552Y-4448318D01*
X14567027Y-4448318D01*
X14567027Y-2291165D01*
X13535345Y-2291165D01*
X13535345Y-1634640D01*
G37*
G36*
X23305234Y-4448318D02*
G01*
X20585345Y-4448318D01*
X20585345Y-1634640D01*
X21241870Y-1634640D01*
X21241870Y-3791793D01*
X23305234Y-3791793D01*
X23305234Y-4448318D01*
G37*
D13*
G36*
X12916295Y-125176322D02*
G01*
X12862037Y-125159422D01*
X12801636Y-125155386D01*
X12740003Y-125165533D01*
X12725492Y-125171926D01*
X12691124Y-125196589D01*
X12687634Y-125199769D01*
X12661054Y-125227299D01*
X12633495Y-125254356D01*
X12625548Y-125262051D01*
X12598290Y-125289215D01*
X12571033Y-125316147D01*
X12552861Y-125333859D01*
X12524459Y-125361022D01*
X12496856Y-125387955D01*
X12478660Y-125405666D01*
X12450178Y-125432830D01*
X12422016Y-125459762D01*
X12402945Y-125477473D01*
X12375608Y-125504174D01*
X12347791Y-125530333D01*
X12328744Y-125547815D01*
X12299517Y-125575069D01*
X12271248Y-125601396D01*
X12251514Y-125618890D01*
X12222553Y-125645822D01*
X12193592Y-125672368D01*
X12174285Y-125689965D01*
X12144765Y-125716111D01*
X12114446Y-125742103D01*
X12094027Y-125759574D01*
X12064507Y-125785398D01*
X12034188Y-125811609D01*
X12013768Y-125829183D01*
X11983104Y-125854969D01*
X11952439Y-125880909D01*
X11931996Y-125898060D01*
X11900107Y-125923652D01*
X11868537Y-125949476D01*
X11847195Y-125966936D01*
X11812780Y-125993991D01*
X11779931Y-126019099D01*
X11760879Y-126033614D01*
X11728032Y-126059130D01*
X11694865Y-126084413D01*
X11673050Y-126101025D01*
X11639058Y-126125755D01*
X11605545Y-126150484D01*
X11583706Y-126166971D01*
X11548409Y-126191662D01*
X11513432Y-126216121D01*
X11489819Y-126232184D01*
X11454043Y-126256321D01*
X11418268Y-126280613D01*
X11394417Y-126296664D01*
X11350559Y-126325669D01*
X11306592Y-126354518D01*
X11262332Y-126383129D01*
X11217590Y-126411425D01*
X11172179Y-126439324D01*
X11125912Y-126466747D01*
X11078602Y-126493615D01*
X11030061Y-126519848D01*
X10980103Y-126545366D01*
X10928541Y-126570090D01*
X10893182Y-126586092D01*
X10844994Y-126606571D01*
X10795246Y-126626406D01*
X10743488Y-126643987D01*
X10689269Y-126657704D01*
X10620323Y-126666798D01*
X10559104Y-126666347D01*
X10546406Y-126665226D01*
X10487206Y-126652976D01*
X10436241Y-126630971D01*
X10397730Y-126605551D01*
X10364301Y-126576016D01*
X10355604Y-126567041D01*
X10325301Y-126531507D01*
X10299515Y-126495547D01*
X10277970Y-126459198D01*
X10260392Y-126422499D01*
X10246504Y-126385486D01*
X10236033Y-126348197D01*
X10228702Y-126310670D01*
X10224238Y-126272942D01*
X10222364Y-126235051D01*
X10222806Y-126197034D01*
X10225289Y-126158930D01*
X10229538Y-126120775D01*
X10235277Y-126082607D01*
X10242232Y-126044464D01*
X10250127Y-126006383D01*
X10258688Y-125968401D01*
X10270493Y-125919304D01*
X10283189Y-125870246D01*
X10296773Y-125821232D01*
X10311239Y-125772268D01*
X10326584Y-125723358D01*
X10342803Y-125674509D01*
X10359892Y-125625724D01*
X10377845Y-125577010D01*
X10396659Y-125528371D01*
X10416330Y-125479811D01*
X10436852Y-125431338D01*
X10458222Y-125382954D01*
X10480434Y-125334666D01*
X10503485Y-125286479D01*
X10527370Y-125238398D01*
X10552085Y-125190427D01*
X10577625Y-125142572D01*
X10603985Y-125094838D01*
X10631162Y-125047231D01*
X10659151Y-124999754D01*
X10687947Y-124952414D01*
X10717546Y-124905216D01*
X10747944Y-124858163D01*
X10779136Y-124811263D01*
X10811118Y-124764519D01*
X10843884Y-124717937D01*
X10877432Y-124671522D01*
X10911756Y-124625279D01*
X10946852Y-124579212D01*
X10982716Y-124533329D01*
X11019342Y-124487632D01*
X11056727Y-124442128D01*
X11090756Y-124401018D01*
X11125268Y-124359986D01*
X11160271Y-124319038D01*
X11195768Y-124278178D01*
X11231766Y-124237413D01*
X11268269Y-124196746D01*
X11305283Y-124156184D01*
X11342813Y-124115732D01*
X11380864Y-124075394D01*
X11419442Y-124035176D01*
X11458551Y-123995084D01*
X11498198Y-123955122D01*
X11538387Y-123915297D01*
X11579123Y-123875612D01*
X11620413Y-123836073D01*
X11662260Y-123796686D01*
X11704671Y-123757455D01*
X11747651Y-123718387D01*
X11791205Y-123679485D01*
X11835338Y-123640756D01*
X11880055Y-123602205D01*
X11925362Y-123563836D01*
X11971265Y-123525656D01*
X12017767Y-123487669D01*
X12064875Y-123449880D01*
X12112594Y-123412296D01*
X12160929Y-123374920D01*
X12209886Y-123337759D01*
X12259469Y-123300817D01*
X12309684Y-123264100D01*
X12360536Y-123227612D01*
X12412031Y-123191360D01*
X12448729Y-123163700D01*
X12481878Y-123138237D01*
X12523944Y-123112904D01*
X12566490Y-123096106D01*
X12618734Y-123078337D01*
X12639177Y-123050676D01*
X12630233Y-123020421D01*
X12593180Y-122994107D01*
X12560433Y-122982533D01*
X12495030Y-122977901D01*
X12434258Y-122986565D01*
X12392345Y-123000118D01*
X12347685Y-123021585D01*
X12321172Y-123035289D01*
X12282314Y-123058782D01*
X12257572Y-123074856D01*
X12192615Y-123119403D01*
X12128894Y-123164285D01*
X12066367Y-123209496D01*
X12004990Y-123255028D01*
X11944723Y-123300873D01*
X11885523Y-123347024D01*
X11827347Y-123393473D01*
X11770154Y-123440213D01*
X11713902Y-123487237D01*
X11658548Y-123534536D01*
X11604051Y-123582104D01*
X11550367Y-123629933D01*
X11497456Y-123678015D01*
X11445274Y-123726342D01*
X11393780Y-123774908D01*
X11342931Y-123823705D01*
X11288912Y-123876792D01*
X11235618Y-123930126D01*
X11183071Y-123983705D01*
X11131295Y-124037527D01*
X11080313Y-124091591D01*
X11030149Y-124145895D01*
X10980825Y-124200436D01*
X10932365Y-124255213D01*
X10884792Y-124310225D01*
X10838130Y-124365468D01*
X10792402Y-124420942D01*
X10747631Y-124476643D01*
X10703841Y-124532572D01*
X10661054Y-124588725D01*
X10619295Y-124645100D01*
X10578585Y-124701697D01*
X10538950Y-124758512D01*
X10500411Y-124815545D01*
X10462992Y-124872793D01*
X10426717Y-124930254D01*
X10391609Y-124987926D01*
X10357690Y-125045809D01*
X10324985Y-125103898D01*
X10293517Y-125162194D01*
X10263309Y-125220694D01*
X10234384Y-125279395D01*
X10206765Y-125338297D01*
X10180477Y-125397397D01*
X10155541Y-125456693D01*
X10131982Y-125516185D01*
X10109822Y-125575868D01*
X10089086Y-125635743D01*
X10073111Y-125683196D01*
X10057182Y-125731016D01*
X10041595Y-125779173D01*
X10026644Y-125827637D01*
X10012626Y-125876381D01*
X9999834Y-125925375D01*
X9988563Y-125974590D01*
X9979109Y-126023997D01*
X9971768Y-126073567D01*
X9966832Y-126123272D01*
X9964599Y-126173082D01*
X9965362Y-126222967D01*
X9969418Y-126272900D01*
X9977060Y-126322852D01*
X9988584Y-126372792D01*
X10004285Y-126422693D01*
X10016098Y-126452431D01*
X10029636Y-126482545D01*
X10045265Y-126512791D01*
X10063352Y-126542928D01*
X10084263Y-126572712D01*
X10108367Y-126601901D01*
X10136029Y-126630251D01*
X10167617Y-126657521D01*
X10203497Y-126683468D01*
X10244036Y-126707848D01*
X10273831Y-126723112D01*
X10333217Y-126747027D01*
X10398832Y-126765095D01*
X10468813Y-126777581D01*
X10541295Y-126784753D01*
X10614417Y-126786875D01*
X10686314Y-126784215D01*
X10755123Y-126777038D01*
X10818981Y-126765610D01*
X10879102Y-126750554D01*
X10936123Y-126733570D01*
X10990300Y-126714892D01*
X11041886Y-126694757D01*
X11091136Y-126673400D01*
X11138305Y-126651057D01*
X11183648Y-126627963D01*
X11227418Y-126604353D01*
X11269870Y-126580462D01*
X11311260Y-126556528D01*
X11338388Y-126540662D01*
X11377997Y-126517238D01*
X11379274Y-126516482D01*
X11419877Y-126492057D01*
X11460479Y-126467202D01*
X11479219Y-126455666D01*
X11516618Y-126431993D01*
X11553538Y-126408474D01*
X11577648Y-126392651D01*
X11616304Y-126367118D01*
X11654350Y-126341312D01*
X11671535Y-126329637D01*
X11709644Y-126304005D01*
X11744017Y-126279567D01*
X11763908Y-126265157D01*
X11801264Y-126239161D01*
X11835498Y-126214655D01*
X11854766Y-126199944D01*
X11891029Y-126173733D01*
X11926402Y-126147091D01*
X11942596Y-126134731D01*
X11977662Y-126107891D01*
X12010030Y-126082861D01*
X12028911Y-126068053D01*
X12062780Y-126041164D01*
X12094847Y-126015834D01*
X12113713Y-126000642D01*
X12146933Y-125973537D01*
X12177597Y-125948129D01*
X12195485Y-125933230D01*
X12226070Y-125907677D01*
X12256176Y-125882123D01*
X12275743Y-125865087D01*
X12305849Y-125839301D01*
X12335156Y-125813361D01*
X12354487Y-125796210D01*
X12383448Y-125770102D01*
X12414823Y-125742248D01*
X12431717Y-125727334D01*
X12460598Y-125701187D01*
X12489000Y-125675196D01*
X12507432Y-125657725D01*
X12535914Y-125631578D01*
X12564077Y-125605586D01*
X12583147Y-125588115D01*
X12611150Y-125561415D01*
X12638514Y-125535256D01*
X12657348Y-125517773D01*
X12685750Y-125491395D01*
X12713354Y-125465017D01*
X12731549Y-125447431D01*
X12758807Y-125421053D01*
X12786064Y-125394675D01*
X12804236Y-125377090D01*
X12831014Y-125350711D01*
X12857473Y-125324333D01*
X12875408Y-125306748D01*
X12903305Y-125279751D01*
X12913266Y-125270111D01*
X12916295Y-125266448D01*
X12941533Y-125238970D01*
X12948095Y-125224682D01*
X12937980Y-125194295D01*
X12916295Y-125176322D01*
G37*
G36*
X13189783Y-124732741D02*
G01*
X13246879Y-124745259D01*
X13287299Y-124770390D01*
X13289452Y-124773171D01*
X13298899Y-124803551D01*
X13289879Y-124834749D01*
X13264585Y-124863447D01*
X13249207Y-124873203D01*
X13196441Y-124889092D01*
X13190384Y-124872240D01*
X13160880Y-124904747D01*
X13132166Y-124937417D01*
X13104499Y-124970239D01*
X13078136Y-125003203D01*
X13053335Y-125036301D01*
X13030353Y-125069522D01*
X13009447Y-125102857D01*
X12990874Y-125136297D01*
X12974893Y-125169830D01*
X12961759Y-125203449D01*
X12951731Y-125237142D01*
X12945066Y-125270901D01*
X12942022Y-125304716D01*
X12942854Y-125338577D01*
X12947821Y-125372474D01*
X12957181Y-125406399D01*
X12961724Y-125418855D01*
X12966267Y-125426182D01*
X12970810Y-125434975D01*
X12978061Y-125442620D01*
X13024413Y-125463514D01*
X13088145Y-125471760D01*
X13149498Y-125470146D01*
X13205843Y-125463811D01*
X13273795Y-125451762D01*
X13339604Y-125436082D01*
X13403930Y-125417792D01*
X13467431Y-125397915D01*
X13518080Y-125381559D01*
X13568960Y-125365366D01*
X13640542Y-125342475D01*
X13711669Y-125319178D01*
X13782419Y-125295534D01*
X13852869Y-125271600D01*
X13923097Y-125247433D01*
X13993182Y-125223093D01*
X14063200Y-125198638D01*
X14133228Y-125174124D01*
X14203346Y-125149610D01*
X14273630Y-125125154D01*
X14344158Y-125100814D01*
X14415008Y-125076648D01*
X14486257Y-125052714D01*
X14557982Y-125029069D01*
X14630263Y-125005773D01*
X14703175Y-124982882D01*
X14740778Y-124970770D01*
X14801398Y-124951143D01*
X14866105Y-124931075D01*
X14933807Y-124912041D01*
X15003411Y-124895515D01*
X15073823Y-124882972D01*
X15143951Y-124875885D01*
X15212701Y-124875729D01*
X15278980Y-124883978D01*
X15341696Y-124902107D01*
X15399756Y-124931591D01*
X15416042Y-124943207D01*
X15446195Y-124973830D01*
X15463614Y-125005998D01*
X15471245Y-125038824D01*
X15472034Y-125071419D01*
X15468927Y-125102893D01*
X15464871Y-125132358D01*
X15460896Y-125155439D01*
X15455785Y-125185115D01*
X15452930Y-125199118D01*
X15445124Y-125229184D01*
X15436099Y-125258387D01*
X15432617Y-125269231D01*
X15421302Y-125301580D01*
X15408759Y-125333489D01*
X15395086Y-125364745D01*
X15380380Y-125395134D01*
X15364738Y-125424442D01*
X15342594Y-125461469D01*
X15319190Y-125495689D01*
X15294757Y-125526593D01*
X15294082Y-125527317D01*
X15328938Y-125508855D01*
X15374013Y-125487732D01*
X15419678Y-125465876D01*
X15465628Y-125444226D01*
X15511578Y-125422713D01*
X15557244Y-125401270D01*
X15603572Y-125379837D01*
X15649616Y-125358405D01*
X15695661Y-125336973D01*
X15741989Y-125315540D01*
X15787655Y-125294108D01*
X15833604Y-125272676D01*
X15879554Y-125251243D01*
X15925220Y-125229811D01*
X15970081Y-125208470D01*
X16016078Y-125186580D01*
X16054077Y-125169026D01*
X16099365Y-125147745D01*
X16127999Y-125133389D01*
X16178109Y-125114773D01*
X16184645Y-125113219D01*
X16245508Y-125107913D01*
X16305311Y-125114773D01*
X16312082Y-125116718D01*
X16356128Y-125139105D01*
X16374969Y-125167529D01*
X16371913Y-125183064D01*
X16344683Y-125209295D01*
X16343117Y-125210310D01*
X16299253Y-125231277D01*
X16258367Y-125251793D01*
X16252439Y-125254541D01*
X16209341Y-125275149D01*
X16165995Y-125295757D01*
X16119666Y-125317189D01*
X16073622Y-125338621D01*
X16027578Y-125360054D01*
X15981249Y-125381486D01*
X15935796Y-125402918D01*
X15890202Y-125424351D01*
X15844323Y-125445783D01*
X15798018Y-125467215D01*
X15752352Y-125488647D01*
X15706403Y-125510080D01*
X15660453Y-125531512D01*
X15614787Y-125552944D01*
X15568483Y-125574377D01*
X15522604Y-125595809D01*
X15477009Y-125617241D01*
X15431556Y-125638674D01*
X15386127Y-125660106D01*
X15340698Y-125681538D01*
X15295269Y-125702971D01*
X15249840Y-125724403D01*
X15232278Y-125732901D01*
X15189267Y-125753712D01*
X15163524Y-125766168D01*
X15143773Y-125796659D01*
X15123704Y-125827131D01*
X15103317Y-125857582D01*
X15082612Y-125888009D01*
X15061592Y-125918411D01*
X15040257Y-125948786D01*
X15018607Y-125979131D01*
X14996643Y-126009446D01*
X14974367Y-126039727D01*
X14951778Y-126069973D01*
X14928879Y-126100181D01*
X14905669Y-126130350D01*
X14882150Y-126160478D01*
X14858322Y-126190563D01*
X14834187Y-126220602D01*
X14809745Y-126250594D01*
X14784996Y-126280536D01*
X14759942Y-126310427D01*
X14734584Y-126340265D01*
X14708922Y-126370047D01*
X14682957Y-126399772D01*
X14656691Y-126429437D01*
X14630123Y-126459041D01*
X14603255Y-126488581D01*
X14576087Y-126518056D01*
X14548621Y-126547464D01*
X14520857Y-126576802D01*
X14492796Y-126606068D01*
X14464439Y-126635261D01*
X14435787Y-126664379D01*
X14406840Y-126693419D01*
X14377600Y-126722379D01*
X14353665Y-126745763D01*
X14317328Y-126780891D01*
X14280234Y-126815974D01*
X14242123Y-126850892D01*
X14202731Y-126885527D01*
X14161797Y-126919759D01*
X14119058Y-126953468D01*
X14074254Y-126986534D01*
X14027121Y-127018838D01*
X13977398Y-127050261D01*
X13924822Y-127080683D01*
X13896321Y-127096516D01*
X13844966Y-127122941D01*
X13800114Y-127143138D01*
X13751623Y-127161558D01*
X13699229Y-127177333D01*
X13642664Y-127189597D01*
X13581663Y-127197481D01*
X13515960Y-127200118D01*
X13443297Y-127194083D01*
X13379861Y-127177942D01*
X13325796Y-127153815D01*
X13281242Y-127123823D01*
X13246342Y-127090087D01*
X13221238Y-127054729D01*
X13206071Y-127019868D01*
X13200984Y-126987627D01*
X13201995Y-126976785D01*
X13459812Y-126976785D01*
X13460673Y-127010205D01*
X13470530Y-127044047D01*
X13482645Y-127063098D01*
X13487188Y-127068227D01*
X13512574Y-127075288D01*
X13570475Y-127064838D01*
X13620105Y-127047481D01*
X13665561Y-127027675D01*
X13712819Y-127003747D01*
X13745981Y-126984964D01*
X13793499Y-126955943D01*
X13838578Y-126925986D01*
X13881481Y-126895179D01*
X13922470Y-126863608D01*
X13961807Y-126831362D01*
X13999754Y-126798526D01*
X14036573Y-126765187D01*
X14072526Y-126731434D01*
X14107875Y-126697352D01*
X14142882Y-126663028D01*
X14191004Y-126615383D01*
X14238313Y-126567529D01*
X14284886Y-126519479D01*
X14330798Y-126471248D01*
X14376124Y-126422849D01*
X14420941Y-126374297D01*
X14465322Y-126325606D01*
X14509344Y-126276789D01*
X14553082Y-126227860D01*
X14596612Y-126178833D01*
X14640008Y-126129723D01*
X14683347Y-126080543D01*
X14726704Y-126031308D01*
X14770154Y-125982030D01*
X14801854Y-125946195D01*
X14786998Y-125953788D01*
X14738362Y-125978835D01*
X14689978Y-126003970D01*
X14641881Y-126029203D01*
X14594103Y-126054543D01*
X14546679Y-126080000D01*
X14499643Y-126105582D01*
X14453028Y-126131300D01*
X14406869Y-126157162D01*
X14361199Y-126183178D01*
X14316051Y-126209358D01*
X14271461Y-126235710D01*
X14227461Y-126262245D01*
X14184085Y-126288971D01*
X14141368Y-126315898D01*
X14099343Y-126343036D01*
X14058043Y-126370393D01*
X14017504Y-126397979D01*
X13977758Y-126425804D01*
X13938839Y-126453877D01*
X13900782Y-126482208D01*
X13863619Y-126510805D01*
X13827386Y-126539678D01*
X13792115Y-126568836D01*
X13757841Y-126598290D01*
X13724597Y-126628048D01*
X13692418Y-126658119D01*
X13661336Y-126688514D01*
X13631386Y-126719241D01*
X13602602Y-126750310D01*
X13575018Y-126781730D01*
X13547609Y-126813889D01*
X13521851Y-126846107D01*
X13498968Y-126878446D01*
X13480184Y-126910965D01*
X13466724Y-126943725D01*
X13459812Y-126976785D01*
X13201995Y-126976785D01*
X13204013Y-126955141D01*
X13211584Y-126923101D01*
X13223131Y-126891542D01*
X13238085Y-126860498D01*
X13255878Y-126830004D01*
X13275942Y-126800094D01*
X13297710Y-126770802D01*
X13320614Y-126742163D01*
X13353700Y-126704189D01*
X13388468Y-126666649D01*
X13424858Y-126629534D01*
X13462814Y-126592835D01*
X13502277Y-126556544D01*
X13543189Y-126520653D01*
X13585493Y-126485152D01*
X13629130Y-126450033D01*
X13674043Y-126415288D01*
X13720173Y-126380908D01*
X13767463Y-126346884D01*
X13815854Y-126313207D01*
X13865289Y-126279870D01*
X13915710Y-126246864D01*
X13967059Y-126214180D01*
X14019277Y-126181809D01*
X14072307Y-126149742D01*
X14126091Y-126117973D01*
X14180571Y-126086490D01*
X14235690Y-126055287D01*
X14291388Y-126024354D01*
X14347608Y-125993683D01*
X14404293Y-125963266D01*
X14461383Y-125933093D01*
X14518822Y-125903156D01*
X14576551Y-125873447D01*
X14634513Y-125843957D01*
X14692649Y-125814677D01*
X14750902Y-125785599D01*
X14809213Y-125756714D01*
X14867524Y-125728014D01*
X14925778Y-125699490D01*
X14931835Y-125697292D01*
X14956342Y-125659199D01*
X14980885Y-125621024D01*
X15005250Y-125582752D01*
X15029224Y-125544369D01*
X15052595Y-125505862D01*
X15075150Y-125467217D01*
X15096676Y-125428419D01*
X15116959Y-125389454D01*
X15135788Y-125350310D01*
X15152948Y-125310971D01*
X15168227Y-125271424D01*
X15181412Y-125231654D01*
X15192290Y-125191649D01*
X15200648Y-125151393D01*
X15206274Y-125110874D01*
X15208953Y-125070076D01*
X15209050Y-125064103D01*
X15210747Y-125032048D01*
X15195325Y-125001933D01*
X15175813Y-124999371D01*
X15115439Y-125009113D01*
X15057333Y-125024281D01*
X15005134Y-125039614D01*
X14950220Y-125056544D01*
X14894773Y-125073920D01*
X14840977Y-125090593D01*
X14764035Y-125115116D01*
X14687612Y-125140017D01*
X14611624Y-125165245D01*
X14535986Y-125190747D01*
X14460615Y-125216473D01*
X14385425Y-125242371D01*
X14310333Y-125268388D01*
X14235255Y-125294474D01*
X14160105Y-125320578D01*
X14084800Y-125346647D01*
X14009256Y-125372630D01*
X13933387Y-125398476D01*
X13857111Y-125424133D01*
X13780342Y-125449550D01*
X13702996Y-125474674D01*
X13624990Y-125499455D01*
X13608712Y-125504555D01*
X13541740Y-125525011D01*
X13489554Y-125539950D01*
X13435691Y-125554048D01*
X13380151Y-125566861D01*
X13322934Y-125577942D01*
X13264041Y-125586846D01*
X13203470Y-125593127D01*
X13141222Y-125596340D01*
X13077298Y-125596039D01*
X13011696Y-125591779D01*
X12949893Y-125582815D01*
X12889794Y-125568423D01*
X12835374Y-125549223D01*
X12790607Y-125525833D01*
X12750798Y-125496039D01*
X12722274Y-125464708D01*
X12703405Y-125432363D01*
X12692556Y-125399529D01*
X12688096Y-125366730D01*
X12688392Y-125334488D01*
X12691811Y-125303329D01*
X12696720Y-125273775D01*
X12700981Y-125252756D01*
X12708456Y-125221250D01*
X12717258Y-125189797D01*
X12727418Y-125158432D01*
X12738966Y-125127186D01*
X12751930Y-125096092D01*
X12766343Y-125065183D01*
X12782233Y-125034492D01*
X12799629Y-125004050D01*
X12818564Y-124973891D01*
X12839065Y-124944047D01*
X12845970Y-124934414D01*
X12867884Y-124905396D01*
X12891874Y-124876377D01*
X12918300Y-124847590D01*
X12947520Y-124819267D01*
X12979895Y-124791639D01*
X13010284Y-124770081D01*
X13055611Y-124748408D01*
X13079457Y-124741046D01*
X13137383Y-124731556D01*
X13189783Y-124732741D01*
G37*
G36*
X19267292Y-125214424D02*
G01*
X19221525Y-125194367D01*
X19161519Y-125184040D01*
X19144634Y-125183649D01*
X19083130Y-125193665D01*
X19041344Y-125216997D01*
X19016132Y-125244169D01*
X19012889Y-125248129D01*
X18990359Y-125275508D01*
X18966892Y-125302722D01*
X18942664Y-125329822D01*
X18917846Y-125356858D01*
X18892612Y-125383881D01*
X18867135Y-125410940D01*
X18856916Y-125421786D01*
X18830717Y-125449780D01*
X18804341Y-125477714D01*
X18777752Y-125505596D01*
X18750914Y-125533435D01*
X18723793Y-125561241D01*
X18696352Y-125589020D01*
X18668556Y-125616782D01*
X18640370Y-125644535D01*
X18612468Y-125672190D01*
X18584388Y-125699673D01*
X18556095Y-125727019D01*
X18527554Y-125754262D01*
X18498729Y-125781435D01*
X18469585Y-125808575D01*
X18440085Y-125835715D01*
X18410195Y-125862889D01*
X18379895Y-125889537D01*
X18349221Y-125916160D01*
X18318228Y-125942732D01*
X18286969Y-125969226D01*
X18255497Y-125995617D01*
X18223865Y-126021879D01*
X18192127Y-126047987D01*
X18160335Y-126073914D01*
X18127257Y-126099918D01*
X18093895Y-126125732D01*
X18060249Y-126151375D01*
X18026319Y-126176863D01*
X17992105Y-126202213D01*
X17957607Y-126227444D01*
X17922826Y-126252571D01*
X17887760Y-126277613D01*
X17851902Y-126302062D01*
X17815831Y-126326477D01*
X17779475Y-126350823D01*
X17742765Y-126375066D01*
X17705629Y-126399171D01*
X17667996Y-126423105D01*
X17629796Y-126446833D01*
X17590956Y-126470321D01*
X17551629Y-126493847D01*
X17511999Y-126517158D01*
X17472051Y-126540246D01*
X17431765Y-126563102D01*
X17391124Y-126585718D01*
X17350111Y-126608085D01*
X17308707Y-126630194D01*
X17266895Y-126652037D01*
X17213475Y-126679468D01*
X17159602Y-126706494D01*
X17105139Y-126733056D01*
X17049953Y-126759096D01*
X16993908Y-126784556D01*
X16936870Y-126809379D01*
X16878704Y-126833507D01*
X16819275Y-126856881D01*
X16758449Y-126879443D01*
X16696091Y-126901136D01*
X16653601Y-126915087D01*
X16588379Y-126935818D01*
X16522235Y-126955227D01*
X16455239Y-126972609D01*
X16387462Y-126987260D01*
X16318975Y-126998478D01*
X16249849Y-127005556D01*
X16180156Y-127007791D01*
X16109965Y-127004480D01*
X16049514Y-126995396D01*
X15995611Y-126980343D01*
X15947778Y-126960304D01*
X15905534Y-126936267D01*
X15868401Y-126909216D01*
X15857076Y-126899699D01*
X15816186Y-126859645D01*
X15782869Y-126819451D01*
X15756571Y-126779133D01*
X15736736Y-126738705D01*
X15722811Y-126698183D01*
X15714240Y-126657581D01*
X15710470Y-126616915D01*
X15710946Y-126576200D01*
X15715112Y-126535450D01*
X15722415Y-126494681D01*
X15732300Y-126453907D01*
X15744213Y-126413145D01*
X15757599Y-126372408D01*
X15771902Y-126331712D01*
X15786570Y-126291071D01*
X15801047Y-126250502D01*
X15820988Y-126194434D01*
X15842178Y-126138610D01*
X15864588Y-126083023D01*
X15888187Y-126027668D01*
X15912948Y-125972539D01*
X15938842Y-125917630D01*
X15965838Y-125862935D01*
X15993908Y-125808449D01*
X16023023Y-125754166D01*
X16053153Y-125700080D01*
X16084270Y-125646185D01*
X16116345Y-125592476D01*
X16149348Y-125538947D01*
X16183250Y-125485591D01*
X16218022Y-125432404D01*
X16253635Y-125379379D01*
X16290060Y-125326511D01*
X16327268Y-125273794D01*
X16365229Y-125221222D01*
X16403915Y-125168790D01*
X16443296Y-125116491D01*
X16483344Y-125064320D01*
X16524029Y-125012271D01*
X16565322Y-124960339D01*
X16607193Y-124908517D01*
X16649615Y-124856799D01*
X16692558Y-124805181D01*
X16735992Y-124753656D01*
X16779888Y-124702219D01*
X16824218Y-124650863D01*
X16868952Y-124599583D01*
X16914062Y-124548374D01*
X16948207Y-124509999D01*
X16982475Y-124471591D01*
X17016827Y-124433234D01*
X17051227Y-124395011D01*
X17085637Y-124357006D01*
X17120020Y-124319301D01*
X17154338Y-124281980D01*
X17188553Y-124245127D01*
X17222629Y-124208824D01*
X17256527Y-124173155D01*
X17279009Y-124149769D01*
X17342613Y-124147716D01*
X17395611Y-124146106D01*
X17458218Y-124143799D01*
X17520825Y-124141656D01*
X17583432Y-124139632D01*
X17646039Y-124137681D01*
X17681814Y-124136580D01*
X17744422Y-124134266D01*
X17807029Y-124132070D01*
X17869636Y-124129900D01*
X17932243Y-124127664D01*
X17968018Y-124126322D01*
X18030811Y-124124293D01*
X18093848Y-124122054D01*
X18156940Y-124119605D01*
X18219896Y-124116945D01*
X18255736Y-124115331D01*
X18318343Y-124112919D01*
X18380950Y-124110461D01*
X18443558Y-124107911D01*
X18506165Y-124105223D01*
X18541940Y-124103607D01*
X18604361Y-124100715D01*
X18666538Y-124097776D01*
X18728661Y-124094745D01*
X18790919Y-124091576D01*
X18826630Y-124089685D01*
X18888025Y-124086621D01*
X18948987Y-124083319D01*
X19009513Y-124079965D01*
X19078154Y-124076304D01*
X19103747Y-124075031D01*
X19165452Y-124067165D01*
X19203692Y-124053049D01*
X19228700Y-124024428D01*
X19218335Y-123992394D01*
X19182501Y-123965359D01*
X19155234Y-123955596D01*
X19124948Y-123950467D01*
X19063893Y-123949956D01*
X19056804Y-123950467D01*
X18995151Y-123954039D01*
X18931998Y-123957611D01*
X18902345Y-123959260D01*
X18839989Y-123962809D01*
X18776655Y-123966252D01*
X18758486Y-123967320D01*
X18694999Y-123970442D01*
X18633686Y-123973300D01*
X18616141Y-123973914D01*
X18551694Y-123976795D01*
X18487706Y-123979646D01*
X18423998Y-123982439D01*
X18360389Y-123985146D01*
X18296701Y-123987736D01*
X18275422Y-123988569D01*
X18212379Y-123991037D01*
X18149276Y-123993476D01*
X18086054Y-123995857D01*
X18022652Y-123998152D01*
X17959010Y-124000330D01*
X17937732Y-124001025D01*
X17873708Y-124003154D01*
X17809483Y-124005379D01*
X17745179Y-124007642D01*
X17680915Y-124009887D01*
X17616811Y-124012054D01*
X17595499Y-124012749D01*
X17529556Y-124014478D01*
X17464766Y-124016323D01*
X17409239Y-124017878D01*
X17442788Y-123984299D01*
X17477528Y-123950108D01*
X17513408Y-123915377D01*
X17550377Y-123880182D01*
X17588385Y-123844597D01*
X17627379Y-123808694D01*
X17667310Y-123772549D01*
X17708126Y-123736236D01*
X17749775Y-123699828D01*
X17792208Y-123663399D01*
X17835373Y-123627024D01*
X17879218Y-123590777D01*
X17923694Y-123554732D01*
X17968749Y-123518963D01*
X18014331Y-123483543D01*
X18060391Y-123448548D01*
X18117935Y-123460272D01*
X18172691Y-123445753D01*
X18180021Y-123442686D01*
X18222182Y-123421019D01*
X18252989Y-123393766D01*
X18255736Y-123389930D01*
X18266226Y-123359413D01*
X18260680Y-123327379D01*
X18234780Y-123297380D01*
X18190621Y-123277822D01*
X18132072Y-123269898D01*
X18123992Y-123269762D01*
X18059425Y-123275508D01*
X18004820Y-123291001D01*
X17959279Y-123312387D01*
X17921903Y-123335811D01*
X17887419Y-123360573D01*
X17883217Y-123363551D01*
X17847293Y-123388170D01*
X17811912Y-123412975D01*
X17777061Y-123437959D01*
X17742724Y-123463114D01*
X17708886Y-123488433D01*
X17675532Y-123513909D01*
X17642647Y-123539535D01*
X17610216Y-123565304D01*
X17578225Y-123591207D01*
X17546658Y-123617239D01*
X17525841Y-123634661D01*
X17495799Y-123660458D01*
X17466142Y-123686326D01*
X17436854Y-123712256D01*
X17407920Y-123738242D01*
X17379326Y-123764276D01*
X17351056Y-123790351D01*
X17323096Y-123816460D01*
X17295430Y-123842596D01*
X17268043Y-123868751D01*
X17231937Y-123903641D01*
X17222980Y-123912365D01*
X17195297Y-123940132D01*
X17168470Y-123967162D01*
X17139957Y-123996208D01*
X17112144Y-124025217D01*
X17109407Y-124028136D01*
X17045895Y-124030055D01*
X16980646Y-124031960D01*
X16916754Y-124033792D01*
X16909519Y-124033998D01*
X16845494Y-124036127D01*
X16781270Y-124038352D01*
X16716966Y-124040615D01*
X16652702Y-124042860D01*
X16588597Y-124045027D01*
X16567286Y-124045722D01*
X16501857Y-124048200D01*
X16436748Y-124050706D01*
X16371958Y-124053271D01*
X16307487Y-124055923D01*
X16243336Y-124058690D01*
X16222024Y-124059644D01*
X16157427Y-124062194D01*
X16093030Y-124064899D01*
X16028713Y-124067758D01*
X15964355Y-124070772D01*
X15899838Y-124073940D01*
X15878276Y-124075031D01*
X15813690Y-124078401D01*
X15749362Y-124081896D01*
X15685235Y-124085488D01*
X15621247Y-124089147D01*
X15557339Y-124092846D01*
X15536043Y-124094082D01*
X15471327Y-124097936D01*
X15406730Y-124102042D01*
X15342373Y-124106340D01*
X15278375Y-124110774D01*
X15214856Y-124115286D01*
X15193810Y-124116796D01*
X15131762Y-124121325D01*
X15068596Y-124126134D01*
X15004791Y-124131658D01*
X14940827Y-124138332D01*
X14877181Y-124146589D01*
X14856120Y-124149769D01*
X14800803Y-124163084D01*
X14797062Y-124164424D01*
X14765593Y-124189817D01*
X14766776Y-124220294D01*
X14794081Y-124248298D01*
X14840977Y-124266273D01*
X14900864Y-124270769D01*
X14925778Y-124269937D01*
X14985665Y-124262531D01*
X14990893Y-124261877D01*
X15051253Y-124254744D01*
X15113741Y-124249329D01*
X15177650Y-124244875D01*
X15242268Y-124240628D01*
X15305467Y-124236506D01*
X15368540Y-124232384D01*
X15377041Y-124231835D01*
X15439850Y-124227996D01*
X15502998Y-124224203D01*
X15566391Y-124220501D01*
X15629933Y-124216938D01*
X15666274Y-124214982D01*
X15729082Y-124211323D01*
X15792231Y-124207946D01*
X15855623Y-124204714D01*
X15919166Y-124201488D01*
X15955506Y-124199595D01*
X16018315Y-124196717D01*
X16081463Y-124193886D01*
X16144856Y-124191146D01*
X16208398Y-124188545D01*
X16244738Y-124187138D01*
X16307531Y-124184351D01*
X16370568Y-124181728D01*
X16433660Y-124179223D01*
X16496616Y-124176790D01*
X16532456Y-124175415D01*
X16595686Y-124173018D01*
X16658426Y-124170668D01*
X16721058Y-124168409D01*
X16783961Y-124166289D01*
X16820175Y-124165157D01*
X16887632Y-124162569D01*
X16953136Y-124158862D01*
X17007948Y-124151235D01*
X16968745Y-124175385D01*
X16947376Y-124197397D01*
X16892456Y-124255888D01*
X16837889Y-124314449D01*
X16783717Y-124373087D01*
X16729985Y-124431807D01*
X16676733Y-124490615D01*
X16624006Y-124549516D01*
X16571846Y-124608518D01*
X16520295Y-124667625D01*
X16469396Y-124726844D01*
X16419192Y-124786180D01*
X16369725Y-124845640D01*
X16321039Y-124905230D01*
X16273176Y-124964954D01*
X16226179Y-125024820D01*
X16180089Y-125084832D01*
X16134951Y-125144998D01*
X16090807Y-125205322D01*
X16047699Y-125265811D01*
X16005670Y-125326471D01*
X15964763Y-125387308D01*
X15925021Y-125448327D01*
X15886486Y-125509534D01*
X15849201Y-125570935D01*
X15813209Y-125632537D01*
X15778552Y-125694345D01*
X15745273Y-125756365D01*
X15713414Y-125818602D01*
X15683020Y-125881064D01*
X15654131Y-125943755D01*
X15626792Y-126006682D01*
X15601043Y-126069850D01*
X15576930Y-126133265D01*
X15558634Y-126183325D01*
X15540018Y-126234721D01*
X15521829Y-126287244D01*
X15504811Y-126340685D01*
X15489709Y-126394834D01*
X15477269Y-126449482D01*
X15468237Y-126504420D01*
X15463357Y-126559439D01*
X15463374Y-126614328D01*
X15469035Y-126668880D01*
X15481085Y-126722884D01*
X15500268Y-126776132D01*
X15527330Y-126828413D01*
X15563017Y-126879519D01*
X15608073Y-126929241D01*
X15663245Y-126977369D01*
X15698045Y-127002478D01*
X15755679Y-127035488D01*
X15818887Y-127063109D01*
X15886608Y-127085562D01*
X15957777Y-127103068D01*
X16031332Y-127115847D01*
X16106209Y-127124122D01*
X16181346Y-127128112D01*
X16255679Y-127128039D01*
X16328146Y-127124124D01*
X16397683Y-127116587D01*
X16472466Y-127105065D01*
X16545240Y-127091255D01*
X16616073Y-127075384D01*
X16685032Y-127057674D01*
X16752183Y-127038351D01*
X16817596Y-127017640D01*
X16881336Y-126995764D01*
X16943472Y-126972949D01*
X17004071Y-126949420D01*
X17063200Y-126925400D01*
X17101835Y-126909225D01*
X17129093Y-126897501D01*
X17174874Y-126877582D01*
X17220212Y-126857396D01*
X17265088Y-126836952D01*
X17309485Y-126816260D01*
X17353385Y-126795327D01*
X17396770Y-126774162D01*
X17439623Y-126752774D01*
X17481926Y-126731172D01*
X17523732Y-126709425D01*
X17565095Y-126687575D01*
X17605996Y-126665587D01*
X17646418Y-126643428D01*
X17686343Y-126621062D01*
X17725753Y-126598456D01*
X17764631Y-126575576D01*
X17802959Y-126552386D01*
X17840858Y-126529447D01*
X17878438Y-126506259D01*
X17915662Y-126482847D01*
X17952497Y-126459238D01*
X17988905Y-126435457D01*
X18024852Y-126411530D01*
X18060302Y-126387484D01*
X18095220Y-126363342D01*
X18130150Y-126339063D01*
X18164547Y-126314604D01*
X18198447Y-126289991D01*
X18231886Y-126265248D01*
X18264899Y-126240403D01*
X18297522Y-126215480D01*
X18329789Y-126190505D01*
X18361738Y-126165505D01*
X18393393Y-126139949D01*
X18424747Y-126114375D01*
X18455781Y-126088766D01*
X18486479Y-126063107D01*
X18516821Y-126037378D01*
X18546791Y-126011564D01*
X18576370Y-125985646D01*
X18605541Y-125959609D01*
X18634925Y-125933441D01*
X18664007Y-125907161D01*
X18692770Y-125880796D01*
X18721196Y-125854371D01*
X18749267Y-125827911D01*
X18776965Y-125801442D01*
X18804273Y-125774991D01*
X18831172Y-125748583D01*
X18858291Y-125721865D01*
X18885143Y-125695036D01*
X18911747Y-125668122D01*
X18938120Y-125641147D01*
X18964281Y-125614137D01*
X18990246Y-125587119D01*
X19016033Y-125560119D01*
X19041661Y-125533161D01*
X19066647Y-125506221D01*
X19091633Y-125479214D01*
X19116619Y-125452068D01*
X19141605Y-125424717D01*
X19168200Y-125396118D01*
X19195363Y-125367381D01*
X19222526Y-125338369D01*
X19249121Y-125308946D01*
X19274169Y-125279811D01*
X19286563Y-125248271D01*
X19271285Y-125217798D01*
X19267292Y-125214424D01*
G37*
G36*
X20884571Y-125103049D02*
G01*
X20848689Y-125078749D01*
X20805827Y-125065680D01*
X20742748Y-125062875D01*
X20685958Y-125073343D01*
X20643796Y-125086929D01*
X20591970Y-125103106D01*
X20538386Y-125118665D01*
X20501452Y-125128695D01*
X20437400Y-125144605D01*
X20371712Y-125158602D01*
X20304986Y-125168310D01*
X20237820Y-125171353D01*
X20170815Y-125165354D01*
X20148618Y-125160935D01*
X20098586Y-125141990D01*
X20071389Y-125122833D01*
X20043622Y-125095289D01*
X20025148Y-125066575D01*
X20014826Y-125036783D01*
X20011515Y-125006005D01*
X20012331Y-124988011D01*
X20017072Y-124955978D01*
X20025347Y-124924023D01*
X20035898Y-124891913D01*
X20047467Y-124859417D01*
X20058797Y-124826302D01*
X20062303Y-124815087D01*
X20062113Y-124785687D01*
X20048674Y-124761598D01*
X20006548Y-124737981D01*
X19947625Y-124726950D01*
X19927530Y-124726427D01*
X19867702Y-124734700D01*
X19819401Y-124752429D01*
X19803357Y-124761598D01*
X19773183Y-124787504D01*
X19754899Y-124809225D01*
X19728499Y-124835788D01*
X19707955Y-124855387D01*
X19678697Y-124882976D01*
X19651926Y-124908876D01*
X19624558Y-124935422D01*
X19597752Y-124962132D01*
X19571403Y-124988956D01*
X19545407Y-125015844D01*
X19519661Y-125042746D01*
X19494061Y-125069610D01*
X19483838Y-125080334D01*
X19459006Y-125107567D01*
X19434242Y-125134964D01*
X19409618Y-125162476D01*
X19385201Y-125190051D01*
X19361062Y-125217639D01*
X19337269Y-125245190D01*
X19327865Y-125256189D01*
X19304719Y-125283703D01*
X19282800Y-125311435D01*
X19263113Y-125339602D01*
X19246663Y-125368424D01*
X19234456Y-125398118D01*
X19227496Y-125428902D01*
X19226406Y-125441570D01*
X19247882Y-125402175D01*
X19267409Y-125362736D01*
X19285354Y-125323285D01*
X19302083Y-125283854D01*
X19317964Y-125244477D01*
X19333363Y-125205185D01*
X19348648Y-125166011D01*
X19364184Y-125126989D01*
X19380340Y-125088150D01*
X19397481Y-125049527D01*
X19409637Y-125023914D01*
X19420237Y-125005596D01*
X19447389Y-124978576D01*
X19455066Y-124955038D01*
X19438694Y-124925925D01*
X19401954Y-124902459D01*
X19373294Y-124892756D01*
X19313040Y-124887296D01*
X19252624Y-124893433D01*
X19224892Y-124903014D01*
X19197634Y-124924996D01*
X19176970Y-124954185D01*
X19161274Y-124984837D01*
X19146148Y-125012923D01*
X19131770Y-125042070D01*
X19119500Y-125071270D01*
X19107774Y-125102491D01*
X19106776Y-125105247D01*
X19095752Y-125135132D01*
X19085392Y-125165033D01*
X19075699Y-125194967D01*
X19066671Y-125224952D01*
X19058308Y-125255005D01*
X19050611Y-125285140D01*
X19047718Y-125297222D01*
X19040126Y-125327152D01*
X19032943Y-125357155D01*
X19026134Y-125387199D01*
X19019665Y-125417249D01*
X19013501Y-125447273D01*
X19007607Y-125477236D01*
X19005318Y-125489197D01*
X18998905Y-125519049D01*
X18993203Y-125544884D01*
X18984807Y-125575111D01*
X18974304Y-125606894D01*
X18967174Y-125637052D01*
X18965946Y-125647466D01*
X18970500Y-125678717D01*
X18988410Y-125708793D01*
X18994717Y-125714877D01*
X19040514Y-125738346D01*
X19101733Y-125752516D01*
X19168274Y-125753406D01*
X19196120Y-125747850D01*
X19233976Y-125724563D01*
X19235492Y-125722937D01*
X19259721Y-125701688D01*
X19282465Y-125674390D01*
X19294550Y-125658457D01*
X19316338Y-125627703D01*
X19338531Y-125597198D01*
X19361532Y-125566846D01*
X19374808Y-125550013D01*
X19397634Y-125520819D01*
X19420681Y-125491624D01*
X19443950Y-125462429D01*
X19467441Y-125433235D01*
X19491154Y-125404040D01*
X19515088Y-125374846D01*
X19524724Y-125363168D01*
X19548771Y-125334370D01*
X19572734Y-125305680D01*
X19596753Y-125277097D01*
X19620966Y-125248622D01*
X19645511Y-125220253D01*
X19670528Y-125191993D01*
X19680698Y-125180718D01*
X19706298Y-125152554D01*
X19732175Y-125124390D01*
X19758607Y-125096226D01*
X19763985Y-125090593D01*
X19790574Y-125063130D01*
X19806385Y-125045896D01*
X19829100Y-125023914D01*
X19841214Y-125012191D01*
X19806385Y-124993140D01*
X19796442Y-125022125D01*
X19792956Y-125051526D01*
X19795839Y-125080950D01*
X19805001Y-125110000D01*
X19826828Y-125147471D01*
X19859445Y-125182640D01*
X19902638Y-125214573D01*
X19956195Y-125242332D01*
X20019902Y-125264982D01*
X20097776Y-125282713D01*
X20176853Y-125292761D01*
X20256578Y-125295946D01*
X20336398Y-125293086D01*
X20415759Y-125285000D01*
X20494107Y-125272507D01*
X20570888Y-125256425D01*
X20645547Y-125237573D01*
X20717532Y-125216770D01*
X20786287Y-125194834D01*
X20830056Y-125179986D01*
X20871155Y-125157729D01*
X20880028Y-125149211D01*
X20890535Y-125118933D01*
X20884571Y-125103049D01*
G37*
G36*
X21774983Y-125163866D02*
G01*
X21755297Y-125148478D01*
X21728039Y-125147745D01*
X21679788Y-125128839D01*
X21678067Y-125128695D01*
X21616640Y-125128748D01*
X21603866Y-125130160D01*
X21550412Y-125144964D01*
X21541780Y-125148478D01*
X21517551Y-125158736D01*
X21469548Y-125178756D01*
X21422118Y-125197695D01*
X21411549Y-125201967D01*
X21363722Y-125221202D01*
X21315134Y-125240436D01*
X21301005Y-125245931D01*
X21252562Y-125265165D01*
X21203140Y-125284399D01*
X21188946Y-125289895D01*
X21138642Y-125307504D01*
X21088121Y-125325217D01*
X21073859Y-125330195D01*
X21017747Y-125349499D01*
X20962913Y-125368088D01*
X20908398Y-125385093D01*
X20853244Y-125399644D01*
X20796493Y-125410872D01*
X20777055Y-125413726D01*
X20770998Y-125395408D01*
X20777727Y-125357724D01*
X20789619Y-125320486D01*
X20806161Y-125283661D01*
X20826838Y-125247213D01*
X20851135Y-125211109D01*
X20878537Y-125175314D01*
X20908531Y-125139794D01*
X20940600Y-125104515D01*
X20957258Y-125087662D01*
X20972401Y-125074473D01*
X20993369Y-125046013D01*
X20989058Y-125028311D01*
X20972401Y-125013656D01*
X20929731Y-124991347D01*
X20922429Y-124988743D01*
X20863818Y-124979381D01*
X20860342Y-124979218D01*
X20799829Y-124986230D01*
X20769484Y-124996071D01*
X20732118Y-125020068D01*
X20730112Y-125021716D01*
X20716483Y-125034173D01*
X20698311Y-125050293D01*
X20681654Y-125065680D01*
X20655686Y-125093135D01*
X20649854Y-125099385D01*
X20627158Y-125128226D01*
X20606243Y-125157203D01*
X20596853Y-125170460D01*
X20579694Y-125199979D01*
X20564315Y-125229792D01*
X20557481Y-125243733D01*
X20544218Y-125273781D01*
X20531893Y-125304395D01*
X20527195Y-125318471D01*
X20516808Y-125350998D01*
X20511421Y-125380902D01*
X20512380Y-125411431D01*
X20522441Y-125441894D01*
X20530223Y-125454759D01*
X20561626Y-125484373D01*
X20607447Y-125507359D01*
X20663250Y-125523852D01*
X20724599Y-125533985D01*
X20787056Y-125537893D01*
X20857223Y-125534554D01*
X20867914Y-125533161D01*
X20950729Y-125518923D01*
X21030700Y-125501254D01*
X21108095Y-125480624D01*
X21183185Y-125457504D01*
X21256238Y-125432365D01*
X21327525Y-125405678D01*
X21397314Y-125377914D01*
X21465875Y-125349544D01*
X21533478Y-125321038D01*
X21600392Y-125292868D01*
X21644752Y-125274508D01*
X21696191Y-125254232D01*
X21742588Y-125232731D01*
X21776132Y-125207385D01*
X21783318Y-125177870D01*
X21774983Y-125163866D01*
G37*
G36*
X21108688Y-124809958D02*
G01*
X21171242Y-124809793D01*
X21230966Y-124791487D01*
X21271892Y-124765506D01*
X21304354Y-124734859D01*
X21329309Y-124704125D01*
X21332805Y-124699316D01*
X21341891Y-124683928D01*
X21330202Y-124654454D01*
X21292460Y-124628968D01*
X21239985Y-124612849D01*
X21208632Y-124609923D01*
X21145518Y-124616804D01*
X21097044Y-124639770D01*
X21066683Y-124667811D01*
X21039501Y-124698350D01*
X21026916Y-124711039D01*
X21012435Y-124741230D01*
X21024644Y-124771215D01*
X21058432Y-124795841D01*
X21108688Y-124809958D01*
G37*
G36*
X22954269Y-124619448D02*
G01*
X23003085Y-124637766D01*
X23016520Y-124648437D01*
X23027900Y-124679623D01*
X23012170Y-124709574D01*
X22978856Y-124734487D01*
X22951598Y-124756468D01*
X22940746Y-124765844D01*
X22908886Y-124792951D01*
X22878911Y-124818750D01*
X22860814Y-124834235D01*
X22829538Y-124861726D01*
X22798846Y-124889558D01*
X22768833Y-124917548D01*
X22739595Y-124945512D01*
X22722559Y-124961725D01*
X22692747Y-124990124D01*
X22662934Y-125018595D01*
X22633121Y-125047184D01*
X22603308Y-125075938D01*
X22586266Y-125092457D01*
X22556336Y-125121506D01*
X22526107Y-125150692D01*
X22495389Y-125179970D01*
X22463992Y-125209295D01*
X22436734Y-125207096D01*
X22448760Y-125240480D01*
X22458550Y-125273992D01*
X22467559Y-125307419D01*
X22477242Y-125340545D01*
X22489055Y-125373155D01*
X22504452Y-125405036D01*
X22524889Y-125435973D01*
X22551821Y-125465750D01*
X22582225Y-125484607D01*
X22644194Y-125485533D01*
X22693574Y-125473254D01*
X22744123Y-125456772D01*
X22791082Y-125437173D01*
X22833729Y-125417103D01*
X22875784Y-125393202D01*
X22915255Y-125367564D01*
X22922034Y-125362739D01*
X22955023Y-125338133D01*
X22986903Y-125312830D01*
X23018228Y-125286964D01*
X23022705Y-125283149D01*
X23053057Y-125256922D01*
X23078461Y-125239036D01*
X23128772Y-125220286D01*
X23174117Y-125216779D01*
X23237268Y-125227657D01*
X23279827Y-125248689D01*
X23301403Y-125278904D01*
X23300501Y-125289281D01*
X23282648Y-125318573D01*
X23252945Y-125344849D01*
X23225862Y-125365648D01*
X23192373Y-125391744D01*
X23173584Y-125406113D01*
X23138088Y-125431654D01*
X23100436Y-125456694D01*
X23060628Y-125481137D01*
X23038180Y-125494121D01*
X22995537Y-125516954D01*
X22950019Y-125538679D01*
X22901626Y-125558806D01*
X22894777Y-125561270D01*
X22841594Y-125578986D01*
X22786539Y-125594710D01*
X22723556Y-125606152D01*
X22653206Y-125612368D01*
X22591935Y-125612574D01*
X22530810Y-125607416D01*
X22472222Y-125596106D01*
X22418563Y-125577857D01*
X22394452Y-125566324D01*
X22352974Y-125541115D01*
X22320014Y-125513687D01*
X22295005Y-125484803D01*
X22277377Y-125455228D01*
X22266564Y-125425726D01*
X22261765Y-125390116D01*
X22261813Y-125389702D01*
X22245777Y-125403429D01*
X22213458Y-125430856D01*
X22180675Y-125458262D01*
X22147292Y-125485610D01*
X22113176Y-125512864D01*
X22078192Y-125539987D01*
X22042204Y-125566943D01*
X22005079Y-125593697D01*
X21966681Y-125620212D01*
X21926875Y-125646451D01*
X21885527Y-125672379D01*
X21843662Y-125695068D01*
X21793367Y-125717190D01*
X21736862Y-125736599D01*
X21676363Y-125751147D01*
X21614091Y-125758689D01*
X21552261Y-125757078D01*
X21493094Y-125744166D01*
X21438807Y-125717808D01*
X21425068Y-125707950D01*
X21399022Y-125681443D01*
X21383200Y-125652880D01*
X21375559Y-125623016D01*
X21374052Y-125592605D01*
X21374786Y-125584017D01*
X21630653Y-125584017D01*
X21631839Y-125603385D01*
X21635635Y-125601183D01*
X21680408Y-125576655D01*
X21728640Y-125554257D01*
X21782554Y-125535359D01*
X21776497Y-125520704D01*
X21797697Y-125508248D01*
X21807805Y-125501125D01*
X21843126Y-125476008D01*
X21868452Y-125457669D01*
X21905610Y-125429934D01*
X21941817Y-125401968D01*
X21977125Y-125373819D01*
X22011587Y-125345533D01*
X22045256Y-125317157D01*
X22078184Y-125288740D01*
X22110423Y-125260327D01*
X22142025Y-125231967D01*
X22173044Y-125203705D01*
X22203531Y-125175589D01*
X22201260Y-125147768D01*
X22198988Y-125118436D01*
X22196717Y-125088005D01*
X22194445Y-125056887D01*
X22193242Y-125039639D01*
X22190847Y-125009683D01*
X22188167Y-124979858D01*
X22185296Y-124949981D01*
X22182331Y-124919867D01*
X22177975Y-124895581D01*
X22168702Y-124865645D01*
X22154699Y-124841253D01*
X22133873Y-124850258D01*
X22118381Y-124860821D01*
X22089958Y-124886894D01*
X22078602Y-124898006D01*
X22050271Y-124925671D01*
X22022134Y-124953239D01*
X21994329Y-124980793D01*
X21966996Y-125008418D01*
X21940273Y-125036197D01*
X21914299Y-125064214D01*
X21909485Y-125069577D01*
X21881179Y-125101931D01*
X21858373Y-125129130D01*
X21836316Y-125156543D01*
X21815042Y-125184170D01*
X21794586Y-125212012D01*
X21774983Y-125240069D01*
X21767672Y-125251344D01*
X21750030Y-125279612D01*
X21733324Y-125308011D01*
X21717589Y-125336558D01*
X21702859Y-125365269D01*
X21689169Y-125394161D01*
X21676553Y-125423251D01*
X21669100Y-125442921D01*
X21659118Y-125472210D01*
X21649295Y-125501653D01*
X21646269Y-125513227D01*
X21637816Y-125542433D01*
X21631124Y-125572728D01*
X21630653Y-125584017D01*
X21374786Y-125584017D01*
X21376635Y-125562401D01*
X21381263Y-125533161D01*
X21391776Y-125486752D01*
X21405596Y-125440681D01*
X21422552Y-125394960D01*
X21442474Y-125349601D01*
X21465191Y-125304615D01*
X21490533Y-125260015D01*
X21518327Y-125215811D01*
X21548405Y-125172017D01*
X21580594Y-125128644D01*
X21614724Y-125085703D01*
X21650624Y-125043206D01*
X21688123Y-125001165D01*
X21727051Y-124959593D01*
X21767237Y-124918500D01*
X21808509Y-124877899D01*
X21850698Y-124837801D01*
X21857915Y-124830989D01*
X21891850Y-124801571D01*
X21933496Y-124770991D01*
X21982320Y-124742332D01*
X22037790Y-124718678D01*
X22099374Y-124703109D01*
X22166538Y-124698710D01*
X22238751Y-124708563D01*
X22295904Y-124727159D01*
X22331459Y-124744331D01*
X22368497Y-124770187D01*
X22395326Y-124798617D01*
X22413739Y-124828737D01*
X22425529Y-124859662D01*
X22432487Y-124890507D01*
X22436407Y-124920389D01*
X22439558Y-124952921D01*
X22443750Y-124948899D01*
X22472085Y-124921301D01*
X22500473Y-124893519D01*
X22529107Y-124865645D01*
X22545146Y-124849951D01*
X22573845Y-124822374D01*
X22603263Y-124794731D01*
X22633307Y-124767114D01*
X22663880Y-124739616D01*
X22669877Y-124734524D01*
X22700774Y-124708923D01*
X22732779Y-124683375D01*
X22765339Y-124658283D01*
X22766195Y-124657656D01*
X22801682Y-124633370D01*
X22814672Y-124627703D01*
X22869826Y-124613586D01*
X22919798Y-124612854D01*
X22954269Y-124619448D01*
G37*
D11*
G36*
X10035345Y-3857739D02*
G01*
X10035345Y-2225219D01*
X10037578Y-2153704D01*
X10044275Y-2086802D01*
X10055438Y-2024515D01*
X10071066Y-1966841D01*
X10102879Y-1888981D01*
X10144739Y-1821503D01*
X10196646Y-1764406D01*
X10258599Y-1717690D01*
X10330598Y-1681356D01*
X10412643Y-1655403D01*
X10472922Y-1643868D01*
X10537665Y-1636947D01*
X10606874Y-1634640D01*
X12755234Y-1634640D01*
X12755234Y-2291165D01*
X10691870Y-2291165D01*
X10691870Y-3791793D01*
X12755234Y-3791793D01*
X12755234Y-4448318D01*
X10606874Y-4448318D01*
X10537665Y-4446011D01*
X10472922Y-4439090D01*
X10412643Y-4427555D01*
X10330598Y-4401602D01*
X10258599Y-4365268D01*
X10196646Y-4318552D01*
X10144739Y-4261455D01*
X10102879Y-4193976D01*
X10071066Y-4116117D01*
X10055438Y-4058443D01*
X10044275Y-3996156D01*
X10037578Y-3929254D01*
X10035345Y-3857739D01*
G37*
%LPC*%
%LPD*%
M02*
