G04 #@! TF.GenerationSoftware,KiCad,Pcbnew,7.0.10*
G04 #@! TF.CreationDate,2024-01-13T16:45:33+01:00*
G04 #@! TF.ProjectId,5hp_controller_oled,3568705f-636f-46e7-9472-6f6c6c65725f,rev?*
G04 #@! TF.SameCoordinates,Original*
G04 #@! TF.FileFunction,Legend,Bot*
G04 #@! TF.FilePolarity,Positive*
%FSLAX46Y46*%
G04 Gerber Fmt 4.6, Leading zero omitted, Abs format (unit mm)*
G04 Created by KiCad (PCBNEW 7.0.10) date 2024-01-13 16:45:33*
%MOMM*%
%LPD*%
G01*
G04 APERTURE LIST*
%ADD10C,0.150000*%
%ADD11C,0.100000*%
%ADD12C,0.120000*%
%ADD13R,1.700000X2.000000*%
%ADD14O,1.600000X2.000000*%
%ADD15O,2.000000X1.600000*%
%ADD16R,1.700000X1.700000*%
%ADD17R,2.000000X2.000000*%
%ADD18O,2.000000X3.400000*%
%ADD19R,1.600000X1.600000*%
%ADD20O,1.600000X1.600000*%
%ADD21O,1.700000X1.700000*%
%ADD22C,1.700000*%
%ADD23C,1.600000*%
%ADD24C,1.404000*%
G04 APERTURE END LIST*
D10*
X17450000Y-23100000D02*
X19081765Y-23344630D01*
X19675134Y-23433587D02*
X19675134Y-23433587D01*
X20268503Y-23522543D02*
X21900267Y-23767174D01*
X22493636Y-23856130D02*
X22493636Y-23856130D01*
X23087005Y-23945086D02*
X24718770Y-24189717D01*
X25312139Y-24278673D02*
X25312139Y-24278673D01*
X25905508Y-24367630D02*
X27537273Y-24612260D01*
X28130642Y-24701216D02*
X28130642Y-24701216D01*
X28724011Y-24790173D02*
X30355775Y-25034803D01*
X30949144Y-25123760D02*
X30949144Y-25123760D01*
X31542513Y-25212716D02*
X32625000Y-25374999D01*
X33962000Y49030000D02*
X33200000Y50300000D01*
X34724000Y50300000D01*
X33962000Y49030000D01*
G36*
X33962000Y49030000D02*
G01*
X33200000Y50300000D01*
X34724000Y50300000D01*
X33962000Y49030000D01*
G37*
X22850000Y21700000D02*
X22850000Y20050000D01*
X22850000Y19450000D02*
X22850000Y19450000D01*
X22850000Y18850000D02*
X22850000Y17200000D01*
X22850000Y16600000D02*
X22850000Y16600000D01*
X22850000Y16000000D02*
X22850000Y14350000D01*
X22850000Y13750000D02*
X22850000Y13750000D01*
X22850000Y13150000D02*
X22850000Y11600000D01*
X17600000Y-18000000D02*
X18880588Y-19040478D01*
X19346257Y-19418833D02*
X19346257Y-19418833D01*
X19811925Y-19797189D02*
X21092513Y-20837667D01*
X21558181Y-21216022D02*
X21558181Y-21216022D01*
X22023850Y-21594378D02*
X23304438Y-22634856D01*
X23770106Y-23013211D02*
X23770106Y-23013211D01*
X24235775Y-23391567D02*
X25516363Y-24432045D01*
X25982031Y-24810400D02*
X25982031Y-24810400D01*
X26447700Y-25188756D02*
X27728288Y-26229234D01*
X28193956Y-26607589D02*
X28193956Y-26607589D01*
X28659625Y-26985945D02*
X29940213Y-28026423D01*
X30405881Y-28404778D02*
X30405881Y-28404778D01*
X30871549Y-28783134D02*
X32152138Y-29823612D01*
X32617806Y-30201967D02*
X32617806Y-30201967D01*
X29425000Y26825000D02*
X29425000Y28475000D01*
X29425000Y29075000D02*
X29425000Y29075000D01*
X29425000Y29675000D02*
X29425000Y31325000D01*
X29425000Y31925000D02*
X29425000Y31925000D01*
X17550000Y-27900000D02*
X19034518Y-27179788D01*
X19574343Y-26917893D02*
X19574343Y-26917893D01*
X20114168Y-26655998D02*
X21598687Y-25935786D01*
X22138511Y-25673891D02*
X22138511Y-25673891D01*
X22678336Y-25411995D02*
X24162855Y-24691783D01*
X24702679Y-24429888D02*
X24702679Y-24429888D01*
X25242504Y-24167993D02*
X26727023Y-23447781D01*
X27266848Y-23185886D02*
X27266848Y-23185886D01*
X27806672Y-22923991D02*
X29291191Y-22203779D01*
X29831016Y-21941883D02*
X29831016Y-21941883D01*
X30370841Y-21679988D02*
X31855359Y-20959776D01*
X32395184Y-20697881D02*
X32395184Y-20697881D01*
X20100000Y-13000000D02*
X20100000Y-14650000D01*
X20100000Y-15250000D02*
X20100000Y-15250000D01*
X20100000Y-15850000D02*
X20100000Y-17500000D01*
X20100000Y-18100000D02*
X20100000Y-18100000D01*
X20100000Y-18700000D02*
X20100000Y-20350000D01*
X20100000Y-20950000D02*
X20100000Y-20950000D01*
X20100000Y-21550000D02*
X20100000Y-23200000D01*
X20100000Y-23800000D02*
X20100000Y-23800000D01*
X20100000Y-24400000D02*
X20100000Y-26050000D01*
X20100000Y-26650000D02*
X20100000Y-26650000D01*
X20100000Y-27250000D02*
X20100000Y-28900000D01*
X20100000Y-29500000D02*
X20100000Y-29500000D01*
X20100000Y-30100000D02*
X20100000Y-31750000D01*
X20100000Y-32350000D02*
X20100000Y-32350000D01*
X20100000Y-32950000D02*
X20100000Y-33100000D01*
X19775000Y34375000D02*
X21385213Y34735156D01*
X21970746Y34866122D02*
X21970746Y34866122D01*
X22556278Y34997088D02*
X24166491Y35357245D01*
X24752023Y35488210D02*
X24752023Y35488210D01*
X25337556Y35619176D02*
X26947769Y35979333D01*
X27533301Y36110299D02*
X27533301Y36110299D01*
X28118833Y36241265D02*
X29729047Y36601421D01*
X30314579Y36732387D02*
X30314579Y36732387D01*
X30900111Y36863353D02*
X31287499Y36950000D01*
X16002000Y-37592000D02*
X15240000Y-36322000D01*
X16764000Y-36322000D01*
X16002000Y-37592000D01*
G36*
X16002000Y-37592000D02*
G01*
X15240000Y-36322000D01*
X16764000Y-36322000D01*
X16002000Y-37592000D01*
G37*
X21425000Y-10050000D02*
X21425000Y-11700000D01*
X21425000Y-12300000D02*
X21425000Y-12300000D01*
X21425000Y-12900000D02*
X21425000Y-14550000D01*
X21425000Y-15150000D02*
X21425000Y-15150000D01*
X21425000Y-15750000D02*
X21425000Y-17400000D01*
X21425000Y-18000000D02*
X21425000Y-18000000D01*
X21425000Y-18600000D02*
X21425000Y-20250000D01*
X21425000Y-20850000D02*
X21425000Y-20850000D01*
X21425000Y-21450000D02*
X21425000Y-23100000D01*
X21425000Y-23700000D02*
X21425000Y-23700000D01*
X21425000Y-24300000D02*
X21425000Y-25950000D01*
X21425000Y-26550000D02*
X21425000Y-26550000D01*
X21425000Y-27150000D02*
X21425000Y-28800000D01*
X21425000Y-29400000D02*
X21425000Y-29400000D01*
X21425000Y-30000000D02*
X21425000Y-30150000D01*
X20650000Y26750000D02*
X20650000Y25100000D01*
X20650000Y24500000D02*
X20650000Y24500000D01*
X20650000Y23900000D02*
X20650000Y22250000D01*
X20650000Y21650000D02*
X20650000Y21650000D01*
X20650000Y21050000D02*
X20650000Y19400000D01*
X20650000Y18800000D02*
X20650000Y18800000D01*
X20650000Y18200000D02*
X20650000Y16650000D01*
X21750000Y24250000D02*
X21750000Y22600000D01*
X21750000Y22000000D02*
X21750000Y22000000D01*
X21750000Y21400000D02*
X21750000Y19750000D01*
X21750000Y19150000D02*
X21750000Y19150000D01*
X21750000Y18550000D02*
X21750000Y16900000D01*
X21750000Y16300000D02*
X21750000Y16300000D01*
X21750000Y15700000D02*
X21750000Y14150000D01*
X19675000Y31850000D02*
X21285136Y32210504D01*
X21870640Y32341596D02*
X21870640Y32341596D01*
X22456143Y32472689D02*
X24066279Y32833193D01*
X24651783Y32964285D02*
X24651783Y32964285D01*
X25237287Y33095377D02*
X26847423Y33455881D01*
X27432926Y33586974D02*
X27432926Y33586974D01*
X28018430Y33718066D02*
X29628566Y34078570D01*
X30214070Y34209663D02*
X30214070Y34209663D01*
X30799574Y34340755D02*
X31287499Y34450000D01*
X17600000Y-25300000D02*
X19230374Y-25046266D01*
X19823237Y-24954000D02*
X19823237Y-24954000D01*
X20416100Y-24861733D02*
X22046474Y-24607999D01*
X22639338Y-24515732D02*
X22639338Y-24515732D01*
X23232201Y-24423465D02*
X24862575Y-24169732D01*
X25455438Y-24077465D02*
X25455438Y-24077465D01*
X26048301Y-23985198D02*
X27678675Y-23731464D01*
X28271539Y-23639198D02*
X28271539Y-23639198D01*
X28864402Y-23546931D02*
X30494776Y-23293197D01*
X31087639Y-23200930D02*
X31087639Y-23200930D01*
X31680502Y-23108664D02*
X32700000Y-22950001D01*
X30425000Y29425000D02*
X30425000Y27775000D01*
X30425000Y27175000D02*
X30425000Y27175000D01*
X30425000Y26575000D02*
X30425000Y24925000D01*
X30425000Y24325000D02*
X30425000Y24325000D01*
X17500000Y-20550000D02*
X18988438Y-21262077D01*
X19529688Y-21521013D02*
X19529688Y-21521013D01*
X20070938Y-21779950D02*
X21559376Y-22492027D01*
X22100626Y-22750964D02*
X22100626Y-22750964D01*
X22641876Y-23009901D02*
X24130314Y-23721977D01*
X24671564Y-23980914D02*
X24671564Y-23980914D01*
X25212814Y-24239851D02*
X26701252Y-24951928D01*
X27242502Y-25210865D02*
X27242502Y-25210865D01*
X27783752Y-25469802D02*
X29272190Y-26181878D01*
X29813440Y-26440815D02*
X29813440Y-26440815D01*
X30354690Y-26699752D02*
X31843128Y-27411828D01*
X32384378Y-27670765D02*
X32384378Y-27670765D01*
X19650000Y37000000D02*
X21263500Y37345134D01*
X21850227Y37470637D02*
X21850227Y37470637D01*
X22436955Y37596140D02*
X24050455Y37941274D01*
X24637182Y38066777D02*
X24637182Y38066777D01*
X25223910Y38192280D02*
X26837410Y38537414D01*
X27424137Y38662917D02*
X27424137Y38662917D01*
X28010864Y38788420D02*
X29624365Y39133554D01*
X30211092Y39259057D02*
X30211092Y39259057D01*
X30797819Y39384560D02*
X31337500Y39500000D01*
X18900000Y29400000D02*
X18900000Y31050000D01*
X18900000Y31650000D02*
X18900000Y31650000D01*
X18900000Y32250000D02*
X18900000Y33900000D01*
X18900000Y34500000D02*
X18900000Y34500000D01*
X18900000Y35100000D02*
X18900000Y36750000D01*
X18900000Y37350000D02*
X18900000Y37350000D01*
X18900000Y37950000D02*
X18900000Y39500000D01*
X17600000Y-15500000D02*
X18677915Y-16749239D01*
X19069884Y-17203508D02*
X19069884Y-17203508D01*
X19461853Y-17657777D02*
X20539768Y-18907016D01*
X20931738Y-19361285D02*
X20931738Y-19361285D01*
X21323707Y-19815554D02*
X22401622Y-21064794D01*
X22793591Y-21519062D02*
X22793591Y-21519062D01*
X23185560Y-21973331D02*
X24263475Y-23222571D01*
X24655444Y-23676840D02*
X24655444Y-23676840D01*
X25047414Y-24131108D02*
X26125329Y-25380348D01*
X26517298Y-25834617D02*
X26517298Y-25834617D01*
X26909267Y-26288885D02*
X27987182Y-27538125D01*
X28379151Y-27992394D02*
X28379151Y-27992394D01*
X28771120Y-28446663D02*
X29849035Y-29695902D01*
X30241005Y-30150171D02*
X30241005Y-30150171D01*
X30632974Y-30604440D02*
X31710889Y-31853679D01*
X32102858Y-32307948D02*
X32102858Y-32307948D01*
X32494827Y-32762217D02*
X32699999Y-33000000D01*
X23950000Y18900000D02*
X23950000Y17250000D01*
X23950000Y16650000D02*
X23950000Y16650000D01*
X23950000Y16050000D02*
X23950000Y14400000D01*
X23950000Y13800000D02*
X23950000Y13800000D01*
X23950000Y13200000D02*
X23950000Y11550000D01*
X23950000Y10950000D02*
X23950000Y10950000D01*
X23950000Y10350000D02*
X23950000Y8800000D01*
D11*
X30857200Y30894924D02*
X30828628Y30980639D01*
X30828628Y30980639D02*
X30828628Y31123496D01*
X30828628Y31123496D02*
X30857200Y31180639D01*
X30857200Y31180639D02*
X30885771Y31209210D01*
X30885771Y31209210D02*
X30942914Y31237781D01*
X30942914Y31237781D02*
X31000057Y31237781D01*
X31000057Y31237781D02*
X31057200Y31209210D01*
X31057200Y31209210D02*
X31085771Y31180639D01*
X31085771Y31180639D02*
X31114342Y31123496D01*
X31114342Y31123496D02*
X31142914Y31009210D01*
X31142914Y31009210D02*
X31171485Y30952067D01*
X31171485Y30952067D02*
X31200057Y30923496D01*
X31200057Y30923496D02*
X31257200Y30894924D01*
X31257200Y30894924D02*
X31314342Y30894924D01*
X31314342Y30894924D02*
X31371485Y30923496D01*
X31371485Y30923496D02*
X31400057Y30952067D01*
X31400057Y30952067D02*
X31428628Y31009210D01*
X31428628Y31009210D02*
X31428628Y31152067D01*
X31428628Y31152067D02*
X31400057Y31237781D01*
X30885771Y31837782D02*
X30857200Y31809210D01*
X30857200Y31809210D02*
X30828628Y31723496D01*
X30828628Y31723496D02*
X30828628Y31666353D01*
X30828628Y31666353D02*
X30857200Y31580639D01*
X30857200Y31580639D02*
X30914342Y31523496D01*
X30914342Y31523496D02*
X30971485Y31494925D01*
X30971485Y31494925D02*
X31085771Y31466353D01*
X31085771Y31466353D02*
X31171485Y31466353D01*
X31171485Y31466353D02*
X31285771Y31494925D01*
X31285771Y31494925D02*
X31342914Y31523496D01*
X31342914Y31523496D02*
X31400057Y31580639D01*
X31400057Y31580639D02*
X31428628Y31666353D01*
X31428628Y31666353D02*
X31428628Y31723496D01*
X31428628Y31723496D02*
X31400057Y31809210D01*
X31400057Y31809210D02*
X31371485Y31837782D01*
X30828628Y32380639D02*
X30828628Y32094925D01*
X30828628Y32094925D02*
X31428628Y32094925D01*
X31371485Y32552067D02*
X31400057Y32580639D01*
X31400057Y32580639D02*
X31428628Y32637782D01*
X31428628Y32637782D02*
X31428628Y32780639D01*
X31428628Y32780639D02*
X31400057Y32837782D01*
X31400057Y32837782D02*
X31371485Y32866353D01*
X31371485Y32866353D02*
X31314342Y32894924D01*
X31314342Y32894924D02*
X31257200Y32894924D01*
X31257200Y32894924D02*
X31171485Y32866353D01*
X31171485Y32866353D02*
X30828628Y32523496D01*
X30828628Y32523496D02*
X30828628Y32894924D01*
X21037217Y30903628D02*
X21322931Y30903628D01*
X21322931Y30903628D02*
X21322931Y31503628D01*
X20837217Y31217914D02*
X20637217Y31217914D01*
X20551503Y30903628D02*
X20837217Y30903628D01*
X20837217Y30903628D02*
X20837217Y31503628D01*
X20837217Y31503628D02*
X20551503Y31503628D01*
X20294360Y30903628D02*
X20294360Y31503628D01*
X20294360Y31503628D02*
X20151503Y31503628D01*
X20151503Y31503628D02*
X20065789Y31475057D01*
X20065789Y31475057D02*
X20008646Y31417914D01*
X20008646Y31417914D02*
X19980075Y31360771D01*
X19980075Y31360771D02*
X19951503Y31246485D01*
X19951503Y31246485D02*
X19951503Y31160771D01*
X19951503Y31160771D02*
X19980075Y31046485D01*
X19980075Y31046485D02*
X20008646Y30989342D01*
X20008646Y30989342D02*
X20065789Y30932200D01*
X20065789Y30932200D02*
X20151503Y30903628D01*
X20151503Y30903628D02*
X20294360Y30903628D01*
X19722932Y31446485D02*
X19694360Y31475057D01*
X19694360Y31475057D02*
X19637218Y31503628D01*
X19637218Y31503628D02*
X19494360Y31503628D01*
X19494360Y31503628D02*
X19437218Y31475057D01*
X19437218Y31475057D02*
X19408646Y31446485D01*
X19408646Y31446485D02*
X19380075Y31389342D01*
X19380075Y31389342D02*
X19380075Y31332200D01*
X19380075Y31332200D02*
X19408646Y31246485D01*
X19408646Y31246485D02*
X19751503Y30903628D01*
X19751503Y30903628D02*
X19380075Y30903628D01*
X32369361Y-20267800D02*
X32283647Y-20296371D01*
X32283647Y-20296371D02*
X32140789Y-20296371D01*
X32140789Y-20296371D02*
X32083647Y-20267800D01*
X32083647Y-20267800D02*
X32055075Y-20239228D01*
X32055075Y-20239228D02*
X32026504Y-20182085D01*
X32026504Y-20182085D02*
X32026504Y-20124942D01*
X32026504Y-20124942D02*
X32055075Y-20067800D01*
X32055075Y-20067800D02*
X32083647Y-20039228D01*
X32083647Y-20039228D02*
X32140789Y-20010657D01*
X32140789Y-20010657D02*
X32255075Y-19982085D01*
X32255075Y-19982085D02*
X32312218Y-19953514D01*
X32312218Y-19953514D02*
X32340789Y-19924942D01*
X32340789Y-19924942D02*
X32369361Y-19867800D01*
X32369361Y-19867800D02*
X32369361Y-19810657D01*
X32369361Y-19810657D02*
X32340789Y-19753514D01*
X32340789Y-19753514D02*
X32312218Y-19724942D01*
X32312218Y-19724942D02*
X32255075Y-19696371D01*
X32255075Y-19696371D02*
X32112218Y-19696371D01*
X32112218Y-19696371D02*
X32026504Y-19724942D01*
X31769360Y-20296371D02*
X31769360Y-19696371D01*
X31769360Y-19696371D02*
X31626503Y-19696371D01*
X31626503Y-19696371D02*
X31540789Y-19724942D01*
X31540789Y-19724942D02*
X31483646Y-19782085D01*
X31483646Y-19782085D02*
X31455075Y-19839228D01*
X31455075Y-19839228D02*
X31426503Y-19953514D01*
X31426503Y-19953514D02*
X31426503Y-20039228D01*
X31426503Y-20039228D02*
X31455075Y-20153514D01*
X31455075Y-20153514D02*
X31483646Y-20210657D01*
X31483646Y-20210657D02*
X31540789Y-20267800D01*
X31540789Y-20267800D02*
X31626503Y-20296371D01*
X31626503Y-20296371D02*
X31769360Y-20296371D01*
X31055075Y-19696371D02*
X30997932Y-19696371D01*
X30997932Y-19696371D02*
X30940789Y-19724942D01*
X30940789Y-19724942D02*
X30912218Y-19753514D01*
X30912218Y-19753514D02*
X30883646Y-19810657D01*
X30883646Y-19810657D02*
X30855075Y-19924942D01*
X30855075Y-19924942D02*
X30855075Y-20067800D01*
X30855075Y-20067800D02*
X30883646Y-20182085D01*
X30883646Y-20182085D02*
X30912218Y-20239228D01*
X30912218Y-20239228D02*
X30940789Y-20267800D01*
X30940789Y-20267800D02*
X30997932Y-20296371D01*
X30997932Y-20296371D02*
X31055075Y-20296371D01*
X31055075Y-20296371D02*
X31112218Y-20267800D01*
X31112218Y-20267800D02*
X31140789Y-20239228D01*
X31140789Y-20239228D02*
X31169360Y-20182085D01*
X31169360Y-20182085D02*
X31197932Y-20067800D01*
X31197932Y-20067800D02*
X31197932Y-19924942D01*
X31197932Y-19924942D02*
X31169360Y-19810657D01*
X31169360Y-19810657D02*
X31140789Y-19753514D01*
X31140789Y-19753514D02*
X31112218Y-19724942D01*
X31112218Y-19724942D02*
X31055075Y-19696371D01*
X17732200Y-13519361D02*
X17703628Y-13433647D01*
X17703628Y-13433647D02*
X17703628Y-13290789D01*
X17703628Y-13290789D02*
X17732200Y-13233647D01*
X17732200Y-13233647D02*
X17760771Y-13205075D01*
X17760771Y-13205075D02*
X17817914Y-13176504D01*
X17817914Y-13176504D02*
X17875057Y-13176504D01*
X17875057Y-13176504D02*
X17932200Y-13205075D01*
X17932200Y-13205075D02*
X17960771Y-13233647D01*
X17960771Y-13233647D02*
X17989342Y-13290789D01*
X17989342Y-13290789D02*
X18017914Y-13405075D01*
X18017914Y-13405075D02*
X18046485Y-13462218D01*
X18046485Y-13462218D02*
X18075057Y-13490789D01*
X18075057Y-13490789D02*
X18132200Y-13519361D01*
X18132200Y-13519361D02*
X18189342Y-13519361D01*
X18189342Y-13519361D02*
X18246485Y-13490789D01*
X18246485Y-13490789D02*
X18275057Y-13462218D01*
X18275057Y-13462218D02*
X18303628Y-13405075D01*
X18303628Y-13405075D02*
X18303628Y-13262218D01*
X18303628Y-13262218D02*
X18275057Y-13176504D01*
X17703628Y-12919360D02*
X18303628Y-12919360D01*
X18303628Y-12919360D02*
X18303628Y-12776503D01*
X18303628Y-12776503D02*
X18275057Y-12690789D01*
X18275057Y-12690789D02*
X18217914Y-12633646D01*
X18217914Y-12633646D02*
X18160771Y-12605075D01*
X18160771Y-12605075D02*
X18046485Y-12576503D01*
X18046485Y-12576503D02*
X17960771Y-12576503D01*
X17960771Y-12576503D02*
X17846485Y-12605075D01*
X17846485Y-12605075D02*
X17789342Y-12633646D01*
X17789342Y-12633646D02*
X17732200Y-12690789D01*
X17732200Y-12690789D02*
X17703628Y-12776503D01*
X17703628Y-12776503D02*
X17703628Y-12919360D01*
X18303628Y-12376503D02*
X18303628Y-11976503D01*
X18303628Y-11976503D02*
X17703628Y-12233646D01*
X19119361Y-26142800D02*
X19033647Y-26171371D01*
X19033647Y-26171371D02*
X18890789Y-26171371D01*
X18890789Y-26171371D02*
X18833647Y-26142800D01*
X18833647Y-26142800D02*
X18805075Y-26114228D01*
X18805075Y-26114228D02*
X18776504Y-26057085D01*
X18776504Y-26057085D02*
X18776504Y-25999942D01*
X18776504Y-25999942D02*
X18805075Y-25942800D01*
X18805075Y-25942800D02*
X18833647Y-25914228D01*
X18833647Y-25914228D02*
X18890789Y-25885657D01*
X18890789Y-25885657D02*
X19005075Y-25857085D01*
X19005075Y-25857085D02*
X19062218Y-25828514D01*
X19062218Y-25828514D02*
X19090789Y-25799942D01*
X19090789Y-25799942D02*
X19119361Y-25742800D01*
X19119361Y-25742800D02*
X19119361Y-25685657D01*
X19119361Y-25685657D02*
X19090789Y-25628514D01*
X19090789Y-25628514D02*
X19062218Y-25599942D01*
X19062218Y-25599942D02*
X19005075Y-25571371D01*
X19005075Y-25571371D02*
X18862218Y-25571371D01*
X18862218Y-25571371D02*
X18776504Y-25599942D01*
X18176503Y-26114228D02*
X18205075Y-26142800D01*
X18205075Y-26142800D02*
X18290789Y-26171371D01*
X18290789Y-26171371D02*
X18347932Y-26171371D01*
X18347932Y-26171371D02*
X18433646Y-26142800D01*
X18433646Y-26142800D02*
X18490789Y-26085657D01*
X18490789Y-26085657D02*
X18519360Y-26028514D01*
X18519360Y-26028514D02*
X18547932Y-25914228D01*
X18547932Y-25914228D02*
X18547932Y-25828514D01*
X18547932Y-25828514D02*
X18519360Y-25714228D01*
X18519360Y-25714228D02*
X18490789Y-25657085D01*
X18490789Y-25657085D02*
X18433646Y-25599942D01*
X18433646Y-25599942D02*
X18347932Y-25571371D01*
X18347932Y-25571371D02*
X18290789Y-25571371D01*
X18290789Y-25571371D02*
X18205075Y-25599942D01*
X18205075Y-25599942D02*
X18176503Y-25628514D01*
X17662218Y-25771371D02*
X17662218Y-26171371D01*
X17805075Y-25542800D02*
X17947932Y-25971371D01*
X17947932Y-25971371D02*
X17576503Y-25971371D01*
X21062217Y33303628D02*
X21347931Y33303628D01*
X21347931Y33303628D02*
X21347931Y33903628D01*
X20862217Y33617914D02*
X20662217Y33617914D01*
X20576503Y33303628D02*
X20862217Y33303628D01*
X20862217Y33303628D02*
X20862217Y33903628D01*
X20862217Y33903628D02*
X20576503Y33903628D01*
X20319360Y33303628D02*
X20319360Y33903628D01*
X20319360Y33903628D02*
X20176503Y33903628D01*
X20176503Y33903628D02*
X20090789Y33875057D01*
X20090789Y33875057D02*
X20033646Y33817914D01*
X20033646Y33817914D02*
X20005075Y33760771D01*
X20005075Y33760771D02*
X19976503Y33646485D01*
X19976503Y33646485D02*
X19976503Y33560771D01*
X19976503Y33560771D02*
X20005075Y33446485D01*
X20005075Y33446485D02*
X20033646Y33389342D01*
X20033646Y33389342D02*
X20090789Y33332200D01*
X20090789Y33332200D02*
X20176503Y33303628D01*
X20176503Y33303628D02*
X20319360Y33303628D01*
X19776503Y33903628D02*
X19405075Y33903628D01*
X19405075Y33903628D02*
X19605075Y33675057D01*
X19605075Y33675057D02*
X19519360Y33675057D01*
X19519360Y33675057D02*
X19462218Y33646485D01*
X19462218Y33646485D02*
X19433646Y33617914D01*
X19433646Y33617914D02*
X19405075Y33560771D01*
X19405075Y33560771D02*
X19405075Y33417914D01*
X19405075Y33417914D02*
X19433646Y33360771D01*
X19433646Y33360771D02*
X19462218Y33332200D01*
X19462218Y33332200D02*
X19519360Y33303628D01*
X19519360Y33303628D02*
X19690789Y33303628D01*
X19690789Y33303628D02*
X19747932Y33332200D01*
X19747932Y33332200D02*
X19776503Y33360771D01*
X32394361Y-22667800D02*
X32308647Y-22696371D01*
X32308647Y-22696371D02*
X32165789Y-22696371D01*
X32165789Y-22696371D02*
X32108647Y-22667800D01*
X32108647Y-22667800D02*
X32080075Y-22639228D01*
X32080075Y-22639228D02*
X32051504Y-22582085D01*
X32051504Y-22582085D02*
X32051504Y-22524942D01*
X32051504Y-22524942D02*
X32080075Y-22467800D01*
X32080075Y-22467800D02*
X32108647Y-22439228D01*
X32108647Y-22439228D02*
X32165789Y-22410657D01*
X32165789Y-22410657D02*
X32280075Y-22382085D01*
X32280075Y-22382085D02*
X32337218Y-22353514D01*
X32337218Y-22353514D02*
X32365789Y-22324942D01*
X32365789Y-22324942D02*
X32394361Y-22267800D01*
X32394361Y-22267800D02*
X32394361Y-22210657D01*
X32394361Y-22210657D02*
X32365789Y-22153514D01*
X32365789Y-22153514D02*
X32337218Y-22124942D01*
X32337218Y-22124942D02*
X32280075Y-22096371D01*
X32280075Y-22096371D02*
X32137218Y-22096371D01*
X32137218Y-22096371D02*
X32051504Y-22124942D01*
X31451503Y-22639228D02*
X31480075Y-22667800D01*
X31480075Y-22667800D02*
X31565789Y-22696371D01*
X31565789Y-22696371D02*
X31622932Y-22696371D01*
X31622932Y-22696371D02*
X31708646Y-22667800D01*
X31708646Y-22667800D02*
X31765789Y-22610657D01*
X31765789Y-22610657D02*
X31794360Y-22553514D01*
X31794360Y-22553514D02*
X31822932Y-22439228D01*
X31822932Y-22439228D02*
X31822932Y-22353514D01*
X31822932Y-22353514D02*
X31794360Y-22239228D01*
X31794360Y-22239228D02*
X31765789Y-22182085D01*
X31765789Y-22182085D02*
X31708646Y-22124942D01*
X31708646Y-22124942D02*
X31622932Y-22096371D01*
X31622932Y-22096371D02*
X31565789Y-22096371D01*
X31565789Y-22096371D02*
X31480075Y-22124942D01*
X31480075Y-22124942D02*
X31451503Y-22153514D01*
X31080075Y-22096371D02*
X31022932Y-22096371D01*
X31022932Y-22096371D02*
X30965789Y-22124942D01*
X30965789Y-22124942D02*
X30937218Y-22153514D01*
X30937218Y-22153514D02*
X30908646Y-22210657D01*
X30908646Y-22210657D02*
X30880075Y-22324942D01*
X30880075Y-22324942D02*
X30880075Y-22467800D01*
X30880075Y-22467800D02*
X30908646Y-22582085D01*
X30908646Y-22582085D02*
X30937218Y-22639228D01*
X30937218Y-22639228D02*
X30965789Y-22667800D01*
X30965789Y-22667800D02*
X31022932Y-22696371D01*
X31022932Y-22696371D02*
X31080075Y-22696371D01*
X31080075Y-22696371D02*
X31137218Y-22667800D01*
X31137218Y-22667800D02*
X31165789Y-22639228D01*
X31165789Y-22639228D02*
X31194360Y-22582085D01*
X31194360Y-22582085D02*
X31222932Y-22467800D01*
X31222932Y-22467800D02*
X31222932Y-22324942D01*
X31222932Y-22324942D02*
X31194360Y-22210657D01*
X31194360Y-22210657D02*
X31165789Y-22153514D01*
X31165789Y-22153514D02*
X31137218Y-22124942D01*
X31137218Y-22124942D02*
X31080075Y-22096371D01*
X19042914Y10744925D02*
X19014342Y10830639D01*
X19014342Y10830639D02*
X18985771Y10859210D01*
X18985771Y10859210D02*
X18928628Y10887782D01*
X18928628Y10887782D02*
X18842914Y10887782D01*
X18842914Y10887782D02*
X18785771Y10859210D01*
X18785771Y10859210D02*
X18757200Y10830639D01*
X18757200Y10830639D02*
X18728628Y10773496D01*
X18728628Y10773496D02*
X18728628Y10544925D01*
X18728628Y10544925D02*
X19328628Y10544925D01*
X19328628Y10544925D02*
X19328628Y10744925D01*
X19328628Y10744925D02*
X19300057Y10802068D01*
X19300057Y10802068D02*
X19271485Y10830639D01*
X19271485Y10830639D02*
X19214342Y10859210D01*
X19214342Y10859210D02*
X19157200Y10859210D01*
X19157200Y10859210D02*
X19100057Y10830639D01*
X19100057Y10830639D02*
X19071485Y10802068D01*
X19071485Y10802068D02*
X19042914Y10744925D01*
X19042914Y10744925D02*
X19042914Y10544925D01*
X19328628Y11059210D02*
X19328628Y11402068D01*
X18728628Y11230639D02*
X19328628Y11230639D01*
X18728628Y11602068D02*
X19328628Y11602068D01*
X19328628Y11602068D02*
X18728628Y11944925D01*
X18728628Y11944925D02*
X19328628Y11944925D01*
X19271485Y12202067D02*
X19300057Y12230639D01*
X19300057Y12230639D02*
X19328628Y12287782D01*
X19328628Y12287782D02*
X19328628Y12430639D01*
X19328628Y12430639D02*
X19300057Y12487782D01*
X19300057Y12487782D02*
X19271485Y12516353D01*
X19271485Y12516353D02*
X19214342Y12544924D01*
X19214342Y12544924D02*
X19157200Y12544924D01*
X19157200Y12544924D02*
X19071485Y12516353D01*
X19071485Y12516353D02*
X18728628Y12173496D01*
X18728628Y12173496D02*
X18728628Y12544924D01*
X19194361Y-17567800D02*
X19108647Y-17596371D01*
X19108647Y-17596371D02*
X18965789Y-17596371D01*
X18965789Y-17596371D02*
X18908647Y-17567800D01*
X18908647Y-17567800D02*
X18880075Y-17539228D01*
X18880075Y-17539228D02*
X18851504Y-17482085D01*
X18851504Y-17482085D02*
X18851504Y-17424942D01*
X18851504Y-17424942D02*
X18880075Y-17367800D01*
X18880075Y-17367800D02*
X18908647Y-17339228D01*
X18908647Y-17339228D02*
X18965789Y-17310657D01*
X18965789Y-17310657D02*
X19080075Y-17282085D01*
X19080075Y-17282085D02*
X19137218Y-17253514D01*
X19137218Y-17253514D02*
X19165789Y-17224942D01*
X19165789Y-17224942D02*
X19194361Y-17167800D01*
X19194361Y-17167800D02*
X19194361Y-17110657D01*
X19194361Y-17110657D02*
X19165789Y-17053514D01*
X19165789Y-17053514D02*
X19137218Y-17024942D01*
X19137218Y-17024942D02*
X19080075Y-16996371D01*
X19080075Y-16996371D02*
X18937218Y-16996371D01*
X18937218Y-16996371D02*
X18851504Y-17024942D01*
X18594360Y-17596371D02*
X18594360Y-16996371D01*
X18594360Y-16996371D02*
X18451503Y-16996371D01*
X18451503Y-16996371D02*
X18365789Y-17024942D01*
X18365789Y-17024942D02*
X18308646Y-17082085D01*
X18308646Y-17082085D02*
X18280075Y-17139228D01*
X18280075Y-17139228D02*
X18251503Y-17253514D01*
X18251503Y-17253514D02*
X18251503Y-17339228D01*
X18251503Y-17339228D02*
X18280075Y-17453514D01*
X18280075Y-17453514D02*
X18308646Y-17510657D01*
X18308646Y-17510657D02*
X18365789Y-17567800D01*
X18365789Y-17567800D02*
X18451503Y-17596371D01*
X18451503Y-17596371D02*
X18594360Y-17596371D01*
X17737218Y-16996371D02*
X17851503Y-16996371D01*
X17851503Y-16996371D02*
X17908646Y-17024942D01*
X17908646Y-17024942D02*
X17937218Y-17053514D01*
X17937218Y-17053514D02*
X17994360Y-17139228D01*
X17994360Y-17139228D02*
X18022932Y-17253514D01*
X18022932Y-17253514D02*
X18022932Y-17482085D01*
X18022932Y-17482085D02*
X17994360Y-17539228D01*
X17994360Y-17539228D02*
X17965789Y-17567800D01*
X17965789Y-17567800D02*
X17908646Y-17596371D01*
X17908646Y-17596371D02*
X17794360Y-17596371D01*
X17794360Y-17596371D02*
X17737218Y-17567800D01*
X17737218Y-17567800D02*
X17708646Y-17539228D01*
X17708646Y-17539228D02*
X17680075Y-17482085D01*
X17680075Y-17482085D02*
X17680075Y-17339228D01*
X17680075Y-17339228D02*
X17708646Y-17282085D01*
X17708646Y-17282085D02*
X17737218Y-17253514D01*
X17737218Y-17253514D02*
X17794360Y-17224942D01*
X17794360Y-17224942D02*
X17908646Y-17224942D01*
X17908646Y-17224942D02*
X17965789Y-17253514D01*
X17965789Y-17253514D02*
X17994360Y-17282085D01*
X17994360Y-17282085D02*
X18022932Y-17339228D01*
X19117914Y25844925D02*
X19089342Y25930639D01*
X19089342Y25930639D02*
X19060771Y25959210D01*
X19060771Y25959210D02*
X19003628Y25987782D01*
X19003628Y25987782D02*
X18917914Y25987782D01*
X18917914Y25987782D02*
X18860771Y25959210D01*
X18860771Y25959210D02*
X18832200Y25930639D01*
X18832200Y25930639D02*
X18803628Y25873496D01*
X18803628Y25873496D02*
X18803628Y25644925D01*
X18803628Y25644925D02*
X19403628Y25644925D01*
X19403628Y25644925D02*
X19403628Y25844925D01*
X19403628Y25844925D02*
X19375057Y25902068D01*
X19375057Y25902068D02*
X19346485Y25930639D01*
X19346485Y25930639D02*
X19289342Y25959210D01*
X19289342Y25959210D02*
X19232200Y25959210D01*
X19232200Y25959210D02*
X19175057Y25930639D01*
X19175057Y25930639D02*
X19146485Y25902068D01*
X19146485Y25902068D02*
X19117914Y25844925D01*
X19117914Y25844925D02*
X19117914Y25644925D01*
X19403628Y26159210D02*
X19403628Y26502068D01*
X18803628Y26330639D02*
X19403628Y26330639D01*
X18803628Y26702068D02*
X19403628Y26702068D01*
X19403628Y26702068D02*
X18803628Y27044925D01*
X18803628Y27044925D02*
X19403628Y27044925D01*
X19146485Y27416353D02*
X19175057Y27359210D01*
X19175057Y27359210D02*
X19203628Y27330639D01*
X19203628Y27330639D02*
X19260771Y27302067D01*
X19260771Y27302067D02*
X19289342Y27302067D01*
X19289342Y27302067D02*
X19346485Y27330639D01*
X19346485Y27330639D02*
X19375057Y27359210D01*
X19375057Y27359210D02*
X19403628Y27416353D01*
X19403628Y27416353D02*
X19403628Y27530639D01*
X19403628Y27530639D02*
X19375057Y27587782D01*
X19375057Y27587782D02*
X19346485Y27616353D01*
X19346485Y27616353D02*
X19289342Y27644924D01*
X19289342Y27644924D02*
X19260771Y27644924D01*
X19260771Y27644924D02*
X19203628Y27616353D01*
X19203628Y27616353D02*
X19175057Y27587782D01*
X19175057Y27587782D02*
X19146485Y27530639D01*
X19146485Y27530639D02*
X19146485Y27416353D01*
X19146485Y27416353D02*
X19117914Y27359210D01*
X19117914Y27359210D02*
X19089342Y27330639D01*
X19089342Y27330639D02*
X19032200Y27302067D01*
X19032200Y27302067D02*
X18917914Y27302067D01*
X18917914Y27302067D02*
X18860771Y27330639D01*
X18860771Y27330639D02*
X18832200Y27359210D01*
X18832200Y27359210D02*
X18803628Y27416353D01*
X18803628Y27416353D02*
X18803628Y27530639D01*
X18803628Y27530639D02*
X18832200Y27587782D01*
X18832200Y27587782D02*
X18860771Y27616353D01*
X18860771Y27616353D02*
X18917914Y27644924D01*
X18917914Y27644924D02*
X19032200Y27644924D01*
X19032200Y27644924D02*
X19089342Y27616353D01*
X19089342Y27616353D02*
X19117914Y27587782D01*
X19117914Y27587782D02*
X19146485Y27530639D01*
X32394361Y-26092800D02*
X32308647Y-26121371D01*
X32308647Y-26121371D02*
X32165789Y-26121371D01*
X32165789Y-26121371D02*
X32108647Y-26092800D01*
X32108647Y-26092800D02*
X32080075Y-26064228D01*
X32080075Y-26064228D02*
X32051504Y-26007085D01*
X32051504Y-26007085D02*
X32051504Y-25949942D01*
X32051504Y-25949942D02*
X32080075Y-25892800D01*
X32080075Y-25892800D02*
X32108647Y-25864228D01*
X32108647Y-25864228D02*
X32165789Y-25835657D01*
X32165789Y-25835657D02*
X32280075Y-25807085D01*
X32280075Y-25807085D02*
X32337218Y-25778514D01*
X32337218Y-25778514D02*
X32365789Y-25749942D01*
X32365789Y-25749942D02*
X32394361Y-25692800D01*
X32394361Y-25692800D02*
X32394361Y-25635657D01*
X32394361Y-25635657D02*
X32365789Y-25578514D01*
X32365789Y-25578514D02*
X32337218Y-25549942D01*
X32337218Y-25549942D02*
X32280075Y-25521371D01*
X32280075Y-25521371D02*
X32137218Y-25521371D01*
X32137218Y-25521371D02*
X32051504Y-25549942D01*
X31794360Y-26121371D02*
X31794360Y-25521371D01*
X31794360Y-25521371D02*
X31651503Y-25521371D01*
X31651503Y-25521371D02*
X31565789Y-25549942D01*
X31565789Y-25549942D02*
X31508646Y-25607085D01*
X31508646Y-25607085D02*
X31480075Y-25664228D01*
X31480075Y-25664228D02*
X31451503Y-25778514D01*
X31451503Y-25778514D02*
X31451503Y-25864228D01*
X31451503Y-25864228D02*
X31480075Y-25978514D01*
X31480075Y-25978514D02*
X31508646Y-26035657D01*
X31508646Y-26035657D02*
X31565789Y-26092800D01*
X31565789Y-26092800D02*
X31651503Y-26121371D01*
X31651503Y-26121371D02*
X31794360Y-26121371D01*
X30880075Y-26121371D02*
X31222932Y-26121371D01*
X31051503Y-26121371D02*
X31051503Y-25521371D01*
X31051503Y-25521371D02*
X31108646Y-25607085D01*
X31108646Y-25607085D02*
X31165789Y-25664228D01*
X31165789Y-25664228D02*
X31222932Y-25692800D01*
X19092914Y15819925D02*
X19064342Y15905639D01*
X19064342Y15905639D02*
X19035771Y15934210D01*
X19035771Y15934210D02*
X18978628Y15962782D01*
X18978628Y15962782D02*
X18892914Y15962782D01*
X18892914Y15962782D02*
X18835771Y15934210D01*
X18835771Y15934210D02*
X18807200Y15905639D01*
X18807200Y15905639D02*
X18778628Y15848496D01*
X18778628Y15848496D02*
X18778628Y15619925D01*
X18778628Y15619925D02*
X19378628Y15619925D01*
X19378628Y15619925D02*
X19378628Y15819925D01*
X19378628Y15819925D02*
X19350057Y15877068D01*
X19350057Y15877068D02*
X19321485Y15905639D01*
X19321485Y15905639D02*
X19264342Y15934210D01*
X19264342Y15934210D02*
X19207200Y15934210D01*
X19207200Y15934210D02*
X19150057Y15905639D01*
X19150057Y15905639D02*
X19121485Y15877068D01*
X19121485Y15877068D02*
X19092914Y15819925D01*
X19092914Y15819925D02*
X19092914Y15619925D01*
X19378628Y16134210D02*
X19378628Y16477068D01*
X18778628Y16305639D02*
X19378628Y16305639D01*
X18778628Y16677068D02*
X19378628Y16677068D01*
X19378628Y16677068D02*
X18778628Y17019925D01*
X18778628Y17019925D02*
X19378628Y17019925D01*
X19178628Y17562782D02*
X18778628Y17562782D01*
X19407200Y17419924D02*
X18978628Y17277067D01*
X18978628Y17277067D02*
X18978628Y17648496D01*
X19067914Y20944925D02*
X19039342Y21030639D01*
X19039342Y21030639D02*
X19010771Y21059210D01*
X19010771Y21059210D02*
X18953628Y21087782D01*
X18953628Y21087782D02*
X18867914Y21087782D01*
X18867914Y21087782D02*
X18810771Y21059210D01*
X18810771Y21059210D02*
X18782200Y21030639D01*
X18782200Y21030639D02*
X18753628Y20973496D01*
X18753628Y20973496D02*
X18753628Y20744925D01*
X18753628Y20744925D02*
X19353628Y20744925D01*
X19353628Y20744925D02*
X19353628Y20944925D01*
X19353628Y20944925D02*
X19325057Y21002068D01*
X19325057Y21002068D02*
X19296485Y21030639D01*
X19296485Y21030639D02*
X19239342Y21059210D01*
X19239342Y21059210D02*
X19182200Y21059210D01*
X19182200Y21059210D02*
X19125057Y21030639D01*
X19125057Y21030639D02*
X19096485Y21002068D01*
X19096485Y21002068D02*
X19067914Y20944925D01*
X19067914Y20944925D02*
X19067914Y20744925D01*
X19353628Y21259210D02*
X19353628Y21602068D01*
X18753628Y21430639D02*
X19353628Y21430639D01*
X18753628Y21802068D02*
X19353628Y21802068D01*
X19353628Y21802068D02*
X18753628Y22144925D01*
X18753628Y22144925D02*
X19353628Y22144925D01*
X19353628Y22687782D02*
X19353628Y22573496D01*
X19353628Y22573496D02*
X19325057Y22516353D01*
X19325057Y22516353D02*
X19296485Y22487782D01*
X19296485Y22487782D02*
X19210771Y22430639D01*
X19210771Y22430639D02*
X19096485Y22402067D01*
X19096485Y22402067D02*
X18867914Y22402067D01*
X18867914Y22402067D02*
X18810771Y22430639D01*
X18810771Y22430639D02*
X18782200Y22459210D01*
X18782200Y22459210D02*
X18753628Y22516353D01*
X18753628Y22516353D02*
X18753628Y22630639D01*
X18753628Y22630639D02*
X18782200Y22687782D01*
X18782200Y22687782D02*
X18810771Y22716353D01*
X18810771Y22716353D02*
X18867914Y22744924D01*
X18867914Y22744924D02*
X19010771Y22744924D01*
X19010771Y22744924D02*
X19067914Y22716353D01*
X19067914Y22716353D02*
X19096485Y22687782D01*
X19096485Y22687782D02*
X19125057Y22630639D01*
X19125057Y22630639D02*
X19125057Y22516353D01*
X19125057Y22516353D02*
X19096485Y22459210D01*
X19096485Y22459210D02*
X19067914Y22430639D01*
X19067914Y22430639D02*
X19010771Y22402067D01*
X36597009Y-42709523D02*
X36635104Y-42785713D01*
X36635104Y-42785713D02*
X36635104Y-42899999D01*
X36635104Y-42899999D02*
X36597009Y-43014285D01*
X36597009Y-43014285D02*
X36520819Y-43090475D01*
X36520819Y-43090475D02*
X36444628Y-43128570D01*
X36444628Y-43128570D02*
X36292247Y-43166666D01*
X36292247Y-43166666D02*
X36177961Y-43166666D01*
X36177961Y-43166666D02*
X36025580Y-43128570D01*
X36025580Y-43128570D02*
X35949390Y-43090475D01*
X35949390Y-43090475D02*
X35873200Y-43014285D01*
X35873200Y-43014285D02*
X35835104Y-42899999D01*
X35835104Y-42899999D02*
X35835104Y-42823808D01*
X35835104Y-42823808D02*
X35873200Y-42709523D01*
X35873200Y-42709523D02*
X35911295Y-42671427D01*
X35911295Y-42671427D02*
X36177961Y-42671427D01*
X36177961Y-42671427D02*
X36177961Y-42823808D01*
X35835104Y-42328570D02*
X36635104Y-42328570D01*
X36635104Y-42328570D02*
X35835104Y-41871427D01*
X35835104Y-41871427D02*
X36635104Y-41871427D01*
X35835104Y-41490475D02*
X36635104Y-41490475D01*
X36635104Y-41490475D02*
X36635104Y-41299999D01*
X36635104Y-41299999D02*
X36597009Y-41185713D01*
X36597009Y-41185713D02*
X36520819Y-41109523D01*
X36520819Y-41109523D02*
X36444628Y-41071428D01*
X36444628Y-41071428D02*
X36292247Y-41033332D01*
X36292247Y-41033332D02*
X36177961Y-41033332D01*
X36177961Y-41033332D02*
X36025580Y-41071428D01*
X36025580Y-41071428D02*
X35949390Y-41109523D01*
X35949390Y-41109523D02*
X35873200Y-41185713D01*
X35873200Y-41185713D02*
X35835104Y-41299999D01*
X35835104Y-41299999D02*
X35835104Y-41490475D01*
D10*
X31810180Y13722493D02*
X31095895Y13722493D01*
X31095895Y13722493D02*
X30953038Y13674874D01*
X30953038Y13674874D02*
X30857800Y13579636D01*
X30857800Y13579636D02*
X30810180Y13436779D01*
X30810180Y13436779D02*
X30810180Y13341541D01*
X31476847Y14627255D02*
X30810180Y14627255D01*
X31476847Y14198684D02*
X30953038Y14198684D01*
X30953038Y14198684D02*
X30857800Y14246303D01*
X30857800Y14246303D02*
X30810180Y14341541D01*
X30810180Y14341541D02*
X30810180Y14484398D01*
X30810180Y14484398D02*
X30857800Y14579636D01*
X30857800Y14579636D02*
X30905419Y14627255D01*
X30810180Y15103446D02*
X31476847Y15103446D01*
X31381609Y15103446D02*
X31429228Y15151065D01*
X31429228Y15151065D02*
X31476847Y15246303D01*
X31476847Y15246303D02*
X31476847Y15389160D01*
X31476847Y15389160D02*
X31429228Y15484398D01*
X31429228Y15484398D02*
X31333990Y15532017D01*
X31333990Y15532017D02*
X30810180Y15532017D01*
X31333990Y15532017D02*
X31429228Y15579636D01*
X31429228Y15579636D02*
X31476847Y15674874D01*
X31476847Y15674874D02*
X31476847Y15817731D01*
X31476847Y15817731D02*
X31429228Y15912970D01*
X31429228Y15912970D02*
X31333990Y15960589D01*
X31333990Y15960589D02*
X30810180Y15960589D01*
X31476847Y16436779D02*
X30476847Y16436779D01*
X31429228Y16436779D02*
X31476847Y16532017D01*
X31476847Y16532017D02*
X31476847Y16722493D01*
X31476847Y16722493D02*
X31429228Y16817731D01*
X31429228Y16817731D02*
X31381609Y16865350D01*
X31381609Y16865350D02*
X31286371Y16912969D01*
X31286371Y16912969D02*
X31000657Y16912969D01*
X31000657Y16912969D02*
X30905419Y16865350D01*
X30905419Y16865350D02*
X30857800Y16817731D01*
X30857800Y16817731D02*
X30810180Y16722493D01*
X30810180Y16722493D02*
X30810180Y16532017D01*
X30810180Y16532017D02*
X30857800Y16436779D01*
X30857800Y17722493D02*
X30810180Y17627255D01*
X30810180Y17627255D02*
X30810180Y17436779D01*
X30810180Y17436779D02*
X30857800Y17341541D01*
X30857800Y17341541D02*
X30953038Y17293922D01*
X30953038Y17293922D02*
X31333990Y17293922D01*
X31333990Y17293922D02*
X31429228Y17341541D01*
X31429228Y17341541D02*
X31476847Y17436779D01*
X31476847Y17436779D02*
X31476847Y17627255D01*
X31476847Y17627255D02*
X31429228Y17722493D01*
X31429228Y17722493D02*
X31333990Y17770112D01*
X31333990Y17770112D02*
X31238752Y17770112D01*
X31238752Y17770112D02*
X31143514Y17293922D01*
X30810180Y18198684D02*
X31476847Y18198684D01*
X31286371Y18198684D02*
X31381609Y18246303D01*
X31381609Y18246303D02*
X31429228Y18293922D01*
X31429228Y18293922D02*
X31476847Y18389160D01*
X31476847Y18389160D02*
X31476847Y18484398D01*
X31476847Y19484399D02*
X30810180Y19674875D01*
X30810180Y19674875D02*
X31286371Y19865351D01*
X31286371Y19865351D02*
X30810180Y20055827D01*
X30810180Y20055827D02*
X31476847Y20246303D01*
X30810180Y20627256D02*
X31476847Y20627256D01*
X31810180Y20627256D02*
X31762561Y20579637D01*
X31762561Y20579637D02*
X31714942Y20627256D01*
X31714942Y20627256D02*
X31762561Y20674875D01*
X31762561Y20674875D02*
X31810180Y20627256D01*
X31810180Y20627256D02*
X31714942Y20627256D01*
X30810180Y21103446D02*
X31476847Y21103446D01*
X31286371Y21103446D02*
X31381609Y21151065D01*
X31381609Y21151065D02*
X31429228Y21198684D01*
X31429228Y21198684D02*
X31476847Y21293922D01*
X31476847Y21293922D02*
X31476847Y21389160D01*
X30857800Y22103446D02*
X30810180Y22008208D01*
X30810180Y22008208D02*
X30810180Y21817732D01*
X30810180Y21817732D02*
X30857800Y21722494D01*
X30857800Y21722494D02*
X30953038Y21674875D01*
X30953038Y21674875D02*
X31333990Y21674875D01*
X31333990Y21674875D02*
X31429228Y21722494D01*
X31429228Y21722494D02*
X31476847Y21817732D01*
X31476847Y21817732D02*
X31476847Y22008208D01*
X31476847Y22008208D02*
X31429228Y22103446D01*
X31429228Y22103446D02*
X31333990Y22151065D01*
X31333990Y22151065D02*
X31238752Y22151065D01*
X31238752Y22151065D02*
X31143514Y21674875D01*
X29723990Y13770112D02*
X29676371Y13912969D01*
X29676371Y13912969D02*
X29628752Y13960588D01*
X29628752Y13960588D02*
X29533514Y14008207D01*
X29533514Y14008207D02*
X29390657Y14008207D01*
X29390657Y14008207D02*
X29295419Y13960588D01*
X29295419Y13960588D02*
X29247800Y13912969D01*
X29247800Y13912969D02*
X29200180Y13817731D01*
X29200180Y13817731D02*
X29200180Y13436779D01*
X29200180Y13436779D02*
X30200180Y13436779D01*
X30200180Y13436779D02*
X30200180Y13770112D01*
X30200180Y13770112D02*
X30152561Y13865350D01*
X30152561Y13865350D02*
X30104942Y13912969D01*
X30104942Y13912969D02*
X30009704Y13960588D01*
X30009704Y13960588D02*
X29914466Y13960588D01*
X29914466Y13960588D02*
X29819228Y13912969D01*
X29819228Y13912969D02*
X29771609Y13865350D01*
X29771609Y13865350D02*
X29723990Y13770112D01*
X29723990Y13770112D02*
X29723990Y13436779D01*
X29866847Y14865350D02*
X29200180Y14865350D01*
X29866847Y14436779D02*
X29343038Y14436779D01*
X29343038Y14436779D02*
X29247800Y14484398D01*
X29247800Y14484398D02*
X29200180Y14579636D01*
X29200180Y14579636D02*
X29200180Y14722493D01*
X29200180Y14722493D02*
X29247800Y14817731D01*
X29247800Y14817731D02*
X29295419Y14865350D01*
X29866847Y15198684D02*
X29866847Y15579636D01*
X30200180Y15341541D02*
X29343038Y15341541D01*
X29343038Y15341541D02*
X29247800Y15389160D01*
X29247800Y15389160D02*
X29200180Y15484398D01*
X29200180Y15484398D02*
X29200180Y15579636D01*
X29866847Y15770113D02*
X29866847Y16151065D01*
X30200180Y15912970D02*
X29343038Y15912970D01*
X29343038Y15912970D02*
X29247800Y15960589D01*
X29247800Y15960589D02*
X29200180Y16055827D01*
X29200180Y16055827D02*
X29200180Y16151065D01*
X29200180Y16627256D02*
X29247800Y16532018D01*
X29247800Y16532018D02*
X29295419Y16484399D01*
X29295419Y16484399D02*
X29390657Y16436780D01*
X29390657Y16436780D02*
X29676371Y16436780D01*
X29676371Y16436780D02*
X29771609Y16484399D01*
X29771609Y16484399D02*
X29819228Y16532018D01*
X29819228Y16532018D02*
X29866847Y16627256D01*
X29866847Y16627256D02*
X29866847Y16770113D01*
X29866847Y16770113D02*
X29819228Y16865351D01*
X29819228Y16865351D02*
X29771609Y16912970D01*
X29771609Y16912970D02*
X29676371Y16960589D01*
X29676371Y16960589D02*
X29390657Y16960589D01*
X29390657Y16960589D02*
X29295419Y16912970D01*
X29295419Y16912970D02*
X29247800Y16865351D01*
X29247800Y16865351D02*
X29200180Y16770113D01*
X29200180Y16770113D02*
X29200180Y16627256D01*
X29866847Y17389161D02*
X29200180Y17389161D01*
X29771609Y17389161D02*
X29819228Y17436780D01*
X29819228Y17436780D02*
X29866847Y17532018D01*
X29866847Y17532018D02*
X29866847Y17674875D01*
X29866847Y17674875D02*
X29819228Y17770113D01*
X29819228Y17770113D02*
X29723990Y17817732D01*
X29723990Y17817732D02*
X29200180Y17817732D01*
X29247800Y18246304D02*
X29200180Y18341542D01*
X29200180Y18341542D02*
X29200180Y18532018D01*
X29200180Y18532018D02*
X29247800Y18627256D01*
X29247800Y18627256D02*
X29343038Y18674875D01*
X29343038Y18674875D02*
X29390657Y18674875D01*
X29390657Y18674875D02*
X29485895Y18627256D01*
X29485895Y18627256D02*
X29533514Y18532018D01*
X29533514Y18532018D02*
X29533514Y18389161D01*
X29533514Y18389161D02*
X29581133Y18293923D01*
X29581133Y18293923D02*
X29676371Y18246304D01*
X29676371Y18246304D02*
X29723990Y18246304D01*
X29723990Y18246304D02*
X29819228Y18293923D01*
X29819228Y18293923D02*
X29866847Y18389161D01*
X29866847Y18389161D02*
X29866847Y18532018D01*
X29866847Y18532018D02*
X29819228Y18627256D01*
X27590180Y13960588D02*
X27590180Y13389160D01*
X27590180Y13674874D02*
X28590180Y13674874D01*
X28590180Y13674874D02*
X28447323Y13579636D01*
X28447323Y13579636D02*
X28352085Y13484398D01*
X28352085Y13484398D02*
X28304466Y13389160D01*
X27971133Y14389160D02*
X27971133Y15151065D01*
X28590180Y16103445D02*
X28590180Y15627255D01*
X28590180Y15627255D02*
X28113990Y15579636D01*
X28113990Y15579636D02*
X28161609Y15627255D01*
X28161609Y15627255D02*
X28209228Y15722493D01*
X28209228Y15722493D02*
X28209228Y15960588D01*
X28209228Y15960588D02*
X28161609Y16055826D01*
X28161609Y16055826D02*
X28113990Y16103445D01*
X28113990Y16103445D02*
X28018752Y16151064D01*
X28018752Y16151064D02*
X27780657Y16151064D01*
X27780657Y16151064D02*
X27685419Y16103445D01*
X27685419Y16103445D02*
X27637800Y16055826D01*
X27637800Y16055826D02*
X27590180Y15960588D01*
X27590180Y15960588D02*
X27590180Y15722493D01*
X27590180Y15722493D02*
X27637800Y15627255D01*
X27637800Y15627255D02*
X27685419Y15579636D01*
X27637800Y16627255D02*
X27590180Y16627255D01*
X27590180Y16627255D02*
X27494942Y16579636D01*
X27494942Y16579636D02*
X27447323Y16532017D01*
X28494942Y17770112D02*
X28542561Y17817731D01*
X28542561Y17817731D02*
X28590180Y17912969D01*
X28590180Y17912969D02*
X28590180Y18151064D01*
X28590180Y18151064D02*
X28542561Y18246302D01*
X28542561Y18246302D02*
X28494942Y18293921D01*
X28494942Y18293921D02*
X28399704Y18341540D01*
X28399704Y18341540D02*
X28304466Y18341540D01*
X28304466Y18341540D02*
X28161609Y18293921D01*
X28161609Y18293921D02*
X27590180Y17722493D01*
X27590180Y17722493D02*
X27590180Y18341540D01*
X27971133Y18770112D02*
X27971133Y19532017D01*
X28590180Y20436778D02*
X28590180Y20246302D01*
X28590180Y20246302D02*
X28542561Y20151064D01*
X28542561Y20151064D02*
X28494942Y20103445D01*
X28494942Y20103445D02*
X28352085Y20008207D01*
X28352085Y20008207D02*
X28161609Y19960588D01*
X28161609Y19960588D02*
X27780657Y19960588D01*
X27780657Y19960588D02*
X27685419Y20008207D01*
X27685419Y20008207D02*
X27637800Y20055826D01*
X27637800Y20055826D02*
X27590180Y20151064D01*
X27590180Y20151064D02*
X27590180Y20341540D01*
X27590180Y20341540D02*
X27637800Y20436778D01*
X27637800Y20436778D02*
X27685419Y20484397D01*
X27685419Y20484397D02*
X27780657Y20532016D01*
X27780657Y20532016D02*
X28018752Y20532016D01*
X28018752Y20532016D02*
X28113990Y20484397D01*
X28113990Y20484397D02*
X28161609Y20436778D01*
X28161609Y20436778D02*
X28209228Y20341540D01*
X28209228Y20341540D02*
X28209228Y20151064D01*
X28209228Y20151064D02*
X28161609Y20055826D01*
X28161609Y20055826D02*
X28113990Y20008207D01*
X28113990Y20008207D02*
X28018752Y19960588D01*
X27637800Y21008207D02*
X27590180Y21008207D01*
X27590180Y21008207D02*
X27494942Y20960588D01*
X27494942Y20960588D02*
X27447323Y20912969D01*
X26980180Y13341541D02*
X26980180Y13960588D01*
X26980180Y13960588D02*
X26599228Y13627255D01*
X26599228Y13627255D02*
X26599228Y13770112D01*
X26599228Y13770112D02*
X26551609Y13865350D01*
X26551609Y13865350D02*
X26503990Y13912969D01*
X26503990Y13912969D02*
X26408752Y13960588D01*
X26408752Y13960588D02*
X26170657Y13960588D01*
X26170657Y13960588D02*
X26075419Y13912969D01*
X26075419Y13912969D02*
X26027800Y13865350D01*
X26027800Y13865350D02*
X25980180Y13770112D01*
X25980180Y13770112D02*
X25980180Y13484398D01*
X25980180Y13484398D02*
X26027800Y13389160D01*
X26027800Y13389160D02*
X26075419Y13341541D01*
X26361133Y14389160D02*
X26361133Y15151065D01*
X26980180Y15532017D02*
X26980180Y16198683D01*
X26980180Y16198683D02*
X25980180Y15770112D01*
X26027800Y16627255D02*
X25980180Y16627255D01*
X25980180Y16627255D02*
X25884942Y16579636D01*
X25884942Y16579636D02*
X25837323Y16532017D01*
X26646847Y18246302D02*
X25980180Y18246302D01*
X27027800Y18008207D02*
X26313514Y17770112D01*
X26313514Y17770112D02*
X26313514Y18389159D01*
X26361133Y18770112D02*
X26361133Y19532017D01*
X26551609Y20151064D02*
X26599228Y20055826D01*
X26599228Y20055826D02*
X26646847Y20008207D01*
X26646847Y20008207D02*
X26742085Y19960588D01*
X26742085Y19960588D02*
X26789704Y19960588D01*
X26789704Y19960588D02*
X26884942Y20008207D01*
X26884942Y20008207D02*
X26932561Y20055826D01*
X26932561Y20055826D02*
X26980180Y20151064D01*
X26980180Y20151064D02*
X26980180Y20341540D01*
X26980180Y20341540D02*
X26932561Y20436778D01*
X26932561Y20436778D02*
X26884942Y20484397D01*
X26884942Y20484397D02*
X26789704Y20532016D01*
X26789704Y20532016D02*
X26742085Y20532016D01*
X26742085Y20532016D02*
X26646847Y20484397D01*
X26646847Y20484397D02*
X26599228Y20436778D01*
X26599228Y20436778D02*
X26551609Y20341540D01*
X26551609Y20341540D02*
X26551609Y20151064D01*
X26551609Y20151064D02*
X26503990Y20055826D01*
X26503990Y20055826D02*
X26456371Y20008207D01*
X26456371Y20008207D02*
X26361133Y19960588D01*
X26361133Y19960588D02*
X26170657Y19960588D01*
X26170657Y19960588D02*
X26075419Y20008207D01*
X26075419Y20008207D02*
X26027800Y20055826D01*
X26027800Y20055826D02*
X25980180Y20151064D01*
X25980180Y20151064D02*
X25980180Y20341540D01*
X25980180Y20341540D02*
X26027800Y20436778D01*
X26027800Y20436778D02*
X26075419Y20484397D01*
X26075419Y20484397D02*
X26170657Y20532016D01*
X26170657Y20532016D02*
X26361133Y20532016D01*
X26361133Y20532016D02*
X26456371Y20484397D01*
X26456371Y20484397D02*
X26503990Y20436778D01*
X26503990Y20436778D02*
X26551609Y20341540D01*
X27715180Y27011779D02*
X28715180Y27011779D01*
X28715180Y27011779D02*
X28000895Y27345112D01*
X28000895Y27345112D02*
X28715180Y27678445D01*
X28715180Y27678445D02*
X27715180Y27678445D01*
X28381847Y28583207D02*
X27715180Y28583207D01*
X28381847Y28154636D02*
X27858038Y28154636D01*
X27858038Y28154636D02*
X27762800Y28202255D01*
X27762800Y28202255D02*
X27715180Y28297493D01*
X27715180Y28297493D02*
X27715180Y28440350D01*
X27715180Y28440350D02*
X27762800Y28535588D01*
X27762800Y28535588D02*
X27810419Y28583207D01*
X27715180Y28964160D02*
X28381847Y29487969D01*
X28381847Y28964160D02*
X27715180Y29487969D01*
X26105180Y27535588D02*
X26105180Y26964160D01*
X26105180Y27249874D02*
X27105180Y27249874D01*
X27105180Y27249874D02*
X26962323Y27154636D01*
X26962323Y27154636D02*
X26867085Y27059398D01*
X26867085Y27059398D02*
X26819466Y26964160D01*
X26486133Y27964160D02*
X26486133Y28726065D01*
X27009942Y29154636D02*
X27057561Y29202255D01*
X27057561Y29202255D02*
X27105180Y29297493D01*
X27105180Y29297493D02*
X27105180Y29535588D01*
X27105180Y29535588D02*
X27057561Y29630826D01*
X27057561Y29630826D02*
X27009942Y29678445D01*
X27009942Y29678445D02*
X26914704Y29726064D01*
X26914704Y29726064D02*
X26819466Y29726064D01*
X26819466Y29726064D02*
X26676609Y29678445D01*
X26676609Y29678445D02*
X26105180Y29107017D01*
X26105180Y29107017D02*
X26105180Y29726064D01*
D11*
X25634523Y-48878990D02*
X25710713Y-48840895D01*
X25710713Y-48840895D02*
X25824999Y-48840895D01*
X25824999Y-48840895D02*
X25939285Y-48878990D01*
X25939285Y-48878990D02*
X26015475Y-48955180D01*
X26015475Y-48955180D02*
X26053570Y-49031371D01*
X26053570Y-49031371D02*
X26091666Y-49183752D01*
X26091666Y-49183752D02*
X26091666Y-49298038D01*
X26091666Y-49298038D02*
X26053570Y-49450419D01*
X26053570Y-49450419D02*
X26015475Y-49526609D01*
X26015475Y-49526609D02*
X25939285Y-49602800D01*
X25939285Y-49602800D02*
X25824999Y-49640895D01*
X25824999Y-49640895D02*
X25748808Y-49640895D01*
X25748808Y-49640895D02*
X25634523Y-49602800D01*
X25634523Y-49602800D02*
X25596427Y-49564704D01*
X25596427Y-49564704D02*
X25596427Y-49298038D01*
X25596427Y-49298038D02*
X25748808Y-49298038D01*
X25253570Y-49640895D02*
X25253570Y-48840895D01*
X25253570Y-48840895D02*
X24796427Y-49640895D01*
X24796427Y-49640895D02*
X24796427Y-48840895D01*
X24415475Y-49640895D02*
X24415475Y-48840895D01*
X24415475Y-48840895D02*
X24224999Y-48840895D01*
X24224999Y-48840895D02*
X24110713Y-48878990D01*
X24110713Y-48878990D02*
X24034523Y-48955180D01*
X24034523Y-48955180D02*
X23996428Y-49031371D01*
X23996428Y-49031371D02*
X23958332Y-49183752D01*
X23958332Y-49183752D02*
X23958332Y-49298038D01*
X23958332Y-49298038D02*
X23996428Y-49450419D01*
X23996428Y-49450419D02*
X24034523Y-49526609D01*
X24034523Y-49526609D02*
X24110713Y-49602800D01*
X24110713Y-49602800D02*
X24224999Y-49640895D01*
X24224999Y-49640895D02*
X24415475Y-49640895D01*
X30857200Y28266352D02*
X30828628Y28352067D01*
X30828628Y28352067D02*
X30828628Y28494924D01*
X30828628Y28494924D02*
X30857200Y28552067D01*
X30857200Y28552067D02*
X30885771Y28580638D01*
X30885771Y28580638D02*
X30942914Y28609209D01*
X30942914Y28609209D02*
X31000057Y28609209D01*
X31000057Y28609209D02*
X31057200Y28580638D01*
X31057200Y28580638D02*
X31085771Y28552067D01*
X31085771Y28552067D02*
X31114342Y28494924D01*
X31114342Y28494924D02*
X31142914Y28380638D01*
X31142914Y28380638D02*
X31171485Y28323495D01*
X31171485Y28323495D02*
X31200057Y28294924D01*
X31200057Y28294924D02*
X31257200Y28266352D01*
X31257200Y28266352D02*
X31314342Y28266352D01*
X31314342Y28266352D02*
X31371485Y28294924D01*
X31371485Y28294924D02*
X31400057Y28323495D01*
X31400057Y28323495D02*
X31428628Y28380638D01*
X31428628Y28380638D02*
X31428628Y28523495D01*
X31428628Y28523495D02*
X31400057Y28609209D01*
X30828628Y28866353D02*
X31428628Y28866353D01*
X31428628Y28866353D02*
X31428628Y29009210D01*
X31428628Y29009210D02*
X31400057Y29094924D01*
X31400057Y29094924D02*
X31342914Y29152067D01*
X31342914Y29152067D02*
X31285771Y29180638D01*
X31285771Y29180638D02*
X31171485Y29209210D01*
X31171485Y29209210D02*
X31085771Y29209210D01*
X31085771Y29209210D02*
X30971485Y29180638D01*
X30971485Y29180638D02*
X30914342Y29152067D01*
X30914342Y29152067D02*
X30857200Y29094924D01*
X30857200Y29094924D02*
X30828628Y29009210D01*
X30828628Y29009210D02*
X30828628Y28866353D01*
X31000057Y29437781D02*
X31000057Y29723496D01*
X30828628Y29380638D02*
X31428628Y29580638D01*
X31428628Y29580638D02*
X30828628Y29780638D01*
X31371485Y29952067D02*
X31400057Y29980639D01*
X31400057Y29980639D02*
X31428628Y30037782D01*
X31428628Y30037782D02*
X31428628Y30180639D01*
X31428628Y30180639D02*
X31400057Y30237782D01*
X31400057Y30237782D02*
X31371485Y30266353D01*
X31371485Y30266353D02*
X31314342Y30294924D01*
X31314342Y30294924D02*
X31257200Y30294924D01*
X31257200Y30294924D02*
X31171485Y30266353D01*
X31171485Y30266353D02*
X30828628Y29923496D01*
X30828628Y29923496D02*
X30828628Y30294924D01*
X19194361Y-15092800D02*
X19108647Y-15121371D01*
X19108647Y-15121371D02*
X18965789Y-15121371D01*
X18965789Y-15121371D02*
X18908647Y-15092800D01*
X18908647Y-15092800D02*
X18880075Y-15064228D01*
X18880075Y-15064228D02*
X18851504Y-15007085D01*
X18851504Y-15007085D02*
X18851504Y-14949942D01*
X18851504Y-14949942D02*
X18880075Y-14892800D01*
X18880075Y-14892800D02*
X18908647Y-14864228D01*
X18908647Y-14864228D02*
X18965789Y-14835657D01*
X18965789Y-14835657D02*
X19080075Y-14807085D01*
X19080075Y-14807085D02*
X19137218Y-14778514D01*
X19137218Y-14778514D02*
X19165789Y-14749942D01*
X19165789Y-14749942D02*
X19194361Y-14692800D01*
X19194361Y-14692800D02*
X19194361Y-14635657D01*
X19194361Y-14635657D02*
X19165789Y-14578514D01*
X19165789Y-14578514D02*
X19137218Y-14549942D01*
X19137218Y-14549942D02*
X19080075Y-14521371D01*
X19080075Y-14521371D02*
X18937218Y-14521371D01*
X18937218Y-14521371D02*
X18851504Y-14549942D01*
X18251503Y-15064228D02*
X18280075Y-15092800D01*
X18280075Y-15092800D02*
X18365789Y-15121371D01*
X18365789Y-15121371D02*
X18422932Y-15121371D01*
X18422932Y-15121371D02*
X18508646Y-15092800D01*
X18508646Y-15092800D02*
X18565789Y-15035657D01*
X18565789Y-15035657D02*
X18594360Y-14978514D01*
X18594360Y-14978514D02*
X18622932Y-14864228D01*
X18622932Y-14864228D02*
X18622932Y-14778514D01*
X18622932Y-14778514D02*
X18594360Y-14664228D01*
X18594360Y-14664228D02*
X18565789Y-14607085D01*
X18565789Y-14607085D02*
X18508646Y-14549942D01*
X18508646Y-14549942D02*
X18422932Y-14521371D01*
X18422932Y-14521371D02*
X18365789Y-14521371D01*
X18365789Y-14521371D02*
X18280075Y-14549942D01*
X18280075Y-14549942D02*
X18251503Y-14578514D01*
X17737218Y-14521371D02*
X17851503Y-14521371D01*
X17851503Y-14521371D02*
X17908646Y-14549942D01*
X17908646Y-14549942D02*
X17937218Y-14578514D01*
X17937218Y-14578514D02*
X17994360Y-14664228D01*
X17994360Y-14664228D02*
X18022932Y-14778514D01*
X18022932Y-14778514D02*
X18022932Y-15007085D01*
X18022932Y-15007085D02*
X17994360Y-15064228D01*
X17994360Y-15064228D02*
X17965789Y-15092800D01*
X17965789Y-15092800D02*
X17908646Y-15121371D01*
X17908646Y-15121371D02*
X17794360Y-15121371D01*
X17794360Y-15121371D02*
X17737218Y-15092800D01*
X17737218Y-15092800D02*
X17708646Y-15064228D01*
X17708646Y-15064228D02*
X17680075Y-15007085D01*
X17680075Y-15007085D02*
X17680075Y-14864228D01*
X17680075Y-14864228D02*
X17708646Y-14807085D01*
X17708646Y-14807085D02*
X17737218Y-14778514D01*
X17737218Y-14778514D02*
X17794360Y-14749942D01*
X17794360Y-14749942D02*
X17908646Y-14749942D01*
X17908646Y-14749942D02*
X17965789Y-14778514D01*
X17965789Y-14778514D02*
X17994360Y-14807085D01*
X17994360Y-14807085D02*
X18022932Y-14864228D01*
X31137217Y39778628D02*
X31422931Y39778628D01*
X31422931Y39778628D02*
X31422931Y40378628D01*
X30937217Y40092914D02*
X30737217Y40092914D01*
X30651503Y39778628D02*
X30937217Y39778628D01*
X30937217Y39778628D02*
X30937217Y40378628D01*
X30937217Y40378628D02*
X30651503Y40378628D01*
X30394360Y39778628D02*
X30394360Y40378628D01*
X30394360Y40378628D02*
X30251503Y40378628D01*
X30251503Y40378628D02*
X30165789Y40350057D01*
X30165789Y40350057D02*
X30108646Y40292914D01*
X30108646Y40292914D02*
X30080075Y40235771D01*
X30080075Y40235771D02*
X30051503Y40121485D01*
X30051503Y40121485D02*
X30051503Y40035771D01*
X30051503Y40035771D02*
X30080075Y39921485D01*
X30080075Y39921485D02*
X30108646Y39864342D01*
X30108646Y39864342D02*
X30165789Y39807200D01*
X30165789Y39807200D02*
X30251503Y39778628D01*
X30251503Y39778628D02*
X30394360Y39778628D01*
X29708646Y40121485D02*
X29765789Y40150057D01*
X29765789Y40150057D02*
X29794360Y40178628D01*
X29794360Y40178628D02*
X29822932Y40235771D01*
X29822932Y40235771D02*
X29822932Y40264342D01*
X29822932Y40264342D02*
X29794360Y40321485D01*
X29794360Y40321485D02*
X29765789Y40350057D01*
X29765789Y40350057D02*
X29708646Y40378628D01*
X29708646Y40378628D02*
X29594360Y40378628D01*
X29594360Y40378628D02*
X29537218Y40350057D01*
X29537218Y40350057D02*
X29508646Y40321485D01*
X29508646Y40321485D02*
X29480075Y40264342D01*
X29480075Y40264342D02*
X29480075Y40235771D01*
X29480075Y40235771D02*
X29508646Y40178628D01*
X29508646Y40178628D02*
X29537218Y40150057D01*
X29537218Y40150057D02*
X29594360Y40121485D01*
X29594360Y40121485D02*
X29708646Y40121485D01*
X29708646Y40121485D02*
X29765789Y40092914D01*
X29765789Y40092914D02*
X29794360Y40064342D01*
X29794360Y40064342D02*
X29822932Y40007200D01*
X29822932Y40007200D02*
X29822932Y39892914D01*
X29822932Y39892914D02*
X29794360Y39835771D01*
X29794360Y39835771D02*
X29765789Y39807200D01*
X29765789Y39807200D02*
X29708646Y39778628D01*
X29708646Y39778628D02*
X29594360Y39778628D01*
X29594360Y39778628D02*
X29537218Y39807200D01*
X29537218Y39807200D02*
X29508646Y39835771D01*
X29508646Y39835771D02*
X29480075Y39892914D01*
X29480075Y39892914D02*
X29480075Y40007200D01*
X29480075Y40007200D02*
X29508646Y40064342D01*
X29508646Y40064342D02*
X29537218Y40092914D01*
X29537218Y40092914D02*
X29594360Y40121485D01*
X21062217Y35953628D02*
X21347931Y35953628D01*
X21347931Y35953628D02*
X21347931Y36553628D01*
X20862217Y36267914D02*
X20662217Y36267914D01*
X20576503Y35953628D02*
X20862217Y35953628D01*
X20862217Y35953628D02*
X20862217Y36553628D01*
X20862217Y36553628D02*
X20576503Y36553628D01*
X20319360Y35953628D02*
X20319360Y36553628D01*
X20319360Y36553628D02*
X20176503Y36553628D01*
X20176503Y36553628D02*
X20090789Y36525057D01*
X20090789Y36525057D02*
X20033646Y36467914D01*
X20033646Y36467914D02*
X20005075Y36410771D01*
X20005075Y36410771D02*
X19976503Y36296485D01*
X19976503Y36296485D02*
X19976503Y36210771D01*
X19976503Y36210771D02*
X20005075Y36096485D01*
X20005075Y36096485D02*
X20033646Y36039342D01*
X20033646Y36039342D02*
X20090789Y35982200D01*
X20090789Y35982200D02*
X20176503Y35953628D01*
X20176503Y35953628D02*
X20319360Y35953628D01*
X19462218Y36353628D02*
X19462218Y35953628D01*
X19605075Y36582200D02*
X19747932Y36153628D01*
X19747932Y36153628D02*
X19376503Y36153628D01*
X19403628Y28587782D02*
X19403628Y28302068D01*
X19403628Y28302068D02*
X20003628Y28302068D01*
X19717914Y28787782D02*
X19717914Y28987782D01*
X19403628Y29073496D02*
X19403628Y28787782D01*
X19403628Y28787782D02*
X20003628Y28787782D01*
X20003628Y28787782D02*
X20003628Y29073496D01*
X19403628Y29330639D02*
X20003628Y29330639D01*
X20003628Y29330639D02*
X20003628Y29473496D01*
X20003628Y29473496D02*
X19975057Y29559210D01*
X19975057Y29559210D02*
X19917914Y29616353D01*
X19917914Y29616353D02*
X19860771Y29644924D01*
X19860771Y29644924D02*
X19746485Y29673496D01*
X19746485Y29673496D02*
X19660771Y29673496D01*
X19660771Y29673496D02*
X19546485Y29644924D01*
X19546485Y29644924D02*
X19489342Y29616353D01*
X19489342Y29616353D02*
X19432200Y29559210D01*
X19432200Y29559210D02*
X19403628Y29473496D01*
X19403628Y29473496D02*
X19403628Y29330639D01*
X19403628Y30244924D02*
X19403628Y29902067D01*
X19403628Y30073496D02*
X20003628Y30073496D01*
X20003628Y30073496D02*
X19917914Y30016353D01*
X19917914Y30016353D02*
X19860771Y29959210D01*
X19860771Y29959210D02*
X19832200Y29902067D01*
X19119361Y-22692800D02*
X19033647Y-22721371D01*
X19033647Y-22721371D02*
X18890789Y-22721371D01*
X18890789Y-22721371D02*
X18833647Y-22692800D01*
X18833647Y-22692800D02*
X18805075Y-22664228D01*
X18805075Y-22664228D02*
X18776504Y-22607085D01*
X18776504Y-22607085D02*
X18776504Y-22549942D01*
X18776504Y-22549942D02*
X18805075Y-22492800D01*
X18805075Y-22492800D02*
X18833647Y-22464228D01*
X18833647Y-22464228D02*
X18890789Y-22435657D01*
X18890789Y-22435657D02*
X19005075Y-22407085D01*
X19005075Y-22407085D02*
X19062218Y-22378514D01*
X19062218Y-22378514D02*
X19090789Y-22349942D01*
X19090789Y-22349942D02*
X19119361Y-22292800D01*
X19119361Y-22292800D02*
X19119361Y-22235657D01*
X19119361Y-22235657D02*
X19090789Y-22178514D01*
X19090789Y-22178514D02*
X19062218Y-22149942D01*
X19062218Y-22149942D02*
X19005075Y-22121371D01*
X19005075Y-22121371D02*
X18862218Y-22121371D01*
X18862218Y-22121371D02*
X18776504Y-22149942D01*
X18519360Y-22721371D02*
X18519360Y-22121371D01*
X18519360Y-22121371D02*
X18376503Y-22121371D01*
X18376503Y-22121371D02*
X18290789Y-22149942D01*
X18290789Y-22149942D02*
X18233646Y-22207085D01*
X18233646Y-22207085D02*
X18205075Y-22264228D01*
X18205075Y-22264228D02*
X18176503Y-22378514D01*
X18176503Y-22378514D02*
X18176503Y-22464228D01*
X18176503Y-22464228D02*
X18205075Y-22578514D01*
X18205075Y-22578514D02*
X18233646Y-22635657D01*
X18233646Y-22635657D02*
X18290789Y-22692800D01*
X18290789Y-22692800D02*
X18376503Y-22721371D01*
X18376503Y-22721371D02*
X18519360Y-22721371D01*
X17633646Y-22121371D02*
X17919360Y-22121371D01*
X17919360Y-22121371D02*
X17947932Y-22407085D01*
X17947932Y-22407085D02*
X17919360Y-22378514D01*
X17919360Y-22378514D02*
X17862218Y-22349942D01*
X17862218Y-22349942D02*
X17719360Y-22349942D01*
X17719360Y-22349942D02*
X17662218Y-22378514D01*
X17662218Y-22378514D02*
X17633646Y-22407085D01*
X17633646Y-22407085D02*
X17605075Y-22464228D01*
X17605075Y-22464228D02*
X17605075Y-22607085D01*
X17605075Y-22607085D02*
X17633646Y-22664228D01*
X17633646Y-22664228D02*
X17662218Y-22692800D01*
X17662218Y-22692800D02*
X17719360Y-22721371D01*
X17719360Y-22721371D02*
X17862218Y-22721371D01*
X17862218Y-22721371D02*
X17919360Y-22692800D01*
X17919360Y-22692800D02*
X17947932Y-22664228D01*
X34799999Y51001866D02*
X34190476Y51001866D01*
X34495237Y50697104D02*
X34495237Y51306628D01*
X33885714Y51497104D02*
X33390476Y51497104D01*
X33390476Y51497104D02*
X33657142Y51192342D01*
X33657142Y51192342D02*
X33542857Y51192342D01*
X33542857Y51192342D02*
X33466666Y51154247D01*
X33466666Y51154247D02*
X33428571Y51116152D01*
X33428571Y51116152D02*
X33390476Y51039961D01*
X33390476Y51039961D02*
X33390476Y50849485D01*
X33390476Y50849485D02*
X33428571Y50773295D01*
X33428571Y50773295D02*
X33466666Y50735200D01*
X33466666Y50735200D02*
X33542857Y50697104D01*
X33542857Y50697104D02*
X33771428Y50697104D01*
X33771428Y50697104D02*
X33847619Y50735200D01*
X33847619Y50735200D02*
X33885714Y50773295D01*
X33047618Y50773295D02*
X33009523Y50735200D01*
X33009523Y50735200D02*
X33047618Y50697104D01*
X33047618Y50697104D02*
X33085714Y50735200D01*
X33085714Y50735200D02*
X33047618Y50773295D01*
X33047618Y50773295D02*
X33047618Y50697104D01*
X32742857Y51497104D02*
X32247619Y51497104D01*
X32247619Y51497104D02*
X32514285Y51192342D01*
X32514285Y51192342D02*
X32400000Y51192342D01*
X32400000Y51192342D02*
X32323809Y51154247D01*
X32323809Y51154247D02*
X32285714Y51116152D01*
X32285714Y51116152D02*
X32247619Y51039961D01*
X32247619Y51039961D02*
X32247619Y50849485D01*
X32247619Y50849485D02*
X32285714Y50773295D01*
X32285714Y50773295D02*
X32323809Y50735200D01*
X32323809Y50735200D02*
X32400000Y50697104D01*
X32400000Y50697104D02*
X32628571Y50697104D01*
X32628571Y50697104D02*
X32704762Y50735200D01*
X32704762Y50735200D02*
X32742857Y50773295D01*
X32019047Y51497104D02*
X31752380Y50697104D01*
X31752380Y50697104D02*
X31485714Y51497104D01*
X19119361Y-28692800D02*
X19033647Y-28721371D01*
X19033647Y-28721371D02*
X18890789Y-28721371D01*
X18890789Y-28721371D02*
X18833647Y-28692800D01*
X18833647Y-28692800D02*
X18805075Y-28664228D01*
X18805075Y-28664228D02*
X18776504Y-28607085D01*
X18776504Y-28607085D02*
X18776504Y-28549942D01*
X18776504Y-28549942D02*
X18805075Y-28492800D01*
X18805075Y-28492800D02*
X18833647Y-28464228D01*
X18833647Y-28464228D02*
X18890789Y-28435657D01*
X18890789Y-28435657D02*
X19005075Y-28407085D01*
X19005075Y-28407085D02*
X19062218Y-28378514D01*
X19062218Y-28378514D02*
X19090789Y-28349942D01*
X19090789Y-28349942D02*
X19119361Y-28292800D01*
X19119361Y-28292800D02*
X19119361Y-28235657D01*
X19119361Y-28235657D02*
X19090789Y-28178514D01*
X19090789Y-28178514D02*
X19062218Y-28149942D01*
X19062218Y-28149942D02*
X19005075Y-28121371D01*
X19005075Y-28121371D02*
X18862218Y-28121371D01*
X18862218Y-28121371D02*
X18776504Y-28149942D01*
X18519360Y-28721371D02*
X18519360Y-28121371D01*
X18519360Y-28121371D02*
X18376503Y-28121371D01*
X18376503Y-28121371D02*
X18290789Y-28149942D01*
X18290789Y-28149942D02*
X18233646Y-28207085D01*
X18233646Y-28207085D02*
X18205075Y-28264228D01*
X18205075Y-28264228D02*
X18176503Y-28378514D01*
X18176503Y-28378514D02*
X18176503Y-28464228D01*
X18176503Y-28464228D02*
X18205075Y-28578514D01*
X18205075Y-28578514D02*
X18233646Y-28635657D01*
X18233646Y-28635657D02*
X18290789Y-28692800D01*
X18290789Y-28692800D02*
X18376503Y-28721371D01*
X18376503Y-28721371D02*
X18519360Y-28721371D01*
X17662218Y-28321371D02*
X17662218Y-28721371D01*
X17805075Y-28092800D02*
X17947932Y-28521371D01*
X17947932Y-28521371D02*
X17576503Y-28521371D01*
D10*
X31113220Y90180D02*
X31113220Y1090180D01*
X30779887Y756847D02*
X30398935Y756847D01*
X30637030Y90180D02*
X30637030Y947323D01*
X30637030Y947323D02*
X30589411Y1042561D01*
X30589411Y1042561D02*
X30494173Y1090180D01*
X30494173Y1090180D02*
X30398935Y1090180D01*
X29303696Y90180D02*
X29303696Y1090180D01*
X29303696Y1090180D02*
X28732268Y90180D01*
X28732268Y90180D02*
X28732268Y1090180D01*
X28113220Y90180D02*
X28208458Y137800D01*
X28208458Y137800D02*
X28256077Y185419D01*
X28256077Y185419D02*
X28303696Y280657D01*
X28303696Y280657D02*
X28303696Y566371D01*
X28303696Y566371D02*
X28256077Y661609D01*
X28256077Y661609D02*
X28208458Y709228D01*
X28208458Y709228D02*
X28113220Y756847D01*
X28113220Y756847D02*
X27970363Y756847D01*
X27970363Y756847D02*
X27875125Y709228D01*
X27875125Y709228D02*
X27827506Y661609D01*
X27827506Y661609D02*
X27779887Y566371D01*
X27779887Y566371D02*
X27779887Y280657D01*
X27779887Y280657D02*
X27827506Y185419D01*
X27827506Y185419D02*
X27875125Y137800D01*
X27875125Y137800D02*
X27970363Y90180D01*
X27970363Y90180D02*
X28113220Y90180D01*
X27351315Y756847D02*
X27351315Y90180D01*
X27351315Y661609D02*
X27303696Y709228D01*
X27303696Y709228D02*
X27208458Y756847D01*
X27208458Y756847D02*
X27065601Y756847D01*
X27065601Y756847D02*
X26970363Y709228D01*
X26970363Y709228D02*
X26922744Y613990D01*
X26922744Y613990D02*
X26922744Y90180D01*
X25684648Y90180D02*
X25684648Y1090180D01*
X25684648Y1090180D02*
X25351315Y375895D01*
X25351315Y375895D02*
X25017982Y1090180D01*
X25017982Y1090180D02*
X25017982Y90180D01*
X24113220Y756847D02*
X24113220Y90180D01*
X24541791Y756847D02*
X24541791Y233038D01*
X24541791Y233038D02*
X24494172Y137800D01*
X24494172Y137800D02*
X24398934Y90180D01*
X24398934Y90180D02*
X24256077Y90180D01*
X24256077Y90180D02*
X24160839Y137800D01*
X24160839Y137800D02*
X24113220Y185419D01*
X23732267Y90180D02*
X23208458Y756847D01*
X23732267Y756847D02*
X23208458Y90180D01*
X21732267Y613990D02*
X21589410Y566371D01*
X21589410Y566371D02*
X21541791Y518752D01*
X21541791Y518752D02*
X21494172Y423514D01*
X21494172Y423514D02*
X21494172Y280657D01*
X21494172Y280657D02*
X21541791Y185419D01*
X21541791Y185419D02*
X21589410Y137800D01*
X21589410Y137800D02*
X21684648Y90180D01*
X21684648Y90180D02*
X22065600Y90180D01*
X22065600Y90180D02*
X22065600Y1090180D01*
X22065600Y1090180D02*
X21732267Y1090180D01*
X21732267Y1090180D02*
X21637029Y1042561D01*
X21637029Y1042561D02*
X21589410Y994942D01*
X21589410Y994942D02*
X21541791Y899704D01*
X21541791Y899704D02*
X21541791Y804466D01*
X21541791Y804466D02*
X21589410Y709228D01*
X21589410Y709228D02*
X21637029Y661609D01*
X21637029Y661609D02*
X21732267Y613990D01*
X21732267Y613990D02*
X22065600Y613990D01*
X20922743Y90180D02*
X21017981Y137800D01*
X21017981Y137800D02*
X21065600Y185419D01*
X21065600Y185419D02*
X21113219Y280657D01*
X21113219Y280657D02*
X21113219Y566371D01*
X21113219Y566371D02*
X21065600Y661609D01*
X21065600Y661609D02*
X21017981Y709228D01*
X21017981Y709228D02*
X20922743Y756847D01*
X20922743Y756847D02*
X20779886Y756847D01*
X20779886Y756847D02*
X20684648Y709228D01*
X20684648Y709228D02*
X20637029Y661609D01*
X20637029Y661609D02*
X20589410Y566371D01*
X20589410Y566371D02*
X20589410Y280657D01*
X20589410Y280657D02*
X20637029Y185419D01*
X20637029Y185419D02*
X20684648Y137800D01*
X20684648Y137800D02*
X20779886Y90180D01*
X20779886Y90180D02*
X20922743Y90180D01*
X19732267Y90180D02*
X19732267Y613990D01*
X19732267Y613990D02*
X19779886Y709228D01*
X19779886Y709228D02*
X19875124Y756847D01*
X19875124Y756847D02*
X20065600Y756847D01*
X20065600Y756847D02*
X20160838Y709228D01*
X19732267Y137800D02*
X19827505Y90180D01*
X19827505Y90180D02*
X20065600Y90180D01*
X20065600Y90180D02*
X20160838Y137800D01*
X20160838Y137800D02*
X20208457Y233038D01*
X20208457Y233038D02*
X20208457Y328276D01*
X20208457Y328276D02*
X20160838Y423514D01*
X20160838Y423514D02*
X20065600Y471133D01*
X20065600Y471133D02*
X19827505Y471133D01*
X19827505Y471133D02*
X19732267Y518752D01*
X19256076Y90180D02*
X19256076Y756847D01*
X19256076Y566371D02*
X19208457Y661609D01*
X19208457Y661609D02*
X19160838Y709228D01*
X19160838Y709228D02*
X19065600Y756847D01*
X19065600Y756847D02*
X18970362Y756847D01*
X18208457Y90180D02*
X18208457Y1090180D01*
X18208457Y137800D02*
X18303695Y90180D01*
X18303695Y90180D02*
X18494171Y90180D01*
X18494171Y90180D02*
X18589409Y137800D01*
X18589409Y137800D02*
X18637028Y185419D01*
X18637028Y185419D02*
X18684647Y280657D01*
X18684647Y280657D02*
X18684647Y566371D01*
X18684647Y566371D02*
X18637028Y661609D01*
X18637028Y661609D02*
X18589409Y709228D01*
X18589409Y709228D02*
X18494171Y756847D01*
X18494171Y756847D02*
X18303695Y756847D01*
X18303695Y756847D02*
X18208457Y709228D01*
X31113220Y-519819D02*
X31113220Y-1329342D01*
X31113220Y-1329342D02*
X31065601Y-1424580D01*
X31065601Y-1424580D02*
X31017982Y-1472200D01*
X31017982Y-1472200D02*
X30922744Y-1519819D01*
X30922744Y-1519819D02*
X30732268Y-1519819D01*
X30732268Y-1519819D02*
X30637030Y-1472200D01*
X30637030Y-1472200D02*
X30589411Y-1424580D01*
X30589411Y-1424580D02*
X30541792Y-1329342D01*
X30541792Y-1329342D02*
X30541792Y-519819D01*
X30113220Y-1472200D02*
X30017982Y-1519819D01*
X30017982Y-1519819D02*
X29827506Y-1519819D01*
X29827506Y-1519819D02*
X29732268Y-1472200D01*
X29732268Y-1472200D02*
X29684649Y-1376961D01*
X29684649Y-1376961D02*
X29684649Y-1329342D01*
X29684649Y-1329342D02*
X29732268Y-1234104D01*
X29732268Y-1234104D02*
X29827506Y-1186485D01*
X29827506Y-1186485D02*
X29970363Y-1186485D01*
X29970363Y-1186485D02*
X30065601Y-1138866D01*
X30065601Y-1138866D02*
X30113220Y-1043628D01*
X30113220Y-1043628D02*
X30113220Y-996009D01*
X30113220Y-996009D02*
X30065601Y-900771D01*
X30065601Y-900771D02*
X29970363Y-853152D01*
X29970363Y-853152D02*
X29827506Y-853152D01*
X29827506Y-853152D02*
X29732268Y-900771D01*
X28875125Y-1472200D02*
X28970363Y-1519819D01*
X28970363Y-1519819D02*
X29160839Y-1519819D01*
X29160839Y-1519819D02*
X29256077Y-1472200D01*
X29256077Y-1472200D02*
X29303696Y-1376961D01*
X29303696Y-1376961D02*
X29303696Y-996009D01*
X29303696Y-996009D02*
X29256077Y-900771D01*
X29256077Y-900771D02*
X29160839Y-853152D01*
X29160839Y-853152D02*
X28970363Y-853152D01*
X28970363Y-853152D02*
X28875125Y-900771D01*
X28875125Y-900771D02*
X28827506Y-996009D01*
X28827506Y-996009D02*
X28827506Y-1091247D01*
X28827506Y-1091247D02*
X29303696Y-1186485D01*
X27351315Y-519819D02*
X27351315Y-1234104D01*
X27351315Y-1234104D02*
X27398934Y-1376961D01*
X27398934Y-1376961D02*
X27494172Y-1472200D01*
X27494172Y-1472200D02*
X27637029Y-1519819D01*
X27637029Y-1519819D02*
X27732267Y-1519819D01*
X26446553Y-853152D02*
X26446553Y-1519819D01*
X26875124Y-853152D02*
X26875124Y-1376961D01*
X26875124Y-1376961D02*
X26827505Y-1472200D01*
X26827505Y-1472200D02*
X26732267Y-1519819D01*
X26732267Y-1519819D02*
X26589410Y-1519819D01*
X26589410Y-1519819D02*
X26494172Y-1472200D01*
X26494172Y-1472200D02*
X26446553Y-1424580D01*
X25970362Y-1519819D02*
X25970362Y-853152D01*
X25970362Y-948390D02*
X25922743Y-900771D01*
X25922743Y-900771D02*
X25827505Y-853152D01*
X25827505Y-853152D02*
X25684648Y-853152D01*
X25684648Y-853152D02*
X25589410Y-900771D01*
X25589410Y-900771D02*
X25541791Y-996009D01*
X25541791Y-996009D02*
X25541791Y-1519819D01*
X25541791Y-996009D02*
X25494172Y-900771D01*
X25494172Y-900771D02*
X25398934Y-853152D01*
X25398934Y-853152D02*
X25256077Y-853152D01*
X25256077Y-853152D02*
X25160838Y-900771D01*
X25160838Y-900771D02*
X25113219Y-996009D01*
X25113219Y-996009D02*
X25113219Y-1519819D01*
X24637029Y-853152D02*
X24637029Y-1853152D01*
X24637029Y-900771D02*
X24541791Y-853152D01*
X24541791Y-853152D02*
X24351315Y-853152D01*
X24351315Y-853152D02*
X24256077Y-900771D01*
X24256077Y-900771D02*
X24208458Y-948390D01*
X24208458Y-948390D02*
X24160839Y-1043628D01*
X24160839Y-1043628D02*
X24160839Y-1329342D01*
X24160839Y-1329342D02*
X24208458Y-1424580D01*
X24208458Y-1424580D02*
X24256077Y-1472200D01*
X24256077Y-1472200D02*
X24351315Y-1519819D01*
X24351315Y-1519819D02*
X24541791Y-1519819D01*
X24541791Y-1519819D02*
X24637029Y-1472200D01*
X23351315Y-1472200D02*
X23446553Y-1519819D01*
X23446553Y-1519819D02*
X23637029Y-1519819D01*
X23637029Y-1519819D02*
X23732267Y-1472200D01*
X23732267Y-1472200D02*
X23779886Y-1376961D01*
X23779886Y-1376961D02*
X23779886Y-996009D01*
X23779886Y-996009D02*
X23732267Y-900771D01*
X23732267Y-900771D02*
X23637029Y-853152D01*
X23637029Y-853152D02*
X23446553Y-853152D01*
X23446553Y-853152D02*
X23351315Y-900771D01*
X23351315Y-900771D02*
X23303696Y-996009D01*
X23303696Y-996009D02*
X23303696Y-1091247D01*
X23303696Y-1091247D02*
X23779886Y-1186485D01*
X22875124Y-1519819D02*
X22875124Y-853152D01*
X22875124Y-1043628D02*
X22827505Y-948390D01*
X22827505Y-948390D02*
X22779886Y-900771D01*
X22779886Y-900771D02*
X22684648Y-853152D01*
X22684648Y-853152D02*
X22589410Y-853152D01*
X22303695Y-1472200D02*
X22208457Y-1519819D01*
X22208457Y-1519819D02*
X22017981Y-1519819D01*
X22017981Y-1519819D02*
X21922743Y-1472200D01*
X21922743Y-1472200D02*
X21875124Y-1376961D01*
X21875124Y-1376961D02*
X21875124Y-1329342D01*
X21875124Y-1329342D02*
X21922743Y-1234104D01*
X21922743Y-1234104D02*
X22017981Y-1186485D01*
X22017981Y-1186485D02*
X22160838Y-1186485D01*
X22160838Y-1186485D02*
X22256076Y-1138866D01*
X22256076Y-1138866D02*
X22303695Y-1043628D01*
X22303695Y-1043628D02*
X22303695Y-996009D01*
X22303695Y-996009D02*
X22256076Y-900771D01*
X22256076Y-900771D02*
X22160838Y-853152D01*
X22160838Y-853152D02*
X22017981Y-853152D01*
X22017981Y-853152D02*
X21922743Y-900771D01*
X17965350Y53280180D02*
X17965350Y53946847D01*
X17965350Y53851609D02*
X17917731Y53899228D01*
X17917731Y53899228D02*
X17822493Y53946847D01*
X17822493Y53946847D02*
X17679636Y53946847D01*
X17679636Y53946847D02*
X17584398Y53899228D01*
X17584398Y53899228D02*
X17536779Y53803990D01*
X17536779Y53803990D02*
X17536779Y53280180D01*
X17536779Y53803990D02*
X17489160Y53899228D01*
X17489160Y53899228D02*
X17393922Y53946847D01*
X17393922Y53946847D02*
X17251065Y53946847D01*
X17251065Y53946847D02*
X17155826Y53899228D01*
X17155826Y53899228D02*
X17108207Y53803990D01*
X17108207Y53803990D02*
X17108207Y53280180D01*
X16203446Y53946847D02*
X16203446Y53280180D01*
X16441541Y54327800D02*
X16679636Y53613514D01*
X16679636Y53613514D02*
X16060589Y53613514D01*
X15536779Y53280180D02*
X15632017Y53327800D01*
X15632017Y53327800D02*
X15679636Y53423038D01*
X15679636Y53423038D02*
X15679636Y54280180D01*
X15155826Y53280180D02*
X15155826Y53946847D01*
X15155826Y54280180D02*
X15203445Y54232561D01*
X15203445Y54232561D02*
X15155826Y54184942D01*
X15155826Y54184942D02*
X15108207Y54232561D01*
X15108207Y54232561D02*
X15155826Y54280180D01*
X15155826Y54280180D02*
X15155826Y54184942D01*
X14774874Y53946847D02*
X14536779Y53280180D01*
X14536779Y53280180D02*
X14298684Y53946847D01*
X13536779Y53327800D02*
X13632017Y53280180D01*
X13632017Y53280180D02*
X13822493Y53280180D01*
X13822493Y53280180D02*
X13917731Y53327800D01*
X13917731Y53327800D02*
X13965350Y53423038D01*
X13965350Y53423038D02*
X13965350Y53803990D01*
X13965350Y53803990D02*
X13917731Y53899228D01*
X13917731Y53899228D02*
X13822493Y53946847D01*
X13822493Y53946847D02*
X13632017Y53946847D01*
X13632017Y53946847D02*
X13536779Y53899228D01*
X13536779Y53899228D02*
X13489160Y53803990D01*
X13489160Y53803990D02*
X13489160Y53708752D01*
X13489160Y53708752D02*
X13965350Y53613514D01*
X15203447Y51717800D02*
X15298685Y51670180D01*
X15298685Y51670180D02*
X15489161Y51670180D01*
X15489161Y51670180D02*
X15584399Y51717800D01*
X15584399Y51717800D02*
X15632018Y51765419D01*
X15632018Y51765419D02*
X15679637Y51860657D01*
X15679637Y51860657D02*
X15679637Y52146371D01*
X15679637Y52146371D02*
X15632018Y52241609D01*
X15632018Y52241609D02*
X15584399Y52289228D01*
X15584399Y52289228D02*
X15489161Y52336847D01*
X15489161Y52336847D02*
X15298685Y52336847D01*
X15298685Y52336847D02*
X15203447Y52289228D01*
X14917732Y52336847D02*
X14536780Y52336847D01*
X14774875Y52670180D02*
X14774875Y51813038D01*
X14774875Y51813038D02*
X14727256Y51717800D01*
X14727256Y51717800D02*
X14632018Y51670180D01*
X14632018Y51670180D02*
X14536780Y51670180D01*
X14203446Y51670180D02*
X14203446Y52336847D01*
X14203446Y52146371D02*
X14155827Y52241609D01*
X14155827Y52241609D02*
X14108208Y52289228D01*
X14108208Y52289228D02*
X14012970Y52336847D01*
X14012970Y52336847D02*
X13917732Y52336847D01*
X13441541Y51670180D02*
X13536779Y51717800D01*
X13536779Y51717800D02*
X13584398Y51813038D01*
X13584398Y51813038D02*
X13584398Y52670180D01*
X16298683Y50726847D02*
X16060588Y50060180D01*
X16060588Y50060180D02*
X15822493Y50726847D01*
X14917731Y50060180D02*
X15489159Y50060180D01*
X15203445Y50060180D02*
X15203445Y51060180D01*
X15203445Y51060180D02*
X15298683Y50917323D01*
X15298683Y50917323D02*
X15393921Y50822085D01*
X15393921Y50822085D02*
X15489159Y50774466D01*
X14489159Y50155419D02*
X14441540Y50107800D01*
X14441540Y50107800D02*
X14489159Y50060180D01*
X14489159Y50060180D02*
X14536778Y50107800D01*
X14536778Y50107800D02*
X14489159Y50155419D01*
X14489159Y50155419D02*
X14489159Y50060180D01*
X13489160Y50060180D02*
X14060588Y50060180D01*
X13774874Y50060180D02*
X13774874Y51060180D01*
X13774874Y51060180D02*
X13870112Y50917323D01*
X13870112Y50917323D02*
X13965350Y50822085D01*
X13965350Y50822085D02*
X14060588Y50774466D01*
D11*
X31112217Y37328628D02*
X31397931Y37328628D01*
X31397931Y37328628D02*
X31397931Y37928628D01*
X30912217Y37642914D02*
X30712217Y37642914D01*
X30626503Y37328628D02*
X30912217Y37328628D01*
X30912217Y37328628D02*
X30912217Y37928628D01*
X30912217Y37928628D02*
X30626503Y37928628D01*
X30369360Y37328628D02*
X30369360Y37928628D01*
X30369360Y37928628D02*
X30226503Y37928628D01*
X30226503Y37928628D02*
X30140789Y37900057D01*
X30140789Y37900057D02*
X30083646Y37842914D01*
X30083646Y37842914D02*
X30055075Y37785771D01*
X30055075Y37785771D02*
X30026503Y37671485D01*
X30026503Y37671485D02*
X30026503Y37585771D01*
X30026503Y37585771D02*
X30055075Y37471485D01*
X30055075Y37471485D02*
X30083646Y37414342D01*
X30083646Y37414342D02*
X30140789Y37357200D01*
X30140789Y37357200D02*
X30226503Y37328628D01*
X30226503Y37328628D02*
X30369360Y37328628D01*
X29826503Y37928628D02*
X29426503Y37928628D01*
X29426503Y37928628D02*
X29683646Y37328628D01*
D10*
X31038220Y7065180D02*
X31038220Y8065180D01*
X30704887Y7731847D02*
X30323935Y7731847D01*
X30562030Y7065180D02*
X30562030Y7922323D01*
X30562030Y7922323D02*
X30514411Y8017561D01*
X30514411Y8017561D02*
X30419173Y8065180D01*
X30419173Y8065180D02*
X30323935Y8065180D01*
X29276315Y7112800D02*
X29133458Y7065180D01*
X29133458Y7065180D02*
X28895363Y7065180D01*
X28895363Y7065180D02*
X28800125Y7112800D01*
X28800125Y7112800D02*
X28752506Y7160419D01*
X28752506Y7160419D02*
X28704887Y7255657D01*
X28704887Y7255657D02*
X28704887Y7350895D01*
X28704887Y7350895D02*
X28752506Y7446133D01*
X28752506Y7446133D02*
X28800125Y7493752D01*
X28800125Y7493752D02*
X28895363Y7541371D01*
X28895363Y7541371D02*
X29085839Y7588990D01*
X29085839Y7588990D02*
X29181077Y7636609D01*
X29181077Y7636609D02*
X29228696Y7684228D01*
X29228696Y7684228D02*
X29276315Y7779466D01*
X29276315Y7779466D02*
X29276315Y7874704D01*
X29276315Y7874704D02*
X29228696Y7969942D01*
X29228696Y7969942D02*
X29181077Y8017561D01*
X29181077Y8017561D02*
X29085839Y8065180D01*
X29085839Y8065180D02*
X28847744Y8065180D01*
X28847744Y8065180D02*
X28704887Y8017561D01*
X27847744Y7065180D02*
X27847744Y7588990D01*
X27847744Y7588990D02*
X27895363Y7684228D01*
X27895363Y7684228D02*
X27990601Y7731847D01*
X27990601Y7731847D02*
X28181077Y7731847D01*
X28181077Y7731847D02*
X28276315Y7684228D01*
X27847744Y7112800D02*
X27942982Y7065180D01*
X27942982Y7065180D02*
X28181077Y7065180D01*
X28181077Y7065180D02*
X28276315Y7112800D01*
X28276315Y7112800D02*
X28323934Y7208038D01*
X28323934Y7208038D02*
X28323934Y7303276D01*
X28323934Y7303276D02*
X28276315Y7398514D01*
X28276315Y7398514D02*
X28181077Y7446133D01*
X28181077Y7446133D02*
X27942982Y7446133D01*
X27942982Y7446133D02*
X27847744Y7493752D01*
X27514410Y7731847D02*
X27133458Y7731847D01*
X27371553Y8065180D02*
X27371553Y7208038D01*
X27371553Y7208038D02*
X27323934Y7112800D01*
X27323934Y7112800D02*
X27228696Y7065180D01*
X27228696Y7065180D02*
X27133458Y7065180D01*
X26419172Y7112800D02*
X26514410Y7065180D01*
X26514410Y7065180D02*
X26704886Y7065180D01*
X26704886Y7065180D02*
X26800124Y7112800D01*
X26800124Y7112800D02*
X26847743Y7208038D01*
X26847743Y7208038D02*
X26847743Y7588990D01*
X26847743Y7588990D02*
X26800124Y7684228D01*
X26800124Y7684228D02*
X26704886Y7731847D01*
X26704886Y7731847D02*
X26514410Y7731847D01*
X26514410Y7731847D02*
X26419172Y7684228D01*
X26419172Y7684228D02*
X26371553Y7588990D01*
X26371553Y7588990D02*
X26371553Y7493752D01*
X26371553Y7493752D02*
X26847743Y7398514D01*
X25800124Y7065180D02*
X25895362Y7112800D01*
X25895362Y7112800D02*
X25942981Y7208038D01*
X25942981Y7208038D02*
X25942981Y8065180D01*
X25276314Y7065180D02*
X25371552Y7112800D01*
X25371552Y7112800D02*
X25419171Y7208038D01*
X25419171Y7208038D02*
X25419171Y8065180D01*
X24895361Y7065180D02*
X24895361Y7731847D01*
X24895361Y8065180D02*
X24942980Y8017561D01*
X24942980Y8017561D02*
X24895361Y7969942D01*
X24895361Y7969942D02*
X24847742Y8017561D01*
X24847742Y8017561D02*
X24895361Y8065180D01*
X24895361Y8065180D02*
X24895361Y7969942D01*
X24562028Y7731847D02*
X24181076Y7731847D01*
X24419171Y8065180D02*
X24419171Y7208038D01*
X24419171Y7208038D02*
X24371552Y7112800D01*
X24371552Y7112800D02*
X24276314Y7065180D01*
X24276314Y7065180D02*
X24181076Y7065180D01*
X23466790Y7112800D02*
X23562028Y7065180D01*
X23562028Y7065180D02*
X23752504Y7065180D01*
X23752504Y7065180D02*
X23847742Y7112800D01*
X23847742Y7112800D02*
X23895361Y7208038D01*
X23895361Y7208038D02*
X23895361Y7588990D01*
X23895361Y7588990D02*
X23847742Y7684228D01*
X23847742Y7684228D02*
X23752504Y7731847D01*
X23752504Y7731847D02*
X23562028Y7731847D01*
X23562028Y7731847D02*
X23466790Y7684228D01*
X23466790Y7684228D02*
X23419171Y7588990D01*
X23419171Y7588990D02*
X23419171Y7493752D01*
X23419171Y7493752D02*
X23895361Y7398514D01*
X21895361Y7588990D02*
X21752504Y7541371D01*
X21752504Y7541371D02*
X21704885Y7493752D01*
X21704885Y7493752D02*
X21657266Y7398514D01*
X21657266Y7398514D02*
X21657266Y7255657D01*
X21657266Y7255657D02*
X21704885Y7160419D01*
X21704885Y7160419D02*
X21752504Y7112800D01*
X21752504Y7112800D02*
X21847742Y7065180D01*
X21847742Y7065180D02*
X22228694Y7065180D01*
X22228694Y7065180D02*
X22228694Y8065180D01*
X22228694Y8065180D02*
X21895361Y8065180D01*
X21895361Y8065180D02*
X21800123Y8017561D01*
X21800123Y8017561D02*
X21752504Y7969942D01*
X21752504Y7969942D02*
X21704885Y7874704D01*
X21704885Y7874704D02*
X21704885Y7779466D01*
X21704885Y7779466D02*
X21752504Y7684228D01*
X21752504Y7684228D02*
X21800123Y7636609D01*
X21800123Y7636609D02*
X21895361Y7588990D01*
X21895361Y7588990D02*
X22228694Y7588990D01*
X21085837Y7065180D02*
X21181075Y7112800D01*
X21181075Y7112800D02*
X21228694Y7160419D01*
X21228694Y7160419D02*
X21276313Y7255657D01*
X21276313Y7255657D02*
X21276313Y7541371D01*
X21276313Y7541371D02*
X21228694Y7636609D01*
X21228694Y7636609D02*
X21181075Y7684228D01*
X21181075Y7684228D02*
X21085837Y7731847D01*
X21085837Y7731847D02*
X20942980Y7731847D01*
X20942980Y7731847D02*
X20847742Y7684228D01*
X20847742Y7684228D02*
X20800123Y7636609D01*
X20800123Y7636609D02*
X20752504Y7541371D01*
X20752504Y7541371D02*
X20752504Y7255657D01*
X20752504Y7255657D02*
X20800123Y7160419D01*
X20800123Y7160419D02*
X20847742Y7112800D01*
X20847742Y7112800D02*
X20942980Y7065180D01*
X20942980Y7065180D02*
X21085837Y7065180D01*
X19895361Y7065180D02*
X19895361Y7588990D01*
X19895361Y7588990D02*
X19942980Y7684228D01*
X19942980Y7684228D02*
X20038218Y7731847D01*
X20038218Y7731847D02*
X20228694Y7731847D01*
X20228694Y7731847D02*
X20323932Y7684228D01*
X19895361Y7112800D02*
X19990599Y7065180D01*
X19990599Y7065180D02*
X20228694Y7065180D01*
X20228694Y7065180D02*
X20323932Y7112800D01*
X20323932Y7112800D02*
X20371551Y7208038D01*
X20371551Y7208038D02*
X20371551Y7303276D01*
X20371551Y7303276D02*
X20323932Y7398514D01*
X20323932Y7398514D02*
X20228694Y7446133D01*
X20228694Y7446133D02*
X19990599Y7446133D01*
X19990599Y7446133D02*
X19895361Y7493752D01*
X19419170Y7065180D02*
X19419170Y7731847D01*
X19419170Y7541371D02*
X19371551Y7636609D01*
X19371551Y7636609D02*
X19323932Y7684228D01*
X19323932Y7684228D02*
X19228694Y7731847D01*
X19228694Y7731847D02*
X19133456Y7731847D01*
X18371551Y7065180D02*
X18371551Y8065180D01*
X18371551Y7112800D02*
X18466789Y7065180D01*
X18466789Y7065180D02*
X18657265Y7065180D01*
X18657265Y7065180D02*
X18752503Y7112800D01*
X18752503Y7112800D02*
X18800122Y7160419D01*
X18800122Y7160419D02*
X18847741Y7255657D01*
X18847741Y7255657D02*
X18847741Y7541371D01*
X18847741Y7541371D02*
X18800122Y7636609D01*
X18800122Y7636609D02*
X18752503Y7684228D01*
X18752503Y7684228D02*
X18657265Y7731847D01*
X18657265Y7731847D02*
X18466789Y7731847D01*
X18466789Y7731847D02*
X18371551Y7684228D01*
X31038220Y6455180D02*
X31038220Y5645657D01*
X31038220Y5645657D02*
X30990601Y5550419D01*
X30990601Y5550419D02*
X30942982Y5502800D01*
X30942982Y5502800D02*
X30847744Y5455180D01*
X30847744Y5455180D02*
X30657268Y5455180D01*
X30657268Y5455180D02*
X30562030Y5502800D01*
X30562030Y5502800D02*
X30514411Y5550419D01*
X30514411Y5550419D02*
X30466792Y5645657D01*
X30466792Y5645657D02*
X30466792Y6455180D01*
X30038220Y5502800D02*
X29942982Y5455180D01*
X29942982Y5455180D02*
X29752506Y5455180D01*
X29752506Y5455180D02*
X29657268Y5502800D01*
X29657268Y5502800D02*
X29609649Y5598038D01*
X29609649Y5598038D02*
X29609649Y5645657D01*
X29609649Y5645657D02*
X29657268Y5740895D01*
X29657268Y5740895D02*
X29752506Y5788514D01*
X29752506Y5788514D02*
X29895363Y5788514D01*
X29895363Y5788514D02*
X29990601Y5836133D01*
X29990601Y5836133D02*
X30038220Y5931371D01*
X30038220Y5931371D02*
X30038220Y5978990D01*
X30038220Y5978990D02*
X29990601Y6074228D01*
X29990601Y6074228D02*
X29895363Y6121847D01*
X29895363Y6121847D02*
X29752506Y6121847D01*
X29752506Y6121847D02*
X29657268Y6074228D01*
X28800125Y5502800D02*
X28895363Y5455180D01*
X28895363Y5455180D02*
X29085839Y5455180D01*
X29085839Y5455180D02*
X29181077Y5502800D01*
X29181077Y5502800D02*
X29228696Y5598038D01*
X29228696Y5598038D02*
X29228696Y5978990D01*
X29228696Y5978990D02*
X29181077Y6074228D01*
X29181077Y6074228D02*
X29085839Y6121847D01*
X29085839Y6121847D02*
X28895363Y6121847D01*
X28895363Y6121847D02*
X28800125Y6074228D01*
X28800125Y6074228D02*
X28752506Y5978990D01*
X28752506Y5978990D02*
X28752506Y5883752D01*
X28752506Y5883752D02*
X29228696Y5788514D01*
X27276315Y6455180D02*
X27276315Y5740895D01*
X27276315Y5740895D02*
X27323934Y5598038D01*
X27323934Y5598038D02*
X27419172Y5502800D01*
X27419172Y5502800D02*
X27562029Y5455180D01*
X27562029Y5455180D02*
X27657267Y5455180D01*
X26371553Y6121847D02*
X26371553Y5455180D01*
X26800124Y6121847D02*
X26800124Y5598038D01*
X26800124Y5598038D02*
X26752505Y5502800D01*
X26752505Y5502800D02*
X26657267Y5455180D01*
X26657267Y5455180D02*
X26514410Y5455180D01*
X26514410Y5455180D02*
X26419172Y5502800D01*
X26419172Y5502800D02*
X26371553Y5550419D01*
X25895362Y5455180D02*
X25895362Y6121847D01*
X25895362Y6026609D02*
X25847743Y6074228D01*
X25847743Y6074228D02*
X25752505Y6121847D01*
X25752505Y6121847D02*
X25609648Y6121847D01*
X25609648Y6121847D02*
X25514410Y6074228D01*
X25514410Y6074228D02*
X25466791Y5978990D01*
X25466791Y5978990D02*
X25466791Y5455180D01*
X25466791Y5978990D02*
X25419172Y6074228D01*
X25419172Y6074228D02*
X25323934Y6121847D01*
X25323934Y6121847D02*
X25181077Y6121847D01*
X25181077Y6121847D02*
X25085838Y6074228D01*
X25085838Y6074228D02*
X25038219Y5978990D01*
X25038219Y5978990D02*
X25038219Y5455180D01*
X24562029Y6121847D02*
X24562029Y5121847D01*
X24562029Y6074228D02*
X24466791Y6121847D01*
X24466791Y6121847D02*
X24276315Y6121847D01*
X24276315Y6121847D02*
X24181077Y6074228D01*
X24181077Y6074228D02*
X24133458Y6026609D01*
X24133458Y6026609D02*
X24085839Y5931371D01*
X24085839Y5931371D02*
X24085839Y5645657D01*
X24085839Y5645657D02*
X24133458Y5550419D01*
X24133458Y5550419D02*
X24181077Y5502800D01*
X24181077Y5502800D02*
X24276315Y5455180D01*
X24276315Y5455180D02*
X24466791Y5455180D01*
X24466791Y5455180D02*
X24562029Y5502800D01*
X23276315Y5502800D02*
X23371553Y5455180D01*
X23371553Y5455180D02*
X23562029Y5455180D01*
X23562029Y5455180D02*
X23657267Y5502800D01*
X23657267Y5502800D02*
X23704886Y5598038D01*
X23704886Y5598038D02*
X23704886Y5978990D01*
X23704886Y5978990D02*
X23657267Y6074228D01*
X23657267Y6074228D02*
X23562029Y6121847D01*
X23562029Y6121847D02*
X23371553Y6121847D01*
X23371553Y6121847D02*
X23276315Y6074228D01*
X23276315Y6074228D02*
X23228696Y5978990D01*
X23228696Y5978990D02*
X23228696Y5883752D01*
X23228696Y5883752D02*
X23704886Y5788514D01*
X22800124Y5455180D02*
X22800124Y6121847D01*
X22800124Y5931371D02*
X22752505Y6026609D01*
X22752505Y6026609D02*
X22704886Y6074228D01*
X22704886Y6074228D02*
X22609648Y6121847D01*
X22609648Y6121847D02*
X22514410Y6121847D01*
X22228695Y5502800D02*
X22133457Y5455180D01*
X22133457Y5455180D02*
X21942981Y5455180D01*
X21942981Y5455180D02*
X21847743Y5502800D01*
X21847743Y5502800D02*
X21800124Y5598038D01*
X21800124Y5598038D02*
X21800124Y5645657D01*
X21800124Y5645657D02*
X21847743Y5740895D01*
X21847743Y5740895D02*
X21942981Y5788514D01*
X21942981Y5788514D02*
X22085838Y5788514D01*
X22085838Y5788514D02*
X22181076Y5836133D01*
X22181076Y5836133D02*
X22228695Y5931371D01*
X22228695Y5931371D02*
X22228695Y5978990D01*
X22228695Y5978990D02*
X22181076Y6074228D01*
X22181076Y6074228D02*
X22085838Y6121847D01*
X22085838Y6121847D02*
X21942981Y6121847D01*
X21942981Y6121847D02*
X21847743Y6074228D01*
D11*
X19042914Y8269925D02*
X19014342Y8355639D01*
X19014342Y8355639D02*
X18985771Y8384210D01*
X18985771Y8384210D02*
X18928628Y8412782D01*
X18928628Y8412782D02*
X18842914Y8412782D01*
X18842914Y8412782D02*
X18785771Y8384210D01*
X18785771Y8384210D02*
X18757200Y8355639D01*
X18757200Y8355639D02*
X18728628Y8298496D01*
X18728628Y8298496D02*
X18728628Y8069925D01*
X18728628Y8069925D02*
X19328628Y8069925D01*
X19328628Y8069925D02*
X19328628Y8269925D01*
X19328628Y8269925D02*
X19300057Y8327068D01*
X19300057Y8327068D02*
X19271485Y8355639D01*
X19271485Y8355639D02*
X19214342Y8384210D01*
X19214342Y8384210D02*
X19157200Y8384210D01*
X19157200Y8384210D02*
X19100057Y8355639D01*
X19100057Y8355639D02*
X19071485Y8327068D01*
X19071485Y8327068D02*
X19042914Y8269925D01*
X19042914Y8269925D02*
X19042914Y8069925D01*
X19328628Y8584210D02*
X19328628Y8927068D01*
X18728628Y8755639D02*
X19328628Y8755639D01*
X18728628Y9127068D02*
X19328628Y9127068D01*
X19328628Y9127068D02*
X18728628Y9469925D01*
X18728628Y9469925D02*
X19328628Y9469925D01*
X18728628Y10069924D02*
X18728628Y9727067D01*
X18728628Y9898496D02*
X19328628Y9898496D01*
X19328628Y9898496D02*
X19242914Y9841353D01*
X19242914Y9841353D02*
X19185771Y9784210D01*
X19185771Y9784210D02*
X19157200Y9727067D01*
X16709523Y43097009D02*
X16785713Y43135104D01*
X16785713Y43135104D02*
X16899999Y43135104D01*
X16899999Y43135104D02*
X17014285Y43097009D01*
X17014285Y43097009D02*
X17090475Y43020819D01*
X17090475Y43020819D02*
X17128570Y42944628D01*
X17128570Y42944628D02*
X17166666Y42792247D01*
X17166666Y42792247D02*
X17166666Y42677961D01*
X17166666Y42677961D02*
X17128570Y42525580D01*
X17128570Y42525580D02*
X17090475Y42449390D01*
X17090475Y42449390D02*
X17014285Y42373200D01*
X17014285Y42373200D02*
X16899999Y42335104D01*
X16899999Y42335104D02*
X16823808Y42335104D01*
X16823808Y42335104D02*
X16709523Y42373200D01*
X16709523Y42373200D02*
X16671427Y42411295D01*
X16671427Y42411295D02*
X16671427Y42677961D01*
X16671427Y42677961D02*
X16823808Y42677961D01*
X16328570Y42335104D02*
X16328570Y43135104D01*
X16328570Y43135104D02*
X15871427Y42335104D01*
X15871427Y42335104D02*
X15871427Y43135104D01*
X15490475Y42335104D02*
X15490475Y43135104D01*
X15490475Y43135104D02*
X15299999Y43135104D01*
X15299999Y43135104D02*
X15185713Y43097009D01*
X15185713Y43097009D02*
X15109523Y43020819D01*
X15109523Y43020819D02*
X15071428Y42944628D01*
X15071428Y42944628D02*
X15033332Y42792247D01*
X15033332Y42792247D02*
X15033332Y42677961D01*
X15033332Y42677961D02*
X15071428Y42525580D01*
X15071428Y42525580D02*
X15109523Y42449390D01*
X15109523Y42449390D02*
X15185713Y42373200D01*
X15185713Y42373200D02*
X15299999Y42335104D01*
X15299999Y42335104D02*
X15490475Y42335104D01*
X19169361Y-20192800D02*
X19083647Y-20221371D01*
X19083647Y-20221371D02*
X18940789Y-20221371D01*
X18940789Y-20221371D02*
X18883647Y-20192800D01*
X18883647Y-20192800D02*
X18855075Y-20164228D01*
X18855075Y-20164228D02*
X18826504Y-20107085D01*
X18826504Y-20107085D02*
X18826504Y-20049942D01*
X18826504Y-20049942D02*
X18855075Y-19992800D01*
X18855075Y-19992800D02*
X18883647Y-19964228D01*
X18883647Y-19964228D02*
X18940789Y-19935657D01*
X18940789Y-19935657D02*
X19055075Y-19907085D01*
X19055075Y-19907085D02*
X19112218Y-19878514D01*
X19112218Y-19878514D02*
X19140789Y-19849942D01*
X19140789Y-19849942D02*
X19169361Y-19792800D01*
X19169361Y-19792800D02*
X19169361Y-19735657D01*
X19169361Y-19735657D02*
X19140789Y-19678514D01*
X19140789Y-19678514D02*
X19112218Y-19649942D01*
X19112218Y-19649942D02*
X19055075Y-19621371D01*
X19055075Y-19621371D02*
X18912218Y-19621371D01*
X18912218Y-19621371D02*
X18826504Y-19649942D01*
X18226503Y-20164228D02*
X18255075Y-20192800D01*
X18255075Y-20192800D02*
X18340789Y-20221371D01*
X18340789Y-20221371D02*
X18397932Y-20221371D01*
X18397932Y-20221371D02*
X18483646Y-20192800D01*
X18483646Y-20192800D02*
X18540789Y-20135657D01*
X18540789Y-20135657D02*
X18569360Y-20078514D01*
X18569360Y-20078514D02*
X18597932Y-19964228D01*
X18597932Y-19964228D02*
X18597932Y-19878514D01*
X18597932Y-19878514D02*
X18569360Y-19764228D01*
X18569360Y-19764228D02*
X18540789Y-19707085D01*
X18540789Y-19707085D02*
X18483646Y-19649942D01*
X18483646Y-19649942D02*
X18397932Y-19621371D01*
X18397932Y-19621371D02*
X18340789Y-19621371D01*
X18340789Y-19621371D02*
X18255075Y-19649942D01*
X18255075Y-19649942D02*
X18226503Y-19678514D01*
X17683646Y-19621371D02*
X17969360Y-19621371D01*
X17969360Y-19621371D02*
X17997932Y-19907085D01*
X17997932Y-19907085D02*
X17969360Y-19878514D01*
X17969360Y-19878514D02*
X17912218Y-19849942D01*
X17912218Y-19849942D02*
X17769360Y-19849942D01*
X17769360Y-19849942D02*
X17712218Y-19878514D01*
X17712218Y-19878514D02*
X17683646Y-19907085D01*
X17683646Y-19907085D02*
X17655075Y-19964228D01*
X17655075Y-19964228D02*
X17655075Y-20107085D01*
X17655075Y-20107085D02*
X17683646Y-20164228D01*
X17683646Y-20164228D02*
X17712218Y-20192800D01*
X17712218Y-20192800D02*
X17769360Y-20221371D01*
X17769360Y-20221371D02*
X17912218Y-20221371D01*
X17912218Y-20221371D02*
X17969360Y-20192800D01*
X17969360Y-20192800D02*
X17997932Y-20164228D01*
X19092914Y18319925D02*
X19064342Y18405639D01*
X19064342Y18405639D02*
X19035771Y18434210D01*
X19035771Y18434210D02*
X18978628Y18462782D01*
X18978628Y18462782D02*
X18892914Y18462782D01*
X18892914Y18462782D02*
X18835771Y18434210D01*
X18835771Y18434210D02*
X18807200Y18405639D01*
X18807200Y18405639D02*
X18778628Y18348496D01*
X18778628Y18348496D02*
X18778628Y18119925D01*
X18778628Y18119925D02*
X19378628Y18119925D01*
X19378628Y18119925D02*
X19378628Y18319925D01*
X19378628Y18319925D02*
X19350057Y18377068D01*
X19350057Y18377068D02*
X19321485Y18405639D01*
X19321485Y18405639D02*
X19264342Y18434210D01*
X19264342Y18434210D02*
X19207200Y18434210D01*
X19207200Y18434210D02*
X19150057Y18405639D01*
X19150057Y18405639D02*
X19121485Y18377068D01*
X19121485Y18377068D02*
X19092914Y18319925D01*
X19092914Y18319925D02*
X19092914Y18119925D01*
X19378628Y18634210D02*
X19378628Y18977068D01*
X18778628Y18805639D02*
X19378628Y18805639D01*
X18778628Y19177068D02*
X19378628Y19177068D01*
X19378628Y19177068D02*
X18778628Y19519925D01*
X18778628Y19519925D02*
X19378628Y19519925D01*
X19378628Y20091353D02*
X19378628Y19805639D01*
X19378628Y19805639D02*
X19092914Y19777067D01*
X19092914Y19777067D02*
X19121485Y19805639D01*
X19121485Y19805639D02*
X19150057Y19862782D01*
X19150057Y19862782D02*
X19150057Y20005639D01*
X19150057Y20005639D02*
X19121485Y20062782D01*
X19121485Y20062782D02*
X19092914Y20091353D01*
X19092914Y20091353D02*
X19035771Y20119924D01*
X19035771Y20119924D02*
X18892914Y20119924D01*
X18892914Y20119924D02*
X18835771Y20091353D01*
X18835771Y20091353D02*
X18807200Y20062782D01*
X18807200Y20062782D02*
X18778628Y20005639D01*
X18778628Y20005639D02*
X18778628Y19862782D01*
X18778628Y19862782D02*
X18807200Y19805639D01*
X18807200Y19805639D02*
X18835771Y19777067D01*
D10*
X27962030Y39400180D02*
X28438220Y39400180D01*
X28438220Y39400180D02*
X28438220Y40400180D01*
X27247744Y39447800D02*
X27342982Y39400180D01*
X27342982Y39400180D02*
X27533458Y39400180D01*
X27533458Y39400180D02*
X27628696Y39447800D01*
X27628696Y39447800D02*
X27676315Y39543038D01*
X27676315Y39543038D02*
X27676315Y39923990D01*
X27676315Y39923990D02*
X27628696Y40019228D01*
X27628696Y40019228D02*
X27533458Y40066847D01*
X27533458Y40066847D02*
X27342982Y40066847D01*
X27342982Y40066847D02*
X27247744Y40019228D01*
X27247744Y40019228D02*
X27200125Y39923990D01*
X27200125Y39923990D02*
X27200125Y39828752D01*
X27200125Y39828752D02*
X27676315Y39733514D01*
X26342982Y39400180D02*
X26342982Y40400180D01*
X26342982Y39447800D02*
X26438220Y39400180D01*
X26438220Y39400180D02*
X26628696Y39400180D01*
X26628696Y39400180D02*
X26723934Y39447800D01*
X26723934Y39447800D02*
X26771553Y39495419D01*
X26771553Y39495419D02*
X26819172Y39590657D01*
X26819172Y39590657D02*
X26819172Y39876371D01*
X26819172Y39876371D02*
X26771553Y39971609D01*
X26771553Y39971609D02*
X26723934Y40019228D01*
X26723934Y40019228D02*
X26628696Y40066847D01*
X26628696Y40066847D02*
X26438220Y40066847D01*
X26438220Y40066847D02*
X26342982Y40019228D01*
X27914411Y37790180D02*
X28485839Y37790180D01*
X28200125Y37790180D02*
X28200125Y38790180D01*
X28200125Y38790180D02*
X28295363Y38647323D01*
X28295363Y38647323D02*
X28390601Y38552085D01*
X28390601Y38552085D02*
X28485839Y38504466D01*
X27485839Y38171133D02*
X26723935Y38171133D01*
X25771554Y38790180D02*
X26247744Y38790180D01*
X26247744Y38790180D02*
X26295363Y38313990D01*
X26295363Y38313990D02*
X26247744Y38361609D01*
X26247744Y38361609D02*
X26152506Y38409228D01*
X26152506Y38409228D02*
X25914411Y38409228D01*
X25914411Y38409228D02*
X25819173Y38361609D01*
X25819173Y38361609D02*
X25771554Y38313990D01*
X25771554Y38313990D02*
X25723935Y38218752D01*
X25723935Y38218752D02*
X25723935Y37980657D01*
X25723935Y37980657D02*
X25771554Y37885419D01*
X25771554Y37885419D02*
X25819173Y37837800D01*
X25819173Y37837800D02*
X25914411Y37790180D01*
X25914411Y37790180D02*
X26152506Y37790180D01*
X26152506Y37790180D02*
X26247744Y37837800D01*
X26247744Y37837800D02*
X26295363Y37885419D01*
X25247744Y37837800D02*
X25247744Y37790180D01*
X25247744Y37790180D02*
X25295363Y37694942D01*
X25295363Y37694942D02*
X25342982Y37647323D01*
X24866792Y38694942D02*
X24819173Y38742561D01*
X24819173Y38742561D02*
X24723935Y38790180D01*
X24723935Y38790180D02*
X24485840Y38790180D01*
X24485840Y38790180D02*
X24390602Y38742561D01*
X24390602Y38742561D02*
X24342983Y38694942D01*
X24342983Y38694942D02*
X24295364Y38599704D01*
X24295364Y38599704D02*
X24295364Y38504466D01*
X24295364Y38504466D02*
X24342983Y38361609D01*
X24342983Y38361609D02*
X24914411Y37790180D01*
X24914411Y37790180D02*
X24295364Y37790180D01*
X23866792Y38171133D02*
X23104888Y38171133D01*
X22200126Y38790180D02*
X22390602Y38790180D01*
X22390602Y38790180D02*
X22485840Y38742561D01*
X22485840Y38742561D02*
X22533459Y38694942D01*
X22533459Y38694942D02*
X22628697Y38552085D01*
X22628697Y38552085D02*
X22676316Y38361609D01*
X22676316Y38361609D02*
X22676316Y37980657D01*
X22676316Y37980657D02*
X22628697Y37885419D01*
X22628697Y37885419D02*
X22581078Y37837800D01*
X22581078Y37837800D02*
X22485840Y37790180D01*
X22485840Y37790180D02*
X22295364Y37790180D01*
X22295364Y37790180D02*
X22200126Y37837800D01*
X22200126Y37837800D02*
X22152507Y37885419D01*
X22152507Y37885419D02*
X22104888Y37980657D01*
X22104888Y37980657D02*
X22104888Y38218752D01*
X22104888Y38218752D02*
X22152507Y38313990D01*
X22152507Y38313990D02*
X22200126Y38361609D01*
X22200126Y38361609D02*
X22295364Y38409228D01*
X22295364Y38409228D02*
X22485840Y38409228D01*
X22485840Y38409228D02*
X22581078Y38361609D01*
X22581078Y38361609D02*
X22628697Y38313990D01*
X22628697Y38313990D02*
X22676316Y38218752D01*
X21628697Y37837800D02*
X21628697Y37790180D01*
X21628697Y37790180D02*
X21676316Y37694942D01*
X21676316Y37694942D02*
X21723935Y37647323D01*
X28533458Y37180180D02*
X27914411Y37180180D01*
X27914411Y37180180D02*
X28247744Y36799228D01*
X28247744Y36799228D02*
X28104887Y36799228D01*
X28104887Y36799228D02*
X28009649Y36751609D01*
X28009649Y36751609D02*
X27962030Y36703990D01*
X27962030Y36703990D02*
X27914411Y36608752D01*
X27914411Y36608752D02*
X27914411Y36370657D01*
X27914411Y36370657D02*
X27962030Y36275419D01*
X27962030Y36275419D02*
X28009649Y36227800D01*
X28009649Y36227800D02*
X28104887Y36180180D01*
X28104887Y36180180D02*
X28390601Y36180180D01*
X28390601Y36180180D02*
X28485839Y36227800D01*
X28485839Y36227800D02*
X28533458Y36275419D01*
X27485839Y36561133D02*
X26723935Y36561133D01*
X26342982Y37180180D02*
X25676316Y37180180D01*
X25676316Y37180180D02*
X26104887Y36180180D01*
X25247744Y36227800D02*
X25247744Y36180180D01*
X25247744Y36180180D02*
X25295363Y36084942D01*
X25295363Y36084942D02*
X25342982Y36037323D01*
X24390602Y36846847D02*
X24390602Y36180180D01*
X24628697Y37227800D02*
X24866792Y36513514D01*
X24866792Y36513514D02*
X24247745Y36513514D01*
X23866792Y36561133D02*
X23104888Y36561133D01*
X22485840Y36751609D02*
X22581078Y36799228D01*
X22581078Y36799228D02*
X22628697Y36846847D01*
X22628697Y36846847D02*
X22676316Y36942085D01*
X22676316Y36942085D02*
X22676316Y36989704D01*
X22676316Y36989704D02*
X22628697Y37084942D01*
X22628697Y37084942D02*
X22581078Y37132561D01*
X22581078Y37132561D02*
X22485840Y37180180D01*
X22485840Y37180180D02*
X22295364Y37180180D01*
X22295364Y37180180D02*
X22200126Y37132561D01*
X22200126Y37132561D02*
X22152507Y37084942D01*
X22152507Y37084942D02*
X22104888Y36989704D01*
X22104888Y36989704D02*
X22104888Y36942085D01*
X22104888Y36942085D02*
X22152507Y36846847D01*
X22152507Y36846847D02*
X22200126Y36799228D01*
X22200126Y36799228D02*
X22295364Y36751609D01*
X22295364Y36751609D02*
X22485840Y36751609D01*
X22485840Y36751609D02*
X22581078Y36703990D01*
X22581078Y36703990D02*
X22628697Y36656371D01*
X22628697Y36656371D02*
X22676316Y36561133D01*
X22676316Y36561133D02*
X22676316Y36370657D01*
X22676316Y36370657D02*
X22628697Y36275419D01*
X22628697Y36275419D02*
X22581078Y36227800D01*
X22581078Y36227800D02*
X22485840Y36180180D01*
X22485840Y36180180D02*
X22295364Y36180180D01*
X22295364Y36180180D02*
X22200126Y36227800D01*
X22200126Y36227800D02*
X22152507Y36275419D01*
X22152507Y36275419D02*
X22104888Y36370657D01*
X22104888Y36370657D02*
X22104888Y36561133D01*
X22104888Y36561133D02*
X22152507Y36656371D01*
X22152507Y36656371D02*
X22200126Y36703990D01*
X22200126Y36703990D02*
X22295364Y36751609D01*
D11*
X19378628Y38687782D02*
X19378628Y38402068D01*
X19378628Y38402068D02*
X19978628Y38402068D01*
X19692914Y38887782D02*
X19692914Y39087782D01*
X19378628Y39173496D02*
X19378628Y38887782D01*
X19378628Y38887782D02*
X19978628Y38887782D01*
X19978628Y38887782D02*
X19978628Y39173496D01*
X19378628Y39430639D02*
X19978628Y39430639D01*
X19978628Y39430639D02*
X19978628Y39573496D01*
X19978628Y39573496D02*
X19950057Y39659210D01*
X19950057Y39659210D02*
X19892914Y39716353D01*
X19892914Y39716353D02*
X19835771Y39744924D01*
X19835771Y39744924D02*
X19721485Y39773496D01*
X19721485Y39773496D02*
X19635771Y39773496D01*
X19635771Y39773496D02*
X19521485Y39744924D01*
X19521485Y39744924D02*
X19464342Y39716353D01*
X19464342Y39716353D02*
X19407200Y39659210D01*
X19407200Y39659210D02*
X19378628Y39573496D01*
X19378628Y39573496D02*
X19378628Y39430639D01*
X19978628Y40316353D02*
X19978628Y40030639D01*
X19978628Y40030639D02*
X19692914Y40002067D01*
X19692914Y40002067D02*
X19721485Y40030639D01*
X19721485Y40030639D02*
X19750057Y40087782D01*
X19750057Y40087782D02*
X19750057Y40230639D01*
X19750057Y40230639D02*
X19721485Y40287782D01*
X19721485Y40287782D02*
X19692914Y40316353D01*
X19692914Y40316353D02*
X19635771Y40344924D01*
X19635771Y40344924D02*
X19492914Y40344924D01*
X19492914Y40344924D02*
X19435771Y40316353D01*
X19435771Y40316353D02*
X19407200Y40287782D01*
X19407200Y40287782D02*
X19378628Y40230639D01*
X19378628Y40230639D02*
X19378628Y40087782D01*
X19378628Y40087782D02*
X19407200Y40030639D01*
X19407200Y40030639D02*
X19435771Y40002067D01*
D10*
X29945180Y-18617732D02*
X29230895Y-18617732D01*
X29230895Y-18617732D02*
X29088038Y-18665351D01*
X29088038Y-18665351D02*
X28992800Y-18760589D01*
X28992800Y-18760589D02*
X28945180Y-18903446D01*
X28945180Y-18903446D02*
X28945180Y-18998684D01*
X29611847Y-17712970D02*
X28945180Y-17712970D01*
X29611847Y-18141541D02*
X29088038Y-18141541D01*
X29088038Y-18141541D02*
X28992800Y-18093922D01*
X28992800Y-18093922D02*
X28945180Y-17998684D01*
X28945180Y-17998684D02*
X28945180Y-17855827D01*
X28945180Y-17855827D02*
X28992800Y-17760589D01*
X28992800Y-17760589D02*
X29040419Y-17712970D01*
X28945180Y-17236779D02*
X29611847Y-17236779D01*
X29516609Y-17236779D02*
X29564228Y-17189160D01*
X29564228Y-17189160D02*
X29611847Y-17093922D01*
X29611847Y-17093922D02*
X29611847Y-16951065D01*
X29611847Y-16951065D02*
X29564228Y-16855827D01*
X29564228Y-16855827D02*
X29468990Y-16808208D01*
X29468990Y-16808208D02*
X28945180Y-16808208D01*
X29468990Y-16808208D02*
X29564228Y-16760589D01*
X29564228Y-16760589D02*
X29611847Y-16665351D01*
X29611847Y-16665351D02*
X29611847Y-16522494D01*
X29611847Y-16522494D02*
X29564228Y-16427255D01*
X29564228Y-16427255D02*
X29468990Y-16379636D01*
X29468990Y-16379636D02*
X28945180Y-16379636D01*
X29611847Y-15903446D02*
X28611847Y-15903446D01*
X29564228Y-15903446D02*
X29611847Y-15808208D01*
X29611847Y-15808208D02*
X29611847Y-15617732D01*
X29611847Y-15617732D02*
X29564228Y-15522494D01*
X29564228Y-15522494D02*
X29516609Y-15474875D01*
X29516609Y-15474875D02*
X29421371Y-15427256D01*
X29421371Y-15427256D02*
X29135657Y-15427256D01*
X29135657Y-15427256D02*
X29040419Y-15474875D01*
X29040419Y-15474875D02*
X28992800Y-15522494D01*
X28992800Y-15522494D02*
X28945180Y-15617732D01*
X28945180Y-15617732D02*
X28945180Y-15808208D01*
X28945180Y-15808208D02*
X28992800Y-15903446D01*
X28992800Y-14617732D02*
X28945180Y-14712970D01*
X28945180Y-14712970D02*
X28945180Y-14903446D01*
X28945180Y-14903446D02*
X28992800Y-14998684D01*
X28992800Y-14998684D02*
X29088038Y-15046303D01*
X29088038Y-15046303D02*
X29468990Y-15046303D01*
X29468990Y-15046303D02*
X29564228Y-14998684D01*
X29564228Y-14998684D02*
X29611847Y-14903446D01*
X29611847Y-14903446D02*
X29611847Y-14712970D01*
X29611847Y-14712970D02*
X29564228Y-14617732D01*
X29564228Y-14617732D02*
X29468990Y-14570113D01*
X29468990Y-14570113D02*
X29373752Y-14570113D01*
X29373752Y-14570113D02*
X29278514Y-15046303D01*
X28945180Y-14141541D02*
X29611847Y-14141541D01*
X29421371Y-14141541D02*
X29516609Y-14093922D01*
X29516609Y-14093922D02*
X29564228Y-14046303D01*
X29564228Y-14046303D02*
X29611847Y-13951065D01*
X29611847Y-13951065D02*
X29611847Y-13855827D01*
X29611847Y-12855826D02*
X28945180Y-12665350D01*
X28945180Y-12665350D02*
X29421371Y-12474874D01*
X29421371Y-12474874D02*
X28945180Y-12284398D01*
X28945180Y-12284398D02*
X29611847Y-12093922D01*
X28945180Y-11712969D02*
X29611847Y-11712969D01*
X29945180Y-11712969D02*
X29897561Y-11760588D01*
X29897561Y-11760588D02*
X29849942Y-11712969D01*
X29849942Y-11712969D02*
X29897561Y-11665350D01*
X29897561Y-11665350D02*
X29945180Y-11712969D01*
X29945180Y-11712969D02*
X29849942Y-11712969D01*
X28945180Y-11236779D02*
X29611847Y-11236779D01*
X29421371Y-11236779D02*
X29516609Y-11189160D01*
X29516609Y-11189160D02*
X29564228Y-11141541D01*
X29564228Y-11141541D02*
X29611847Y-11046303D01*
X29611847Y-11046303D02*
X29611847Y-10951065D01*
X28992800Y-10236779D02*
X28945180Y-10332017D01*
X28945180Y-10332017D02*
X28945180Y-10522493D01*
X28945180Y-10522493D02*
X28992800Y-10617731D01*
X28992800Y-10617731D02*
X29088038Y-10665350D01*
X29088038Y-10665350D02*
X29468990Y-10665350D01*
X29468990Y-10665350D02*
X29564228Y-10617731D01*
X29564228Y-10617731D02*
X29611847Y-10522493D01*
X29611847Y-10522493D02*
X29611847Y-10332017D01*
X29611847Y-10332017D02*
X29564228Y-10236779D01*
X29564228Y-10236779D02*
X29468990Y-10189160D01*
X29468990Y-10189160D02*
X29373752Y-10189160D01*
X29373752Y-10189160D02*
X29278514Y-10665350D01*
X27382800Y-18665350D02*
X27335180Y-18522493D01*
X27335180Y-18522493D02*
X27335180Y-18284398D01*
X27335180Y-18284398D02*
X27382800Y-18189160D01*
X27382800Y-18189160D02*
X27430419Y-18141541D01*
X27430419Y-18141541D02*
X27525657Y-18093922D01*
X27525657Y-18093922D02*
X27620895Y-18093922D01*
X27620895Y-18093922D02*
X27716133Y-18141541D01*
X27716133Y-18141541D02*
X27763752Y-18189160D01*
X27763752Y-18189160D02*
X27811371Y-18284398D01*
X27811371Y-18284398D02*
X27858990Y-18474874D01*
X27858990Y-18474874D02*
X27906609Y-18570112D01*
X27906609Y-18570112D02*
X27954228Y-18617731D01*
X27954228Y-18617731D02*
X28049466Y-18665350D01*
X28049466Y-18665350D02*
X28144704Y-18665350D01*
X28144704Y-18665350D02*
X28239942Y-18617731D01*
X28239942Y-18617731D02*
X28287561Y-18570112D01*
X28287561Y-18570112D02*
X28335180Y-18474874D01*
X28335180Y-18474874D02*
X28335180Y-18236779D01*
X28335180Y-18236779D02*
X28287561Y-18093922D01*
X27335180Y-17665350D02*
X28335180Y-17665350D01*
X28335180Y-17665350D02*
X28335180Y-17427255D01*
X28335180Y-17427255D02*
X28287561Y-17284398D01*
X28287561Y-17284398D02*
X28192323Y-17189160D01*
X28192323Y-17189160D02*
X28097085Y-17141541D01*
X28097085Y-17141541D02*
X27906609Y-17093922D01*
X27906609Y-17093922D02*
X27763752Y-17093922D01*
X27763752Y-17093922D02*
X27573276Y-17141541D01*
X27573276Y-17141541D02*
X27478038Y-17189160D01*
X27478038Y-17189160D02*
X27382800Y-17284398D01*
X27382800Y-17284398D02*
X27335180Y-17427255D01*
X27335180Y-17427255D02*
X27335180Y-17665350D01*
X28382800Y-15951065D02*
X27097085Y-16808207D01*
X27382800Y-15665350D02*
X27335180Y-15522493D01*
X27335180Y-15522493D02*
X27335180Y-15284398D01*
X27335180Y-15284398D02*
X27382800Y-15189160D01*
X27382800Y-15189160D02*
X27430419Y-15141541D01*
X27430419Y-15141541D02*
X27525657Y-15093922D01*
X27525657Y-15093922D02*
X27620895Y-15093922D01*
X27620895Y-15093922D02*
X27716133Y-15141541D01*
X27716133Y-15141541D02*
X27763752Y-15189160D01*
X27763752Y-15189160D02*
X27811371Y-15284398D01*
X27811371Y-15284398D02*
X27858990Y-15474874D01*
X27858990Y-15474874D02*
X27906609Y-15570112D01*
X27906609Y-15570112D02*
X27954228Y-15617731D01*
X27954228Y-15617731D02*
X28049466Y-15665350D01*
X28049466Y-15665350D02*
X28144704Y-15665350D01*
X28144704Y-15665350D02*
X28239942Y-15617731D01*
X28239942Y-15617731D02*
X28287561Y-15570112D01*
X28287561Y-15570112D02*
X28335180Y-15474874D01*
X28335180Y-15474874D02*
X28335180Y-15236779D01*
X28335180Y-15236779D02*
X28287561Y-15093922D01*
X27430419Y-14093922D02*
X27382800Y-14141541D01*
X27382800Y-14141541D02*
X27335180Y-14284398D01*
X27335180Y-14284398D02*
X27335180Y-14379636D01*
X27335180Y-14379636D02*
X27382800Y-14522493D01*
X27382800Y-14522493D02*
X27478038Y-14617731D01*
X27478038Y-14617731D02*
X27573276Y-14665350D01*
X27573276Y-14665350D02*
X27763752Y-14712969D01*
X27763752Y-14712969D02*
X27906609Y-14712969D01*
X27906609Y-14712969D02*
X28097085Y-14665350D01*
X28097085Y-14665350D02*
X28192323Y-14617731D01*
X28192323Y-14617731D02*
X28287561Y-14522493D01*
X28287561Y-14522493D02*
X28335180Y-14379636D01*
X28335180Y-14379636D02*
X28335180Y-14284398D01*
X28335180Y-14284398D02*
X28287561Y-14141541D01*
X28287561Y-14141541D02*
X28239942Y-14093922D01*
X28335180Y-12712969D02*
X28335180Y-12617731D01*
X28335180Y-12617731D02*
X28287561Y-12522493D01*
X28287561Y-12522493D02*
X28239942Y-12474874D01*
X28239942Y-12474874D02*
X28144704Y-12427255D01*
X28144704Y-12427255D02*
X27954228Y-12379636D01*
X27954228Y-12379636D02*
X27716133Y-12379636D01*
X27716133Y-12379636D02*
X27525657Y-12427255D01*
X27525657Y-12427255D02*
X27430419Y-12474874D01*
X27430419Y-12474874D02*
X27382800Y-12522493D01*
X27382800Y-12522493D02*
X27335180Y-12617731D01*
X27335180Y-12617731D02*
X27335180Y-12712969D01*
X27335180Y-12712969D02*
X27382800Y-12808207D01*
X27382800Y-12808207D02*
X27430419Y-12855826D01*
X27430419Y-12855826D02*
X27525657Y-12903445D01*
X27525657Y-12903445D02*
X27716133Y-12951064D01*
X27716133Y-12951064D02*
X27954228Y-12951064D01*
X27954228Y-12951064D02*
X28144704Y-12903445D01*
X28144704Y-12903445D02*
X28239942Y-12855826D01*
X28239942Y-12855826D02*
X28287561Y-12808207D01*
X28287561Y-12808207D02*
X28335180Y-12712969D01*
X27716133Y-11951064D02*
X27716133Y-11189160D01*
X28001847Y-10284398D02*
X27335180Y-10284398D01*
X28382800Y-10522493D02*
X27668514Y-10760588D01*
X27668514Y-10760588D02*
X27668514Y-10141541D01*
X25725180Y-12379636D02*
X25725180Y-12951064D01*
X25725180Y-12665350D02*
X26725180Y-12665350D01*
X26725180Y-12665350D02*
X26582323Y-12760588D01*
X26582323Y-12760588D02*
X26487085Y-12855826D01*
X26487085Y-12855826D02*
X26439466Y-12951064D01*
X26106133Y-11951064D02*
X26106133Y-11189160D01*
X26725180Y-10236779D02*
X26725180Y-10712969D01*
X26725180Y-10712969D02*
X26248990Y-10760588D01*
X26248990Y-10760588D02*
X26296609Y-10712969D01*
X26296609Y-10712969D02*
X26344228Y-10617731D01*
X26344228Y-10617731D02*
X26344228Y-10379636D01*
X26344228Y-10379636D02*
X26296609Y-10284398D01*
X26296609Y-10284398D02*
X26248990Y-10236779D01*
X26248990Y-10236779D02*
X26153752Y-10189160D01*
X26153752Y-10189160D02*
X25915657Y-10189160D01*
X25915657Y-10189160D02*
X25820419Y-10236779D01*
X25820419Y-10236779D02*
X25772800Y-10284398D01*
X25772800Y-10284398D02*
X25725180Y-10379636D01*
X25725180Y-10379636D02*
X25725180Y-10617731D01*
X25725180Y-10617731D02*
X25772800Y-10712969D01*
X25772800Y-10712969D02*
X25820419Y-10760588D01*
X25019942Y-12951064D02*
X25067561Y-12903445D01*
X25067561Y-12903445D02*
X25115180Y-12808207D01*
X25115180Y-12808207D02*
X25115180Y-12570112D01*
X25115180Y-12570112D02*
X25067561Y-12474874D01*
X25067561Y-12474874D02*
X25019942Y-12427255D01*
X25019942Y-12427255D02*
X24924704Y-12379636D01*
X24924704Y-12379636D02*
X24829466Y-12379636D01*
X24829466Y-12379636D02*
X24686609Y-12427255D01*
X24686609Y-12427255D02*
X24115180Y-12998683D01*
X24115180Y-12998683D02*
X24115180Y-12379636D01*
X24496133Y-11951064D02*
X24496133Y-11189160D01*
X25115180Y-10284398D02*
X25115180Y-10474874D01*
X25115180Y-10474874D02*
X25067561Y-10570112D01*
X25067561Y-10570112D02*
X25019942Y-10617731D01*
X25019942Y-10617731D02*
X24877085Y-10712969D01*
X24877085Y-10712969D02*
X24686609Y-10760588D01*
X24686609Y-10760588D02*
X24305657Y-10760588D01*
X24305657Y-10760588D02*
X24210419Y-10712969D01*
X24210419Y-10712969D02*
X24162800Y-10665350D01*
X24162800Y-10665350D02*
X24115180Y-10570112D01*
X24115180Y-10570112D02*
X24115180Y-10379636D01*
X24115180Y-10379636D02*
X24162800Y-10284398D01*
X24162800Y-10284398D02*
X24210419Y-10236779D01*
X24210419Y-10236779D02*
X24305657Y-10189160D01*
X24305657Y-10189160D02*
X24543752Y-10189160D01*
X24543752Y-10189160D02*
X24638990Y-10236779D01*
X24638990Y-10236779D02*
X24686609Y-10284398D01*
X24686609Y-10284398D02*
X24734228Y-10379636D01*
X24734228Y-10379636D02*
X24734228Y-10570112D01*
X24734228Y-10570112D02*
X24686609Y-10665350D01*
X24686609Y-10665350D02*
X24638990Y-10712969D01*
X24638990Y-10712969D02*
X24543752Y-10760588D01*
X23505180Y-12998683D02*
X23505180Y-12379636D01*
X23505180Y-12379636D02*
X23124228Y-12712969D01*
X23124228Y-12712969D02*
X23124228Y-12570112D01*
X23124228Y-12570112D02*
X23076609Y-12474874D01*
X23076609Y-12474874D02*
X23028990Y-12427255D01*
X23028990Y-12427255D02*
X22933752Y-12379636D01*
X22933752Y-12379636D02*
X22695657Y-12379636D01*
X22695657Y-12379636D02*
X22600419Y-12427255D01*
X22600419Y-12427255D02*
X22552800Y-12474874D01*
X22552800Y-12474874D02*
X22505180Y-12570112D01*
X22505180Y-12570112D02*
X22505180Y-12855826D01*
X22505180Y-12855826D02*
X22552800Y-12951064D01*
X22552800Y-12951064D02*
X22600419Y-12998683D01*
X22886133Y-11951064D02*
X22886133Y-11189160D01*
X23505180Y-10808207D02*
X23505180Y-10141541D01*
X23505180Y-10141541D02*
X22505180Y-10570112D01*
D11*
X31087217Y34853628D02*
X31372931Y34853628D01*
X31372931Y34853628D02*
X31372931Y35453628D01*
X30887217Y35167914D02*
X30687217Y35167914D01*
X30601503Y34853628D02*
X30887217Y34853628D01*
X30887217Y34853628D02*
X30887217Y35453628D01*
X30887217Y35453628D02*
X30601503Y35453628D01*
X30344360Y34853628D02*
X30344360Y35453628D01*
X30344360Y35453628D02*
X30201503Y35453628D01*
X30201503Y35453628D02*
X30115789Y35425057D01*
X30115789Y35425057D02*
X30058646Y35367914D01*
X30058646Y35367914D02*
X30030075Y35310771D01*
X30030075Y35310771D02*
X30001503Y35196485D01*
X30001503Y35196485D02*
X30001503Y35110771D01*
X30001503Y35110771D02*
X30030075Y34996485D01*
X30030075Y34996485D02*
X30058646Y34939342D01*
X30058646Y34939342D02*
X30115789Y34882200D01*
X30115789Y34882200D02*
X30201503Y34853628D01*
X30201503Y34853628D02*
X30344360Y34853628D01*
X29487218Y35453628D02*
X29601503Y35453628D01*
X29601503Y35453628D02*
X29658646Y35425057D01*
X29658646Y35425057D02*
X29687218Y35396485D01*
X29687218Y35396485D02*
X29744360Y35310771D01*
X29744360Y35310771D02*
X29772932Y35196485D01*
X29772932Y35196485D02*
X29772932Y34967914D01*
X29772932Y34967914D02*
X29744360Y34910771D01*
X29744360Y34910771D02*
X29715789Y34882200D01*
X29715789Y34882200D02*
X29658646Y34853628D01*
X29658646Y34853628D02*
X29544360Y34853628D01*
X29544360Y34853628D02*
X29487218Y34882200D01*
X29487218Y34882200D02*
X29458646Y34910771D01*
X29458646Y34910771D02*
X29430075Y34967914D01*
X29430075Y34967914D02*
X29430075Y35110771D01*
X29430075Y35110771D02*
X29458646Y35167914D01*
X29458646Y35167914D02*
X29487218Y35196485D01*
X29487218Y35196485D02*
X29544360Y35225057D01*
X29544360Y35225057D02*
X29658646Y35225057D01*
X29658646Y35225057D02*
X29715789Y35196485D01*
X29715789Y35196485D02*
X29744360Y35167914D01*
X29744360Y35167914D02*
X29772932Y35110771D01*
X30857200Y25591352D02*
X30828628Y25677067D01*
X30828628Y25677067D02*
X30828628Y25819924D01*
X30828628Y25819924D02*
X30857200Y25877067D01*
X30857200Y25877067D02*
X30885771Y25905638D01*
X30885771Y25905638D02*
X30942914Y25934209D01*
X30942914Y25934209D02*
X31000057Y25934209D01*
X31000057Y25934209D02*
X31057200Y25905638D01*
X31057200Y25905638D02*
X31085771Y25877067D01*
X31085771Y25877067D02*
X31114342Y25819924D01*
X31114342Y25819924D02*
X31142914Y25705638D01*
X31142914Y25705638D02*
X31171485Y25648495D01*
X31171485Y25648495D02*
X31200057Y25619924D01*
X31200057Y25619924D02*
X31257200Y25591352D01*
X31257200Y25591352D02*
X31314342Y25591352D01*
X31314342Y25591352D02*
X31371485Y25619924D01*
X31371485Y25619924D02*
X31400057Y25648495D01*
X31400057Y25648495D02*
X31428628Y25705638D01*
X31428628Y25705638D02*
X31428628Y25848495D01*
X31428628Y25848495D02*
X31400057Y25934209D01*
X30828628Y26191353D02*
X31428628Y26191353D01*
X31428628Y26191353D02*
X31428628Y26334210D01*
X31428628Y26334210D02*
X31400057Y26419924D01*
X31400057Y26419924D02*
X31342914Y26477067D01*
X31342914Y26477067D02*
X31285771Y26505638D01*
X31285771Y26505638D02*
X31171485Y26534210D01*
X31171485Y26534210D02*
X31085771Y26534210D01*
X31085771Y26534210D02*
X30971485Y26505638D01*
X30971485Y26505638D02*
X30914342Y26477067D01*
X30914342Y26477067D02*
X30857200Y26419924D01*
X30857200Y26419924D02*
X30828628Y26334210D01*
X30828628Y26334210D02*
X30828628Y26191353D01*
X31000057Y26762781D02*
X31000057Y27048496D01*
X30828628Y26705638D02*
X31428628Y26905638D01*
X31428628Y26905638D02*
X30828628Y27105638D01*
X30828628Y27619924D02*
X30828628Y27277067D01*
X30828628Y27448496D02*
X31428628Y27448496D01*
X31428628Y27448496D02*
X31342914Y27391353D01*
X31342914Y27391353D02*
X31285771Y27334210D01*
X31285771Y27334210D02*
X31257200Y27277067D01*
X30907200Y23191352D02*
X30878628Y23277067D01*
X30878628Y23277067D02*
X30878628Y23419924D01*
X30878628Y23419924D02*
X30907200Y23477067D01*
X30907200Y23477067D02*
X30935771Y23505638D01*
X30935771Y23505638D02*
X30992914Y23534209D01*
X30992914Y23534209D02*
X31050057Y23534209D01*
X31050057Y23534209D02*
X31107200Y23505638D01*
X31107200Y23505638D02*
X31135771Y23477067D01*
X31135771Y23477067D02*
X31164342Y23419924D01*
X31164342Y23419924D02*
X31192914Y23305638D01*
X31192914Y23305638D02*
X31221485Y23248495D01*
X31221485Y23248495D02*
X31250057Y23219924D01*
X31250057Y23219924D02*
X31307200Y23191352D01*
X31307200Y23191352D02*
X31364342Y23191352D01*
X31364342Y23191352D02*
X31421485Y23219924D01*
X31421485Y23219924D02*
X31450057Y23248495D01*
X31450057Y23248495D02*
X31478628Y23305638D01*
X31478628Y23305638D02*
X31478628Y23448495D01*
X31478628Y23448495D02*
X31450057Y23534209D01*
X30878628Y23791353D02*
X31478628Y23791353D01*
X31478628Y23791353D02*
X31478628Y23934210D01*
X31478628Y23934210D02*
X31450057Y24019924D01*
X31450057Y24019924D02*
X31392914Y24077067D01*
X31392914Y24077067D02*
X31335771Y24105638D01*
X31335771Y24105638D02*
X31221485Y24134210D01*
X31221485Y24134210D02*
X31135771Y24134210D01*
X31135771Y24134210D02*
X31021485Y24105638D01*
X31021485Y24105638D02*
X30964342Y24077067D01*
X30964342Y24077067D02*
X30907200Y24019924D01*
X30907200Y24019924D02*
X30878628Y23934210D01*
X30878628Y23934210D02*
X30878628Y23791353D01*
X31050057Y24362781D02*
X31050057Y24648496D01*
X30878628Y24305638D02*
X31478628Y24505638D01*
X31478628Y24505638D02*
X30878628Y24705638D01*
X30878628Y25219924D02*
X30878628Y24877067D01*
X30878628Y25048496D02*
X31478628Y25048496D01*
X31478628Y25048496D02*
X31392914Y24991353D01*
X31392914Y24991353D02*
X31335771Y24934210D01*
X31335771Y24934210D02*
X31307200Y24877067D01*
X19092914Y23419925D02*
X19064342Y23505639D01*
X19064342Y23505639D02*
X19035771Y23534210D01*
X19035771Y23534210D02*
X18978628Y23562782D01*
X18978628Y23562782D02*
X18892914Y23562782D01*
X18892914Y23562782D02*
X18835771Y23534210D01*
X18835771Y23534210D02*
X18807200Y23505639D01*
X18807200Y23505639D02*
X18778628Y23448496D01*
X18778628Y23448496D02*
X18778628Y23219925D01*
X18778628Y23219925D02*
X19378628Y23219925D01*
X19378628Y23219925D02*
X19378628Y23419925D01*
X19378628Y23419925D02*
X19350057Y23477068D01*
X19350057Y23477068D02*
X19321485Y23505639D01*
X19321485Y23505639D02*
X19264342Y23534210D01*
X19264342Y23534210D02*
X19207200Y23534210D01*
X19207200Y23534210D02*
X19150057Y23505639D01*
X19150057Y23505639D02*
X19121485Y23477068D01*
X19121485Y23477068D02*
X19092914Y23419925D01*
X19092914Y23419925D02*
X19092914Y23219925D01*
X19378628Y23734210D02*
X19378628Y24077068D01*
X18778628Y23905639D02*
X19378628Y23905639D01*
X18778628Y24277068D02*
X19378628Y24277068D01*
X19378628Y24277068D02*
X18778628Y24619925D01*
X18778628Y24619925D02*
X19378628Y24619925D01*
X19378628Y24848496D02*
X19378628Y25248496D01*
X19378628Y25248496D02*
X18778628Y24991353D01*
X19092914Y13269925D02*
X19064342Y13355639D01*
X19064342Y13355639D02*
X19035771Y13384210D01*
X19035771Y13384210D02*
X18978628Y13412782D01*
X18978628Y13412782D02*
X18892914Y13412782D01*
X18892914Y13412782D02*
X18835771Y13384210D01*
X18835771Y13384210D02*
X18807200Y13355639D01*
X18807200Y13355639D02*
X18778628Y13298496D01*
X18778628Y13298496D02*
X18778628Y13069925D01*
X18778628Y13069925D02*
X19378628Y13069925D01*
X19378628Y13069925D02*
X19378628Y13269925D01*
X19378628Y13269925D02*
X19350057Y13327068D01*
X19350057Y13327068D02*
X19321485Y13355639D01*
X19321485Y13355639D02*
X19264342Y13384210D01*
X19264342Y13384210D02*
X19207200Y13384210D01*
X19207200Y13384210D02*
X19150057Y13355639D01*
X19150057Y13355639D02*
X19121485Y13327068D01*
X19121485Y13327068D02*
X19092914Y13269925D01*
X19092914Y13269925D02*
X19092914Y13069925D01*
X19378628Y13584210D02*
X19378628Y13927068D01*
X18778628Y13755639D02*
X19378628Y13755639D01*
X18778628Y14127068D02*
X19378628Y14127068D01*
X19378628Y14127068D02*
X18778628Y14469925D01*
X18778628Y14469925D02*
X19378628Y14469925D01*
X19378628Y14698496D02*
X19378628Y15069924D01*
X19378628Y15069924D02*
X19150057Y14869924D01*
X19150057Y14869924D02*
X19150057Y14955639D01*
X19150057Y14955639D02*
X19121485Y15012782D01*
X19121485Y15012782D02*
X19092914Y15041353D01*
X19092914Y15041353D02*
X19035771Y15069924D01*
X19035771Y15069924D02*
X18892914Y15069924D01*
X18892914Y15069924D02*
X18835771Y15041353D01*
X18835771Y15041353D02*
X18807200Y15012782D01*
X18807200Y15012782D02*
X18778628Y14955639D01*
X18778628Y14955639D02*
X18778628Y14784210D01*
X18778628Y14784210D02*
X18807200Y14727067D01*
X18807200Y14727067D02*
X18835771Y14698496D01*
X16839999Y-35620133D02*
X16230476Y-35620133D01*
X16535237Y-35924895D02*
X16535237Y-35315371D01*
X15925714Y-35124895D02*
X15430476Y-35124895D01*
X15430476Y-35124895D02*
X15697142Y-35429657D01*
X15697142Y-35429657D02*
X15582857Y-35429657D01*
X15582857Y-35429657D02*
X15506666Y-35467752D01*
X15506666Y-35467752D02*
X15468571Y-35505847D01*
X15468571Y-35505847D02*
X15430476Y-35582038D01*
X15430476Y-35582038D02*
X15430476Y-35772514D01*
X15430476Y-35772514D02*
X15468571Y-35848704D01*
X15468571Y-35848704D02*
X15506666Y-35886800D01*
X15506666Y-35886800D02*
X15582857Y-35924895D01*
X15582857Y-35924895D02*
X15811428Y-35924895D01*
X15811428Y-35924895D02*
X15887619Y-35886800D01*
X15887619Y-35886800D02*
X15925714Y-35848704D01*
X15087618Y-35848704D02*
X15049523Y-35886800D01*
X15049523Y-35886800D02*
X15087618Y-35924895D01*
X15087618Y-35924895D02*
X15125714Y-35886800D01*
X15125714Y-35886800D02*
X15087618Y-35848704D01*
X15087618Y-35848704D02*
X15087618Y-35924895D01*
X14782857Y-35124895D02*
X14287619Y-35124895D01*
X14287619Y-35124895D02*
X14554285Y-35429657D01*
X14554285Y-35429657D02*
X14440000Y-35429657D01*
X14440000Y-35429657D02*
X14363809Y-35467752D01*
X14363809Y-35467752D02*
X14325714Y-35505847D01*
X14325714Y-35505847D02*
X14287619Y-35582038D01*
X14287619Y-35582038D02*
X14287619Y-35772514D01*
X14287619Y-35772514D02*
X14325714Y-35848704D01*
X14325714Y-35848704D02*
X14363809Y-35886800D01*
X14363809Y-35886800D02*
X14440000Y-35924895D01*
X14440000Y-35924895D02*
X14668571Y-35924895D01*
X14668571Y-35924895D02*
X14744762Y-35886800D01*
X14744762Y-35886800D02*
X14782857Y-35848704D01*
X14059047Y-35124895D02*
X13792380Y-35924895D01*
X13792380Y-35924895D02*
X13525714Y-35124895D01*
X19766666Y-44201895D02*
X19766666Y-44773323D01*
X19766666Y-44773323D02*
X19804761Y-44887609D01*
X19804761Y-44887609D02*
X19880952Y-44963800D01*
X19880952Y-44963800D02*
X19995237Y-45001895D01*
X19995237Y-45001895D02*
X20071428Y-45001895D01*
X19461904Y-44201895D02*
X18966666Y-44201895D01*
X18966666Y-44201895D02*
X19233332Y-44506657D01*
X19233332Y-44506657D02*
X19119047Y-44506657D01*
X19119047Y-44506657D02*
X19042856Y-44544752D01*
X19042856Y-44544752D02*
X19004761Y-44582847D01*
X19004761Y-44582847D02*
X18966666Y-44659038D01*
X18966666Y-44659038D02*
X18966666Y-44849514D01*
X18966666Y-44849514D02*
X19004761Y-44925704D01*
X19004761Y-44925704D02*
X19042856Y-44963800D01*
X19042856Y-44963800D02*
X19119047Y-45001895D01*
X19119047Y-45001895D02*
X19347618Y-45001895D01*
X19347618Y-45001895D02*
X19423809Y-44963800D01*
X19423809Y-44963800D02*
X19461904Y-44925704D01*
X14566666Y-46751895D02*
X14566666Y-47323323D01*
X14566666Y-47323323D02*
X14604761Y-47437609D01*
X14604761Y-47437609D02*
X14680952Y-47513800D01*
X14680952Y-47513800D02*
X14795237Y-47551895D01*
X14795237Y-47551895D02*
X14871428Y-47551895D01*
X13842856Y-46751895D02*
X13995237Y-46751895D01*
X13995237Y-46751895D02*
X14071428Y-46789990D01*
X14071428Y-46789990D02*
X14109523Y-46828085D01*
X14109523Y-46828085D02*
X14185713Y-46942371D01*
X14185713Y-46942371D02*
X14223809Y-47094752D01*
X14223809Y-47094752D02*
X14223809Y-47399514D01*
X14223809Y-47399514D02*
X14185713Y-47475704D01*
X14185713Y-47475704D02*
X14147618Y-47513800D01*
X14147618Y-47513800D02*
X14071428Y-47551895D01*
X14071428Y-47551895D02*
X13919047Y-47551895D01*
X13919047Y-47551895D02*
X13842856Y-47513800D01*
X13842856Y-47513800D02*
X13804761Y-47475704D01*
X13804761Y-47475704D02*
X13766666Y-47399514D01*
X13766666Y-47399514D02*
X13766666Y-47209038D01*
X13766666Y-47209038D02*
X13804761Y-47132847D01*
X13804761Y-47132847D02*
X13842856Y-47094752D01*
X13842856Y-47094752D02*
X13919047Y-47056657D01*
X13919047Y-47056657D02*
X14071428Y-47056657D01*
X14071428Y-47056657D02*
X14147618Y-47094752D01*
X14147618Y-47094752D02*
X14185713Y-47132847D01*
X14185713Y-47132847D02*
X14223809Y-47209038D01*
X35966666Y-46839895D02*
X35966666Y-47411323D01*
X35966666Y-47411323D02*
X36004761Y-47525609D01*
X36004761Y-47525609D02*
X36080952Y-47601800D01*
X36080952Y-47601800D02*
X36195237Y-47639895D01*
X36195237Y-47639895D02*
X36271428Y-47639895D01*
X35547618Y-47639895D02*
X35395237Y-47639895D01*
X35395237Y-47639895D02*
X35319047Y-47601800D01*
X35319047Y-47601800D02*
X35280951Y-47563704D01*
X35280951Y-47563704D02*
X35204761Y-47449419D01*
X35204761Y-47449419D02*
X35166666Y-47297038D01*
X35166666Y-47297038D02*
X35166666Y-46992276D01*
X35166666Y-46992276D02*
X35204761Y-46916085D01*
X35204761Y-46916085D02*
X35242856Y-46877990D01*
X35242856Y-46877990D02*
X35319047Y-46839895D01*
X35319047Y-46839895D02*
X35471428Y-46839895D01*
X35471428Y-46839895D02*
X35547618Y-46877990D01*
X35547618Y-46877990D02*
X35585713Y-46916085D01*
X35585713Y-46916085D02*
X35623809Y-46992276D01*
X35623809Y-46992276D02*
X35623809Y-47182752D01*
X35623809Y-47182752D02*
X35585713Y-47258942D01*
X35585713Y-47258942D02*
X35547618Y-47297038D01*
X35547618Y-47297038D02*
X35471428Y-47335133D01*
X35471428Y-47335133D02*
X35319047Y-47335133D01*
X35319047Y-47335133D02*
X35242856Y-47297038D01*
X35242856Y-47297038D02*
X35204761Y-47258942D01*
X35204761Y-47258942D02*
X35166666Y-47182752D01*
X30866666Y-44251895D02*
X30866666Y-44823323D01*
X30866666Y-44823323D02*
X30904761Y-44937609D01*
X30904761Y-44937609D02*
X30980952Y-45013800D01*
X30980952Y-45013800D02*
X31095237Y-45051895D01*
X31095237Y-45051895D02*
X31171428Y-45051895D01*
X30561904Y-44251895D02*
X30028570Y-44251895D01*
X30028570Y-44251895D02*
X30371428Y-45051895D01*
D10*
X25956189Y1875180D02*
X25956189Y2875180D01*
X24908571Y1970419D02*
X24956190Y1922800D01*
X24956190Y1922800D02*
X25099047Y1875180D01*
X25099047Y1875180D02*
X25194285Y1875180D01*
X25194285Y1875180D02*
X25337142Y1922800D01*
X25337142Y1922800D02*
X25432380Y2018038D01*
X25432380Y2018038D02*
X25479999Y2113276D01*
X25479999Y2113276D02*
X25527618Y2303752D01*
X25527618Y2303752D02*
X25527618Y2446609D01*
X25527618Y2446609D02*
X25479999Y2637085D01*
X25479999Y2637085D02*
X25432380Y2732323D01*
X25432380Y2732323D02*
X25337142Y2827561D01*
X25337142Y2827561D02*
X25194285Y2875180D01*
X25194285Y2875180D02*
X25099047Y2875180D01*
X25099047Y2875180D02*
X24956190Y2827561D01*
X24956190Y2827561D02*
X24908571Y2779942D01*
X23956190Y1875180D02*
X24527618Y1875180D01*
X24241904Y1875180D02*
X24241904Y2875180D01*
X24241904Y2875180D02*
X24337142Y2732323D01*
X24337142Y2732323D02*
X24432380Y2637085D01*
X24432380Y2637085D02*
X24527618Y2589466D01*
X25719523Y50255180D02*
X25719523Y49540895D01*
X25719523Y49540895D02*
X25767142Y49398038D01*
X25767142Y49398038D02*
X25862380Y49302800D01*
X25862380Y49302800D02*
X26005237Y49255180D01*
X26005237Y49255180D02*
X26100475Y49255180D01*
X24719523Y49255180D02*
X25290951Y49255180D01*
X25005237Y49255180D02*
X25005237Y50255180D01*
X25005237Y50255180D02*
X25100475Y50112323D01*
X25100475Y50112323D02*
X25195713Y50017085D01*
X25195713Y50017085D02*
X25290951Y49969466D01*
X23862380Y50255180D02*
X24052856Y50255180D01*
X24052856Y50255180D02*
X24148094Y50207561D01*
X24148094Y50207561D02*
X24195713Y50159942D01*
X24195713Y50159942D02*
X24290951Y50017085D01*
X24290951Y50017085D02*
X24338570Y49826609D01*
X24338570Y49826609D02*
X24338570Y49445657D01*
X24338570Y49445657D02*
X24290951Y49350419D01*
X24290951Y49350419D02*
X24243332Y49302800D01*
X24243332Y49302800D02*
X24148094Y49255180D01*
X24148094Y49255180D02*
X23957618Y49255180D01*
X23957618Y49255180D02*
X23862380Y49302800D01*
X23862380Y49302800D02*
X23814761Y49350419D01*
X23814761Y49350419D02*
X23767142Y49445657D01*
X23767142Y49445657D02*
X23767142Y49683752D01*
X23767142Y49683752D02*
X23814761Y49778990D01*
X23814761Y49778990D02*
X23862380Y49826609D01*
X23862380Y49826609D02*
X23957618Y49874228D01*
X23957618Y49874228D02*
X24148094Y49874228D01*
X24148094Y49874228D02*
X24243332Y49826609D01*
X24243332Y49826609D02*
X24290951Y49778990D01*
X24290951Y49778990D02*
X24338570Y49683752D01*
X25789523Y-36934819D02*
X25789523Y-37649104D01*
X25789523Y-37649104D02*
X25837142Y-37791961D01*
X25837142Y-37791961D02*
X25932380Y-37887200D01*
X25932380Y-37887200D02*
X26075237Y-37934819D01*
X26075237Y-37934819D02*
X26170475Y-37934819D01*
X24789523Y-37934819D02*
X25360951Y-37934819D01*
X25075237Y-37934819D02*
X25075237Y-36934819D01*
X25075237Y-36934819D02*
X25170475Y-37077676D01*
X25170475Y-37077676D02*
X25265713Y-37172914D01*
X25265713Y-37172914D02*
X25360951Y-37220533D01*
X24170475Y-36934819D02*
X24075237Y-36934819D01*
X24075237Y-36934819D02*
X23979999Y-36982438D01*
X23979999Y-36982438D02*
X23932380Y-37030057D01*
X23932380Y-37030057D02*
X23884761Y-37125295D01*
X23884761Y-37125295D02*
X23837142Y-37315771D01*
X23837142Y-37315771D02*
X23837142Y-37553866D01*
X23837142Y-37553866D02*
X23884761Y-37744342D01*
X23884761Y-37744342D02*
X23932380Y-37839580D01*
X23932380Y-37839580D02*
X23979999Y-37887200D01*
X23979999Y-37887200D02*
X24075237Y-37934819D01*
X24075237Y-37934819D02*
X24170475Y-37934819D01*
X24170475Y-37934819D02*
X24265713Y-37887200D01*
X24265713Y-37887200D02*
X24313332Y-37839580D01*
X24313332Y-37839580D02*
X24360951Y-37744342D01*
X24360951Y-37744342D02*
X24408570Y-37553866D01*
X24408570Y-37553866D02*
X24408570Y-37315771D01*
X24408570Y-37315771D02*
X24360951Y-37125295D01*
X24360951Y-37125295D02*
X24313332Y-37030057D01*
X24313332Y-37030057D02*
X24265713Y-36982438D01*
X24265713Y-36982438D02*
X24170475Y-36934819D01*
X25761904Y42245180D02*
X25761904Y41435657D01*
X25761904Y41435657D02*
X25714285Y41340419D01*
X25714285Y41340419D02*
X25666666Y41292800D01*
X25666666Y41292800D02*
X25571428Y41245180D01*
X25571428Y41245180D02*
X25380952Y41245180D01*
X25380952Y41245180D02*
X25285714Y41292800D01*
X25285714Y41292800D02*
X25238095Y41340419D01*
X25238095Y41340419D02*
X25190476Y41435657D01*
X25190476Y41435657D02*
X25190476Y42245180D01*
X24190476Y41245180D02*
X24761904Y41245180D01*
X24476190Y41245180D02*
X24476190Y42245180D01*
X24476190Y42245180D02*
X24571428Y42102323D01*
X24571428Y42102323D02*
X24666666Y42007085D01*
X24666666Y42007085D02*
X24761904Y41959466D01*
D12*
X35200000Y-29330000D02*
X14760000Y-29330000D01*
X35200000Y1390000D02*
X35200000Y-29330000D01*
X31440000Y-29270000D02*
X18520000Y-29270000D01*
X25980000Y1330000D02*
X32710000Y1330000D01*
X17250000Y1330000D02*
X23980000Y1330000D01*
X14760000Y-29330000D02*
X14760000Y1390000D01*
X14760000Y1390000D02*
X35200000Y1390000D01*
X14790000Y43880000D02*
X14790000Y49080000D01*
X35230000Y43880000D02*
X14790000Y43880000D01*
X35230000Y43880000D02*
X35230000Y46480000D01*
X32630000Y46480000D02*
X32630000Y49080000D01*
X35230000Y46480000D02*
X32630000Y46480000D01*
X35230000Y47750000D02*
X35230000Y49080000D01*
X32630000Y49080000D02*
X14790000Y49080000D01*
X35230000Y49080000D02*
X33900000Y49080000D01*
X17300000Y-38100000D02*
X35110000Y-38130000D01*
X17300000Y-38100000D02*
X17300000Y-40700000D01*
X35110000Y-38130000D02*
X35110000Y-43330000D01*
X14640000Y-38140000D02*
X15970000Y-38140000D01*
X14640000Y-39470000D02*
X14640000Y-38140000D01*
X14700000Y-40700000D02*
X17300000Y-40700000D01*
X14700000Y-40730000D02*
X14700000Y-43330000D01*
X14700000Y-43330000D02*
X35110000Y-43330000D01*
D10*
X21190000Y3950000D02*
X21190000Y5220000D01*
X28810000Y3950000D02*
X21190000Y3950000D01*
X16110000Y5220000D02*
X16110000Y40780000D01*
X28810000Y5220000D02*
X28810000Y3950000D01*
X33890000Y5220000D02*
X16110000Y5220000D01*
X16110000Y40780000D02*
X33890000Y40780000D01*
X33890000Y40780000D02*
X33890000Y5220000D01*
%LPC*%
D13*
X22425000Y-45212000D03*
D14*
X20600000Y24250000D03*
X27630000Y11250000D03*
X28220000Y24250000D03*
X25090000Y11250000D03*
X23140000Y24250000D03*
X25680000Y24250000D03*
X22550000Y11250000D03*
D15*
X31500000Y-3000000D03*
X18500000Y-10030000D03*
X31500000Y-10620000D03*
X18500000Y-7490000D03*
X31500000Y-5540000D03*
X31500000Y-8080000D03*
X18500000Y-4950000D03*
D16*
X16375000Y-45212000D03*
X33700000Y-45175000D03*
D14*
X21130000Y53500000D03*
X23670000Y53500000D03*
X26210000Y53500000D03*
X28750000Y53500000D03*
D17*
X27515000Y-45212000D03*
D18*
X24975000Y-46912000D03*
D15*
X31500000Y-28000000D03*
X18500000Y-35030000D03*
X31500000Y-35620000D03*
X18500000Y-32490000D03*
X31500000Y-30540000D03*
X31500000Y-33080000D03*
X18500000Y-29950000D03*
D19*
X33870000Y0D03*
D20*
X33870000Y-2540000D03*
X33870000Y-5080000D03*
X33870000Y-7620000D03*
X33870000Y-10160000D03*
X33870000Y-12700000D03*
X33870000Y-15240000D03*
X33870000Y-17780000D03*
X33870000Y-20320000D03*
X33870000Y-22860000D03*
X33870000Y-25400000D03*
X33870000Y-27940000D03*
X16090000Y-27940000D03*
X16090000Y-25400000D03*
X16090000Y-22860000D03*
X16090000Y-20320000D03*
X16090000Y-17780000D03*
X16090000Y-15240000D03*
X16090000Y-12700000D03*
X16090000Y-10160000D03*
X16090000Y-7620000D03*
X16090000Y-5080000D03*
X16090000Y-2540000D03*
X16090000Y0D03*
D16*
X33900000Y47750000D03*
D21*
X33900000Y45210000D03*
X31360000Y47750000D03*
X31360000Y45210000D03*
X28820000Y47750000D03*
X28820000Y45210000D03*
X26280000Y47750000D03*
X26280000Y45210000D03*
X23740000Y47750000D03*
X23740000Y45210000D03*
X21200000Y47750000D03*
X21200000Y45210000D03*
X18660000Y47750000D03*
X18660000Y45210000D03*
X16120000Y47750000D03*
D16*
X16120000Y45210000D03*
D22*
X16000000Y-42000000D03*
D16*
X16000000Y-39460000D03*
D21*
X18540000Y-42000000D03*
X18540000Y-39460000D03*
X21080000Y-42000000D03*
X21080000Y-39460000D03*
X23620000Y-42000000D03*
X23620000Y-39460000D03*
X26160000Y-42000000D03*
X26160000Y-39460000D03*
X28700000Y-42000000D03*
X28700000Y-39460000D03*
X31240000Y-42000000D03*
X31240000Y-39460000D03*
D16*
X33780000Y-42000000D03*
D21*
X33780000Y-39460000D03*
D23*
X17380000Y6490000D03*
X17380000Y9030000D03*
X17380000Y11570000D03*
X17380000Y14110000D03*
X17380000Y16650000D03*
X17380000Y19190000D03*
X17380000Y21730000D03*
X17380000Y24270000D03*
X17380000Y26810000D03*
X17380000Y29350000D03*
X17380000Y31890000D03*
X17380000Y34430000D03*
X17380000Y36970000D03*
X17380000Y39510000D03*
D24*
X32620000Y39510000D03*
D23*
X32620000Y36970000D03*
X32620000Y34430000D03*
X32620000Y31890000D03*
X32620000Y29350000D03*
X32620000Y26810000D03*
X32620000Y24270000D03*
X32620000Y21730000D03*
X32620000Y19190000D03*
X32620000Y16650000D03*
X32620000Y14110000D03*
X32620000Y11570000D03*
X32620000Y9030000D03*
X32620000Y6490000D03*
%LPD*%
M02*
