G04 #@! TF.GenerationSoftware,KiCad,Pcbnew,7.0.10*
G04 #@! TF.CreationDate,2024-01-13T16:45:33+01:00*
G04 #@! TF.ProjectId,5hp_controller_oled,3568705f-636f-46e7-9472-6f6c6c65725f,rev?*
G04 #@! TF.SameCoordinates,Original*
G04 #@! TF.FileFunction,Soldermask,Top*
G04 #@! TF.FilePolarity,Negative*
%FSLAX46Y46*%
G04 Gerber Fmt 4.6, Leading zero omitted, Abs format (unit mm)*
G04 Created by KiCad (PCBNEW 7.0.10) date 2024-01-13 16:45:33*
%MOMM*%
%LPD*%
G01*
G04 APERTURE LIST*
G04 Aperture macros list*
%AMRoundRect*
0 Rectangle with rounded corners*
0 $1 Rounding radius*
0 $2 $3 $4 $5 $6 $7 $8 $9 X,Y pos of 4 corners*
0 Add a 4 corners polygon primitive as box body*
4,1,4,$2,$3,$4,$5,$6,$7,$8,$9,$2,$3,0*
0 Add four circle primitives for the rounded corners*
1,1,$1+$1,$2,$3*
1,1,$1+$1,$4,$5*
1,1,$1+$1,$6,$7*
1,1,$1+$1,$8,$9*
0 Add four rect primitives between the rounded corners*
20,1,$1+$1,$2,$3,$4,$5,0*
20,1,$1+$1,$4,$5,$6,$7,0*
20,1,$1+$1,$6,$7,$8,$9,0*
20,1,$1+$1,$8,$9,$2,$3,0*%
G04 Aperture macros list end*
%ADD10RoundRect,0.237500X0.237500X-0.250000X0.237500X0.250000X-0.237500X0.250000X-0.237500X-0.250000X0*%
%ADD11R,1.700000X2.000000*%
%ADD12O,1.600000X2.000000*%
%ADD13O,2.000000X1.600000*%
%ADD14R,1.700000X1.700000*%
%ADD15R,2.000000X2.000000*%
%ADD16O,2.000000X3.400000*%
%ADD17R,1.600000X1.600000*%
%ADD18O,1.600000X1.600000*%
%ADD19O,1.700000X1.700000*%
%ADD20C,1.700000*%
%ADD21C,1.600000*%
%ADD22C,1.404000*%
G04 APERTURE END LIST*
D10*
X13600000Y-45800000D03*
X13600000Y-43975000D03*
D11*
X22425000Y-45212000D03*
D12*
X20600000Y24250000D03*
X27630000Y11250000D03*
X28220000Y24250000D03*
X25090000Y11250000D03*
X23140000Y24250000D03*
X25680000Y24250000D03*
X22550000Y11250000D03*
D13*
X31500000Y-3000000D03*
X18500000Y-10030000D03*
X31500000Y-10620000D03*
X18500000Y-7490000D03*
X31500000Y-5540000D03*
X31500000Y-8080000D03*
X18500000Y-4950000D03*
D14*
X16375000Y-45212000D03*
X33700000Y-45175000D03*
D12*
X21130000Y53500000D03*
X23670000Y53500000D03*
X26210000Y53500000D03*
X28750000Y53500000D03*
D10*
X36240000Y-45800000D03*
X36240000Y-43975000D03*
D15*
X27515000Y-45212000D03*
D16*
X24975000Y-46912000D03*
D13*
X31500000Y-28000000D03*
X18500000Y-35030000D03*
X31500000Y-35620000D03*
X18500000Y-32490000D03*
X31500000Y-30540000D03*
X31500000Y-33080000D03*
X18500000Y-29950000D03*
D17*
X33870000Y0D03*
D18*
X33870000Y-2540000D03*
X33870000Y-5080000D03*
X33870000Y-7620000D03*
X33870000Y-10160000D03*
X33870000Y-12700000D03*
X33870000Y-15240000D03*
X33870000Y-17780000D03*
X33870000Y-20320000D03*
X33870000Y-22860000D03*
X33870000Y-25400000D03*
X33870000Y-27940000D03*
X16090000Y-27940000D03*
X16090000Y-25400000D03*
X16090000Y-22860000D03*
X16090000Y-20320000D03*
X16090000Y-17780000D03*
X16090000Y-15240000D03*
X16090000Y-12700000D03*
X16090000Y-10160000D03*
X16090000Y-7620000D03*
X16090000Y-5080000D03*
X16090000Y-2540000D03*
X16090000Y0D03*
D14*
X33900000Y47750000D03*
D19*
X33900000Y45210000D03*
X31360000Y47750000D03*
X31360000Y45210000D03*
X28820000Y47750000D03*
X28820000Y45210000D03*
X26280000Y47750000D03*
X26280000Y45210000D03*
X23740000Y47750000D03*
X23740000Y45210000D03*
X21200000Y47750000D03*
X21200000Y45210000D03*
X18660000Y47750000D03*
X18660000Y45210000D03*
X16120000Y47750000D03*
D14*
X16120000Y45210000D03*
D20*
X16000000Y-42000000D03*
D14*
X16000000Y-39460000D03*
D19*
X18540000Y-42000000D03*
X18540000Y-39460000D03*
X21080000Y-42000000D03*
X21080000Y-39460000D03*
X23620000Y-42000000D03*
X23620000Y-39460000D03*
X26160000Y-42000000D03*
X26160000Y-39460000D03*
X28700000Y-42000000D03*
X28700000Y-39460000D03*
X31240000Y-42000000D03*
X31240000Y-39460000D03*
D14*
X33780000Y-42000000D03*
D19*
X33780000Y-39460000D03*
D21*
X17380000Y6490000D03*
X17380000Y9030000D03*
X17380000Y11570000D03*
X17380000Y14110000D03*
X17380000Y16650000D03*
X17380000Y19190000D03*
X17380000Y21730000D03*
X17380000Y24270000D03*
X17380000Y26810000D03*
X17380000Y29350000D03*
X17380000Y31890000D03*
X17380000Y34430000D03*
X17380000Y36970000D03*
X17380000Y39510000D03*
D22*
X32620000Y39510000D03*
D21*
X32620000Y36970000D03*
X32620000Y34430000D03*
X32620000Y31890000D03*
X32620000Y29350000D03*
X32620000Y26810000D03*
X32620000Y24270000D03*
X32620000Y21730000D03*
X32620000Y19190000D03*
X32620000Y16650000D03*
X32620000Y14110000D03*
X32620000Y11570000D03*
X32620000Y9030000D03*
X32620000Y6490000D03*
M02*
