G04 #@! TF.GenerationSoftware,KiCad,Pcbnew,7.0.10*
G04 #@! TF.CreationDate,2024-01-13T16:45:32+01:00*
G04 #@! TF.ProjectId,5hp_controller_oled,3568705f-636f-46e7-9472-6f6c6c65725f,rev?*
G04 #@! TF.SameCoordinates,Original*
G04 #@! TF.FileFunction,Legend,Top*
G04 #@! TF.FilePolarity,Positive*
%FSLAX46Y46*%
G04 Gerber Fmt 4.6, Leading zero omitted, Abs format (unit mm)*
G04 Created by KiCad (PCBNEW 7.0.10) date 2024-01-13 16:45:32*
%MOMM*%
%LPD*%
G01*
G04 APERTURE LIST*
G04 Aperture macros list*
%AMRoundRect*
0 Rectangle with rounded corners*
0 $1 Rounding radius*
0 $2 $3 $4 $5 $6 $7 $8 $9 X,Y pos of 4 corners*
0 Add a 4 corners polygon primitive as box body*
4,1,4,$2,$3,$4,$5,$6,$7,$8,$9,$2,$3,0*
0 Add four circle primitives for the rounded corners*
1,1,$1+$1,$2,$3*
1,1,$1+$1,$4,$5*
1,1,$1+$1,$6,$7*
1,1,$1+$1,$8,$9*
0 Add four rect primitives between the rounded corners*
20,1,$1+$1,$2,$3,$4,$5,0*
20,1,$1+$1,$4,$5,$6,$7,0*
20,1,$1+$1,$6,$7,$8,$9,0*
20,1,$1+$1,$8,$9,$2,$3,0*%
G04 Aperture macros list end*
%ADD10C,0.150000*%
%ADD11C,0.120000*%
%ADD12C,0.050000*%
%ADD13RoundRect,0.237500X0.237500X-0.250000X0.237500X0.250000X-0.237500X0.250000X-0.237500X-0.250000X0*%
%ADD14R,1.700000X2.000000*%
%ADD15O,1.600000X2.000000*%
%ADD16O,2.000000X1.600000*%
%ADD17R,1.700000X1.700000*%
%ADD18R,2.000000X2.000000*%
%ADD19O,2.000000X3.400000*%
%ADD20R,1.600000X1.600000*%
%ADD21O,1.600000X1.600000*%
%ADD22O,1.700000X1.700000*%
%ADD23C,1.700000*%
%ADD24C,1.600000*%
%ADD25C,1.404000*%
G04 APERTURE END LIST*
D10*
X23209104Y15289160D02*
X23209104Y15765350D01*
X23494819Y15193922D02*
X22494819Y15527255D01*
X22494819Y15527255D02*
X23494819Y15860588D01*
X23447200Y16146303D02*
X23494819Y16289160D01*
X23494819Y16289160D02*
X23494819Y16527255D01*
X23494819Y16527255D02*
X23447200Y16622493D01*
X23447200Y16622493D02*
X23399580Y16670112D01*
X23399580Y16670112D02*
X23304342Y16717731D01*
X23304342Y16717731D02*
X23209104Y16717731D01*
X23209104Y16717731D02*
X23113866Y16670112D01*
X23113866Y16670112D02*
X23066247Y16622493D01*
X23066247Y16622493D02*
X23018628Y16527255D01*
X23018628Y16527255D02*
X22971009Y16336779D01*
X22971009Y16336779D02*
X22923390Y16241541D01*
X22923390Y16241541D02*
X22875771Y16193922D01*
X22875771Y16193922D02*
X22780533Y16146303D01*
X22780533Y16146303D02*
X22685295Y16146303D01*
X22685295Y16146303D02*
X22590057Y16193922D01*
X22590057Y16193922D02*
X22542438Y16241541D01*
X22542438Y16241541D02*
X22494819Y16336779D01*
X22494819Y16336779D02*
X22494819Y16574874D01*
X22494819Y16574874D02*
X22542438Y16717731D01*
X22494819Y17622493D02*
X22494819Y17146303D01*
X22494819Y17146303D02*
X22971009Y17098684D01*
X22971009Y17098684D02*
X22923390Y17146303D01*
X22923390Y17146303D02*
X22875771Y17241541D01*
X22875771Y17241541D02*
X22875771Y17479636D01*
X22875771Y17479636D02*
X22923390Y17574874D01*
X22923390Y17574874D02*
X22971009Y17622493D01*
X22971009Y17622493D02*
X23066247Y17670112D01*
X23066247Y17670112D02*
X23304342Y17670112D01*
X23304342Y17670112D02*
X23399580Y17622493D01*
X23399580Y17622493D02*
X23447200Y17574874D01*
X23447200Y17574874D02*
X23494819Y17479636D01*
X23494819Y17479636D02*
X23494819Y17241541D01*
X23494819Y17241541D02*
X23447200Y17146303D01*
X23447200Y17146303D02*
X23399580Y17098684D01*
X22494819Y18527255D02*
X22494819Y18336779D01*
X22494819Y18336779D02*
X22542438Y18241541D01*
X22542438Y18241541D02*
X22590057Y18193922D01*
X22590057Y18193922D02*
X22732914Y18098684D01*
X22732914Y18098684D02*
X22923390Y18051065D01*
X22923390Y18051065D02*
X23304342Y18051065D01*
X23304342Y18051065D02*
X23399580Y18098684D01*
X23399580Y18098684D02*
X23447200Y18146303D01*
X23447200Y18146303D02*
X23494819Y18241541D01*
X23494819Y18241541D02*
X23494819Y18432017D01*
X23494819Y18432017D02*
X23447200Y18527255D01*
X23447200Y18527255D02*
X23399580Y18574874D01*
X23399580Y18574874D02*
X23304342Y18622493D01*
X23304342Y18622493D02*
X23066247Y18622493D01*
X23066247Y18622493D02*
X22971009Y18574874D01*
X22971009Y18574874D02*
X22923390Y18527255D01*
X22923390Y18527255D02*
X22875771Y18432017D01*
X22875771Y18432017D02*
X22875771Y18241541D01*
X22875771Y18241541D02*
X22923390Y18146303D01*
X22923390Y18146303D02*
X22971009Y18098684D01*
X22971009Y18098684D02*
X23066247Y18051065D01*
X22494819Y19241541D02*
X22494819Y19336779D01*
X22494819Y19336779D02*
X22542438Y19432017D01*
X22542438Y19432017D02*
X22590057Y19479636D01*
X22590057Y19479636D02*
X22685295Y19527255D01*
X22685295Y19527255D02*
X22875771Y19574874D01*
X22875771Y19574874D02*
X23113866Y19574874D01*
X23113866Y19574874D02*
X23304342Y19527255D01*
X23304342Y19527255D02*
X23399580Y19479636D01*
X23399580Y19479636D02*
X23447200Y19432017D01*
X23447200Y19432017D02*
X23494819Y19336779D01*
X23494819Y19336779D02*
X23494819Y19241541D01*
X23494819Y19241541D02*
X23447200Y19146303D01*
X23447200Y19146303D02*
X23399580Y19098684D01*
X23399580Y19098684D02*
X23304342Y19051065D01*
X23304342Y19051065D02*
X23113866Y19003446D01*
X23113866Y19003446D02*
X22875771Y19003446D01*
X22875771Y19003446D02*
X22685295Y19051065D01*
X22685295Y19051065D02*
X22590057Y19098684D01*
X22590057Y19098684D02*
X22542438Y19146303D01*
X22542438Y19146303D02*
X22494819Y19241541D01*
X22494819Y20193922D02*
X22494819Y20289160D01*
X22494819Y20289160D02*
X22542438Y20384398D01*
X22542438Y20384398D02*
X22590057Y20432017D01*
X22590057Y20432017D02*
X22685295Y20479636D01*
X22685295Y20479636D02*
X22875771Y20527255D01*
X22875771Y20527255D02*
X23113866Y20527255D01*
X23113866Y20527255D02*
X23304342Y20479636D01*
X23304342Y20479636D02*
X23399580Y20432017D01*
X23399580Y20432017D02*
X23447200Y20384398D01*
X23447200Y20384398D02*
X23494819Y20289160D01*
X23494819Y20289160D02*
X23494819Y20193922D01*
X23494819Y20193922D02*
X23447200Y20098684D01*
X23447200Y20098684D02*
X23399580Y20051065D01*
X23399580Y20051065D02*
X23304342Y20003446D01*
X23304342Y20003446D02*
X23113866Y19955827D01*
X23113866Y19955827D02*
X22875771Y19955827D01*
X22875771Y19955827D02*
X22685295Y20003446D01*
X22685295Y20003446D02*
X22590057Y20051065D01*
X22590057Y20051065D02*
X22542438Y20098684D01*
X22542438Y20098684D02*
X22494819Y20193922D01*
X22489160Y-30694104D02*
X22965350Y-30694104D01*
X22393922Y-30979819D02*
X22727255Y-29979819D01*
X22727255Y-29979819D02*
X23060588Y-30979819D01*
X23346303Y-30932200D02*
X23489160Y-30979819D01*
X23489160Y-30979819D02*
X23727255Y-30979819D01*
X23727255Y-30979819D02*
X23822493Y-30932200D01*
X23822493Y-30932200D02*
X23870112Y-30884580D01*
X23870112Y-30884580D02*
X23917731Y-30789342D01*
X23917731Y-30789342D02*
X23917731Y-30694104D01*
X23917731Y-30694104D02*
X23870112Y-30598866D01*
X23870112Y-30598866D02*
X23822493Y-30551247D01*
X23822493Y-30551247D02*
X23727255Y-30503628D01*
X23727255Y-30503628D02*
X23536779Y-30456009D01*
X23536779Y-30456009D02*
X23441541Y-30408390D01*
X23441541Y-30408390D02*
X23393922Y-30360771D01*
X23393922Y-30360771D02*
X23346303Y-30265533D01*
X23346303Y-30265533D02*
X23346303Y-30170295D01*
X23346303Y-30170295D02*
X23393922Y-30075057D01*
X23393922Y-30075057D02*
X23441541Y-30027438D01*
X23441541Y-30027438D02*
X23536779Y-29979819D01*
X23536779Y-29979819D02*
X23774874Y-29979819D01*
X23774874Y-29979819D02*
X23917731Y-30027438D01*
X24822493Y-29979819D02*
X24346303Y-29979819D01*
X24346303Y-29979819D02*
X24298684Y-30456009D01*
X24298684Y-30456009D02*
X24346303Y-30408390D01*
X24346303Y-30408390D02*
X24441541Y-30360771D01*
X24441541Y-30360771D02*
X24679636Y-30360771D01*
X24679636Y-30360771D02*
X24774874Y-30408390D01*
X24774874Y-30408390D02*
X24822493Y-30456009D01*
X24822493Y-30456009D02*
X24870112Y-30551247D01*
X24870112Y-30551247D02*
X24870112Y-30789342D01*
X24870112Y-30789342D02*
X24822493Y-30884580D01*
X24822493Y-30884580D02*
X24774874Y-30932200D01*
X24774874Y-30932200D02*
X24679636Y-30979819D01*
X24679636Y-30979819D02*
X24441541Y-30979819D01*
X24441541Y-30979819D02*
X24346303Y-30932200D01*
X24346303Y-30932200D02*
X24298684Y-30884580D01*
X25727255Y-29979819D02*
X25536779Y-29979819D01*
X25536779Y-29979819D02*
X25441541Y-30027438D01*
X25441541Y-30027438D02*
X25393922Y-30075057D01*
X25393922Y-30075057D02*
X25298684Y-30217914D01*
X25298684Y-30217914D02*
X25251065Y-30408390D01*
X25251065Y-30408390D02*
X25251065Y-30789342D01*
X25251065Y-30789342D02*
X25298684Y-30884580D01*
X25298684Y-30884580D02*
X25346303Y-30932200D01*
X25346303Y-30932200D02*
X25441541Y-30979819D01*
X25441541Y-30979819D02*
X25632017Y-30979819D01*
X25632017Y-30979819D02*
X25727255Y-30932200D01*
X25727255Y-30932200D02*
X25774874Y-30884580D01*
X25774874Y-30884580D02*
X25822493Y-30789342D01*
X25822493Y-30789342D02*
X25822493Y-30551247D01*
X25822493Y-30551247D02*
X25774874Y-30456009D01*
X25774874Y-30456009D02*
X25727255Y-30408390D01*
X25727255Y-30408390D02*
X25632017Y-30360771D01*
X25632017Y-30360771D02*
X25441541Y-30360771D01*
X25441541Y-30360771D02*
X25346303Y-30408390D01*
X25346303Y-30408390D02*
X25298684Y-30456009D01*
X25298684Y-30456009D02*
X25251065Y-30551247D01*
X26441541Y-29979819D02*
X26536779Y-29979819D01*
X26536779Y-29979819D02*
X26632017Y-30027438D01*
X26632017Y-30027438D02*
X26679636Y-30075057D01*
X26679636Y-30075057D02*
X26727255Y-30170295D01*
X26727255Y-30170295D02*
X26774874Y-30360771D01*
X26774874Y-30360771D02*
X26774874Y-30598866D01*
X26774874Y-30598866D02*
X26727255Y-30789342D01*
X26727255Y-30789342D02*
X26679636Y-30884580D01*
X26679636Y-30884580D02*
X26632017Y-30932200D01*
X26632017Y-30932200D02*
X26536779Y-30979819D01*
X26536779Y-30979819D02*
X26441541Y-30979819D01*
X26441541Y-30979819D02*
X26346303Y-30932200D01*
X26346303Y-30932200D02*
X26298684Y-30884580D01*
X26298684Y-30884580D02*
X26251065Y-30789342D01*
X26251065Y-30789342D02*
X26203446Y-30598866D01*
X26203446Y-30598866D02*
X26203446Y-30360771D01*
X26203446Y-30360771D02*
X26251065Y-30170295D01*
X26251065Y-30170295D02*
X26298684Y-30075057D01*
X26298684Y-30075057D02*
X26346303Y-30027438D01*
X26346303Y-30027438D02*
X26441541Y-29979819D01*
X27393922Y-29979819D02*
X27489160Y-29979819D01*
X27489160Y-29979819D02*
X27584398Y-30027438D01*
X27584398Y-30027438D02*
X27632017Y-30075057D01*
X27632017Y-30075057D02*
X27679636Y-30170295D01*
X27679636Y-30170295D02*
X27727255Y-30360771D01*
X27727255Y-30360771D02*
X27727255Y-30598866D01*
X27727255Y-30598866D02*
X27679636Y-30789342D01*
X27679636Y-30789342D02*
X27632017Y-30884580D01*
X27632017Y-30884580D02*
X27584398Y-30932200D01*
X27584398Y-30932200D02*
X27489160Y-30979819D01*
X27489160Y-30979819D02*
X27393922Y-30979819D01*
X27393922Y-30979819D02*
X27298684Y-30932200D01*
X27298684Y-30932200D02*
X27251065Y-30884580D01*
X27251065Y-30884580D02*
X27203446Y-30789342D01*
X27203446Y-30789342D02*
X27155827Y-30598866D01*
X27155827Y-30598866D02*
X27155827Y-30360771D01*
X27155827Y-30360771D02*
X27203446Y-30170295D01*
X27203446Y-30170295D02*
X27251065Y-30075057D01*
X27251065Y-30075057D02*
X27298684Y-30027438D01*
X27298684Y-30027438D02*
X27393922Y-29979819D01*
X22529160Y-5814104D02*
X23005350Y-5814104D01*
X22433922Y-6099819D02*
X22767255Y-5099819D01*
X22767255Y-5099819D02*
X23100588Y-6099819D01*
X23386303Y-6052200D02*
X23529160Y-6099819D01*
X23529160Y-6099819D02*
X23767255Y-6099819D01*
X23767255Y-6099819D02*
X23862493Y-6052200D01*
X23862493Y-6052200D02*
X23910112Y-6004580D01*
X23910112Y-6004580D02*
X23957731Y-5909342D01*
X23957731Y-5909342D02*
X23957731Y-5814104D01*
X23957731Y-5814104D02*
X23910112Y-5718866D01*
X23910112Y-5718866D02*
X23862493Y-5671247D01*
X23862493Y-5671247D02*
X23767255Y-5623628D01*
X23767255Y-5623628D02*
X23576779Y-5576009D01*
X23576779Y-5576009D02*
X23481541Y-5528390D01*
X23481541Y-5528390D02*
X23433922Y-5480771D01*
X23433922Y-5480771D02*
X23386303Y-5385533D01*
X23386303Y-5385533D02*
X23386303Y-5290295D01*
X23386303Y-5290295D02*
X23433922Y-5195057D01*
X23433922Y-5195057D02*
X23481541Y-5147438D01*
X23481541Y-5147438D02*
X23576779Y-5099819D01*
X23576779Y-5099819D02*
X23814874Y-5099819D01*
X23814874Y-5099819D02*
X23957731Y-5147438D01*
X24862493Y-5099819D02*
X24386303Y-5099819D01*
X24386303Y-5099819D02*
X24338684Y-5576009D01*
X24338684Y-5576009D02*
X24386303Y-5528390D01*
X24386303Y-5528390D02*
X24481541Y-5480771D01*
X24481541Y-5480771D02*
X24719636Y-5480771D01*
X24719636Y-5480771D02*
X24814874Y-5528390D01*
X24814874Y-5528390D02*
X24862493Y-5576009D01*
X24862493Y-5576009D02*
X24910112Y-5671247D01*
X24910112Y-5671247D02*
X24910112Y-5909342D01*
X24910112Y-5909342D02*
X24862493Y-6004580D01*
X24862493Y-6004580D02*
X24814874Y-6052200D01*
X24814874Y-6052200D02*
X24719636Y-6099819D01*
X24719636Y-6099819D02*
X24481541Y-6099819D01*
X24481541Y-6099819D02*
X24386303Y-6052200D01*
X24386303Y-6052200D02*
X24338684Y-6004580D01*
X25767255Y-5099819D02*
X25576779Y-5099819D01*
X25576779Y-5099819D02*
X25481541Y-5147438D01*
X25481541Y-5147438D02*
X25433922Y-5195057D01*
X25433922Y-5195057D02*
X25338684Y-5337914D01*
X25338684Y-5337914D02*
X25291065Y-5528390D01*
X25291065Y-5528390D02*
X25291065Y-5909342D01*
X25291065Y-5909342D02*
X25338684Y-6004580D01*
X25338684Y-6004580D02*
X25386303Y-6052200D01*
X25386303Y-6052200D02*
X25481541Y-6099819D01*
X25481541Y-6099819D02*
X25672017Y-6099819D01*
X25672017Y-6099819D02*
X25767255Y-6052200D01*
X25767255Y-6052200D02*
X25814874Y-6004580D01*
X25814874Y-6004580D02*
X25862493Y-5909342D01*
X25862493Y-5909342D02*
X25862493Y-5671247D01*
X25862493Y-5671247D02*
X25814874Y-5576009D01*
X25814874Y-5576009D02*
X25767255Y-5528390D01*
X25767255Y-5528390D02*
X25672017Y-5480771D01*
X25672017Y-5480771D02*
X25481541Y-5480771D01*
X25481541Y-5480771D02*
X25386303Y-5528390D01*
X25386303Y-5528390D02*
X25338684Y-5576009D01*
X25338684Y-5576009D02*
X25291065Y-5671247D01*
X26481541Y-5099819D02*
X26576779Y-5099819D01*
X26576779Y-5099819D02*
X26672017Y-5147438D01*
X26672017Y-5147438D02*
X26719636Y-5195057D01*
X26719636Y-5195057D02*
X26767255Y-5290295D01*
X26767255Y-5290295D02*
X26814874Y-5480771D01*
X26814874Y-5480771D02*
X26814874Y-5718866D01*
X26814874Y-5718866D02*
X26767255Y-5909342D01*
X26767255Y-5909342D02*
X26719636Y-6004580D01*
X26719636Y-6004580D02*
X26672017Y-6052200D01*
X26672017Y-6052200D02*
X26576779Y-6099819D01*
X26576779Y-6099819D02*
X26481541Y-6099819D01*
X26481541Y-6099819D02*
X26386303Y-6052200D01*
X26386303Y-6052200D02*
X26338684Y-6004580D01*
X26338684Y-6004580D02*
X26291065Y-5909342D01*
X26291065Y-5909342D02*
X26243446Y-5718866D01*
X26243446Y-5718866D02*
X26243446Y-5480771D01*
X26243446Y-5480771D02*
X26291065Y-5290295D01*
X26291065Y-5290295D02*
X26338684Y-5195057D01*
X26338684Y-5195057D02*
X26386303Y-5147438D01*
X26386303Y-5147438D02*
X26481541Y-5099819D01*
X27433922Y-5099819D02*
X27529160Y-5099819D01*
X27529160Y-5099819D02*
X27624398Y-5147438D01*
X27624398Y-5147438D02*
X27672017Y-5195057D01*
X27672017Y-5195057D02*
X27719636Y-5290295D01*
X27719636Y-5290295D02*
X27767255Y-5480771D01*
X27767255Y-5480771D02*
X27767255Y-5718866D01*
X27767255Y-5718866D02*
X27719636Y-5909342D01*
X27719636Y-5909342D02*
X27672017Y-6004580D01*
X27672017Y-6004580D02*
X27624398Y-6052200D01*
X27624398Y-6052200D02*
X27529160Y-6099819D01*
X27529160Y-6099819D02*
X27433922Y-6099819D01*
X27433922Y-6099819D02*
X27338684Y-6052200D01*
X27338684Y-6052200D02*
X27291065Y-6004580D01*
X27291065Y-6004580D02*
X27243446Y-5909342D01*
X27243446Y-5909342D02*
X27195827Y-5718866D01*
X27195827Y-5718866D02*
X27195827Y-5480771D01*
X27195827Y-5480771D02*
X27243446Y-5290295D01*
X27243446Y-5290295D02*
X27291065Y-5195057D01*
X27291065Y-5195057D02*
X27338684Y-5147438D01*
X27338684Y-5147438D02*
X27433922Y-5099819D01*
X22133160Y42341800D02*
X22276017Y42294180D01*
X22276017Y42294180D02*
X22514112Y42294180D01*
X22514112Y42294180D02*
X22609350Y42341800D01*
X22609350Y42341800D02*
X22656969Y42389419D01*
X22656969Y42389419D02*
X22704588Y42484657D01*
X22704588Y42484657D02*
X22704588Y42579895D01*
X22704588Y42579895D02*
X22656969Y42675133D01*
X22656969Y42675133D02*
X22609350Y42722752D01*
X22609350Y42722752D02*
X22514112Y42770371D01*
X22514112Y42770371D02*
X22323636Y42817990D01*
X22323636Y42817990D02*
X22228398Y42865609D01*
X22228398Y42865609D02*
X22180779Y42913228D01*
X22180779Y42913228D02*
X22133160Y43008466D01*
X22133160Y43008466D02*
X22133160Y43103704D01*
X22133160Y43103704D02*
X22180779Y43198942D01*
X22180779Y43198942D02*
X22228398Y43246561D01*
X22228398Y43246561D02*
X22323636Y43294180D01*
X22323636Y43294180D02*
X22561731Y43294180D01*
X22561731Y43294180D02*
X22704588Y43246561D01*
X23085541Y42341800D02*
X23228398Y42294180D01*
X23228398Y42294180D02*
X23466493Y42294180D01*
X23466493Y42294180D02*
X23561731Y42341800D01*
X23561731Y42341800D02*
X23609350Y42389419D01*
X23609350Y42389419D02*
X23656969Y42484657D01*
X23656969Y42484657D02*
X23656969Y42579895D01*
X23656969Y42579895D02*
X23609350Y42675133D01*
X23609350Y42675133D02*
X23561731Y42722752D01*
X23561731Y42722752D02*
X23466493Y42770371D01*
X23466493Y42770371D02*
X23276017Y42817990D01*
X23276017Y42817990D02*
X23180779Y42865609D01*
X23180779Y42865609D02*
X23133160Y42913228D01*
X23133160Y42913228D02*
X23085541Y43008466D01*
X23085541Y43008466D02*
X23085541Y43103704D01*
X23085541Y43103704D02*
X23133160Y43198942D01*
X23133160Y43198942D02*
X23180779Y43246561D01*
X23180779Y43246561D02*
X23276017Y43294180D01*
X23276017Y43294180D02*
X23514112Y43294180D01*
X23514112Y43294180D02*
X23656969Y43246561D01*
X24085541Y42294180D02*
X24085541Y43294180D01*
X24085541Y43294180D02*
X24323636Y43294180D01*
X24323636Y43294180D02*
X24466493Y43246561D01*
X24466493Y43246561D02*
X24561731Y43151323D01*
X24561731Y43151323D02*
X24609350Y43056085D01*
X24609350Y43056085D02*
X24656969Y42865609D01*
X24656969Y42865609D02*
X24656969Y42722752D01*
X24656969Y42722752D02*
X24609350Y42532276D01*
X24609350Y42532276D02*
X24561731Y42437038D01*
X24561731Y42437038D02*
X24466493Y42341800D01*
X24466493Y42341800D02*
X24323636Y42294180D01*
X24323636Y42294180D02*
X24085541Y42294180D01*
X25609350Y42294180D02*
X25037922Y42294180D01*
X25323636Y42294180D02*
X25323636Y43294180D01*
X25323636Y43294180D02*
X25228398Y43151323D01*
X25228398Y43151323D02*
X25133160Y43056085D01*
X25133160Y43056085D02*
X25037922Y43008466D01*
X25942684Y43294180D02*
X26561731Y43294180D01*
X26561731Y43294180D02*
X26228398Y42913228D01*
X26228398Y42913228D02*
X26371255Y42913228D01*
X26371255Y42913228D02*
X26466493Y42865609D01*
X26466493Y42865609D02*
X26514112Y42817990D01*
X26514112Y42817990D02*
X26561731Y42722752D01*
X26561731Y42722752D02*
X26561731Y42484657D01*
X26561731Y42484657D02*
X26514112Y42389419D01*
X26514112Y42389419D02*
X26466493Y42341800D01*
X26466493Y42341800D02*
X26371255Y42294180D01*
X26371255Y42294180D02*
X26085541Y42294180D01*
X26085541Y42294180D02*
X25990303Y42341800D01*
X25990303Y42341800D02*
X25942684Y42389419D01*
X27180779Y43294180D02*
X27276017Y43294180D01*
X27276017Y43294180D02*
X27371255Y43246561D01*
X27371255Y43246561D02*
X27418874Y43198942D01*
X27418874Y43198942D02*
X27466493Y43103704D01*
X27466493Y43103704D02*
X27514112Y42913228D01*
X27514112Y42913228D02*
X27514112Y42675133D01*
X27514112Y42675133D02*
X27466493Y42484657D01*
X27466493Y42484657D02*
X27418874Y42389419D01*
X27418874Y42389419D02*
X27371255Y42341800D01*
X27371255Y42341800D02*
X27276017Y42294180D01*
X27276017Y42294180D02*
X27180779Y42294180D01*
X27180779Y42294180D02*
X27085541Y42341800D01*
X27085541Y42341800D02*
X27037922Y42389419D01*
X27037922Y42389419D02*
X26990303Y42484657D01*
X26990303Y42484657D02*
X26942684Y42675133D01*
X26942684Y42675133D02*
X26942684Y42913228D01*
X26942684Y42913228D02*
X26990303Y43103704D01*
X26990303Y43103704D02*
X27037922Y43198942D01*
X27037922Y43198942D02*
X27085541Y43246561D01*
X27085541Y43246561D02*
X27180779Y43294180D01*
X28371255Y43294180D02*
X28180779Y43294180D01*
X28180779Y43294180D02*
X28085541Y43246561D01*
X28085541Y43246561D02*
X28037922Y43198942D01*
X28037922Y43198942D02*
X27942684Y43056085D01*
X27942684Y43056085D02*
X27895065Y42865609D01*
X27895065Y42865609D02*
X27895065Y42484657D01*
X27895065Y42484657D02*
X27942684Y42389419D01*
X27942684Y42389419D02*
X27990303Y42341800D01*
X27990303Y42341800D02*
X28085541Y42294180D01*
X28085541Y42294180D02*
X28276017Y42294180D01*
X28276017Y42294180D02*
X28371255Y42341800D01*
X28371255Y42341800D02*
X28418874Y42389419D01*
X28418874Y42389419D02*
X28466493Y42484657D01*
X28466493Y42484657D02*
X28466493Y42722752D01*
X28466493Y42722752D02*
X28418874Y42817990D01*
X28418874Y42817990D02*
X28371255Y42865609D01*
X28371255Y42865609D02*
X28276017Y42913228D01*
X28276017Y42913228D02*
X28085541Y42913228D01*
X28085541Y42913228D02*
X27990303Y42865609D01*
X27990303Y42865609D02*
X27942684Y42817990D01*
X27942684Y42817990D02*
X27895065Y42722752D01*
X14154819Y-42454166D02*
X13678628Y-42787499D01*
X14154819Y-43025594D02*
X13154819Y-43025594D01*
X13154819Y-43025594D02*
X13154819Y-42644642D01*
X13154819Y-42644642D02*
X13202438Y-42549404D01*
X13202438Y-42549404D02*
X13250057Y-42501785D01*
X13250057Y-42501785D02*
X13345295Y-42454166D01*
X13345295Y-42454166D02*
X13488152Y-42454166D01*
X13488152Y-42454166D02*
X13583390Y-42501785D01*
X13583390Y-42501785D02*
X13631009Y-42549404D01*
X13631009Y-42549404D02*
X13678628Y-42644642D01*
X13678628Y-42644642D02*
X13678628Y-43025594D01*
X14154819Y-41501785D02*
X14154819Y-42073213D01*
X14154819Y-41787499D02*
X13154819Y-41787499D01*
X13154819Y-41787499D02*
X13297676Y-41882737D01*
X13297676Y-41882737D02*
X13392914Y-41977975D01*
X13392914Y-41977975D02*
X13440533Y-42073213D01*
X26304819Y17416666D02*
X27019104Y17416666D01*
X27019104Y17416666D02*
X27161961Y17369047D01*
X27161961Y17369047D02*
X27257200Y17273809D01*
X27257200Y17273809D02*
X27304819Y17130952D01*
X27304819Y17130952D02*
X27304819Y17035714D01*
X26400057Y17845238D02*
X26352438Y17892857D01*
X26352438Y17892857D02*
X26304819Y17988095D01*
X26304819Y17988095D02*
X26304819Y18226190D01*
X26304819Y18226190D02*
X26352438Y18321428D01*
X26352438Y18321428D02*
X26400057Y18369047D01*
X26400057Y18369047D02*
X26495295Y18416666D01*
X26495295Y18416666D02*
X26590533Y18416666D01*
X26590533Y18416666D02*
X26733390Y18369047D01*
X26733390Y18369047D02*
X27304819Y17797619D01*
X27304819Y17797619D02*
X27304819Y18416666D01*
X24666666Y-8704819D02*
X24666666Y-9419104D01*
X24666666Y-9419104D02*
X24619047Y-9561961D01*
X24619047Y-9561961D02*
X24523809Y-9657200D01*
X24523809Y-9657200D02*
X24380952Y-9704819D01*
X24380952Y-9704819D02*
X24285714Y-9704819D01*
X25571428Y-9038152D02*
X25571428Y-9704819D01*
X25333333Y-8657200D02*
X25095238Y-9371485D01*
X25095238Y-9371485D02*
X25714285Y-9371485D01*
X24664666Y41767180D02*
X24664666Y41052895D01*
X24664666Y41052895D02*
X24617047Y40910038D01*
X24617047Y40910038D02*
X24521809Y40814800D01*
X24521809Y40814800D02*
X24378952Y40767180D01*
X24378952Y40767180D02*
X24283714Y40767180D01*
X25664666Y40767180D02*
X25093238Y40767180D01*
X25378952Y40767180D02*
X25378952Y41767180D01*
X25378952Y41767180D02*
X25283714Y41624323D01*
X25283714Y41624323D02*
X25188476Y41529085D01*
X25188476Y41529085D02*
X25093238Y41481466D01*
X36769819Y-42104166D02*
X36293628Y-42437499D01*
X36769819Y-42675594D02*
X35769819Y-42675594D01*
X35769819Y-42675594D02*
X35769819Y-42294642D01*
X35769819Y-42294642D02*
X35817438Y-42199404D01*
X35817438Y-42199404D02*
X35865057Y-42151785D01*
X35865057Y-42151785D02*
X35960295Y-42104166D01*
X35960295Y-42104166D02*
X36103152Y-42104166D01*
X36103152Y-42104166D02*
X36198390Y-42151785D01*
X36198390Y-42151785D02*
X36246009Y-42199404D01*
X36246009Y-42199404D02*
X36293628Y-42294642D01*
X36293628Y-42294642D02*
X36293628Y-42675594D01*
X35865057Y-41723213D02*
X35817438Y-41675594D01*
X35817438Y-41675594D02*
X35769819Y-41580356D01*
X35769819Y-41580356D02*
X35769819Y-41342261D01*
X35769819Y-41342261D02*
X35817438Y-41247023D01*
X35817438Y-41247023D02*
X35865057Y-41199404D01*
X35865057Y-41199404D02*
X35960295Y-41151785D01*
X35960295Y-41151785D02*
X36055533Y-41151785D01*
X36055533Y-41151785D02*
X36198390Y-41199404D01*
X36198390Y-41199404D02*
X36769819Y-41770832D01*
X36769819Y-41770832D02*
X36769819Y-41151785D01*
X24666666Y-33704819D02*
X24666666Y-34419104D01*
X24666666Y-34419104D02*
X24619047Y-34561961D01*
X24619047Y-34561961D02*
X24523809Y-34657200D01*
X24523809Y-34657200D02*
X24380952Y-34704819D01*
X24380952Y-34704819D02*
X24285714Y-34704819D01*
X25619047Y-33704819D02*
X25142857Y-33704819D01*
X25142857Y-33704819D02*
X25095238Y-34181009D01*
X25095238Y-34181009D02*
X25142857Y-34133390D01*
X25142857Y-34133390D02*
X25238095Y-34085771D01*
X25238095Y-34085771D02*
X25476190Y-34085771D01*
X25476190Y-34085771D02*
X25571428Y-34133390D01*
X25571428Y-34133390D02*
X25619047Y-34181009D01*
X25619047Y-34181009D02*
X25666666Y-34276247D01*
X25666666Y-34276247D02*
X25666666Y-34514342D01*
X25666666Y-34514342D02*
X25619047Y-34609580D01*
X25619047Y-34609580D02*
X25571428Y-34657200D01*
X25571428Y-34657200D02*
X25476190Y-34704819D01*
X25476190Y-34704819D02*
X25238095Y-34704819D01*
X25238095Y-34704819D02*
X25142857Y-34657200D01*
X25142857Y-34657200D02*
X25095238Y-34609580D01*
D11*
X13077500Y-45142224D02*
X13077500Y-44632776D01*
X14122500Y-45142224D02*
X14122500Y-44632776D01*
X21095000Y-43897000D02*
X21095000Y-45227000D01*
X22425000Y-43897000D02*
X21095000Y-43897000D01*
X33100000Y6250000D02*
X17100000Y6250000D01*
X14100000Y9250000D02*
X14100000Y26250000D01*
X28800000Y10035000D02*
X21471000Y10048000D01*
X28800000Y12448000D02*
X28800000Y10035000D01*
X21471000Y12461000D02*
X21471000Y10048000D01*
X21471000Y12461000D02*
X28800000Y12448000D01*
X24100000Y17750000D02*
X25100000Y17750000D01*
X25100000Y17750000D02*
X25100000Y16750000D01*
X25100000Y17750000D02*
X26100000Y17750000D01*
X25100000Y17750000D02*
X25100000Y18750000D01*
X29300000Y23048000D02*
X19521000Y23048000D01*
X19521000Y25461000D02*
X19521000Y23048000D01*
X19521000Y25461000D02*
X29300000Y25461000D01*
X29300000Y25461000D02*
X29300000Y23048000D01*
X36100000Y26250000D02*
X36100000Y9250000D01*
X17100000Y29250000D02*
X33100000Y29250000D01*
X14100000Y9250000D02*
G75*
G03*
X17100000Y6250000I3000001J1D01*
G01*
X33100000Y6250000D02*
G75*
G03*
X36100000Y9250000I-1J3000001D01*
G01*
X17100000Y29250000D02*
G75*
G03*
X14100000Y26250000I0J-3000000D01*
G01*
X36100000Y26250000D02*
G75*
G03*
X33100000Y29250000I-3000000J0D01*
G01*
D12*
X18600000Y9250000D02*
G75*
G03*
X15600000Y9250000I-1500000J0D01*
G01*
X15600000Y9250000D02*
G75*
G03*
X18600000Y9250000I1500000J0D01*
G01*
X34600000Y9250000D02*
G75*
G03*
X31600000Y9250000I-1500000J0D01*
G01*
X31600000Y9250000D02*
G75*
G03*
X34600000Y9250000I1500000J0D01*
G01*
X18600000Y26250000D02*
G75*
G03*
X15600000Y26250000I-1500000J0D01*
G01*
X15600000Y26250000D02*
G75*
G03*
X18600000Y26250000I1500000J0D01*
G01*
X34600000Y26250000D02*
G75*
G03*
X31600000Y26250000I-1500000J0D01*
G01*
X31600000Y26250000D02*
G75*
G03*
X34600000Y26250000I1500000J0D01*
G01*
D11*
X13500000Y-15500000D02*
X13500000Y500000D01*
X16500000Y3500000D02*
X33500000Y3500000D01*
X17285000Y-11200000D02*
X17298000Y-3871000D01*
X19698000Y-11200000D02*
X17285000Y-11200000D01*
X19711000Y-3871000D02*
X17298000Y-3871000D01*
X19711000Y-3871000D02*
X19698000Y-11200000D01*
X25000000Y-6500000D02*
X25000000Y-7500000D01*
X25000000Y-7500000D02*
X24000000Y-7500000D01*
X25000000Y-7500000D02*
X25000000Y-8500000D01*
X25000000Y-7500000D02*
X26000000Y-7500000D01*
X30298000Y-11700000D02*
X30298000Y-1921000D01*
X32711000Y-1921000D02*
X30298000Y-1921000D01*
X32711000Y-1921000D02*
X32711000Y-11700000D01*
X32711000Y-11700000D02*
X30298000Y-11700000D01*
X33500000Y-18500000D02*
X16500000Y-18500000D01*
X36500000Y500000D02*
X36500000Y-15500000D01*
X16500000Y3500000D02*
G75*
G03*
X13500000Y500000I1J-3000001D01*
G01*
X13500000Y-15500000D02*
G75*
G03*
X16500000Y-18500000I3000001J1D01*
G01*
X36500000Y500000D02*
G75*
G03*
X33500000Y3500000I-3000000J0D01*
G01*
X33500000Y-18500000D02*
G75*
G03*
X36500000Y-15500000I0J3000000D01*
G01*
D12*
X18000000Y500000D02*
G75*
G03*
X15000000Y500000I-1500000J0D01*
G01*
X15000000Y500000D02*
G75*
G03*
X18000000Y500000I1500000J0D01*
G01*
X18000000Y-15500000D02*
G75*
G03*
X15000000Y-15500000I-1500000J0D01*
G01*
X15000000Y-15500000D02*
G75*
G03*
X18000000Y-15500000I1500000J0D01*
G01*
X35000000Y500000D02*
G75*
G03*
X32000000Y500000I-1500000J0D01*
G01*
X32000000Y500000D02*
G75*
G03*
X35000000Y500000I1500000J0D01*
G01*
X35000000Y-15500000D02*
G75*
G03*
X32000000Y-15500000I-1500000J0D01*
G01*
X32000000Y-15500000D02*
G75*
G03*
X35000000Y-15500000I1500000J0D01*
G01*
D11*
X17705000Y-43882000D02*
X17705000Y-45212000D01*
X16375000Y-43882000D02*
X17705000Y-43882000D01*
X15105000Y-43882000D02*
X15045000Y-43882000D01*
X15105000Y-43882000D02*
X15105000Y-46542000D01*
X15045000Y-43882000D02*
X15045000Y-46542000D01*
X15105000Y-46542000D02*
X15045000Y-46542000D01*
X35030000Y-46505000D02*
X33700000Y-46505000D01*
X35030000Y-45175000D02*
X35030000Y-46505000D01*
X35030000Y-43905000D02*
X35030000Y-43845000D01*
X35030000Y-43905000D02*
X32370000Y-43905000D01*
X35030000Y-43845000D02*
X32370000Y-43845000D01*
X32370000Y-43905000D02*
X32370000Y-43845000D01*
X12460000Y25510000D02*
X12500000Y55000000D01*
X12500000Y55000000D02*
X37500000Y55000000D01*
X12500000Y25500000D02*
X17500000Y25500000D01*
X13700000Y49500000D02*
X13700000Y36500000D01*
X13700000Y49500000D02*
X36300000Y49500000D01*
X13700000Y36500000D02*
X36300000Y36500000D01*
X17500000Y27500000D02*
X32500000Y27500000D01*
X17500000Y25500000D02*
X17500000Y27500000D01*
X20051000Y54711000D02*
X20051000Y52298000D01*
X20051000Y54711000D02*
X29830000Y54711000D01*
X29830000Y54711000D02*
X29830000Y52298000D01*
X29830000Y52298000D02*
X20051000Y52298000D01*
X32500000Y25500000D02*
X32500000Y27500000D01*
X32500000Y25500000D02*
X37500000Y25500000D01*
X36300000Y49500000D02*
X36300000Y36500000D01*
X37500000Y25500000D02*
X37500000Y55000000D01*
X35717500Y-45142224D02*
X35717500Y-44632776D01*
X36762500Y-45142224D02*
X36762500Y-44632776D01*
X28845000Y-43882000D02*
X28845000Y-45212000D01*
X27515000Y-43882000D02*
X28845000Y-43882000D01*
X26245000Y-44832000D02*
X23645000Y-44832000D01*
X26245000Y-44832000D02*
X26245000Y-49112000D01*
X23645000Y-44832000D02*
X23645000Y-49112000D01*
X26245000Y-49112000D02*
X23645000Y-49112000D01*
X13500000Y-40500000D02*
X13500000Y-24500000D01*
X16500000Y-21500000D02*
X33500000Y-21500000D01*
X17285000Y-36200000D02*
X17298000Y-28871000D01*
X19698000Y-36200000D02*
X17285000Y-36200000D01*
X19711000Y-28871000D02*
X17298000Y-28871000D01*
X19711000Y-28871000D02*
X19698000Y-36200000D01*
X25000000Y-31500000D02*
X25000000Y-32500000D01*
X25000000Y-32500000D02*
X24000000Y-32500000D01*
X25000000Y-32500000D02*
X25000000Y-33500000D01*
X25000000Y-32500000D02*
X26000000Y-32500000D01*
X30298000Y-36700000D02*
X30298000Y-26921000D01*
X32711000Y-26921000D02*
X30298000Y-26921000D01*
X32711000Y-26921000D02*
X32711000Y-36700000D01*
X32711000Y-36700000D02*
X30298000Y-36700000D01*
X33500000Y-43500000D02*
X16500000Y-43500000D01*
X36500000Y-24500000D02*
X36500000Y-40500000D01*
X16500000Y-21500000D02*
G75*
G03*
X13500000Y-24500000I1J-3000001D01*
G01*
X13500000Y-40500000D02*
G75*
G03*
X16500000Y-43500000I3000001J1D01*
G01*
X36500000Y-24500000D02*
G75*
G03*
X33500000Y-21500000I-3000000J0D01*
G01*
X33500000Y-43500000D02*
G75*
G03*
X36500000Y-40500000I0J3000000D01*
G01*
D12*
X18000000Y-24500000D02*
G75*
G03*
X15000000Y-24500000I-1500000J0D01*
G01*
X15000000Y-24500000D02*
G75*
G03*
X18000000Y-24500000I1500000J0D01*
G01*
X18000000Y-40500000D02*
G75*
G03*
X15000000Y-40500000I-1500000J0D01*
G01*
X15000000Y-40500000D02*
G75*
G03*
X18000000Y-40500000I1500000J0D01*
G01*
X35000000Y-24500000D02*
G75*
G03*
X32000000Y-24500000I-1500000J0D01*
G01*
X32000000Y-24500000D02*
G75*
G03*
X35000000Y-24500000I1500000J0D01*
G01*
X35000000Y-40500000D02*
G75*
G03*
X32000000Y-40500000I-1500000J0D01*
G01*
X32000000Y-40500000D02*
G75*
G03*
X35000000Y-40500000I1500000J0D01*
G01*
%LPC*%
D13*
X13600000Y-45800000D03*
X13600000Y-43975000D03*
D14*
X22425000Y-45212000D03*
D15*
X20600000Y24250000D03*
X27630000Y11250000D03*
X28220000Y24250000D03*
X25090000Y11250000D03*
X23140000Y24250000D03*
X25680000Y24250000D03*
X22550000Y11250000D03*
D16*
X31500000Y-3000000D03*
X18500000Y-10030000D03*
X31500000Y-10620000D03*
X18500000Y-7490000D03*
X31500000Y-5540000D03*
X31500000Y-8080000D03*
X18500000Y-4950000D03*
D17*
X16375000Y-45212000D03*
X33700000Y-45175000D03*
D15*
X21130000Y53500000D03*
X23670000Y53500000D03*
X26210000Y53500000D03*
X28750000Y53500000D03*
D13*
X36240000Y-45800000D03*
X36240000Y-43975000D03*
D18*
X27515000Y-45212000D03*
D19*
X24975000Y-46912000D03*
D16*
X31500000Y-28000000D03*
X18500000Y-35030000D03*
X31500000Y-35620000D03*
X18500000Y-32490000D03*
X31500000Y-30540000D03*
X31500000Y-33080000D03*
X18500000Y-29950000D03*
D20*
X33870000Y0D03*
D21*
X33870000Y-2540000D03*
X33870000Y-5080000D03*
X33870000Y-7620000D03*
X33870000Y-10160000D03*
X33870000Y-12700000D03*
X33870000Y-15240000D03*
X33870000Y-17780000D03*
X33870000Y-20320000D03*
X33870000Y-22860000D03*
X33870000Y-25400000D03*
X33870000Y-27940000D03*
X16090000Y-27940000D03*
X16090000Y-25400000D03*
X16090000Y-22860000D03*
X16090000Y-20320000D03*
X16090000Y-17780000D03*
X16090000Y-15240000D03*
X16090000Y-12700000D03*
X16090000Y-10160000D03*
X16090000Y-7620000D03*
X16090000Y-5080000D03*
X16090000Y-2540000D03*
X16090000Y0D03*
D17*
X33900000Y47750000D03*
D22*
X33900000Y45210000D03*
X31360000Y47750000D03*
X31360000Y45210000D03*
X28820000Y47750000D03*
X28820000Y45210000D03*
X26280000Y47750000D03*
X26280000Y45210000D03*
X23740000Y47750000D03*
X23740000Y45210000D03*
X21200000Y47750000D03*
X21200000Y45210000D03*
X18660000Y47750000D03*
X18660000Y45210000D03*
X16120000Y47750000D03*
D17*
X16120000Y45210000D03*
D23*
X16000000Y-42000000D03*
D17*
X16000000Y-39460000D03*
D22*
X18540000Y-42000000D03*
X18540000Y-39460000D03*
X21080000Y-42000000D03*
X21080000Y-39460000D03*
X23620000Y-42000000D03*
X23620000Y-39460000D03*
X26160000Y-42000000D03*
X26160000Y-39460000D03*
X28700000Y-42000000D03*
X28700000Y-39460000D03*
X31240000Y-42000000D03*
X31240000Y-39460000D03*
D17*
X33780000Y-42000000D03*
D22*
X33780000Y-39460000D03*
D24*
X17380000Y6490000D03*
X17380000Y9030000D03*
X17380000Y11570000D03*
X17380000Y14110000D03*
X17380000Y16650000D03*
X17380000Y19190000D03*
X17380000Y21730000D03*
X17380000Y24270000D03*
X17380000Y26810000D03*
X17380000Y29350000D03*
X17380000Y31890000D03*
X17380000Y34430000D03*
X17380000Y36970000D03*
X17380000Y39510000D03*
D25*
X32620000Y39510000D03*
D24*
X32620000Y36970000D03*
X32620000Y34430000D03*
X32620000Y31890000D03*
X32620000Y29350000D03*
X32620000Y26810000D03*
X32620000Y24270000D03*
X32620000Y21730000D03*
X32620000Y19190000D03*
X32620000Y16650000D03*
X32620000Y14110000D03*
X32620000Y11570000D03*
X32620000Y9030000D03*
X32620000Y6490000D03*
%LPD*%
M02*
