G04 #@! TF.GenerationSoftware,KiCad,Pcbnew,7.0.2-0*
G04 #@! TF.CreationDate,2023-11-29T23:37:13+01:00*
G04 #@! TF.ProjectId,5hp_controller_oled,3568705f-636f-46e7-9472-6f6c6c65725f,rev?*
G04 #@! TF.SameCoordinates,Original*
G04 #@! TF.FileFunction,Copper,L2,Bot*
G04 #@! TF.FilePolarity,Positive*
%FSLAX46Y46*%
G04 Gerber Fmt 4.6, Leading zero omitted, Abs format (unit mm)*
G04 Created by KiCad (PCBNEW 7.0.2-0) date 2023-11-29 23:37:13*
%MOMM*%
%LPD*%
G01*
G04 APERTURE LIST*
G04 #@! TA.AperFunction,ComponentPad*
%ADD10R,1.700000X2.000000*%
G04 #@! TD*
G04 #@! TA.AperFunction,ComponentPad*
%ADD11O,1.600000X2.000000*%
G04 #@! TD*
G04 #@! TA.AperFunction,ComponentPad*
%ADD12O,2.000000X1.600000*%
G04 #@! TD*
G04 #@! TA.AperFunction,ComponentPad*
%ADD13R,1.700000X1.700000*%
G04 #@! TD*
G04 #@! TA.AperFunction,ComponentPad*
%ADD14R,2.000000X2.000000*%
G04 #@! TD*
G04 #@! TA.AperFunction,ComponentPad*
%ADD15O,2.000000X3.400000*%
G04 #@! TD*
G04 #@! TA.AperFunction,ComponentPad*
%ADD16R,1.600000X1.600000*%
G04 #@! TD*
G04 #@! TA.AperFunction,ComponentPad*
%ADD17O,1.600000X1.600000*%
G04 #@! TD*
G04 #@! TA.AperFunction,ComponentPad*
%ADD18O,1.700000X1.700000*%
G04 #@! TD*
G04 #@! TA.AperFunction,ComponentPad*
%ADD19C,1.700000*%
G04 #@! TD*
G04 #@! TA.AperFunction,ComponentPad*
%ADD20C,1.600000*%
G04 #@! TD*
G04 #@! TA.AperFunction,ComponentPad*
%ADD21C,1.404000*%
G04 #@! TD*
G04 #@! TA.AperFunction,ViaPad*
%ADD22C,1.000000*%
G04 #@! TD*
G04 #@! TA.AperFunction,ViaPad*
%ADD23C,0.800000*%
G04 #@! TD*
G04 #@! TA.AperFunction,Conductor*
%ADD24C,0.500000*%
G04 #@! TD*
G04 #@! TA.AperFunction,Conductor*
%ADD25C,1.500000*%
G04 #@! TD*
G04 #@! TA.AperFunction,Conductor*
%ADD26C,0.250000*%
G04 #@! TD*
G04 APERTURE END LIST*
D10*
X22425000Y-45212000D03*
D11*
X20600000Y24250000D03*
X27630000Y11250000D03*
X28220000Y24250000D03*
X25090000Y11250000D03*
X23140000Y24250000D03*
X25680000Y24250000D03*
X22550000Y11250000D03*
D12*
X31500000Y-3000000D03*
X18500000Y-10030000D03*
X31500000Y-10620000D03*
X18500000Y-7490000D03*
X31500000Y-5540000D03*
X31500000Y-8080000D03*
X18500000Y-4950000D03*
D13*
X16375000Y-45212000D03*
X33700000Y-45175000D03*
D11*
X21130000Y53500000D03*
X23670000Y53500000D03*
X26210000Y53500000D03*
X28750000Y53500000D03*
D14*
X27515000Y-45212000D03*
D15*
X24975000Y-46912000D03*
D12*
X31500000Y-28000000D03*
X18500000Y-35030000D03*
X31500000Y-35620000D03*
X18500000Y-32490000D03*
X31500000Y-30540000D03*
X31500000Y-33080000D03*
X18500000Y-29950000D03*
D16*
X33870000Y0D03*
D17*
X33870000Y-2540000D03*
X33870000Y-5080000D03*
X33870000Y-7620000D03*
X33870000Y-10160000D03*
X33870000Y-12700000D03*
X33870000Y-15240000D03*
X33870000Y-17780000D03*
X33870000Y-20320000D03*
X33870000Y-22860000D03*
X33870000Y-25400000D03*
X33870000Y-27940000D03*
X33870000Y-30480000D03*
X33870000Y-33020000D03*
X16090000Y-33020000D03*
X16090000Y-30480000D03*
X16090000Y-27940000D03*
X16090000Y-25400000D03*
X16090000Y-22860000D03*
X16090000Y-20320000D03*
X16090000Y-17780000D03*
X16090000Y-15240000D03*
X16090000Y-12700000D03*
X16090000Y-10160000D03*
X16090000Y-7620000D03*
X16090000Y-5080000D03*
X16090000Y-2540000D03*
X16090000Y0D03*
D13*
X33900000Y47750000D03*
D18*
X33900000Y45210000D03*
X31360000Y47750000D03*
X31360000Y45210000D03*
X28820000Y47750000D03*
X28820000Y45210000D03*
X26280000Y47750000D03*
X26280000Y45210000D03*
X23740000Y47750000D03*
X23740000Y45210000D03*
X21200000Y47750000D03*
X21200000Y45210000D03*
X18660000Y47750000D03*
X18660000Y45210000D03*
X16120000Y47750000D03*
D13*
X16120000Y45210000D03*
D19*
X16000000Y-42000000D03*
D13*
X16000000Y-39460000D03*
D18*
X18540000Y-42000000D03*
X18540000Y-39460000D03*
X21080000Y-42000000D03*
X21080000Y-39460000D03*
X23620000Y-42000000D03*
X23620000Y-39460000D03*
X26160000Y-42000000D03*
X26160000Y-39460000D03*
X28700000Y-42000000D03*
X28700000Y-39460000D03*
X31240000Y-42000000D03*
X31240000Y-39460000D03*
D13*
X33780000Y-42000000D03*
D18*
X33780000Y-39460000D03*
D20*
X17380000Y6490000D03*
X17380000Y9030000D03*
X17380000Y11570000D03*
X17380000Y14110000D03*
X17380000Y16650000D03*
X17380000Y19190000D03*
X17380000Y21730000D03*
X17380000Y24270000D03*
X17380000Y26810000D03*
X17380000Y29350000D03*
X17380000Y31890000D03*
X17380000Y34430000D03*
X17380000Y36970000D03*
X17380000Y39510000D03*
D21*
X32620000Y39510000D03*
D20*
X32620000Y36970000D03*
X32620000Y34430000D03*
X32620000Y31890000D03*
X32620000Y29350000D03*
X32620000Y26810000D03*
X32620000Y24270000D03*
X32620000Y21730000D03*
X32620000Y19190000D03*
X32620000Y16650000D03*
X32620000Y14110000D03*
X32620000Y11570000D03*
X32620000Y9030000D03*
X32620000Y6490000D03*
D22*
X27350000Y-29700000D03*
X27400000Y-35150000D03*
D23*
X36000000Y50800000D03*
X27700000Y-19400000D03*
X27000000Y-20800000D03*
X20500000Y14100000D03*
X21500000Y34400000D03*
X20500000Y37100000D03*
X14200000Y9000000D03*
X14850000Y11500000D03*
X13550000Y29150000D03*
X22900000Y31900000D03*
X29940000Y19340000D03*
D24*
X30290000Y13900000D02*
X25200000Y13900000D01*
X32620000Y11570000D02*
X30290000Y13900000D01*
X25200000Y13900000D02*
X22550000Y11250000D01*
D25*
X31895000Y-2500000D02*
X33805000Y-2500000D01*
D26*
X35350000Y24080000D02*
X35350000Y-3600000D01*
X32620000Y26810000D02*
X35350000Y24080000D01*
X35350000Y-3600000D02*
X33870000Y-5080000D01*
X35800000Y49250000D02*
X32150000Y52900000D01*
X32150000Y52900000D02*
X28750000Y52900000D01*
X35800000Y-18390000D02*
X35800000Y49250000D01*
X33870000Y-20320000D02*
X35800000Y-18390000D01*
X36250000Y49200000D02*
X36250000Y-20480000D01*
X36250000Y-20480000D02*
X33870000Y-22860000D01*
X36250000Y49200000D02*
X36250000Y50850000D01*
X33870000Y-25685000D02*
X27700000Y-19515000D01*
X33870000Y-27940000D02*
X27000000Y-21070000D01*
X16820000Y-33750000D02*
X30980000Y-33750000D01*
X16090000Y-33020000D02*
X16820000Y-33750000D01*
X31500000Y-33080000D02*
X30965000Y-33615000D01*
X16090000Y-30480000D02*
X16810000Y-31200000D01*
X16810000Y-31200000D02*
X30840000Y-31200000D01*
X30840000Y-31200000D02*
X31500000Y-30540000D01*
X30185000Y-36300000D02*
X16915000Y-36300000D01*
X31240000Y-42115000D02*
X32500000Y-40855000D01*
X32500000Y-38615000D02*
X30185000Y-36300000D01*
X16090000Y-17780000D02*
X14965000Y-18905000D01*
X14965000Y-34350000D02*
X16482500Y-35867500D01*
X14965000Y-18905000D02*
X14965000Y-34350000D01*
X16915000Y-36300000D02*
X16482500Y-35867500D01*
X32500000Y-40855000D02*
X32500000Y-38615000D01*
X16615000Y-36815000D02*
X16037500Y-36237500D01*
X16037500Y-36237500D02*
X14515000Y-34715000D01*
X31480000Y-39575000D02*
X28720000Y-36815000D01*
X14515000Y-34715000D02*
X14515000Y-16815000D01*
X14515000Y-16815000D02*
X16090000Y-15240000D01*
X28720000Y-36815000D02*
X16615000Y-36815000D01*
X27900000Y-37315000D02*
X16315000Y-37315000D01*
X15662500Y-36662500D02*
X14065000Y-35065000D01*
X16315000Y-37315000D02*
X15662500Y-36662500D01*
X27900000Y-37315000D02*
X28300426Y-37315000D01*
X14065000Y-14725000D02*
X16090000Y-12700000D01*
X28700000Y-42115000D02*
X29950000Y-40865000D01*
X14065000Y-35065000D02*
X14065000Y-14725000D01*
X29950000Y-40865000D02*
X29950000Y-38964574D01*
X28101700Y-37315000D02*
X27900000Y-37315000D01*
X28300426Y-37315000D02*
X29950000Y-38964574D01*
X27040000Y-37915000D02*
X16215000Y-37915000D01*
X13600000Y-12650000D02*
X13600000Y-35300000D01*
X16215000Y-37915000D02*
X15512500Y-37212500D01*
X16090000Y-10160000D02*
X13600000Y-12650000D01*
X13600000Y-35300000D02*
X15512500Y-37212500D01*
X28700000Y-39575000D02*
X27040000Y-37915000D01*
X17095000Y14110000D02*
X20505000Y14110000D01*
X21170000Y34430000D02*
X21200000Y34400000D01*
X17380000Y34430000D02*
X21170000Y34430000D01*
X17380000Y36970000D02*
X20370000Y36970000D01*
X20370000Y36970000D02*
X20500000Y37100000D01*
X14400000Y9000000D02*
X17650000Y9000000D01*
X17755000Y11500000D02*
X15045000Y11500000D01*
X17380000Y29350000D02*
X13450000Y29350000D01*
X22600000Y31890000D02*
X18090000Y31890000D01*
X23740000Y45210000D02*
X23740000Y43310000D01*
X23740000Y43310000D02*
X32620000Y34430000D01*
X14500000Y42390000D02*
X16295000Y40595000D01*
X17380000Y39510000D02*
X16295000Y40595000D01*
X14500000Y46130000D02*
X14500000Y42390000D01*
X16120000Y47750000D02*
X14500000Y46130000D01*
X26280000Y45210000D02*
X26280000Y43310000D01*
X26280000Y43310000D02*
X32620000Y36970000D01*
X32620000Y39510000D02*
X32620000Y41410000D01*
X32620000Y41410000D02*
X28820000Y45210000D01*
X31360000Y45210000D02*
X34065000Y42505000D01*
X34065000Y42505000D02*
X34065000Y33335000D01*
X34065000Y33335000D02*
X32620000Y31890000D01*
X33900000Y45210000D02*
X34935000Y44175000D01*
X32620000Y29350000D02*
X34935000Y31665000D01*
X34935000Y44175000D02*
X34935000Y31665000D01*
X17380000Y19190000D02*
X30000000Y19200000D01*
G04 #@! TA.AperFunction,Conductor*
G36*
X20321751Y54929815D02*
G01*
X20367506Y54877011D01*
X20377450Y54807853D01*
X20348425Y54744297D01*
X20325836Y54723926D01*
X20291184Y54699662D01*
X20130341Y54538819D01*
X19999865Y54352480D01*
X19903733Y54146326D01*
X19844858Y53926602D01*
X19830236Y53759464D01*
X19830000Y53754053D01*
X19830000Y53750000D01*
X20696314Y53750000D01*
X20670507Y53709844D01*
X20630000Y53571889D01*
X20630000Y53428111D01*
X20670507Y53290156D01*
X20696314Y53250000D01*
X19830000Y53250000D01*
X19830000Y53245946D01*
X19830236Y53240535D01*
X19844858Y53073397D01*
X19903733Y52853673D01*
X19999865Y52647519D01*
X20130341Y52461180D01*
X20291180Y52300341D01*
X20477519Y52169865D01*
X20683673Y52073733D01*
X20879999Y52021126D01*
X20880000Y52021127D01*
X20880000Y53064498D01*
X20987685Y53015320D01*
X21094237Y53000000D01*
X21165763Y53000000D01*
X21272315Y53015320D01*
X21380000Y53064498D01*
X21380000Y52021126D01*
X21576326Y52073733D01*
X21782480Y52169865D01*
X21968819Y52300341D01*
X22129658Y52461180D01*
X22260134Y52647519D01*
X22287342Y52705865D01*
X22333514Y52758304D01*
X22400708Y52777456D01*
X22467589Y52757240D01*
X22512105Y52705866D01*
X22539430Y52647267D01*
X22669953Y52460859D01*
X22830859Y52299953D01*
X23017264Y52169432D01*
X23223502Y52073261D01*
X23443310Y52014364D01*
X23670000Y51994531D01*
X23896689Y52014364D01*
X24116497Y52073261D01*
X24322735Y52169432D01*
X24509140Y52299953D01*
X24670046Y52460859D01*
X24800568Y52647266D01*
X24827617Y52705273D01*
X24873789Y52757713D01*
X24940982Y52776865D01*
X25007864Y52756650D01*
X25052380Y52705276D01*
X25079431Y52647266D01*
X25209953Y52460859D01*
X25370859Y52299953D01*
X25557264Y52169432D01*
X25763502Y52073261D01*
X25983310Y52014364D01*
X26209999Y51994531D01*
X26436689Y52014364D01*
X26656497Y52073261D01*
X26862735Y52169432D01*
X27049140Y52299953D01*
X27210046Y52460859D01*
X27340566Y52647263D01*
X27340568Y52647266D01*
X27367619Y52705276D01*
X27413791Y52757714D01*
X27480985Y52776865D01*
X27547866Y52756649D01*
X27592382Y52705275D01*
X27619433Y52647263D01*
X27749953Y52460859D01*
X27910859Y52299953D01*
X28097264Y52169432D01*
X28303502Y52073261D01*
X28523310Y52014364D01*
X28750000Y51994531D01*
X28976689Y52014364D01*
X29196497Y52073261D01*
X29402734Y52169432D01*
X29403352Y52169865D01*
X29520761Y52252075D01*
X29586967Y52274402D01*
X29591884Y52274500D01*
X31839548Y52274500D01*
X31906587Y52254815D01*
X31927229Y52238181D01*
X34853228Y49312180D01*
X34886713Y49250857D01*
X34881729Y49181165D01*
X34839857Y49125232D01*
X34774393Y49100815D01*
X34765574Y49100499D01*
X33002128Y49100499D01*
X32942517Y49094091D01*
X32807669Y49043796D01*
X32692454Y48957546D01*
X32606204Y48842331D01*
X32586124Y48788494D01*
X32557189Y48710916D01*
X32515317Y48654983D01*
X32449853Y48630566D01*
X32381580Y48645418D01*
X32353332Y48666563D01*
X32231401Y48788495D01*
X32037830Y48924035D01*
X31823663Y49023903D01*
X31595408Y49085063D01*
X31360000Y49105659D01*
X31124592Y49085063D01*
X30896337Y49023903D01*
X30682171Y48924035D01*
X30488599Y48788495D01*
X30321505Y48621401D01*
X30191573Y48435838D01*
X30136998Y48392215D01*
X30067500Y48385021D01*
X30005145Y48416544D01*
X29988428Y48435836D01*
X29858495Y48621401D01*
X29691401Y48788495D01*
X29497830Y48924035D01*
X29283663Y49023903D01*
X29055408Y49085063D01*
X28820000Y49105659D01*
X28819999Y49105658D01*
X28819999Y49105659D01*
X28584592Y49085063D01*
X28356337Y49023903D01*
X28142171Y48924035D01*
X27948599Y48788495D01*
X27781505Y48621401D01*
X27651573Y48435838D01*
X27596998Y48392215D01*
X27527500Y48385021D01*
X27465145Y48416544D01*
X27448428Y48435836D01*
X27318495Y48621401D01*
X27151401Y48788495D01*
X26957830Y48924035D01*
X26743663Y49023903D01*
X26515408Y49085063D01*
X26280000Y49105659D01*
X26279999Y49105658D01*
X26279999Y49105659D01*
X26044592Y49085063D01*
X25816337Y49023903D01*
X25602171Y48924035D01*
X25485486Y48842331D01*
X25408598Y48788494D01*
X25241505Y48621401D01*
X25111574Y48435840D01*
X25056997Y48392215D01*
X24987499Y48385022D01*
X24925144Y48416544D01*
X24908432Y48435830D01*
X24778495Y48621401D01*
X24611401Y48788495D01*
X24417830Y48924035D01*
X24203663Y49023903D01*
X23975408Y49085063D01*
X23740000Y49105659D01*
X23504592Y49085063D01*
X23276337Y49023903D01*
X23062171Y48924035D01*
X22868599Y48788495D01*
X22701505Y48621401D01*
X22571573Y48435838D01*
X22516998Y48392215D01*
X22447500Y48385021D01*
X22385145Y48416544D01*
X22368428Y48435836D01*
X22238495Y48621401D01*
X22071401Y48788495D01*
X21877830Y48924035D01*
X21663663Y49023903D01*
X21435408Y49085063D01*
X21200000Y49105659D01*
X21199999Y49105658D01*
X21199999Y49105659D01*
X20964592Y49085063D01*
X20736337Y49023903D01*
X20522171Y48924035D01*
X20328599Y48788495D01*
X20161505Y48621401D01*
X20031573Y48435838D01*
X19976998Y48392215D01*
X19907500Y48385021D01*
X19845145Y48416544D01*
X19828428Y48435836D01*
X19698495Y48621401D01*
X19531401Y48788495D01*
X19337830Y48924035D01*
X19123663Y49023903D01*
X18895408Y49085063D01*
X18660000Y49105659D01*
X18424592Y49085063D01*
X18196337Y49023903D01*
X17982171Y48924035D01*
X17788599Y48788495D01*
X17621505Y48621401D01*
X17491573Y48435838D01*
X17436998Y48392215D01*
X17367500Y48385021D01*
X17305145Y48416544D01*
X17288428Y48435836D01*
X17158495Y48621401D01*
X16991401Y48788495D01*
X16797830Y48924035D01*
X16583663Y49023903D01*
X16355408Y49085063D01*
X16120000Y49105659D01*
X15884592Y49085063D01*
X15656337Y49023903D01*
X15442171Y48924035D01*
X15325486Y48842331D01*
X15248598Y48788494D01*
X15081505Y48621401D01*
X14945965Y48427829D01*
X14846097Y48213663D01*
X14784936Y47985407D01*
X14764340Y47750000D01*
X14784936Y47514593D01*
X14811856Y47414126D01*
X14810193Y47344276D01*
X14779762Y47294352D01*
X14116211Y46630802D01*
X14100113Y46617906D01*
X14052098Y46566775D01*
X14049387Y46563978D01*
X14029880Y46544471D01*
X14027490Y46541390D01*
X14027412Y46541290D01*
X14019837Y46532422D01*
X13989938Y46500582D01*
X13980288Y46483028D01*
X13969604Y46466764D01*
X13957327Y46450936D01*
X13939980Y46410851D01*
X13934841Y46400361D01*
X13913802Y46362091D01*
X13908821Y46342691D01*
X13902519Y46324284D01*
X13894562Y46305897D01*
X13887729Y46262758D01*
X13885361Y46251324D01*
X13874500Y46209019D01*
X13874500Y46188983D01*
X13872973Y46169584D01*
X13869840Y46149804D01*
X13873950Y46106324D01*
X13874500Y46094655D01*
X13874500Y42472743D01*
X13872235Y42452239D01*
X13874439Y42382126D01*
X13874500Y42378231D01*
X13874500Y42350650D01*
X13874985Y42346805D01*
X13874987Y42346780D01*
X13875004Y42346653D01*
X13875918Y42335033D01*
X13877290Y42291369D01*
X13882880Y42272129D01*
X13886825Y42253081D01*
X13889335Y42233209D01*
X13905413Y42192599D01*
X13909194Y42181554D01*
X13921381Y42139610D01*
X13931579Y42122365D01*
X13940133Y42104904D01*
X13947512Y42086267D01*
X13973185Y42050931D01*
X13979595Y42041174D01*
X14001829Y42003580D01*
X14015996Y41989413D01*
X14028626Y41974624D01*
X14040404Y41958413D01*
X14074058Y41930572D01*
X14082697Y41922711D01*
X15880529Y40124880D01*
X15880533Y40124876D01*
X16080586Y39924822D01*
X16114071Y39863499D01*
X16112680Y39805049D01*
X16094364Y39736692D01*
X16074531Y39510000D01*
X16094364Y39283310D01*
X16153261Y39063502D01*
X16249432Y38857264D01*
X16379953Y38670859D01*
X16540859Y38509953D01*
X16727263Y38379433D01*
X16785275Y38352382D01*
X16837714Y38306209D01*
X16856865Y38239015D01*
X16836649Y38172134D01*
X16785275Y38127618D01*
X16727266Y38100568D01*
X16727263Y38100566D01*
X16540859Y37970046D01*
X16379953Y37809140D01*
X16249432Y37622735D01*
X16153261Y37416497D01*
X16094364Y37196689D01*
X16074531Y36970000D01*
X16094364Y36743310D01*
X16153261Y36523502D01*
X16249432Y36317264D01*
X16379953Y36130859D01*
X16540859Y35969953D01*
X16727263Y35839433D01*
X16785275Y35812382D01*
X16837714Y35766209D01*
X16856865Y35699015D01*
X16836649Y35632134D01*
X16785275Y35587618D01*
X16727266Y35560568D01*
X16727263Y35560566D01*
X16540859Y35430046D01*
X16379953Y35269140D01*
X16249432Y35082735D01*
X16153261Y34876497D01*
X16094364Y34656689D01*
X16074531Y34430000D01*
X16094364Y34203310D01*
X16153261Y33983502D01*
X16249432Y33777264D01*
X16379953Y33590859D01*
X16540859Y33429953D01*
X16727263Y33299433D01*
X16785275Y33272382D01*
X16837714Y33226209D01*
X16856865Y33159015D01*
X16836649Y33092134D01*
X16785275Y33047618D01*
X16727266Y33020568D01*
X16727263Y33020566D01*
X16540859Y32890046D01*
X16379953Y32729140D01*
X16249432Y32542735D01*
X16153261Y32336497D01*
X16094364Y32116689D01*
X16074531Y31890000D01*
X16094364Y31663310D01*
X16153261Y31443502D01*
X16249432Y31237264D01*
X16379953Y31050859D01*
X16540859Y30889953D01*
X16727264Y30759432D01*
X16785275Y30732382D01*
X16837714Y30686210D01*
X16856866Y30619016D01*
X16836650Y30552135D01*
X16785275Y30507618D01*
X16727264Y30480567D01*
X16540859Y30350046D01*
X16379953Y30189140D01*
X16267387Y30028377D01*
X16212811Y29984752D01*
X16165812Y29975500D01*
X13936217Y29975500D01*
X13885781Y29986221D01*
X13848692Y30002734D01*
X13829803Y30011144D01*
X13768083Y30024262D01*
X13644648Y30050500D01*
X13644646Y30050500D01*
X13455354Y30050500D01*
X13455352Y30050500D01*
X13270197Y30011144D01*
X13097269Y29934151D01*
X12944129Y29822889D01*
X12817466Y29682216D01*
X12781887Y29620590D01*
X12731320Y29572375D01*
X12662713Y29559151D01*
X12597849Y29585119D01*
X12557320Y29642033D01*
X12550500Y29682590D01*
X12550500Y54825500D01*
X12570185Y54892539D01*
X12622989Y54938294D01*
X12674500Y54949500D01*
X20254712Y54949500D01*
X20321751Y54929815D01*
G37*
G04 #@! TD.AperFunction*
G04 #@! TA.AperFunction,Conductor*
G36*
X37392539Y54929815D02*
G01*
X37438294Y54877011D01*
X37449500Y54825500D01*
X37449500Y-45786123D01*
X37429815Y-45853162D01*
X37377011Y-45898917D01*
X37325599Y-45910123D01*
X35174598Y-45911845D01*
X35107543Y-45892214D01*
X35061746Y-45839447D01*
X35050499Y-45787848D01*
X35050499Y-44277128D01*
X35044091Y-44217517D01*
X34993796Y-44082669D01*
X34907546Y-43967454D01*
X34792331Y-43881204D01*
X34657483Y-43830909D01*
X34597873Y-43824500D01*
X34594550Y-43824500D01*
X32805439Y-43824500D01*
X32805420Y-43824500D01*
X32802128Y-43824501D01*
X32798848Y-43824853D01*
X32798840Y-43824854D01*
X32742515Y-43830909D01*
X32607669Y-43881204D01*
X32492454Y-43967454D01*
X32406204Y-44082668D01*
X32355910Y-44217515D01*
X32355909Y-44217517D01*
X32349500Y-44277127D01*
X32349500Y-44280448D01*
X32349500Y-44280449D01*
X32349500Y-45790208D01*
X32329815Y-45857247D01*
X32277011Y-45903002D01*
X32225599Y-45914208D01*
X31336996Y-45914919D01*
X31319181Y-45913647D01*
X31144725Y-45888463D01*
X31144713Y-45888461D01*
X31141784Y-45888039D01*
X31138829Y-45887897D01*
X31138812Y-45887896D01*
X30752969Y-45869443D01*
X30750000Y-45869301D01*
X30747031Y-45869443D01*
X30361187Y-45887896D01*
X30361168Y-45887897D01*
X30358216Y-45888039D01*
X30355282Y-45888462D01*
X30355277Y-45888463D01*
X30174269Y-45914593D01*
X30156651Y-45915865D01*
X29139598Y-45916679D01*
X29072543Y-45897048D01*
X29026746Y-45844281D01*
X29015499Y-45792679D01*
X29015499Y-44167439D01*
X29015499Y-44164128D01*
X29009091Y-44104517D01*
X28958796Y-43969669D01*
X28872546Y-43854454D01*
X28757331Y-43768204D01*
X28622483Y-43717909D01*
X28562873Y-43711500D01*
X28559550Y-43711500D01*
X26470439Y-43711500D01*
X26470420Y-43711500D01*
X26467128Y-43711501D01*
X26463848Y-43711853D01*
X26463840Y-43711854D01*
X26407515Y-43717909D01*
X26272669Y-43768204D01*
X26157454Y-43854454D01*
X26071204Y-43969668D01*
X26020910Y-44104515D01*
X26020909Y-44104517D01*
X26014500Y-44164127D01*
X26014500Y-44167448D01*
X26014500Y-44167449D01*
X26014500Y-44866627D01*
X25994815Y-44933666D01*
X25942011Y-44979421D01*
X25872853Y-44989365D01*
X25814338Y-44964480D01*
X25798236Y-44951948D01*
X25579606Y-44833631D01*
X25344493Y-44752916D01*
X25225000Y-44732976D01*
X25225000Y-45716118D01*
X25131631Y-45677444D01*
X24975000Y-45656823D01*
X24818369Y-45677444D01*
X24725000Y-45716118D01*
X24725000Y-44732976D01*
X24724999Y-44732976D01*
X24605506Y-44752916D01*
X24370393Y-44833631D01*
X24151763Y-44951948D01*
X23975661Y-45089014D01*
X23910667Y-45114657D01*
X23842127Y-45101091D01*
X23791803Y-45052622D01*
X23775499Y-44991161D01*
X23775499Y-44167439D01*
X23775499Y-44164128D01*
X23769091Y-44104517D01*
X23718796Y-43969669D01*
X23632546Y-43854454D01*
X23517331Y-43768204D01*
X23382483Y-43717909D01*
X23322873Y-43711500D01*
X23319550Y-43711500D01*
X21530439Y-43711500D01*
X21530420Y-43711500D01*
X21527128Y-43711501D01*
X21523848Y-43711853D01*
X21523840Y-43711854D01*
X21467515Y-43717909D01*
X21332669Y-43768204D01*
X21217454Y-43854454D01*
X21131204Y-43969668D01*
X21080910Y-44104515D01*
X21080909Y-44104517D01*
X21074500Y-44164127D01*
X21074500Y-44167448D01*
X21074500Y-44167449D01*
X21074500Y-45799238D01*
X21054815Y-45866277D01*
X21002011Y-45912032D01*
X20950599Y-45923238D01*
X19900449Y-45924079D01*
X19882633Y-45922807D01*
X19644722Y-45888463D01*
X19644719Y-45888462D01*
X19641784Y-45888039D01*
X19638829Y-45887897D01*
X19638812Y-45887896D01*
X19252969Y-45869443D01*
X19250000Y-45869301D01*
X19247031Y-45869443D01*
X18861187Y-45887896D01*
X18861168Y-45887897D01*
X18858216Y-45888039D01*
X18855282Y-45888462D01*
X18855277Y-45888463D01*
X18610107Y-45923856D01*
X18592489Y-45925128D01*
X17849598Y-45925722D01*
X17782543Y-45906091D01*
X17736746Y-45853324D01*
X17725499Y-45801725D01*
X17725499Y-44314128D01*
X17719091Y-44254517D01*
X17668796Y-44119669D01*
X17582546Y-44004454D01*
X17467331Y-43918204D01*
X17332483Y-43867909D01*
X17272873Y-43861500D01*
X17269550Y-43861500D01*
X15480439Y-43861500D01*
X15480420Y-43861500D01*
X15477128Y-43861501D01*
X15473848Y-43861853D01*
X15473840Y-43861854D01*
X15417515Y-43867909D01*
X15282669Y-43918204D01*
X15167454Y-44004454D01*
X15081204Y-44119668D01*
X15030910Y-44254515D01*
X15030909Y-44254517D01*
X15024500Y-44314127D01*
X15024500Y-44317448D01*
X15024500Y-44317449D01*
X15024500Y-45804084D01*
X15004815Y-45871123D01*
X14952011Y-45916878D01*
X14900599Y-45928084D01*
X12674599Y-45929867D01*
X12607544Y-45910236D01*
X12561747Y-45857469D01*
X12550500Y-45805867D01*
X12550500Y28617409D01*
X12570185Y28684448D01*
X12622989Y28730203D01*
X12692147Y28740147D01*
X12755703Y28711122D01*
X12781887Y28679409D01*
X12817466Y28617784D01*
X12944129Y28477110D01*
X13097269Y28365848D01*
X13270197Y28288855D01*
X13455352Y28249500D01*
X13455354Y28249500D01*
X13644648Y28249500D01*
X13829802Y28288855D01*
X14002730Y28365848D01*
X14155870Y28477110D01*
X14282533Y28617783D01*
X14308350Y28662500D01*
X14358916Y28710715D01*
X14415737Y28724500D01*
X16165812Y28724500D01*
X16232851Y28704815D01*
X16267387Y28671623D01*
X16379953Y28510859D01*
X16540859Y28349953D01*
X16727263Y28219433D01*
X16785275Y28192382D01*
X16837714Y28146209D01*
X16856865Y28079015D01*
X16836649Y28012134D01*
X16785275Y27967618D01*
X16727266Y27940568D01*
X16727263Y27940566D01*
X16540859Y27810046D01*
X16379953Y27649140D01*
X16249432Y27462735D01*
X16153261Y27256497D01*
X16094364Y27036689D01*
X16074531Y26810000D01*
X16094364Y26583310D01*
X16153261Y26363502D01*
X16249432Y26157264D01*
X16379953Y25970859D01*
X16540859Y25809953D01*
X16727264Y25679432D01*
X16785275Y25652382D01*
X16837714Y25606210D01*
X16856866Y25539016D01*
X16836650Y25472135D01*
X16785275Y25427618D01*
X16727264Y25400567D01*
X16540859Y25270046D01*
X16379953Y25109140D01*
X16249432Y24922735D01*
X16153261Y24716497D01*
X16094364Y24496689D01*
X16074531Y24270000D01*
X16094364Y24043310D01*
X16153261Y23823502D01*
X16249432Y23617264D01*
X16379953Y23430859D01*
X16540859Y23269953D01*
X16727263Y23139433D01*
X16785275Y23112382D01*
X16837714Y23066209D01*
X16856865Y22999015D01*
X16836649Y22932134D01*
X16785275Y22887618D01*
X16727266Y22860568D01*
X16727263Y22860566D01*
X16540859Y22730046D01*
X16379953Y22569140D01*
X16249432Y22382735D01*
X16153261Y22176497D01*
X16094364Y21956689D01*
X16074531Y21730000D01*
X16094364Y21503310D01*
X16153261Y21283502D01*
X16249432Y21077264D01*
X16379953Y20890859D01*
X16540859Y20729953D01*
X16727264Y20599432D01*
X16785275Y20572382D01*
X16837714Y20526210D01*
X16856866Y20459016D01*
X16836650Y20392135D01*
X16785275Y20347618D01*
X16727264Y20320567D01*
X16540859Y20190046D01*
X16379953Y20029140D01*
X16249432Y19842735D01*
X16153261Y19636497D01*
X16094364Y19416689D01*
X16074531Y19190000D01*
X16094364Y18963310D01*
X16153261Y18743502D01*
X16249432Y18537264D01*
X16379953Y18350859D01*
X16540859Y18189953D01*
X16727263Y18059433D01*
X16785275Y18032382D01*
X16837714Y17986209D01*
X16856865Y17919015D01*
X16836649Y17852134D01*
X16785275Y17807618D01*
X16727266Y17780568D01*
X16727263Y17780566D01*
X16540859Y17650046D01*
X16379953Y17489140D01*
X16249432Y17302735D01*
X16153261Y17096497D01*
X16094364Y16876689D01*
X16074531Y16650000D01*
X16094364Y16423310D01*
X16153261Y16203502D01*
X16249432Y15997264D01*
X16379953Y15810859D01*
X16540859Y15649953D01*
X16727263Y15519433D01*
X16785275Y15492382D01*
X16837714Y15446209D01*
X16856865Y15379015D01*
X16836649Y15312134D01*
X16785275Y15267618D01*
X16727266Y15240568D01*
X16727265Y15240567D01*
X16727263Y15240566D01*
X16540859Y15110046D01*
X16379953Y14949140D01*
X16249432Y14762735D01*
X16153261Y14556497D01*
X16094364Y14336689D01*
X16074531Y14110000D01*
X16094364Y13883310D01*
X16153261Y13663502D01*
X16249432Y13457264D01*
X16379953Y13270859D01*
X16540859Y13109953D01*
X16727263Y12979433D01*
X16785275Y12952382D01*
X16837714Y12906209D01*
X16856865Y12839015D01*
X16836649Y12772134D01*
X16785275Y12727618D01*
X16727266Y12700568D01*
X16727263Y12700566D01*
X16540859Y12570046D01*
X16379953Y12409140D01*
X16249434Y12222738D01*
X16249433Y12222735D01*
X16249432Y12222734D01*
X16237475Y12197093D01*
X16191306Y12144657D01*
X16125095Y12125500D01*
X15553747Y12125500D01*
X15486708Y12145185D01*
X15461599Y12166526D01*
X15455871Y12172888D01*
X15302730Y12284151D01*
X15129803Y12361144D01*
X15068084Y12374262D01*
X14944648Y12400500D01*
X14944646Y12400500D01*
X14755354Y12400500D01*
X14755352Y12400500D01*
X14570197Y12361144D01*
X14397269Y12284151D01*
X14244129Y12172889D01*
X14117466Y12032216D01*
X14022820Y11868284D01*
X13964326Y11688257D01*
X13944540Y11500000D01*
X13964326Y11311742D01*
X14022820Y11131715D01*
X14117466Y10967783D01*
X14244129Y10827110D01*
X14397269Y10715848D01*
X14570197Y10638855D01*
X14755352Y10599500D01*
X14755354Y10599500D01*
X14944648Y10599500D01*
X15129802Y10638855D01*
X15302727Y10715847D01*
X15302730Y10715849D01*
X15455871Y10827112D01*
X15461598Y10833472D01*
X15521084Y10870121D01*
X15553747Y10874500D01*
X16214826Y10874500D01*
X16281865Y10854815D01*
X16316401Y10821623D01*
X16379953Y10730859D01*
X16540859Y10569953D01*
X16727263Y10439433D01*
X16785275Y10412382D01*
X16837714Y10366209D01*
X16856865Y10299015D01*
X16836649Y10232134D01*
X16785275Y10187618D01*
X16727266Y10160568D01*
X16727263Y10160566D01*
X16540859Y10030046D01*
X16379953Y9869140D01*
X16246381Y9678377D01*
X16191805Y9634752D01*
X16144806Y9625500D01*
X14903747Y9625500D01*
X14836708Y9645185D01*
X14811599Y9666526D01*
X14805871Y9672888D01*
X14652730Y9784151D01*
X14479803Y9861144D01*
X14418084Y9874262D01*
X14294648Y9900500D01*
X14294646Y9900500D01*
X14105354Y9900500D01*
X14105352Y9900500D01*
X13920197Y9861144D01*
X13747269Y9784151D01*
X13594129Y9672889D01*
X13467466Y9532216D01*
X13372820Y9368284D01*
X13314326Y9188257D01*
X13294540Y9000000D01*
X13314326Y8811742D01*
X13372820Y8631715D01*
X13467466Y8467783D01*
X13594129Y8327110D01*
X13747269Y8215848D01*
X13920197Y8138855D01*
X14105352Y8099500D01*
X14105354Y8099500D01*
X14294648Y8099500D01*
X14479802Y8138855D01*
X14652727Y8215847D01*
X14652730Y8215849D01*
X14805871Y8327112D01*
X14811598Y8333472D01*
X14871084Y8370121D01*
X14903747Y8374500D01*
X16186818Y8374500D01*
X16253857Y8354815D01*
X16288393Y8321623D01*
X16379953Y8190859D01*
X16540859Y8029953D01*
X16727267Y7899430D01*
X16785866Y7872105D01*
X16838305Y7825932D01*
X16857456Y7758739D01*
X16837239Y7691858D01*
X16785865Y7647342D01*
X16727515Y7620133D01*
X16654526Y7569026D01*
X16654526Y7569025D01*
X17238633Y6984918D01*
X17234839Y6984373D01*
X17101438Y6923451D01*
X16990605Y6827413D01*
X16911318Y6704040D01*
X16888866Y6627579D01*
X16300974Y7215472D01*
X16300972Y7215471D01*
X16249866Y7142484D01*
X16153733Y6936326D01*
X16094858Y6716602D01*
X16075033Y6490000D01*
X16094858Y6263397D01*
X16153733Y6043672D01*
X16249865Y5837516D01*
X16300973Y5764527D01*
X16300973Y5764526D01*
X16888866Y6352420D01*
X16911318Y6275960D01*
X16990605Y6152587D01*
X17101438Y6056549D01*
X17234839Y5995627D01*
X17238633Y5995081D01*
X16654526Y5410973D01*
X16727516Y5359865D01*
X16933672Y5263733D01*
X17153397Y5204858D01*
X17380000Y5185033D01*
X17606602Y5204858D01*
X17826326Y5263733D01*
X18032484Y5359866D01*
X18105471Y5410972D01*
X18105472Y5410974D01*
X17521366Y5995081D01*
X17525161Y5995627D01*
X17658562Y6056549D01*
X17769395Y6152587D01*
X17848682Y6275960D01*
X17871133Y6352419D01*
X18459025Y5764526D01*
X18459026Y5764526D01*
X18510133Y5837515D01*
X18606266Y6043673D01*
X18665141Y6263397D01*
X18684966Y6490000D01*
X18665141Y6716602D01*
X18606266Y6936326D01*
X18510134Y7142480D01*
X18459025Y7215472D01*
X17871133Y6627580D01*
X17848682Y6704040D01*
X17769395Y6827413D01*
X17658562Y6923451D01*
X17525161Y6984373D01*
X17521366Y6984918D01*
X18105472Y7569025D01*
X18032479Y7620136D01*
X17974135Y7647342D01*
X17921695Y7693514D01*
X17902543Y7760707D01*
X17922758Y7827589D01*
X17974132Y7872105D01*
X18032734Y7899432D01*
X18032736Y7899433D01*
X18219140Y8029953D01*
X18380046Y8190859D01*
X18510567Y8377264D01*
X18552778Y8467784D01*
X18606739Y8583504D01*
X18665635Y8803308D01*
X18685468Y9030000D01*
X18665635Y9256692D01*
X18606739Y9476496D01*
X18510568Y9682734D01*
X18380047Y9869139D01*
X18219139Y10030047D01*
X18032734Y10160568D01*
X17974724Y10187618D01*
X17922285Y10233790D01*
X17903133Y10300983D01*
X17923348Y10367865D01*
X17974725Y10412382D01*
X18032733Y10439431D01*
X18219140Y10569953D01*
X18380046Y10730859D01*
X18510567Y10917264D01*
X18547248Y10995925D01*
X18606739Y11123504D01*
X18665635Y11343308D01*
X18685468Y11570000D01*
X18665635Y11796692D01*
X18606739Y12016496D01*
X18510568Y12222734D01*
X18380047Y12409139D01*
X18219139Y12570047D01*
X18032734Y12700568D01*
X17974724Y12727618D01*
X17922285Y12773790D01*
X17903133Y12840983D01*
X17923348Y12907865D01*
X17974725Y12952382D01*
X18032733Y12979431D01*
X18219140Y13109953D01*
X18380046Y13270859D01*
X18492613Y13431623D01*
X18547189Y13475248D01*
X18594188Y13484500D01*
X19787248Y13484500D01*
X19854287Y13464815D01*
X19879398Y13443472D01*
X19894129Y13427110D01*
X20047269Y13315848D01*
X20220197Y13238855D01*
X20405352Y13199500D01*
X20405354Y13199500D01*
X20594648Y13199500D01*
X20779802Y13238855D01*
X20952730Y13315848D01*
X21105870Y13427110D01*
X21232533Y13567783D01*
X21327179Y13731715D01*
X21355332Y13818363D01*
X21385674Y13911744D01*
X21405460Y14100000D01*
X21385674Y14288256D01*
X21327179Y14468284D01*
X21232533Y14632216D01*
X21105871Y14772888D01*
X20952730Y14884151D01*
X20779803Y14961144D01*
X20718083Y14974262D01*
X20594648Y15000500D01*
X20594646Y15000500D01*
X20405354Y15000500D01*
X20405352Y15000500D01*
X20220196Y14961144D01*
X20220197Y14961144D01*
X20047270Y14884151D01*
X19894129Y14772888D01*
X19894126Y14772884D01*
X19883586Y14765227D01*
X19882188Y14767151D01*
X19837920Y14739879D01*
X19805257Y14735500D01*
X18594188Y14735500D01*
X18527149Y14755185D01*
X18492613Y14788377D01*
X18380046Y14949140D01*
X18219140Y15110046D01*
X18219139Y15110047D01*
X18032734Y15240568D01*
X17974724Y15267618D01*
X17922285Y15313790D01*
X17903133Y15380983D01*
X17923348Y15447865D01*
X17974725Y15492382D01*
X18032733Y15519431D01*
X18219140Y15649953D01*
X18380046Y15810859D01*
X18510567Y15997264D01*
X18606738Y16203502D01*
X18606739Y16203504D01*
X18665635Y16423308D01*
X18685468Y16650000D01*
X18665635Y16876692D01*
X18606739Y17096496D01*
X18510568Y17302734D01*
X18380047Y17489139D01*
X18219139Y17650047D01*
X18032734Y17780568D01*
X17974724Y17807618D01*
X17922285Y17853790D01*
X17903133Y17920983D01*
X17923348Y17987865D01*
X17974725Y18032382D01*
X18032733Y18059431D01*
X18219140Y18189953D01*
X18380046Y18350859D01*
X18442112Y18439500D01*
X18493286Y18512585D01*
X18547862Y18556210D01*
X18594763Y18565462D01*
X29421842Y18574041D01*
X29474271Y18558691D01*
X29475365Y18561149D01*
X29660197Y18478855D01*
X29845352Y18439500D01*
X29845354Y18439500D01*
X30034648Y18439500D01*
X30219802Y18478855D01*
X30392730Y18555848D01*
X30545870Y18667110D01*
X30672533Y18807783D01*
X30767179Y18971715D01*
X30825673Y19151742D01*
X30825674Y19151744D01*
X30845460Y19340000D01*
X30825674Y19528256D01*
X30767179Y19708284D01*
X30672533Y19872216D01*
X30545871Y20012888D01*
X30523503Y20029139D01*
X30392730Y20124151D01*
X30219803Y20201144D01*
X30158083Y20214262D01*
X30034648Y20240500D01*
X30034646Y20240500D01*
X29845354Y20240500D01*
X29845352Y20240500D01*
X29660197Y20201144D01*
X29487269Y20124151D01*
X29334129Y20012889D01*
X29201710Y19865822D01*
X29142223Y19829173D01*
X29109659Y19824794D01*
X18593611Y19816462D01*
X18526557Y19836093D01*
X18491939Y19869339D01*
X18380046Y20029140D01*
X18219140Y20190046D01*
X18219139Y20190047D01*
X18032734Y20320568D01*
X17974724Y20347618D01*
X17922285Y20393790D01*
X17903133Y20460983D01*
X17923348Y20527865D01*
X17974725Y20572382D01*
X18032733Y20599431D01*
X18219140Y20729953D01*
X18380046Y20890859D01*
X18510567Y21077264D01*
X18606738Y21283502D01*
X18606739Y21283504D01*
X18665635Y21503308D01*
X18685468Y21730000D01*
X18665635Y21956692D01*
X18606739Y22176496D01*
X18510568Y22382734D01*
X18380047Y22569139D01*
X18219139Y22730047D01*
X18032734Y22860568D01*
X17974724Y22887618D01*
X17922285Y22933790D01*
X17903133Y23000983D01*
X17923348Y23067865D01*
X17974725Y23112382D01*
X18032733Y23139431D01*
X18219140Y23269953D01*
X18380046Y23430859D01*
X18510567Y23617264D01*
X18606649Y23823310D01*
X18606739Y23823504D01*
X18652944Y23995946D01*
X19300000Y23995946D01*
X19300236Y23990535D01*
X19314858Y23823397D01*
X19373733Y23603673D01*
X19469865Y23397519D01*
X19600341Y23211180D01*
X19761180Y23050341D01*
X19947519Y22919865D01*
X20153673Y22823733D01*
X20349999Y22771126D01*
X20350000Y22771127D01*
X20350000Y23814498D01*
X20457685Y23765320D01*
X20564237Y23750000D01*
X20635763Y23750000D01*
X20742315Y23765320D01*
X20850000Y23814498D01*
X20850000Y22771126D01*
X21046326Y22823733D01*
X21252480Y22919865D01*
X21438819Y23050341D01*
X21599658Y23211180D01*
X21730134Y23397519D01*
X21757342Y23455865D01*
X21803514Y23508304D01*
X21870708Y23527456D01*
X21937589Y23507240D01*
X21982105Y23455866D01*
X22009430Y23397267D01*
X22139953Y23210859D01*
X22300859Y23049953D01*
X22487264Y22919432D01*
X22693502Y22823261D01*
X22913310Y22764364D01*
X23140000Y22744531D01*
X23366689Y22764364D01*
X23586497Y22823261D01*
X23792735Y22919432D01*
X23979140Y23049953D01*
X24140046Y23210859D01*
X24270566Y23397263D01*
X24270568Y23397266D01*
X24297618Y23455275D01*
X24343791Y23507714D01*
X24410985Y23526865D01*
X24477866Y23506649D01*
X24522382Y23455275D01*
X24549433Y23397263D01*
X24679953Y23210859D01*
X24840859Y23049953D01*
X25027264Y22919432D01*
X25233502Y22823261D01*
X25453310Y22764364D01*
X25680000Y22744531D01*
X25906689Y22764364D01*
X26126497Y22823261D01*
X26332735Y22919432D01*
X26519140Y23049953D01*
X26680046Y23210859D01*
X26810566Y23397263D01*
X26810568Y23397266D01*
X26837618Y23455275D01*
X26883791Y23507714D01*
X26950985Y23526865D01*
X27017866Y23506649D01*
X27062382Y23455275D01*
X27089433Y23397263D01*
X27219953Y23210859D01*
X27380859Y23049953D01*
X27567264Y22919432D01*
X27773502Y22823261D01*
X27993310Y22764364D01*
X28220000Y22744531D01*
X28446689Y22764364D01*
X28666497Y22823261D01*
X28872735Y22919432D01*
X29059140Y23049953D01*
X29220046Y23210859D01*
X29350567Y23397264D01*
X29446738Y23603502D01*
X29446784Y23603673D01*
X29505635Y23823308D01*
X29520500Y23993216D01*
X29520500Y24506784D01*
X29505635Y24676692D01*
X29446739Y24896496D01*
X29350568Y25102734D01*
X29220047Y25289139D01*
X29059139Y25450047D01*
X28872734Y25580568D01*
X28666496Y25676739D01*
X28446692Y25735635D01*
X28220000Y25755468D01*
X27993308Y25735635D01*
X27773504Y25676739D01*
X27773502Y25676738D01*
X27567264Y25580567D01*
X27380859Y25450046D01*
X27219953Y25289140D01*
X27089433Y25102736D01*
X27062381Y25044723D01*
X27016208Y24992284D01*
X26949014Y24973133D01*
X26882133Y24993349D01*
X26837619Y25044723D01*
X26810568Y25102734D01*
X26680047Y25289139D01*
X26519139Y25450047D01*
X26332734Y25580568D01*
X26126496Y25676739D01*
X25906692Y25735635D01*
X25680000Y25755468D01*
X25453308Y25735635D01*
X25233504Y25676739D01*
X25233502Y25676738D01*
X25027264Y25580567D01*
X24840859Y25450046D01*
X24679953Y25289140D01*
X24549431Y25102733D01*
X24522382Y25044725D01*
X24476210Y24992285D01*
X24409017Y24973133D01*
X24342135Y24993348D01*
X24297618Y25044725D01*
X24297618Y25044726D01*
X24270568Y25102734D01*
X24140047Y25289139D01*
X23979139Y25450047D01*
X23792734Y25580568D01*
X23586496Y25676739D01*
X23366692Y25735635D01*
X23140000Y25755468D01*
X22913308Y25735635D01*
X22693504Y25676739D01*
X22693502Y25676738D01*
X22487264Y25580567D01*
X22300859Y25450046D01*
X22139953Y25289140D01*
X22009433Y25102736D01*
X22009432Y25102734D01*
X21982383Y25044726D01*
X21982106Y25044133D01*
X21935933Y24991695D01*
X21868739Y24972543D01*
X21801858Y24992759D01*
X21757342Y25044135D01*
X21730135Y25102479D01*
X21599658Y25288819D01*
X21438819Y25449658D01*
X21252480Y25580134D01*
X21046326Y25676266D01*
X20850000Y25728871D01*
X20850000Y24685501D01*
X20742315Y24734680D01*
X20635763Y24750000D01*
X20564237Y24750000D01*
X20457685Y24734680D01*
X20350000Y24685501D01*
X20350000Y25728871D01*
X20349999Y25728871D01*
X20153673Y25676266D01*
X19947519Y25580134D01*
X19761180Y25449658D01*
X19600341Y25288819D01*
X19469865Y25102480D01*
X19373733Y24896326D01*
X19314858Y24676602D01*
X19300236Y24509464D01*
X19300000Y24504053D01*
X19300000Y24500000D01*
X20166314Y24500000D01*
X20140507Y24459844D01*
X20100000Y24321889D01*
X20100000Y24178111D01*
X20140507Y24040156D01*
X20166314Y24000000D01*
X19300000Y24000000D01*
X19300000Y23995946D01*
X18652944Y23995946D01*
X18665635Y24043308D01*
X18685468Y24270000D01*
X18665635Y24496692D01*
X18606739Y24716496D01*
X18510568Y24922734D01*
X18380047Y25109139D01*
X18219139Y25270047D01*
X18032734Y25400568D01*
X17974724Y25427618D01*
X17922285Y25473790D01*
X17903133Y25540983D01*
X17923348Y25607865D01*
X17974725Y25652382D01*
X18032733Y25679431D01*
X18219140Y25809953D01*
X18380046Y25970859D01*
X18510567Y26157264D01*
X18606738Y26363502D01*
X18628790Y26445800D01*
X18665635Y26583308D01*
X18685468Y26810000D01*
X18665635Y27036692D01*
X18606739Y27256496D01*
X18510568Y27462734D01*
X18380047Y27649139D01*
X18219139Y27810047D01*
X18032734Y27940568D01*
X17974724Y27967618D01*
X17922285Y28013790D01*
X17903133Y28080983D01*
X17923348Y28147865D01*
X17974725Y28192382D01*
X18032733Y28219431D01*
X18219140Y28349953D01*
X18380046Y28510859D01*
X18510567Y28697264D01*
X18523268Y28724500D01*
X18606739Y28903504D01*
X18665635Y29123308D01*
X18685468Y29350000D01*
X18665635Y29576692D01*
X18606739Y29796496D01*
X18510568Y30002734D01*
X18380047Y30189139D01*
X18219139Y30350047D01*
X18032734Y30480568D01*
X17974724Y30507618D01*
X17922285Y30553790D01*
X17903133Y30620983D01*
X17923348Y30687865D01*
X17974725Y30732382D01*
X18032733Y30759431D01*
X18219140Y30889953D01*
X18380046Y31050859D01*
X18492613Y31211623D01*
X18547189Y31255248D01*
X18594188Y31264500D01*
X22205257Y31264500D01*
X22272296Y31244815D01*
X22287205Y31232142D01*
X22447272Y31115847D01*
X22620197Y31038855D01*
X22805352Y30999500D01*
X22805354Y30999500D01*
X22994648Y30999500D01*
X23179802Y31038855D01*
X23352730Y31115848D01*
X23505870Y31227110D01*
X23632533Y31367783D01*
X23727179Y31531715D01*
X23785673Y31711742D01*
X23785674Y31711744D01*
X23805460Y31900000D01*
X23785674Y32088256D01*
X23727179Y32268284D01*
X23632533Y32432216D01*
X23505871Y32572888D01*
X23352730Y32684151D01*
X23179803Y32761144D01*
X23118084Y32774262D01*
X22994648Y32800500D01*
X22994646Y32800500D01*
X22805354Y32800500D01*
X22805352Y32800500D01*
X22620197Y32761144D01*
X22447269Y32684151D01*
X22294129Y32572889D01*
X22279398Y32556528D01*
X22219911Y32519879D01*
X22187248Y32515500D01*
X18594188Y32515500D01*
X18527149Y32535185D01*
X18492613Y32568377D01*
X18380046Y32729140D01*
X18219140Y32890046D01*
X18219139Y32890047D01*
X18032734Y33020568D01*
X17974724Y33047618D01*
X17922285Y33093790D01*
X17903133Y33160983D01*
X17923348Y33227865D01*
X17974725Y33272382D01*
X18032733Y33299431D01*
X18219140Y33429953D01*
X18380046Y33590859D01*
X18492613Y33751623D01*
X18547189Y33795248D01*
X18594188Y33804500D01*
X20769239Y33804500D01*
X20836278Y33784815D01*
X20861388Y33763473D01*
X20894128Y33727111D01*
X21047269Y33615848D01*
X21220197Y33538855D01*
X21405352Y33499500D01*
X21405354Y33499500D01*
X21594648Y33499500D01*
X21779802Y33538855D01*
X21952730Y33615848D01*
X22105870Y33727110D01*
X22232533Y33867783D01*
X22327179Y34031715D01*
X22382933Y34203308D01*
X22385674Y34211744D01*
X22405460Y34400000D01*
X22385674Y34588256D01*
X22327179Y34768284D01*
X22232533Y34932216D01*
X22105871Y35072888D01*
X22102709Y35075185D01*
X21952730Y35184151D01*
X21952729Y35184151D01*
X21779803Y35261144D01*
X21718084Y35274262D01*
X21594648Y35300500D01*
X21594646Y35300500D01*
X21405354Y35300500D01*
X21405352Y35300500D01*
X21220197Y35261144D01*
X21047269Y35184151D01*
X20902791Y35079182D01*
X20836985Y35055702D01*
X20829906Y35055500D01*
X18594188Y35055500D01*
X18527149Y35075185D01*
X18492613Y35108377D01*
X18380046Y35269140D01*
X18219140Y35430046D01*
X18199500Y35443798D01*
X18032734Y35560568D01*
X17974724Y35587618D01*
X17922285Y35633790D01*
X17903133Y35700983D01*
X17923348Y35767865D01*
X17974725Y35812382D01*
X18032733Y35839431D01*
X18219140Y35969953D01*
X18380046Y36130859D01*
X18492613Y36291623D01*
X18547189Y36335248D01*
X18594188Y36344500D01*
X19967545Y36344500D01*
X20034584Y36324815D01*
X20040432Y36320817D01*
X20047272Y36315847D01*
X20220197Y36238855D01*
X20405352Y36199500D01*
X20405354Y36199500D01*
X20594648Y36199500D01*
X20779802Y36238855D01*
X20952730Y36315848D01*
X21105870Y36427110D01*
X21232533Y36567783D01*
X21327179Y36731715D01*
X21385673Y36911742D01*
X21385674Y36911744D01*
X21405460Y37100000D01*
X21385674Y37288256D01*
X21327179Y37468284D01*
X21232533Y37632216D01*
X21105871Y37772888D01*
X20952730Y37884151D01*
X20779803Y37961144D01*
X20718084Y37974262D01*
X20594648Y38000500D01*
X20594646Y38000500D01*
X20405354Y38000500D01*
X20405352Y38000500D01*
X20220197Y37961144D01*
X20047269Y37884151D01*
X19894129Y37772889D01*
X19771349Y37636528D01*
X19711862Y37599879D01*
X19679199Y37595500D01*
X18594188Y37595500D01*
X18527149Y37615185D01*
X18492613Y37648377D01*
X18380046Y37809140D01*
X18219140Y37970046D01*
X18175647Y38000500D01*
X18032734Y38100568D01*
X17974724Y38127618D01*
X17922285Y38173790D01*
X17903133Y38240983D01*
X17923348Y38307865D01*
X17974725Y38352382D01*
X18032733Y38379431D01*
X18219140Y38509953D01*
X18380046Y38670859D01*
X18510567Y38857264D01*
X18606738Y39063502D01*
X18653889Y39239472D01*
X18665635Y39283308D01*
X18685468Y39510000D01*
X18665635Y39736692D01*
X18606739Y39956496D01*
X18510568Y40162734D01*
X18380047Y40349139D01*
X18219139Y40510047D01*
X18032734Y40640568D01*
X17826496Y40736739D01*
X17606692Y40795635D01*
X17380000Y40815468D01*
X17153308Y40795635D01*
X17084951Y40777319D01*
X17015102Y40778982D01*
X16965177Y40809413D01*
X16959122Y40815468D01*
X16709471Y41065120D01*
X16709470Y41065120D01*
X15161817Y42612772D01*
X15128334Y42674093D01*
X15125500Y42700451D01*
X15125500Y43736000D01*
X15145185Y43803039D01*
X15197989Y43848794D01*
X15249500Y43860000D01*
X15870000Y43860000D01*
X15870000Y44774498D01*
X15977685Y44725320D01*
X16084237Y44710000D01*
X16155763Y44710000D01*
X16262315Y44725320D01*
X16370000Y44774498D01*
X16370000Y43860000D01*
X17014518Y43860000D01*
X17021132Y43860354D01*
X17077371Y43866400D01*
X17212089Y43916647D01*
X17327188Y44002811D01*
X17413352Y44117911D01*
X17462422Y44249471D01*
X17504294Y44305404D01*
X17569758Y44329821D01*
X17638031Y44314969D01*
X17666285Y44293819D01*
X17788598Y44171505D01*
X17865139Y44117911D01*
X17982170Y44035965D01*
X17982171Y44035964D01*
X17982172Y44035964D01*
X18196337Y43936097D01*
X18424592Y43874936D01*
X18659999Y43854340D01*
X18895407Y43874936D01*
X19065024Y43920385D01*
X19123663Y43936097D01*
X19337830Y44035965D01*
X19531401Y44171505D01*
X19698495Y44338599D01*
X19828426Y44524160D01*
X19883002Y44567783D01*
X19952501Y44574976D01*
X20014855Y44543454D01*
X20031571Y44524162D01*
X20161505Y44338599D01*
X20161508Y44338595D01*
X20328595Y44171508D01*
X20328598Y44171505D01*
X20328599Y44171505D01*
X20522170Y44035965D01*
X20522171Y44035964D01*
X20522172Y44035964D01*
X20736337Y43936097D01*
X20964592Y43874936D01*
X21200000Y43854340D01*
X21435407Y43874936D01*
X21605024Y43920385D01*
X21663663Y43936097D01*
X21877830Y44035965D01*
X22071401Y44171505D01*
X22238495Y44338599D01*
X22368426Y44524160D01*
X22423002Y44567783D01*
X22492501Y44574976D01*
X22554855Y44543454D01*
X22571571Y44524162D01*
X22701505Y44338599D01*
X22701508Y44338595D01*
X22868595Y44171508D01*
X22868598Y44171505D01*
X22868599Y44171505D01*
X23061625Y44036346D01*
X23105248Y43981771D01*
X23114500Y43934773D01*
X23114500Y43392743D01*
X23112235Y43372239D01*
X23114439Y43302126D01*
X23114500Y43298231D01*
X23114500Y43270650D01*
X23114985Y43266805D01*
X23114987Y43266780D01*
X23115004Y43266653D01*
X23115918Y43255033D01*
X23117290Y43211369D01*
X23122880Y43192129D01*
X23126825Y43173081D01*
X23129335Y43153209D01*
X23145413Y43112599D01*
X23149194Y43101554D01*
X23161381Y43059610D01*
X23171579Y43042365D01*
X23180133Y43024904D01*
X23187512Y43006267D01*
X23213185Y42970931D01*
X23219595Y42961174D01*
X23241829Y42923580D01*
X23255996Y42909413D01*
X23268626Y42894624D01*
X23280404Y42878413D01*
X23314058Y42850572D01*
X23322697Y42842711D01*
X31320586Y34844821D01*
X31354071Y34783498D01*
X31352680Y34725047D01*
X31334364Y34656690D01*
X31314531Y34430000D01*
X31334364Y34203310D01*
X31393261Y33983502D01*
X31489432Y33777264D01*
X31619953Y33590859D01*
X31780859Y33429953D01*
X31967263Y33299433D01*
X32025275Y33272382D01*
X32077714Y33226209D01*
X32096865Y33159015D01*
X32076649Y33092134D01*
X32025275Y33047618D01*
X31967266Y33020568D01*
X31967263Y33020566D01*
X31780859Y32890046D01*
X31619953Y32729140D01*
X31489432Y32542735D01*
X31393261Y32336497D01*
X31334364Y32116689D01*
X31314531Y31890000D01*
X31334364Y31663310D01*
X31393261Y31443502D01*
X31489432Y31237264D01*
X31619953Y31050859D01*
X31780859Y30889953D01*
X31967264Y30759432D01*
X32025275Y30732382D01*
X32077714Y30686210D01*
X32096866Y30619016D01*
X32076650Y30552135D01*
X32025275Y30507618D01*
X31967264Y30480567D01*
X31780859Y30350046D01*
X31619953Y30189140D01*
X31489432Y30002735D01*
X31393261Y29796497D01*
X31334364Y29576689D01*
X31314531Y29350000D01*
X31334364Y29123310D01*
X31393261Y28903502D01*
X31489432Y28697264D01*
X31619953Y28510859D01*
X31780859Y28349953D01*
X31967263Y28219433D01*
X32025275Y28192382D01*
X32077714Y28146209D01*
X32096865Y28079015D01*
X32076649Y28012134D01*
X32025275Y27967618D01*
X31967266Y27940568D01*
X31967263Y27940566D01*
X31780859Y27810046D01*
X31619953Y27649140D01*
X31489432Y27462735D01*
X31393261Y27256497D01*
X31334364Y27036689D01*
X31314531Y26810000D01*
X31334364Y26583310D01*
X31393261Y26363502D01*
X31489432Y26157264D01*
X31619953Y25970859D01*
X31780859Y25809953D01*
X31967263Y25679433D01*
X32025275Y25652382D01*
X32077714Y25606209D01*
X32096865Y25539015D01*
X32076649Y25472134D01*
X32025275Y25427618D01*
X31967266Y25400568D01*
X31967265Y25400567D01*
X31967263Y25400566D01*
X31780859Y25270046D01*
X31619953Y25109140D01*
X31489432Y24922735D01*
X31393261Y24716497D01*
X31334364Y24496689D01*
X31314531Y24270000D01*
X31334364Y24043310D01*
X31393261Y23823502D01*
X31489432Y23617264D01*
X31619953Y23430859D01*
X31780859Y23269953D01*
X31967263Y23139433D01*
X32025275Y23112382D01*
X32077714Y23066209D01*
X32096865Y22999015D01*
X32076649Y22932134D01*
X32025275Y22887618D01*
X31967266Y22860568D01*
X31967263Y22860566D01*
X31780859Y22730046D01*
X31619953Y22569140D01*
X31489432Y22382735D01*
X31393261Y22176497D01*
X31334364Y21956689D01*
X31314531Y21730000D01*
X31334364Y21503310D01*
X31393261Y21283502D01*
X31489432Y21077264D01*
X31619953Y20890859D01*
X31780859Y20729953D01*
X31967263Y20599433D01*
X32025275Y20572382D01*
X32077714Y20526209D01*
X32096865Y20459015D01*
X32076649Y20392134D01*
X32025275Y20347618D01*
X31967266Y20320568D01*
X31967265Y20320567D01*
X31967263Y20320566D01*
X31780859Y20190046D01*
X31619953Y20029140D01*
X31489432Y19842735D01*
X31393261Y19636497D01*
X31334364Y19416689D01*
X31314531Y19190000D01*
X31334364Y18963310D01*
X31393261Y18743502D01*
X31489432Y18537264D01*
X31619953Y18350859D01*
X31780859Y18189953D01*
X31967263Y18059433D01*
X32025275Y18032382D01*
X32077714Y17986209D01*
X32096865Y17919015D01*
X32076649Y17852134D01*
X32025275Y17807618D01*
X31967266Y17780568D01*
X31967263Y17780566D01*
X31780859Y17650046D01*
X31619953Y17489140D01*
X31489432Y17302735D01*
X31393261Y17096497D01*
X31334364Y16876689D01*
X31314531Y16650000D01*
X31334364Y16423310D01*
X31393261Y16203502D01*
X31489432Y15997264D01*
X31619953Y15810859D01*
X31780859Y15649953D01*
X31967263Y15519433D01*
X32025275Y15492382D01*
X32077714Y15446209D01*
X32096865Y15379015D01*
X32076649Y15312134D01*
X32025275Y15267618D01*
X31967266Y15240568D01*
X31967265Y15240567D01*
X31967263Y15240566D01*
X31780859Y15110046D01*
X31619953Y14949140D01*
X31489432Y14762735D01*
X31393261Y14556497D01*
X31334364Y14336689D01*
X31323776Y14215672D01*
X31298323Y14150603D01*
X31241732Y14109625D01*
X31171970Y14105747D01*
X31112569Y14138797D01*
X30865724Y14385642D01*
X30853954Y14399260D01*
X30839610Y14418530D01*
X30801667Y14450366D01*
X30793688Y14457680D01*
X30793103Y14458264D01*
X30789777Y14461591D01*
X30765439Y14480833D01*
X30762670Y14483090D01*
X30745075Y14497853D01*
X30705214Y14531302D01*
X30705211Y14531303D01*
X30704244Y14532115D01*
X30687827Y14542573D01*
X30686682Y14543106D01*
X30686677Y14543111D01*
X30618646Y14574833D01*
X30615488Y14576362D01*
X30548433Y14610040D01*
X30548432Y14610040D01*
X30547294Y14610612D01*
X30528914Y14617000D01*
X30527675Y14617255D01*
X30527673Y14617257D01*
X30454103Y14632447D01*
X30450770Y14633186D01*
X30377721Y14650500D01*
X30377717Y14650500D01*
X30376489Y14650791D01*
X30357121Y14652770D01*
X30355859Y14652733D01*
X30355856Y14652734D01*
X30283556Y14650630D01*
X30280869Y14650552D01*
X30277263Y14650500D01*
X25263706Y14650500D01*
X25245736Y14651809D01*
X25242118Y14652338D01*
X25221977Y14655289D01*
X25173691Y14651064D01*
X25172631Y14650972D01*
X25161824Y14650500D01*
X25156291Y14650500D01*
X25129151Y14647327D01*
X25125520Y14646903D01*
X25121929Y14646536D01*
X25047203Y14639999D01*
X25047201Y14639998D01*
X25045949Y14639889D01*
X25026930Y14635672D01*
X25025746Y14635241D01*
X25025745Y14635241D01*
X25017434Y14632216D01*
X24955274Y14609592D01*
X24951869Y14608408D01*
X24880666Y14584814D01*
X24880663Y14584812D01*
X24879464Y14584415D01*
X24861936Y14575929D01*
X24860884Y14575237D01*
X24860883Y14575237D01*
X24798188Y14534001D01*
X24795188Y14532090D01*
X24731345Y14492712D01*
X24731344Y14492711D01*
X24730269Y14492048D01*
X24715170Y14479748D01*
X24662831Y14424272D01*
X24660318Y14421685D01*
X22983137Y12744505D01*
X22921814Y12711020D01*
X22863361Y12712412D01*
X22776693Y12735635D01*
X22550000Y12755468D01*
X22323308Y12735635D01*
X22103504Y12676739D01*
X22103502Y12676738D01*
X21897264Y12580567D01*
X21710859Y12450046D01*
X21549953Y12289140D01*
X21419432Y12102735D01*
X21323261Y11896497D01*
X21264364Y11676689D01*
X21249736Y11509484D01*
X21249500Y11506784D01*
X21249500Y10993216D01*
X21249735Y10990535D01*
X21249736Y10990515D01*
X21264364Y10823310D01*
X21323261Y10603502D01*
X21419432Y10397264D01*
X21549953Y10210859D01*
X21710859Y10049953D01*
X21897264Y9919432D01*
X22103502Y9823261D01*
X22323310Y9764364D01*
X22550000Y9744531D01*
X22776689Y9764364D01*
X22996497Y9823261D01*
X23202735Y9919432D01*
X23389140Y10049953D01*
X23550046Y10210859D01*
X23680566Y10397263D01*
X23680568Y10397266D01*
X23707618Y10455275D01*
X23753791Y10507714D01*
X23820985Y10526865D01*
X23887866Y10506649D01*
X23932381Y10455275D01*
X23942033Y10434576D01*
X23959433Y10397263D01*
X24089953Y10210859D01*
X24250859Y10049953D01*
X24437264Y9919432D01*
X24643502Y9823261D01*
X24863310Y9764364D01*
X25090000Y9744531D01*
X25316689Y9764364D01*
X25536497Y9823261D01*
X25742735Y9919432D01*
X25929140Y10049953D01*
X26090046Y10210859D01*
X26220567Y10397264D01*
X26220687Y10397522D01*
X26247894Y10455866D01*
X26294065Y10508304D01*
X26361259Y10527456D01*
X26428140Y10507240D01*
X26472656Y10455866D01*
X26499863Y10397522D01*
X26630341Y10211180D01*
X26791180Y10050341D01*
X26977519Y9919865D01*
X27183673Y9823733D01*
X27379999Y9771126D01*
X27380000Y9771127D01*
X27380000Y10814498D01*
X27487685Y10765320D01*
X27594237Y10750000D01*
X27665763Y10750000D01*
X27772315Y10765320D01*
X27879999Y10814498D01*
X27879999Y9771127D01*
X27880000Y9771126D01*
X28076326Y9823733D01*
X28282480Y9919865D01*
X28468819Y10050341D01*
X28629658Y10211180D01*
X28760134Y10397519D01*
X28856266Y10603673D01*
X28915141Y10823397D01*
X28929763Y10990535D01*
X28930000Y10995946D01*
X28930000Y11000000D01*
X28063686Y11000000D01*
X28089493Y11040156D01*
X28130000Y11178111D01*
X28130000Y11321889D01*
X28089493Y11459844D01*
X28063686Y11500000D01*
X28930000Y11500000D01*
X28930000Y11504053D01*
X28929763Y11509464D01*
X28915141Y11676602D01*
X28856266Y11896326D01*
X28760134Y12102480D01*
X28629658Y12288819D01*
X28468819Y12449658D01*
X28282480Y12580134D01*
X28076326Y12676266D01*
X27880000Y12728871D01*
X27880000Y11685501D01*
X27772315Y11734680D01*
X27665763Y11750000D01*
X27594237Y11750000D01*
X27487685Y11734680D01*
X27380000Y11685501D01*
X27380000Y12728871D01*
X27379999Y12728871D01*
X27183673Y12676266D01*
X26977519Y12580134D01*
X26791180Y12449658D01*
X26630341Y12288819D01*
X26499866Y12102482D01*
X26472657Y12044133D01*
X26426484Y11991694D01*
X26359290Y11972543D01*
X26292409Y11992759D01*
X26247893Y12044135D01*
X26220686Y12102480D01*
X26220568Y12102734D01*
X26090047Y12289139D01*
X25929139Y12450047D01*
X25742734Y12580568D01*
X25536496Y12676739D01*
X25350884Y12726473D01*
X25291224Y12762838D01*
X25260695Y12825685D01*
X25268990Y12895060D01*
X25295297Y12933929D01*
X25474549Y13113181D01*
X25535872Y13146666D01*
X25562230Y13149500D01*
X29927770Y13149500D01*
X29994809Y13129815D01*
X30015451Y13113181D01*
X31293282Y11835348D01*
X31326767Y11774025D01*
X31329129Y11736860D01*
X31314531Y11570000D01*
X31334364Y11343310D01*
X31393261Y11123502D01*
X31489432Y10917264D01*
X31619953Y10730859D01*
X31780859Y10569953D01*
X31967267Y10439430D01*
X32025866Y10412105D01*
X32078305Y10365932D01*
X32097456Y10298739D01*
X32077239Y10231858D01*
X32025865Y10187342D01*
X31967515Y10160133D01*
X31894526Y10109026D01*
X31894526Y10109025D01*
X32478633Y9524918D01*
X32474839Y9524373D01*
X32341438Y9463451D01*
X32230605Y9367413D01*
X32151318Y9244040D01*
X32128866Y9167579D01*
X31540974Y9755472D01*
X31540972Y9755471D01*
X31489866Y9682484D01*
X31393733Y9476326D01*
X31334858Y9256602D01*
X31315033Y9030000D01*
X31334858Y8803397D01*
X31393733Y8583672D01*
X31489865Y8377516D01*
X31540973Y8304527D01*
X31540973Y8304526D01*
X32128866Y8892420D01*
X32151318Y8815960D01*
X32230605Y8692587D01*
X32341438Y8596549D01*
X32474839Y8535627D01*
X32478633Y8535081D01*
X31894526Y7950973D01*
X31967517Y7899865D01*
X32025865Y7872657D01*
X32078304Y7826484D01*
X32097456Y7759290D01*
X32077240Y7692409D01*
X32025865Y7647893D01*
X32024683Y7647342D01*
X31967264Y7620567D01*
X31780859Y7490046D01*
X31619953Y7329140D01*
X31489432Y7142735D01*
X31393261Y6936497D01*
X31334364Y6716689D01*
X31314531Y6490000D01*
X31334364Y6263310D01*
X31393261Y6043502D01*
X31489432Y5837264D01*
X31619953Y5650859D01*
X31780859Y5489953D01*
X31967264Y5359432D01*
X32173502Y5263261D01*
X32393310Y5204364D01*
X32620000Y5184531D01*
X32846689Y5204364D01*
X33066497Y5263261D01*
X33272735Y5359432D01*
X33459140Y5489953D01*
X33620046Y5650859D01*
X33750567Y5837264D01*
X33846738Y6043502D01*
X33850234Y6056549D01*
X33905635Y6263308D01*
X33925468Y6490000D01*
X33905635Y6716692D01*
X33846739Y6936496D01*
X33750568Y7142734D01*
X33620047Y7329139D01*
X33459139Y7490047D01*
X33272734Y7620568D01*
X33214134Y7647893D01*
X33161695Y7694065D01*
X33142543Y7761258D01*
X33162758Y7828139D01*
X33214133Y7872657D01*
X33272485Y7899867D01*
X33345471Y7950972D01*
X33345472Y7950974D01*
X32761366Y8535081D01*
X32765161Y8535627D01*
X32898562Y8596549D01*
X33009395Y8692587D01*
X33088682Y8815960D01*
X33111133Y8892419D01*
X33699025Y8304526D01*
X33699026Y8304526D01*
X33750133Y8377515D01*
X33846266Y8583673D01*
X33905141Y8803397D01*
X33924966Y9030000D01*
X33905141Y9256602D01*
X33846266Y9476326D01*
X33750134Y9682480D01*
X33699025Y9755472D01*
X33111133Y9167580D01*
X33088682Y9244040D01*
X33009395Y9367413D01*
X32898562Y9463451D01*
X32765161Y9524373D01*
X32761366Y9524918D01*
X33345472Y10109025D01*
X33272479Y10160136D01*
X33214135Y10187342D01*
X33161695Y10233514D01*
X33142543Y10300707D01*
X33162758Y10367589D01*
X33214132Y10412105D01*
X33272734Y10439432D01*
X33272736Y10439433D01*
X33459140Y10569953D01*
X33620046Y10730859D01*
X33750567Y10917264D01*
X33787248Y10995925D01*
X33846739Y11123504D01*
X33905635Y11343308D01*
X33925468Y11570000D01*
X33905635Y11796692D01*
X33846739Y12016496D01*
X33750568Y12222734D01*
X33620047Y12409139D01*
X33459139Y12570047D01*
X33272734Y12700568D01*
X33214724Y12727618D01*
X33162285Y12773790D01*
X33143133Y12840983D01*
X33163348Y12907865D01*
X33214725Y12952382D01*
X33272733Y12979431D01*
X33459140Y13109953D01*
X33620046Y13270859D01*
X33750567Y13457264D01*
X33763268Y13484500D01*
X33846739Y13663504D01*
X33905635Y13883308D01*
X33908866Y13920233D01*
X33925469Y14110000D01*
X33905635Y14336689D01*
X33905635Y14336692D01*
X33846739Y14556496D01*
X33750568Y14762734D01*
X33620047Y14949139D01*
X33459139Y15110047D01*
X33272734Y15240568D01*
X33214724Y15267618D01*
X33162286Y15313790D01*
X33143134Y15380984D01*
X33163350Y15447865D01*
X33214725Y15492382D01*
X33272735Y15519432D01*
X33459140Y15649953D01*
X33620046Y15810859D01*
X33750567Y15997264D01*
X33846738Y16203502D01*
X33846739Y16203504D01*
X33905635Y16423308D01*
X33925468Y16650000D01*
X33905635Y16876692D01*
X33846739Y17096496D01*
X33750568Y17302734D01*
X33620047Y17489139D01*
X33459139Y17650047D01*
X33272734Y17780568D01*
X33214724Y17807618D01*
X33162285Y17853790D01*
X33143133Y17920983D01*
X33163348Y17987865D01*
X33214725Y18032382D01*
X33272733Y18059431D01*
X33459140Y18189953D01*
X33620046Y18350859D01*
X33750567Y18537264D01*
X33767732Y18574073D01*
X33846739Y18743504D01*
X33905635Y18963308D01*
X33908588Y18997068D01*
X33925469Y19190000D01*
X33905635Y19416689D01*
X33905635Y19416692D01*
X33846739Y19636496D01*
X33750568Y19842734D01*
X33620047Y20029139D01*
X33459139Y20190047D01*
X33272734Y20320568D01*
X33214724Y20347618D01*
X33162285Y20393790D01*
X33143133Y20460983D01*
X33163348Y20527865D01*
X33214725Y20572382D01*
X33272733Y20599431D01*
X33459140Y20729953D01*
X33620046Y20890859D01*
X33750567Y21077264D01*
X33846738Y21283502D01*
X33846739Y21283504D01*
X33905635Y21503308D01*
X33925468Y21730000D01*
X33905635Y21956692D01*
X33846739Y22176496D01*
X33750568Y22382734D01*
X33620047Y22569139D01*
X33459139Y22730047D01*
X33272734Y22860568D01*
X33214724Y22887618D01*
X33162285Y22933790D01*
X33143133Y23000983D01*
X33163348Y23067865D01*
X33214725Y23112382D01*
X33272733Y23139431D01*
X33459140Y23269953D01*
X33620046Y23430859D01*
X33750567Y23617264D01*
X33846649Y23823310D01*
X33846739Y23823504D01*
X33905635Y24043308D01*
X33925468Y24270000D01*
X33921610Y24314100D01*
X33935376Y24382600D01*
X33983992Y24432783D01*
X34052020Y24448717D01*
X34117864Y24425342D01*
X34132819Y24412589D01*
X34688181Y23857227D01*
X34721666Y23795904D01*
X34724500Y23769546D01*
X34724500Y1424499D01*
X34704815Y1357460D01*
X34652011Y1311705D01*
X34600504Y1300499D01*
X33022128Y1300499D01*
X32962517Y1294091D01*
X32827669Y1243796D01*
X32712454Y1157546D01*
X32626204Y1042331D01*
X32575909Y907483D01*
X32569500Y847873D01*
X32569500Y844550D01*
X32569500Y-844560D01*
X32569500Y-844578D01*
X32569501Y-847872D01*
X32575909Y-907483D01*
X32626204Y-1042331D01*
X32712454Y-1157546D01*
X32827669Y-1243796D01*
X32962517Y-1294091D01*
X32998351Y-1297943D01*
X33062901Y-1324681D01*
X33102750Y-1382073D01*
X33105245Y-1451898D01*
X33069593Y-1511987D01*
X33056221Y-1522807D01*
X33031182Y-1540339D01*
X32870341Y-1701180D01*
X32739865Y-1887519D01*
X32713172Y-1944762D01*
X32666999Y-1997201D01*
X32599806Y-2016353D01*
X32532924Y-1996137D01*
X32529666Y-1993932D01*
X32352480Y-1869865D01*
X32146326Y-1773733D01*
X31926602Y-1714858D01*
X31759464Y-1700236D01*
X31754054Y-1700000D01*
X31750000Y-1700000D01*
X31750000Y-2564498D01*
X31642315Y-2515320D01*
X31535763Y-2500000D01*
X31464237Y-2500000D01*
X31357685Y-2515320D01*
X31249999Y-2564498D01*
X31250000Y-1700000D01*
X31245946Y-1700000D01*
X31240535Y-1700236D01*
X31073397Y-1714858D01*
X30853673Y-1773733D01*
X30647519Y-1869865D01*
X30461180Y-2000341D01*
X30300341Y-2161180D01*
X30169865Y-2347519D01*
X30073733Y-2553673D01*
X30021128Y-2749999D01*
X30021128Y-2750000D01*
X31066314Y-2750000D01*
X31040507Y-2790156D01*
X31000000Y-2928111D01*
X31000000Y-3071889D01*
X31040507Y-3209844D01*
X31066314Y-3250000D01*
X30021128Y-3250000D01*
X30073733Y-3446326D01*
X30169865Y-3652480D01*
X30300341Y-3838819D01*
X30461180Y-3999658D01*
X30647519Y-4130134D01*
X30705865Y-4157342D01*
X30758304Y-4203514D01*
X30777456Y-4270708D01*
X30757240Y-4337589D01*
X30705866Y-4382105D01*
X30647267Y-4409430D01*
X30460859Y-4539953D01*
X30299953Y-4700859D01*
X30169432Y-4887264D01*
X30073261Y-5093502D01*
X30014364Y-5313310D01*
X29994531Y-5540000D01*
X30014364Y-5766689D01*
X30073261Y-5986497D01*
X30169432Y-6192735D01*
X30299953Y-6379140D01*
X30460859Y-6540046D01*
X30619118Y-6650859D01*
X30647266Y-6670568D01*
X30705275Y-6697618D01*
X30757714Y-6743791D01*
X30776865Y-6810985D01*
X30756649Y-6877866D01*
X30705275Y-6922382D01*
X30647263Y-6949433D01*
X30460859Y-7079953D01*
X30299953Y-7240859D01*
X30169432Y-7427264D01*
X30073261Y-7633502D01*
X30014364Y-7853310D01*
X29994531Y-8080000D01*
X30014364Y-8306689D01*
X30073261Y-8526497D01*
X30169432Y-8732735D01*
X30299953Y-8919140D01*
X30460859Y-9080046D01*
X30619577Y-9191180D01*
X30647266Y-9210568D01*
X30705275Y-9237618D01*
X30757714Y-9283791D01*
X30776865Y-9350985D01*
X30756649Y-9417866D01*
X30705275Y-9462382D01*
X30647263Y-9489433D01*
X30460859Y-9619953D01*
X30299953Y-9780859D01*
X30169432Y-9967264D01*
X30073261Y-10173502D01*
X30014364Y-10393310D01*
X29994531Y-10620000D01*
X30014364Y-10846689D01*
X30073261Y-11066497D01*
X30169432Y-11272735D01*
X30299953Y-11459140D01*
X30460859Y-11620046D01*
X30647264Y-11750567D01*
X30647265Y-11750567D01*
X30647266Y-11750568D01*
X30853504Y-11846739D01*
X31073308Y-11905635D01*
X31243216Y-11920500D01*
X31245925Y-11920500D01*
X31754075Y-11920500D01*
X31756784Y-11920500D01*
X31926692Y-11905635D01*
X32146496Y-11846739D01*
X32352734Y-11750568D01*
X32539139Y-11620047D01*
X32700047Y-11459139D01*
X32830568Y-11272734D01*
X32857028Y-11215989D01*
X32903200Y-11163550D01*
X32970393Y-11144398D01*
X33037274Y-11164613D01*
X33040533Y-11166819D01*
X33217264Y-11290567D01*
X33217265Y-11290567D01*
X33217266Y-11290568D01*
X33275865Y-11317893D01*
X33328304Y-11364065D01*
X33347456Y-11431259D01*
X33327240Y-11498140D01*
X33275866Y-11542656D01*
X33217522Y-11569863D01*
X33031180Y-11700341D01*
X32870341Y-11861180D01*
X32739865Y-12047519D01*
X32643733Y-12253673D01*
X32591128Y-12449999D01*
X32591128Y-12450000D01*
X33424428Y-12450000D01*
X33401318Y-12485960D01*
X33360000Y-12626673D01*
X33360000Y-12773327D01*
X33401318Y-12914040D01*
X33424428Y-12950000D01*
X32591128Y-12950000D01*
X32643733Y-13146326D01*
X32739865Y-13352480D01*
X32870341Y-13538819D01*
X33031180Y-13699658D01*
X33217519Y-13830134D01*
X33276456Y-13857618D01*
X33328895Y-13903791D01*
X33348047Y-13970985D01*
X33327831Y-14037866D01*
X33276456Y-14082382D01*
X33217519Y-14109865D01*
X33031180Y-14240341D01*
X32870341Y-14401180D01*
X32739865Y-14587519D01*
X32643733Y-14793673D01*
X32591128Y-14989999D01*
X32591128Y-14990000D01*
X33424428Y-14990000D01*
X33401318Y-15025960D01*
X33360000Y-15166673D01*
X33360000Y-15313327D01*
X33401318Y-15454040D01*
X33424428Y-15490000D01*
X32591128Y-15490000D01*
X32643733Y-15686326D01*
X32739865Y-15892480D01*
X32870341Y-16078819D01*
X33031180Y-16239658D01*
X33217520Y-16370135D01*
X33276455Y-16397617D01*
X33328895Y-16443789D01*
X33348047Y-16510982D01*
X33327832Y-16577863D01*
X33276458Y-16622380D01*
X33217520Y-16649864D01*
X33031180Y-16780341D01*
X32870341Y-16941180D01*
X32739865Y-17127519D01*
X32643733Y-17333673D01*
X32591128Y-17529999D01*
X32591128Y-17530000D01*
X33424428Y-17530000D01*
X33401318Y-17565960D01*
X33360000Y-17706673D01*
X33360000Y-17853327D01*
X33401318Y-17994040D01*
X33424428Y-18030000D01*
X32591128Y-18030000D01*
X32643733Y-18226326D01*
X32739865Y-18432480D01*
X32870341Y-18618819D01*
X33031180Y-18779658D01*
X33217519Y-18910134D01*
X33275865Y-18937342D01*
X33328304Y-18983514D01*
X33347456Y-19050708D01*
X33327240Y-19117589D01*
X33275866Y-19162105D01*
X33217267Y-19189430D01*
X33030859Y-19319953D01*
X32869953Y-19480859D01*
X32739432Y-19667264D01*
X32643261Y-19873502D01*
X32584364Y-20093310D01*
X32564531Y-20320000D01*
X32584364Y-20546689D01*
X32643261Y-20766497D01*
X32739432Y-20972735D01*
X32869953Y-21159140D01*
X33030859Y-21320046D01*
X33048240Y-21332216D01*
X33217266Y-21450568D01*
X33275275Y-21477618D01*
X33327714Y-21523791D01*
X33346865Y-21590985D01*
X33326649Y-21657866D01*
X33275275Y-21702382D01*
X33217263Y-21729433D01*
X33030859Y-21859953D01*
X32869953Y-22020859D01*
X32739432Y-22207264D01*
X32643261Y-22413502D01*
X32584364Y-22633310D01*
X32564531Y-22860000D01*
X32584364Y-23086689D01*
X32621279Y-23224457D01*
X32619616Y-23294307D01*
X32580454Y-23352170D01*
X32516225Y-23379674D01*
X32447323Y-23368088D01*
X32413823Y-23344232D01*
X28634360Y-19564769D01*
X28600875Y-19503446D01*
X28598720Y-19464127D01*
X28600195Y-19450090D01*
X28605460Y-19400000D01*
X28585674Y-19211744D01*
X28533120Y-19050000D01*
X28527179Y-19031715D01*
X28432533Y-18867783D01*
X28305870Y-18727110D01*
X28152730Y-18615848D01*
X27979802Y-18538855D01*
X27794648Y-18499500D01*
X27794646Y-18499500D01*
X27605354Y-18499500D01*
X27605352Y-18499500D01*
X27420197Y-18538855D01*
X27247269Y-18615848D01*
X27094129Y-18727110D01*
X26967466Y-18867783D01*
X26872820Y-19031715D01*
X26814326Y-19211742D01*
X26794540Y-19400000D01*
X26814326Y-19588257D01*
X26872246Y-19766515D01*
X26874241Y-19836356D01*
X26838161Y-19896189D01*
X26780097Y-19926123D01*
X26720196Y-19938855D01*
X26547269Y-20015848D01*
X26394129Y-20127110D01*
X26267466Y-20267783D01*
X26172820Y-20431715D01*
X26114326Y-20611742D01*
X26094540Y-20800000D01*
X26114326Y-20988257D01*
X26172820Y-21168284D01*
X26267466Y-21332216D01*
X26394129Y-21472889D01*
X26547265Y-21584149D01*
X26558199Y-21589017D01*
X26674612Y-21640847D01*
X26711855Y-21666445D01*
X31713683Y-26668274D01*
X31747166Y-26729593D01*
X31750000Y-26755951D01*
X31749999Y-27564498D01*
X31642315Y-27515320D01*
X31535763Y-27500000D01*
X31464237Y-27500000D01*
X31357685Y-27515320D01*
X31249999Y-27564498D01*
X31250000Y-26700000D01*
X31245946Y-26700000D01*
X31240535Y-26700236D01*
X31073397Y-26714858D01*
X30853673Y-26773733D01*
X30647519Y-26869865D01*
X30461180Y-27000341D01*
X30300341Y-27161180D01*
X30169865Y-27347519D01*
X30073733Y-27553673D01*
X30021128Y-27749999D01*
X30021128Y-27750000D01*
X31066314Y-27750000D01*
X31040507Y-27790156D01*
X31000000Y-27928111D01*
X31000000Y-28071889D01*
X31040507Y-28209844D01*
X31066314Y-28250000D01*
X30021128Y-28250000D01*
X30073733Y-28446326D01*
X30169865Y-28652480D01*
X30300341Y-28838819D01*
X30461180Y-28999658D01*
X30647519Y-29130134D01*
X30705865Y-29157342D01*
X30758304Y-29203514D01*
X30777456Y-29270708D01*
X30757240Y-29337589D01*
X30705866Y-29382105D01*
X30647267Y-29409430D01*
X30460859Y-29539953D01*
X30299953Y-29700859D01*
X30169432Y-29887264D01*
X30073261Y-30093502D01*
X30014364Y-30313310D01*
X30001416Y-30461307D01*
X29975964Y-30526376D01*
X29919373Y-30567355D01*
X29877888Y-30574500D01*
X20038376Y-30574500D01*
X19971337Y-30554815D01*
X19925582Y-30502011D01*
X19915638Y-30432853D01*
X19925992Y-30398098D01*
X19926012Y-30398054D01*
X19926739Y-30396496D01*
X19985635Y-30176692D01*
X20005468Y-29950000D01*
X19985635Y-29723308D01*
X19926739Y-29503504D01*
X19830568Y-29297266D01*
X19815824Y-29276208D01*
X19700046Y-29110859D01*
X19539140Y-28949953D01*
X19352735Y-28819432D01*
X19146497Y-28723261D01*
X18926689Y-28664364D01*
X18759484Y-28649736D01*
X18759479Y-28649735D01*
X18756784Y-28649500D01*
X18243216Y-28649500D01*
X18240521Y-28649735D01*
X18240515Y-28649736D01*
X18073310Y-28664364D01*
X17853502Y-28723261D01*
X17647264Y-28819432D01*
X17460859Y-28949953D01*
X17299953Y-29110859D01*
X17169433Y-29297263D01*
X17108518Y-29427894D01*
X17062345Y-29480333D01*
X16995151Y-29499484D01*
X16928270Y-29479268D01*
X16925013Y-29477063D01*
X16742736Y-29349433D01*
X16684723Y-29322381D01*
X16632284Y-29276208D01*
X16613133Y-29209014D01*
X16633349Y-29142133D01*
X16684721Y-29097619D01*
X16742734Y-29070568D01*
X16929139Y-28940047D01*
X17090047Y-28779139D01*
X17220568Y-28592734D01*
X17316739Y-28386496D01*
X17375635Y-28166692D01*
X17395468Y-27940000D01*
X17375635Y-27713308D01*
X17316739Y-27493504D01*
X17220568Y-27287266D01*
X17132283Y-27161180D01*
X17090046Y-27100859D01*
X16929140Y-26939953D01*
X16742733Y-26809431D01*
X16684725Y-26782382D01*
X16632285Y-26736210D01*
X16613133Y-26669017D01*
X16633348Y-26602135D01*
X16684725Y-26557618D01*
X16742734Y-26530568D01*
X16929139Y-26400047D01*
X17090047Y-26239139D01*
X17220568Y-26052734D01*
X17316739Y-25846496D01*
X17375635Y-25626692D01*
X17395468Y-25400000D01*
X17375635Y-25173308D01*
X17316739Y-24953504D01*
X17220568Y-24747266D01*
X17090047Y-24560861D01*
X17090046Y-24560859D01*
X16929140Y-24399953D01*
X16742733Y-24269431D01*
X16684725Y-24242382D01*
X16632285Y-24196210D01*
X16613133Y-24129017D01*
X16633348Y-24062135D01*
X16684725Y-24017618D01*
X16742734Y-23990568D01*
X16929139Y-23860047D01*
X17090047Y-23699139D01*
X17220568Y-23512734D01*
X17316739Y-23306496D01*
X17375635Y-23086692D01*
X17395468Y-22860000D01*
X17375635Y-22633308D01*
X17316739Y-22413504D01*
X17220568Y-22207266D01*
X17090047Y-22020861D01*
X17090046Y-22020859D01*
X16929140Y-21859953D01*
X16742733Y-21729431D01*
X16684725Y-21702382D01*
X16632285Y-21656210D01*
X16613133Y-21589017D01*
X16633348Y-21522135D01*
X16684725Y-21477618D01*
X16742734Y-21450568D01*
X16929139Y-21320047D01*
X17090047Y-21159139D01*
X17220568Y-20972734D01*
X17316739Y-20766496D01*
X17375635Y-20546692D01*
X17395468Y-20320000D01*
X17375635Y-20093308D01*
X17316739Y-19873504D01*
X17220568Y-19667266D01*
X17216721Y-19661771D01*
X17090046Y-19480859D01*
X16929140Y-19319953D01*
X16742736Y-19189433D01*
X16684723Y-19162381D01*
X16632284Y-19116208D01*
X16613133Y-19049014D01*
X16633349Y-18982133D01*
X16684721Y-18937619D01*
X16742734Y-18910568D01*
X16929139Y-18780047D01*
X17090047Y-18619139D01*
X17220568Y-18432734D01*
X17316739Y-18226496D01*
X17375635Y-18006692D01*
X17395468Y-17780000D01*
X17375635Y-17553308D01*
X17316739Y-17333504D01*
X17220568Y-17127266D01*
X17205677Y-17105998D01*
X17090046Y-16940859D01*
X16929140Y-16779953D01*
X16742733Y-16649431D01*
X16684725Y-16622382D01*
X16632285Y-16576210D01*
X16613133Y-16509017D01*
X16633348Y-16442135D01*
X16684725Y-16397618D01*
X16742734Y-16370568D01*
X16929139Y-16240047D01*
X17090047Y-16079139D01*
X17220568Y-15892734D01*
X17316739Y-15686496D01*
X17375635Y-15466692D01*
X17395468Y-15240000D01*
X17375635Y-15013308D01*
X17316739Y-14793504D01*
X17220568Y-14587266D01*
X17205677Y-14565998D01*
X17090046Y-14400859D01*
X16929140Y-14239953D01*
X16742733Y-14109431D01*
X16684725Y-14082382D01*
X16632285Y-14036210D01*
X16613133Y-13969017D01*
X16633348Y-13902135D01*
X16684725Y-13857618D01*
X16742734Y-13830568D01*
X16929139Y-13700047D01*
X17090047Y-13539139D01*
X17220568Y-13352734D01*
X17316739Y-13146496D01*
X17375635Y-12926692D01*
X17395468Y-12700000D01*
X17375635Y-12473308D01*
X17316739Y-12253504D01*
X17220568Y-12047266D01*
X17205677Y-12025998D01*
X17090046Y-11860859D01*
X16929140Y-11699953D01*
X16742733Y-11569431D01*
X16684725Y-11542382D01*
X16632285Y-11496210D01*
X16613133Y-11429017D01*
X16633348Y-11362135D01*
X16684725Y-11317618D01*
X16690037Y-11315141D01*
X16742734Y-11290568D01*
X16929139Y-11160047D01*
X17090047Y-10999139D01*
X17145562Y-10919853D01*
X17200138Y-10876229D01*
X17269636Y-10869035D01*
X17331991Y-10900557D01*
X17334818Y-10903296D01*
X17461180Y-11029658D01*
X17647519Y-11160134D01*
X17853673Y-11256266D01*
X18073397Y-11315141D01*
X18240535Y-11329763D01*
X18245946Y-11330000D01*
X18250000Y-11330000D01*
X18250000Y-10465501D01*
X18357685Y-10514680D01*
X18464237Y-10530000D01*
X18535763Y-10530000D01*
X18642315Y-10514680D01*
X18750000Y-10465501D01*
X18750000Y-11330000D01*
X18754054Y-11330000D01*
X18759464Y-11329763D01*
X18926602Y-11315141D01*
X19146326Y-11256266D01*
X19352480Y-11160134D01*
X19538819Y-11029658D01*
X19699658Y-10868819D01*
X19830134Y-10682480D01*
X19926266Y-10476326D01*
X19978872Y-10280000D01*
X18933686Y-10280000D01*
X18959493Y-10239844D01*
X19000000Y-10101889D01*
X19000000Y-9958111D01*
X18959493Y-9820156D01*
X18933686Y-9780000D01*
X19978872Y-9780000D01*
X19978871Y-9779999D01*
X19926266Y-9583673D01*
X19830134Y-9377519D01*
X19699658Y-9191180D01*
X19538819Y-9030341D01*
X19352482Y-8899866D01*
X19294133Y-8872657D01*
X19241694Y-8826484D01*
X19222543Y-8759290D01*
X19242759Y-8692409D01*
X19294134Y-8647893D01*
X19352734Y-8620568D01*
X19539139Y-8490047D01*
X19700047Y-8329139D01*
X19830568Y-8142734D01*
X19926739Y-7936496D01*
X19985635Y-7716692D01*
X20005468Y-7490000D01*
X19985635Y-7263308D01*
X19926739Y-7043504D01*
X19830568Y-6837266D01*
X19820151Y-6822388D01*
X19700046Y-6650859D01*
X19539140Y-6489953D01*
X19352733Y-6359431D01*
X19294725Y-6332382D01*
X19242285Y-6286210D01*
X19223133Y-6219017D01*
X19243348Y-6152135D01*
X19294725Y-6107618D01*
X19352734Y-6080568D01*
X19539139Y-5950047D01*
X19700047Y-5789139D01*
X19830568Y-5602734D01*
X19926739Y-5396496D01*
X19985635Y-5176692D01*
X20005468Y-4950000D01*
X19985635Y-4723308D01*
X19926739Y-4503504D01*
X19830568Y-4297266D01*
X19810594Y-4268739D01*
X19700046Y-4110859D01*
X19539140Y-3949953D01*
X19352735Y-3819432D01*
X19146497Y-3723261D01*
X18926689Y-3664364D01*
X18759484Y-3649736D01*
X18759479Y-3649735D01*
X18756784Y-3649500D01*
X18243216Y-3649500D01*
X18240521Y-3649735D01*
X18240515Y-3649736D01*
X18073310Y-3664364D01*
X17853502Y-3723261D01*
X17647264Y-3819432D01*
X17460859Y-3949953D01*
X17299952Y-4110860D01*
X17244729Y-4189728D01*
X17190152Y-4233353D01*
X17120654Y-4240546D01*
X17058299Y-4209024D01*
X17055473Y-4206286D01*
X16929140Y-4079953D01*
X16742736Y-3949433D01*
X16684723Y-3922381D01*
X16632284Y-3876208D01*
X16613133Y-3809014D01*
X16633349Y-3742133D01*
X16684721Y-3697619D01*
X16742734Y-3670568D01*
X16929139Y-3540047D01*
X17090047Y-3379139D01*
X17220568Y-3192734D01*
X17316739Y-2986496D01*
X17375635Y-2766692D01*
X17395468Y-2540000D01*
X17375635Y-2313308D01*
X17316739Y-2093504D01*
X17220568Y-1887266D01*
X17090271Y-1701180D01*
X17090046Y-1700859D01*
X16929140Y-1539953D01*
X16742733Y-1409431D01*
X16684725Y-1382382D01*
X16632285Y-1336210D01*
X16613133Y-1269017D01*
X16633348Y-1202135D01*
X16684725Y-1157618D01*
X16742734Y-1130568D01*
X16929139Y-1000047D01*
X17090047Y-839139D01*
X17220568Y-652734D01*
X17316739Y-446496D01*
X17375635Y-226692D01*
X17395468Y0D01*
X17375635Y226692D01*
X17316739Y446496D01*
X17220568Y652734D01*
X17090047Y839139D01*
X16929139Y1000047D01*
X16742734Y1130568D01*
X16536496Y1226739D01*
X16316692Y1285635D01*
X16090000Y1305468D01*
X15863308Y1285635D01*
X15643504Y1226739D01*
X15643502Y1226738D01*
X15437264Y1130567D01*
X15250859Y1000046D01*
X15089953Y839140D01*
X14959432Y652735D01*
X14863261Y446497D01*
X14804364Y226689D01*
X14784531Y0D01*
X14804364Y-226689D01*
X14863261Y-446497D01*
X14959432Y-652735D01*
X15089953Y-839140D01*
X15250859Y-1000046D01*
X15311249Y-1042331D01*
X15437266Y-1130568D01*
X15495275Y-1157618D01*
X15547714Y-1203791D01*
X15566865Y-1270985D01*
X15546649Y-1337866D01*
X15495275Y-1382382D01*
X15437263Y-1409433D01*
X15250859Y-1539953D01*
X15089953Y-1700859D01*
X14959432Y-1887264D01*
X14863261Y-2093502D01*
X14804364Y-2313310D01*
X14784531Y-2540000D01*
X14804364Y-2766689D01*
X14863261Y-2986497D01*
X14959432Y-3192735D01*
X15089953Y-3379140D01*
X15250859Y-3540046D01*
X15411433Y-3652480D01*
X15437266Y-3670568D01*
X15495275Y-3697618D01*
X15547714Y-3743791D01*
X15566865Y-3810985D01*
X15546649Y-3877866D01*
X15495275Y-3922382D01*
X15437263Y-3949433D01*
X15250859Y-4079953D01*
X15089953Y-4240859D01*
X14959432Y-4427264D01*
X14863261Y-4633502D01*
X14804364Y-4853310D01*
X14784531Y-5080000D01*
X14804364Y-5306689D01*
X14863261Y-5526497D01*
X14959432Y-5732735D01*
X15089953Y-5919140D01*
X15250859Y-6080046D01*
X15437263Y-6210566D01*
X15437266Y-6210568D01*
X15495275Y-6237618D01*
X15547714Y-6283791D01*
X15566865Y-6350985D01*
X15546649Y-6417866D01*
X15495275Y-6462382D01*
X15437263Y-6489433D01*
X15250859Y-6619953D01*
X15089953Y-6780859D01*
X14959432Y-6967264D01*
X14863261Y-7173502D01*
X14804364Y-7393310D01*
X14784531Y-7620000D01*
X14804364Y-7846689D01*
X14863261Y-8066497D01*
X14959432Y-8272735D01*
X15089953Y-8459140D01*
X15250859Y-8620046D01*
X15437263Y-8750566D01*
X15437266Y-8750568D01*
X15495275Y-8777618D01*
X15547714Y-8823791D01*
X15566865Y-8890985D01*
X15546649Y-8957866D01*
X15495275Y-9002382D01*
X15437263Y-9029433D01*
X15250859Y-9159953D01*
X15089953Y-9320859D01*
X14959432Y-9507264D01*
X14863261Y-9713502D01*
X14804364Y-9933310D01*
X14784531Y-10159999D01*
X14804364Y-10386690D01*
X14822680Y-10455047D01*
X14821017Y-10524897D01*
X14790586Y-10574821D01*
X13216208Y-12149199D01*
X13200110Y-12162096D01*
X13152096Y-12213225D01*
X13149392Y-12216016D01*
X13132628Y-12232780D01*
X13132621Y-12232787D01*
X13129880Y-12235529D01*
X13127499Y-12238597D01*
X13127490Y-12238608D01*
X13127411Y-12238711D01*
X13119842Y-12247572D01*
X13089935Y-12279420D01*
X13080285Y-12296974D01*
X13069609Y-12313228D01*
X13057326Y-12329063D01*
X13039975Y-12369158D01*
X13034838Y-12379644D01*
X13013802Y-12417907D01*
X13008821Y-12437309D01*
X13002520Y-12455711D01*
X12994561Y-12474102D01*
X12987728Y-12517242D01*
X12985360Y-12528674D01*
X12974500Y-12570977D01*
X12974500Y-12591016D01*
X12972973Y-12610414D01*
X12969839Y-12630196D01*
X12973949Y-12673676D01*
X12974499Y-12685343D01*
X12974499Y-35217260D01*
X12972235Y-35237771D01*
X12974439Y-35307873D01*
X12974500Y-35311768D01*
X12974500Y-35339350D01*
X12974988Y-35343219D01*
X12974989Y-35343225D01*
X12975004Y-35343343D01*
X12975918Y-35354967D01*
X12977290Y-35398626D01*
X12982879Y-35417860D01*
X12986825Y-35436916D01*
X12989335Y-35456792D01*
X13005414Y-35497404D01*
X13009197Y-35508451D01*
X13021382Y-35550391D01*
X13031580Y-35567635D01*
X13040136Y-35585100D01*
X13047514Y-35603732D01*
X13047515Y-35603733D01*
X13073180Y-35639059D01*
X13079593Y-35648822D01*
X13101826Y-35686416D01*
X13101829Y-35686419D01*
X13101830Y-35686420D01*
X13115995Y-35700585D01*
X13128627Y-35715375D01*
X13140406Y-35731587D01*
X13174058Y-35759426D01*
X13182699Y-35767289D01*
X15098029Y-37682620D01*
X15098032Y-37682623D01*
X15313229Y-37897819D01*
X15346714Y-37959142D01*
X15341730Y-38028833D01*
X15299859Y-38084767D01*
X15234394Y-38109184D01*
X15225549Y-38109500D01*
X15105439Y-38109500D01*
X15105420Y-38109500D01*
X15102128Y-38109501D01*
X15098848Y-38109853D01*
X15098840Y-38109854D01*
X15042515Y-38115909D01*
X14907669Y-38166204D01*
X14792454Y-38252454D01*
X14706204Y-38367668D01*
X14706203Y-38367669D01*
X14706204Y-38367669D01*
X14655909Y-38502517D01*
X14649500Y-38562127D01*
X14649500Y-38565448D01*
X14649500Y-38565449D01*
X14649500Y-40354560D01*
X14649500Y-40354578D01*
X14649501Y-40357872D01*
X14649853Y-40361152D01*
X14649854Y-40361159D01*
X14655909Y-40417484D01*
X14669422Y-40453713D01*
X14706204Y-40552331D01*
X14792454Y-40667546D01*
X14907669Y-40753796D01*
X15012274Y-40792811D01*
X15039082Y-40802810D01*
X15095016Y-40844681D01*
X15119433Y-40910146D01*
X15104581Y-40978419D01*
X15083431Y-41006673D01*
X14961503Y-41128601D01*
X14825965Y-41322170D01*
X14726097Y-41536336D01*
X14664936Y-41764592D01*
X14644340Y-42000000D01*
X14664936Y-42235407D01*
X14690496Y-42330798D01*
X14726097Y-42463663D01*
X14825965Y-42677830D01*
X14961505Y-42871401D01*
X15128599Y-43038495D01*
X15322170Y-43174035D01*
X15536337Y-43273903D01*
X15764592Y-43335063D01*
X16000000Y-43355659D01*
X16235408Y-43335063D01*
X16463663Y-43273903D01*
X16677830Y-43174035D01*
X16871401Y-43038495D01*
X17038495Y-42871401D01*
X17168426Y-42685839D01*
X17223002Y-42642216D01*
X17292500Y-42635022D01*
X17354855Y-42666545D01*
X17371571Y-42685837D01*
X17501505Y-42871401D01*
X17668599Y-43038495D01*
X17862170Y-43174035D01*
X18076337Y-43273903D01*
X18304592Y-43335063D01*
X18540000Y-43355659D01*
X18775408Y-43335063D01*
X19003663Y-43273903D01*
X19217830Y-43174035D01*
X19411401Y-43038495D01*
X19578495Y-42871401D01*
X19708426Y-42685839D01*
X19763002Y-42642216D01*
X19832500Y-42635022D01*
X19894855Y-42666545D01*
X19911571Y-42685837D01*
X20041505Y-42871401D01*
X20208599Y-43038495D01*
X20402170Y-43174035D01*
X20616337Y-43273903D01*
X20844591Y-43335062D01*
X20844592Y-43335063D01*
X21079999Y-43355659D01*
X21079999Y-43355658D01*
X21080000Y-43355659D01*
X21315408Y-43335063D01*
X21543663Y-43273903D01*
X21757830Y-43174035D01*
X21951401Y-43038495D01*
X22118495Y-42871401D01*
X22248426Y-42685839D01*
X22303002Y-42642216D01*
X22372500Y-42635022D01*
X22434855Y-42666545D01*
X22451571Y-42685837D01*
X22581505Y-42871401D01*
X22748599Y-43038495D01*
X22942170Y-43174035D01*
X23156337Y-43273903D01*
X23384592Y-43335063D01*
X23620000Y-43355659D01*
X23855408Y-43335063D01*
X24083663Y-43273903D01*
X24297830Y-43174035D01*
X24491401Y-43038495D01*
X24658495Y-42871401D01*
X24788426Y-42685839D01*
X24843002Y-42642216D01*
X24912500Y-42635022D01*
X24974855Y-42666545D01*
X24991571Y-42685837D01*
X25121505Y-42871401D01*
X25288599Y-43038495D01*
X25482170Y-43174035D01*
X25696337Y-43273903D01*
X25924591Y-43335062D01*
X25924592Y-43335063D01*
X26159999Y-43355659D01*
X26159999Y-43355658D01*
X26160000Y-43355659D01*
X26395408Y-43335063D01*
X26623663Y-43273903D01*
X26837830Y-43174035D01*
X27031401Y-43038495D01*
X27198495Y-42871401D01*
X27328426Y-42685839D01*
X27383002Y-42642217D01*
X27452501Y-42635024D01*
X27514855Y-42666546D01*
X27531571Y-42685837D01*
X27661505Y-42871401D01*
X27828599Y-43038495D01*
X28022170Y-43174035D01*
X28236337Y-43273903D01*
X28464592Y-43335063D01*
X28700000Y-43355659D01*
X28935408Y-43335063D01*
X29163663Y-43273903D01*
X29377830Y-43174035D01*
X29571401Y-43038495D01*
X29738495Y-42871401D01*
X29868426Y-42685839D01*
X29923002Y-42642217D01*
X29992501Y-42635024D01*
X30054855Y-42666546D01*
X30071571Y-42685837D01*
X30201505Y-42871401D01*
X30368599Y-43038495D01*
X30562170Y-43174035D01*
X30776337Y-43273903D01*
X31004591Y-43335062D01*
X31004592Y-43335063D01*
X31239999Y-43355659D01*
X31239999Y-43355658D01*
X31240000Y-43355659D01*
X31475408Y-43335063D01*
X31703663Y-43273903D01*
X31917830Y-43174035D01*
X32111401Y-43038495D01*
X32233717Y-42916178D01*
X32295036Y-42882696D01*
X32364728Y-42887680D01*
X32420662Y-42929551D01*
X32437577Y-42960528D01*
X32486647Y-43092088D01*
X32572811Y-43207188D01*
X32687910Y-43293352D01*
X32822628Y-43343599D01*
X32878867Y-43349645D01*
X32885482Y-43350000D01*
X33530000Y-43350000D01*
X33529999Y-42435501D01*
X33637685Y-42484680D01*
X33744237Y-42500000D01*
X33815763Y-42500000D01*
X33922315Y-42484680D01*
X34030000Y-42435501D01*
X34030000Y-43350000D01*
X34674518Y-43350000D01*
X34681132Y-43349645D01*
X34737371Y-43343599D01*
X34872089Y-43293352D01*
X34987188Y-43207188D01*
X35073352Y-43092089D01*
X35123599Y-42957371D01*
X35129645Y-42901132D01*
X35130000Y-42894518D01*
X35130000Y-42250000D01*
X34213686Y-42250000D01*
X34239493Y-42209844D01*
X34280000Y-42071889D01*
X34280000Y-41928111D01*
X34239493Y-41790156D01*
X34213686Y-41750000D01*
X35130000Y-41750000D01*
X35130000Y-41105481D01*
X35129645Y-41098867D01*
X35123599Y-41042628D01*
X35073352Y-40907910D01*
X34987188Y-40792811D01*
X34872088Y-40706647D01*
X34740528Y-40657577D01*
X34684594Y-40615705D01*
X34660178Y-40550240D01*
X34675030Y-40481967D01*
X34696175Y-40453720D01*
X34818495Y-40331401D01*
X34954035Y-40137830D01*
X35053903Y-39923663D01*
X35115063Y-39695408D01*
X35135659Y-39460000D01*
X35115063Y-39224592D01*
X35053903Y-38996337D01*
X34954035Y-38782171D01*
X34818495Y-38588599D01*
X34651401Y-38421505D01*
X34457830Y-38285965D01*
X34243663Y-38186097D01*
X34182502Y-38169709D01*
X34015407Y-38124936D01*
X33779999Y-38104340D01*
X33544592Y-38124936D01*
X33316333Y-38186097D01*
X33149069Y-38264094D01*
X33079992Y-38274586D01*
X33016208Y-38246066D01*
X33008984Y-38239393D01*
X32984006Y-38214415D01*
X32971369Y-38199620D01*
X32959595Y-38183414D01*
X32959594Y-38183413D01*
X32925935Y-38155568D01*
X32917305Y-38147714D01*
X31880235Y-37110644D01*
X31846750Y-37049321D01*
X31851734Y-36979629D01*
X31893606Y-36923696D01*
X31935821Y-36903188D01*
X32146496Y-36846739D01*
X32352734Y-36750568D01*
X32539139Y-36620047D01*
X32700047Y-36459139D01*
X32830568Y-36272734D01*
X32926739Y-36066496D01*
X32985635Y-35846692D01*
X33005468Y-35620000D01*
X32985635Y-35393308D01*
X32926739Y-35173504D01*
X32830568Y-34967266D01*
X32727562Y-34820156D01*
X32700046Y-34780859D01*
X32539140Y-34619953D01*
X32352733Y-34489431D01*
X32294725Y-34462382D01*
X32242285Y-34416210D01*
X32223133Y-34349017D01*
X32243348Y-34282135D01*
X32294725Y-34237618D01*
X32352734Y-34210568D01*
X32539139Y-34080047D01*
X32700047Y-33919139D01*
X32709965Y-33904973D01*
X32764539Y-33861346D01*
X32834037Y-33854149D01*
X32896394Y-33885669D01*
X32899224Y-33888411D01*
X33030859Y-34020046D01*
X33217264Y-34150567D01*
X33217265Y-34150567D01*
X33217266Y-34150568D01*
X33423504Y-34246739D01*
X33643308Y-34305635D01*
X33870000Y-34325468D01*
X34096692Y-34305635D01*
X34316496Y-34246739D01*
X34522734Y-34150568D01*
X34709139Y-34020047D01*
X34870047Y-33859139D01*
X35000568Y-33672734D01*
X35096739Y-33466496D01*
X35155635Y-33246692D01*
X35175468Y-33020000D01*
X35155635Y-32793308D01*
X35096739Y-32573504D01*
X35000568Y-32367266D01*
X34927777Y-32263308D01*
X34870046Y-32180859D01*
X34709140Y-32019953D01*
X34522733Y-31889431D01*
X34464725Y-31862382D01*
X34412285Y-31816210D01*
X34393133Y-31749017D01*
X34413348Y-31682135D01*
X34464725Y-31637618D01*
X34522734Y-31610568D01*
X34709139Y-31480047D01*
X34870047Y-31319139D01*
X35000568Y-31132734D01*
X35096739Y-30926496D01*
X35155635Y-30706692D01*
X35175468Y-30480000D01*
X35155635Y-30253308D01*
X35096739Y-30033504D01*
X35000568Y-29827266D01*
X34927777Y-29723308D01*
X34870046Y-29640859D01*
X34709140Y-29479953D01*
X34522733Y-29349431D01*
X34464725Y-29322382D01*
X34412285Y-29276210D01*
X34393133Y-29209017D01*
X34413348Y-29142135D01*
X34464725Y-29097618D01*
X34522734Y-29070568D01*
X34709139Y-28940047D01*
X34870047Y-28779139D01*
X35000568Y-28592734D01*
X35096739Y-28386496D01*
X35155635Y-28166692D01*
X35175468Y-27940000D01*
X35155635Y-27713308D01*
X35096739Y-27493504D01*
X35000568Y-27287266D01*
X34912283Y-27161180D01*
X34870046Y-27100859D01*
X34709140Y-26939953D01*
X34522733Y-26809431D01*
X34464725Y-26782382D01*
X34412285Y-26736210D01*
X34393133Y-26669017D01*
X34413348Y-26602135D01*
X34464725Y-26557618D01*
X34522734Y-26530568D01*
X34709139Y-26400047D01*
X34870047Y-26239139D01*
X35000568Y-26052734D01*
X35096739Y-25846496D01*
X35155635Y-25626692D01*
X35175468Y-25400000D01*
X35155635Y-25173308D01*
X35096739Y-24953504D01*
X35000568Y-24747266D01*
X34870047Y-24560861D01*
X34870046Y-24560859D01*
X34709140Y-24399953D01*
X34522733Y-24269431D01*
X34464725Y-24242382D01*
X34412285Y-24196210D01*
X34393133Y-24129017D01*
X34413348Y-24062135D01*
X34464725Y-24017618D01*
X34522734Y-23990568D01*
X34709139Y-23860047D01*
X34870047Y-23699139D01*
X35000568Y-23512734D01*
X35096739Y-23306496D01*
X35155635Y-23086692D01*
X35175468Y-22860000D01*
X35155635Y-22633308D01*
X35137318Y-22564951D01*
X35138982Y-22495101D01*
X35169411Y-22445178D01*
X36633789Y-20980800D01*
X36649885Y-20967906D01*
X36651873Y-20965787D01*
X36651877Y-20965786D01*
X36697949Y-20916723D01*
X36700534Y-20914055D01*
X36720120Y-20894471D01*
X36722585Y-20891292D01*
X36730167Y-20882416D01*
X36730428Y-20882138D01*
X36760062Y-20850582D01*
X36769717Y-20833018D01*
X36780394Y-20816764D01*
X36792673Y-20800936D01*
X36810018Y-20760852D01*
X36815160Y-20750356D01*
X36836197Y-20712092D01*
X36841179Y-20692684D01*
X36847481Y-20674280D01*
X36855437Y-20655896D01*
X36862269Y-20612752D01*
X36864633Y-20601338D01*
X36875500Y-20559019D01*
X36875500Y-20538982D01*
X36877027Y-20519584D01*
X36880160Y-20499804D01*
X36876050Y-20456324D01*
X36875500Y-20444655D01*
X36875500Y50560792D01*
X36881568Y50599108D01*
X36885674Y50611744D01*
X36905460Y50800000D01*
X36885674Y50988256D01*
X36827179Y51168284D01*
X36732533Y51332216D01*
X36605871Y51472888D01*
X36452730Y51584151D01*
X36279803Y51661144D01*
X36218083Y51674262D01*
X36094648Y51700500D01*
X36094646Y51700500D01*
X35905354Y51700500D01*
X35905352Y51700500D01*
X35720197Y51661144D01*
X35547269Y51584151D01*
X35394129Y51472889D01*
X35267466Y51332216D01*
X35172820Y51168284D01*
X35135657Y51053907D01*
X35096219Y50996231D01*
X35031861Y50969033D01*
X34963014Y50980948D01*
X34930048Y51004541D01*
X32650800Y53283789D01*
X32637906Y53299885D01*
X32635787Y53301873D01*
X32635786Y53301877D01*
X32586723Y53347949D01*
X32584055Y53350534D01*
X32564471Y53370120D01*
X32561292Y53372585D01*
X32552416Y53380167D01*
X32520582Y53410062D01*
X32503027Y53419712D01*
X32486757Y53430400D01*
X32470936Y53442673D01*
X32430832Y53460026D01*
X32420369Y53465153D01*
X32382092Y53486197D01*
X32362699Y53491175D01*
X32344282Y53497481D01*
X32340728Y53499018D01*
X32325896Y53505438D01*
X32282745Y53512272D01*
X32271331Y53514635D01*
X32229019Y53525500D01*
X32229018Y53525500D01*
X32208984Y53525500D01*
X32189586Y53527026D01*
X32169804Y53530160D01*
X32127478Y53526158D01*
X32126325Y53526050D01*
X32114656Y53525500D01*
X30174500Y53525500D01*
X30107461Y53545185D01*
X30061706Y53597989D01*
X30050500Y53649500D01*
X30050500Y53754074D01*
X30050500Y53756784D01*
X30035635Y53926692D01*
X29976739Y54146496D01*
X29880568Y54352734D01*
X29750047Y54539139D01*
X29589139Y54700047D01*
X29575315Y54709726D01*
X29555038Y54723925D01*
X29511413Y54778501D01*
X29504219Y54847999D01*
X29535741Y54910354D01*
X29595971Y54945769D01*
X29626161Y54949500D01*
X37325500Y54949500D01*
X37392539Y54929815D01*
G37*
G04 #@! TD.AperFunction*
G04 #@! TA.AperFunction,Conductor*
G36*
X16475961Y-34283337D02*
G01*
X16487454Y-34287648D01*
X16499061Y-34292671D01*
X16499064Y-34292673D01*
X16531569Y-34306739D01*
X16539153Y-34310021D01*
X16549631Y-34315154D01*
X16587908Y-34336197D01*
X16607306Y-34341177D01*
X16625708Y-34347477D01*
X16644104Y-34355438D01*
X16687261Y-34362273D01*
X16698664Y-34364634D01*
X16740981Y-34375500D01*
X16761016Y-34375500D01*
X16780413Y-34377026D01*
X16800196Y-34380160D01*
X16843674Y-34376050D01*
X16855344Y-34375500D01*
X16976166Y-34375500D01*
X17043205Y-34395185D01*
X17088960Y-34447989D01*
X17098904Y-34517147D01*
X17088548Y-34551905D01*
X17073733Y-34583674D01*
X17021128Y-34779999D01*
X17021128Y-34780000D01*
X18066314Y-34780000D01*
X18040507Y-34820156D01*
X18000000Y-34958111D01*
X18000000Y-35101889D01*
X18040507Y-35239844D01*
X18066314Y-35280000D01*
X17021127Y-35280000D01*
X17002333Y-35304493D01*
X16945905Y-35345695D01*
X16876159Y-35349850D01*
X16816277Y-35316687D01*
X16034406Y-34534815D01*
X16000921Y-34473492D01*
X16005905Y-34403800D01*
X16047777Y-34347867D01*
X16111279Y-34323606D01*
X16266560Y-34310021D01*
X16316693Y-34305635D01*
X16406111Y-34281675D01*
X16475961Y-34283337D01*
G37*
G04 #@! TD.AperFunction*
G04 #@! TA.AperFunction,Conductor*
G36*
X30483737Y-34395185D02*
G01*
X30529492Y-34447989D01*
X30539436Y-34517147D01*
X30510411Y-34580703D01*
X30487821Y-34601075D01*
X30460859Y-34619953D01*
X30299953Y-34780859D01*
X30169432Y-34967264D01*
X30073261Y-35173502D01*
X30014364Y-35393309D01*
X29999666Y-35561308D01*
X29974213Y-35626376D01*
X29917622Y-35667355D01*
X29876138Y-35674500D01*
X20028497Y-35674500D01*
X19961458Y-35654815D01*
X19915703Y-35602011D01*
X19905759Y-35532853D01*
X19916115Y-35498095D01*
X19926266Y-35476325D01*
X19978872Y-35280000D01*
X18933686Y-35280000D01*
X18959493Y-35239844D01*
X19000000Y-35101889D01*
X19000000Y-34958111D01*
X18959493Y-34820156D01*
X18933686Y-34780000D01*
X19978872Y-34780000D01*
X19978871Y-34779999D01*
X19926266Y-34583674D01*
X19911452Y-34551905D01*
X19900960Y-34482828D01*
X19929479Y-34419044D01*
X19987956Y-34380804D01*
X20023834Y-34375500D01*
X30416698Y-34375500D01*
X30483737Y-34395185D01*
G37*
G04 #@! TD.AperFunction*
G04 #@! TA.AperFunction,Conductor*
G36*
X34120000Y-17333505D02*
G01*
X34015161Y-17285627D01*
X33906473Y-17270000D01*
X33833527Y-17270000D01*
X33724839Y-17285627D01*
X33620000Y-17333505D01*
X33620000Y-15686494D01*
X33724839Y-15734373D01*
X33833527Y-15750000D01*
X33906473Y-15750000D01*
X34015161Y-15734373D01*
X34120000Y-15686494D01*
X34120000Y-17333505D01*
G37*
G04 #@! TD.AperFunction*
G04 #@! TA.AperFunction,Conductor*
G36*
X34120000Y-14793505D02*
G01*
X34015161Y-14745627D01*
X33906473Y-14730000D01*
X33833527Y-14730000D01*
X33724839Y-14745627D01*
X33620000Y-14793505D01*
X33620000Y-13146494D01*
X33724839Y-13194373D01*
X33833527Y-13210000D01*
X33906473Y-13210000D01*
X34015161Y-13194373D01*
X34120000Y-13146494D01*
X34120000Y-14793505D01*
G37*
G04 #@! TD.AperFunction*
M02*
