G04 #@! TF.GenerationSoftware,KiCad,Pcbnew,7.0.10*
G04 #@! TF.CreationDate,2024-01-13T16:45:32+01:00*
G04 #@! TF.ProjectId,5hp_controller_oled,3568705f-636f-46e7-9472-6f6c6c65725f,rev?*
G04 #@! TF.SameCoordinates,Original*
G04 #@! TF.FileFunction,Copper,L2,Bot*
G04 #@! TF.FilePolarity,Positive*
%FSLAX46Y46*%
G04 Gerber Fmt 4.6, Leading zero omitted, Abs format (unit mm)*
G04 Created by KiCad (PCBNEW 7.0.10) date 2024-01-13 16:45:32*
%MOMM*%
%LPD*%
G01*
G04 APERTURE LIST*
G04 #@! TA.AperFunction,ComponentPad*
%ADD10R,1.700000X2.000000*%
G04 #@! TD*
G04 #@! TA.AperFunction,ComponentPad*
%ADD11O,1.600000X2.000000*%
G04 #@! TD*
G04 #@! TA.AperFunction,ComponentPad*
%ADD12O,2.000000X1.600000*%
G04 #@! TD*
G04 #@! TA.AperFunction,ComponentPad*
%ADD13R,1.700000X1.700000*%
G04 #@! TD*
G04 #@! TA.AperFunction,ComponentPad*
%ADD14R,2.000000X2.000000*%
G04 #@! TD*
G04 #@! TA.AperFunction,ComponentPad*
%ADD15O,2.000000X3.400000*%
G04 #@! TD*
G04 #@! TA.AperFunction,ComponentPad*
%ADD16R,1.600000X1.600000*%
G04 #@! TD*
G04 #@! TA.AperFunction,ComponentPad*
%ADD17O,1.600000X1.600000*%
G04 #@! TD*
G04 #@! TA.AperFunction,ComponentPad*
%ADD18O,1.700000X1.700000*%
G04 #@! TD*
G04 #@! TA.AperFunction,ComponentPad*
%ADD19C,1.700000*%
G04 #@! TD*
G04 #@! TA.AperFunction,ComponentPad*
%ADD20C,1.600000*%
G04 #@! TD*
G04 #@! TA.AperFunction,ComponentPad*
%ADD21C,1.404000*%
G04 #@! TD*
G04 #@! TA.AperFunction,ViaPad*
%ADD22C,1.000000*%
G04 #@! TD*
G04 #@! TA.AperFunction,ViaPad*
%ADD23C,0.800000*%
G04 #@! TD*
G04 #@! TA.AperFunction,Conductor*
%ADD24C,0.500000*%
G04 #@! TD*
G04 #@! TA.AperFunction,Conductor*
%ADD25C,1.000000*%
G04 #@! TD*
G04 #@! TA.AperFunction,Conductor*
%ADD26C,1.500000*%
G04 #@! TD*
G04 #@! TA.AperFunction,Conductor*
%ADD27C,0.250000*%
G04 #@! TD*
G04 APERTURE END LIST*
D10*
X22425000Y-45212000D03*
D11*
X20600000Y24250000D03*
X27630000Y11250000D03*
X28220000Y24250000D03*
X25090000Y11250000D03*
X23140000Y24250000D03*
X25680000Y24250000D03*
X22550000Y11250000D03*
D12*
X31500000Y-3000000D03*
X18500000Y-10030000D03*
X31500000Y-10620000D03*
X18500000Y-7490000D03*
X31500000Y-5540000D03*
X31500000Y-8080000D03*
X18500000Y-4950000D03*
D13*
X16375000Y-45212000D03*
X33700000Y-45175000D03*
D11*
X21130000Y53500000D03*
X23670000Y53500000D03*
X26210000Y53500000D03*
X28750000Y53500000D03*
D14*
X27515000Y-45212000D03*
D15*
X24975000Y-46912000D03*
D12*
X31500000Y-28000000D03*
X18500000Y-35030000D03*
X31500000Y-35620000D03*
X18500000Y-32490000D03*
X31500000Y-30540000D03*
X31500000Y-33080000D03*
X18500000Y-29950000D03*
D16*
X33870000Y0D03*
D17*
X33870000Y-2540000D03*
X33870000Y-5080000D03*
X33870000Y-7620000D03*
X33870000Y-10160000D03*
X33870000Y-12700000D03*
X33870000Y-15240000D03*
X33870000Y-17780000D03*
X33870000Y-20320000D03*
X33870000Y-22860000D03*
X33870000Y-25400000D03*
X33870000Y-27940000D03*
X16090000Y-27940000D03*
X16090000Y-25400000D03*
X16090000Y-22860000D03*
X16090000Y-20320000D03*
X16090000Y-17780000D03*
X16090000Y-15240000D03*
X16090000Y-12700000D03*
X16090000Y-10160000D03*
X16090000Y-7620000D03*
X16090000Y-5080000D03*
X16090000Y-2540000D03*
X16090000Y0D03*
D13*
X33900000Y47750000D03*
D18*
X33900000Y45210000D03*
X31360000Y47750000D03*
X31360000Y45210000D03*
X28820000Y47750000D03*
X28820000Y45210000D03*
X26280000Y47750000D03*
X26280000Y45210000D03*
X23740000Y47750000D03*
X23740000Y45210000D03*
X21200000Y47750000D03*
X21200000Y45210000D03*
X18660000Y47750000D03*
X18660000Y45210000D03*
X16120000Y47750000D03*
D13*
X16120000Y45210000D03*
D19*
X16000000Y-42000000D03*
D13*
X16000000Y-39460000D03*
D18*
X18540000Y-42000000D03*
X18540000Y-39460000D03*
X21080000Y-42000000D03*
X21080000Y-39460000D03*
X23620000Y-42000000D03*
X23620000Y-39460000D03*
X26160000Y-42000000D03*
X26160000Y-39460000D03*
X28700000Y-42000000D03*
X28700000Y-39460000D03*
X31240000Y-42000000D03*
X31240000Y-39460000D03*
D13*
X33780000Y-42000000D03*
D18*
X33780000Y-39460000D03*
D20*
X17380000Y6490000D03*
X17380000Y9030000D03*
X17380000Y11570000D03*
X17380000Y14110000D03*
X17380000Y16650000D03*
X17380000Y19190000D03*
X17380000Y21730000D03*
X17380000Y24270000D03*
X17380000Y26810000D03*
X17380000Y29350000D03*
X17380000Y31890000D03*
X17380000Y34430000D03*
X17380000Y36970000D03*
X17380000Y39510000D03*
D21*
X32620000Y39510000D03*
D20*
X32620000Y36970000D03*
X32620000Y34430000D03*
X32620000Y31890000D03*
X32620000Y29350000D03*
X32620000Y26810000D03*
X32620000Y24270000D03*
X32620000Y21730000D03*
X32620000Y19190000D03*
X32620000Y16650000D03*
X32620000Y14110000D03*
X32620000Y11570000D03*
X32620000Y9030000D03*
X32620000Y6490000D03*
D22*
X29400000Y-5200000D03*
X27200000Y-24600000D03*
X27200000Y-30200000D03*
D23*
X31200000Y51800000D03*
X31200000Y54200000D03*
D22*
X29400000Y-11200000D03*
D23*
X36000000Y50800000D03*
X27700000Y-19400000D03*
X27000000Y-20800000D03*
X20500000Y14100000D03*
X21500000Y34400000D03*
X20500000Y37100000D03*
X14200000Y9000000D03*
X14850000Y11500000D03*
X13550000Y29150000D03*
X22900000Y31900000D03*
X29940000Y19340000D03*
D24*
X30290000Y13900000D02*
X25200000Y13900000D01*
X32620000Y11570000D02*
X30290000Y13900000D01*
X25200000Y13900000D02*
X22550000Y11250000D01*
D25*
X31600000Y-28000000D02*
X33200000Y-29600000D01*
X29800000Y-26200000D02*
X31400000Y-27800000D01*
D26*
X31895000Y-2500000D02*
X33805000Y-2500000D01*
D27*
X35350000Y24080000D02*
X35350000Y-3600000D01*
X32620000Y26810000D02*
X35350000Y24080000D01*
X35350000Y-3600000D02*
X33870000Y-5080000D01*
X35800000Y49250000D02*
X32150000Y52900000D01*
X32150000Y52900000D02*
X28750000Y52900000D01*
X35800000Y-18390000D02*
X35800000Y49250000D01*
X33870000Y-20320000D02*
X35800000Y-18390000D01*
X36250000Y49200000D02*
X36250000Y-20480000D01*
X36250000Y-20480000D02*
X33870000Y-22860000D01*
X36250000Y49200000D02*
X36250000Y50850000D01*
X33870000Y-25685000D02*
X27700000Y-19515000D01*
X33870000Y-27940000D02*
X27000000Y-21070000D01*
X26756727Y-27940000D02*
X31500000Y-32683273D01*
X16090000Y-27940000D02*
X26756727Y-27940000D01*
X26360000Y-25400000D02*
X31500000Y-30540000D01*
X16090000Y-25400000D02*
X26360000Y-25400000D01*
X31500000Y-8080000D02*
X30870000Y-8080000D01*
X30870000Y-8080000D02*
X16090000Y-22860000D01*
X30870000Y-5540000D02*
X16090000Y-20320000D01*
X31500000Y-5540000D02*
X30870000Y-5540000D01*
X31240000Y-42115000D02*
X32500000Y-40855000D01*
X16915000Y-36300000D02*
X14965000Y-34350000D01*
X14965000Y-34350000D02*
X14965000Y-8745000D01*
X30185000Y-36300000D02*
X16915000Y-36300000D01*
X14965000Y-8745000D02*
X16090000Y-7620000D01*
X32500000Y-38615000D02*
X30185000Y-36300000D01*
X32500000Y-40855000D02*
X32500000Y-38615000D01*
X31480000Y-39575000D02*
X28720000Y-36815000D01*
X28720000Y-36815000D02*
X16615000Y-36815000D01*
X16615000Y-36815000D02*
X14515000Y-34715000D01*
X14515000Y-34715000D02*
X14515000Y-6655000D01*
X14515000Y-6655000D02*
X16090000Y-5080000D01*
X27900000Y-37315000D02*
X28300426Y-37315000D01*
X27900000Y-37315000D02*
X16315000Y-37315000D01*
X28700000Y-42115000D02*
X29950000Y-40865000D01*
X16315000Y-37315000D02*
X14065000Y-35065000D01*
X14065000Y-35065000D02*
X14065000Y-4565000D01*
X14065000Y-4565000D02*
X16090000Y-2540000D01*
X29950000Y-40865000D02*
X29950000Y-38964574D01*
X28101700Y-37315000D02*
X27900000Y-37315000D01*
X28300426Y-37315000D02*
X29950000Y-38964574D01*
X13600000Y-35300000D02*
X13600000Y-2490000D01*
X16215000Y-37915000D02*
X13600000Y-35300000D01*
X28700000Y-39575000D02*
X27040000Y-37915000D01*
X13600000Y-2490000D02*
X16090000Y0D01*
X27040000Y-37915000D02*
X16215000Y-37915000D01*
X17095000Y14110000D02*
X20505000Y14110000D01*
X21170000Y34430000D02*
X21200000Y34400000D01*
X17380000Y34430000D02*
X21170000Y34430000D01*
X17380000Y36970000D02*
X20370000Y36970000D01*
X20370000Y36970000D02*
X20500000Y37100000D01*
X14400000Y9000000D02*
X17650000Y9000000D01*
X17755000Y11500000D02*
X15045000Y11500000D01*
X17380000Y29350000D02*
X13450000Y29350000D01*
X22600000Y31890000D02*
X18090000Y31890000D01*
X31325000Y20485000D02*
X31325000Y34200000D01*
X23740000Y41785000D02*
X31325000Y34200000D01*
X23740000Y45210000D02*
X23740000Y41785000D01*
X32620000Y19190000D02*
X31325000Y20485000D01*
X14500000Y42390000D02*
X16295000Y40595000D01*
X17380000Y39510000D02*
X16295000Y40595000D01*
X14500000Y46130000D02*
X14500000Y42390000D01*
X16120000Y47750000D02*
X14500000Y46130000D01*
X26280000Y45210000D02*
X26280000Y40770000D01*
X26280000Y40770000D02*
X32620000Y34430000D01*
X28820000Y40770000D02*
X32620000Y36970000D01*
X28820000Y45210000D02*
X28820000Y40770000D01*
X31360000Y45210000D02*
X34065000Y42505000D01*
X34065000Y42505000D02*
X34065000Y33335000D01*
X34065000Y33335000D02*
X32620000Y31890000D01*
X33900000Y45210000D02*
X34935000Y44175000D01*
X32620000Y29350000D02*
X34935000Y31665000D01*
X34935000Y44175000D02*
X34935000Y31665000D01*
X17380000Y19190000D02*
X30000000Y19200000D01*
G04 #@! TA.AperFunction,Conductor*
G36*
X37392539Y54929815D02*
G01*
X37438294Y54877011D01*
X37449500Y54825500D01*
X37449500Y-45786123D01*
X37429815Y-45853162D01*
X37377011Y-45898917D01*
X37325599Y-45910123D01*
X35174598Y-45911845D01*
X35107543Y-45892214D01*
X35061746Y-45839447D01*
X35050499Y-45787848D01*
X35050499Y-44277128D01*
X35044091Y-44217517D01*
X35024178Y-44164128D01*
X34993797Y-44082671D01*
X34993793Y-44082664D01*
X34907547Y-43967455D01*
X34907544Y-43967452D01*
X34792335Y-43881206D01*
X34792328Y-43881202D01*
X34657482Y-43830908D01*
X34657483Y-43830908D01*
X34597883Y-43824501D01*
X34597881Y-43824500D01*
X34597873Y-43824500D01*
X34597864Y-43824500D01*
X32802129Y-43824500D01*
X32802123Y-43824501D01*
X32742516Y-43830908D01*
X32607671Y-43881202D01*
X32607664Y-43881206D01*
X32492455Y-43967452D01*
X32492452Y-43967455D01*
X32406206Y-44082664D01*
X32406202Y-44082671D01*
X32355908Y-44217517D01*
X32349501Y-44277116D01*
X32349501Y-44277123D01*
X32349500Y-44277135D01*
X32349500Y-45790208D01*
X32329815Y-45857247D01*
X32277011Y-45903002D01*
X32225599Y-45914208D01*
X31336996Y-45914919D01*
X31319181Y-45913647D01*
X31178034Y-45893272D01*
X31141784Y-45888039D01*
X31141780Y-45888038D01*
X31141775Y-45888038D01*
X30750009Y-45869301D01*
X30749991Y-45869301D01*
X30358224Y-45888038D01*
X30358217Y-45888038D01*
X30358216Y-45888039D01*
X30330482Y-45892042D01*
X30174268Y-45914593D01*
X30156651Y-45915865D01*
X29139598Y-45916679D01*
X29072543Y-45897048D01*
X29026746Y-45844281D01*
X29015499Y-45792679D01*
X29015499Y-44164129D01*
X29015498Y-44164123D01*
X29015497Y-44164116D01*
X29009091Y-44104517D01*
X29000942Y-44082669D01*
X28958797Y-43969671D01*
X28958793Y-43969664D01*
X28872547Y-43854455D01*
X28872544Y-43854452D01*
X28757335Y-43768206D01*
X28757328Y-43768202D01*
X28622482Y-43717908D01*
X28622483Y-43717908D01*
X28562883Y-43711501D01*
X28562881Y-43711500D01*
X28562873Y-43711500D01*
X28562864Y-43711500D01*
X26467129Y-43711500D01*
X26467123Y-43711501D01*
X26407516Y-43717908D01*
X26272671Y-43768202D01*
X26272664Y-43768206D01*
X26157455Y-43854452D01*
X26157452Y-43854455D01*
X26071206Y-43969664D01*
X26071202Y-43969671D01*
X26020908Y-44104517D01*
X26014501Y-44164116D01*
X26014501Y-44164123D01*
X26014500Y-44164135D01*
X26014500Y-44866627D01*
X25994815Y-44933666D01*
X25942011Y-44979421D01*
X25872853Y-44989365D01*
X25814338Y-44964481D01*
X25798230Y-44951943D01*
X25798228Y-44951942D01*
X25579614Y-44833635D01*
X25579603Y-44833630D01*
X25344492Y-44752916D01*
X25225000Y-44732976D01*
X25225000Y-45716118D01*
X25131631Y-45677444D01*
X24975000Y-45656823D01*
X24818369Y-45677444D01*
X24725000Y-45716118D01*
X24725000Y-44732976D01*
X24724999Y-44732976D01*
X24605507Y-44752916D01*
X24370396Y-44833630D01*
X24370385Y-44833635D01*
X24151771Y-44951942D01*
X24151762Y-44951948D01*
X23975661Y-45089014D01*
X23910667Y-45114657D01*
X23842127Y-45101091D01*
X23791803Y-45052622D01*
X23775499Y-44991161D01*
X23775499Y-44164129D01*
X23775498Y-44164123D01*
X23775497Y-44164116D01*
X23769091Y-44104517D01*
X23760942Y-44082669D01*
X23718797Y-43969671D01*
X23718793Y-43969664D01*
X23632547Y-43854455D01*
X23632544Y-43854452D01*
X23517335Y-43768206D01*
X23517328Y-43768202D01*
X23382482Y-43717908D01*
X23382483Y-43717908D01*
X23322883Y-43711501D01*
X23322881Y-43711500D01*
X23322873Y-43711500D01*
X23322864Y-43711500D01*
X21527129Y-43711500D01*
X21527123Y-43711501D01*
X21467516Y-43717908D01*
X21332671Y-43768202D01*
X21332664Y-43768206D01*
X21217455Y-43854452D01*
X21217452Y-43854455D01*
X21131206Y-43969664D01*
X21131202Y-43969671D01*
X21080908Y-44104517D01*
X21074501Y-44164116D01*
X21074501Y-44164123D01*
X21074500Y-44164135D01*
X21074500Y-45799238D01*
X21054815Y-45866277D01*
X21002011Y-45912032D01*
X20950599Y-45923238D01*
X19900449Y-45924079D01*
X19882634Y-45922807D01*
X19687188Y-45894593D01*
X19641784Y-45888039D01*
X19641780Y-45888038D01*
X19641775Y-45888038D01*
X19250009Y-45869301D01*
X19249991Y-45869301D01*
X18858226Y-45888037D01*
X18610107Y-45923856D01*
X18592489Y-45925128D01*
X17849598Y-45925722D01*
X17782543Y-45906091D01*
X17736746Y-45853324D01*
X17725499Y-45801725D01*
X17725499Y-44314128D01*
X17719091Y-44254517D01*
X17685378Y-44164129D01*
X17668797Y-44119671D01*
X17668793Y-44119664D01*
X17582547Y-44004455D01*
X17582544Y-44004452D01*
X17467335Y-43918206D01*
X17467328Y-43918202D01*
X17332482Y-43867908D01*
X17332483Y-43867908D01*
X17272883Y-43861501D01*
X17272881Y-43861500D01*
X17272873Y-43861500D01*
X17272864Y-43861500D01*
X15477129Y-43861500D01*
X15477123Y-43861501D01*
X15417516Y-43867908D01*
X15282671Y-43918202D01*
X15282664Y-43918206D01*
X15167455Y-44004452D01*
X15167452Y-44004455D01*
X15081206Y-44119664D01*
X15081202Y-44119671D01*
X15030908Y-44254517D01*
X15028477Y-44277135D01*
X15024501Y-44314123D01*
X15024500Y-44314135D01*
X15024500Y-45804084D01*
X15004815Y-45871123D01*
X14952011Y-45916878D01*
X14900599Y-45928084D01*
X12674599Y-45929867D01*
X12607544Y-45910236D01*
X12561747Y-45857469D01*
X12550500Y-45805867D01*
X12550500Y28617410D01*
X12570185Y28684449D01*
X12622989Y28730204D01*
X12692147Y28740148D01*
X12755703Y28711123D01*
X12781887Y28679410D01*
X12817466Y28617785D01*
X12944129Y28477111D01*
X13097265Y28365851D01*
X13097270Y28365848D01*
X13270192Y28288857D01*
X13270197Y28288855D01*
X13422897Y28256398D01*
X13455354Y28249500D01*
X13455355Y28249500D01*
X13644645Y28249500D01*
X13644646Y28249500D01*
X13684001Y28257865D01*
X13829802Y28288855D01*
X13829807Y28288857D01*
X14002729Y28365848D01*
X14002734Y28365851D01*
X14155870Y28477111D01*
X14186259Y28510861D01*
X14282533Y28617784D01*
X14308350Y28662500D01*
X14358917Y28710715D01*
X14415737Y28724500D01*
X16165812Y28724500D01*
X16232851Y28704815D01*
X16267387Y28671623D01*
X16379954Y28510858D01*
X16540858Y28349954D01*
X16727265Y28219432D01*
X16727267Y28219431D01*
X16785275Y28192382D01*
X16837714Y28146209D01*
X16856866Y28079016D01*
X16836650Y28012135D01*
X16785275Y27967618D01*
X16727266Y27940568D01*
X16587693Y27842839D01*
X16540858Y27810045D01*
X16379954Y27649141D01*
X16249432Y27462734D01*
X16249431Y27462732D01*
X16153261Y27256497D01*
X16153258Y27256488D01*
X16094366Y27036697D01*
X16094364Y27036686D01*
X16074532Y26810001D01*
X16074532Y26809998D01*
X16094364Y26583313D01*
X16094366Y26583302D01*
X16153258Y26363511D01*
X16153261Y26363502D01*
X16249431Y26157267D01*
X16249432Y26157265D01*
X16379954Y25970858D01*
X16540858Y25809954D01*
X16727265Y25679432D01*
X16727267Y25679431D01*
X16785275Y25652382D01*
X16837714Y25606209D01*
X16856866Y25539016D01*
X16836650Y25472135D01*
X16785275Y25427618D01*
X16727266Y25400568D01*
X16621711Y25326658D01*
X16540858Y25270045D01*
X16379954Y25109141D01*
X16249432Y24922734D01*
X16249431Y24922732D01*
X16153261Y24716497D01*
X16153258Y24716488D01*
X16094366Y24496697D01*
X16094364Y24496686D01*
X16074532Y24270001D01*
X16074532Y24269998D01*
X16094364Y24043313D01*
X16094366Y24043302D01*
X16153258Y23823511D01*
X16153261Y23823502D01*
X16249431Y23617267D01*
X16249432Y23617265D01*
X16379954Y23430858D01*
X16540858Y23269954D01*
X16727265Y23139432D01*
X16727267Y23139431D01*
X16785275Y23112382D01*
X16837714Y23066209D01*
X16856866Y22999016D01*
X16836650Y22932135D01*
X16785275Y22887618D01*
X16727266Y22860568D01*
X16599530Y22771127D01*
X16540858Y22730045D01*
X16379954Y22569141D01*
X16249432Y22382734D01*
X16249431Y22382732D01*
X16153261Y22176497D01*
X16153258Y22176488D01*
X16094366Y21956697D01*
X16094364Y21956686D01*
X16074532Y21730001D01*
X16074532Y21729998D01*
X16094364Y21503313D01*
X16094366Y21503302D01*
X16153258Y21283511D01*
X16153261Y21283502D01*
X16249431Y21077267D01*
X16249432Y21077265D01*
X16379954Y20890858D01*
X16540858Y20729954D01*
X16727265Y20599432D01*
X16727267Y20599431D01*
X16785275Y20572382D01*
X16837714Y20526209D01*
X16856866Y20459016D01*
X16836650Y20392135D01*
X16785275Y20347618D01*
X16727266Y20320568D01*
X16727265Y20320567D01*
X16540858Y20190045D01*
X16379954Y20029141D01*
X16249432Y19842734D01*
X16249431Y19842732D01*
X16153261Y19636497D01*
X16153258Y19636488D01*
X16094366Y19416697D01*
X16094364Y19416686D01*
X16074532Y19190001D01*
X16074532Y19189998D01*
X16094364Y18963313D01*
X16094366Y18963302D01*
X16153258Y18743511D01*
X16153261Y18743502D01*
X16249431Y18537267D01*
X16249432Y18537265D01*
X16379954Y18350858D01*
X16540858Y18189954D01*
X16727265Y18059432D01*
X16727267Y18059431D01*
X16785275Y18032382D01*
X16837714Y17986209D01*
X16856866Y17919016D01*
X16836650Y17852135D01*
X16785275Y17807618D01*
X16727266Y17780568D01*
X16727265Y17780567D01*
X16540858Y17650045D01*
X16379954Y17489141D01*
X16249432Y17302734D01*
X16249431Y17302732D01*
X16153261Y17096497D01*
X16153258Y17096488D01*
X16094366Y16876697D01*
X16094364Y16876686D01*
X16074532Y16650001D01*
X16074532Y16649998D01*
X16094364Y16423313D01*
X16094366Y16423302D01*
X16153258Y16203511D01*
X16153261Y16203502D01*
X16249431Y15997267D01*
X16249432Y15997265D01*
X16379954Y15810858D01*
X16540858Y15649954D01*
X16727265Y15519432D01*
X16727267Y15519431D01*
X16785275Y15492382D01*
X16837714Y15446209D01*
X16856866Y15379016D01*
X16836650Y15312135D01*
X16785275Y15267618D01*
X16727266Y15240568D01*
X16727265Y15240567D01*
X16540858Y15110045D01*
X16379954Y14949141D01*
X16249432Y14762734D01*
X16249431Y14762732D01*
X16153261Y14556497D01*
X16153258Y14556488D01*
X16094366Y14336697D01*
X16094364Y14336686D01*
X16074532Y14110001D01*
X16074532Y14109998D01*
X16094364Y13883313D01*
X16094366Y13883302D01*
X16153258Y13663511D01*
X16153261Y13663502D01*
X16249431Y13457267D01*
X16249432Y13457265D01*
X16379954Y13270858D01*
X16540858Y13109954D01*
X16727265Y12979432D01*
X16727267Y12979431D01*
X16785275Y12952382D01*
X16837714Y12906209D01*
X16856866Y12839016D01*
X16836650Y12772135D01*
X16785275Y12727618D01*
X16727266Y12700568D01*
X16587693Y12602839D01*
X16540858Y12570045D01*
X16379954Y12409141D01*
X16295929Y12289139D01*
X16249432Y12222734D01*
X16237475Y12197093D01*
X16191306Y12144657D01*
X16125095Y12125500D01*
X15553748Y12125500D01*
X15486709Y12145185D01*
X15461600Y12166526D01*
X15458788Y12169647D01*
X15455871Y12172888D01*
X15302730Y12284151D01*
X15129803Y12361144D01*
X14944646Y12400500D01*
X14755354Y12400500D01*
X14570197Y12361144D01*
X14570192Y12361142D01*
X14397270Y12284151D01*
X14397265Y12284148D01*
X14244130Y12172889D01*
X14244129Y12172888D01*
X14117467Y12032216D01*
X14094686Y11992758D01*
X14022821Y11868284D01*
X14022818Y11868277D01*
X13992194Y11774025D01*
X13964326Y11688256D01*
X13944540Y11500000D01*
X13964326Y11311744D01*
X13964326Y11311741D01*
X13964327Y11311740D01*
X14022818Y11131722D01*
X14022821Y11131715D01*
X14117466Y10967785D01*
X14244129Y10827111D01*
X14397265Y10715851D01*
X14397270Y10715848D01*
X14570192Y10638857D01*
X14570197Y10638855D01*
X14722897Y10606398D01*
X14755354Y10599500D01*
X14755355Y10599500D01*
X14944645Y10599500D01*
X14944646Y10599500D01*
X14984001Y10607865D01*
X15129802Y10638855D01*
X15129807Y10638857D01*
X15302729Y10715848D01*
X15302734Y10715851D01*
X15455869Y10827110D01*
X15455873Y10827114D01*
X15461600Y10833474D01*
X15521087Y10870121D01*
X15553748Y10874500D01*
X16214826Y10874500D01*
X16281865Y10854815D01*
X16316401Y10821623D01*
X16379954Y10730858D01*
X16540858Y10569954D01*
X16727265Y10439432D01*
X16727267Y10439431D01*
X16785275Y10412382D01*
X16837714Y10366209D01*
X16856866Y10299016D01*
X16836650Y10232135D01*
X16785275Y10187618D01*
X16727266Y10160568D01*
X16653653Y10109024D01*
X16540858Y10030045D01*
X16379954Y9869141D01*
X16379953Y9869139D01*
X16249432Y9682734D01*
X16249431Y9682732D01*
X16246382Y9678377D01*
X16191806Y9634752D01*
X16144807Y9625500D01*
X14903748Y9625500D01*
X14836709Y9645185D01*
X14811600Y9666526D01*
X14808788Y9669647D01*
X14805871Y9672888D01*
X14652730Y9784151D01*
X14479803Y9861144D01*
X14294646Y9900500D01*
X14105354Y9900500D01*
X13957820Y9869141D01*
X13920197Y9861144D01*
X13920192Y9861142D01*
X13747270Y9784151D01*
X13747265Y9784148D01*
X13601684Y9678377D01*
X13594129Y9672888D01*
X13467467Y9532216D01*
X13435202Y9476331D01*
X13372821Y9368284D01*
X13372818Y9368277D01*
X13336532Y9256599D01*
X13314326Y9188256D01*
X13294540Y9000000D01*
X13314326Y8811744D01*
X13314326Y8811741D01*
X13314327Y8811740D01*
X13372818Y8631722D01*
X13372821Y8631715D01*
X13467466Y8467785D01*
X13594129Y8327111D01*
X13747265Y8215851D01*
X13747270Y8215848D01*
X13920192Y8138857D01*
X13920197Y8138855D01*
X14072897Y8106398D01*
X14105354Y8099500D01*
X14105355Y8099500D01*
X14294645Y8099500D01*
X14294646Y8099500D01*
X14334001Y8107865D01*
X14479802Y8138855D01*
X14479807Y8138857D01*
X14652729Y8215848D01*
X14652734Y8215851D01*
X14805869Y8327110D01*
X14805873Y8327114D01*
X14811600Y8333474D01*
X14871087Y8370121D01*
X14903748Y8374500D01*
X16186818Y8374500D01*
X16253857Y8354815D01*
X16288393Y8321623D01*
X16379954Y8190858D01*
X16540858Y8029954D01*
X16727265Y7899432D01*
X16727272Y7899428D01*
X16785866Y7872105D01*
X16838305Y7825932D01*
X16857456Y7758738D01*
X16837239Y7691858D01*
X16785864Y7647342D01*
X16727521Y7620136D01*
X16727513Y7620132D01*
X16654526Y7569025D01*
X17238633Y6984918D01*
X17234839Y6984373D01*
X17101438Y6923451D01*
X16990605Y6827413D01*
X16911318Y6704040D01*
X16888866Y6627580D01*
X16300974Y7215472D01*
X16249863Y7142478D01*
X16153735Y6936331D01*
X16153730Y6936317D01*
X16094860Y6716610D01*
X16094858Y6716599D01*
X16075034Y6490002D01*
X16075034Y6489997D01*
X16094858Y6263400D01*
X16094860Y6263389D01*
X16153730Y6043682D01*
X16153734Y6043673D01*
X16249866Y5837516D01*
X16249868Y5837512D01*
X16300973Y5764526D01*
X16300974Y5764526D01*
X16888867Y6352419D01*
X16911318Y6275960D01*
X16990605Y6152587D01*
X17101438Y6056549D01*
X17234839Y5995627D01*
X17238634Y5995081D01*
X16654526Y5410974D01*
X16654526Y5410973D01*
X16727512Y5359868D01*
X16727516Y5359866D01*
X16933673Y5263734D01*
X16933682Y5263730D01*
X17153389Y5204860D01*
X17153400Y5204858D01*
X17379998Y5185034D01*
X17380002Y5185034D01*
X17606599Y5204858D01*
X17606610Y5204860D01*
X17826317Y5263730D01*
X17826331Y5263735D01*
X18032478Y5359863D01*
X18105472Y5410974D01*
X17521366Y5995081D01*
X17525161Y5995627D01*
X17658562Y6056549D01*
X17769395Y6152587D01*
X17848682Y6275960D01*
X17871132Y6352418D01*
X18459025Y5764526D01*
X18510132Y5837513D01*
X18510136Y5837521D01*
X18606264Y6043668D01*
X18606269Y6043682D01*
X18665139Y6263389D01*
X18665141Y6263400D01*
X18684966Y6489997D01*
X18684966Y6490002D01*
X18665141Y6716599D01*
X18665139Y6716610D01*
X18606269Y6936317D01*
X18606264Y6936331D01*
X18510136Y7142478D01*
X18459024Y7215471D01*
X17871133Y6627580D01*
X17848682Y6704040D01*
X17769395Y6827413D01*
X17658562Y6923451D01*
X17525161Y6984373D01*
X17521365Y6984918D01*
X18105471Y7569024D01*
X18032482Y7620133D01*
X17974135Y7647341D01*
X17921696Y7693513D01*
X17902543Y7760707D01*
X17922758Y7827588D01*
X17974132Y7872105D01*
X18032734Y7899432D01*
X18112546Y7955317D01*
X18219141Y8029954D01*
X18380045Y8190858D01*
X18475450Y8327112D01*
X18510568Y8377266D01*
X18606739Y8583504D01*
X18665635Y8803308D01*
X18685468Y9030000D01*
X18665635Y9256692D01*
X18606739Y9476496D01*
X18510568Y9682734D01*
X18380047Y9869139D01*
X18219139Y10030047D01*
X18032734Y10160568D01*
X17974724Y10187618D01*
X17922285Y10233790D01*
X17903133Y10300983D01*
X17923348Y10367865D01*
X17974725Y10412382D01*
X18032728Y10439429D01*
X18032734Y10439432D01*
X18219141Y10569954D01*
X18380045Y10730858D01*
X18510567Y10917265D01*
X18510568Y10917266D01*
X18606739Y11123504D01*
X18665635Y11343308D01*
X18685468Y11570000D01*
X18665635Y11796692D01*
X18606739Y12016496D01*
X18510568Y12222734D01*
X18380047Y12409139D01*
X18219139Y12570047D01*
X18032734Y12700568D01*
X17974724Y12727618D01*
X17922285Y12773790D01*
X17903133Y12840983D01*
X17923348Y12907865D01*
X17974725Y12952382D01*
X18032728Y12979429D01*
X18032734Y12979432D01*
X18219141Y13109954D01*
X18380045Y13270858D01*
X18492613Y13431623D01*
X18547189Y13475248D01*
X18594188Y13484500D01*
X19787248Y13484500D01*
X19854287Y13464815D01*
X19879397Y13443473D01*
X19894128Y13427112D01*
X19894135Y13427106D01*
X20047265Y13315851D01*
X20047270Y13315848D01*
X20220192Y13238857D01*
X20220197Y13238855D01*
X20372897Y13206398D01*
X20405354Y13199500D01*
X20405355Y13199500D01*
X20594645Y13199500D01*
X20594646Y13199500D01*
X20634001Y13207865D01*
X20779802Y13238855D01*
X20779807Y13238857D01*
X20952729Y13315848D01*
X20952734Y13315851D01*
X21105870Y13427111D01*
X21109933Y13431623D01*
X21232533Y13567784D01*
X21327179Y13731716D01*
X21385674Y13911744D01*
X21405460Y14100000D01*
X21385674Y14288256D01*
X21327179Y14468284D01*
X21232533Y14632216D01*
X21105871Y14772888D01*
X20952730Y14884151D01*
X20779803Y14961144D01*
X20594646Y15000500D01*
X20405354Y15000500D01*
X20220197Y14961144D01*
X20220192Y14961142D01*
X20047270Y14884151D01*
X20047265Y14884148D01*
X19894130Y14772889D01*
X19889299Y14768539D01*
X19887567Y14770461D01*
X19837896Y14739873D01*
X19805256Y14735500D01*
X18594188Y14735500D01*
X18527149Y14755185D01*
X18492613Y14788377D01*
X18425554Y14884148D01*
X18380047Y14949139D01*
X18219139Y15110047D01*
X18032734Y15240568D01*
X17974724Y15267618D01*
X17922285Y15313790D01*
X17903133Y15380983D01*
X17923348Y15447865D01*
X17974725Y15492382D01*
X18032728Y15519429D01*
X18032734Y15519432D01*
X18219141Y15649954D01*
X18380045Y15810858D01*
X18510567Y15997265D01*
X18510568Y15997266D01*
X18606739Y16203504D01*
X18665635Y16423308D01*
X18685468Y16650000D01*
X18665635Y16876692D01*
X18606739Y17096496D01*
X18510568Y17302734D01*
X18380047Y17489139D01*
X18219139Y17650047D01*
X18032734Y17780568D01*
X17974724Y17807618D01*
X17922285Y17853790D01*
X17903133Y17920983D01*
X17923348Y17987865D01*
X17974725Y18032382D01*
X18032728Y18059429D01*
X18032734Y18059432D01*
X18219141Y18189954D01*
X18380045Y18350858D01*
X18442112Y18439500D01*
X18493286Y18512585D01*
X18547862Y18556210D01*
X18594763Y18565462D01*
X29422435Y18574041D01*
X29481253Y18558310D01*
X29481334Y18558492D01*
X29482478Y18557982D01*
X29484518Y18557437D01*
X29487266Y18555850D01*
X29660192Y18478857D01*
X29660197Y18478855D01*
X29812897Y18446398D01*
X29845354Y18439500D01*
X29845355Y18439500D01*
X30034645Y18439500D01*
X30034646Y18439500D01*
X30074001Y18447865D01*
X30219802Y18478855D01*
X30219807Y18478857D01*
X30392729Y18555848D01*
X30392734Y18555851D01*
X30545870Y18667111D01*
X30614653Y18743502D01*
X30672533Y18807784D01*
X30767179Y18971716D01*
X30825674Y19151744D01*
X30845460Y19340000D01*
X30825674Y19528256D01*
X30767179Y19708284D01*
X30672533Y19872216D01*
X30545871Y20012888D01*
X30392730Y20124151D01*
X30219803Y20201144D01*
X30034646Y20240500D01*
X29845354Y20240500D01*
X29697002Y20208967D01*
X29660197Y20201144D01*
X29660192Y20201142D01*
X29487270Y20124151D01*
X29487265Y20124148D01*
X29334129Y20012888D01*
X29203119Y19867387D01*
X29201264Y19869057D01*
X29154822Y19833244D01*
X29109932Y19824794D01*
X18593611Y19816462D01*
X18526557Y19836093D01*
X18491939Y19869339D01*
X18489925Y19872216D01*
X18380047Y20029139D01*
X18219139Y20190047D01*
X18032734Y20320568D01*
X17974724Y20347618D01*
X17922285Y20393790D01*
X17903133Y20460983D01*
X17923348Y20527865D01*
X17974725Y20572382D01*
X18032728Y20599429D01*
X18032734Y20599432D01*
X18219141Y20729954D01*
X18380045Y20890858D01*
X18510567Y21077265D01*
X18510568Y21077266D01*
X18606739Y21283504D01*
X18665635Y21503308D01*
X18685468Y21730000D01*
X18665635Y21956692D01*
X18606739Y22176496D01*
X18510568Y22382734D01*
X18380047Y22569139D01*
X18219139Y22730047D01*
X18032734Y22860568D01*
X17974724Y22887618D01*
X17922285Y22933790D01*
X17903133Y23000983D01*
X17923348Y23067865D01*
X17974725Y23112382D01*
X18032728Y23139429D01*
X18032734Y23139432D01*
X18219141Y23269954D01*
X18380045Y23430858D01*
X18412839Y23477693D01*
X18510568Y23617266D01*
X18606739Y23823504D01*
X18652218Y23993233D01*
X19300000Y23993233D01*
X19314858Y23823400D01*
X19314860Y23823389D01*
X19373730Y23603682D01*
X19373734Y23603673D01*
X19469865Y23397517D01*
X19600342Y23211179D01*
X19761179Y23050342D01*
X19947517Y22919865D01*
X20153671Y22823734D01*
X20350000Y22771127D01*
X20350000Y23814498D01*
X20457685Y23765320D01*
X20564237Y23750000D01*
X20635763Y23750000D01*
X20742315Y23765320D01*
X20850000Y23814498D01*
X20850000Y22771127D01*
X21046328Y22823734D01*
X21252482Y22919865D01*
X21438820Y23050342D01*
X21599657Y23211179D01*
X21730134Y23397518D01*
X21730135Y23397520D01*
X21757342Y23455865D01*
X21803514Y23508305D01*
X21870707Y23527457D01*
X21937589Y23507242D01*
X21982105Y23455867D01*
X22009315Y23397517D01*
X22009433Y23397264D01*
X22139954Y23210858D01*
X22300858Y23049954D01*
X22487265Y22919432D01*
X22487267Y22919431D01*
X22693502Y22823261D01*
X22693511Y22823258D01*
X22913302Y22764366D01*
X22913313Y22764364D01*
X23139998Y22744532D01*
X23140000Y22744532D01*
X23140002Y22744532D01*
X23366686Y22764364D01*
X23366697Y22764366D01*
X23586488Y22823258D01*
X23586497Y22823261D01*
X23792732Y22919431D01*
X23792734Y22919432D01*
X23979141Y23049954D01*
X24140045Y23210858D01*
X24181424Y23269954D01*
X24270568Y23397266D01*
X24297618Y23455275D01*
X24343791Y23507714D01*
X24410984Y23526866D01*
X24477865Y23506650D01*
X24522382Y23455275D01*
X24549431Y23397267D01*
X24549432Y23397265D01*
X24679954Y23210858D01*
X24840858Y23049954D01*
X25027265Y22919432D01*
X25027267Y22919431D01*
X25233502Y22823261D01*
X25233511Y22823258D01*
X25453302Y22764366D01*
X25453313Y22764364D01*
X25679998Y22744532D01*
X25680000Y22744532D01*
X25680002Y22744532D01*
X25906686Y22764364D01*
X25906697Y22764366D01*
X26126488Y22823258D01*
X26126497Y22823261D01*
X26332732Y22919431D01*
X26332734Y22919432D01*
X26519141Y23049954D01*
X26680045Y23210858D01*
X26721424Y23269954D01*
X26810568Y23397266D01*
X26837618Y23455275D01*
X26883791Y23507714D01*
X26950984Y23526866D01*
X27017865Y23506650D01*
X27062382Y23455275D01*
X27089431Y23397267D01*
X27089432Y23397265D01*
X27219954Y23210858D01*
X27380858Y23049954D01*
X27567265Y22919432D01*
X27567267Y22919431D01*
X27773502Y22823261D01*
X27773511Y22823258D01*
X27993302Y22764366D01*
X27993313Y22764364D01*
X28219998Y22744532D01*
X28220000Y22744532D01*
X28220002Y22744532D01*
X28446686Y22764364D01*
X28446697Y22764366D01*
X28666488Y22823258D01*
X28666497Y22823261D01*
X28872732Y22919431D01*
X28872734Y22919432D01*
X29059141Y23049954D01*
X29220045Y23210858D01*
X29261424Y23269954D01*
X29350568Y23397266D01*
X29446739Y23603504D01*
X29450427Y23617266D01*
X29490097Y23765320D01*
X29505635Y23823308D01*
X29520500Y23993216D01*
X29520500Y24506784D01*
X29505635Y24676692D01*
X29446739Y24896496D01*
X29350568Y25102734D01*
X29220047Y25289139D01*
X29059139Y25450047D01*
X28872734Y25580568D01*
X28666496Y25676739D01*
X28446692Y25735635D01*
X28276673Y25750509D01*
X28220002Y25755468D01*
X28219998Y25755468D01*
X28155230Y25749801D01*
X27993308Y25735635D01*
X27827365Y25691171D01*
X27783551Y25679431D01*
X27773504Y25676739D01*
X27567266Y25580568D01*
X27507923Y25539016D01*
X27380858Y25450045D01*
X27219954Y25289141D01*
X27089432Y25102734D01*
X27089429Y25102728D01*
X27062382Y25044725D01*
X27016210Y24992285D01*
X26949017Y24973133D01*
X26882135Y24993348D01*
X26837618Y25044725D01*
X26810568Y25102734D01*
X26680047Y25289139D01*
X26519139Y25450047D01*
X26332734Y25580568D01*
X26126496Y25676739D01*
X25906692Y25735635D01*
X25736673Y25750509D01*
X25680002Y25755468D01*
X25679998Y25755468D01*
X25615230Y25749801D01*
X25453308Y25735635D01*
X25287365Y25691171D01*
X25243551Y25679431D01*
X25233504Y25676739D01*
X25027266Y25580568D01*
X24967923Y25539016D01*
X24840858Y25450045D01*
X24679954Y25289141D01*
X24549432Y25102734D01*
X24549429Y25102728D01*
X24522382Y25044725D01*
X24476210Y24992285D01*
X24409017Y24973133D01*
X24342135Y24993348D01*
X24297618Y25044725D01*
X24270568Y25102734D01*
X24140047Y25289139D01*
X23979139Y25450047D01*
X23792734Y25580568D01*
X23586496Y25676739D01*
X23366692Y25735635D01*
X23196673Y25750509D01*
X23140002Y25755468D01*
X23139998Y25755468D01*
X23075230Y25749801D01*
X22913308Y25735635D01*
X22747365Y25691171D01*
X22703551Y25679431D01*
X22693504Y25676739D01*
X22487266Y25580568D01*
X22427923Y25539016D01*
X22300858Y25450045D01*
X22139954Y25289141D01*
X22009432Y25102734D01*
X22009431Y25102732D01*
X21982106Y25044133D01*
X21935934Y24991694D01*
X21868740Y24972542D01*
X21801859Y24992758D01*
X21757341Y25044134D01*
X21730132Y25102484D01*
X21599657Y25288820D01*
X21438820Y25449657D01*
X21252482Y25580134D01*
X21046326Y25676265D01*
X21046317Y25676269D01*
X20850000Y25728872D01*
X20850000Y24685501D01*
X20742315Y24734680D01*
X20635763Y24750000D01*
X20564237Y24750000D01*
X20457685Y24734680D01*
X20350000Y24685501D01*
X20350000Y25728871D01*
X20349999Y25728872D01*
X20153682Y25676269D01*
X20153673Y25676265D01*
X19947517Y25580134D01*
X19761179Y25449657D01*
X19600342Y25288820D01*
X19469865Y25102482D01*
X19373734Y24896326D01*
X19373730Y24896317D01*
X19314860Y24676610D01*
X19314858Y24676599D01*
X19300000Y24506766D01*
X19300000Y24500000D01*
X20166314Y24500000D01*
X20140507Y24459844D01*
X20100000Y24321889D01*
X20100000Y24178111D01*
X20140507Y24040156D01*
X20166314Y24000000D01*
X19300000Y24000000D01*
X19300000Y23993233D01*
X18652218Y23993233D01*
X18665635Y24043308D01*
X18685468Y24270000D01*
X18665635Y24496692D01*
X18606739Y24716496D01*
X18510568Y24922734D01*
X18380047Y25109139D01*
X18219139Y25270047D01*
X18032734Y25400568D01*
X17974724Y25427618D01*
X17922285Y25473790D01*
X17903133Y25540983D01*
X17923348Y25607865D01*
X17974725Y25652382D01*
X18032728Y25679429D01*
X18032734Y25679432D01*
X18219141Y25809954D01*
X18380045Y25970858D01*
X18510567Y26157265D01*
X18510568Y26157266D01*
X18606739Y26363504D01*
X18665635Y26583308D01*
X18685468Y26810000D01*
X18665635Y27036692D01*
X18606739Y27256496D01*
X18510568Y27462734D01*
X18380047Y27649139D01*
X18219139Y27810047D01*
X18032734Y27940568D01*
X17974724Y27967618D01*
X17922285Y28013790D01*
X17903133Y28080983D01*
X17923348Y28147865D01*
X17974725Y28192382D01*
X18032728Y28219429D01*
X18032734Y28219432D01*
X18219141Y28349954D01*
X18380045Y28510858D01*
X18454653Y28617410D01*
X18510568Y28697266D01*
X18606739Y28903504D01*
X18665635Y29123308D01*
X18685468Y29350000D01*
X18665635Y29576692D01*
X18606739Y29796496D01*
X18510568Y30002734D01*
X18380047Y30189139D01*
X18219139Y30350047D01*
X18032734Y30480568D01*
X17974724Y30507618D01*
X17922285Y30553790D01*
X17903133Y30620983D01*
X17923348Y30687865D01*
X17974725Y30732382D01*
X18032728Y30759429D01*
X18032734Y30759432D01*
X18219141Y30889954D01*
X18380045Y31050858D01*
X18492613Y31211623D01*
X18547189Y31255248D01*
X18594188Y31264500D01*
X22205256Y31264500D01*
X22272295Y31244815D01*
X22288740Y31230840D01*
X22289299Y31231461D01*
X22294130Y31227110D01*
X22447265Y31115851D01*
X22447270Y31115848D01*
X22620192Y31038857D01*
X22620197Y31038855D01*
X22772897Y31006398D01*
X22805354Y30999500D01*
X22805355Y30999500D01*
X22994645Y30999500D01*
X22994646Y30999500D01*
X23034001Y31007865D01*
X23179802Y31038855D01*
X23179807Y31038857D01*
X23352729Y31115848D01*
X23352734Y31115851D01*
X23505870Y31227111D01*
X23515014Y31237266D01*
X23632533Y31367784D01*
X23727179Y31531716D01*
X23785674Y31711744D01*
X23805460Y31900000D01*
X23785674Y32088256D01*
X23727179Y32268284D01*
X23632533Y32432216D01*
X23505871Y32572888D01*
X23352730Y32684151D01*
X23179803Y32761144D01*
X22994646Y32800500D01*
X22805354Y32800500D01*
X22620197Y32761144D01*
X22620192Y32761142D01*
X22447270Y32684151D01*
X22447265Y32684148D01*
X22294135Y32572893D01*
X22294128Y32572887D01*
X22279397Y32556527D01*
X22219910Y32519879D01*
X22187248Y32515500D01*
X18594188Y32515500D01*
X18527149Y32535185D01*
X18492613Y32568377D01*
X18458681Y32616836D01*
X18380047Y32729139D01*
X18219139Y32890047D01*
X18032734Y33020568D01*
X17974724Y33047618D01*
X17922285Y33093790D01*
X17903133Y33160983D01*
X17923348Y33227865D01*
X17974725Y33272382D01*
X18032728Y33299429D01*
X18032734Y33299432D01*
X18219141Y33429954D01*
X18380045Y33590858D01*
X18492613Y33751623D01*
X18547189Y33795248D01*
X18594188Y33804500D01*
X20769240Y33804500D01*
X20836279Y33784815D01*
X20861386Y33763476D01*
X20872059Y33751623D01*
X20894133Y33727107D01*
X20894135Y33727106D01*
X21047265Y33615851D01*
X21047270Y33615848D01*
X21220192Y33538857D01*
X21220197Y33538855D01*
X21372897Y33506398D01*
X21405354Y33499500D01*
X21405355Y33499500D01*
X21594645Y33499500D01*
X21594646Y33499500D01*
X21634001Y33507865D01*
X21779802Y33538855D01*
X21779807Y33538857D01*
X21952729Y33615848D01*
X21952734Y33615851D01*
X22105870Y33727111D01*
X22127941Y33751623D01*
X22232533Y33867784D01*
X22327179Y34031716D01*
X22385674Y34211744D01*
X22405460Y34400000D01*
X22385674Y34588256D01*
X22327179Y34768284D01*
X22232533Y34932216D01*
X22105871Y35072888D01*
X21952730Y35184151D01*
X21779803Y35261144D01*
X21594646Y35300500D01*
X21405354Y35300500D01*
X21257820Y35269141D01*
X21220197Y35261144D01*
X21220192Y35261142D01*
X21047270Y35184151D01*
X21047265Y35184148D01*
X20902792Y35079182D01*
X20836986Y35055702D01*
X20829907Y35055500D01*
X18594188Y35055500D01*
X18527149Y35075185D01*
X18492613Y35108377D01*
X18439556Y35184151D01*
X18380047Y35269139D01*
X18219139Y35430047D01*
X18032734Y35560568D01*
X17974724Y35587618D01*
X17922285Y35633790D01*
X17903133Y35700983D01*
X17923348Y35767865D01*
X17974725Y35812382D01*
X18032728Y35839429D01*
X18032734Y35839432D01*
X18219141Y35969954D01*
X18380045Y36130858D01*
X18492613Y36291623D01*
X18547189Y36335248D01*
X18594188Y36344500D01*
X19967545Y36344500D01*
X20034584Y36324815D01*
X20040430Y36320818D01*
X20047265Y36315851D01*
X20047270Y36315848D01*
X20220192Y36238857D01*
X20220197Y36238855D01*
X20372897Y36206398D01*
X20405354Y36199500D01*
X20405355Y36199500D01*
X20594645Y36199500D01*
X20594646Y36199500D01*
X20634001Y36207865D01*
X20779802Y36238855D01*
X20779807Y36238857D01*
X20952729Y36315848D01*
X20952734Y36315851D01*
X21105870Y36427111D01*
X21192661Y36523502D01*
X21232533Y36567784D01*
X21327179Y36731716D01*
X21385674Y36911744D01*
X21405460Y37100000D01*
X21385674Y37288256D01*
X21327179Y37468284D01*
X21232533Y37632216D01*
X21105871Y37772888D01*
X20952730Y37884151D01*
X20779803Y37961144D01*
X20594646Y38000500D01*
X20405354Y38000500D01*
X20326777Y37983798D01*
X20220197Y37961144D01*
X20220192Y37961142D01*
X20047270Y37884151D01*
X20047265Y37884148D01*
X19944027Y37809141D01*
X19894129Y37772888D01*
X19782019Y37648377D01*
X19771350Y37636528D01*
X19711863Y37599879D01*
X19679200Y37595500D01*
X18594188Y37595500D01*
X18527149Y37615185D01*
X18492613Y37648377D01*
X18405430Y37772888D01*
X18380047Y37809139D01*
X18219139Y37970047D01*
X18032734Y38100568D01*
X17974724Y38127618D01*
X17922285Y38173790D01*
X17903133Y38240983D01*
X17923348Y38307865D01*
X17974725Y38352382D01*
X18032728Y38379429D01*
X18032734Y38379432D01*
X18219141Y38509954D01*
X18380045Y38670858D01*
X18510567Y38857265D01*
X18510568Y38857266D01*
X18606739Y39063504D01*
X18665635Y39283308D01*
X18685468Y39510000D01*
X18665635Y39736692D01*
X18606739Y39956496D01*
X18510568Y40162734D01*
X18380047Y40349139D01*
X18219139Y40510047D01*
X18032734Y40640568D01*
X17826496Y40736739D01*
X17606692Y40795635D01*
X17436673Y40810509D01*
X17380002Y40815468D01*
X17379998Y40815468D01*
X17315230Y40809801D01*
X17153308Y40795635D01*
X17084948Y40777318D01*
X17015103Y40778981D01*
X16965181Y40809408D01*
X16709471Y41065120D01*
X15161819Y42612772D01*
X15128334Y42674095D01*
X15125500Y42700453D01*
X15125500Y43736000D01*
X15145185Y43803039D01*
X15197989Y43848794D01*
X15249500Y43860000D01*
X15870000Y43860000D01*
X15870000Y44774498D01*
X15977685Y44725320D01*
X16084237Y44710000D01*
X16155763Y44710000D01*
X16262315Y44725320D01*
X16370000Y44774498D01*
X16370000Y43860000D01*
X17017844Y43860000D01*
X17077372Y43866401D01*
X17077379Y43866403D01*
X17212086Y43916645D01*
X17212093Y43916649D01*
X17327187Y44002809D01*
X17327190Y44002812D01*
X17413350Y44117906D01*
X17413354Y44117913D01*
X17462422Y44249470D01*
X17504293Y44305404D01*
X17569758Y44329821D01*
X17638031Y44314969D01*
X17666285Y44293819D01*
X17788603Y44171501D01*
X17982165Y44035967D01*
X17982169Y44035965D01*
X18196335Y43936098D01*
X18196344Y43936094D01*
X18424586Y43874938D01*
X18424596Y43874936D01*
X18659999Y43854341D01*
X18660000Y43854341D01*
X18660001Y43854341D01*
X18895403Y43874936D01*
X18895413Y43874938D01*
X19123655Y43936094D01*
X19123659Y43936096D01*
X19123663Y43936097D01*
X19337830Y44035965D01*
X19337834Y44035967D01*
X19531395Y44171501D01*
X19531402Y44171506D01*
X19698493Y44338597D01*
X19698495Y44338599D01*
X19828425Y44524158D01*
X19883002Y44567782D01*
X19952501Y44574975D01*
X20014855Y44543453D01*
X20031575Y44524158D01*
X20161505Y44338599D01*
X20161506Y44338597D01*
X20328597Y44171506D01*
X20328604Y44171501D01*
X20522165Y44035967D01*
X20522169Y44035965D01*
X20736335Y43936098D01*
X20736344Y43936094D01*
X20964586Y43874938D01*
X20964596Y43874936D01*
X21199999Y43854341D01*
X21200000Y43854341D01*
X21200001Y43854341D01*
X21435403Y43874936D01*
X21435413Y43874938D01*
X21663655Y43936094D01*
X21663659Y43936096D01*
X21663663Y43936097D01*
X21877830Y44035965D01*
X21877834Y44035967D01*
X22071395Y44171501D01*
X22071402Y44171506D01*
X22238493Y44338597D01*
X22238495Y44338599D01*
X22368425Y44524158D01*
X22423002Y44567782D01*
X22492501Y44574975D01*
X22554855Y44543453D01*
X22571575Y44524158D01*
X22701505Y44338599D01*
X22701506Y44338597D01*
X22868597Y44171506D01*
X22868599Y44171505D01*
X23061624Y44036347D01*
X23105249Y43981770D01*
X23114500Y43934772D01*
X23114500Y41867742D01*
X23112775Y41852122D01*
X23113061Y41852096D01*
X23112327Y41844334D01*
X23114439Y41777126D01*
X23114500Y41773231D01*
X23114500Y41745646D01*
X23115003Y41741661D01*
X23115918Y41730033D01*
X23117290Y41686373D01*
X23122881Y41667129D01*
X23126825Y41648079D01*
X23129334Y41628211D01*
X23129334Y41628210D01*
X23145413Y41587599D01*
X23149194Y41576554D01*
X23161379Y41534614D01*
X23161381Y41534610D01*
X23171579Y41517366D01*
X23180133Y41499905D01*
X23187510Y41481274D01*
X23187517Y41481262D01*
X23213185Y41445933D01*
X23219596Y41436173D01*
X23241829Y41398580D01*
X23255995Y41384414D01*
X23268627Y41369624D01*
X23280404Y41353414D01*
X23280407Y41353411D01*
X23314058Y41325573D01*
X23322697Y41317711D01*
X30663181Y33977228D01*
X30696666Y33915905D01*
X30699500Y33889547D01*
X30699500Y20567742D01*
X30697775Y20552122D01*
X30698061Y20552096D01*
X30697327Y20544334D01*
X30699439Y20477126D01*
X30699500Y20473231D01*
X30699500Y20445646D01*
X30700003Y20441661D01*
X30700918Y20430033D01*
X30702290Y20386373D01*
X30707881Y20367129D01*
X30711825Y20348079D01*
X30714334Y20328211D01*
X30714334Y20328210D01*
X30730413Y20287599D01*
X30734194Y20276554D01*
X30746379Y20234614D01*
X30746381Y20234610D01*
X30756579Y20217366D01*
X30765133Y20199905D01*
X30772510Y20181274D01*
X30772517Y20181262D01*
X30798185Y20145933D01*
X30804596Y20136173D01*
X30826829Y20098580D01*
X30840995Y20084414D01*
X30853627Y20069624D01*
X30865404Y20053414D01*
X30865407Y20053411D01*
X30899058Y20025573D01*
X30907697Y20017711D01*
X31320586Y19604822D01*
X31354071Y19543499D01*
X31352680Y19485049D01*
X31337397Y19428008D01*
X31334367Y19416697D01*
X31334364Y19416686D01*
X31314532Y19190000D01*
X31314532Y19189998D01*
X31334364Y18963313D01*
X31334366Y18963302D01*
X31393258Y18743511D01*
X31393261Y18743502D01*
X31489431Y18537267D01*
X31489432Y18537265D01*
X31619954Y18350858D01*
X31780858Y18189954D01*
X31967265Y18059432D01*
X31967267Y18059431D01*
X32025275Y18032382D01*
X32077714Y17986209D01*
X32096866Y17919016D01*
X32076650Y17852135D01*
X32025275Y17807618D01*
X31967266Y17780568D01*
X31967265Y17780567D01*
X31780858Y17650045D01*
X31619954Y17489141D01*
X31489432Y17302734D01*
X31489431Y17302732D01*
X31393261Y17096497D01*
X31393258Y17096488D01*
X31334366Y16876697D01*
X31334364Y16876686D01*
X31314532Y16650001D01*
X31314532Y16649998D01*
X31334364Y16423313D01*
X31334366Y16423302D01*
X31393258Y16203511D01*
X31393261Y16203502D01*
X31489431Y15997267D01*
X31489432Y15997265D01*
X31619954Y15810858D01*
X31780858Y15649954D01*
X31967265Y15519432D01*
X31967267Y15519431D01*
X32025275Y15492382D01*
X32077714Y15446209D01*
X32096866Y15379016D01*
X32076650Y15312135D01*
X32025275Y15267618D01*
X31967266Y15240568D01*
X31967265Y15240567D01*
X31780858Y15110045D01*
X31619954Y14949141D01*
X31489432Y14762734D01*
X31489431Y14762732D01*
X31393261Y14556497D01*
X31393258Y14556488D01*
X31334366Y14336697D01*
X31334364Y14336687D01*
X31323777Y14215671D01*
X31298324Y14150603D01*
X31241734Y14109624D01*
X31171972Y14105746D01*
X31112570Y14138796D01*
X30865724Y14385642D01*
X30853947Y14399271D01*
X30839610Y14418530D01*
X30801676Y14450360D01*
X30793691Y14457677D01*
X30789781Y14461587D01*
X30789780Y14461587D01*
X30789777Y14461591D01*
X30765438Y14480833D01*
X30762693Y14483069D01*
X30705214Y14531302D01*
X30705203Y14531307D01*
X30699175Y14535274D01*
X30699208Y14535325D01*
X30692856Y14539372D01*
X30692824Y14539320D01*
X30686680Y14543108D01*
X30686677Y14543111D01*
X30618673Y14574821D01*
X30615488Y14576362D01*
X30548433Y14610040D01*
X30548417Y14610043D01*
X30541646Y14612509D01*
X30541667Y14612567D01*
X30534546Y14615043D01*
X30534528Y14614986D01*
X30527677Y14617256D01*
X30527673Y14617256D01*
X30527673Y14617257D01*
X30454102Y14632447D01*
X30450798Y14633179D01*
X30377721Y14650500D01*
X30377712Y14650500D01*
X30370548Y14651338D01*
X30370555Y14651398D01*
X30363055Y14652164D01*
X30363050Y14652105D01*
X30355860Y14652734D01*
X30355856Y14652733D01*
X30355856Y14652734D01*
X30295304Y14650972D01*
X30280870Y14650552D01*
X30277263Y14650500D01*
X25263705Y14650500D01*
X25245735Y14651809D01*
X25244947Y14651924D01*
X25221977Y14655289D01*
X25172630Y14650971D01*
X25161824Y14650500D01*
X25156291Y14650500D01*
X25125509Y14646901D01*
X25121929Y14646536D01*
X25047201Y14639999D01*
X25040129Y14638539D01*
X25040116Y14638597D01*
X25032757Y14636965D01*
X25032772Y14636906D01*
X25025751Y14635241D01*
X25025745Y14635241D01*
X24955212Y14609569D01*
X24951909Y14608421D01*
X24880666Y14584814D01*
X24880659Y14584810D01*
X24874118Y14581760D01*
X24874091Y14581815D01*
X24867313Y14578533D01*
X24867340Y14578480D01*
X24860886Y14575238D01*
X24860883Y14575237D01*
X24860880Y14575235D01*
X24798223Y14534025D01*
X24795187Y14532090D01*
X24793912Y14531303D01*
X24731342Y14492710D01*
X24725682Y14488234D01*
X24725644Y14488281D01*
X24719799Y14483519D01*
X24719838Y14483474D01*
X24714305Y14478831D01*
X24662831Y14424272D01*
X24660318Y14421685D01*
X22983137Y12744505D01*
X22921814Y12711020D01*
X22863364Y12712410D01*
X22776692Y12735635D01*
X22606673Y12750509D01*
X22550002Y12755468D01*
X22549998Y12755468D01*
X22485230Y12749801D01*
X22323308Y12735635D01*
X22103504Y12676739D01*
X21897266Y12580568D01*
X21757693Y12482839D01*
X21710858Y12450045D01*
X21549954Y12289141D01*
X21419432Y12102734D01*
X21419431Y12102732D01*
X21323261Y11896497D01*
X21323258Y11896488D01*
X21264366Y11676697D01*
X21264364Y11676687D01*
X21249500Y11506785D01*
X21249500Y10993214D01*
X21264364Y10823312D01*
X21264366Y10823302D01*
X21323258Y10603511D01*
X21323261Y10603502D01*
X21419431Y10397267D01*
X21419432Y10397265D01*
X21549954Y10210858D01*
X21710858Y10049954D01*
X21897265Y9919432D01*
X21897267Y9919431D01*
X22103502Y9823261D01*
X22103511Y9823258D01*
X22323302Y9764366D01*
X22323313Y9764364D01*
X22549998Y9744532D01*
X22550000Y9744532D01*
X22550002Y9744532D01*
X22776686Y9764364D01*
X22776697Y9764366D01*
X22996488Y9823258D01*
X22996497Y9823261D01*
X23202732Y9919431D01*
X23202734Y9919432D01*
X23389141Y10049954D01*
X23550045Y10210858D01*
X23601515Y10284365D01*
X23680568Y10397266D01*
X23707618Y10455275D01*
X23753791Y10507714D01*
X23820984Y10526866D01*
X23887865Y10506650D01*
X23932382Y10455275D01*
X23959431Y10397267D01*
X23959432Y10397265D01*
X24089954Y10210858D01*
X24250858Y10049954D01*
X24437265Y9919432D01*
X24437267Y9919431D01*
X24643502Y9823261D01*
X24643511Y9823258D01*
X24863302Y9764366D01*
X24863313Y9764364D01*
X25089998Y9744532D01*
X25090000Y9744532D01*
X25090002Y9744532D01*
X25316686Y9764364D01*
X25316697Y9764366D01*
X25536488Y9823258D01*
X25536497Y9823261D01*
X25742732Y9919431D01*
X25742734Y9919432D01*
X25929141Y10049954D01*
X26090045Y10210858D01*
X26141515Y10284365D01*
X26220568Y10397266D01*
X26247893Y10455865D01*
X26294065Y10508305D01*
X26361258Y10527457D01*
X26428139Y10507242D01*
X26472657Y10455867D01*
X26499867Y10397515D01*
X26630342Y10211179D01*
X26791179Y10050342D01*
X26977517Y9919865D01*
X27183671Y9823734D01*
X27380000Y9771127D01*
X27380000Y10814498D01*
X27487685Y10765320D01*
X27594237Y10750000D01*
X27665763Y10750000D01*
X27772315Y10765320D01*
X27880000Y10814498D01*
X27880000Y9771127D01*
X28076328Y9823734D01*
X28282482Y9919865D01*
X28468820Y10050342D01*
X28629657Y10211179D01*
X28760134Y10397517D01*
X28856265Y10603673D01*
X28856269Y10603682D01*
X28915139Y10823389D01*
X28915141Y10823400D01*
X28929999Y10993233D01*
X28930000Y10993236D01*
X28930000Y11000000D01*
X28063686Y11000000D01*
X28089493Y11040156D01*
X28130000Y11178111D01*
X28130000Y11321889D01*
X28089493Y11459844D01*
X28063686Y11500000D01*
X28930000Y11500000D01*
X28930000Y11506764D01*
X28929999Y11506766D01*
X28915141Y11676599D01*
X28915139Y11676610D01*
X28856269Y11896317D01*
X28856265Y11896326D01*
X28760134Y12102482D01*
X28629657Y12288820D01*
X28468820Y12449657D01*
X28282482Y12580134D01*
X28076326Y12676265D01*
X28076317Y12676269D01*
X27880000Y12728872D01*
X27880000Y11685501D01*
X27772315Y11734680D01*
X27665763Y11750000D01*
X27594237Y11750000D01*
X27487685Y11734680D01*
X27380000Y11685501D01*
X27380000Y12728871D01*
X27379999Y12728872D01*
X27183682Y12676269D01*
X27183673Y12676265D01*
X26977517Y12580134D01*
X26791179Y12449657D01*
X26630342Y12288820D01*
X26499865Y12102482D01*
X26472657Y12044133D01*
X26426484Y11991694D01*
X26359291Y11972542D01*
X26292410Y11992758D01*
X26247895Y12044129D01*
X26220568Y12102734D01*
X26090047Y12289139D01*
X25929139Y12450047D01*
X25742734Y12580568D01*
X25536496Y12676739D01*
X25350884Y12726473D01*
X25291224Y12762838D01*
X25260695Y12825685D01*
X25268990Y12895060D01*
X25295297Y12933929D01*
X25474549Y13113181D01*
X25535872Y13146666D01*
X25562230Y13149500D01*
X29927770Y13149500D01*
X29994809Y13129815D01*
X30015451Y13113181D01*
X31293282Y11835348D01*
X31326767Y11774025D01*
X31329129Y11736861D01*
X31314532Y11570003D01*
X31314532Y11569998D01*
X31334364Y11343313D01*
X31334366Y11343302D01*
X31393258Y11123511D01*
X31393261Y11123502D01*
X31489431Y10917267D01*
X31489432Y10917265D01*
X31619954Y10730858D01*
X31780858Y10569954D01*
X31967265Y10439432D01*
X31967272Y10439428D01*
X32025866Y10412105D01*
X32078305Y10365932D01*
X32097456Y10298738D01*
X32077239Y10231858D01*
X32025864Y10187342D01*
X31967521Y10160136D01*
X31967513Y10160132D01*
X31894526Y10109025D01*
X32478633Y9524918D01*
X32474839Y9524373D01*
X32341438Y9463451D01*
X32230605Y9367413D01*
X32151318Y9244040D01*
X32128866Y9167580D01*
X31540974Y9755472D01*
X31489863Y9682478D01*
X31393735Y9476331D01*
X31393730Y9476317D01*
X31334860Y9256610D01*
X31334858Y9256599D01*
X31315034Y9030002D01*
X31315034Y9029997D01*
X31334858Y8803400D01*
X31334860Y8803389D01*
X31393730Y8583682D01*
X31393734Y8583673D01*
X31489866Y8377516D01*
X31489868Y8377512D01*
X31540973Y8304526D01*
X31540974Y8304526D01*
X32128867Y8892419D01*
X32151318Y8815960D01*
X32230605Y8692587D01*
X32341438Y8596549D01*
X32474839Y8535627D01*
X32478634Y8535081D01*
X31894526Y7950974D01*
X31894526Y7950973D01*
X31967512Y7899868D01*
X32025867Y7872657D01*
X32078306Y7826484D01*
X32097457Y7759290D01*
X32077241Y7692409D01*
X32025865Y7647893D01*
X31967266Y7620568D01*
X31893653Y7569024D01*
X31780858Y7490045D01*
X31619954Y7329141D01*
X31489432Y7142734D01*
X31489431Y7142732D01*
X31393261Y6936497D01*
X31393258Y6936488D01*
X31334366Y6716697D01*
X31334364Y6716686D01*
X31314532Y6490001D01*
X31314532Y6489998D01*
X31334364Y6263313D01*
X31334366Y6263302D01*
X31393258Y6043511D01*
X31393261Y6043502D01*
X31489431Y5837267D01*
X31489432Y5837265D01*
X31619954Y5650858D01*
X31780858Y5489954D01*
X31967265Y5359432D01*
X31967267Y5359431D01*
X32173502Y5263261D01*
X32173511Y5263258D01*
X32393302Y5204366D01*
X32393313Y5204364D01*
X32619998Y5184532D01*
X32620000Y5184532D01*
X32620002Y5184532D01*
X32846686Y5204364D01*
X32846697Y5204366D01*
X33066488Y5263258D01*
X33066497Y5263261D01*
X33272732Y5359431D01*
X33272734Y5359432D01*
X33459141Y5489954D01*
X33620045Y5650858D01*
X33750567Y5837265D01*
X33750568Y5837266D01*
X33846739Y6043504D01*
X33905635Y6263308D01*
X33925468Y6490000D01*
X33905635Y6716692D01*
X33846739Y6936496D01*
X33750568Y7142734D01*
X33620047Y7329139D01*
X33459139Y7490047D01*
X33272734Y7620568D01*
X33214134Y7647893D01*
X33161695Y7694065D01*
X33142543Y7761258D01*
X33162758Y7828139D01*
X33214134Y7872657D01*
X33272480Y7899864D01*
X33345472Y7950974D01*
X32761366Y8535081D01*
X32765161Y8535627D01*
X32898562Y8596549D01*
X33009395Y8692587D01*
X33088682Y8815960D01*
X33111132Y8892418D01*
X33699025Y8304526D01*
X33750132Y8377513D01*
X33750136Y8377521D01*
X33846264Y8583668D01*
X33846269Y8583682D01*
X33905139Y8803389D01*
X33905141Y8803400D01*
X33924966Y9029997D01*
X33924966Y9030002D01*
X33905141Y9256599D01*
X33905139Y9256610D01*
X33846269Y9476317D01*
X33846264Y9476331D01*
X33750136Y9682478D01*
X33699024Y9755471D01*
X33111133Y9167580D01*
X33088682Y9244040D01*
X33009395Y9367413D01*
X32898562Y9463451D01*
X32765161Y9524373D01*
X32761365Y9524918D01*
X33345471Y10109024D01*
X33272482Y10160133D01*
X33214135Y10187341D01*
X33161696Y10233513D01*
X33142543Y10300707D01*
X33162758Y10367588D01*
X33214132Y10412105D01*
X33272734Y10439432D01*
X33398448Y10527457D01*
X33459141Y10569954D01*
X33620045Y10730858D01*
X33750567Y10917265D01*
X33750568Y10917266D01*
X33846739Y11123504D01*
X33905635Y11343308D01*
X33925468Y11570000D01*
X33905635Y11796692D01*
X33846739Y12016496D01*
X33750568Y12222734D01*
X33620047Y12409139D01*
X33459139Y12570047D01*
X33272734Y12700568D01*
X33214724Y12727618D01*
X33162285Y12773790D01*
X33143133Y12840983D01*
X33163348Y12907865D01*
X33214725Y12952382D01*
X33272728Y12979429D01*
X33272734Y12979432D01*
X33459141Y13109954D01*
X33620045Y13270858D01*
X33729454Y13427112D01*
X33750568Y13457266D01*
X33846739Y13663504D01*
X33905635Y13883308D01*
X33925468Y14110000D01*
X33922948Y14138798D01*
X33916223Y14215671D01*
X33905635Y14336692D01*
X33846739Y14556496D01*
X33750568Y14762734D01*
X33620047Y14949139D01*
X33459139Y15110047D01*
X33272734Y15240568D01*
X33214724Y15267618D01*
X33162285Y15313790D01*
X33143133Y15380983D01*
X33163348Y15447865D01*
X33214725Y15492382D01*
X33272728Y15519429D01*
X33272734Y15519432D01*
X33459141Y15649954D01*
X33620045Y15810858D01*
X33750567Y15997265D01*
X33750568Y15997266D01*
X33846739Y16203504D01*
X33905635Y16423308D01*
X33925468Y16650000D01*
X33905635Y16876692D01*
X33846739Y17096496D01*
X33750568Y17302734D01*
X33620047Y17489139D01*
X33459139Y17650047D01*
X33272734Y17780568D01*
X33214724Y17807618D01*
X33162285Y17853790D01*
X33143133Y17920983D01*
X33163348Y17987865D01*
X33214725Y18032382D01*
X33272728Y18059429D01*
X33272734Y18059432D01*
X33459141Y18189954D01*
X33620045Y18350858D01*
X33682112Y18439500D01*
X33750568Y18537266D01*
X33846739Y18743504D01*
X33905635Y18963308D01*
X33925468Y19190000D01*
X33905635Y19416692D01*
X33846739Y19636496D01*
X33750568Y19842734D01*
X33620047Y20029139D01*
X33459139Y20190047D01*
X33272734Y20320568D01*
X33214724Y20347618D01*
X33162285Y20393790D01*
X33143133Y20460983D01*
X33163348Y20527865D01*
X33214725Y20572382D01*
X33272728Y20599429D01*
X33272734Y20599432D01*
X33459141Y20729954D01*
X33620045Y20890858D01*
X33750567Y21077265D01*
X33750568Y21077266D01*
X33846739Y21283504D01*
X33905635Y21503308D01*
X33925468Y21730000D01*
X33905635Y21956692D01*
X33846739Y22176496D01*
X33750568Y22382734D01*
X33620047Y22569139D01*
X33459139Y22730047D01*
X33272734Y22860568D01*
X33214724Y22887618D01*
X33162285Y22933790D01*
X33143133Y23000983D01*
X33163348Y23067865D01*
X33214725Y23112382D01*
X33272728Y23139429D01*
X33272734Y23139432D01*
X33459141Y23269954D01*
X33620045Y23430858D01*
X33652839Y23477693D01*
X33750568Y23617266D01*
X33846739Y23823504D01*
X33905635Y24043308D01*
X33925468Y24270000D01*
X33921609Y24314101D01*
X33935375Y24382599D01*
X33983989Y24432783D01*
X34052018Y24448717D01*
X34117861Y24425343D01*
X34132818Y24412589D01*
X34688181Y23857227D01*
X34721666Y23795904D01*
X34724500Y23769546D01*
X34724500Y1424499D01*
X34704815Y1357460D01*
X34652011Y1311705D01*
X34600504Y1300499D01*
X33022128Y1300499D01*
X32973757Y1295299D01*
X32962516Y1294091D01*
X32827671Y1243797D01*
X32827664Y1243793D01*
X32712455Y1157547D01*
X32712452Y1157544D01*
X32626206Y1042335D01*
X32626202Y1042328D01*
X32575908Y907482D01*
X32569501Y847883D01*
X32569500Y847864D01*
X32569500Y-847870D01*
X32569501Y-847876D01*
X32575908Y-907483D01*
X32626202Y-1042328D01*
X32626206Y-1042335D01*
X32712452Y-1157544D01*
X32712455Y-1157547D01*
X32827664Y-1243793D01*
X32827671Y-1243797D01*
X32962513Y-1294090D01*
X32962514Y-1294090D01*
X32962517Y-1294091D01*
X32998353Y-1297944D01*
X33062901Y-1324679D01*
X33102751Y-1382070D01*
X33105246Y-1451896D01*
X33069595Y-1511985D01*
X33056223Y-1522805D01*
X33031182Y-1540339D01*
X32870342Y-1701179D01*
X32739865Y-1887517D01*
X32713172Y-1944762D01*
X32666999Y-1997201D01*
X32599805Y-2016353D01*
X32532924Y-1996137D01*
X32529666Y-1993932D01*
X32352482Y-1869866D01*
X32146326Y-1773734D01*
X32146317Y-1773730D01*
X31926610Y-1714860D01*
X31926599Y-1714858D01*
X31756766Y-1700000D01*
X31750000Y-1700000D01*
X31750000Y-2564498D01*
X31642315Y-2515320D01*
X31535763Y-2500000D01*
X31464237Y-2500000D01*
X31357685Y-2515320D01*
X31250000Y-2564498D01*
X31250000Y-1700000D01*
X31243233Y-1700000D01*
X31073400Y-1714858D01*
X31073389Y-1714860D01*
X30853682Y-1773730D01*
X30853673Y-1773734D01*
X30647517Y-1869865D01*
X30461179Y-2000342D01*
X30300342Y-2161179D01*
X30169865Y-2347517D01*
X30073734Y-2553673D01*
X30073730Y-2553682D01*
X30021127Y-2749999D01*
X30021128Y-2750000D01*
X31066314Y-2750000D01*
X31040507Y-2790156D01*
X31000000Y-2928111D01*
X31000000Y-3071889D01*
X31040507Y-3209844D01*
X31066314Y-3250000D01*
X30021128Y-3250000D01*
X30073730Y-3446317D01*
X30073734Y-3446326D01*
X30169865Y-3652482D01*
X30300342Y-3838820D01*
X30461179Y-3999657D01*
X30647518Y-4130134D01*
X30647520Y-4130135D01*
X30705865Y-4157342D01*
X30758305Y-4203514D01*
X30777457Y-4270707D01*
X30757242Y-4337589D01*
X30705867Y-4382105D01*
X30647268Y-4409431D01*
X30647264Y-4409433D01*
X30460858Y-4539954D01*
X30299954Y-4700858D01*
X30169432Y-4887265D01*
X30169431Y-4887267D01*
X30073261Y-5093502D01*
X30073258Y-5093511D01*
X30014366Y-5313302D01*
X30014364Y-5313312D01*
X29999339Y-5485042D01*
X29973886Y-5550111D01*
X29963492Y-5561915D01*
X17602818Y-17922589D01*
X17541495Y-17956074D01*
X17471803Y-17951090D01*
X17415870Y-17909218D01*
X17391453Y-17843754D01*
X17391608Y-17824109D01*
X17395468Y-17780000D01*
X17375635Y-17553308D01*
X17316739Y-17333504D01*
X17220568Y-17127266D01*
X17090047Y-16940861D01*
X17090045Y-16940858D01*
X16929141Y-16779954D01*
X16742734Y-16649432D01*
X16742728Y-16649429D01*
X16684725Y-16622382D01*
X16632285Y-16576210D01*
X16613133Y-16509017D01*
X16633348Y-16442135D01*
X16684725Y-16397618D01*
X16742734Y-16370568D01*
X16929139Y-16240047D01*
X17090047Y-16079139D01*
X17220568Y-15892734D01*
X17316739Y-15686496D01*
X17375635Y-15466692D01*
X17395468Y-15240000D01*
X17375635Y-15013308D01*
X17316739Y-14793504D01*
X17220568Y-14587266D01*
X17090047Y-14400861D01*
X17090045Y-14400858D01*
X16929141Y-14239954D01*
X16742734Y-14109432D01*
X16742728Y-14109429D01*
X16684725Y-14082382D01*
X16632285Y-14036210D01*
X16613133Y-13969017D01*
X16633348Y-13902135D01*
X16684725Y-13857618D01*
X16742734Y-13830568D01*
X16929139Y-13700047D01*
X17090047Y-13539139D01*
X17220568Y-13352734D01*
X17316739Y-13146496D01*
X17375635Y-12926692D01*
X17395468Y-12700000D01*
X17375635Y-12473308D01*
X17316739Y-12253504D01*
X17220568Y-12047266D01*
X17090047Y-11860861D01*
X17090045Y-11860858D01*
X16929141Y-11699954D01*
X16742734Y-11569432D01*
X16742728Y-11569429D01*
X16684725Y-11542382D01*
X16632285Y-11496210D01*
X16613133Y-11429017D01*
X16633348Y-11362135D01*
X16684725Y-11317618D01*
X16690037Y-11315141D01*
X16742734Y-11290568D01*
X16929139Y-11160047D01*
X17090047Y-10999139D01*
X17145563Y-10919851D01*
X17200136Y-10876230D01*
X17269634Y-10869035D01*
X17331989Y-10900556D01*
X17334817Y-10903295D01*
X17461183Y-11029660D01*
X17647517Y-11160134D01*
X17853673Y-11256265D01*
X17853682Y-11256269D01*
X18073389Y-11315139D01*
X18073400Y-11315141D01*
X18243233Y-11329999D01*
X18243236Y-11330000D01*
X18250000Y-11330000D01*
X18250000Y-10465501D01*
X18357685Y-10514680D01*
X18464237Y-10530000D01*
X18535763Y-10530000D01*
X18642315Y-10514680D01*
X18750000Y-10465501D01*
X18750000Y-11330000D01*
X18756764Y-11330000D01*
X18756766Y-11329999D01*
X18926599Y-11315141D01*
X18926610Y-11315139D01*
X19146317Y-11256269D01*
X19146326Y-11256265D01*
X19352482Y-11160134D01*
X19538820Y-11029657D01*
X19699657Y-10868820D01*
X19830134Y-10682482D01*
X19926265Y-10476326D01*
X19926269Y-10476317D01*
X19978872Y-10280000D01*
X18933686Y-10280000D01*
X18959493Y-10239844D01*
X19000000Y-10101889D01*
X19000000Y-9958111D01*
X18959493Y-9820156D01*
X18933686Y-9780000D01*
X19978872Y-9780000D01*
X19978872Y-9779999D01*
X19926269Y-9583682D01*
X19926265Y-9583673D01*
X19830134Y-9377517D01*
X19699657Y-9191179D01*
X19538820Y-9030342D01*
X19352482Y-8899865D01*
X19294133Y-8872657D01*
X19241694Y-8826484D01*
X19222542Y-8759291D01*
X19242758Y-8692410D01*
X19294129Y-8647895D01*
X19352734Y-8620568D01*
X19539139Y-8490047D01*
X19700047Y-8329139D01*
X19830568Y-8142734D01*
X19926739Y-7936496D01*
X19985635Y-7716692D01*
X20002634Y-7522384D01*
X20005468Y-7490001D01*
X20005468Y-7489998D01*
X19999801Y-7425230D01*
X19985635Y-7263308D01*
X19926739Y-7043504D01*
X19830568Y-6837266D01*
X19700047Y-6650861D01*
X19700045Y-6650858D01*
X19539141Y-6489954D01*
X19352734Y-6359432D01*
X19352728Y-6359429D01*
X19294725Y-6332382D01*
X19242285Y-6286210D01*
X19223133Y-6219017D01*
X19243348Y-6152135D01*
X19294725Y-6107618D01*
X19352734Y-6080568D01*
X19539139Y-5950047D01*
X19700047Y-5789139D01*
X19830568Y-5602734D01*
X19926739Y-5396496D01*
X19985635Y-5176692D01*
X20005468Y-4950000D01*
X19985635Y-4723308D01*
X19926739Y-4503504D01*
X19830568Y-4297266D01*
X19700047Y-4110861D01*
X19700045Y-4110858D01*
X19539141Y-3949954D01*
X19352734Y-3819432D01*
X19352732Y-3819431D01*
X19146497Y-3723261D01*
X19146488Y-3723258D01*
X18926697Y-3664366D01*
X18926687Y-3664364D01*
X18756785Y-3649500D01*
X18756784Y-3649500D01*
X18243216Y-3649500D01*
X18243215Y-3649500D01*
X18073312Y-3664364D01*
X18073302Y-3664366D01*
X17853511Y-3723258D01*
X17853502Y-3723261D01*
X17647267Y-3819431D01*
X17647265Y-3819432D01*
X17460858Y-3949954D01*
X17299956Y-4110856D01*
X17244729Y-4189729D01*
X17190152Y-4233354D01*
X17120653Y-4240546D01*
X17058299Y-4209024D01*
X17055473Y-4206286D01*
X16929141Y-4079954D01*
X16742734Y-3949432D01*
X16742728Y-3949429D01*
X16684725Y-3922382D01*
X16632285Y-3876210D01*
X16613133Y-3809017D01*
X16633348Y-3742135D01*
X16684725Y-3697618D01*
X16685317Y-3697342D01*
X16742734Y-3670568D01*
X16929139Y-3540047D01*
X17090047Y-3379139D01*
X17220568Y-3192734D01*
X17316739Y-2986496D01*
X17375635Y-2766692D01*
X17395468Y-2540000D01*
X17391968Y-2500000D01*
X17379984Y-2363018D01*
X17375635Y-2313308D01*
X17316739Y-2093504D01*
X17220568Y-1887266D01*
X17090047Y-1700861D01*
X17090045Y-1700858D01*
X16929141Y-1539954D01*
X16742734Y-1409432D01*
X16742728Y-1409429D01*
X16684725Y-1382382D01*
X16632285Y-1336210D01*
X16613133Y-1269017D01*
X16633348Y-1202135D01*
X16684725Y-1157618D01*
X16742734Y-1130568D01*
X16929139Y-1000047D01*
X17090047Y-839139D01*
X17220568Y-652734D01*
X17316739Y-446496D01*
X17375635Y-226692D01*
X17395468Y0D01*
X17375635Y226692D01*
X17316739Y446496D01*
X17220568Y652734D01*
X17090047Y839139D01*
X16929139Y1000047D01*
X16742734Y1130568D01*
X16536496Y1226739D01*
X16316692Y1285635D01*
X16146673Y1300509D01*
X16090002Y1305468D01*
X16089998Y1305468D01*
X16025230Y1299801D01*
X15863308Y1285635D01*
X15643504Y1226739D01*
X15437266Y1130568D01*
X15437265Y1130567D01*
X15250858Y1000045D01*
X15089954Y839141D01*
X14959432Y652734D01*
X14959431Y652732D01*
X14863261Y446497D01*
X14863258Y446488D01*
X14804366Y226697D01*
X14804365Y226692D01*
X14784532Y0D01*
X14804364Y-226686D01*
X14804365Y-226691D01*
X14804366Y-226697D01*
X14822680Y-295048D01*
X14821017Y-364897D01*
X14790586Y-414821D01*
X13216208Y-1989199D01*
X13203951Y-1999020D01*
X13204134Y-1999241D01*
X13198122Y-2004214D01*
X13152098Y-2053223D01*
X13149391Y-2056016D01*
X13129889Y-2075517D01*
X13129875Y-2075534D01*
X13127407Y-2078715D01*
X13119843Y-2087570D01*
X13089937Y-2119418D01*
X13089936Y-2119420D01*
X13080284Y-2136976D01*
X13069610Y-2153226D01*
X13057329Y-2169061D01*
X13057324Y-2169068D01*
X13039975Y-2209158D01*
X13034838Y-2219644D01*
X13013803Y-2257906D01*
X13008822Y-2277307D01*
X13002521Y-2295710D01*
X12994562Y-2314102D01*
X12994561Y-2314105D01*
X12987728Y-2357243D01*
X12985360Y-2368674D01*
X12974501Y-2410971D01*
X12974500Y-2410982D01*
X12974500Y-2431016D01*
X12972973Y-2450415D01*
X12969840Y-2470194D01*
X12969840Y-2470195D01*
X12973950Y-2513674D01*
X12974500Y-2525343D01*
X12974500Y-35217255D01*
X12972775Y-35232872D01*
X12973061Y-35232899D01*
X12972326Y-35240665D01*
X12974439Y-35307872D01*
X12974500Y-35311767D01*
X12974500Y-35339357D01*
X12975003Y-35343335D01*
X12975918Y-35354967D01*
X12977290Y-35398624D01*
X12977291Y-35398627D01*
X12982880Y-35417867D01*
X12986824Y-35436911D01*
X12989104Y-35454952D01*
X12989336Y-35456792D01*
X13005414Y-35497403D01*
X13009197Y-35508452D01*
X13021381Y-35550388D01*
X13031580Y-35567634D01*
X13040138Y-35585103D01*
X13047514Y-35603732D01*
X13073181Y-35639060D01*
X13079593Y-35648821D01*
X13101828Y-35686417D01*
X13101833Y-35686424D01*
X13115990Y-35700580D01*
X13128628Y-35715376D01*
X13140405Y-35731586D01*
X13140406Y-35731587D01*
X13174057Y-35759425D01*
X13182698Y-35767288D01*
X15313228Y-37897819D01*
X15346713Y-37959142D01*
X15341729Y-38028834D01*
X15299857Y-38084767D01*
X15234393Y-38109184D01*
X15225548Y-38109500D01*
X15102130Y-38109500D01*
X15102123Y-38109501D01*
X15042516Y-38115908D01*
X14907671Y-38166202D01*
X14907664Y-38166206D01*
X14792455Y-38252452D01*
X14792452Y-38252455D01*
X14706206Y-38367664D01*
X14706202Y-38367671D01*
X14655908Y-38502517D01*
X14649501Y-38562116D01*
X14649500Y-38562135D01*
X14649500Y-40357870D01*
X14649501Y-40357876D01*
X14655908Y-40417483D01*
X14706202Y-40552328D01*
X14706206Y-40552335D01*
X14792452Y-40667544D01*
X14792455Y-40667547D01*
X14907664Y-40753793D01*
X14907671Y-40753797D01*
X15039081Y-40802810D01*
X15095015Y-40844681D01*
X15119432Y-40910145D01*
X15104580Y-40978418D01*
X15083430Y-41006673D01*
X14961503Y-41128600D01*
X14825965Y-41322169D01*
X14825964Y-41322171D01*
X14726098Y-41536335D01*
X14726094Y-41536344D01*
X14664938Y-41764586D01*
X14664936Y-41764596D01*
X14644341Y-41999999D01*
X14644341Y-42000000D01*
X14664936Y-42235403D01*
X14664938Y-42235413D01*
X14726094Y-42463655D01*
X14726096Y-42463659D01*
X14726097Y-42463663D01*
X14806004Y-42635023D01*
X14825965Y-42677830D01*
X14825967Y-42677834D01*
X14934281Y-42832521D01*
X14961505Y-42871401D01*
X15128599Y-43038495D01*
X15205135Y-43092086D01*
X15322165Y-43174032D01*
X15322167Y-43174033D01*
X15322170Y-43174035D01*
X15536337Y-43273903D01*
X15764592Y-43335063D01*
X15935319Y-43350000D01*
X15999999Y-43355659D01*
X16000000Y-43355659D01*
X16000001Y-43355659D01*
X16064681Y-43350000D01*
X16235408Y-43335063D01*
X16463663Y-43273903D01*
X16677830Y-43174035D01*
X16871401Y-43038495D01*
X17038495Y-42871401D01*
X17168425Y-42685842D01*
X17223002Y-42642217D01*
X17292500Y-42635023D01*
X17354855Y-42666546D01*
X17371575Y-42685842D01*
X17501500Y-42871395D01*
X17501505Y-42871401D01*
X17668599Y-43038495D01*
X17745135Y-43092086D01*
X17862165Y-43174032D01*
X17862167Y-43174033D01*
X17862170Y-43174035D01*
X18076337Y-43273903D01*
X18304592Y-43335063D01*
X18475319Y-43350000D01*
X18539999Y-43355659D01*
X18540000Y-43355659D01*
X18540001Y-43355659D01*
X18604681Y-43350000D01*
X18775408Y-43335063D01*
X19003663Y-43273903D01*
X19217830Y-43174035D01*
X19411401Y-43038495D01*
X19578495Y-42871401D01*
X19708425Y-42685842D01*
X19763002Y-42642217D01*
X19832500Y-42635023D01*
X19894855Y-42666546D01*
X19911575Y-42685842D01*
X20041500Y-42871395D01*
X20041505Y-42871401D01*
X20208599Y-43038495D01*
X20285135Y-43092086D01*
X20402165Y-43174032D01*
X20402167Y-43174033D01*
X20402170Y-43174035D01*
X20616337Y-43273903D01*
X20844592Y-43335063D01*
X21015319Y-43350000D01*
X21079999Y-43355659D01*
X21080000Y-43355659D01*
X21080001Y-43355659D01*
X21144681Y-43350000D01*
X21315408Y-43335063D01*
X21543663Y-43273903D01*
X21757830Y-43174035D01*
X21951401Y-43038495D01*
X22118495Y-42871401D01*
X22248425Y-42685842D01*
X22303002Y-42642217D01*
X22372500Y-42635023D01*
X22434855Y-42666546D01*
X22451575Y-42685842D01*
X22581500Y-42871395D01*
X22581505Y-42871401D01*
X22748599Y-43038495D01*
X22825135Y-43092086D01*
X22942165Y-43174032D01*
X22942167Y-43174033D01*
X22942170Y-43174035D01*
X23156337Y-43273903D01*
X23384592Y-43335063D01*
X23555319Y-43350000D01*
X23619999Y-43355659D01*
X23620000Y-43355659D01*
X23620001Y-43355659D01*
X23684681Y-43350000D01*
X23855408Y-43335063D01*
X24083663Y-43273903D01*
X24297830Y-43174035D01*
X24491401Y-43038495D01*
X24658495Y-42871401D01*
X24788425Y-42685842D01*
X24843002Y-42642217D01*
X24912500Y-42635023D01*
X24974855Y-42666546D01*
X24991575Y-42685842D01*
X25121500Y-42871395D01*
X25121505Y-42871401D01*
X25288599Y-43038495D01*
X25365135Y-43092086D01*
X25482165Y-43174032D01*
X25482167Y-43174033D01*
X25482170Y-43174035D01*
X25696337Y-43273903D01*
X25924592Y-43335063D01*
X26095319Y-43350000D01*
X26159999Y-43355659D01*
X26160000Y-43355659D01*
X26160001Y-43355659D01*
X26224681Y-43350000D01*
X26395408Y-43335063D01*
X26623663Y-43273903D01*
X26837830Y-43174035D01*
X27031401Y-43038495D01*
X27198495Y-42871401D01*
X27328425Y-42685842D01*
X27383002Y-42642217D01*
X27452500Y-42635023D01*
X27514855Y-42666546D01*
X27531575Y-42685842D01*
X27661500Y-42871395D01*
X27661505Y-42871401D01*
X27828599Y-43038495D01*
X27905135Y-43092086D01*
X28022165Y-43174032D01*
X28022167Y-43174033D01*
X28022170Y-43174035D01*
X28236337Y-43273903D01*
X28464592Y-43335063D01*
X28635319Y-43350000D01*
X28699999Y-43355659D01*
X28700000Y-43355659D01*
X28700001Y-43355659D01*
X28764681Y-43350000D01*
X28935408Y-43335063D01*
X29163663Y-43273903D01*
X29377830Y-43174035D01*
X29571401Y-43038495D01*
X29738495Y-42871401D01*
X29868425Y-42685842D01*
X29923002Y-42642217D01*
X29992500Y-42635023D01*
X30054855Y-42666546D01*
X30071575Y-42685842D01*
X30201500Y-42871395D01*
X30201505Y-42871401D01*
X30368599Y-43038495D01*
X30445135Y-43092086D01*
X30562165Y-43174032D01*
X30562167Y-43174033D01*
X30562170Y-43174035D01*
X30776337Y-43273903D01*
X31004592Y-43335063D01*
X31175319Y-43350000D01*
X31239999Y-43355659D01*
X31240000Y-43355659D01*
X31240001Y-43355659D01*
X31304681Y-43350000D01*
X31475408Y-43335063D01*
X31703663Y-43273903D01*
X31917830Y-43174035D01*
X32111401Y-43038495D01*
X32233717Y-42916178D01*
X32295036Y-42882696D01*
X32364728Y-42887680D01*
X32420662Y-42929551D01*
X32437577Y-42960528D01*
X32486646Y-43092088D01*
X32486649Y-43092093D01*
X32572809Y-43207187D01*
X32572812Y-43207190D01*
X32687906Y-43293350D01*
X32687913Y-43293354D01*
X32822620Y-43343596D01*
X32822627Y-43343598D01*
X32882155Y-43349999D01*
X32882172Y-43350000D01*
X33530000Y-43350000D01*
X33530000Y-42435501D01*
X33637685Y-42484680D01*
X33744237Y-42500000D01*
X33815763Y-42500000D01*
X33922315Y-42484680D01*
X34030000Y-42435501D01*
X34030000Y-43350000D01*
X34677828Y-43350000D01*
X34677844Y-43349999D01*
X34737372Y-43343598D01*
X34737379Y-43343596D01*
X34872086Y-43293354D01*
X34872093Y-43293350D01*
X34987187Y-43207190D01*
X34987190Y-43207187D01*
X35073350Y-43092093D01*
X35073354Y-43092086D01*
X35123596Y-42957379D01*
X35123598Y-42957372D01*
X35129999Y-42897844D01*
X35130000Y-42897827D01*
X35130000Y-42250000D01*
X34213686Y-42250000D01*
X34239493Y-42209844D01*
X34280000Y-42071889D01*
X34280000Y-41928111D01*
X34239493Y-41790156D01*
X34213686Y-41750000D01*
X35130000Y-41750000D01*
X35130000Y-41102172D01*
X35129999Y-41102155D01*
X35123598Y-41042627D01*
X35123596Y-41042620D01*
X35073354Y-40907913D01*
X35073350Y-40907906D01*
X34987190Y-40792812D01*
X34987187Y-40792809D01*
X34872093Y-40706649D01*
X34872088Y-40706646D01*
X34740528Y-40657577D01*
X34684595Y-40615705D01*
X34660178Y-40550241D01*
X34675030Y-40481968D01*
X34696175Y-40453720D01*
X34818495Y-40331401D01*
X34954035Y-40137830D01*
X35053903Y-39923663D01*
X35115063Y-39695408D01*
X35135659Y-39460000D01*
X35115063Y-39224592D01*
X35053903Y-38996337D01*
X34954035Y-38782171D01*
X34818495Y-38588599D01*
X34818494Y-38588597D01*
X34651402Y-38421506D01*
X34651395Y-38421501D01*
X34457834Y-38285967D01*
X34457830Y-38285965D01*
X34243663Y-38186097D01*
X34243659Y-38186096D01*
X34243655Y-38186094D01*
X34015413Y-38124938D01*
X34015403Y-38124936D01*
X33780001Y-38104341D01*
X33779999Y-38104341D01*
X33544596Y-38124936D01*
X33544586Y-38124938D01*
X33316344Y-38186094D01*
X33316330Y-38186099D01*
X33148197Y-38264501D01*
X33079120Y-38274993D01*
X33015336Y-38246473D01*
X32999981Y-38230389D01*
X32984005Y-38214413D01*
X32971370Y-38199620D01*
X32959593Y-38183412D01*
X32925945Y-38155576D01*
X32917304Y-38147713D01*
X31880235Y-37110644D01*
X31846750Y-37049321D01*
X31851734Y-36979629D01*
X31893606Y-36923696D01*
X31935821Y-36903188D01*
X32146496Y-36846739D01*
X32352734Y-36750568D01*
X32539139Y-36620047D01*
X32700047Y-36459139D01*
X32830568Y-36272734D01*
X32926739Y-36066496D01*
X32985635Y-35846692D01*
X33003386Y-35643796D01*
X33005468Y-35620001D01*
X33005468Y-35619998D01*
X32995709Y-35508452D01*
X32985635Y-35393308D01*
X32926739Y-35173504D01*
X32830568Y-34967266D01*
X32700047Y-34780861D01*
X32700045Y-34780858D01*
X32539141Y-34619954D01*
X32352734Y-34489432D01*
X32352728Y-34489429D01*
X32294725Y-34462382D01*
X32242285Y-34416210D01*
X32223133Y-34349017D01*
X32243348Y-34282135D01*
X32294725Y-34237618D01*
X32352734Y-34210568D01*
X32539139Y-34080047D01*
X32700047Y-33919139D01*
X32830568Y-33732734D01*
X32926739Y-33526496D01*
X32985635Y-33306692D01*
X33005468Y-33080000D01*
X32985635Y-32853308D01*
X32926739Y-32633504D01*
X32830568Y-32427266D01*
X32700047Y-32240861D01*
X32700045Y-32240858D01*
X32539141Y-32079954D01*
X32352734Y-31949432D01*
X32352728Y-31949429D01*
X32294725Y-31922382D01*
X32242285Y-31876210D01*
X32223133Y-31809017D01*
X32243348Y-31742135D01*
X32294725Y-31697618D01*
X32352734Y-31670568D01*
X32539139Y-31540047D01*
X32700047Y-31379139D01*
X32830568Y-31192734D01*
X32926739Y-30986496D01*
X32985635Y-30766692D01*
X33005468Y-30540000D01*
X32985635Y-30313308D01*
X32926739Y-30093504D01*
X32830568Y-29887266D01*
X32700047Y-29700861D01*
X32700045Y-29700858D01*
X32539141Y-29539954D01*
X32352734Y-29409432D01*
X32352732Y-29409431D01*
X32341275Y-29404088D01*
X32294132Y-29382105D01*
X32241694Y-29335934D01*
X32222542Y-29268740D01*
X32242758Y-29201859D01*
X32294134Y-29157341D01*
X32352484Y-29130132D01*
X32538816Y-28999660D01*
X32699664Y-28838813D01*
X32709608Y-28824612D01*
X32764184Y-28780986D01*
X32833682Y-28773791D01*
X32896037Y-28805312D01*
X32898865Y-28808052D01*
X33030858Y-28940045D01*
X33030861Y-28940047D01*
X33217266Y-29070568D01*
X33423504Y-29166739D01*
X33643308Y-29225635D01*
X33801786Y-29239500D01*
X33869998Y-29245468D01*
X33870000Y-29245468D01*
X33870002Y-29245468D01*
X33938214Y-29239500D01*
X34096692Y-29225635D01*
X34316496Y-29166739D01*
X34522734Y-29070568D01*
X34709139Y-28940047D01*
X34870047Y-28779139D01*
X35000568Y-28592734D01*
X35096739Y-28386496D01*
X35155635Y-28166692D01*
X35175468Y-27940000D01*
X35155635Y-27713308D01*
X35096739Y-27493504D01*
X35000568Y-27287266D01*
X34870047Y-27100861D01*
X34870045Y-27100858D01*
X34709141Y-26939954D01*
X34522734Y-26809432D01*
X34522728Y-26809429D01*
X34464725Y-26782382D01*
X34412285Y-26736210D01*
X34393133Y-26669017D01*
X34413348Y-26602135D01*
X34464725Y-26557618D01*
X34522734Y-26530568D01*
X34709139Y-26400047D01*
X34870047Y-26239139D01*
X35000568Y-26052734D01*
X35096739Y-25846496D01*
X35155635Y-25626692D01*
X35175468Y-25400000D01*
X35155635Y-25173308D01*
X35096739Y-24953504D01*
X35000568Y-24747266D01*
X34870047Y-24560861D01*
X34870045Y-24560858D01*
X34709141Y-24399954D01*
X34522734Y-24269432D01*
X34522728Y-24269429D01*
X34464725Y-24242382D01*
X34412285Y-24196210D01*
X34393133Y-24129017D01*
X34413348Y-24062135D01*
X34464725Y-24017618D01*
X34522734Y-23990568D01*
X34709139Y-23860047D01*
X34870047Y-23699139D01*
X35000568Y-23512734D01*
X35096739Y-23306496D01*
X35155635Y-23086692D01*
X35175468Y-22860000D01*
X35155635Y-22633308D01*
X35137318Y-22564948D01*
X35138981Y-22495103D01*
X35169410Y-22445179D01*
X36633788Y-20980801D01*
X36646042Y-20970986D01*
X36645859Y-20970764D01*
X36651868Y-20965791D01*
X36651877Y-20965786D01*
X36697949Y-20916722D01*
X36700566Y-20914023D01*
X36720120Y-20894471D01*
X36722576Y-20891303D01*
X36730156Y-20882427D01*
X36760062Y-20850582D01*
X36769713Y-20833024D01*
X36780396Y-20816761D01*
X36792673Y-20800936D01*
X36810021Y-20760844D01*
X36815151Y-20750371D01*
X36836197Y-20712092D01*
X36841180Y-20692680D01*
X36847481Y-20674280D01*
X36855437Y-20655896D01*
X36862270Y-20612748D01*
X36864633Y-20601338D01*
X36875500Y-20559019D01*
X36875500Y-20538983D01*
X36877027Y-20519582D01*
X36880160Y-20499804D01*
X36876050Y-20456324D01*
X36875500Y-20444655D01*
X36875500Y50560792D01*
X36881568Y50599108D01*
X36885673Y50611742D01*
X36885674Y50611744D01*
X36905460Y50800000D01*
X36885674Y50988256D01*
X36827179Y51168284D01*
X36732533Y51332216D01*
X36605871Y51472888D01*
X36452730Y51584151D01*
X36279803Y51661144D01*
X36094646Y51700500D01*
X35905354Y51700500D01*
X35720197Y51661144D01*
X35720192Y51661142D01*
X35547270Y51584151D01*
X35547265Y51584148D01*
X35394129Y51472888D01*
X35267467Y51332216D01*
X35267466Y51332214D01*
X35172821Y51168284D01*
X35172818Y51168277D01*
X35135657Y51053907D01*
X35096219Y50996231D01*
X35031861Y50969033D01*
X34963014Y50980948D01*
X34930048Y51004541D01*
X32650801Y53283788D01*
X32640986Y53296042D01*
X32640764Y53295859D01*
X32635791Y53301868D01*
X32635786Y53301877D01*
X32586722Y53347949D01*
X32584023Y53350566D01*
X32564471Y53370120D01*
X32561303Y53372576D01*
X32552427Y53380156D01*
X32520582Y53410062D01*
X32503020Y53419715D01*
X32486770Y53430389D01*
X32470936Y53442673D01*
X32430850Y53460019D01*
X32420369Y53465153D01*
X32382092Y53486197D01*
X32362691Y53491177D01*
X32344288Y53497478D01*
X32325896Y53505438D01*
X32282741Y53512272D01*
X32271331Y53514635D01*
X32229019Y53525500D01*
X32229016Y53525500D01*
X32208984Y53525500D01*
X32189586Y53527026D01*
X32169804Y53530160D01*
X32127583Y53526168D01*
X32126325Y53526050D01*
X32114656Y53525500D01*
X30174500Y53525500D01*
X30107461Y53545185D01*
X30061706Y53597989D01*
X30050500Y53649500D01*
X30050500Y53756785D01*
X30048022Y53785102D01*
X30035635Y53926692D01*
X29976739Y54146496D01*
X29880568Y54352734D01*
X29750047Y54539139D01*
X29589139Y54700047D01*
X29569466Y54713821D01*
X29555038Y54723925D01*
X29511413Y54778502D01*
X29504219Y54848000D01*
X29535742Y54910355D01*
X29595971Y54945769D01*
X29626161Y54949500D01*
X37325500Y54949500D01*
X37392539Y54929815D01*
G37*
G04 #@! TD.AperFunction*
G04 #@! TA.AperFunction,Conductor*
G36*
X26513314Y-28585185D02*
G01*
X26533956Y-28601819D01*
X30174095Y-32241959D01*
X30207580Y-32303282D01*
X30202596Y-32372974D01*
X30187990Y-32400761D01*
X30169435Y-32427261D01*
X30169431Y-32427267D01*
X30073261Y-32633502D01*
X30073258Y-32633511D01*
X30014366Y-32853302D01*
X30014364Y-32853313D01*
X29994532Y-33079998D01*
X29994532Y-33080001D01*
X30014364Y-33306686D01*
X30014366Y-33306697D01*
X30073258Y-33526488D01*
X30073261Y-33526497D01*
X30169431Y-33732732D01*
X30169432Y-33732734D01*
X30299954Y-33919141D01*
X30460858Y-34080045D01*
X30460861Y-34080047D01*
X30647266Y-34210568D01*
X30705275Y-34237618D01*
X30757714Y-34283791D01*
X30776866Y-34350984D01*
X30756650Y-34417865D01*
X30705275Y-34462382D01*
X30647267Y-34489431D01*
X30647265Y-34489432D01*
X30460858Y-34619954D01*
X30299954Y-34780858D01*
X30169432Y-34967265D01*
X30169431Y-34967267D01*
X30073261Y-35173502D01*
X30073258Y-35173511D01*
X30014366Y-35393302D01*
X30014364Y-35393313D01*
X29999667Y-35561307D01*
X29974215Y-35626376D01*
X29917624Y-35667355D01*
X29876139Y-35674500D01*
X20028497Y-35674500D01*
X19961458Y-35654815D01*
X19915703Y-35602011D01*
X19905759Y-35532853D01*
X19916115Y-35498094D01*
X19926267Y-35476321D01*
X19926269Y-35476317D01*
X19978872Y-35280000D01*
X18933686Y-35280000D01*
X18959493Y-35239844D01*
X19000000Y-35101889D01*
X19000000Y-34958111D01*
X18959493Y-34820156D01*
X18933686Y-34780000D01*
X19978872Y-34780000D01*
X19978872Y-34779999D01*
X19926269Y-34583682D01*
X19926265Y-34583673D01*
X19830134Y-34377517D01*
X19699657Y-34191179D01*
X19538820Y-34030342D01*
X19352482Y-33899865D01*
X19294133Y-33872657D01*
X19241694Y-33826484D01*
X19222542Y-33759291D01*
X19242758Y-33692410D01*
X19294129Y-33647895D01*
X19352734Y-33620568D01*
X19539139Y-33490047D01*
X19700047Y-33329139D01*
X19830568Y-33142734D01*
X19926739Y-32936496D01*
X19985635Y-32716692D01*
X20005468Y-32490000D01*
X19985635Y-32263308D01*
X19926739Y-32043504D01*
X19830568Y-31837266D01*
X19700047Y-31650861D01*
X19700045Y-31650858D01*
X19539141Y-31489954D01*
X19352734Y-31359432D01*
X19352728Y-31359429D01*
X19294725Y-31332382D01*
X19242285Y-31286210D01*
X19223133Y-31219017D01*
X19243348Y-31152135D01*
X19294725Y-31107618D01*
X19352734Y-31080568D01*
X19539139Y-30950047D01*
X19700047Y-30789139D01*
X19830568Y-30602734D01*
X19926739Y-30396496D01*
X19985635Y-30176692D01*
X20005468Y-29950000D01*
X19985635Y-29723308D01*
X19926739Y-29503504D01*
X19830568Y-29297266D01*
X19700047Y-29110861D01*
X19700045Y-29110858D01*
X19539141Y-28949954D01*
X19352734Y-28819432D01*
X19352732Y-28819431D01*
X19315098Y-28801882D01*
X19262659Y-28755709D01*
X19243507Y-28688515D01*
X19263723Y-28621634D01*
X19316889Y-28576300D01*
X19367503Y-28565500D01*
X26446275Y-28565500D01*
X26513314Y-28585185D01*
G37*
G04 #@! TD.AperFunction*
G04 #@! TA.AperFunction,Conductor*
G36*
X17699536Y-28585185D02*
G01*
X17745291Y-28637989D01*
X17755235Y-28707147D01*
X17726210Y-28770703D01*
X17684902Y-28801882D01*
X17647267Y-28819431D01*
X17647265Y-28819432D01*
X17460858Y-28949954D01*
X17299954Y-29110858D01*
X17169432Y-29297265D01*
X17169431Y-29297267D01*
X17073261Y-29503502D01*
X17073258Y-29503511D01*
X17014366Y-29723302D01*
X17014364Y-29723313D01*
X16994532Y-29949998D01*
X16994532Y-29950001D01*
X17014364Y-30176686D01*
X17014366Y-30176697D01*
X17073258Y-30396488D01*
X17073261Y-30396497D01*
X17169431Y-30602732D01*
X17169432Y-30602734D01*
X17299954Y-30789141D01*
X17460858Y-30950045D01*
X17460861Y-30950047D01*
X17647266Y-31080568D01*
X17705275Y-31107618D01*
X17757714Y-31153791D01*
X17776866Y-31220984D01*
X17756650Y-31287865D01*
X17705275Y-31332382D01*
X17647267Y-31359431D01*
X17647265Y-31359432D01*
X17460858Y-31489954D01*
X17299954Y-31650858D01*
X17169432Y-31837265D01*
X17169431Y-31837267D01*
X17073261Y-32043502D01*
X17073258Y-32043511D01*
X17014366Y-32263302D01*
X17014364Y-32263313D01*
X16994532Y-32489998D01*
X16994532Y-32490001D01*
X17014364Y-32716686D01*
X17014366Y-32716697D01*
X17073258Y-32936488D01*
X17073261Y-32936497D01*
X17169431Y-33142732D01*
X17169432Y-33142734D01*
X17299954Y-33329141D01*
X17460858Y-33490045D01*
X17460861Y-33490047D01*
X17647266Y-33620568D01*
X17705865Y-33647893D01*
X17758305Y-33694065D01*
X17777457Y-33761258D01*
X17757242Y-33828139D01*
X17705867Y-33872657D01*
X17647515Y-33899867D01*
X17461179Y-34030342D01*
X17300342Y-34191179D01*
X17169865Y-34377517D01*
X17073734Y-34583673D01*
X17073730Y-34583682D01*
X17021127Y-34779999D01*
X17021128Y-34780000D01*
X18066314Y-34780000D01*
X18040507Y-34820156D01*
X18000000Y-34958111D01*
X18000000Y-35101889D01*
X18040507Y-35239844D01*
X18066314Y-35280000D01*
X17021128Y-35280000D01*
X17002333Y-35304493D01*
X16945905Y-35345695D01*
X16876159Y-35349849D01*
X16816277Y-35316686D01*
X15626819Y-34127228D01*
X15593334Y-34065905D01*
X15590500Y-34039547D01*
X15590500Y-29314136D01*
X15610185Y-29247097D01*
X15662989Y-29201342D01*
X15732147Y-29191398D01*
X15746582Y-29194358D01*
X15863308Y-29225635D01*
X16021786Y-29239500D01*
X16089998Y-29245468D01*
X16090000Y-29245468D01*
X16090002Y-29245468D01*
X16158214Y-29239500D01*
X16316692Y-29225635D01*
X16536496Y-29166739D01*
X16742734Y-29070568D01*
X16929139Y-28940047D01*
X17090047Y-28779139D01*
X17180820Y-28649500D01*
X17202613Y-28618377D01*
X17257189Y-28574752D01*
X17304188Y-28565500D01*
X17632497Y-28565500D01*
X17699536Y-28585185D01*
G37*
G04 #@! TD.AperFunction*
G04 #@! TA.AperFunction,Conductor*
G36*
X30067146Y-9869957D02*
G01*
X30123079Y-9911829D01*
X30147496Y-9977293D01*
X30136194Y-10038544D01*
X30073262Y-10173502D01*
X30073258Y-10173511D01*
X30014366Y-10393302D01*
X30014364Y-10393313D01*
X29994532Y-10619998D01*
X29994532Y-10620001D01*
X30014364Y-10846686D01*
X30014366Y-10846697D01*
X30073258Y-11066488D01*
X30073261Y-11066497D01*
X30169431Y-11272732D01*
X30169432Y-11272734D01*
X30299954Y-11459141D01*
X30460858Y-11620045D01*
X30460861Y-11620047D01*
X30647266Y-11750568D01*
X30853504Y-11846739D01*
X31073308Y-11905635D01*
X31243214Y-11920499D01*
X31243215Y-11920500D01*
X31243216Y-11920500D01*
X31756785Y-11920500D01*
X31756785Y-11920499D01*
X31926692Y-11905635D01*
X32146496Y-11846739D01*
X32352734Y-11750568D01*
X32539139Y-11620047D01*
X32700047Y-11459139D01*
X32830568Y-11272734D01*
X32857028Y-11215989D01*
X32903200Y-11163550D01*
X32970393Y-11144398D01*
X33037274Y-11164613D01*
X33040518Y-11166808D01*
X33217266Y-11290568D01*
X33275865Y-11317893D01*
X33328305Y-11364065D01*
X33347457Y-11431258D01*
X33327242Y-11498139D01*
X33275867Y-11542657D01*
X33217515Y-11569867D01*
X33031179Y-11700342D01*
X32870342Y-11861179D01*
X32739865Y-12047517D01*
X32643734Y-12253673D01*
X32643730Y-12253682D01*
X32591127Y-12449999D01*
X32591128Y-12450000D01*
X33424428Y-12450000D01*
X33401318Y-12485960D01*
X33360000Y-12626673D01*
X33360000Y-12773327D01*
X33401318Y-12914040D01*
X33424428Y-12950000D01*
X32591128Y-12950000D01*
X32643730Y-13146317D01*
X32643734Y-13146326D01*
X32739865Y-13352482D01*
X32870342Y-13538820D01*
X33031179Y-13699657D01*
X33217517Y-13830134D01*
X33276457Y-13857618D01*
X33328896Y-13903790D01*
X33348048Y-13970984D01*
X33327832Y-14037865D01*
X33276457Y-14082382D01*
X33217517Y-14109865D01*
X33031179Y-14240342D01*
X32870342Y-14401179D01*
X32739865Y-14587517D01*
X32643734Y-14793673D01*
X32643730Y-14793682D01*
X32591127Y-14989999D01*
X32591128Y-14990000D01*
X33424428Y-14990000D01*
X33401318Y-15025960D01*
X33360000Y-15166673D01*
X33360000Y-15313327D01*
X33401318Y-15454040D01*
X33424428Y-15490000D01*
X32591128Y-15490000D01*
X32643730Y-15686317D01*
X32643734Y-15686326D01*
X32739865Y-15892482D01*
X32870342Y-16078820D01*
X33031179Y-16239657D01*
X33217517Y-16370134D01*
X33276457Y-16397618D01*
X33328896Y-16443790D01*
X33348048Y-16510984D01*
X33327832Y-16577865D01*
X33276457Y-16622382D01*
X33217517Y-16649865D01*
X33031179Y-16780342D01*
X32870342Y-16941179D01*
X32739865Y-17127517D01*
X32643734Y-17333673D01*
X32643730Y-17333682D01*
X32591127Y-17529999D01*
X32591128Y-17530000D01*
X33424428Y-17530000D01*
X33401318Y-17565960D01*
X33360000Y-17706673D01*
X33360000Y-17853327D01*
X33401318Y-17994040D01*
X33424428Y-18030000D01*
X32591128Y-18030000D01*
X32643730Y-18226317D01*
X32643734Y-18226326D01*
X32739865Y-18432482D01*
X32870342Y-18618820D01*
X33031179Y-18779657D01*
X33217518Y-18910134D01*
X33217520Y-18910135D01*
X33275865Y-18937342D01*
X33328305Y-18983514D01*
X33347457Y-19050707D01*
X33327242Y-19117589D01*
X33275867Y-19162105D01*
X33217266Y-19189432D01*
X33217264Y-19189433D01*
X33030858Y-19319954D01*
X32869954Y-19480858D01*
X32739432Y-19667265D01*
X32739431Y-19667267D01*
X32643261Y-19873502D01*
X32643258Y-19873511D01*
X32584366Y-20093302D01*
X32584364Y-20093313D01*
X32564532Y-20319998D01*
X32564532Y-20320001D01*
X32584364Y-20546686D01*
X32584366Y-20546697D01*
X32643258Y-20766488D01*
X32643261Y-20766497D01*
X32739431Y-20972732D01*
X32739432Y-20972734D01*
X32869954Y-21159141D01*
X33030858Y-21320045D01*
X33030861Y-21320047D01*
X33217266Y-21450568D01*
X33275275Y-21477618D01*
X33327714Y-21523791D01*
X33346866Y-21590984D01*
X33326650Y-21657865D01*
X33275275Y-21702382D01*
X33217267Y-21729431D01*
X33217265Y-21729432D01*
X33030858Y-21859954D01*
X32869954Y-22020858D01*
X32739432Y-22207265D01*
X32739431Y-22207267D01*
X32643261Y-22413502D01*
X32643258Y-22413511D01*
X32584366Y-22633302D01*
X32584364Y-22633313D01*
X32564532Y-22859998D01*
X32564532Y-22860001D01*
X32584364Y-23086686D01*
X32584366Y-23086697D01*
X32621279Y-23224458D01*
X32619616Y-23294308D01*
X32580453Y-23352170D01*
X32516225Y-23379674D01*
X32447323Y-23368087D01*
X32413823Y-23344232D01*
X28634359Y-19564768D01*
X28600874Y-19503445D01*
X28598719Y-19464132D01*
X28605460Y-19400000D01*
X28585674Y-19211744D01*
X28527179Y-19031716D01*
X28432533Y-18867784D01*
X28305871Y-18727112D01*
X28305870Y-18727111D01*
X28152734Y-18615851D01*
X28152729Y-18615848D01*
X27979807Y-18538857D01*
X27979802Y-18538855D01*
X27834001Y-18507865D01*
X27794646Y-18499500D01*
X27605354Y-18499500D01*
X27572897Y-18506398D01*
X27420197Y-18538855D01*
X27420192Y-18538857D01*
X27247270Y-18615848D01*
X27247265Y-18615851D01*
X27094129Y-18727111D01*
X26967466Y-18867785D01*
X26872821Y-19031715D01*
X26872818Y-19031722D01*
X26821575Y-19189433D01*
X26814326Y-19211744D01*
X26794540Y-19400000D01*
X26814326Y-19588256D01*
X26814327Y-19588259D01*
X26872246Y-19766516D01*
X26874241Y-19836357D01*
X26838161Y-19896190D01*
X26780096Y-19926124D01*
X26720197Y-19938855D01*
X26720192Y-19938857D01*
X26547270Y-20015848D01*
X26547265Y-20015851D01*
X26394129Y-20127111D01*
X26267466Y-20267785D01*
X26172821Y-20431715D01*
X26172818Y-20431722D01*
X26115871Y-20606988D01*
X26114326Y-20611744D01*
X26094540Y-20800000D01*
X26114326Y-20988256D01*
X26114327Y-20988259D01*
X26172818Y-21168277D01*
X26172821Y-21168284D01*
X26267467Y-21332216D01*
X26374031Y-21450567D01*
X26394129Y-21472888D01*
X26547265Y-21584148D01*
X26547270Y-21584151D01*
X26674611Y-21640848D01*
X26711855Y-21666445D01*
X31713682Y-26668272D01*
X31747166Y-26729594D01*
X31750000Y-26755952D01*
X31750000Y-27564498D01*
X31642315Y-27515320D01*
X31535763Y-27500000D01*
X31464237Y-27500000D01*
X31357685Y-27515320D01*
X31250000Y-27564498D01*
X31250000Y-26700000D01*
X31243233Y-26700000D01*
X31073400Y-26714858D01*
X31073389Y-26714860D01*
X30853682Y-26773730D01*
X30853673Y-26773734D01*
X30647517Y-26869865D01*
X30461179Y-27000342D01*
X30300342Y-27161179D01*
X30169865Y-27347517D01*
X30073734Y-27553673D01*
X30073730Y-27553682D01*
X30014860Y-27773389D01*
X30014858Y-27773399D01*
X30006106Y-27873434D01*
X29980653Y-27938503D01*
X29924062Y-27979481D01*
X29854300Y-27983359D01*
X29794897Y-27950307D01*
X28945451Y-27100861D01*
X26860803Y-25016212D01*
X26850980Y-25003950D01*
X26850759Y-25004134D01*
X26845786Y-24998122D01*
X26796776Y-24952099D01*
X26793977Y-24949386D01*
X26774477Y-24929885D01*
X26774471Y-24929880D01*
X26771286Y-24927409D01*
X26762434Y-24919848D01*
X26730582Y-24889938D01*
X26730580Y-24889936D01*
X26730577Y-24889935D01*
X26713029Y-24880288D01*
X26696763Y-24869604D01*
X26680932Y-24857324D01*
X26640849Y-24839978D01*
X26630363Y-24834841D01*
X26592094Y-24813803D01*
X26592092Y-24813802D01*
X26572693Y-24808822D01*
X26554281Y-24802518D01*
X26535898Y-24794562D01*
X26535892Y-24794560D01*
X26492760Y-24787729D01*
X26481322Y-24785361D01*
X26439020Y-24774500D01*
X26439019Y-24774500D01*
X26418984Y-24774500D01*
X26399586Y-24772973D01*
X26392162Y-24771797D01*
X26379805Y-24769840D01*
X26379804Y-24769840D01*
X26336325Y-24773950D01*
X26324656Y-24774500D01*
X17304188Y-24774500D01*
X17237149Y-24754815D01*
X17202613Y-24721623D01*
X17090045Y-24560858D01*
X16929141Y-24399954D01*
X16742734Y-24269432D01*
X16742728Y-24269429D01*
X16684725Y-24242382D01*
X16632285Y-24196210D01*
X16613133Y-24129017D01*
X16633348Y-24062135D01*
X16684725Y-24017618D01*
X16742734Y-23990568D01*
X16929139Y-23860047D01*
X17090047Y-23699139D01*
X17220568Y-23512734D01*
X17316739Y-23306496D01*
X17375635Y-23086692D01*
X17395468Y-22860000D01*
X17375635Y-22633308D01*
X17357318Y-22564948D01*
X17358981Y-22495103D01*
X17389410Y-22445179D01*
X29936133Y-9898456D01*
X29997454Y-9864973D01*
X30067146Y-9869957D01*
G37*
G04 #@! TD.AperFunction*
G04 #@! TA.AperFunction,Conductor*
G36*
X34120000Y-17333505D02*
G01*
X34015161Y-17285627D01*
X33906473Y-17270000D01*
X33833527Y-17270000D01*
X33724839Y-17285627D01*
X33620000Y-17333505D01*
X33620000Y-15686494D01*
X33724839Y-15734373D01*
X33833527Y-15750000D01*
X33906473Y-15750000D01*
X34015161Y-15734373D01*
X34120000Y-15686494D01*
X34120000Y-17333505D01*
G37*
G04 #@! TD.AperFunction*
G04 #@! TA.AperFunction,Conductor*
G36*
X34120000Y-14793505D02*
G01*
X34015161Y-14745627D01*
X33906473Y-14730000D01*
X33833527Y-14730000D01*
X33724839Y-14745627D01*
X33620000Y-14793505D01*
X33620000Y-13146494D01*
X33724839Y-13194373D01*
X33833527Y-13210000D01*
X33906473Y-13210000D01*
X34015161Y-13194373D01*
X34120000Y-13146494D01*
X34120000Y-14793505D01*
G37*
G04 #@! TD.AperFunction*
G04 #@! TA.AperFunction,Conductor*
G36*
X20321752Y54929815D02*
G01*
X20367507Y54877011D01*
X20377451Y54807853D01*
X20348426Y54744297D01*
X20325836Y54723925D01*
X20291182Y54699660D01*
X20130342Y54538820D01*
X19999865Y54352482D01*
X19903734Y54146326D01*
X19903730Y54146317D01*
X19844860Y53926610D01*
X19844858Y53926599D01*
X19830000Y53756766D01*
X19830000Y53750000D01*
X20696314Y53750000D01*
X20670507Y53709844D01*
X20630000Y53571889D01*
X20630000Y53428111D01*
X20670507Y53290156D01*
X20696314Y53250000D01*
X19830000Y53250000D01*
X19830000Y53243233D01*
X19844858Y53073400D01*
X19844860Y53073389D01*
X19903730Y52853682D01*
X19903734Y52853673D01*
X19999865Y52647517D01*
X20130342Y52461179D01*
X20291179Y52300342D01*
X20477517Y52169865D01*
X20683671Y52073734D01*
X20880000Y52021127D01*
X20880000Y53064498D01*
X20987685Y53015320D01*
X21094237Y53000000D01*
X21165763Y53000000D01*
X21272315Y53015320D01*
X21380000Y53064498D01*
X21380000Y52021127D01*
X21576328Y52073734D01*
X21782482Y52169865D01*
X21968820Y52300342D01*
X22129657Y52461179D01*
X22260134Y52647518D01*
X22260135Y52647520D01*
X22287342Y52705865D01*
X22333514Y52758305D01*
X22400707Y52777457D01*
X22467589Y52757242D01*
X22512105Y52705867D01*
X22539315Y52647517D01*
X22539433Y52647264D01*
X22669954Y52460858D01*
X22830858Y52299954D01*
X23017265Y52169432D01*
X23017267Y52169431D01*
X23223502Y52073261D01*
X23223511Y52073258D01*
X23443302Y52014366D01*
X23443313Y52014364D01*
X23669998Y51994532D01*
X23670000Y51994532D01*
X23670002Y51994532D01*
X23896686Y52014364D01*
X23896697Y52014366D01*
X24116488Y52073258D01*
X24116497Y52073261D01*
X24322732Y52169431D01*
X24322734Y52169432D01*
X24509141Y52299954D01*
X24670045Y52460858D01*
X24702839Y52507693D01*
X24800568Y52647266D01*
X24827618Y52705275D01*
X24873791Y52757714D01*
X24940984Y52776866D01*
X25007865Y52756650D01*
X25052382Y52705275D01*
X25079431Y52647267D01*
X25079432Y52647265D01*
X25209954Y52460858D01*
X25370858Y52299954D01*
X25557265Y52169432D01*
X25557267Y52169431D01*
X25763502Y52073261D01*
X25763511Y52073258D01*
X25983302Y52014366D01*
X25983313Y52014364D01*
X26209998Y51994532D01*
X26210000Y51994532D01*
X26210002Y51994532D01*
X26436686Y52014364D01*
X26436697Y52014366D01*
X26656488Y52073258D01*
X26656497Y52073261D01*
X26862732Y52169431D01*
X26862734Y52169432D01*
X27049141Y52299954D01*
X27210045Y52460858D01*
X27242839Y52507693D01*
X27340568Y52647266D01*
X27367618Y52705275D01*
X27413791Y52757714D01*
X27480984Y52776866D01*
X27547865Y52756650D01*
X27592382Y52705275D01*
X27619431Y52647267D01*
X27619432Y52647265D01*
X27749954Y52460858D01*
X27910858Y52299954D01*
X28097265Y52169432D01*
X28097267Y52169431D01*
X28303502Y52073261D01*
X28303511Y52073258D01*
X28523302Y52014366D01*
X28523313Y52014364D01*
X28749998Y51994532D01*
X28750000Y51994532D01*
X28750002Y51994532D01*
X28976686Y52014364D01*
X28976697Y52014366D01*
X29196488Y52073258D01*
X29196497Y52073261D01*
X29402732Y52169431D01*
X29402734Y52169432D01*
X29403352Y52169865D01*
X29520761Y52252075D01*
X29586967Y52274402D01*
X29591884Y52274500D01*
X31839548Y52274500D01*
X31906587Y52254815D01*
X31927229Y52238181D01*
X34853229Y49312180D01*
X34886714Y49250857D01*
X34881730Y49181165D01*
X34839858Y49125232D01*
X34774394Y49100815D01*
X34765575Y49100499D01*
X33002128Y49100499D01*
X32953757Y49095299D01*
X32942516Y49094091D01*
X32807671Y49043797D01*
X32807664Y49043793D01*
X32692455Y48957547D01*
X32692452Y48957544D01*
X32606206Y48842335D01*
X32606202Y48842328D01*
X32557189Y48710917D01*
X32515318Y48654983D01*
X32449853Y48630566D01*
X32381580Y48645418D01*
X32353332Y48666563D01*
X32231401Y48788495D01*
X32037830Y48924035D01*
X31823663Y49023903D01*
X31595408Y49085063D01*
X31399234Y49102226D01*
X31360001Y49105659D01*
X31359999Y49105659D01*
X31312918Y49101539D01*
X31124592Y49085063D01*
X30896337Y49023903D01*
X30682171Y48924035D01*
X30682169Y48924034D01*
X30488597Y48788494D01*
X30321506Y48621403D01*
X30321505Y48621401D01*
X30191573Y48435838D01*
X30136999Y48392215D01*
X30067500Y48385021D01*
X30005145Y48416543D01*
X29988428Y48435836D01*
X29858495Y48621401D01*
X29691401Y48788495D01*
X29497830Y48924035D01*
X29283663Y49023903D01*
X29055408Y49085063D01*
X28859234Y49102226D01*
X28820001Y49105659D01*
X28819999Y49105659D01*
X28772918Y49101539D01*
X28584592Y49085063D01*
X28356337Y49023903D01*
X28142171Y48924035D01*
X28142169Y48924034D01*
X27948597Y48788494D01*
X27781506Y48621403D01*
X27781505Y48621401D01*
X27651573Y48435838D01*
X27596999Y48392215D01*
X27527500Y48385021D01*
X27465145Y48416543D01*
X27448428Y48435836D01*
X27318495Y48621401D01*
X27151401Y48788495D01*
X26957830Y48924035D01*
X26743663Y49023903D01*
X26515408Y49085063D01*
X26319234Y49102226D01*
X26280001Y49105659D01*
X26279999Y49105659D01*
X26232918Y49101539D01*
X26044592Y49085063D01*
X25816337Y49023903D01*
X25602171Y48924035D01*
X25602169Y48924034D01*
X25408597Y48788494D01*
X25241506Y48621403D01*
X25241505Y48621401D01*
X25111573Y48435838D01*
X25056999Y48392215D01*
X24987500Y48385021D01*
X24925145Y48416543D01*
X24908428Y48435836D01*
X24778495Y48621401D01*
X24611401Y48788495D01*
X24417830Y48924035D01*
X24203663Y49023903D01*
X23975408Y49085063D01*
X23779234Y49102226D01*
X23740001Y49105659D01*
X23739999Y49105659D01*
X23692918Y49101539D01*
X23504592Y49085063D01*
X23276337Y49023903D01*
X23062171Y48924035D01*
X23062169Y48924034D01*
X22868597Y48788494D01*
X22701506Y48621403D01*
X22701505Y48621401D01*
X22571573Y48435838D01*
X22516999Y48392215D01*
X22447500Y48385021D01*
X22385145Y48416543D01*
X22368428Y48435836D01*
X22238495Y48621401D01*
X22071401Y48788495D01*
X21877830Y48924035D01*
X21663663Y49023903D01*
X21435408Y49085063D01*
X21239234Y49102226D01*
X21200001Y49105659D01*
X21199999Y49105659D01*
X21152918Y49101539D01*
X20964592Y49085063D01*
X20736337Y49023903D01*
X20522171Y48924035D01*
X20522169Y48924034D01*
X20328597Y48788494D01*
X20161506Y48621403D01*
X20161505Y48621401D01*
X20031573Y48435838D01*
X19976999Y48392215D01*
X19907500Y48385021D01*
X19845145Y48416543D01*
X19828428Y48435836D01*
X19698495Y48621401D01*
X19531401Y48788495D01*
X19337830Y48924035D01*
X19123663Y49023903D01*
X18895408Y49085063D01*
X18699234Y49102226D01*
X18660001Y49105659D01*
X18659999Y49105659D01*
X18612918Y49101539D01*
X18424592Y49085063D01*
X18196337Y49023903D01*
X17982171Y48924035D01*
X17982169Y48924034D01*
X17788597Y48788494D01*
X17621506Y48621403D01*
X17621505Y48621401D01*
X17491573Y48435838D01*
X17436999Y48392215D01*
X17367500Y48385021D01*
X17305145Y48416543D01*
X17288428Y48435836D01*
X17158495Y48621401D01*
X16991401Y48788495D01*
X16797830Y48924035D01*
X16583663Y49023903D01*
X16355408Y49085063D01*
X16159234Y49102226D01*
X16120001Y49105659D01*
X16119999Y49105659D01*
X16072918Y49101539D01*
X15884592Y49085063D01*
X15656337Y49023903D01*
X15442171Y48924035D01*
X15442169Y48924034D01*
X15248597Y48788494D01*
X15081505Y48621402D01*
X14945965Y48427830D01*
X14945964Y48427828D01*
X14926003Y48385021D01*
X14846097Y48213663D01*
X14846096Y48213659D01*
X14846094Y48213655D01*
X14784938Y47985413D01*
X14784936Y47985403D01*
X14764341Y47750000D01*
X14764341Y47749999D01*
X14784936Y47514596D01*
X14784938Y47514586D01*
X14811856Y47414126D01*
X14810193Y47344276D01*
X14779762Y47294352D01*
X14116212Y46630803D01*
X14103950Y46620980D01*
X14104134Y46620759D01*
X14098122Y46615786D01*
X14052099Y46566776D01*
X14049386Y46563977D01*
X14029885Y46544477D01*
X14029881Y46544472D01*
X14029880Y46544471D01*
X14027409Y46541286D01*
X14019848Y46532434D01*
X13992541Y46503354D01*
X13989936Y46500580D01*
X13989935Y46500577D01*
X13980288Y46483029D01*
X13969605Y46466765D01*
X13963817Y46459303D01*
X13957324Y46450932D01*
X13939978Y46410849D01*
X13934841Y46400363D01*
X13913803Y46362094D01*
X13913802Y46362092D01*
X13908822Y46342693D01*
X13902518Y46324281D01*
X13894562Y46305898D01*
X13894560Y46305892D01*
X13887729Y46262760D01*
X13885361Y46251322D01*
X13874500Y46209020D01*
X13874500Y46188983D01*
X13872973Y46169582D01*
X13869840Y46149804D01*
X13873950Y46106324D01*
X13874500Y46094655D01*
X13874500Y42472742D01*
X13872775Y42457122D01*
X13873061Y42457096D01*
X13872327Y42449334D01*
X13874439Y42382126D01*
X13874500Y42378231D01*
X13874500Y42350646D01*
X13875003Y42346661D01*
X13875918Y42335033D01*
X13877290Y42291373D01*
X13882881Y42272129D01*
X13886825Y42253079D01*
X13889334Y42233211D01*
X13889334Y42233210D01*
X13905413Y42192599D01*
X13909194Y42181554D01*
X13921379Y42139614D01*
X13921381Y42139610D01*
X13931579Y42122366D01*
X13940133Y42104905D01*
X13947510Y42086274D01*
X13947517Y42086262D01*
X13973185Y42050933D01*
X13979596Y42041173D01*
X14001829Y42003580D01*
X14015995Y41989414D01*
X14028627Y41974624D01*
X14040404Y41958414D01*
X14040407Y41958411D01*
X14074058Y41930573D01*
X14082697Y41922711D01*
X15880529Y40124880D01*
X15880533Y40124876D01*
X16080586Y39924822D01*
X16114071Y39863499D01*
X16112680Y39805049D01*
X16097397Y39748008D01*
X16094367Y39736697D01*
X16094364Y39736686D01*
X16074532Y39510000D01*
X16074532Y39509998D01*
X16094364Y39283313D01*
X16094366Y39283302D01*
X16153258Y39063511D01*
X16153261Y39063502D01*
X16249431Y38857267D01*
X16249432Y38857265D01*
X16379954Y38670858D01*
X16540858Y38509954D01*
X16727265Y38379432D01*
X16727267Y38379431D01*
X16785275Y38352382D01*
X16837714Y38306209D01*
X16856866Y38239016D01*
X16836650Y38172135D01*
X16785275Y38127618D01*
X16727266Y38100568D01*
X16587693Y38002839D01*
X16540858Y37970045D01*
X16379954Y37809141D01*
X16249432Y37622734D01*
X16249431Y37622732D01*
X16153261Y37416497D01*
X16153258Y37416488D01*
X16094366Y37196697D01*
X16094364Y37196686D01*
X16074532Y36970001D01*
X16074532Y36969998D01*
X16094364Y36743313D01*
X16094366Y36743302D01*
X16153258Y36523511D01*
X16153261Y36523502D01*
X16249431Y36317267D01*
X16249432Y36317265D01*
X16379954Y36130858D01*
X16540858Y35969954D01*
X16727265Y35839432D01*
X16727267Y35839431D01*
X16785275Y35812382D01*
X16837714Y35766209D01*
X16856866Y35699016D01*
X16836650Y35632135D01*
X16785275Y35587618D01*
X16727266Y35560568D01*
X16727265Y35560567D01*
X16540858Y35430045D01*
X16379954Y35269141D01*
X16249432Y35082734D01*
X16249431Y35082732D01*
X16153261Y34876497D01*
X16153258Y34876488D01*
X16094366Y34656697D01*
X16094364Y34656686D01*
X16074532Y34430001D01*
X16074532Y34429998D01*
X16094364Y34203313D01*
X16094366Y34203302D01*
X16153258Y33983511D01*
X16153261Y33983502D01*
X16249431Y33777267D01*
X16249432Y33777265D01*
X16379954Y33590858D01*
X16540858Y33429954D01*
X16727265Y33299432D01*
X16727267Y33299431D01*
X16785275Y33272382D01*
X16837714Y33226209D01*
X16856866Y33159016D01*
X16836650Y33092135D01*
X16785275Y33047618D01*
X16727266Y33020568D01*
X16587693Y32922839D01*
X16540858Y32890045D01*
X16379954Y32729141D01*
X16249432Y32542734D01*
X16249431Y32542732D01*
X16153261Y32336497D01*
X16153258Y32336488D01*
X16094366Y32116697D01*
X16094364Y32116686D01*
X16074532Y31890001D01*
X16074532Y31889998D01*
X16094364Y31663313D01*
X16094366Y31663302D01*
X16153258Y31443511D01*
X16153261Y31443502D01*
X16249431Y31237267D01*
X16249432Y31237265D01*
X16379954Y31050858D01*
X16540858Y30889954D01*
X16727265Y30759432D01*
X16727267Y30759431D01*
X16785275Y30732382D01*
X16837714Y30686209D01*
X16856866Y30619016D01*
X16836650Y30552135D01*
X16785275Y30507618D01*
X16727266Y30480568D01*
X16587693Y30382839D01*
X16540858Y30350045D01*
X16379954Y30189141D01*
X16267387Y30028377D01*
X16212811Y29984752D01*
X16165812Y29975500D01*
X13936217Y29975500D01*
X13885781Y29986221D01*
X13848696Y30002732D01*
X13829803Y30011144D01*
X13644646Y30050500D01*
X13455354Y30050500D01*
X13351273Y30028377D01*
X13270197Y30011144D01*
X13270192Y30011142D01*
X13097270Y29934151D01*
X13097265Y29934148D01*
X12944129Y29822888D01*
X12817467Y29682216D01*
X12781886Y29620588D01*
X12731321Y29572374D01*
X12662714Y29559150D01*
X12597849Y29585118D01*
X12557320Y29642032D01*
X12550500Y29682589D01*
X12550500Y54825500D01*
X12570185Y54892539D01*
X12622989Y54938294D01*
X12674500Y54949500D01*
X20254713Y54949500D01*
X20321752Y54929815D01*
G37*
G04 #@! TD.AperFunction*
M02*
