G04 #@! TF.GenerationSoftware,KiCad,Pcbnew,7.0.2-0*
G04 #@! TF.CreationDate,2023-11-29T23:37:13+01:00*
G04 #@! TF.ProjectId,5hp_controller_oled,3568705f-636f-46e7-9472-6f6c6c65725f,rev?*
G04 #@! TF.SameCoordinates,Original*
G04 #@! TF.FileFunction,Legend,Bot*
G04 #@! TF.FilePolarity,Positive*
%FSLAX46Y46*%
G04 Gerber Fmt 4.6, Leading zero omitted, Abs format (unit mm)*
G04 Created by KiCad (PCBNEW 7.0.2-0) date 2023-11-29 23:37:13*
%MOMM*%
%LPD*%
G01*
G04 APERTURE LIST*
%ADD10C,0.150000*%
%ADD11C,0.100000*%
%ADD12C,0.120000*%
%ADD13R,1.700000X2.000000*%
%ADD14O,1.600000X2.000000*%
%ADD15O,2.000000X1.600000*%
%ADD16R,1.700000X1.700000*%
%ADD17R,2.000000X2.000000*%
%ADD18O,2.000000X3.400000*%
%ADD19R,1.600000X1.600000*%
%ADD20O,1.600000X1.600000*%
%ADD21O,1.700000X1.700000*%
%ADD22C,1.700000*%
%ADD23C,1.600000*%
%ADD24C,1.404000*%
G04 APERTURE END LIST*
D10*
X17450000Y-23100000D02*
X19081765Y-23344630D01*
X19675134Y-23433587D02*
X19675134Y-23433587D01*
X20268503Y-23522543D02*
X21900267Y-23767174D01*
X22493636Y-23856130D02*
X22493636Y-23856130D01*
X23087005Y-23945086D02*
X24718770Y-24189717D01*
X25312139Y-24278673D02*
X25312139Y-24278673D01*
X25905508Y-24367630D02*
X27537273Y-24612260D01*
X28130642Y-24701216D02*
X28130642Y-24701216D01*
X28724011Y-24790173D02*
X30355775Y-25034803D01*
X30949144Y-25123760D02*
X30949144Y-25123760D01*
X31542513Y-25212716D02*
X32625000Y-25374999D01*
X33962000Y49030000D02*
X33200000Y50300000D01*
X34724000Y50300000D01*
X33962000Y49030000D01*
G36*
X33962000Y49030000D02*
G01*
X33200000Y50300000D01*
X34724000Y50300000D01*
X33962000Y49030000D01*
G37*
X22850000Y21700000D02*
X22850000Y20050000D01*
X22850000Y19450000D02*
X22850000Y19450000D01*
X22850000Y18850000D02*
X22850000Y17200000D01*
X22850000Y16600000D02*
X22850000Y16600000D01*
X22850000Y16000000D02*
X22850000Y14350000D01*
X22850000Y13750000D02*
X22850000Y13750000D01*
X22850000Y13150000D02*
X22850000Y11600000D01*
X17600000Y-18000000D02*
X18880588Y-19040478D01*
X19346257Y-19418833D02*
X19346257Y-19418833D01*
X19811925Y-19797189D02*
X21092513Y-20837667D01*
X21558181Y-21216022D02*
X21558181Y-21216022D01*
X22023850Y-21594378D02*
X23304438Y-22634856D01*
X23770106Y-23013211D02*
X23770106Y-23013211D01*
X24235775Y-23391567D02*
X25516363Y-24432045D01*
X25982031Y-24810400D02*
X25982031Y-24810400D01*
X26447700Y-25188756D02*
X27728288Y-26229234D01*
X28193956Y-26607589D02*
X28193956Y-26607589D01*
X28659625Y-26985945D02*
X29940213Y-28026423D01*
X30405881Y-28404778D02*
X30405881Y-28404778D01*
X30871549Y-28783134D02*
X32152138Y-29823612D01*
X32617806Y-30201967D02*
X32617806Y-30201967D01*
X29425000Y26825000D02*
X29425000Y28475000D01*
X29425000Y29075000D02*
X29425000Y29075000D01*
X29425000Y29675000D02*
X29425000Y31325000D01*
X29425000Y31925000D02*
X29425000Y31925000D01*
X17550000Y-27900000D02*
X19034518Y-27179788D01*
X19574343Y-26917893D02*
X19574343Y-26917893D01*
X20114168Y-26655998D02*
X21598687Y-25935786D01*
X22138511Y-25673891D02*
X22138511Y-25673891D01*
X22678336Y-25411995D02*
X24162855Y-24691783D01*
X24702679Y-24429888D02*
X24702679Y-24429888D01*
X25242504Y-24167993D02*
X26727023Y-23447781D01*
X27266848Y-23185886D02*
X27266848Y-23185886D01*
X27806672Y-22923991D02*
X29291191Y-22203779D01*
X29831016Y-21941883D02*
X29831016Y-21941883D01*
X30370841Y-21679988D02*
X31855359Y-20959776D01*
X32395184Y-20697881D02*
X32395184Y-20697881D01*
X20100000Y-13000000D02*
X20100000Y-14650000D01*
X20100000Y-15250000D02*
X20100000Y-15250000D01*
X20100000Y-15850000D02*
X20100000Y-17500000D01*
X20100000Y-18100000D02*
X20100000Y-18100000D01*
X20100000Y-18700000D02*
X20100000Y-20350000D01*
X20100000Y-20950000D02*
X20100000Y-20950000D01*
X20100000Y-21550000D02*
X20100000Y-23200000D01*
X20100000Y-23800000D02*
X20100000Y-23800000D01*
X20100000Y-24400000D02*
X20100000Y-26050000D01*
X20100000Y-26650000D02*
X20100000Y-26650000D01*
X20100000Y-27250000D02*
X20100000Y-28900000D01*
X20100000Y-29500000D02*
X20100000Y-29500000D01*
X20100000Y-30100000D02*
X20100000Y-31750000D01*
X20100000Y-32350000D02*
X20100000Y-32350000D01*
X20100000Y-32950000D02*
X20100000Y-33100000D01*
X19775000Y34375000D02*
X21385213Y34735156D01*
X21970746Y34866122D02*
X21970746Y34866122D01*
X22556278Y34997088D02*
X24166491Y35357245D01*
X24752023Y35488210D02*
X24752023Y35488210D01*
X25337556Y35619176D02*
X26947769Y35979333D01*
X27533301Y36110299D02*
X27533301Y36110299D01*
X28118833Y36241265D02*
X29729047Y36601421D01*
X30314579Y36732387D02*
X30314579Y36732387D01*
X30900111Y36863353D02*
X31287499Y36950000D01*
X16002000Y-37592000D02*
X15240000Y-36322000D01*
X16764000Y-36322000D01*
X16002000Y-37592000D01*
G36*
X16002000Y-37592000D02*
G01*
X15240000Y-36322000D01*
X16764000Y-36322000D01*
X16002000Y-37592000D01*
G37*
X21425000Y-10050000D02*
X21425000Y-11700000D01*
X21425000Y-12300000D02*
X21425000Y-12300000D01*
X21425000Y-12900000D02*
X21425000Y-14550000D01*
X21425000Y-15150000D02*
X21425000Y-15150000D01*
X21425000Y-15750000D02*
X21425000Y-17400000D01*
X21425000Y-18000000D02*
X21425000Y-18000000D01*
X21425000Y-18600000D02*
X21425000Y-20250000D01*
X21425000Y-20850000D02*
X21425000Y-20850000D01*
X21425000Y-21450000D02*
X21425000Y-23100000D01*
X21425000Y-23700000D02*
X21425000Y-23700000D01*
X21425000Y-24300000D02*
X21425000Y-25950000D01*
X21425000Y-26550000D02*
X21425000Y-26550000D01*
X21425000Y-27150000D02*
X21425000Y-28800000D01*
X21425000Y-29400000D02*
X21425000Y-29400000D01*
X21425000Y-30000000D02*
X21425000Y-30150000D01*
X20650000Y26750000D02*
X20650000Y25100000D01*
X20650000Y24500000D02*
X20650000Y24500000D01*
X20650000Y23900000D02*
X20650000Y22250000D01*
X20650000Y21650000D02*
X20650000Y21650000D01*
X20650000Y21050000D02*
X20650000Y19400000D01*
X20650000Y18800000D02*
X20650000Y18800000D01*
X20650000Y18200000D02*
X20650000Y16650000D01*
X21750000Y24250000D02*
X21750000Y22600000D01*
X21750000Y22000000D02*
X21750000Y22000000D01*
X21750000Y21400000D02*
X21750000Y19750000D01*
X21750000Y19150000D02*
X21750000Y19150000D01*
X21750000Y18550000D02*
X21750000Y16900000D01*
X21750000Y16300000D02*
X21750000Y16300000D01*
X21750000Y15700000D02*
X21750000Y14150000D01*
X19675000Y31850000D02*
X21285136Y32210504D01*
X21870640Y32341596D02*
X21870640Y32341596D01*
X22456143Y32472689D02*
X24066279Y32833193D01*
X24651783Y32964285D02*
X24651783Y32964285D01*
X25237287Y33095377D02*
X26847423Y33455881D01*
X27432926Y33586974D02*
X27432926Y33586974D01*
X28018430Y33718066D02*
X29628566Y34078570D01*
X30214070Y34209663D02*
X30214070Y34209663D01*
X30799574Y34340755D02*
X31287499Y34450000D01*
X17600000Y-25300000D02*
X19230374Y-25046266D01*
X19823237Y-24954000D02*
X19823237Y-24954000D01*
X20416100Y-24861733D02*
X22046474Y-24607999D01*
X22639338Y-24515732D02*
X22639338Y-24515732D01*
X23232201Y-24423465D02*
X24862575Y-24169732D01*
X25455438Y-24077465D02*
X25455438Y-24077465D01*
X26048301Y-23985198D02*
X27678675Y-23731464D01*
X28271539Y-23639198D02*
X28271539Y-23639198D01*
X28864402Y-23546931D02*
X30494776Y-23293197D01*
X31087639Y-23200930D02*
X31087639Y-23200930D01*
X31680502Y-23108664D02*
X32700000Y-22950001D01*
X30425000Y29425000D02*
X30425000Y27775000D01*
X30425000Y27175000D02*
X30425000Y27175000D01*
X30425000Y26575000D02*
X30425000Y24925000D01*
X30425000Y24325000D02*
X30425000Y24325000D01*
X17500000Y-20550000D02*
X18988438Y-21262077D01*
X19529688Y-21521013D02*
X19529688Y-21521013D01*
X20070938Y-21779950D02*
X21559376Y-22492027D01*
X22100626Y-22750964D02*
X22100626Y-22750964D01*
X22641876Y-23009901D02*
X24130314Y-23721977D01*
X24671564Y-23980914D02*
X24671564Y-23980914D01*
X25212814Y-24239851D02*
X26701252Y-24951928D01*
X27242502Y-25210865D02*
X27242502Y-25210865D01*
X27783752Y-25469802D02*
X29272190Y-26181878D01*
X29813440Y-26440815D02*
X29813440Y-26440815D01*
X30354690Y-26699752D02*
X31843128Y-27411828D01*
X32384378Y-27670765D02*
X32384378Y-27670765D01*
X19650000Y37000000D02*
X21263500Y37345134D01*
X21850227Y37470637D02*
X21850227Y37470637D01*
X22436955Y37596140D02*
X24050455Y37941274D01*
X24637182Y38066777D02*
X24637182Y38066777D01*
X25223910Y38192280D02*
X26837410Y38537414D01*
X27424137Y38662917D02*
X27424137Y38662917D01*
X28010864Y38788420D02*
X29624365Y39133554D01*
X30211092Y39259057D02*
X30211092Y39259057D01*
X30797819Y39384560D02*
X31337500Y39500000D01*
X18900000Y29400000D02*
X18900000Y31050000D01*
X18900000Y31650000D02*
X18900000Y31650000D01*
X18900000Y32250000D02*
X18900000Y33900000D01*
X18900000Y34500000D02*
X18900000Y34500000D01*
X18900000Y35100000D02*
X18900000Y36750000D01*
X18900000Y37350000D02*
X18900000Y37350000D01*
X18900000Y37950000D02*
X18900000Y39500000D01*
X17600000Y-15500000D02*
X18677915Y-16749239D01*
X19069884Y-17203508D02*
X19069884Y-17203508D01*
X19461853Y-17657777D02*
X20539768Y-18907016D01*
X20931738Y-19361285D02*
X20931738Y-19361285D01*
X21323707Y-19815554D02*
X22401622Y-21064794D01*
X22793591Y-21519062D02*
X22793591Y-21519062D01*
X23185560Y-21973331D02*
X24263475Y-23222571D01*
X24655444Y-23676840D02*
X24655444Y-23676840D01*
X25047414Y-24131108D02*
X26125329Y-25380348D01*
X26517298Y-25834617D02*
X26517298Y-25834617D01*
X26909267Y-26288885D02*
X27987182Y-27538125D01*
X28379151Y-27992394D02*
X28379151Y-27992394D01*
X28771120Y-28446663D02*
X29849035Y-29695902D01*
X30241005Y-30150171D02*
X30241005Y-30150171D01*
X30632974Y-30604440D02*
X31710889Y-31853679D01*
X32102858Y-32307948D02*
X32102858Y-32307948D01*
X32494827Y-32762217D02*
X32699999Y-33000000D01*
X23950000Y18900000D02*
X23950000Y17250000D01*
X23950000Y16650000D02*
X23950000Y16650000D01*
X23950000Y16050000D02*
X23950000Y14400000D01*
X23950000Y13800000D02*
X23950000Y13800000D01*
X23950000Y13200000D02*
X23950000Y11550000D01*
X23950000Y10950000D02*
X23950000Y10950000D01*
X23950000Y10350000D02*
X23950000Y8800000D01*
D11*
X30852000Y30960713D02*
X30823428Y31046428D01*
X30823428Y31046428D02*
X30823428Y31189285D01*
X30823428Y31189285D02*
X30852000Y31246428D01*
X30852000Y31246428D02*
X30880571Y31274999D01*
X30880571Y31274999D02*
X30937714Y31303570D01*
X30937714Y31303570D02*
X30994857Y31303570D01*
X30994857Y31303570D02*
X31052000Y31274999D01*
X31052000Y31274999D02*
X31080571Y31246428D01*
X31080571Y31246428D02*
X31109142Y31189285D01*
X31109142Y31189285D02*
X31137714Y31074999D01*
X31137714Y31074999D02*
X31166285Y31017856D01*
X31166285Y31017856D02*
X31194857Y30989285D01*
X31194857Y30989285D02*
X31252000Y30960713D01*
X31252000Y30960713D02*
X31309142Y30960713D01*
X31309142Y30960713D02*
X31366285Y30989285D01*
X31366285Y30989285D02*
X31394857Y31017856D01*
X31394857Y31017856D02*
X31423428Y31074999D01*
X31423428Y31074999D02*
X31423428Y31217856D01*
X31423428Y31217856D02*
X31394857Y31303570D01*
X30880571Y31903571D02*
X30852000Y31874999D01*
X30852000Y31874999D02*
X30823428Y31789285D01*
X30823428Y31789285D02*
X30823428Y31732142D01*
X30823428Y31732142D02*
X30852000Y31646428D01*
X30852000Y31646428D02*
X30909142Y31589285D01*
X30909142Y31589285D02*
X30966285Y31560714D01*
X30966285Y31560714D02*
X31080571Y31532142D01*
X31080571Y31532142D02*
X31166285Y31532142D01*
X31166285Y31532142D02*
X31280571Y31560714D01*
X31280571Y31560714D02*
X31337714Y31589285D01*
X31337714Y31589285D02*
X31394857Y31646428D01*
X31394857Y31646428D02*
X31423428Y31732142D01*
X31423428Y31732142D02*
X31423428Y31789285D01*
X31423428Y31789285D02*
X31394857Y31874999D01*
X31394857Y31874999D02*
X31366285Y31903571D01*
X30823428Y32446428D02*
X30823428Y32160714D01*
X30823428Y32160714D02*
X31423428Y32160714D01*
X31366285Y32617856D02*
X31394857Y32646428D01*
X31394857Y32646428D02*
X31423428Y32703571D01*
X31423428Y32703571D02*
X31423428Y32846428D01*
X31423428Y32846428D02*
X31394857Y32903571D01*
X31394857Y32903571D02*
X31366285Y32932142D01*
X31366285Y32932142D02*
X31309142Y32960713D01*
X31309142Y32960713D02*
X31252000Y32960713D01*
X31252000Y32960713D02*
X31166285Y32932142D01*
X31166285Y32932142D02*
X30823428Y32589285D01*
X30823428Y32589285D02*
X30823428Y32960713D01*
X20971428Y30898428D02*
X21257142Y30898428D01*
X21257142Y30898428D02*
X21257142Y31498428D01*
X20771428Y31212714D02*
X20571428Y31212714D01*
X20485714Y30898428D02*
X20771428Y30898428D01*
X20771428Y30898428D02*
X20771428Y31498428D01*
X20771428Y31498428D02*
X20485714Y31498428D01*
X20228571Y30898428D02*
X20228571Y31498428D01*
X20228571Y31498428D02*
X20085714Y31498428D01*
X20085714Y31498428D02*
X20000000Y31469857D01*
X20000000Y31469857D02*
X19942857Y31412714D01*
X19942857Y31412714D02*
X19914286Y31355571D01*
X19914286Y31355571D02*
X19885714Y31241285D01*
X19885714Y31241285D02*
X19885714Y31155571D01*
X19885714Y31155571D02*
X19914286Y31041285D01*
X19914286Y31041285D02*
X19942857Y30984142D01*
X19942857Y30984142D02*
X20000000Y30927000D01*
X20000000Y30927000D02*
X20085714Y30898428D01*
X20085714Y30898428D02*
X20228571Y30898428D01*
X19657143Y31441285D02*
X19628571Y31469857D01*
X19628571Y31469857D02*
X19571429Y31498428D01*
X19571429Y31498428D02*
X19428571Y31498428D01*
X19428571Y31498428D02*
X19371429Y31469857D01*
X19371429Y31469857D02*
X19342857Y31441285D01*
X19342857Y31441285D02*
X19314286Y31384142D01*
X19314286Y31384142D02*
X19314286Y31327000D01*
X19314286Y31327000D02*
X19342857Y31241285D01*
X19342857Y31241285D02*
X19685714Y30898428D01*
X19685714Y30898428D02*
X19314286Y30898428D01*
X32303572Y-20273000D02*
X32217858Y-20301571D01*
X32217858Y-20301571D02*
X32075000Y-20301571D01*
X32075000Y-20301571D02*
X32017858Y-20273000D01*
X32017858Y-20273000D02*
X31989286Y-20244428D01*
X31989286Y-20244428D02*
X31960715Y-20187285D01*
X31960715Y-20187285D02*
X31960715Y-20130142D01*
X31960715Y-20130142D02*
X31989286Y-20073000D01*
X31989286Y-20073000D02*
X32017858Y-20044428D01*
X32017858Y-20044428D02*
X32075000Y-20015857D01*
X32075000Y-20015857D02*
X32189286Y-19987285D01*
X32189286Y-19987285D02*
X32246429Y-19958714D01*
X32246429Y-19958714D02*
X32275000Y-19930142D01*
X32275000Y-19930142D02*
X32303572Y-19873000D01*
X32303572Y-19873000D02*
X32303572Y-19815857D01*
X32303572Y-19815857D02*
X32275000Y-19758714D01*
X32275000Y-19758714D02*
X32246429Y-19730142D01*
X32246429Y-19730142D02*
X32189286Y-19701571D01*
X32189286Y-19701571D02*
X32046429Y-19701571D01*
X32046429Y-19701571D02*
X31960715Y-19730142D01*
X31703571Y-20301571D02*
X31703571Y-19701571D01*
X31703571Y-19701571D02*
X31560714Y-19701571D01*
X31560714Y-19701571D02*
X31475000Y-19730142D01*
X31475000Y-19730142D02*
X31417857Y-19787285D01*
X31417857Y-19787285D02*
X31389286Y-19844428D01*
X31389286Y-19844428D02*
X31360714Y-19958714D01*
X31360714Y-19958714D02*
X31360714Y-20044428D01*
X31360714Y-20044428D02*
X31389286Y-20158714D01*
X31389286Y-20158714D02*
X31417857Y-20215857D01*
X31417857Y-20215857D02*
X31475000Y-20273000D01*
X31475000Y-20273000D02*
X31560714Y-20301571D01*
X31560714Y-20301571D02*
X31703571Y-20301571D01*
X30989286Y-19701571D02*
X30932143Y-19701571D01*
X30932143Y-19701571D02*
X30875000Y-19730142D01*
X30875000Y-19730142D02*
X30846429Y-19758714D01*
X30846429Y-19758714D02*
X30817857Y-19815857D01*
X30817857Y-19815857D02*
X30789286Y-19930142D01*
X30789286Y-19930142D02*
X30789286Y-20073000D01*
X30789286Y-20073000D02*
X30817857Y-20187285D01*
X30817857Y-20187285D02*
X30846429Y-20244428D01*
X30846429Y-20244428D02*
X30875000Y-20273000D01*
X30875000Y-20273000D02*
X30932143Y-20301571D01*
X30932143Y-20301571D02*
X30989286Y-20301571D01*
X30989286Y-20301571D02*
X31046429Y-20273000D01*
X31046429Y-20273000D02*
X31075000Y-20244428D01*
X31075000Y-20244428D02*
X31103571Y-20187285D01*
X31103571Y-20187285D02*
X31132143Y-20073000D01*
X31132143Y-20073000D02*
X31132143Y-19930142D01*
X31132143Y-19930142D02*
X31103571Y-19815857D01*
X31103571Y-19815857D02*
X31075000Y-19758714D01*
X31075000Y-19758714D02*
X31046429Y-19730142D01*
X31046429Y-19730142D02*
X30989286Y-19701571D01*
X17727000Y-13453572D02*
X17698428Y-13367858D01*
X17698428Y-13367858D02*
X17698428Y-13225000D01*
X17698428Y-13225000D02*
X17727000Y-13167858D01*
X17727000Y-13167858D02*
X17755571Y-13139286D01*
X17755571Y-13139286D02*
X17812714Y-13110715D01*
X17812714Y-13110715D02*
X17869857Y-13110715D01*
X17869857Y-13110715D02*
X17927000Y-13139286D01*
X17927000Y-13139286D02*
X17955571Y-13167858D01*
X17955571Y-13167858D02*
X17984142Y-13225000D01*
X17984142Y-13225000D02*
X18012714Y-13339286D01*
X18012714Y-13339286D02*
X18041285Y-13396429D01*
X18041285Y-13396429D02*
X18069857Y-13425000D01*
X18069857Y-13425000D02*
X18127000Y-13453572D01*
X18127000Y-13453572D02*
X18184142Y-13453572D01*
X18184142Y-13453572D02*
X18241285Y-13425000D01*
X18241285Y-13425000D02*
X18269857Y-13396429D01*
X18269857Y-13396429D02*
X18298428Y-13339286D01*
X18298428Y-13339286D02*
X18298428Y-13196429D01*
X18298428Y-13196429D02*
X18269857Y-13110715D01*
X17698428Y-12853571D02*
X18298428Y-12853571D01*
X18298428Y-12853571D02*
X18298428Y-12710714D01*
X18298428Y-12710714D02*
X18269857Y-12625000D01*
X18269857Y-12625000D02*
X18212714Y-12567857D01*
X18212714Y-12567857D02*
X18155571Y-12539286D01*
X18155571Y-12539286D02*
X18041285Y-12510714D01*
X18041285Y-12510714D02*
X17955571Y-12510714D01*
X17955571Y-12510714D02*
X17841285Y-12539286D01*
X17841285Y-12539286D02*
X17784142Y-12567857D01*
X17784142Y-12567857D02*
X17727000Y-12625000D01*
X17727000Y-12625000D02*
X17698428Y-12710714D01*
X17698428Y-12710714D02*
X17698428Y-12853571D01*
X18298428Y-12310714D02*
X18298428Y-11910714D01*
X18298428Y-11910714D02*
X17698428Y-12167857D01*
X19053572Y-26148000D02*
X18967858Y-26176571D01*
X18967858Y-26176571D02*
X18825000Y-26176571D01*
X18825000Y-26176571D02*
X18767858Y-26148000D01*
X18767858Y-26148000D02*
X18739286Y-26119428D01*
X18739286Y-26119428D02*
X18710715Y-26062285D01*
X18710715Y-26062285D02*
X18710715Y-26005142D01*
X18710715Y-26005142D02*
X18739286Y-25948000D01*
X18739286Y-25948000D02*
X18767858Y-25919428D01*
X18767858Y-25919428D02*
X18825000Y-25890857D01*
X18825000Y-25890857D02*
X18939286Y-25862285D01*
X18939286Y-25862285D02*
X18996429Y-25833714D01*
X18996429Y-25833714D02*
X19025000Y-25805142D01*
X19025000Y-25805142D02*
X19053572Y-25748000D01*
X19053572Y-25748000D02*
X19053572Y-25690857D01*
X19053572Y-25690857D02*
X19025000Y-25633714D01*
X19025000Y-25633714D02*
X18996429Y-25605142D01*
X18996429Y-25605142D02*
X18939286Y-25576571D01*
X18939286Y-25576571D02*
X18796429Y-25576571D01*
X18796429Y-25576571D02*
X18710715Y-25605142D01*
X18110714Y-26119428D02*
X18139286Y-26148000D01*
X18139286Y-26148000D02*
X18225000Y-26176571D01*
X18225000Y-26176571D02*
X18282143Y-26176571D01*
X18282143Y-26176571D02*
X18367857Y-26148000D01*
X18367857Y-26148000D02*
X18425000Y-26090857D01*
X18425000Y-26090857D02*
X18453571Y-26033714D01*
X18453571Y-26033714D02*
X18482143Y-25919428D01*
X18482143Y-25919428D02*
X18482143Y-25833714D01*
X18482143Y-25833714D02*
X18453571Y-25719428D01*
X18453571Y-25719428D02*
X18425000Y-25662285D01*
X18425000Y-25662285D02*
X18367857Y-25605142D01*
X18367857Y-25605142D02*
X18282143Y-25576571D01*
X18282143Y-25576571D02*
X18225000Y-25576571D01*
X18225000Y-25576571D02*
X18139286Y-25605142D01*
X18139286Y-25605142D02*
X18110714Y-25633714D01*
X17596429Y-25776571D02*
X17596429Y-26176571D01*
X17739286Y-25548000D02*
X17882143Y-25976571D01*
X17882143Y-25976571D02*
X17510714Y-25976571D01*
X20996428Y33298428D02*
X21282142Y33298428D01*
X21282142Y33298428D02*
X21282142Y33898428D01*
X20796428Y33612714D02*
X20596428Y33612714D01*
X20510714Y33298428D02*
X20796428Y33298428D01*
X20796428Y33298428D02*
X20796428Y33898428D01*
X20796428Y33898428D02*
X20510714Y33898428D01*
X20253571Y33298428D02*
X20253571Y33898428D01*
X20253571Y33898428D02*
X20110714Y33898428D01*
X20110714Y33898428D02*
X20025000Y33869857D01*
X20025000Y33869857D02*
X19967857Y33812714D01*
X19967857Y33812714D02*
X19939286Y33755571D01*
X19939286Y33755571D02*
X19910714Y33641285D01*
X19910714Y33641285D02*
X19910714Y33555571D01*
X19910714Y33555571D02*
X19939286Y33441285D01*
X19939286Y33441285D02*
X19967857Y33384142D01*
X19967857Y33384142D02*
X20025000Y33327000D01*
X20025000Y33327000D02*
X20110714Y33298428D01*
X20110714Y33298428D02*
X20253571Y33298428D01*
X19710714Y33898428D02*
X19339286Y33898428D01*
X19339286Y33898428D02*
X19539286Y33669857D01*
X19539286Y33669857D02*
X19453571Y33669857D01*
X19453571Y33669857D02*
X19396429Y33641285D01*
X19396429Y33641285D02*
X19367857Y33612714D01*
X19367857Y33612714D02*
X19339286Y33555571D01*
X19339286Y33555571D02*
X19339286Y33412714D01*
X19339286Y33412714D02*
X19367857Y33355571D01*
X19367857Y33355571D02*
X19396429Y33327000D01*
X19396429Y33327000D02*
X19453571Y33298428D01*
X19453571Y33298428D02*
X19625000Y33298428D01*
X19625000Y33298428D02*
X19682143Y33327000D01*
X19682143Y33327000D02*
X19710714Y33355571D01*
X32328572Y-22673000D02*
X32242858Y-22701571D01*
X32242858Y-22701571D02*
X32100000Y-22701571D01*
X32100000Y-22701571D02*
X32042858Y-22673000D01*
X32042858Y-22673000D02*
X32014286Y-22644428D01*
X32014286Y-22644428D02*
X31985715Y-22587285D01*
X31985715Y-22587285D02*
X31985715Y-22530142D01*
X31985715Y-22530142D02*
X32014286Y-22473000D01*
X32014286Y-22473000D02*
X32042858Y-22444428D01*
X32042858Y-22444428D02*
X32100000Y-22415857D01*
X32100000Y-22415857D02*
X32214286Y-22387285D01*
X32214286Y-22387285D02*
X32271429Y-22358714D01*
X32271429Y-22358714D02*
X32300000Y-22330142D01*
X32300000Y-22330142D02*
X32328572Y-22273000D01*
X32328572Y-22273000D02*
X32328572Y-22215857D01*
X32328572Y-22215857D02*
X32300000Y-22158714D01*
X32300000Y-22158714D02*
X32271429Y-22130142D01*
X32271429Y-22130142D02*
X32214286Y-22101571D01*
X32214286Y-22101571D02*
X32071429Y-22101571D01*
X32071429Y-22101571D02*
X31985715Y-22130142D01*
X31385714Y-22644428D02*
X31414286Y-22673000D01*
X31414286Y-22673000D02*
X31500000Y-22701571D01*
X31500000Y-22701571D02*
X31557143Y-22701571D01*
X31557143Y-22701571D02*
X31642857Y-22673000D01*
X31642857Y-22673000D02*
X31700000Y-22615857D01*
X31700000Y-22615857D02*
X31728571Y-22558714D01*
X31728571Y-22558714D02*
X31757143Y-22444428D01*
X31757143Y-22444428D02*
X31757143Y-22358714D01*
X31757143Y-22358714D02*
X31728571Y-22244428D01*
X31728571Y-22244428D02*
X31700000Y-22187285D01*
X31700000Y-22187285D02*
X31642857Y-22130142D01*
X31642857Y-22130142D02*
X31557143Y-22101571D01*
X31557143Y-22101571D02*
X31500000Y-22101571D01*
X31500000Y-22101571D02*
X31414286Y-22130142D01*
X31414286Y-22130142D02*
X31385714Y-22158714D01*
X31014286Y-22101571D02*
X30957143Y-22101571D01*
X30957143Y-22101571D02*
X30900000Y-22130142D01*
X30900000Y-22130142D02*
X30871429Y-22158714D01*
X30871429Y-22158714D02*
X30842857Y-22215857D01*
X30842857Y-22215857D02*
X30814286Y-22330142D01*
X30814286Y-22330142D02*
X30814286Y-22473000D01*
X30814286Y-22473000D02*
X30842857Y-22587285D01*
X30842857Y-22587285D02*
X30871429Y-22644428D01*
X30871429Y-22644428D02*
X30900000Y-22673000D01*
X30900000Y-22673000D02*
X30957143Y-22701571D01*
X30957143Y-22701571D02*
X31014286Y-22701571D01*
X31014286Y-22701571D02*
X31071429Y-22673000D01*
X31071429Y-22673000D02*
X31100000Y-22644428D01*
X31100000Y-22644428D02*
X31128571Y-22587285D01*
X31128571Y-22587285D02*
X31157143Y-22473000D01*
X31157143Y-22473000D02*
X31157143Y-22330142D01*
X31157143Y-22330142D02*
X31128571Y-22215857D01*
X31128571Y-22215857D02*
X31100000Y-22158714D01*
X31100000Y-22158714D02*
X31071429Y-22130142D01*
X31071429Y-22130142D02*
X31014286Y-22101571D01*
X19037714Y10810714D02*
X19009142Y10896428D01*
X19009142Y10896428D02*
X18980571Y10924999D01*
X18980571Y10924999D02*
X18923428Y10953571D01*
X18923428Y10953571D02*
X18837714Y10953571D01*
X18837714Y10953571D02*
X18780571Y10924999D01*
X18780571Y10924999D02*
X18752000Y10896428D01*
X18752000Y10896428D02*
X18723428Y10839285D01*
X18723428Y10839285D02*
X18723428Y10610714D01*
X18723428Y10610714D02*
X19323428Y10610714D01*
X19323428Y10610714D02*
X19323428Y10810714D01*
X19323428Y10810714D02*
X19294857Y10867857D01*
X19294857Y10867857D02*
X19266285Y10896428D01*
X19266285Y10896428D02*
X19209142Y10924999D01*
X19209142Y10924999D02*
X19152000Y10924999D01*
X19152000Y10924999D02*
X19094857Y10896428D01*
X19094857Y10896428D02*
X19066285Y10867857D01*
X19066285Y10867857D02*
X19037714Y10810714D01*
X19037714Y10810714D02*
X19037714Y10610714D01*
X19323428Y11124999D02*
X19323428Y11467857D01*
X18723428Y11296428D02*
X19323428Y11296428D01*
X18723428Y11667857D02*
X19323428Y11667857D01*
X19323428Y11667857D02*
X18723428Y12010714D01*
X18723428Y12010714D02*
X19323428Y12010714D01*
X19266285Y12267856D02*
X19294857Y12296428D01*
X19294857Y12296428D02*
X19323428Y12353571D01*
X19323428Y12353571D02*
X19323428Y12496428D01*
X19323428Y12496428D02*
X19294857Y12553571D01*
X19294857Y12553571D02*
X19266285Y12582142D01*
X19266285Y12582142D02*
X19209142Y12610713D01*
X19209142Y12610713D02*
X19152000Y12610713D01*
X19152000Y12610713D02*
X19066285Y12582142D01*
X19066285Y12582142D02*
X18723428Y12239285D01*
X18723428Y12239285D02*
X18723428Y12610713D01*
X19128572Y-17573000D02*
X19042858Y-17601571D01*
X19042858Y-17601571D02*
X18900000Y-17601571D01*
X18900000Y-17601571D02*
X18842858Y-17573000D01*
X18842858Y-17573000D02*
X18814286Y-17544428D01*
X18814286Y-17544428D02*
X18785715Y-17487285D01*
X18785715Y-17487285D02*
X18785715Y-17430142D01*
X18785715Y-17430142D02*
X18814286Y-17373000D01*
X18814286Y-17373000D02*
X18842858Y-17344428D01*
X18842858Y-17344428D02*
X18900000Y-17315857D01*
X18900000Y-17315857D02*
X19014286Y-17287285D01*
X19014286Y-17287285D02*
X19071429Y-17258714D01*
X19071429Y-17258714D02*
X19100000Y-17230142D01*
X19100000Y-17230142D02*
X19128572Y-17173000D01*
X19128572Y-17173000D02*
X19128572Y-17115857D01*
X19128572Y-17115857D02*
X19100000Y-17058714D01*
X19100000Y-17058714D02*
X19071429Y-17030142D01*
X19071429Y-17030142D02*
X19014286Y-17001571D01*
X19014286Y-17001571D02*
X18871429Y-17001571D01*
X18871429Y-17001571D02*
X18785715Y-17030142D01*
X18528571Y-17601571D02*
X18528571Y-17001571D01*
X18528571Y-17001571D02*
X18385714Y-17001571D01*
X18385714Y-17001571D02*
X18300000Y-17030142D01*
X18300000Y-17030142D02*
X18242857Y-17087285D01*
X18242857Y-17087285D02*
X18214286Y-17144428D01*
X18214286Y-17144428D02*
X18185714Y-17258714D01*
X18185714Y-17258714D02*
X18185714Y-17344428D01*
X18185714Y-17344428D02*
X18214286Y-17458714D01*
X18214286Y-17458714D02*
X18242857Y-17515857D01*
X18242857Y-17515857D02*
X18300000Y-17573000D01*
X18300000Y-17573000D02*
X18385714Y-17601571D01*
X18385714Y-17601571D02*
X18528571Y-17601571D01*
X17671429Y-17001571D02*
X17785714Y-17001571D01*
X17785714Y-17001571D02*
X17842857Y-17030142D01*
X17842857Y-17030142D02*
X17871429Y-17058714D01*
X17871429Y-17058714D02*
X17928571Y-17144428D01*
X17928571Y-17144428D02*
X17957143Y-17258714D01*
X17957143Y-17258714D02*
X17957143Y-17487285D01*
X17957143Y-17487285D02*
X17928571Y-17544428D01*
X17928571Y-17544428D02*
X17900000Y-17573000D01*
X17900000Y-17573000D02*
X17842857Y-17601571D01*
X17842857Y-17601571D02*
X17728571Y-17601571D01*
X17728571Y-17601571D02*
X17671429Y-17573000D01*
X17671429Y-17573000D02*
X17642857Y-17544428D01*
X17642857Y-17544428D02*
X17614286Y-17487285D01*
X17614286Y-17487285D02*
X17614286Y-17344428D01*
X17614286Y-17344428D02*
X17642857Y-17287285D01*
X17642857Y-17287285D02*
X17671429Y-17258714D01*
X17671429Y-17258714D02*
X17728571Y-17230142D01*
X17728571Y-17230142D02*
X17842857Y-17230142D01*
X17842857Y-17230142D02*
X17900000Y-17258714D01*
X17900000Y-17258714D02*
X17928571Y-17287285D01*
X17928571Y-17287285D02*
X17957143Y-17344428D01*
X19112714Y25910714D02*
X19084142Y25996428D01*
X19084142Y25996428D02*
X19055571Y26024999D01*
X19055571Y26024999D02*
X18998428Y26053571D01*
X18998428Y26053571D02*
X18912714Y26053571D01*
X18912714Y26053571D02*
X18855571Y26024999D01*
X18855571Y26024999D02*
X18827000Y25996428D01*
X18827000Y25996428D02*
X18798428Y25939285D01*
X18798428Y25939285D02*
X18798428Y25710714D01*
X18798428Y25710714D02*
X19398428Y25710714D01*
X19398428Y25710714D02*
X19398428Y25910714D01*
X19398428Y25910714D02*
X19369857Y25967857D01*
X19369857Y25967857D02*
X19341285Y25996428D01*
X19341285Y25996428D02*
X19284142Y26024999D01*
X19284142Y26024999D02*
X19227000Y26024999D01*
X19227000Y26024999D02*
X19169857Y25996428D01*
X19169857Y25996428D02*
X19141285Y25967857D01*
X19141285Y25967857D02*
X19112714Y25910714D01*
X19112714Y25910714D02*
X19112714Y25710714D01*
X19398428Y26224999D02*
X19398428Y26567857D01*
X18798428Y26396428D02*
X19398428Y26396428D01*
X18798428Y26767857D02*
X19398428Y26767857D01*
X19398428Y26767857D02*
X18798428Y27110714D01*
X18798428Y27110714D02*
X19398428Y27110714D01*
X19141285Y27482142D02*
X19169857Y27424999D01*
X19169857Y27424999D02*
X19198428Y27396428D01*
X19198428Y27396428D02*
X19255571Y27367856D01*
X19255571Y27367856D02*
X19284142Y27367856D01*
X19284142Y27367856D02*
X19341285Y27396428D01*
X19341285Y27396428D02*
X19369857Y27424999D01*
X19369857Y27424999D02*
X19398428Y27482142D01*
X19398428Y27482142D02*
X19398428Y27596428D01*
X19398428Y27596428D02*
X19369857Y27653571D01*
X19369857Y27653571D02*
X19341285Y27682142D01*
X19341285Y27682142D02*
X19284142Y27710713D01*
X19284142Y27710713D02*
X19255571Y27710713D01*
X19255571Y27710713D02*
X19198428Y27682142D01*
X19198428Y27682142D02*
X19169857Y27653571D01*
X19169857Y27653571D02*
X19141285Y27596428D01*
X19141285Y27596428D02*
X19141285Y27482142D01*
X19141285Y27482142D02*
X19112714Y27424999D01*
X19112714Y27424999D02*
X19084142Y27396428D01*
X19084142Y27396428D02*
X19027000Y27367856D01*
X19027000Y27367856D02*
X18912714Y27367856D01*
X18912714Y27367856D02*
X18855571Y27396428D01*
X18855571Y27396428D02*
X18827000Y27424999D01*
X18827000Y27424999D02*
X18798428Y27482142D01*
X18798428Y27482142D02*
X18798428Y27596428D01*
X18798428Y27596428D02*
X18827000Y27653571D01*
X18827000Y27653571D02*
X18855571Y27682142D01*
X18855571Y27682142D02*
X18912714Y27710713D01*
X18912714Y27710713D02*
X19027000Y27710713D01*
X19027000Y27710713D02*
X19084142Y27682142D01*
X19084142Y27682142D02*
X19112714Y27653571D01*
X19112714Y27653571D02*
X19141285Y27596428D01*
X32328572Y-26098000D02*
X32242858Y-26126571D01*
X32242858Y-26126571D02*
X32100000Y-26126571D01*
X32100000Y-26126571D02*
X32042858Y-26098000D01*
X32042858Y-26098000D02*
X32014286Y-26069428D01*
X32014286Y-26069428D02*
X31985715Y-26012285D01*
X31985715Y-26012285D02*
X31985715Y-25955142D01*
X31985715Y-25955142D02*
X32014286Y-25898000D01*
X32014286Y-25898000D02*
X32042858Y-25869428D01*
X32042858Y-25869428D02*
X32100000Y-25840857D01*
X32100000Y-25840857D02*
X32214286Y-25812285D01*
X32214286Y-25812285D02*
X32271429Y-25783714D01*
X32271429Y-25783714D02*
X32300000Y-25755142D01*
X32300000Y-25755142D02*
X32328572Y-25698000D01*
X32328572Y-25698000D02*
X32328572Y-25640857D01*
X32328572Y-25640857D02*
X32300000Y-25583714D01*
X32300000Y-25583714D02*
X32271429Y-25555142D01*
X32271429Y-25555142D02*
X32214286Y-25526571D01*
X32214286Y-25526571D02*
X32071429Y-25526571D01*
X32071429Y-25526571D02*
X31985715Y-25555142D01*
X31728571Y-26126571D02*
X31728571Y-25526571D01*
X31728571Y-25526571D02*
X31585714Y-25526571D01*
X31585714Y-25526571D02*
X31500000Y-25555142D01*
X31500000Y-25555142D02*
X31442857Y-25612285D01*
X31442857Y-25612285D02*
X31414286Y-25669428D01*
X31414286Y-25669428D02*
X31385714Y-25783714D01*
X31385714Y-25783714D02*
X31385714Y-25869428D01*
X31385714Y-25869428D02*
X31414286Y-25983714D01*
X31414286Y-25983714D02*
X31442857Y-26040857D01*
X31442857Y-26040857D02*
X31500000Y-26098000D01*
X31500000Y-26098000D02*
X31585714Y-26126571D01*
X31585714Y-26126571D02*
X31728571Y-26126571D01*
X30814286Y-26126571D02*
X31157143Y-26126571D01*
X30985714Y-26126571D02*
X30985714Y-25526571D01*
X30985714Y-25526571D02*
X31042857Y-25612285D01*
X31042857Y-25612285D02*
X31100000Y-25669428D01*
X31100000Y-25669428D02*
X31157143Y-25698000D01*
X19087714Y15885714D02*
X19059142Y15971428D01*
X19059142Y15971428D02*
X19030571Y15999999D01*
X19030571Y15999999D02*
X18973428Y16028571D01*
X18973428Y16028571D02*
X18887714Y16028571D01*
X18887714Y16028571D02*
X18830571Y15999999D01*
X18830571Y15999999D02*
X18802000Y15971428D01*
X18802000Y15971428D02*
X18773428Y15914285D01*
X18773428Y15914285D02*
X18773428Y15685714D01*
X18773428Y15685714D02*
X19373428Y15685714D01*
X19373428Y15685714D02*
X19373428Y15885714D01*
X19373428Y15885714D02*
X19344857Y15942857D01*
X19344857Y15942857D02*
X19316285Y15971428D01*
X19316285Y15971428D02*
X19259142Y15999999D01*
X19259142Y15999999D02*
X19202000Y15999999D01*
X19202000Y15999999D02*
X19144857Y15971428D01*
X19144857Y15971428D02*
X19116285Y15942857D01*
X19116285Y15942857D02*
X19087714Y15885714D01*
X19087714Y15885714D02*
X19087714Y15685714D01*
X19373428Y16199999D02*
X19373428Y16542857D01*
X18773428Y16371428D02*
X19373428Y16371428D01*
X18773428Y16742857D02*
X19373428Y16742857D01*
X19373428Y16742857D02*
X18773428Y17085714D01*
X18773428Y17085714D02*
X19373428Y17085714D01*
X19173428Y17628571D02*
X18773428Y17628571D01*
X19402000Y17485713D02*
X18973428Y17342856D01*
X18973428Y17342856D02*
X18973428Y17714285D01*
X19062714Y21010714D02*
X19034142Y21096428D01*
X19034142Y21096428D02*
X19005571Y21124999D01*
X19005571Y21124999D02*
X18948428Y21153571D01*
X18948428Y21153571D02*
X18862714Y21153571D01*
X18862714Y21153571D02*
X18805571Y21124999D01*
X18805571Y21124999D02*
X18777000Y21096428D01*
X18777000Y21096428D02*
X18748428Y21039285D01*
X18748428Y21039285D02*
X18748428Y20810714D01*
X18748428Y20810714D02*
X19348428Y20810714D01*
X19348428Y20810714D02*
X19348428Y21010714D01*
X19348428Y21010714D02*
X19319857Y21067857D01*
X19319857Y21067857D02*
X19291285Y21096428D01*
X19291285Y21096428D02*
X19234142Y21124999D01*
X19234142Y21124999D02*
X19177000Y21124999D01*
X19177000Y21124999D02*
X19119857Y21096428D01*
X19119857Y21096428D02*
X19091285Y21067857D01*
X19091285Y21067857D02*
X19062714Y21010714D01*
X19062714Y21010714D02*
X19062714Y20810714D01*
X19348428Y21324999D02*
X19348428Y21667857D01*
X18748428Y21496428D02*
X19348428Y21496428D01*
X18748428Y21867857D02*
X19348428Y21867857D01*
X19348428Y21867857D02*
X18748428Y22210714D01*
X18748428Y22210714D02*
X19348428Y22210714D01*
X19348428Y22753571D02*
X19348428Y22639285D01*
X19348428Y22639285D02*
X19319857Y22582142D01*
X19319857Y22582142D02*
X19291285Y22553571D01*
X19291285Y22553571D02*
X19205571Y22496428D01*
X19205571Y22496428D02*
X19091285Y22467856D01*
X19091285Y22467856D02*
X18862714Y22467856D01*
X18862714Y22467856D02*
X18805571Y22496428D01*
X18805571Y22496428D02*
X18777000Y22524999D01*
X18777000Y22524999D02*
X18748428Y22582142D01*
X18748428Y22582142D02*
X18748428Y22696428D01*
X18748428Y22696428D02*
X18777000Y22753571D01*
X18777000Y22753571D02*
X18805571Y22782142D01*
X18805571Y22782142D02*
X18862714Y22810713D01*
X18862714Y22810713D02*
X19005571Y22810713D01*
X19005571Y22810713D02*
X19062714Y22782142D01*
X19062714Y22782142D02*
X19091285Y22753571D01*
X19091285Y22753571D02*
X19119857Y22696428D01*
X19119857Y22696428D02*
X19119857Y22582142D01*
X19119857Y22582142D02*
X19091285Y22524999D01*
X19091285Y22524999D02*
X19062714Y22496428D01*
X19062714Y22496428D02*
X19005571Y22467856D01*
X36591809Y-42709523D02*
X36629904Y-42785713D01*
X36629904Y-42785713D02*
X36629904Y-42899999D01*
X36629904Y-42899999D02*
X36591809Y-43014285D01*
X36591809Y-43014285D02*
X36515619Y-43090475D01*
X36515619Y-43090475D02*
X36439428Y-43128570D01*
X36439428Y-43128570D02*
X36287047Y-43166666D01*
X36287047Y-43166666D02*
X36172761Y-43166666D01*
X36172761Y-43166666D02*
X36020380Y-43128570D01*
X36020380Y-43128570D02*
X35944190Y-43090475D01*
X35944190Y-43090475D02*
X35868000Y-43014285D01*
X35868000Y-43014285D02*
X35829904Y-42899999D01*
X35829904Y-42899999D02*
X35829904Y-42823808D01*
X35829904Y-42823808D02*
X35868000Y-42709523D01*
X35868000Y-42709523D02*
X35906095Y-42671427D01*
X35906095Y-42671427D02*
X36172761Y-42671427D01*
X36172761Y-42671427D02*
X36172761Y-42823808D01*
X35829904Y-42328570D02*
X36629904Y-42328570D01*
X36629904Y-42328570D02*
X35829904Y-41871427D01*
X35829904Y-41871427D02*
X36629904Y-41871427D01*
X35829904Y-41490475D02*
X36629904Y-41490475D01*
X36629904Y-41490475D02*
X36629904Y-41299999D01*
X36629904Y-41299999D02*
X36591809Y-41185713D01*
X36591809Y-41185713D02*
X36515619Y-41109523D01*
X36515619Y-41109523D02*
X36439428Y-41071428D01*
X36439428Y-41071428D02*
X36287047Y-41033332D01*
X36287047Y-41033332D02*
X36172761Y-41033332D01*
X36172761Y-41033332D02*
X36020380Y-41071428D01*
X36020380Y-41071428D02*
X35944190Y-41109523D01*
X35944190Y-41109523D02*
X35868000Y-41185713D01*
X35868000Y-41185713D02*
X35829904Y-41299999D01*
X35829904Y-41299999D02*
X35829904Y-41490475D01*
D10*
X31832380Y13623809D02*
X31118095Y13623809D01*
X31118095Y13623809D02*
X30975238Y13576190D01*
X30975238Y13576190D02*
X30880000Y13480952D01*
X30880000Y13480952D02*
X30832380Y13338095D01*
X30832380Y13338095D02*
X30832380Y13242857D01*
X31499047Y14528571D02*
X30832380Y14528571D01*
X31499047Y14100000D02*
X30975238Y14100000D01*
X30975238Y14100000D02*
X30880000Y14147619D01*
X30880000Y14147619D02*
X30832380Y14242857D01*
X30832380Y14242857D02*
X30832380Y14385714D01*
X30832380Y14385714D02*
X30880000Y14480952D01*
X30880000Y14480952D02*
X30927619Y14528571D01*
X30832380Y15004762D02*
X31499047Y15004762D01*
X31403809Y15004762D02*
X31451428Y15052381D01*
X31451428Y15052381D02*
X31499047Y15147619D01*
X31499047Y15147619D02*
X31499047Y15290476D01*
X31499047Y15290476D02*
X31451428Y15385714D01*
X31451428Y15385714D02*
X31356190Y15433333D01*
X31356190Y15433333D02*
X30832380Y15433333D01*
X31356190Y15433333D02*
X31451428Y15480952D01*
X31451428Y15480952D02*
X31499047Y15576190D01*
X31499047Y15576190D02*
X31499047Y15719047D01*
X31499047Y15719047D02*
X31451428Y15814286D01*
X31451428Y15814286D02*
X31356190Y15861905D01*
X31356190Y15861905D02*
X30832380Y15861905D01*
X31499047Y16338095D02*
X30499047Y16338095D01*
X31451428Y16338095D02*
X31499047Y16433333D01*
X31499047Y16433333D02*
X31499047Y16623809D01*
X31499047Y16623809D02*
X31451428Y16719047D01*
X31451428Y16719047D02*
X31403809Y16766666D01*
X31403809Y16766666D02*
X31308571Y16814285D01*
X31308571Y16814285D02*
X31022857Y16814285D01*
X31022857Y16814285D02*
X30927619Y16766666D01*
X30927619Y16766666D02*
X30880000Y16719047D01*
X30880000Y16719047D02*
X30832380Y16623809D01*
X30832380Y16623809D02*
X30832380Y16433333D01*
X30832380Y16433333D02*
X30880000Y16338095D01*
X30880000Y17623809D02*
X30832380Y17528571D01*
X30832380Y17528571D02*
X30832380Y17338095D01*
X30832380Y17338095D02*
X30880000Y17242857D01*
X30880000Y17242857D02*
X30975238Y17195238D01*
X30975238Y17195238D02*
X31356190Y17195238D01*
X31356190Y17195238D02*
X31451428Y17242857D01*
X31451428Y17242857D02*
X31499047Y17338095D01*
X31499047Y17338095D02*
X31499047Y17528571D01*
X31499047Y17528571D02*
X31451428Y17623809D01*
X31451428Y17623809D02*
X31356190Y17671428D01*
X31356190Y17671428D02*
X31260952Y17671428D01*
X31260952Y17671428D02*
X31165714Y17195238D01*
X30832380Y18100000D02*
X31499047Y18100000D01*
X31308571Y18100000D02*
X31403809Y18147619D01*
X31403809Y18147619D02*
X31451428Y18195238D01*
X31451428Y18195238D02*
X31499047Y18290476D01*
X31499047Y18290476D02*
X31499047Y18385714D01*
X31499047Y19385715D02*
X30832380Y19576191D01*
X30832380Y19576191D02*
X31308571Y19766667D01*
X31308571Y19766667D02*
X30832380Y19957143D01*
X30832380Y19957143D02*
X31499047Y20147619D01*
X30832380Y20528572D02*
X31499047Y20528572D01*
X31832380Y20528572D02*
X31784761Y20480953D01*
X31784761Y20480953D02*
X31737142Y20528572D01*
X31737142Y20528572D02*
X31784761Y20576191D01*
X31784761Y20576191D02*
X31832380Y20528572D01*
X31832380Y20528572D02*
X31737142Y20528572D01*
X30832380Y21004762D02*
X31499047Y21004762D01*
X31308571Y21004762D02*
X31403809Y21052381D01*
X31403809Y21052381D02*
X31451428Y21100000D01*
X31451428Y21100000D02*
X31499047Y21195238D01*
X31499047Y21195238D02*
X31499047Y21290476D01*
X30880000Y22004762D02*
X30832380Y21909524D01*
X30832380Y21909524D02*
X30832380Y21719048D01*
X30832380Y21719048D02*
X30880000Y21623810D01*
X30880000Y21623810D02*
X30975238Y21576191D01*
X30975238Y21576191D02*
X31356190Y21576191D01*
X31356190Y21576191D02*
X31451428Y21623810D01*
X31451428Y21623810D02*
X31499047Y21719048D01*
X31499047Y21719048D02*
X31499047Y21909524D01*
X31499047Y21909524D02*
X31451428Y22004762D01*
X31451428Y22004762D02*
X31356190Y22052381D01*
X31356190Y22052381D02*
X31260952Y22052381D01*
X31260952Y22052381D02*
X31165714Y21576191D01*
X29736190Y13671428D02*
X29688571Y13814285D01*
X29688571Y13814285D02*
X29640952Y13861904D01*
X29640952Y13861904D02*
X29545714Y13909523D01*
X29545714Y13909523D02*
X29402857Y13909523D01*
X29402857Y13909523D02*
X29307619Y13861904D01*
X29307619Y13861904D02*
X29260000Y13814285D01*
X29260000Y13814285D02*
X29212380Y13719047D01*
X29212380Y13719047D02*
X29212380Y13338095D01*
X29212380Y13338095D02*
X30212380Y13338095D01*
X30212380Y13338095D02*
X30212380Y13671428D01*
X30212380Y13671428D02*
X30164761Y13766666D01*
X30164761Y13766666D02*
X30117142Y13814285D01*
X30117142Y13814285D02*
X30021904Y13861904D01*
X30021904Y13861904D02*
X29926666Y13861904D01*
X29926666Y13861904D02*
X29831428Y13814285D01*
X29831428Y13814285D02*
X29783809Y13766666D01*
X29783809Y13766666D02*
X29736190Y13671428D01*
X29736190Y13671428D02*
X29736190Y13338095D01*
X29879047Y14766666D02*
X29212380Y14766666D01*
X29879047Y14338095D02*
X29355238Y14338095D01*
X29355238Y14338095D02*
X29260000Y14385714D01*
X29260000Y14385714D02*
X29212380Y14480952D01*
X29212380Y14480952D02*
X29212380Y14623809D01*
X29212380Y14623809D02*
X29260000Y14719047D01*
X29260000Y14719047D02*
X29307619Y14766666D01*
X29879047Y15100000D02*
X29879047Y15480952D01*
X30212380Y15242857D02*
X29355238Y15242857D01*
X29355238Y15242857D02*
X29260000Y15290476D01*
X29260000Y15290476D02*
X29212380Y15385714D01*
X29212380Y15385714D02*
X29212380Y15480952D01*
X29879047Y15671429D02*
X29879047Y16052381D01*
X30212380Y15814286D02*
X29355238Y15814286D01*
X29355238Y15814286D02*
X29260000Y15861905D01*
X29260000Y15861905D02*
X29212380Y15957143D01*
X29212380Y15957143D02*
X29212380Y16052381D01*
X29212380Y16528572D02*
X29260000Y16433334D01*
X29260000Y16433334D02*
X29307619Y16385715D01*
X29307619Y16385715D02*
X29402857Y16338096D01*
X29402857Y16338096D02*
X29688571Y16338096D01*
X29688571Y16338096D02*
X29783809Y16385715D01*
X29783809Y16385715D02*
X29831428Y16433334D01*
X29831428Y16433334D02*
X29879047Y16528572D01*
X29879047Y16528572D02*
X29879047Y16671429D01*
X29879047Y16671429D02*
X29831428Y16766667D01*
X29831428Y16766667D02*
X29783809Y16814286D01*
X29783809Y16814286D02*
X29688571Y16861905D01*
X29688571Y16861905D02*
X29402857Y16861905D01*
X29402857Y16861905D02*
X29307619Y16814286D01*
X29307619Y16814286D02*
X29260000Y16766667D01*
X29260000Y16766667D02*
X29212380Y16671429D01*
X29212380Y16671429D02*
X29212380Y16528572D01*
X29879047Y17290477D02*
X29212380Y17290477D01*
X29783809Y17290477D02*
X29831428Y17338096D01*
X29831428Y17338096D02*
X29879047Y17433334D01*
X29879047Y17433334D02*
X29879047Y17576191D01*
X29879047Y17576191D02*
X29831428Y17671429D01*
X29831428Y17671429D02*
X29736190Y17719048D01*
X29736190Y17719048D02*
X29212380Y17719048D01*
X29260000Y18147620D02*
X29212380Y18242858D01*
X29212380Y18242858D02*
X29212380Y18433334D01*
X29212380Y18433334D02*
X29260000Y18528572D01*
X29260000Y18528572D02*
X29355238Y18576191D01*
X29355238Y18576191D02*
X29402857Y18576191D01*
X29402857Y18576191D02*
X29498095Y18528572D01*
X29498095Y18528572D02*
X29545714Y18433334D01*
X29545714Y18433334D02*
X29545714Y18290477D01*
X29545714Y18290477D02*
X29593333Y18195239D01*
X29593333Y18195239D02*
X29688571Y18147620D01*
X29688571Y18147620D02*
X29736190Y18147620D01*
X29736190Y18147620D02*
X29831428Y18195239D01*
X29831428Y18195239D02*
X29879047Y18290477D01*
X29879047Y18290477D02*
X29879047Y18433334D01*
X29879047Y18433334D02*
X29831428Y18528572D01*
X27592380Y13861904D02*
X27592380Y13290476D01*
X27592380Y13576190D02*
X28592380Y13576190D01*
X28592380Y13576190D02*
X28449523Y13480952D01*
X28449523Y13480952D02*
X28354285Y13385714D01*
X28354285Y13385714D02*
X28306666Y13290476D01*
X27973333Y14290476D02*
X27973333Y15052381D01*
X28592380Y16004761D02*
X28592380Y15528571D01*
X28592380Y15528571D02*
X28116190Y15480952D01*
X28116190Y15480952D02*
X28163809Y15528571D01*
X28163809Y15528571D02*
X28211428Y15623809D01*
X28211428Y15623809D02*
X28211428Y15861904D01*
X28211428Y15861904D02*
X28163809Y15957142D01*
X28163809Y15957142D02*
X28116190Y16004761D01*
X28116190Y16004761D02*
X28020952Y16052380D01*
X28020952Y16052380D02*
X27782857Y16052380D01*
X27782857Y16052380D02*
X27687619Y16004761D01*
X27687619Y16004761D02*
X27640000Y15957142D01*
X27640000Y15957142D02*
X27592380Y15861904D01*
X27592380Y15861904D02*
X27592380Y15623809D01*
X27592380Y15623809D02*
X27640000Y15528571D01*
X27640000Y15528571D02*
X27687619Y15480952D01*
X27640000Y16528571D02*
X27592380Y16528571D01*
X27592380Y16528571D02*
X27497142Y16480952D01*
X27497142Y16480952D02*
X27449523Y16433333D01*
X28497142Y17671428D02*
X28544761Y17719047D01*
X28544761Y17719047D02*
X28592380Y17814285D01*
X28592380Y17814285D02*
X28592380Y18052380D01*
X28592380Y18052380D02*
X28544761Y18147618D01*
X28544761Y18147618D02*
X28497142Y18195237D01*
X28497142Y18195237D02*
X28401904Y18242856D01*
X28401904Y18242856D02*
X28306666Y18242856D01*
X28306666Y18242856D02*
X28163809Y18195237D01*
X28163809Y18195237D02*
X27592380Y17623809D01*
X27592380Y17623809D02*
X27592380Y18242856D01*
X27973333Y18671428D02*
X27973333Y19433333D01*
X28592380Y20338094D02*
X28592380Y20147618D01*
X28592380Y20147618D02*
X28544761Y20052380D01*
X28544761Y20052380D02*
X28497142Y20004761D01*
X28497142Y20004761D02*
X28354285Y19909523D01*
X28354285Y19909523D02*
X28163809Y19861904D01*
X28163809Y19861904D02*
X27782857Y19861904D01*
X27782857Y19861904D02*
X27687619Y19909523D01*
X27687619Y19909523D02*
X27640000Y19957142D01*
X27640000Y19957142D02*
X27592380Y20052380D01*
X27592380Y20052380D02*
X27592380Y20242856D01*
X27592380Y20242856D02*
X27640000Y20338094D01*
X27640000Y20338094D02*
X27687619Y20385713D01*
X27687619Y20385713D02*
X27782857Y20433332D01*
X27782857Y20433332D02*
X28020952Y20433332D01*
X28020952Y20433332D02*
X28116190Y20385713D01*
X28116190Y20385713D02*
X28163809Y20338094D01*
X28163809Y20338094D02*
X28211428Y20242856D01*
X28211428Y20242856D02*
X28211428Y20052380D01*
X28211428Y20052380D02*
X28163809Y19957142D01*
X28163809Y19957142D02*
X28116190Y19909523D01*
X28116190Y19909523D02*
X28020952Y19861904D01*
X27640000Y20909523D02*
X27592380Y20909523D01*
X27592380Y20909523D02*
X27497142Y20861904D01*
X27497142Y20861904D02*
X27449523Y20814285D01*
X26972380Y13242857D02*
X26972380Y13861904D01*
X26972380Y13861904D02*
X26591428Y13528571D01*
X26591428Y13528571D02*
X26591428Y13671428D01*
X26591428Y13671428D02*
X26543809Y13766666D01*
X26543809Y13766666D02*
X26496190Y13814285D01*
X26496190Y13814285D02*
X26400952Y13861904D01*
X26400952Y13861904D02*
X26162857Y13861904D01*
X26162857Y13861904D02*
X26067619Y13814285D01*
X26067619Y13814285D02*
X26020000Y13766666D01*
X26020000Y13766666D02*
X25972380Y13671428D01*
X25972380Y13671428D02*
X25972380Y13385714D01*
X25972380Y13385714D02*
X26020000Y13290476D01*
X26020000Y13290476D02*
X26067619Y13242857D01*
X26353333Y14290476D02*
X26353333Y15052381D01*
X26972380Y15433333D02*
X26972380Y16099999D01*
X26972380Y16099999D02*
X25972380Y15671428D01*
X26020000Y16528571D02*
X25972380Y16528571D01*
X25972380Y16528571D02*
X25877142Y16480952D01*
X25877142Y16480952D02*
X25829523Y16433333D01*
X26639047Y18147618D02*
X25972380Y18147618D01*
X27020000Y17909523D02*
X26305714Y17671428D01*
X26305714Y17671428D02*
X26305714Y18290475D01*
X26353333Y18671428D02*
X26353333Y19433333D01*
X26543809Y20052380D02*
X26591428Y19957142D01*
X26591428Y19957142D02*
X26639047Y19909523D01*
X26639047Y19909523D02*
X26734285Y19861904D01*
X26734285Y19861904D02*
X26781904Y19861904D01*
X26781904Y19861904D02*
X26877142Y19909523D01*
X26877142Y19909523D02*
X26924761Y19957142D01*
X26924761Y19957142D02*
X26972380Y20052380D01*
X26972380Y20052380D02*
X26972380Y20242856D01*
X26972380Y20242856D02*
X26924761Y20338094D01*
X26924761Y20338094D02*
X26877142Y20385713D01*
X26877142Y20385713D02*
X26781904Y20433332D01*
X26781904Y20433332D02*
X26734285Y20433332D01*
X26734285Y20433332D02*
X26639047Y20385713D01*
X26639047Y20385713D02*
X26591428Y20338094D01*
X26591428Y20338094D02*
X26543809Y20242856D01*
X26543809Y20242856D02*
X26543809Y20052380D01*
X26543809Y20052380D02*
X26496190Y19957142D01*
X26496190Y19957142D02*
X26448571Y19909523D01*
X26448571Y19909523D02*
X26353333Y19861904D01*
X26353333Y19861904D02*
X26162857Y19861904D01*
X26162857Y19861904D02*
X26067619Y19909523D01*
X26067619Y19909523D02*
X26020000Y19957142D01*
X26020000Y19957142D02*
X25972380Y20052380D01*
X25972380Y20052380D02*
X25972380Y20242856D01*
X25972380Y20242856D02*
X26020000Y20338094D01*
X26020000Y20338094D02*
X26067619Y20385713D01*
X26067619Y20385713D02*
X26162857Y20433332D01*
X26162857Y20433332D02*
X26353333Y20433332D01*
X26353333Y20433332D02*
X26448571Y20385713D01*
X26448571Y20385713D02*
X26496190Y20338094D01*
X26496190Y20338094D02*
X26543809Y20242856D01*
X27717380Y26913095D02*
X28717380Y26913095D01*
X28717380Y26913095D02*
X28003095Y27246428D01*
X28003095Y27246428D02*
X28717380Y27579761D01*
X28717380Y27579761D02*
X27717380Y27579761D01*
X28384047Y28484523D02*
X27717380Y28484523D01*
X28384047Y28055952D02*
X27860238Y28055952D01*
X27860238Y28055952D02*
X27765000Y28103571D01*
X27765000Y28103571D02*
X27717380Y28198809D01*
X27717380Y28198809D02*
X27717380Y28341666D01*
X27717380Y28341666D02*
X27765000Y28436904D01*
X27765000Y28436904D02*
X27812619Y28484523D01*
X27717380Y28865476D02*
X28384047Y29389285D01*
X28384047Y28865476D02*
X27717380Y29389285D01*
X26097380Y27436904D02*
X26097380Y26865476D01*
X26097380Y27151190D02*
X27097380Y27151190D01*
X27097380Y27151190D02*
X26954523Y27055952D01*
X26954523Y27055952D02*
X26859285Y26960714D01*
X26859285Y26960714D02*
X26811666Y26865476D01*
X26478333Y27865476D02*
X26478333Y28627381D01*
X27002142Y29055952D02*
X27049761Y29103571D01*
X27049761Y29103571D02*
X27097380Y29198809D01*
X27097380Y29198809D02*
X27097380Y29436904D01*
X27097380Y29436904D02*
X27049761Y29532142D01*
X27049761Y29532142D02*
X27002142Y29579761D01*
X27002142Y29579761D02*
X26906904Y29627380D01*
X26906904Y29627380D02*
X26811666Y29627380D01*
X26811666Y29627380D02*
X26668809Y29579761D01*
X26668809Y29579761D02*
X26097380Y29008333D01*
X26097380Y29008333D02*
X26097380Y29627380D01*
D11*
X25634523Y-48884190D02*
X25710713Y-48846095D01*
X25710713Y-48846095D02*
X25824999Y-48846095D01*
X25824999Y-48846095D02*
X25939285Y-48884190D01*
X25939285Y-48884190D02*
X26015475Y-48960380D01*
X26015475Y-48960380D02*
X26053570Y-49036571D01*
X26053570Y-49036571D02*
X26091666Y-49188952D01*
X26091666Y-49188952D02*
X26091666Y-49303238D01*
X26091666Y-49303238D02*
X26053570Y-49455619D01*
X26053570Y-49455619D02*
X26015475Y-49531809D01*
X26015475Y-49531809D02*
X25939285Y-49608000D01*
X25939285Y-49608000D02*
X25824999Y-49646095D01*
X25824999Y-49646095D02*
X25748808Y-49646095D01*
X25748808Y-49646095D02*
X25634523Y-49608000D01*
X25634523Y-49608000D02*
X25596427Y-49569904D01*
X25596427Y-49569904D02*
X25596427Y-49303238D01*
X25596427Y-49303238D02*
X25748808Y-49303238D01*
X25253570Y-49646095D02*
X25253570Y-48846095D01*
X25253570Y-48846095D02*
X24796427Y-49646095D01*
X24796427Y-49646095D02*
X24796427Y-48846095D01*
X24415475Y-49646095D02*
X24415475Y-48846095D01*
X24415475Y-48846095D02*
X24224999Y-48846095D01*
X24224999Y-48846095D02*
X24110713Y-48884190D01*
X24110713Y-48884190D02*
X24034523Y-48960380D01*
X24034523Y-48960380D02*
X23996428Y-49036571D01*
X23996428Y-49036571D02*
X23958332Y-49188952D01*
X23958332Y-49188952D02*
X23958332Y-49303238D01*
X23958332Y-49303238D02*
X23996428Y-49455619D01*
X23996428Y-49455619D02*
X24034523Y-49531809D01*
X24034523Y-49531809D02*
X24110713Y-49608000D01*
X24110713Y-49608000D02*
X24224999Y-49646095D01*
X24224999Y-49646095D02*
X24415475Y-49646095D01*
X30852000Y28332141D02*
X30823428Y28417856D01*
X30823428Y28417856D02*
X30823428Y28560713D01*
X30823428Y28560713D02*
X30852000Y28617856D01*
X30852000Y28617856D02*
X30880571Y28646427D01*
X30880571Y28646427D02*
X30937714Y28674998D01*
X30937714Y28674998D02*
X30994857Y28674998D01*
X30994857Y28674998D02*
X31052000Y28646427D01*
X31052000Y28646427D02*
X31080571Y28617856D01*
X31080571Y28617856D02*
X31109142Y28560713D01*
X31109142Y28560713D02*
X31137714Y28446427D01*
X31137714Y28446427D02*
X31166285Y28389284D01*
X31166285Y28389284D02*
X31194857Y28360713D01*
X31194857Y28360713D02*
X31252000Y28332141D01*
X31252000Y28332141D02*
X31309142Y28332141D01*
X31309142Y28332141D02*
X31366285Y28360713D01*
X31366285Y28360713D02*
X31394857Y28389284D01*
X31394857Y28389284D02*
X31423428Y28446427D01*
X31423428Y28446427D02*
X31423428Y28589284D01*
X31423428Y28589284D02*
X31394857Y28674998D01*
X30823428Y28932142D02*
X31423428Y28932142D01*
X31423428Y28932142D02*
X31423428Y29074999D01*
X31423428Y29074999D02*
X31394857Y29160713D01*
X31394857Y29160713D02*
X31337714Y29217856D01*
X31337714Y29217856D02*
X31280571Y29246427D01*
X31280571Y29246427D02*
X31166285Y29274999D01*
X31166285Y29274999D02*
X31080571Y29274999D01*
X31080571Y29274999D02*
X30966285Y29246427D01*
X30966285Y29246427D02*
X30909142Y29217856D01*
X30909142Y29217856D02*
X30852000Y29160713D01*
X30852000Y29160713D02*
X30823428Y29074999D01*
X30823428Y29074999D02*
X30823428Y28932142D01*
X30994857Y29503570D02*
X30994857Y29789285D01*
X30823428Y29446427D02*
X31423428Y29646427D01*
X31423428Y29646427D02*
X30823428Y29846427D01*
X31366285Y30017856D02*
X31394857Y30046428D01*
X31394857Y30046428D02*
X31423428Y30103571D01*
X31423428Y30103571D02*
X31423428Y30246428D01*
X31423428Y30246428D02*
X31394857Y30303571D01*
X31394857Y30303571D02*
X31366285Y30332142D01*
X31366285Y30332142D02*
X31309142Y30360713D01*
X31309142Y30360713D02*
X31252000Y30360713D01*
X31252000Y30360713D02*
X31166285Y30332142D01*
X31166285Y30332142D02*
X30823428Y29989285D01*
X30823428Y29989285D02*
X30823428Y30360713D01*
X19128572Y-15098000D02*
X19042858Y-15126571D01*
X19042858Y-15126571D02*
X18900000Y-15126571D01*
X18900000Y-15126571D02*
X18842858Y-15098000D01*
X18842858Y-15098000D02*
X18814286Y-15069428D01*
X18814286Y-15069428D02*
X18785715Y-15012285D01*
X18785715Y-15012285D02*
X18785715Y-14955142D01*
X18785715Y-14955142D02*
X18814286Y-14898000D01*
X18814286Y-14898000D02*
X18842858Y-14869428D01*
X18842858Y-14869428D02*
X18900000Y-14840857D01*
X18900000Y-14840857D02*
X19014286Y-14812285D01*
X19014286Y-14812285D02*
X19071429Y-14783714D01*
X19071429Y-14783714D02*
X19100000Y-14755142D01*
X19100000Y-14755142D02*
X19128572Y-14698000D01*
X19128572Y-14698000D02*
X19128572Y-14640857D01*
X19128572Y-14640857D02*
X19100000Y-14583714D01*
X19100000Y-14583714D02*
X19071429Y-14555142D01*
X19071429Y-14555142D02*
X19014286Y-14526571D01*
X19014286Y-14526571D02*
X18871429Y-14526571D01*
X18871429Y-14526571D02*
X18785715Y-14555142D01*
X18185714Y-15069428D02*
X18214286Y-15098000D01*
X18214286Y-15098000D02*
X18300000Y-15126571D01*
X18300000Y-15126571D02*
X18357143Y-15126571D01*
X18357143Y-15126571D02*
X18442857Y-15098000D01*
X18442857Y-15098000D02*
X18500000Y-15040857D01*
X18500000Y-15040857D02*
X18528571Y-14983714D01*
X18528571Y-14983714D02*
X18557143Y-14869428D01*
X18557143Y-14869428D02*
X18557143Y-14783714D01*
X18557143Y-14783714D02*
X18528571Y-14669428D01*
X18528571Y-14669428D02*
X18500000Y-14612285D01*
X18500000Y-14612285D02*
X18442857Y-14555142D01*
X18442857Y-14555142D02*
X18357143Y-14526571D01*
X18357143Y-14526571D02*
X18300000Y-14526571D01*
X18300000Y-14526571D02*
X18214286Y-14555142D01*
X18214286Y-14555142D02*
X18185714Y-14583714D01*
X17671429Y-14526571D02*
X17785714Y-14526571D01*
X17785714Y-14526571D02*
X17842857Y-14555142D01*
X17842857Y-14555142D02*
X17871429Y-14583714D01*
X17871429Y-14583714D02*
X17928571Y-14669428D01*
X17928571Y-14669428D02*
X17957143Y-14783714D01*
X17957143Y-14783714D02*
X17957143Y-15012285D01*
X17957143Y-15012285D02*
X17928571Y-15069428D01*
X17928571Y-15069428D02*
X17900000Y-15098000D01*
X17900000Y-15098000D02*
X17842857Y-15126571D01*
X17842857Y-15126571D02*
X17728571Y-15126571D01*
X17728571Y-15126571D02*
X17671429Y-15098000D01*
X17671429Y-15098000D02*
X17642857Y-15069428D01*
X17642857Y-15069428D02*
X17614286Y-15012285D01*
X17614286Y-15012285D02*
X17614286Y-14869428D01*
X17614286Y-14869428D02*
X17642857Y-14812285D01*
X17642857Y-14812285D02*
X17671429Y-14783714D01*
X17671429Y-14783714D02*
X17728571Y-14755142D01*
X17728571Y-14755142D02*
X17842857Y-14755142D01*
X17842857Y-14755142D02*
X17900000Y-14783714D01*
X17900000Y-14783714D02*
X17928571Y-14812285D01*
X17928571Y-14812285D02*
X17957143Y-14869428D01*
X31071428Y39773428D02*
X31357142Y39773428D01*
X31357142Y39773428D02*
X31357142Y40373428D01*
X30871428Y40087714D02*
X30671428Y40087714D01*
X30585714Y39773428D02*
X30871428Y39773428D01*
X30871428Y39773428D02*
X30871428Y40373428D01*
X30871428Y40373428D02*
X30585714Y40373428D01*
X30328571Y39773428D02*
X30328571Y40373428D01*
X30328571Y40373428D02*
X30185714Y40373428D01*
X30185714Y40373428D02*
X30100000Y40344857D01*
X30100000Y40344857D02*
X30042857Y40287714D01*
X30042857Y40287714D02*
X30014286Y40230571D01*
X30014286Y40230571D02*
X29985714Y40116285D01*
X29985714Y40116285D02*
X29985714Y40030571D01*
X29985714Y40030571D02*
X30014286Y39916285D01*
X30014286Y39916285D02*
X30042857Y39859142D01*
X30042857Y39859142D02*
X30100000Y39802000D01*
X30100000Y39802000D02*
X30185714Y39773428D01*
X30185714Y39773428D02*
X30328571Y39773428D01*
X29642857Y40116285D02*
X29700000Y40144857D01*
X29700000Y40144857D02*
X29728571Y40173428D01*
X29728571Y40173428D02*
X29757143Y40230571D01*
X29757143Y40230571D02*
X29757143Y40259142D01*
X29757143Y40259142D02*
X29728571Y40316285D01*
X29728571Y40316285D02*
X29700000Y40344857D01*
X29700000Y40344857D02*
X29642857Y40373428D01*
X29642857Y40373428D02*
X29528571Y40373428D01*
X29528571Y40373428D02*
X29471429Y40344857D01*
X29471429Y40344857D02*
X29442857Y40316285D01*
X29442857Y40316285D02*
X29414286Y40259142D01*
X29414286Y40259142D02*
X29414286Y40230571D01*
X29414286Y40230571D02*
X29442857Y40173428D01*
X29442857Y40173428D02*
X29471429Y40144857D01*
X29471429Y40144857D02*
X29528571Y40116285D01*
X29528571Y40116285D02*
X29642857Y40116285D01*
X29642857Y40116285D02*
X29700000Y40087714D01*
X29700000Y40087714D02*
X29728571Y40059142D01*
X29728571Y40059142D02*
X29757143Y40002000D01*
X29757143Y40002000D02*
X29757143Y39887714D01*
X29757143Y39887714D02*
X29728571Y39830571D01*
X29728571Y39830571D02*
X29700000Y39802000D01*
X29700000Y39802000D02*
X29642857Y39773428D01*
X29642857Y39773428D02*
X29528571Y39773428D01*
X29528571Y39773428D02*
X29471429Y39802000D01*
X29471429Y39802000D02*
X29442857Y39830571D01*
X29442857Y39830571D02*
X29414286Y39887714D01*
X29414286Y39887714D02*
X29414286Y40002000D01*
X29414286Y40002000D02*
X29442857Y40059142D01*
X29442857Y40059142D02*
X29471429Y40087714D01*
X29471429Y40087714D02*
X29528571Y40116285D01*
X20996428Y35948428D02*
X21282142Y35948428D01*
X21282142Y35948428D02*
X21282142Y36548428D01*
X20796428Y36262714D02*
X20596428Y36262714D01*
X20510714Y35948428D02*
X20796428Y35948428D01*
X20796428Y35948428D02*
X20796428Y36548428D01*
X20796428Y36548428D02*
X20510714Y36548428D01*
X20253571Y35948428D02*
X20253571Y36548428D01*
X20253571Y36548428D02*
X20110714Y36548428D01*
X20110714Y36548428D02*
X20025000Y36519857D01*
X20025000Y36519857D02*
X19967857Y36462714D01*
X19967857Y36462714D02*
X19939286Y36405571D01*
X19939286Y36405571D02*
X19910714Y36291285D01*
X19910714Y36291285D02*
X19910714Y36205571D01*
X19910714Y36205571D02*
X19939286Y36091285D01*
X19939286Y36091285D02*
X19967857Y36034142D01*
X19967857Y36034142D02*
X20025000Y35977000D01*
X20025000Y35977000D02*
X20110714Y35948428D01*
X20110714Y35948428D02*
X20253571Y35948428D01*
X19396429Y36348428D02*
X19396429Y35948428D01*
X19539286Y36577000D02*
X19682143Y36148428D01*
X19682143Y36148428D02*
X19310714Y36148428D01*
X19398428Y28653571D02*
X19398428Y28367857D01*
X19398428Y28367857D02*
X19998428Y28367857D01*
X19712714Y28853571D02*
X19712714Y29053571D01*
X19398428Y29139285D02*
X19398428Y28853571D01*
X19398428Y28853571D02*
X19998428Y28853571D01*
X19998428Y28853571D02*
X19998428Y29139285D01*
X19398428Y29396428D02*
X19998428Y29396428D01*
X19998428Y29396428D02*
X19998428Y29539285D01*
X19998428Y29539285D02*
X19969857Y29624999D01*
X19969857Y29624999D02*
X19912714Y29682142D01*
X19912714Y29682142D02*
X19855571Y29710713D01*
X19855571Y29710713D02*
X19741285Y29739285D01*
X19741285Y29739285D02*
X19655571Y29739285D01*
X19655571Y29739285D02*
X19541285Y29710713D01*
X19541285Y29710713D02*
X19484142Y29682142D01*
X19484142Y29682142D02*
X19427000Y29624999D01*
X19427000Y29624999D02*
X19398428Y29539285D01*
X19398428Y29539285D02*
X19398428Y29396428D01*
X19398428Y30310713D02*
X19398428Y29967856D01*
X19398428Y30139285D02*
X19998428Y30139285D01*
X19998428Y30139285D02*
X19912714Y30082142D01*
X19912714Y30082142D02*
X19855571Y30024999D01*
X19855571Y30024999D02*
X19827000Y29967856D01*
X19053572Y-22698000D02*
X18967858Y-22726571D01*
X18967858Y-22726571D02*
X18825000Y-22726571D01*
X18825000Y-22726571D02*
X18767858Y-22698000D01*
X18767858Y-22698000D02*
X18739286Y-22669428D01*
X18739286Y-22669428D02*
X18710715Y-22612285D01*
X18710715Y-22612285D02*
X18710715Y-22555142D01*
X18710715Y-22555142D02*
X18739286Y-22498000D01*
X18739286Y-22498000D02*
X18767858Y-22469428D01*
X18767858Y-22469428D02*
X18825000Y-22440857D01*
X18825000Y-22440857D02*
X18939286Y-22412285D01*
X18939286Y-22412285D02*
X18996429Y-22383714D01*
X18996429Y-22383714D02*
X19025000Y-22355142D01*
X19025000Y-22355142D02*
X19053572Y-22298000D01*
X19053572Y-22298000D02*
X19053572Y-22240857D01*
X19053572Y-22240857D02*
X19025000Y-22183714D01*
X19025000Y-22183714D02*
X18996429Y-22155142D01*
X18996429Y-22155142D02*
X18939286Y-22126571D01*
X18939286Y-22126571D02*
X18796429Y-22126571D01*
X18796429Y-22126571D02*
X18710715Y-22155142D01*
X18453571Y-22726571D02*
X18453571Y-22126571D01*
X18453571Y-22126571D02*
X18310714Y-22126571D01*
X18310714Y-22126571D02*
X18225000Y-22155142D01*
X18225000Y-22155142D02*
X18167857Y-22212285D01*
X18167857Y-22212285D02*
X18139286Y-22269428D01*
X18139286Y-22269428D02*
X18110714Y-22383714D01*
X18110714Y-22383714D02*
X18110714Y-22469428D01*
X18110714Y-22469428D02*
X18139286Y-22583714D01*
X18139286Y-22583714D02*
X18167857Y-22640857D01*
X18167857Y-22640857D02*
X18225000Y-22698000D01*
X18225000Y-22698000D02*
X18310714Y-22726571D01*
X18310714Y-22726571D02*
X18453571Y-22726571D01*
X17567857Y-22126571D02*
X17853571Y-22126571D01*
X17853571Y-22126571D02*
X17882143Y-22412285D01*
X17882143Y-22412285D02*
X17853571Y-22383714D01*
X17853571Y-22383714D02*
X17796429Y-22355142D01*
X17796429Y-22355142D02*
X17653571Y-22355142D01*
X17653571Y-22355142D02*
X17596429Y-22383714D01*
X17596429Y-22383714D02*
X17567857Y-22412285D01*
X17567857Y-22412285D02*
X17539286Y-22469428D01*
X17539286Y-22469428D02*
X17539286Y-22612285D01*
X17539286Y-22612285D02*
X17567857Y-22669428D01*
X17567857Y-22669428D02*
X17596429Y-22698000D01*
X17596429Y-22698000D02*
X17653571Y-22726571D01*
X17653571Y-22726571D02*
X17796429Y-22726571D01*
X17796429Y-22726571D02*
X17853571Y-22698000D01*
X17853571Y-22698000D02*
X17882143Y-22669428D01*
X34799999Y50996666D02*
X34190476Y50996666D01*
X34495237Y50691904D02*
X34495237Y51301428D01*
X33885714Y51491904D02*
X33390476Y51491904D01*
X33390476Y51491904D02*
X33657142Y51187142D01*
X33657142Y51187142D02*
X33542857Y51187142D01*
X33542857Y51187142D02*
X33466666Y51149047D01*
X33466666Y51149047D02*
X33428571Y51110952D01*
X33428571Y51110952D02*
X33390476Y51034761D01*
X33390476Y51034761D02*
X33390476Y50844285D01*
X33390476Y50844285D02*
X33428571Y50768095D01*
X33428571Y50768095D02*
X33466666Y50730000D01*
X33466666Y50730000D02*
X33542857Y50691904D01*
X33542857Y50691904D02*
X33771428Y50691904D01*
X33771428Y50691904D02*
X33847619Y50730000D01*
X33847619Y50730000D02*
X33885714Y50768095D01*
X33047618Y50768095D02*
X33009523Y50730000D01*
X33009523Y50730000D02*
X33047618Y50691904D01*
X33047618Y50691904D02*
X33085714Y50730000D01*
X33085714Y50730000D02*
X33047618Y50768095D01*
X33047618Y50768095D02*
X33047618Y50691904D01*
X32742857Y51491904D02*
X32247619Y51491904D01*
X32247619Y51491904D02*
X32514285Y51187142D01*
X32514285Y51187142D02*
X32400000Y51187142D01*
X32400000Y51187142D02*
X32323809Y51149047D01*
X32323809Y51149047D02*
X32285714Y51110952D01*
X32285714Y51110952D02*
X32247619Y51034761D01*
X32247619Y51034761D02*
X32247619Y50844285D01*
X32247619Y50844285D02*
X32285714Y50768095D01*
X32285714Y50768095D02*
X32323809Y50730000D01*
X32323809Y50730000D02*
X32400000Y50691904D01*
X32400000Y50691904D02*
X32628571Y50691904D01*
X32628571Y50691904D02*
X32704762Y50730000D01*
X32704762Y50730000D02*
X32742857Y50768095D01*
X32019047Y51491904D02*
X31752380Y50691904D01*
X31752380Y50691904D02*
X31485714Y51491904D01*
X19053572Y-28698000D02*
X18967858Y-28726571D01*
X18967858Y-28726571D02*
X18825000Y-28726571D01*
X18825000Y-28726571D02*
X18767858Y-28698000D01*
X18767858Y-28698000D02*
X18739286Y-28669428D01*
X18739286Y-28669428D02*
X18710715Y-28612285D01*
X18710715Y-28612285D02*
X18710715Y-28555142D01*
X18710715Y-28555142D02*
X18739286Y-28498000D01*
X18739286Y-28498000D02*
X18767858Y-28469428D01*
X18767858Y-28469428D02*
X18825000Y-28440857D01*
X18825000Y-28440857D02*
X18939286Y-28412285D01*
X18939286Y-28412285D02*
X18996429Y-28383714D01*
X18996429Y-28383714D02*
X19025000Y-28355142D01*
X19025000Y-28355142D02*
X19053572Y-28298000D01*
X19053572Y-28298000D02*
X19053572Y-28240857D01*
X19053572Y-28240857D02*
X19025000Y-28183714D01*
X19025000Y-28183714D02*
X18996429Y-28155142D01*
X18996429Y-28155142D02*
X18939286Y-28126571D01*
X18939286Y-28126571D02*
X18796429Y-28126571D01*
X18796429Y-28126571D02*
X18710715Y-28155142D01*
X18453571Y-28726571D02*
X18453571Y-28126571D01*
X18453571Y-28126571D02*
X18310714Y-28126571D01*
X18310714Y-28126571D02*
X18225000Y-28155142D01*
X18225000Y-28155142D02*
X18167857Y-28212285D01*
X18167857Y-28212285D02*
X18139286Y-28269428D01*
X18139286Y-28269428D02*
X18110714Y-28383714D01*
X18110714Y-28383714D02*
X18110714Y-28469428D01*
X18110714Y-28469428D02*
X18139286Y-28583714D01*
X18139286Y-28583714D02*
X18167857Y-28640857D01*
X18167857Y-28640857D02*
X18225000Y-28698000D01*
X18225000Y-28698000D02*
X18310714Y-28726571D01*
X18310714Y-28726571D02*
X18453571Y-28726571D01*
X17596429Y-28326571D02*
X17596429Y-28726571D01*
X17739286Y-28098000D02*
X17882143Y-28526571D01*
X17882143Y-28526571D02*
X17510714Y-28526571D01*
D10*
X31211904Y92380D02*
X31211904Y1092380D01*
X30878571Y759047D02*
X30497619Y759047D01*
X30735714Y92380D02*
X30735714Y949523D01*
X30735714Y949523D02*
X30688095Y1044761D01*
X30688095Y1044761D02*
X30592857Y1092380D01*
X30592857Y1092380D02*
X30497619Y1092380D01*
X29402380Y92380D02*
X29402380Y1092380D01*
X29402380Y1092380D02*
X28830952Y92380D01*
X28830952Y92380D02*
X28830952Y1092380D01*
X28211904Y92380D02*
X28307142Y140000D01*
X28307142Y140000D02*
X28354761Y187619D01*
X28354761Y187619D02*
X28402380Y282857D01*
X28402380Y282857D02*
X28402380Y568571D01*
X28402380Y568571D02*
X28354761Y663809D01*
X28354761Y663809D02*
X28307142Y711428D01*
X28307142Y711428D02*
X28211904Y759047D01*
X28211904Y759047D02*
X28069047Y759047D01*
X28069047Y759047D02*
X27973809Y711428D01*
X27973809Y711428D02*
X27926190Y663809D01*
X27926190Y663809D02*
X27878571Y568571D01*
X27878571Y568571D02*
X27878571Y282857D01*
X27878571Y282857D02*
X27926190Y187619D01*
X27926190Y187619D02*
X27973809Y140000D01*
X27973809Y140000D02*
X28069047Y92380D01*
X28069047Y92380D02*
X28211904Y92380D01*
X27449999Y759047D02*
X27449999Y92380D01*
X27449999Y663809D02*
X27402380Y711428D01*
X27402380Y711428D02*
X27307142Y759047D01*
X27307142Y759047D02*
X27164285Y759047D01*
X27164285Y759047D02*
X27069047Y711428D01*
X27069047Y711428D02*
X27021428Y616190D01*
X27021428Y616190D02*
X27021428Y92380D01*
X25783332Y92380D02*
X25783332Y1092380D01*
X25783332Y1092380D02*
X25449999Y378095D01*
X25449999Y378095D02*
X25116666Y1092380D01*
X25116666Y1092380D02*
X25116666Y92380D01*
X24211904Y759047D02*
X24211904Y92380D01*
X24640475Y759047D02*
X24640475Y235238D01*
X24640475Y235238D02*
X24592856Y140000D01*
X24592856Y140000D02*
X24497618Y92380D01*
X24497618Y92380D02*
X24354761Y92380D01*
X24354761Y92380D02*
X24259523Y140000D01*
X24259523Y140000D02*
X24211904Y187619D01*
X23830951Y92380D02*
X23307142Y759047D01*
X23830951Y759047D02*
X23307142Y92380D01*
X21830951Y616190D02*
X21688094Y568571D01*
X21688094Y568571D02*
X21640475Y520952D01*
X21640475Y520952D02*
X21592856Y425714D01*
X21592856Y425714D02*
X21592856Y282857D01*
X21592856Y282857D02*
X21640475Y187619D01*
X21640475Y187619D02*
X21688094Y140000D01*
X21688094Y140000D02*
X21783332Y92380D01*
X21783332Y92380D02*
X22164284Y92380D01*
X22164284Y92380D02*
X22164284Y1092380D01*
X22164284Y1092380D02*
X21830951Y1092380D01*
X21830951Y1092380D02*
X21735713Y1044761D01*
X21735713Y1044761D02*
X21688094Y997142D01*
X21688094Y997142D02*
X21640475Y901904D01*
X21640475Y901904D02*
X21640475Y806666D01*
X21640475Y806666D02*
X21688094Y711428D01*
X21688094Y711428D02*
X21735713Y663809D01*
X21735713Y663809D02*
X21830951Y616190D01*
X21830951Y616190D02*
X22164284Y616190D01*
X21021427Y92380D02*
X21116665Y140000D01*
X21116665Y140000D02*
X21164284Y187619D01*
X21164284Y187619D02*
X21211903Y282857D01*
X21211903Y282857D02*
X21211903Y568571D01*
X21211903Y568571D02*
X21164284Y663809D01*
X21164284Y663809D02*
X21116665Y711428D01*
X21116665Y711428D02*
X21021427Y759047D01*
X21021427Y759047D02*
X20878570Y759047D01*
X20878570Y759047D02*
X20783332Y711428D01*
X20783332Y711428D02*
X20735713Y663809D01*
X20735713Y663809D02*
X20688094Y568571D01*
X20688094Y568571D02*
X20688094Y282857D01*
X20688094Y282857D02*
X20735713Y187619D01*
X20735713Y187619D02*
X20783332Y140000D01*
X20783332Y140000D02*
X20878570Y92380D01*
X20878570Y92380D02*
X21021427Y92380D01*
X19830951Y92380D02*
X19830951Y616190D01*
X19830951Y616190D02*
X19878570Y711428D01*
X19878570Y711428D02*
X19973808Y759047D01*
X19973808Y759047D02*
X20164284Y759047D01*
X20164284Y759047D02*
X20259522Y711428D01*
X19830951Y140000D02*
X19926189Y92380D01*
X19926189Y92380D02*
X20164284Y92380D01*
X20164284Y92380D02*
X20259522Y140000D01*
X20259522Y140000D02*
X20307141Y235238D01*
X20307141Y235238D02*
X20307141Y330476D01*
X20307141Y330476D02*
X20259522Y425714D01*
X20259522Y425714D02*
X20164284Y473333D01*
X20164284Y473333D02*
X19926189Y473333D01*
X19926189Y473333D02*
X19830951Y520952D01*
X19354760Y92380D02*
X19354760Y759047D01*
X19354760Y568571D02*
X19307141Y663809D01*
X19307141Y663809D02*
X19259522Y711428D01*
X19259522Y711428D02*
X19164284Y759047D01*
X19164284Y759047D02*
X19069046Y759047D01*
X18307141Y92380D02*
X18307141Y1092380D01*
X18307141Y140000D02*
X18402379Y92380D01*
X18402379Y92380D02*
X18592855Y92380D01*
X18592855Y92380D02*
X18688093Y140000D01*
X18688093Y140000D02*
X18735712Y187619D01*
X18735712Y187619D02*
X18783331Y282857D01*
X18783331Y282857D02*
X18783331Y568571D01*
X18783331Y568571D02*
X18735712Y663809D01*
X18735712Y663809D02*
X18688093Y711428D01*
X18688093Y711428D02*
X18592855Y759047D01*
X18592855Y759047D02*
X18402379Y759047D01*
X18402379Y759047D02*
X18307141Y711428D01*
X31211904Y-527619D02*
X31211904Y-1337142D01*
X31211904Y-1337142D02*
X31164285Y-1432380D01*
X31164285Y-1432380D02*
X31116666Y-1480000D01*
X31116666Y-1480000D02*
X31021428Y-1527619D01*
X31021428Y-1527619D02*
X30830952Y-1527619D01*
X30830952Y-1527619D02*
X30735714Y-1480000D01*
X30735714Y-1480000D02*
X30688095Y-1432380D01*
X30688095Y-1432380D02*
X30640476Y-1337142D01*
X30640476Y-1337142D02*
X30640476Y-527619D01*
X30211904Y-1480000D02*
X30116666Y-1527619D01*
X30116666Y-1527619D02*
X29926190Y-1527619D01*
X29926190Y-1527619D02*
X29830952Y-1480000D01*
X29830952Y-1480000D02*
X29783333Y-1384761D01*
X29783333Y-1384761D02*
X29783333Y-1337142D01*
X29783333Y-1337142D02*
X29830952Y-1241904D01*
X29830952Y-1241904D02*
X29926190Y-1194285D01*
X29926190Y-1194285D02*
X30069047Y-1194285D01*
X30069047Y-1194285D02*
X30164285Y-1146666D01*
X30164285Y-1146666D02*
X30211904Y-1051428D01*
X30211904Y-1051428D02*
X30211904Y-1003809D01*
X30211904Y-1003809D02*
X30164285Y-908571D01*
X30164285Y-908571D02*
X30069047Y-860952D01*
X30069047Y-860952D02*
X29926190Y-860952D01*
X29926190Y-860952D02*
X29830952Y-908571D01*
X28973809Y-1480000D02*
X29069047Y-1527619D01*
X29069047Y-1527619D02*
X29259523Y-1527619D01*
X29259523Y-1527619D02*
X29354761Y-1480000D01*
X29354761Y-1480000D02*
X29402380Y-1384761D01*
X29402380Y-1384761D02*
X29402380Y-1003809D01*
X29402380Y-1003809D02*
X29354761Y-908571D01*
X29354761Y-908571D02*
X29259523Y-860952D01*
X29259523Y-860952D02*
X29069047Y-860952D01*
X29069047Y-860952D02*
X28973809Y-908571D01*
X28973809Y-908571D02*
X28926190Y-1003809D01*
X28926190Y-1003809D02*
X28926190Y-1099047D01*
X28926190Y-1099047D02*
X29402380Y-1194285D01*
X27449999Y-527619D02*
X27449999Y-1241904D01*
X27449999Y-1241904D02*
X27497618Y-1384761D01*
X27497618Y-1384761D02*
X27592856Y-1480000D01*
X27592856Y-1480000D02*
X27735713Y-1527619D01*
X27735713Y-1527619D02*
X27830951Y-1527619D01*
X26545237Y-860952D02*
X26545237Y-1527619D01*
X26973808Y-860952D02*
X26973808Y-1384761D01*
X26973808Y-1384761D02*
X26926189Y-1480000D01*
X26926189Y-1480000D02*
X26830951Y-1527619D01*
X26830951Y-1527619D02*
X26688094Y-1527619D01*
X26688094Y-1527619D02*
X26592856Y-1480000D01*
X26592856Y-1480000D02*
X26545237Y-1432380D01*
X26069046Y-1527619D02*
X26069046Y-860952D01*
X26069046Y-956190D02*
X26021427Y-908571D01*
X26021427Y-908571D02*
X25926189Y-860952D01*
X25926189Y-860952D02*
X25783332Y-860952D01*
X25783332Y-860952D02*
X25688094Y-908571D01*
X25688094Y-908571D02*
X25640475Y-1003809D01*
X25640475Y-1003809D02*
X25640475Y-1527619D01*
X25640475Y-1003809D02*
X25592856Y-908571D01*
X25592856Y-908571D02*
X25497618Y-860952D01*
X25497618Y-860952D02*
X25354761Y-860952D01*
X25354761Y-860952D02*
X25259522Y-908571D01*
X25259522Y-908571D02*
X25211903Y-1003809D01*
X25211903Y-1003809D02*
X25211903Y-1527619D01*
X24735713Y-860952D02*
X24735713Y-1860952D01*
X24735713Y-908571D02*
X24640475Y-860952D01*
X24640475Y-860952D02*
X24449999Y-860952D01*
X24449999Y-860952D02*
X24354761Y-908571D01*
X24354761Y-908571D02*
X24307142Y-956190D01*
X24307142Y-956190D02*
X24259523Y-1051428D01*
X24259523Y-1051428D02*
X24259523Y-1337142D01*
X24259523Y-1337142D02*
X24307142Y-1432380D01*
X24307142Y-1432380D02*
X24354761Y-1480000D01*
X24354761Y-1480000D02*
X24449999Y-1527619D01*
X24449999Y-1527619D02*
X24640475Y-1527619D01*
X24640475Y-1527619D02*
X24735713Y-1480000D01*
X23449999Y-1480000D02*
X23545237Y-1527619D01*
X23545237Y-1527619D02*
X23735713Y-1527619D01*
X23735713Y-1527619D02*
X23830951Y-1480000D01*
X23830951Y-1480000D02*
X23878570Y-1384761D01*
X23878570Y-1384761D02*
X23878570Y-1003809D01*
X23878570Y-1003809D02*
X23830951Y-908571D01*
X23830951Y-908571D02*
X23735713Y-860952D01*
X23735713Y-860952D02*
X23545237Y-860952D01*
X23545237Y-860952D02*
X23449999Y-908571D01*
X23449999Y-908571D02*
X23402380Y-1003809D01*
X23402380Y-1003809D02*
X23402380Y-1099047D01*
X23402380Y-1099047D02*
X23878570Y-1194285D01*
X22973808Y-1527619D02*
X22973808Y-860952D01*
X22973808Y-1051428D02*
X22926189Y-956190D01*
X22926189Y-956190D02*
X22878570Y-908571D01*
X22878570Y-908571D02*
X22783332Y-860952D01*
X22783332Y-860952D02*
X22688094Y-860952D01*
X22402379Y-1480000D02*
X22307141Y-1527619D01*
X22307141Y-1527619D02*
X22116665Y-1527619D01*
X22116665Y-1527619D02*
X22021427Y-1480000D01*
X22021427Y-1480000D02*
X21973808Y-1384761D01*
X21973808Y-1384761D02*
X21973808Y-1337142D01*
X21973808Y-1337142D02*
X22021427Y-1241904D01*
X22021427Y-1241904D02*
X22116665Y-1194285D01*
X22116665Y-1194285D02*
X22259522Y-1194285D01*
X22259522Y-1194285D02*
X22354760Y-1146666D01*
X22354760Y-1146666D02*
X22402379Y-1051428D01*
X22402379Y-1051428D02*
X22402379Y-1003809D01*
X22402379Y-1003809D02*
X22354760Y-908571D01*
X22354760Y-908571D02*
X22259522Y-860952D01*
X22259522Y-860952D02*
X22116665Y-860952D01*
X22116665Y-860952D02*
X22021427Y-908571D01*
X17866666Y53282380D02*
X17866666Y53949047D01*
X17866666Y53853809D02*
X17819047Y53901428D01*
X17819047Y53901428D02*
X17723809Y53949047D01*
X17723809Y53949047D02*
X17580952Y53949047D01*
X17580952Y53949047D02*
X17485714Y53901428D01*
X17485714Y53901428D02*
X17438095Y53806190D01*
X17438095Y53806190D02*
X17438095Y53282380D01*
X17438095Y53806190D02*
X17390476Y53901428D01*
X17390476Y53901428D02*
X17295238Y53949047D01*
X17295238Y53949047D02*
X17152381Y53949047D01*
X17152381Y53949047D02*
X17057142Y53901428D01*
X17057142Y53901428D02*
X17009523Y53806190D01*
X17009523Y53806190D02*
X17009523Y53282380D01*
X16104762Y53949047D02*
X16104762Y53282380D01*
X16342857Y54330000D02*
X16580952Y53615714D01*
X16580952Y53615714D02*
X15961905Y53615714D01*
X15438095Y53282380D02*
X15533333Y53330000D01*
X15533333Y53330000D02*
X15580952Y53425238D01*
X15580952Y53425238D02*
X15580952Y54282380D01*
X15057142Y53282380D02*
X15057142Y53949047D01*
X15057142Y54282380D02*
X15104761Y54234761D01*
X15104761Y54234761D02*
X15057142Y54187142D01*
X15057142Y54187142D02*
X15009523Y54234761D01*
X15009523Y54234761D02*
X15057142Y54282380D01*
X15057142Y54282380D02*
X15057142Y54187142D01*
X14676190Y53949047D02*
X14438095Y53282380D01*
X14438095Y53282380D02*
X14200000Y53949047D01*
X13438095Y53330000D02*
X13533333Y53282380D01*
X13533333Y53282380D02*
X13723809Y53282380D01*
X13723809Y53282380D02*
X13819047Y53330000D01*
X13819047Y53330000D02*
X13866666Y53425238D01*
X13866666Y53425238D02*
X13866666Y53806190D01*
X13866666Y53806190D02*
X13819047Y53901428D01*
X13819047Y53901428D02*
X13723809Y53949047D01*
X13723809Y53949047D02*
X13533333Y53949047D01*
X13533333Y53949047D02*
X13438095Y53901428D01*
X13438095Y53901428D02*
X13390476Y53806190D01*
X13390476Y53806190D02*
X13390476Y53710952D01*
X13390476Y53710952D02*
X13866666Y53615714D01*
X15104763Y51710000D02*
X15200001Y51662380D01*
X15200001Y51662380D02*
X15390477Y51662380D01*
X15390477Y51662380D02*
X15485715Y51710000D01*
X15485715Y51710000D02*
X15533334Y51757619D01*
X15533334Y51757619D02*
X15580953Y51852857D01*
X15580953Y51852857D02*
X15580953Y52138571D01*
X15580953Y52138571D02*
X15533334Y52233809D01*
X15533334Y52233809D02*
X15485715Y52281428D01*
X15485715Y52281428D02*
X15390477Y52329047D01*
X15390477Y52329047D02*
X15200001Y52329047D01*
X15200001Y52329047D02*
X15104763Y52281428D01*
X14819048Y52329047D02*
X14438096Y52329047D01*
X14676191Y52662380D02*
X14676191Y51805238D01*
X14676191Y51805238D02*
X14628572Y51710000D01*
X14628572Y51710000D02*
X14533334Y51662380D01*
X14533334Y51662380D02*
X14438096Y51662380D01*
X14104762Y51662380D02*
X14104762Y52329047D01*
X14104762Y52138571D02*
X14057143Y52233809D01*
X14057143Y52233809D02*
X14009524Y52281428D01*
X14009524Y52281428D02*
X13914286Y52329047D01*
X13914286Y52329047D02*
X13819048Y52329047D01*
X13342857Y51662380D02*
X13438095Y51710000D01*
X13438095Y51710000D02*
X13485714Y51805238D01*
X13485714Y51805238D02*
X13485714Y52662380D01*
X16199999Y50709047D02*
X15961904Y50042380D01*
X15961904Y50042380D02*
X15723809Y50709047D01*
X14819047Y50042380D02*
X15390475Y50042380D01*
X15104761Y50042380D02*
X15104761Y51042380D01*
X15104761Y51042380D02*
X15199999Y50899523D01*
X15199999Y50899523D02*
X15295237Y50804285D01*
X15295237Y50804285D02*
X15390475Y50756666D01*
X14390475Y50137619D02*
X14342856Y50090000D01*
X14342856Y50090000D02*
X14390475Y50042380D01*
X14390475Y50042380D02*
X14438094Y50090000D01*
X14438094Y50090000D02*
X14390475Y50137619D01*
X14390475Y50137619D02*
X14390475Y50042380D01*
X13723809Y51042380D02*
X13628571Y51042380D01*
X13628571Y51042380D02*
X13533333Y50994761D01*
X13533333Y50994761D02*
X13485714Y50947142D01*
X13485714Y50947142D02*
X13438095Y50851904D01*
X13438095Y50851904D02*
X13390476Y50661428D01*
X13390476Y50661428D02*
X13390476Y50423333D01*
X13390476Y50423333D02*
X13438095Y50232857D01*
X13438095Y50232857D02*
X13485714Y50137619D01*
X13485714Y50137619D02*
X13533333Y50090000D01*
X13533333Y50090000D02*
X13628571Y50042380D01*
X13628571Y50042380D02*
X13723809Y50042380D01*
X13723809Y50042380D02*
X13819047Y50090000D01*
X13819047Y50090000D02*
X13866666Y50137619D01*
X13866666Y50137619D02*
X13914285Y50232857D01*
X13914285Y50232857D02*
X13961904Y50423333D01*
X13961904Y50423333D02*
X13961904Y50661428D01*
X13961904Y50661428D02*
X13914285Y50851904D01*
X13914285Y50851904D02*
X13866666Y50947142D01*
X13866666Y50947142D02*
X13819047Y50994761D01*
X13819047Y50994761D02*
X13723809Y51042380D01*
D11*
X31046428Y37323428D02*
X31332142Y37323428D01*
X31332142Y37323428D02*
X31332142Y37923428D01*
X30846428Y37637714D02*
X30646428Y37637714D01*
X30560714Y37323428D02*
X30846428Y37323428D01*
X30846428Y37323428D02*
X30846428Y37923428D01*
X30846428Y37923428D02*
X30560714Y37923428D01*
X30303571Y37323428D02*
X30303571Y37923428D01*
X30303571Y37923428D02*
X30160714Y37923428D01*
X30160714Y37923428D02*
X30075000Y37894857D01*
X30075000Y37894857D02*
X30017857Y37837714D01*
X30017857Y37837714D02*
X29989286Y37780571D01*
X29989286Y37780571D02*
X29960714Y37666285D01*
X29960714Y37666285D02*
X29960714Y37580571D01*
X29960714Y37580571D02*
X29989286Y37466285D01*
X29989286Y37466285D02*
X30017857Y37409142D01*
X30017857Y37409142D02*
X30075000Y37352000D01*
X30075000Y37352000D02*
X30160714Y37323428D01*
X30160714Y37323428D02*
X30303571Y37323428D01*
X29760714Y37923428D02*
X29360714Y37923428D01*
X29360714Y37923428D02*
X29617857Y37323428D01*
D10*
X31136904Y7067380D02*
X31136904Y8067380D01*
X30803571Y7734047D02*
X30422619Y7734047D01*
X30660714Y7067380D02*
X30660714Y7924523D01*
X30660714Y7924523D02*
X30613095Y8019761D01*
X30613095Y8019761D02*
X30517857Y8067380D01*
X30517857Y8067380D02*
X30422619Y8067380D01*
X29374999Y7115000D02*
X29232142Y7067380D01*
X29232142Y7067380D02*
X28994047Y7067380D01*
X28994047Y7067380D02*
X28898809Y7115000D01*
X28898809Y7115000D02*
X28851190Y7162619D01*
X28851190Y7162619D02*
X28803571Y7257857D01*
X28803571Y7257857D02*
X28803571Y7353095D01*
X28803571Y7353095D02*
X28851190Y7448333D01*
X28851190Y7448333D02*
X28898809Y7495952D01*
X28898809Y7495952D02*
X28994047Y7543571D01*
X28994047Y7543571D02*
X29184523Y7591190D01*
X29184523Y7591190D02*
X29279761Y7638809D01*
X29279761Y7638809D02*
X29327380Y7686428D01*
X29327380Y7686428D02*
X29374999Y7781666D01*
X29374999Y7781666D02*
X29374999Y7876904D01*
X29374999Y7876904D02*
X29327380Y7972142D01*
X29327380Y7972142D02*
X29279761Y8019761D01*
X29279761Y8019761D02*
X29184523Y8067380D01*
X29184523Y8067380D02*
X28946428Y8067380D01*
X28946428Y8067380D02*
X28803571Y8019761D01*
X27946428Y7067380D02*
X27946428Y7591190D01*
X27946428Y7591190D02*
X27994047Y7686428D01*
X27994047Y7686428D02*
X28089285Y7734047D01*
X28089285Y7734047D02*
X28279761Y7734047D01*
X28279761Y7734047D02*
X28374999Y7686428D01*
X27946428Y7115000D02*
X28041666Y7067380D01*
X28041666Y7067380D02*
X28279761Y7067380D01*
X28279761Y7067380D02*
X28374999Y7115000D01*
X28374999Y7115000D02*
X28422618Y7210238D01*
X28422618Y7210238D02*
X28422618Y7305476D01*
X28422618Y7305476D02*
X28374999Y7400714D01*
X28374999Y7400714D02*
X28279761Y7448333D01*
X28279761Y7448333D02*
X28041666Y7448333D01*
X28041666Y7448333D02*
X27946428Y7495952D01*
X27613094Y7734047D02*
X27232142Y7734047D01*
X27470237Y8067380D02*
X27470237Y7210238D01*
X27470237Y7210238D02*
X27422618Y7115000D01*
X27422618Y7115000D02*
X27327380Y7067380D01*
X27327380Y7067380D02*
X27232142Y7067380D01*
X26517856Y7115000D02*
X26613094Y7067380D01*
X26613094Y7067380D02*
X26803570Y7067380D01*
X26803570Y7067380D02*
X26898808Y7115000D01*
X26898808Y7115000D02*
X26946427Y7210238D01*
X26946427Y7210238D02*
X26946427Y7591190D01*
X26946427Y7591190D02*
X26898808Y7686428D01*
X26898808Y7686428D02*
X26803570Y7734047D01*
X26803570Y7734047D02*
X26613094Y7734047D01*
X26613094Y7734047D02*
X26517856Y7686428D01*
X26517856Y7686428D02*
X26470237Y7591190D01*
X26470237Y7591190D02*
X26470237Y7495952D01*
X26470237Y7495952D02*
X26946427Y7400714D01*
X25898808Y7067380D02*
X25994046Y7115000D01*
X25994046Y7115000D02*
X26041665Y7210238D01*
X26041665Y7210238D02*
X26041665Y8067380D01*
X25374998Y7067380D02*
X25470236Y7115000D01*
X25470236Y7115000D02*
X25517855Y7210238D01*
X25517855Y7210238D02*
X25517855Y8067380D01*
X24994045Y7067380D02*
X24994045Y7734047D01*
X24994045Y8067380D02*
X25041664Y8019761D01*
X25041664Y8019761D02*
X24994045Y7972142D01*
X24994045Y7972142D02*
X24946426Y8019761D01*
X24946426Y8019761D02*
X24994045Y8067380D01*
X24994045Y8067380D02*
X24994045Y7972142D01*
X24660712Y7734047D02*
X24279760Y7734047D01*
X24517855Y8067380D02*
X24517855Y7210238D01*
X24517855Y7210238D02*
X24470236Y7115000D01*
X24470236Y7115000D02*
X24374998Y7067380D01*
X24374998Y7067380D02*
X24279760Y7067380D01*
X23565474Y7115000D02*
X23660712Y7067380D01*
X23660712Y7067380D02*
X23851188Y7067380D01*
X23851188Y7067380D02*
X23946426Y7115000D01*
X23946426Y7115000D02*
X23994045Y7210238D01*
X23994045Y7210238D02*
X23994045Y7591190D01*
X23994045Y7591190D02*
X23946426Y7686428D01*
X23946426Y7686428D02*
X23851188Y7734047D01*
X23851188Y7734047D02*
X23660712Y7734047D01*
X23660712Y7734047D02*
X23565474Y7686428D01*
X23565474Y7686428D02*
X23517855Y7591190D01*
X23517855Y7591190D02*
X23517855Y7495952D01*
X23517855Y7495952D02*
X23994045Y7400714D01*
X21994045Y7591190D02*
X21851188Y7543571D01*
X21851188Y7543571D02*
X21803569Y7495952D01*
X21803569Y7495952D02*
X21755950Y7400714D01*
X21755950Y7400714D02*
X21755950Y7257857D01*
X21755950Y7257857D02*
X21803569Y7162619D01*
X21803569Y7162619D02*
X21851188Y7115000D01*
X21851188Y7115000D02*
X21946426Y7067380D01*
X21946426Y7067380D02*
X22327378Y7067380D01*
X22327378Y7067380D02*
X22327378Y8067380D01*
X22327378Y8067380D02*
X21994045Y8067380D01*
X21994045Y8067380D02*
X21898807Y8019761D01*
X21898807Y8019761D02*
X21851188Y7972142D01*
X21851188Y7972142D02*
X21803569Y7876904D01*
X21803569Y7876904D02*
X21803569Y7781666D01*
X21803569Y7781666D02*
X21851188Y7686428D01*
X21851188Y7686428D02*
X21898807Y7638809D01*
X21898807Y7638809D02*
X21994045Y7591190D01*
X21994045Y7591190D02*
X22327378Y7591190D01*
X21184521Y7067380D02*
X21279759Y7115000D01*
X21279759Y7115000D02*
X21327378Y7162619D01*
X21327378Y7162619D02*
X21374997Y7257857D01*
X21374997Y7257857D02*
X21374997Y7543571D01*
X21374997Y7543571D02*
X21327378Y7638809D01*
X21327378Y7638809D02*
X21279759Y7686428D01*
X21279759Y7686428D02*
X21184521Y7734047D01*
X21184521Y7734047D02*
X21041664Y7734047D01*
X21041664Y7734047D02*
X20946426Y7686428D01*
X20946426Y7686428D02*
X20898807Y7638809D01*
X20898807Y7638809D02*
X20851188Y7543571D01*
X20851188Y7543571D02*
X20851188Y7257857D01*
X20851188Y7257857D02*
X20898807Y7162619D01*
X20898807Y7162619D02*
X20946426Y7115000D01*
X20946426Y7115000D02*
X21041664Y7067380D01*
X21041664Y7067380D02*
X21184521Y7067380D01*
X19994045Y7067380D02*
X19994045Y7591190D01*
X19994045Y7591190D02*
X20041664Y7686428D01*
X20041664Y7686428D02*
X20136902Y7734047D01*
X20136902Y7734047D02*
X20327378Y7734047D01*
X20327378Y7734047D02*
X20422616Y7686428D01*
X19994045Y7115000D02*
X20089283Y7067380D01*
X20089283Y7067380D02*
X20327378Y7067380D01*
X20327378Y7067380D02*
X20422616Y7115000D01*
X20422616Y7115000D02*
X20470235Y7210238D01*
X20470235Y7210238D02*
X20470235Y7305476D01*
X20470235Y7305476D02*
X20422616Y7400714D01*
X20422616Y7400714D02*
X20327378Y7448333D01*
X20327378Y7448333D02*
X20089283Y7448333D01*
X20089283Y7448333D02*
X19994045Y7495952D01*
X19517854Y7067380D02*
X19517854Y7734047D01*
X19517854Y7543571D02*
X19470235Y7638809D01*
X19470235Y7638809D02*
X19422616Y7686428D01*
X19422616Y7686428D02*
X19327378Y7734047D01*
X19327378Y7734047D02*
X19232140Y7734047D01*
X18470235Y7067380D02*
X18470235Y8067380D01*
X18470235Y7115000D02*
X18565473Y7067380D01*
X18565473Y7067380D02*
X18755949Y7067380D01*
X18755949Y7067380D02*
X18851187Y7115000D01*
X18851187Y7115000D02*
X18898806Y7162619D01*
X18898806Y7162619D02*
X18946425Y7257857D01*
X18946425Y7257857D02*
X18946425Y7543571D01*
X18946425Y7543571D02*
X18898806Y7638809D01*
X18898806Y7638809D02*
X18851187Y7686428D01*
X18851187Y7686428D02*
X18755949Y7734047D01*
X18755949Y7734047D02*
X18565473Y7734047D01*
X18565473Y7734047D02*
X18470235Y7686428D01*
X31136904Y6447380D02*
X31136904Y5637857D01*
X31136904Y5637857D02*
X31089285Y5542619D01*
X31089285Y5542619D02*
X31041666Y5495000D01*
X31041666Y5495000D02*
X30946428Y5447380D01*
X30946428Y5447380D02*
X30755952Y5447380D01*
X30755952Y5447380D02*
X30660714Y5495000D01*
X30660714Y5495000D02*
X30613095Y5542619D01*
X30613095Y5542619D02*
X30565476Y5637857D01*
X30565476Y5637857D02*
X30565476Y6447380D01*
X30136904Y5495000D02*
X30041666Y5447380D01*
X30041666Y5447380D02*
X29851190Y5447380D01*
X29851190Y5447380D02*
X29755952Y5495000D01*
X29755952Y5495000D02*
X29708333Y5590238D01*
X29708333Y5590238D02*
X29708333Y5637857D01*
X29708333Y5637857D02*
X29755952Y5733095D01*
X29755952Y5733095D02*
X29851190Y5780714D01*
X29851190Y5780714D02*
X29994047Y5780714D01*
X29994047Y5780714D02*
X30089285Y5828333D01*
X30089285Y5828333D02*
X30136904Y5923571D01*
X30136904Y5923571D02*
X30136904Y5971190D01*
X30136904Y5971190D02*
X30089285Y6066428D01*
X30089285Y6066428D02*
X29994047Y6114047D01*
X29994047Y6114047D02*
X29851190Y6114047D01*
X29851190Y6114047D02*
X29755952Y6066428D01*
X28898809Y5495000D02*
X28994047Y5447380D01*
X28994047Y5447380D02*
X29184523Y5447380D01*
X29184523Y5447380D02*
X29279761Y5495000D01*
X29279761Y5495000D02*
X29327380Y5590238D01*
X29327380Y5590238D02*
X29327380Y5971190D01*
X29327380Y5971190D02*
X29279761Y6066428D01*
X29279761Y6066428D02*
X29184523Y6114047D01*
X29184523Y6114047D02*
X28994047Y6114047D01*
X28994047Y6114047D02*
X28898809Y6066428D01*
X28898809Y6066428D02*
X28851190Y5971190D01*
X28851190Y5971190D02*
X28851190Y5875952D01*
X28851190Y5875952D02*
X29327380Y5780714D01*
X27374999Y6447380D02*
X27374999Y5733095D01*
X27374999Y5733095D02*
X27422618Y5590238D01*
X27422618Y5590238D02*
X27517856Y5495000D01*
X27517856Y5495000D02*
X27660713Y5447380D01*
X27660713Y5447380D02*
X27755951Y5447380D01*
X26470237Y6114047D02*
X26470237Y5447380D01*
X26898808Y6114047D02*
X26898808Y5590238D01*
X26898808Y5590238D02*
X26851189Y5495000D01*
X26851189Y5495000D02*
X26755951Y5447380D01*
X26755951Y5447380D02*
X26613094Y5447380D01*
X26613094Y5447380D02*
X26517856Y5495000D01*
X26517856Y5495000D02*
X26470237Y5542619D01*
X25994046Y5447380D02*
X25994046Y6114047D01*
X25994046Y6018809D02*
X25946427Y6066428D01*
X25946427Y6066428D02*
X25851189Y6114047D01*
X25851189Y6114047D02*
X25708332Y6114047D01*
X25708332Y6114047D02*
X25613094Y6066428D01*
X25613094Y6066428D02*
X25565475Y5971190D01*
X25565475Y5971190D02*
X25565475Y5447380D01*
X25565475Y5971190D02*
X25517856Y6066428D01*
X25517856Y6066428D02*
X25422618Y6114047D01*
X25422618Y6114047D02*
X25279761Y6114047D01*
X25279761Y6114047D02*
X25184522Y6066428D01*
X25184522Y6066428D02*
X25136903Y5971190D01*
X25136903Y5971190D02*
X25136903Y5447380D01*
X24660713Y6114047D02*
X24660713Y5114047D01*
X24660713Y6066428D02*
X24565475Y6114047D01*
X24565475Y6114047D02*
X24374999Y6114047D01*
X24374999Y6114047D02*
X24279761Y6066428D01*
X24279761Y6066428D02*
X24232142Y6018809D01*
X24232142Y6018809D02*
X24184523Y5923571D01*
X24184523Y5923571D02*
X24184523Y5637857D01*
X24184523Y5637857D02*
X24232142Y5542619D01*
X24232142Y5542619D02*
X24279761Y5495000D01*
X24279761Y5495000D02*
X24374999Y5447380D01*
X24374999Y5447380D02*
X24565475Y5447380D01*
X24565475Y5447380D02*
X24660713Y5495000D01*
X23374999Y5495000D02*
X23470237Y5447380D01*
X23470237Y5447380D02*
X23660713Y5447380D01*
X23660713Y5447380D02*
X23755951Y5495000D01*
X23755951Y5495000D02*
X23803570Y5590238D01*
X23803570Y5590238D02*
X23803570Y5971190D01*
X23803570Y5971190D02*
X23755951Y6066428D01*
X23755951Y6066428D02*
X23660713Y6114047D01*
X23660713Y6114047D02*
X23470237Y6114047D01*
X23470237Y6114047D02*
X23374999Y6066428D01*
X23374999Y6066428D02*
X23327380Y5971190D01*
X23327380Y5971190D02*
X23327380Y5875952D01*
X23327380Y5875952D02*
X23803570Y5780714D01*
X22898808Y5447380D02*
X22898808Y6114047D01*
X22898808Y5923571D02*
X22851189Y6018809D01*
X22851189Y6018809D02*
X22803570Y6066428D01*
X22803570Y6066428D02*
X22708332Y6114047D01*
X22708332Y6114047D02*
X22613094Y6114047D01*
X22327379Y5495000D02*
X22232141Y5447380D01*
X22232141Y5447380D02*
X22041665Y5447380D01*
X22041665Y5447380D02*
X21946427Y5495000D01*
X21946427Y5495000D02*
X21898808Y5590238D01*
X21898808Y5590238D02*
X21898808Y5637857D01*
X21898808Y5637857D02*
X21946427Y5733095D01*
X21946427Y5733095D02*
X22041665Y5780714D01*
X22041665Y5780714D02*
X22184522Y5780714D01*
X22184522Y5780714D02*
X22279760Y5828333D01*
X22279760Y5828333D02*
X22327379Y5923571D01*
X22327379Y5923571D02*
X22327379Y5971190D01*
X22327379Y5971190D02*
X22279760Y6066428D01*
X22279760Y6066428D02*
X22184522Y6114047D01*
X22184522Y6114047D02*
X22041665Y6114047D01*
X22041665Y6114047D02*
X21946427Y6066428D01*
D11*
X19037714Y8335714D02*
X19009142Y8421428D01*
X19009142Y8421428D02*
X18980571Y8449999D01*
X18980571Y8449999D02*
X18923428Y8478571D01*
X18923428Y8478571D02*
X18837714Y8478571D01*
X18837714Y8478571D02*
X18780571Y8449999D01*
X18780571Y8449999D02*
X18752000Y8421428D01*
X18752000Y8421428D02*
X18723428Y8364285D01*
X18723428Y8364285D02*
X18723428Y8135714D01*
X18723428Y8135714D02*
X19323428Y8135714D01*
X19323428Y8135714D02*
X19323428Y8335714D01*
X19323428Y8335714D02*
X19294857Y8392857D01*
X19294857Y8392857D02*
X19266285Y8421428D01*
X19266285Y8421428D02*
X19209142Y8449999D01*
X19209142Y8449999D02*
X19152000Y8449999D01*
X19152000Y8449999D02*
X19094857Y8421428D01*
X19094857Y8421428D02*
X19066285Y8392857D01*
X19066285Y8392857D02*
X19037714Y8335714D01*
X19037714Y8335714D02*
X19037714Y8135714D01*
X19323428Y8649999D02*
X19323428Y8992857D01*
X18723428Y8821428D02*
X19323428Y8821428D01*
X18723428Y9192857D02*
X19323428Y9192857D01*
X19323428Y9192857D02*
X18723428Y9535714D01*
X18723428Y9535714D02*
X19323428Y9535714D01*
X18723428Y10135713D02*
X18723428Y9792856D01*
X18723428Y9964285D02*
X19323428Y9964285D01*
X19323428Y9964285D02*
X19237714Y9907142D01*
X19237714Y9907142D02*
X19180571Y9849999D01*
X19180571Y9849999D02*
X19152000Y9792856D01*
X16709523Y43091809D02*
X16785713Y43129904D01*
X16785713Y43129904D02*
X16899999Y43129904D01*
X16899999Y43129904D02*
X17014285Y43091809D01*
X17014285Y43091809D02*
X17090475Y43015619D01*
X17090475Y43015619D02*
X17128570Y42939428D01*
X17128570Y42939428D02*
X17166666Y42787047D01*
X17166666Y42787047D02*
X17166666Y42672761D01*
X17166666Y42672761D02*
X17128570Y42520380D01*
X17128570Y42520380D02*
X17090475Y42444190D01*
X17090475Y42444190D02*
X17014285Y42368000D01*
X17014285Y42368000D02*
X16899999Y42329904D01*
X16899999Y42329904D02*
X16823808Y42329904D01*
X16823808Y42329904D02*
X16709523Y42368000D01*
X16709523Y42368000D02*
X16671427Y42406095D01*
X16671427Y42406095D02*
X16671427Y42672761D01*
X16671427Y42672761D02*
X16823808Y42672761D01*
X16328570Y42329904D02*
X16328570Y43129904D01*
X16328570Y43129904D02*
X15871427Y42329904D01*
X15871427Y42329904D02*
X15871427Y43129904D01*
X15490475Y42329904D02*
X15490475Y43129904D01*
X15490475Y43129904D02*
X15299999Y43129904D01*
X15299999Y43129904D02*
X15185713Y43091809D01*
X15185713Y43091809D02*
X15109523Y43015619D01*
X15109523Y43015619D02*
X15071428Y42939428D01*
X15071428Y42939428D02*
X15033332Y42787047D01*
X15033332Y42787047D02*
X15033332Y42672761D01*
X15033332Y42672761D02*
X15071428Y42520380D01*
X15071428Y42520380D02*
X15109523Y42444190D01*
X15109523Y42444190D02*
X15185713Y42368000D01*
X15185713Y42368000D02*
X15299999Y42329904D01*
X15299999Y42329904D02*
X15490475Y42329904D01*
X19103572Y-20198000D02*
X19017858Y-20226571D01*
X19017858Y-20226571D02*
X18875000Y-20226571D01*
X18875000Y-20226571D02*
X18817858Y-20198000D01*
X18817858Y-20198000D02*
X18789286Y-20169428D01*
X18789286Y-20169428D02*
X18760715Y-20112285D01*
X18760715Y-20112285D02*
X18760715Y-20055142D01*
X18760715Y-20055142D02*
X18789286Y-19998000D01*
X18789286Y-19998000D02*
X18817858Y-19969428D01*
X18817858Y-19969428D02*
X18875000Y-19940857D01*
X18875000Y-19940857D02*
X18989286Y-19912285D01*
X18989286Y-19912285D02*
X19046429Y-19883714D01*
X19046429Y-19883714D02*
X19075000Y-19855142D01*
X19075000Y-19855142D02*
X19103572Y-19798000D01*
X19103572Y-19798000D02*
X19103572Y-19740857D01*
X19103572Y-19740857D02*
X19075000Y-19683714D01*
X19075000Y-19683714D02*
X19046429Y-19655142D01*
X19046429Y-19655142D02*
X18989286Y-19626571D01*
X18989286Y-19626571D02*
X18846429Y-19626571D01*
X18846429Y-19626571D02*
X18760715Y-19655142D01*
X18160714Y-20169428D02*
X18189286Y-20198000D01*
X18189286Y-20198000D02*
X18275000Y-20226571D01*
X18275000Y-20226571D02*
X18332143Y-20226571D01*
X18332143Y-20226571D02*
X18417857Y-20198000D01*
X18417857Y-20198000D02*
X18475000Y-20140857D01*
X18475000Y-20140857D02*
X18503571Y-20083714D01*
X18503571Y-20083714D02*
X18532143Y-19969428D01*
X18532143Y-19969428D02*
X18532143Y-19883714D01*
X18532143Y-19883714D02*
X18503571Y-19769428D01*
X18503571Y-19769428D02*
X18475000Y-19712285D01*
X18475000Y-19712285D02*
X18417857Y-19655142D01*
X18417857Y-19655142D02*
X18332143Y-19626571D01*
X18332143Y-19626571D02*
X18275000Y-19626571D01*
X18275000Y-19626571D02*
X18189286Y-19655142D01*
X18189286Y-19655142D02*
X18160714Y-19683714D01*
X17617857Y-19626571D02*
X17903571Y-19626571D01*
X17903571Y-19626571D02*
X17932143Y-19912285D01*
X17932143Y-19912285D02*
X17903571Y-19883714D01*
X17903571Y-19883714D02*
X17846429Y-19855142D01*
X17846429Y-19855142D02*
X17703571Y-19855142D01*
X17703571Y-19855142D02*
X17646429Y-19883714D01*
X17646429Y-19883714D02*
X17617857Y-19912285D01*
X17617857Y-19912285D02*
X17589286Y-19969428D01*
X17589286Y-19969428D02*
X17589286Y-20112285D01*
X17589286Y-20112285D02*
X17617857Y-20169428D01*
X17617857Y-20169428D02*
X17646429Y-20198000D01*
X17646429Y-20198000D02*
X17703571Y-20226571D01*
X17703571Y-20226571D02*
X17846429Y-20226571D01*
X17846429Y-20226571D02*
X17903571Y-20198000D01*
X17903571Y-20198000D02*
X17932143Y-20169428D01*
X19087714Y18385714D02*
X19059142Y18471428D01*
X19059142Y18471428D02*
X19030571Y18499999D01*
X19030571Y18499999D02*
X18973428Y18528571D01*
X18973428Y18528571D02*
X18887714Y18528571D01*
X18887714Y18528571D02*
X18830571Y18499999D01*
X18830571Y18499999D02*
X18802000Y18471428D01*
X18802000Y18471428D02*
X18773428Y18414285D01*
X18773428Y18414285D02*
X18773428Y18185714D01*
X18773428Y18185714D02*
X19373428Y18185714D01*
X19373428Y18185714D02*
X19373428Y18385714D01*
X19373428Y18385714D02*
X19344857Y18442857D01*
X19344857Y18442857D02*
X19316285Y18471428D01*
X19316285Y18471428D02*
X19259142Y18499999D01*
X19259142Y18499999D02*
X19202000Y18499999D01*
X19202000Y18499999D02*
X19144857Y18471428D01*
X19144857Y18471428D02*
X19116285Y18442857D01*
X19116285Y18442857D02*
X19087714Y18385714D01*
X19087714Y18385714D02*
X19087714Y18185714D01*
X19373428Y18699999D02*
X19373428Y19042857D01*
X18773428Y18871428D02*
X19373428Y18871428D01*
X18773428Y19242857D02*
X19373428Y19242857D01*
X19373428Y19242857D02*
X18773428Y19585714D01*
X18773428Y19585714D02*
X19373428Y19585714D01*
X19373428Y20157142D02*
X19373428Y19871428D01*
X19373428Y19871428D02*
X19087714Y19842856D01*
X19087714Y19842856D02*
X19116285Y19871428D01*
X19116285Y19871428D02*
X19144857Y19928571D01*
X19144857Y19928571D02*
X19144857Y20071428D01*
X19144857Y20071428D02*
X19116285Y20128571D01*
X19116285Y20128571D02*
X19087714Y20157142D01*
X19087714Y20157142D02*
X19030571Y20185713D01*
X19030571Y20185713D02*
X18887714Y20185713D01*
X18887714Y20185713D02*
X18830571Y20157142D01*
X18830571Y20157142D02*
X18802000Y20128571D01*
X18802000Y20128571D02*
X18773428Y20071428D01*
X18773428Y20071428D02*
X18773428Y19928571D01*
X18773428Y19928571D02*
X18802000Y19871428D01*
X18802000Y19871428D02*
X18830571Y19842856D01*
D10*
X28060714Y39412380D02*
X28536904Y39412380D01*
X28536904Y39412380D02*
X28536904Y40412380D01*
X27346428Y39460000D02*
X27441666Y39412380D01*
X27441666Y39412380D02*
X27632142Y39412380D01*
X27632142Y39412380D02*
X27727380Y39460000D01*
X27727380Y39460000D02*
X27774999Y39555238D01*
X27774999Y39555238D02*
X27774999Y39936190D01*
X27774999Y39936190D02*
X27727380Y40031428D01*
X27727380Y40031428D02*
X27632142Y40079047D01*
X27632142Y40079047D02*
X27441666Y40079047D01*
X27441666Y40079047D02*
X27346428Y40031428D01*
X27346428Y40031428D02*
X27298809Y39936190D01*
X27298809Y39936190D02*
X27298809Y39840952D01*
X27298809Y39840952D02*
X27774999Y39745714D01*
X26441666Y39412380D02*
X26441666Y40412380D01*
X26441666Y39460000D02*
X26536904Y39412380D01*
X26536904Y39412380D02*
X26727380Y39412380D01*
X26727380Y39412380D02*
X26822618Y39460000D01*
X26822618Y39460000D02*
X26870237Y39507619D01*
X26870237Y39507619D02*
X26917856Y39602857D01*
X26917856Y39602857D02*
X26917856Y39888571D01*
X26917856Y39888571D02*
X26870237Y39983809D01*
X26870237Y39983809D02*
X26822618Y40031428D01*
X26822618Y40031428D02*
X26727380Y40079047D01*
X26727380Y40079047D02*
X26536904Y40079047D01*
X26536904Y40079047D02*
X26441666Y40031428D01*
X28013095Y37792380D02*
X28584523Y37792380D01*
X28298809Y37792380D02*
X28298809Y38792380D01*
X28298809Y38792380D02*
X28394047Y38649523D01*
X28394047Y38649523D02*
X28489285Y38554285D01*
X28489285Y38554285D02*
X28584523Y38506666D01*
X27584523Y38173333D02*
X26822619Y38173333D01*
X25870238Y38792380D02*
X26346428Y38792380D01*
X26346428Y38792380D02*
X26394047Y38316190D01*
X26394047Y38316190D02*
X26346428Y38363809D01*
X26346428Y38363809D02*
X26251190Y38411428D01*
X26251190Y38411428D02*
X26013095Y38411428D01*
X26013095Y38411428D02*
X25917857Y38363809D01*
X25917857Y38363809D02*
X25870238Y38316190D01*
X25870238Y38316190D02*
X25822619Y38220952D01*
X25822619Y38220952D02*
X25822619Y37982857D01*
X25822619Y37982857D02*
X25870238Y37887619D01*
X25870238Y37887619D02*
X25917857Y37840000D01*
X25917857Y37840000D02*
X26013095Y37792380D01*
X26013095Y37792380D02*
X26251190Y37792380D01*
X26251190Y37792380D02*
X26346428Y37840000D01*
X26346428Y37840000D02*
X26394047Y37887619D01*
X25346428Y37840000D02*
X25346428Y37792380D01*
X25346428Y37792380D02*
X25394047Y37697142D01*
X25394047Y37697142D02*
X25441666Y37649523D01*
X24965476Y38697142D02*
X24917857Y38744761D01*
X24917857Y38744761D02*
X24822619Y38792380D01*
X24822619Y38792380D02*
X24584524Y38792380D01*
X24584524Y38792380D02*
X24489286Y38744761D01*
X24489286Y38744761D02*
X24441667Y38697142D01*
X24441667Y38697142D02*
X24394048Y38601904D01*
X24394048Y38601904D02*
X24394048Y38506666D01*
X24394048Y38506666D02*
X24441667Y38363809D01*
X24441667Y38363809D02*
X25013095Y37792380D01*
X25013095Y37792380D02*
X24394048Y37792380D01*
X23965476Y38173333D02*
X23203572Y38173333D01*
X22298810Y38792380D02*
X22489286Y38792380D01*
X22489286Y38792380D02*
X22584524Y38744761D01*
X22584524Y38744761D02*
X22632143Y38697142D01*
X22632143Y38697142D02*
X22727381Y38554285D01*
X22727381Y38554285D02*
X22775000Y38363809D01*
X22775000Y38363809D02*
X22775000Y37982857D01*
X22775000Y37982857D02*
X22727381Y37887619D01*
X22727381Y37887619D02*
X22679762Y37840000D01*
X22679762Y37840000D02*
X22584524Y37792380D01*
X22584524Y37792380D02*
X22394048Y37792380D01*
X22394048Y37792380D02*
X22298810Y37840000D01*
X22298810Y37840000D02*
X22251191Y37887619D01*
X22251191Y37887619D02*
X22203572Y37982857D01*
X22203572Y37982857D02*
X22203572Y38220952D01*
X22203572Y38220952D02*
X22251191Y38316190D01*
X22251191Y38316190D02*
X22298810Y38363809D01*
X22298810Y38363809D02*
X22394048Y38411428D01*
X22394048Y38411428D02*
X22584524Y38411428D01*
X22584524Y38411428D02*
X22679762Y38363809D01*
X22679762Y38363809D02*
X22727381Y38316190D01*
X22727381Y38316190D02*
X22775000Y38220952D01*
X21727381Y37840000D02*
X21727381Y37792380D01*
X21727381Y37792380D02*
X21775000Y37697142D01*
X21775000Y37697142D02*
X21822619Y37649523D01*
X28632142Y37172380D02*
X28013095Y37172380D01*
X28013095Y37172380D02*
X28346428Y36791428D01*
X28346428Y36791428D02*
X28203571Y36791428D01*
X28203571Y36791428D02*
X28108333Y36743809D01*
X28108333Y36743809D02*
X28060714Y36696190D01*
X28060714Y36696190D02*
X28013095Y36600952D01*
X28013095Y36600952D02*
X28013095Y36362857D01*
X28013095Y36362857D02*
X28060714Y36267619D01*
X28060714Y36267619D02*
X28108333Y36220000D01*
X28108333Y36220000D02*
X28203571Y36172380D01*
X28203571Y36172380D02*
X28489285Y36172380D01*
X28489285Y36172380D02*
X28584523Y36220000D01*
X28584523Y36220000D02*
X28632142Y36267619D01*
X27584523Y36553333D02*
X26822619Y36553333D01*
X26441666Y37172380D02*
X25775000Y37172380D01*
X25775000Y37172380D02*
X26203571Y36172380D01*
X25346428Y36220000D02*
X25346428Y36172380D01*
X25346428Y36172380D02*
X25394047Y36077142D01*
X25394047Y36077142D02*
X25441666Y36029523D01*
X24489286Y36839047D02*
X24489286Y36172380D01*
X24727381Y37220000D02*
X24965476Y36505714D01*
X24965476Y36505714D02*
X24346429Y36505714D01*
X23965476Y36553333D02*
X23203572Y36553333D01*
X22584524Y36743809D02*
X22679762Y36791428D01*
X22679762Y36791428D02*
X22727381Y36839047D01*
X22727381Y36839047D02*
X22775000Y36934285D01*
X22775000Y36934285D02*
X22775000Y36981904D01*
X22775000Y36981904D02*
X22727381Y37077142D01*
X22727381Y37077142D02*
X22679762Y37124761D01*
X22679762Y37124761D02*
X22584524Y37172380D01*
X22584524Y37172380D02*
X22394048Y37172380D01*
X22394048Y37172380D02*
X22298810Y37124761D01*
X22298810Y37124761D02*
X22251191Y37077142D01*
X22251191Y37077142D02*
X22203572Y36981904D01*
X22203572Y36981904D02*
X22203572Y36934285D01*
X22203572Y36934285D02*
X22251191Y36839047D01*
X22251191Y36839047D02*
X22298810Y36791428D01*
X22298810Y36791428D02*
X22394048Y36743809D01*
X22394048Y36743809D02*
X22584524Y36743809D01*
X22584524Y36743809D02*
X22679762Y36696190D01*
X22679762Y36696190D02*
X22727381Y36648571D01*
X22727381Y36648571D02*
X22775000Y36553333D01*
X22775000Y36553333D02*
X22775000Y36362857D01*
X22775000Y36362857D02*
X22727381Y36267619D01*
X22727381Y36267619D02*
X22679762Y36220000D01*
X22679762Y36220000D02*
X22584524Y36172380D01*
X22584524Y36172380D02*
X22394048Y36172380D01*
X22394048Y36172380D02*
X22298810Y36220000D01*
X22298810Y36220000D02*
X22251191Y36267619D01*
X22251191Y36267619D02*
X22203572Y36362857D01*
X22203572Y36362857D02*
X22203572Y36553333D01*
X22203572Y36553333D02*
X22251191Y36648571D01*
X22251191Y36648571D02*
X22298810Y36696190D01*
X22298810Y36696190D02*
X22394048Y36743809D01*
D11*
X19373428Y38753571D02*
X19373428Y38467857D01*
X19373428Y38467857D02*
X19973428Y38467857D01*
X19687714Y38953571D02*
X19687714Y39153571D01*
X19373428Y39239285D02*
X19373428Y38953571D01*
X19373428Y38953571D02*
X19973428Y38953571D01*
X19973428Y38953571D02*
X19973428Y39239285D01*
X19373428Y39496428D02*
X19973428Y39496428D01*
X19973428Y39496428D02*
X19973428Y39639285D01*
X19973428Y39639285D02*
X19944857Y39724999D01*
X19944857Y39724999D02*
X19887714Y39782142D01*
X19887714Y39782142D02*
X19830571Y39810713D01*
X19830571Y39810713D02*
X19716285Y39839285D01*
X19716285Y39839285D02*
X19630571Y39839285D01*
X19630571Y39839285D02*
X19516285Y39810713D01*
X19516285Y39810713D02*
X19459142Y39782142D01*
X19459142Y39782142D02*
X19402000Y39724999D01*
X19402000Y39724999D02*
X19373428Y39639285D01*
X19373428Y39639285D02*
X19373428Y39496428D01*
X19973428Y40382142D02*
X19973428Y40096428D01*
X19973428Y40096428D02*
X19687714Y40067856D01*
X19687714Y40067856D02*
X19716285Y40096428D01*
X19716285Y40096428D02*
X19744857Y40153571D01*
X19744857Y40153571D02*
X19744857Y40296428D01*
X19744857Y40296428D02*
X19716285Y40353571D01*
X19716285Y40353571D02*
X19687714Y40382142D01*
X19687714Y40382142D02*
X19630571Y40410713D01*
X19630571Y40410713D02*
X19487714Y40410713D01*
X19487714Y40410713D02*
X19430571Y40382142D01*
X19430571Y40382142D02*
X19402000Y40353571D01*
X19402000Y40353571D02*
X19373428Y40296428D01*
X19373428Y40296428D02*
X19373428Y40153571D01*
X19373428Y40153571D02*
X19402000Y40096428D01*
X19402000Y40096428D02*
X19430571Y40067856D01*
D10*
X29977380Y-18519048D02*
X29263095Y-18519048D01*
X29263095Y-18519048D02*
X29120238Y-18566667D01*
X29120238Y-18566667D02*
X29025000Y-18661905D01*
X29025000Y-18661905D02*
X28977380Y-18804762D01*
X28977380Y-18804762D02*
X28977380Y-18900000D01*
X29644047Y-17614286D02*
X28977380Y-17614286D01*
X29644047Y-18042857D02*
X29120238Y-18042857D01*
X29120238Y-18042857D02*
X29025000Y-17995238D01*
X29025000Y-17995238D02*
X28977380Y-17900000D01*
X28977380Y-17900000D02*
X28977380Y-17757143D01*
X28977380Y-17757143D02*
X29025000Y-17661905D01*
X29025000Y-17661905D02*
X29072619Y-17614286D01*
X28977380Y-17138095D02*
X29644047Y-17138095D01*
X29548809Y-17138095D02*
X29596428Y-17090476D01*
X29596428Y-17090476D02*
X29644047Y-16995238D01*
X29644047Y-16995238D02*
X29644047Y-16852381D01*
X29644047Y-16852381D02*
X29596428Y-16757143D01*
X29596428Y-16757143D02*
X29501190Y-16709524D01*
X29501190Y-16709524D02*
X28977380Y-16709524D01*
X29501190Y-16709524D02*
X29596428Y-16661905D01*
X29596428Y-16661905D02*
X29644047Y-16566667D01*
X29644047Y-16566667D02*
X29644047Y-16423810D01*
X29644047Y-16423810D02*
X29596428Y-16328571D01*
X29596428Y-16328571D02*
X29501190Y-16280952D01*
X29501190Y-16280952D02*
X28977380Y-16280952D01*
X29644047Y-15804762D02*
X28644047Y-15804762D01*
X29596428Y-15804762D02*
X29644047Y-15709524D01*
X29644047Y-15709524D02*
X29644047Y-15519048D01*
X29644047Y-15519048D02*
X29596428Y-15423810D01*
X29596428Y-15423810D02*
X29548809Y-15376191D01*
X29548809Y-15376191D02*
X29453571Y-15328572D01*
X29453571Y-15328572D02*
X29167857Y-15328572D01*
X29167857Y-15328572D02*
X29072619Y-15376191D01*
X29072619Y-15376191D02*
X29025000Y-15423810D01*
X29025000Y-15423810D02*
X28977380Y-15519048D01*
X28977380Y-15519048D02*
X28977380Y-15709524D01*
X28977380Y-15709524D02*
X29025000Y-15804762D01*
X29025000Y-14519048D02*
X28977380Y-14614286D01*
X28977380Y-14614286D02*
X28977380Y-14804762D01*
X28977380Y-14804762D02*
X29025000Y-14900000D01*
X29025000Y-14900000D02*
X29120238Y-14947619D01*
X29120238Y-14947619D02*
X29501190Y-14947619D01*
X29501190Y-14947619D02*
X29596428Y-14900000D01*
X29596428Y-14900000D02*
X29644047Y-14804762D01*
X29644047Y-14804762D02*
X29644047Y-14614286D01*
X29644047Y-14614286D02*
X29596428Y-14519048D01*
X29596428Y-14519048D02*
X29501190Y-14471429D01*
X29501190Y-14471429D02*
X29405952Y-14471429D01*
X29405952Y-14471429D02*
X29310714Y-14947619D01*
X28977380Y-14042857D02*
X29644047Y-14042857D01*
X29453571Y-14042857D02*
X29548809Y-13995238D01*
X29548809Y-13995238D02*
X29596428Y-13947619D01*
X29596428Y-13947619D02*
X29644047Y-13852381D01*
X29644047Y-13852381D02*
X29644047Y-13757143D01*
X29644047Y-12757142D02*
X28977380Y-12566666D01*
X28977380Y-12566666D02*
X29453571Y-12376190D01*
X29453571Y-12376190D02*
X28977380Y-12185714D01*
X28977380Y-12185714D02*
X29644047Y-11995238D01*
X28977380Y-11614285D02*
X29644047Y-11614285D01*
X29977380Y-11614285D02*
X29929761Y-11661904D01*
X29929761Y-11661904D02*
X29882142Y-11614285D01*
X29882142Y-11614285D02*
X29929761Y-11566666D01*
X29929761Y-11566666D02*
X29977380Y-11614285D01*
X29977380Y-11614285D02*
X29882142Y-11614285D01*
X28977380Y-11138095D02*
X29644047Y-11138095D01*
X29453571Y-11138095D02*
X29548809Y-11090476D01*
X29548809Y-11090476D02*
X29596428Y-11042857D01*
X29596428Y-11042857D02*
X29644047Y-10947619D01*
X29644047Y-10947619D02*
X29644047Y-10852381D01*
X29025000Y-10138095D02*
X28977380Y-10233333D01*
X28977380Y-10233333D02*
X28977380Y-10423809D01*
X28977380Y-10423809D02*
X29025000Y-10519047D01*
X29025000Y-10519047D02*
X29120238Y-10566666D01*
X29120238Y-10566666D02*
X29501190Y-10566666D01*
X29501190Y-10566666D02*
X29596428Y-10519047D01*
X29596428Y-10519047D02*
X29644047Y-10423809D01*
X29644047Y-10423809D02*
X29644047Y-10233333D01*
X29644047Y-10233333D02*
X29596428Y-10138095D01*
X29596428Y-10138095D02*
X29501190Y-10090476D01*
X29501190Y-10090476D02*
X29405952Y-10090476D01*
X29405952Y-10090476D02*
X29310714Y-10566666D01*
X27405000Y-18566666D02*
X27357380Y-18423809D01*
X27357380Y-18423809D02*
X27357380Y-18185714D01*
X27357380Y-18185714D02*
X27405000Y-18090476D01*
X27405000Y-18090476D02*
X27452619Y-18042857D01*
X27452619Y-18042857D02*
X27547857Y-17995238D01*
X27547857Y-17995238D02*
X27643095Y-17995238D01*
X27643095Y-17995238D02*
X27738333Y-18042857D01*
X27738333Y-18042857D02*
X27785952Y-18090476D01*
X27785952Y-18090476D02*
X27833571Y-18185714D01*
X27833571Y-18185714D02*
X27881190Y-18376190D01*
X27881190Y-18376190D02*
X27928809Y-18471428D01*
X27928809Y-18471428D02*
X27976428Y-18519047D01*
X27976428Y-18519047D02*
X28071666Y-18566666D01*
X28071666Y-18566666D02*
X28166904Y-18566666D01*
X28166904Y-18566666D02*
X28262142Y-18519047D01*
X28262142Y-18519047D02*
X28309761Y-18471428D01*
X28309761Y-18471428D02*
X28357380Y-18376190D01*
X28357380Y-18376190D02*
X28357380Y-18138095D01*
X28357380Y-18138095D02*
X28309761Y-17995238D01*
X27357380Y-17566666D02*
X28357380Y-17566666D01*
X28357380Y-17566666D02*
X28357380Y-17328571D01*
X28357380Y-17328571D02*
X28309761Y-17185714D01*
X28309761Y-17185714D02*
X28214523Y-17090476D01*
X28214523Y-17090476D02*
X28119285Y-17042857D01*
X28119285Y-17042857D02*
X27928809Y-16995238D01*
X27928809Y-16995238D02*
X27785952Y-16995238D01*
X27785952Y-16995238D02*
X27595476Y-17042857D01*
X27595476Y-17042857D02*
X27500238Y-17090476D01*
X27500238Y-17090476D02*
X27405000Y-17185714D01*
X27405000Y-17185714D02*
X27357380Y-17328571D01*
X27357380Y-17328571D02*
X27357380Y-17566666D01*
X28405000Y-15852381D02*
X27119285Y-16709523D01*
X27405000Y-15566666D02*
X27357380Y-15423809D01*
X27357380Y-15423809D02*
X27357380Y-15185714D01*
X27357380Y-15185714D02*
X27405000Y-15090476D01*
X27405000Y-15090476D02*
X27452619Y-15042857D01*
X27452619Y-15042857D02*
X27547857Y-14995238D01*
X27547857Y-14995238D02*
X27643095Y-14995238D01*
X27643095Y-14995238D02*
X27738333Y-15042857D01*
X27738333Y-15042857D02*
X27785952Y-15090476D01*
X27785952Y-15090476D02*
X27833571Y-15185714D01*
X27833571Y-15185714D02*
X27881190Y-15376190D01*
X27881190Y-15376190D02*
X27928809Y-15471428D01*
X27928809Y-15471428D02*
X27976428Y-15519047D01*
X27976428Y-15519047D02*
X28071666Y-15566666D01*
X28071666Y-15566666D02*
X28166904Y-15566666D01*
X28166904Y-15566666D02*
X28262142Y-15519047D01*
X28262142Y-15519047D02*
X28309761Y-15471428D01*
X28309761Y-15471428D02*
X28357380Y-15376190D01*
X28357380Y-15376190D02*
X28357380Y-15138095D01*
X28357380Y-15138095D02*
X28309761Y-14995238D01*
X27452619Y-13995238D02*
X27405000Y-14042857D01*
X27405000Y-14042857D02*
X27357380Y-14185714D01*
X27357380Y-14185714D02*
X27357380Y-14280952D01*
X27357380Y-14280952D02*
X27405000Y-14423809D01*
X27405000Y-14423809D02*
X27500238Y-14519047D01*
X27500238Y-14519047D02*
X27595476Y-14566666D01*
X27595476Y-14566666D02*
X27785952Y-14614285D01*
X27785952Y-14614285D02*
X27928809Y-14614285D01*
X27928809Y-14614285D02*
X28119285Y-14566666D01*
X28119285Y-14566666D02*
X28214523Y-14519047D01*
X28214523Y-14519047D02*
X28309761Y-14423809D01*
X28309761Y-14423809D02*
X28357380Y-14280952D01*
X28357380Y-14280952D02*
X28357380Y-14185714D01*
X28357380Y-14185714D02*
X28309761Y-14042857D01*
X28309761Y-14042857D02*
X28262142Y-13995238D01*
X28357380Y-12614285D02*
X28357380Y-12519047D01*
X28357380Y-12519047D02*
X28309761Y-12423809D01*
X28309761Y-12423809D02*
X28262142Y-12376190D01*
X28262142Y-12376190D02*
X28166904Y-12328571D01*
X28166904Y-12328571D02*
X27976428Y-12280952D01*
X27976428Y-12280952D02*
X27738333Y-12280952D01*
X27738333Y-12280952D02*
X27547857Y-12328571D01*
X27547857Y-12328571D02*
X27452619Y-12376190D01*
X27452619Y-12376190D02*
X27405000Y-12423809D01*
X27405000Y-12423809D02*
X27357380Y-12519047D01*
X27357380Y-12519047D02*
X27357380Y-12614285D01*
X27357380Y-12614285D02*
X27405000Y-12709523D01*
X27405000Y-12709523D02*
X27452619Y-12757142D01*
X27452619Y-12757142D02*
X27547857Y-12804761D01*
X27547857Y-12804761D02*
X27738333Y-12852380D01*
X27738333Y-12852380D02*
X27976428Y-12852380D01*
X27976428Y-12852380D02*
X28166904Y-12804761D01*
X28166904Y-12804761D02*
X28262142Y-12757142D01*
X28262142Y-12757142D02*
X28309761Y-12709523D01*
X28309761Y-12709523D02*
X28357380Y-12614285D01*
X27738333Y-11852380D02*
X27738333Y-11090476D01*
X28024047Y-10185714D02*
X27357380Y-10185714D01*
X28405000Y-10423809D02*
X27690714Y-10661904D01*
X27690714Y-10661904D02*
X27690714Y-10042857D01*
X25737380Y-12280952D02*
X25737380Y-12852380D01*
X25737380Y-12566666D02*
X26737380Y-12566666D01*
X26737380Y-12566666D02*
X26594523Y-12661904D01*
X26594523Y-12661904D02*
X26499285Y-12757142D01*
X26499285Y-12757142D02*
X26451666Y-12852380D01*
X26118333Y-11852380D02*
X26118333Y-11090476D01*
X26737380Y-10138095D02*
X26737380Y-10614285D01*
X26737380Y-10614285D02*
X26261190Y-10661904D01*
X26261190Y-10661904D02*
X26308809Y-10614285D01*
X26308809Y-10614285D02*
X26356428Y-10519047D01*
X26356428Y-10519047D02*
X26356428Y-10280952D01*
X26356428Y-10280952D02*
X26308809Y-10185714D01*
X26308809Y-10185714D02*
X26261190Y-10138095D01*
X26261190Y-10138095D02*
X26165952Y-10090476D01*
X26165952Y-10090476D02*
X25927857Y-10090476D01*
X25927857Y-10090476D02*
X25832619Y-10138095D01*
X25832619Y-10138095D02*
X25785000Y-10185714D01*
X25785000Y-10185714D02*
X25737380Y-10280952D01*
X25737380Y-10280952D02*
X25737380Y-10519047D01*
X25737380Y-10519047D02*
X25785000Y-10614285D01*
X25785000Y-10614285D02*
X25832619Y-10661904D01*
X25022142Y-12852380D02*
X25069761Y-12804761D01*
X25069761Y-12804761D02*
X25117380Y-12709523D01*
X25117380Y-12709523D02*
X25117380Y-12471428D01*
X25117380Y-12471428D02*
X25069761Y-12376190D01*
X25069761Y-12376190D02*
X25022142Y-12328571D01*
X25022142Y-12328571D02*
X24926904Y-12280952D01*
X24926904Y-12280952D02*
X24831666Y-12280952D01*
X24831666Y-12280952D02*
X24688809Y-12328571D01*
X24688809Y-12328571D02*
X24117380Y-12899999D01*
X24117380Y-12899999D02*
X24117380Y-12280952D01*
X24498333Y-11852380D02*
X24498333Y-11090476D01*
X25117380Y-10185714D02*
X25117380Y-10376190D01*
X25117380Y-10376190D02*
X25069761Y-10471428D01*
X25069761Y-10471428D02*
X25022142Y-10519047D01*
X25022142Y-10519047D02*
X24879285Y-10614285D01*
X24879285Y-10614285D02*
X24688809Y-10661904D01*
X24688809Y-10661904D02*
X24307857Y-10661904D01*
X24307857Y-10661904D02*
X24212619Y-10614285D01*
X24212619Y-10614285D02*
X24165000Y-10566666D01*
X24165000Y-10566666D02*
X24117380Y-10471428D01*
X24117380Y-10471428D02*
X24117380Y-10280952D01*
X24117380Y-10280952D02*
X24165000Y-10185714D01*
X24165000Y-10185714D02*
X24212619Y-10138095D01*
X24212619Y-10138095D02*
X24307857Y-10090476D01*
X24307857Y-10090476D02*
X24545952Y-10090476D01*
X24545952Y-10090476D02*
X24641190Y-10138095D01*
X24641190Y-10138095D02*
X24688809Y-10185714D01*
X24688809Y-10185714D02*
X24736428Y-10280952D01*
X24736428Y-10280952D02*
X24736428Y-10471428D01*
X24736428Y-10471428D02*
X24688809Y-10566666D01*
X24688809Y-10566666D02*
X24641190Y-10614285D01*
X24641190Y-10614285D02*
X24545952Y-10661904D01*
X23497380Y-12899999D02*
X23497380Y-12280952D01*
X23497380Y-12280952D02*
X23116428Y-12614285D01*
X23116428Y-12614285D02*
X23116428Y-12471428D01*
X23116428Y-12471428D02*
X23068809Y-12376190D01*
X23068809Y-12376190D02*
X23021190Y-12328571D01*
X23021190Y-12328571D02*
X22925952Y-12280952D01*
X22925952Y-12280952D02*
X22687857Y-12280952D01*
X22687857Y-12280952D02*
X22592619Y-12328571D01*
X22592619Y-12328571D02*
X22545000Y-12376190D01*
X22545000Y-12376190D02*
X22497380Y-12471428D01*
X22497380Y-12471428D02*
X22497380Y-12757142D01*
X22497380Y-12757142D02*
X22545000Y-12852380D01*
X22545000Y-12852380D02*
X22592619Y-12899999D01*
X22878333Y-11852380D02*
X22878333Y-11090476D01*
X23497380Y-10709523D02*
X23497380Y-10042857D01*
X23497380Y-10042857D02*
X22497380Y-10471428D01*
D11*
X31021428Y34848428D02*
X31307142Y34848428D01*
X31307142Y34848428D02*
X31307142Y35448428D01*
X30821428Y35162714D02*
X30621428Y35162714D01*
X30535714Y34848428D02*
X30821428Y34848428D01*
X30821428Y34848428D02*
X30821428Y35448428D01*
X30821428Y35448428D02*
X30535714Y35448428D01*
X30278571Y34848428D02*
X30278571Y35448428D01*
X30278571Y35448428D02*
X30135714Y35448428D01*
X30135714Y35448428D02*
X30050000Y35419857D01*
X30050000Y35419857D02*
X29992857Y35362714D01*
X29992857Y35362714D02*
X29964286Y35305571D01*
X29964286Y35305571D02*
X29935714Y35191285D01*
X29935714Y35191285D02*
X29935714Y35105571D01*
X29935714Y35105571D02*
X29964286Y34991285D01*
X29964286Y34991285D02*
X29992857Y34934142D01*
X29992857Y34934142D02*
X30050000Y34877000D01*
X30050000Y34877000D02*
X30135714Y34848428D01*
X30135714Y34848428D02*
X30278571Y34848428D01*
X29421429Y35448428D02*
X29535714Y35448428D01*
X29535714Y35448428D02*
X29592857Y35419857D01*
X29592857Y35419857D02*
X29621429Y35391285D01*
X29621429Y35391285D02*
X29678571Y35305571D01*
X29678571Y35305571D02*
X29707143Y35191285D01*
X29707143Y35191285D02*
X29707143Y34962714D01*
X29707143Y34962714D02*
X29678571Y34905571D01*
X29678571Y34905571D02*
X29650000Y34877000D01*
X29650000Y34877000D02*
X29592857Y34848428D01*
X29592857Y34848428D02*
X29478571Y34848428D01*
X29478571Y34848428D02*
X29421429Y34877000D01*
X29421429Y34877000D02*
X29392857Y34905571D01*
X29392857Y34905571D02*
X29364286Y34962714D01*
X29364286Y34962714D02*
X29364286Y35105571D01*
X29364286Y35105571D02*
X29392857Y35162714D01*
X29392857Y35162714D02*
X29421429Y35191285D01*
X29421429Y35191285D02*
X29478571Y35219857D01*
X29478571Y35219857D02*
X29592857Y35219857D01*
X29592857Y35219857D02*
X29650000Y35191285D01*
X29650000Y35191285D02*
X29678571Y35162714D01*
X29678571Y35162714D02*
X29707143Y35105571D01*
X30852000Y25657141D02*
X30823428Y25742856D01*
X30823428Y25742856D02*
X30823428Y25885713D01*
X30823428Y25885713D02*
X30852000Y25942856D01*
X30852000Y25942856D02*
X30880571Y25971427D01*
X30880571Y25971427D02*
X30937714Y25999998D01*
X30937714Y25999998D02*
X30994857Y25999998D01*
X30994857Y25999998D02*
X31052000Y25971427D01*
X31052000Y25971427D02*
X31080571Y25942856D01*
X31080571Y25942856D02*
X31109142Y25885713D01*
X31109142Y25885713D02*
X31137714Y25771427D01*
X31137714Y25771427D02*
X31166285Y25714284D01*
X31166285Y25714284D02*
X31194857Y25685713D01*
X31194857Y25685713D02*
X31252000Y25657141D01*
X31252000Y25657141D02*
X31309142Y25657141D01*
X31309142Y25657141D02*
X31366285Y25685713D01*
X31366285Y25685713D02*
X31394857Y25714284D01*
X31394857Y25714284D02*
X31423428Y25771427D01*
X31423428Y25771427D02*
X31423428Y25914284D01*
X31423428Y25914284D02*
X31394857Y25999998D01*
X30823428Y26257142D02*
X31423428Y26257142D01*
X31423428Y26257142D02*
X31423428Y26399999D01*
X31423428Y26399999D02*
X31394857Y26485713D01*
X31394857Y26485713D02*
X31337714Y26542856D01*
X31337714Y26542856D02*
X31280571Y26571427D01*
X31280571Y26571427D02*
X31166285Y26599999D01*
X31166285Y26599999D02*
X31080571Y26599999D01*
X31080571Y26599999D02*
X30966285Y26571427D01*
X30966285Y26571427D02*
X30909142Y26542856D01*
X30909142Y26542856D02*
X30852000Y26485713D01*
X30852000Y26485713D02*
X30823428Y26399999D01*
X30823428Y26399999D02*
X30823428Y26257142D01*
X30994857Y26828570D02*
X30994857Y27114285D01*
X30823428Y26771427D02*
X31423428Y26971427D01*
X31423428Y26971427D02*
X30823428Y27171427D01*
X30823428Y27685713D02*
X30823428Y27342856D01*
X30823428Y27514285D02*
X31423428Y27514285D01*
X31423428Y27514285D02*
X31337714Y27457142D01*
X31337714Y27457142D02*
X31280571Y27399999D01*
X31280571Y27399999D02*
X31252000Y27342856D01*
X30902000Y23257141D02*
X30873428Y23342856D01*
X30873428Y23342856D02*
X30873428Y23485713D01*
X30873428Y23485713D02*
X30902000Y23542856D01*
X30902000Y23542856D02*
X30930571Y23571427D01*
X30930571Y23571427D02*
X30987714Y23599998D01*
X30987714Y23599998D02*
X31044857Y23599998D01*
X31044857Y23599998D02*
X31102000Y23571427D01*
X31102000Y23571427D02*
X31130571Y23542856D01*
X31130571Y23542856D02*
X31159142Y23485713D01*
X31159142Y23485713D02*
X31187714Y23371427D01*
X31187714Y23371427D02*
X31216285Y23314284D01*
X31216285Y23314284D02*
X31244857Y23285713D01*
X31244857Y23285713D02*
X31302000Y23257141D01*
X31302000Y23257141D02*
X31359142Y23257141D01*
X31359142Y23257141D02*
X31416285Y23285713D01*
X31416285Y23285713D02*
X31444857Y23314284D01*
X31444857Y23314284D02*
X31473428Y23371427D01*
X31473428Y23371427D02*
X31473428Y23514284D01*
X31473428Y23514284D02*
X31444857Y23599998D01*
X30873428Y23857142D02*
X31473428Y23857142D01*
X31473428Y23857142D02*
X31473428Y23999999D01*
X31473428Y23999999D02*
X31444857Y24085713D01*
X31444857Y24085713D02*
X31387714Y24142856D01*
X31387714Y24142856D02*
X31330571Y24171427D01*
X31330571Y24171427D02*
X31216285Y24199999D01*
X31216285Y24199999D02*
X31130571Y24199999D01*
X31130571Y24199999D02*
X31016285Y24171427D01*
X31016285Y24171427D02*
X30959142Y24142856D01*
X30959142Y24142856D02*
X30902000Y24085713D01*
X30902000Y24085713D02*
X30873428Y23999999D01*
X30873428Y23999999D02*
X30873428Y23857142D01*
X31044857Y24428570D02*
X31044857Y24714285D01*
X30873428Y24371427D02*
X31473428Y24571427D01*
X31473428Y24571427D02*
X30873428Y24771427D01*
X30873428Y25285713D02*
X30873428Y24942856D01*
X30873428Y25114285D02*
X31473428Y25114285D01*
X31473428Y25114285D02*
X31387714Y25057142D01*
X31387714Y25057142D02*
X31330571Y24999999D01*
X31330571Y24999999D02*
X31302000Y24942856D01*
X19087714Y23485714D02*
X19059142Y23571428D01*
X19059142Y23571428D02*
X19030571Y23599999D01*
X19030571Y23599999D02*
X18973428Y23628571D01*
X18973428Y23628571D02*
X18887714Y23628571D01*
X18887714Y23628571D02*
X18830571Y23599999D01*
X18830571Y23599999D02*
X18802000Y23571428D01*
X18802000Y23571428D02*
X18773428Y23514285D01*
X18773428Y23514285D02*
X18773428Y23285714D01*
X18773428Y23285714D02*
X19373428Y23285714D01*
X19373428Y23285714D02*
X19373428Y23485714D01*
X19373428Y23485714D02*
X19344857Y23542857D01*
X19344857Y23542857D02*
X19316285Y23571428D01*
X19316285Y23571428D02*
X19259142Y23599999D01*
X19259142Y23599999D02*
X19202000Y23599999D01*
X19202000Y23599999D02*
X19144857Y23571428D01*
X19144857Y23571428D02*
X19116285Y23542857D01*
X19116285Y23542857D02*
X19087714Y23485714D01*
X19087714Y23485714D02*
X19087714Y23285714D01*
X19373428Y23799999D02*
X19373428Y24142857D01*
X18773428Y23971428D02*
X19373428Y23971428D01*
X18773428Y24342857D02*
X19373428Y24342857D01*
X19373428Y24342857D02*
X18773428Y24685714D01*
X18773428Y24685714D02*
X19373428Y24685714D01*
X19373428Y24914285D02*
X19373428Y25314285D01*
X19373428Y25314285D02*
X18773428Y25057142D01*
X19087714Y13335714D02*
X19059142Y13421428D01*
X19059142Y13421428D02*
X19030571Y13449999D01*
X19030571Y13449999D02*
X18973428Y13478571D01*
X18973428Y13478571D02*
X18887714Y13478571D01*
X18887714Y13478571D02*
X18830571Y13449999D01*
X18830571Y13449999D02*
X18802000Y13421428D01*
X18802000Y13421428D02*
X18773428Y13364285D01*
X18773428Y13364285D02*
X18773428Y13135714D01*
X18773428Y13135714D02*
X19373428Y13135714D01*
X19373428Y13135714D02*
X19373428Y13335714D01*
X19373428Y13335714D02*
X19344857Y13392857D01*
X19344857Y13392857D02*
X19316285Y13421428D01*
X19316285Y13421428D02*
X19259142Y13449999D01*
X19259142Y13449999D02*
X19202000Y13449999D01*
X19202000Y13449999D02*
X19144857Y13421428D01*
X19144857Y13421428D02*
X19116285Y13392857D01*
X19116285Y13392857D02*
X19087714Y13335714D01*
X19087714Y13335714D02*
X19087714Y13135714D01*
X19373428Y13649999D02*
X19373428Y13992857D01*
X18773428Y13821428D02*
X19373428Y13821428D01*
X18773428Y14192857D02*
X19373428Y14192857D01*
X19373428Y14192857D02*
X18773428Y14535714D01*
X18773428Y14535714D02*
X19373428Y14535714D01*
X19373428Y14764285D02*
X19373428Y15135713D01*
X19373428Y15135713D02*
X19144857Y14935713D01*
X19144857Y14935713D02*
X19144857Y15021428D01*
X19144857Y15021428D02*
X19116285Y15078571D01*
X19116285Y15078571D02*
X19087714Y15107142D01*
X19087714Y15107142D02*
X19030571Y15135713D01*
X19030571Y15135713D02*
X18887714Y15135713D01*
X18887714Y15135713D02*
X18830571Y15107142D01*
X18830571Y15107142D02*
X18802000Y15078571D01*
X18802000Y15078571D02*
X18773428Y15021428D01*
X18773428Y15021428D02*
X18773428Y14849999D01*
X18773428Y14849999D02*
X18802000Y14792856D01*
X18802000Y14792856D02*
X18830571Y14764285D01*
X16839999Y-35625333D02*
X16230476Y-35625333D01*
X16535237Y-35930095D02*
X16535237Y-35320571D01*
X15925714Y-35130095D02*
X15430476Y-35130095D01*
X15430476Y-35130095D02*
X15697142Y-35434857D01*
X15697142Y-35434857D02*
X15582857Y-35434857D01*
X15582857Y-35434857D02*
X15506666Y-35472952D01*
X15506666Y-35472952D02*
X15468571Y-35511047D01*
X15468571Y-35511047D02*
X15430476Y-35587238D01*
X15430476Y-35587238D02*
X15430476Y-35777714D01*
X15430476Y-35777714D02*
X15468571Y-35853904D01*
X15468571Y-35853904D02*
X15506666Y-35892000D01*
X15506666Y-35892000D02*
X15582857Y-35930095D01*
X15582857Y-35930095D02*
X15811428Y-35930095D01*
X15811428Y-35930095D02*
X15887619Y-35892000D01*
X15887619Y-35892000D02*
X15925714Y-35853904D01*
X15087618Y-35853904D02*
X15049523Y-35892000D01*
X15049523Y-35892000D02*
X15087618Y-35930095D01*
X15087618Y-35930095D02*
X15125714Y-35892000D01*
X15125714Y-35892000D02*
X15087618Y-35853904D01*
X15087618Y-35853904D02*
X15087618Y-35930095D01*
X14782857Y-35130095D02*
X14287619Y-35130095D01*
X14287619Y-35130095D02*
X14554285Y-35434857D01*
X14554285Y-35434857D02*
X14440000Y-35434857D01*
X14440000Y-35434857D02*
X14363809Y-35472952D01*
X14363809Y-35472952D02*
X14325714Y-35511047D01*
X14325714Y-35511047D02*
X14287619Y-35587238D01*
X14287619Y-35587238D02*
X14287619Y-35777714D01*
X14287619Y-35777714D02*
X14325714Y-35853904D01*
X14325714Y-35853904D02*
X14363809Y-35892000D01*
X14363809Y-35892000D02*
X14440000Y-35930095D01*
X14440000Y-35930095D02*
X14668571Y-35930095D01*
X14668571Y-35930095D02*
X14744762Y-35892000D01*
X14744762Y-35892000D02*
X14782857Y-35853904D01*
X14059047Y-35130095D02*
X13792380Y-35930095D01*
X13792380Y-35930095D02*
X13525714Y-35130095D01*
X20547619Y-44588047D02*
X20433333Y-44626142D01*
X20433333Y-44626142D02*
X20395238Y-44664238D01*
X20395238Y-44664238D02*
X20357142Y-44740428D01*
X20357142Y-44740428D02*
X20357142Y-44854714D01*
X20357142Y-44854714D02*
X20395238Y-44930904D01*
X20395238Y-44930904D02*
X20433333Y-44969000D01*
X20433333Y-44969000D02*
X20509523Y-45007095D01*
X20509523Y-45007095D02*
X20814285Y-45007095D01*
X20814285Y-45007095D02*
X20814285Y-44207095D01*
X20814285Y-44207095D02*
X20547619Y-44207095D01*
X20547619Y-44207095D02*
X20471428Y-44245190D01*
X20471428Y-44245190D02*
X20433333Y-44283285D01*
X20433333Y-44283285D02*
X20395238Y-44359476D01*
X20395238Y-44359476D02*
X20395238Y-44435666D01*
X20395238Y-44435666D02*
X20433333Y-44511857D01*
X20433333Y-44511857D02*
X20471428Y-44549952D01*
X20471428Y-44549952D02*
X20547619Y-44588047D01*
X20547619Y-44588047D02*
X20814285Y-44588047D01*
X20128571Y-44207095D02*
X19671428Y-44207095D01*
X19900000Y-45007095D02*
X19900000Y-44207095D01*
X19404761Y-45007095D02*
X19404761Y-44207095D01*
X19404761Y-44207095D02*
X18947618Y-45007095D01*
X18947618Y-45007095D02*
X18947618Y-44207095D01*
X18147619Y-45007095D02*
X18604762Y-45007095D01*
X18376190Y-45007095D02*
X18376190Y-44207095D01*
X18376190Y-44207095D02*
X18452381Y-44321380D01*
X18452381Y-44321380D02*
X18528571Y-44397571D01*
X18528571Y-44397571D02*
X18604762Y-44435666D01*
X15195238Y-47557095D02*
X15576190Y-47557095D01*
X15576190Y-47557095D02*
X15576190Y-46757095D01*
X14928571Y-47138047D02*
X14661905Y-47138047D01*
X14547619Y-47557095D02*
X14928571Y-47557095D01*
X14928571Y-47557095D02*
X14928571Y-46757095D01*
X14928571Y-46757095D02*
X14547619Y-46757095D01*
X14204761Y-47557095D02*
X14204761Y-46757095D01*
X14204761Y-46757095D02*
X14014285Y-46757095D01*
X14014285Y-46757095D02*
X13899999Y-46795190D01*
X13899999Y-46795190D02*
X13823809Y-46871380D01*
X13823809Y-46871380D02*
X13785714Y-46947571D01*
X13785714Y-46947571D02*
X13747618Y-47099952D01*
X13747618Y-47099952D02*
X13747618Y-47214238D01*
X13747618Y-47214238D02*
X13785714Y-47366619D01*
X13785714Y-47366619D02*
X13823809Y-47442809D01*
X13823809Y-47442809D02*
X13899999Y-47519000D01*
X13899999Y-47519000D02*
X14014285Y-47557095D01*
X14014285Y-47557095D02*
X14204761Y-47557095D01*
X12985714Y-47557095D02*
X13442857Y-47557095D01*
X13214285Y-47557095D02*
X13214285Y-46757095D01*
X13214285Y-46757095D02*
X13290476Y-46871380D01*
X13290476Y-46871380D02*
X13366666Y-46947571D01*
X13366666Y-46947571D02*
X13442857Y-46985666D01*
X36595238Y-47645095D02*
X36976190Y-47645095D01*
X36976190Y-47645095D02*
X36976190Y-46845095D01*
X36328571Y-47226047D02*
X36061905Y-47226047D01*
X35947619Y-47645095D02*
X36328571Y-47645095D01*
X36328571Y-47645095D02*
X36328571Y-46845095D01*
X36328571Y-46845095D02*
X35947619Y-46845095D01*
X35604761Y-47645095D02*
X35604761Y-46845095D01*
X35604761Y-46845095D02*
X35414285Y-46845095D01*
X35414285Y-46845095D02*
X35299999Y-46883190D01*
X35299999Y-46883190D02*
X35223809Y-46959380D01*
X35223809Y-46959380D02*
X35185714Y-47035571D01*
X35185714Y-47035571D02*
X35147618Y-47187952D01*
X35147618Y-47187952D02*
X35147618Y-47302238D01*
X35147618Y-47302238D02*
X35185714Y-47454619D01*
X35185714Y-47454619D02*
X35223809Y-47530809D01*
X35223809Y-47530809D02*
X35299999Y-47607000D01*
X35299999Y-47607000D02*
X35414285Y-47645095D01*
X35414285Y-47645095D02*
X35604761Y-47645095D01*
X34842857Y-46921285D02*
X34804761Y-46883190D01*
X34804761Y-46883190D02*
X34728571Y-46845095D01*
X34728571Y-46845095D02*
X34538095Y-46845095D01*
X34538095Y-46845095D02*
X34461904Y-46883190D01*
X34461904Y-46883190D02*
X34423809Y-46921285D01*
X34423809Y-46921285D02*
X34385714Y-46997476D01*
X34385714Y-46997476D02*
X34385714Y-47073666D01*
X34385714Y-47073666D02*
X34423809Y-47187952D01*
X34423809Y-47187952D02*
X34880952Y-47645095D01*
X34880952Y-47645095D02*
X34385714Y-47645095D01*
X31647619Y-44638047D02*
X31533333Y-44676142D01*
X31533333Y-44676142D02*
X31495238Y-44714238D01*
X31495238Y-44714238D02*
X31457142Y-44790428D01*
X31457142Y-44790428D02*
X31457142Y-44904714D01*
X31457142Y-44904714D02*
X31495238Y-44980904D01*
X31495238Y-44980904D02*
X31533333Y-45019000D01*
X31533333Y-45019000D02*
X31609523Y-45057095D01*
X31609523Y-45057095D02*
X31914285Y-45057095D01*
X31914285Y-45057095D02*
X31914285Y-44257095D01*
X31914285Y-44257095D02*
X31647619Y-44257095D01*
X31647619Y-44257095D02*
X31571428Y-44295190D01*
X31571428Y-44295190D02*
X31533333Y-44333285D01*
X31533333Y-44333285D02*
X31495238Y-44409476D01*
X31495238Y-44409476D02*
X31495238Y-44485666D01*
X31495238Y-44485666D02*
X31533333Y-44561857D01*
X31533333Y-44561857D02*
X31571428Y-44599952D01*
X31571428Y-44599952D02*
X31647619Y-44638047D01*
X31647619Y-44638047D02*
X31914285Y-44638047D01*
X31228571Y-44257095D02*
X30771428Y-44257095D01*
X31000000Y-45057095D02*
X31000000Y-44257095D01*
X30504761Y-45057095D02*
X30504761Y-44257095D01*
X30504761Y-44257095D02*
X30047618Y-45057095D01*
X30047618Y-45057095D02*
X30047618Y-44257095D01*
X29704762Y-44333285D02*
X29666666Y-44295190D01*
X29666666Y-44295190D02*
X29590476Y-44257095D01*
X29590476Y-44257095D02*
X29400000Y-44257095D01*
X29400000Y-44257095D02*
X29323809Y-44295190D01*
X29323809Y-44295190D02*
X29285714Y-44333285D01*
X29285714Y-44333285D02*
X29247619Y-44409476D01*
X29247619Y-44409476D02*
X29247619Y-44485666D01*
X29247619Y-44485666D02*
X29285714Y-44599952D01*
X29285714Y-44599952D02*
X29742857Y-45057095D01*
X29742857Y-45057095D02*
X29247619Y-45057095D01*
D10*
X28099047Y2867380D02*
X27527619Y2867380D01*
X27813333Y1867380D02*
X27813333Y2867380D01*
X26622857Y1962619D02*
X26670476Y1915000D01*
X26670476Y1915000D02*
X26813333Y1867380D01*
X26813333Y1867380D02*
X26908571Y1867380D01*
X26908571Y1867380D02*
X27051428Y1915000D01*
X27051428Y1915000D02*
X27146666Y2010238D01*
X27146666Y2010238D02*
X27194285Y2105476D01*
X27194285Y2105476D02*
X27241904Y2295952D01*
X27241904Y2295952D02*
X27241904Y2438809D01*
X27241904Y2438809D02*
X27194285Y2629285D01*
X27194285Y2629285D02*
X27146666Y2724523D01*
X27146666Y2724523D02*
X27051428Y2819761D01*
X27051428Y2819761D02*
X26908571Y2867380D01*
X26908571Y2867380D02*
X26813333Y2867380D01*
X26813333Y2867380D02*
X26670476Y2819761D01*
X26670476Y2819761D02*
X26622857Y2772142D01*
X26241904Y2153095D02*
X25765714Y2153095D01*
X26337142Y1867380D02*
X26003809Y2867380D01*
X26003809Y2867380D02*
X25670476Y1867380D01*
X25289523Y1867380D02*
X25099047Y1867380D01*
X25099047Y1867380D02*
X25003809Y1915000D01*
X25003809Y1915000D02*
X24956190Y1962619D01*
X24956190Y1962619D02*
X24860952Y2105476D01*
X24860952Y2105476D02*
X24813333Y2295952D01*
X24813333Y2295952D02*
X24813333Y2676904D01*
X24813333Y2676904D02*
X24860952Y2772142D01*
X24860952Y2772142D02*
X24908571Y2819761D01*
X24908571Y2819761D02*
X25003809Y2867380D01*
X25003809Y2867380D02*
X25194285Y2867380D01*
X25194285Y2867380D02*
X25289523Y2819761D01*
X25289523Y2819761D02*
X25337142Y2772142D01*
X25337142Y2772142D02*
X25384761Y2676904D01*
X25384761Y2676904D02*
X25384761Y2438809D01*
X25384761Y2438809D02*
X25337142Y2343571D01*
X25337142Y2343571D02*
X25289523Y2295952D01*
X25289523Y2295952D02*
X25194285Y2248333D01*
X25194285Y2248333D02*
X25003809Y2248333D01*
X25003809Y2248333D02*
X24908571Y2295952D01*
X24908571Y2295952D02*
X24860952Y2343571D01*
X24860952Y2343571D02*
X24813333Y2438809D01*
X23908571Y2867380D02*
X24384761Y2867380D01*
X24384761Y2867380D02*
X24432380Y2391190D01*
X24432380Y2391190D02*
X24384761Y2438809D01*
X24384761Y2438809D02*
X24289523Y2486428D01*
X24289523Y2486428D02*
X24051428Y2486428D01*
X24051428Y2486428D02*
X23956190Y2438809D01*
X23956190Y2438809D02*
X23908571Y2391190D01*
X23908571Y2391190D02*
X23860952Y2295952D01*
X23860952Y2295952D02*
X23860952Y2057857D01*
X23860952Y2057857D02*
X23908571Y1962619D01*
X23908571Y1962619D02*
X23956190Y1915000D01*
X23956190Y1915000D02*
X24051428Y1867380D01*
X24051428Y1867380D02*
X24289523Y1867380D01*
X24289523Y1867380D02*
X24384761Y1915000D01*
X24384761Y1915000D02*
X24432380Y1962619D01*
X23003809Y2534047D02*
X23003809Y1867380D01*
X23241904Y2915000D02*
X23479999Y2200714D01*
X23479999Y2200714D02*
X22860952Y2200714D01*
X22337142Y2438809D02*
X22432380Y2486428D01*
X22432380Y2486428D02*
X22479999Y2534047D01*
X22479999Y2534047D02*
X22527618Y2629285D01*
X22527618Y2629285D02*
X22527618Y2676904D01*
X22527618Y2676904D02*
X22479999Y2772142D01*
X22479999Y2772142D02*
X22432380Y2819761D01*
X22432380Y2819761D02*
X22337142Y2867380D01*
X22337142Y2867380D02*
X22146666Y2867380D01*
X22146666Y2867380D02*
X22051428Y2819761D01*
X22051428Y2819761D02*
X22003809Y2772142D01*
X22003809Y2772142D02*
X21956190Y2676904D01*
X21956190Y2676904D02*
X21956190Y2629285D01*
X21956190Y2629285D02*
X22003809Y2534047D01*
X22003809Y2534047D02*
X22051428Y2486428D01*
X22051428Y2486428D02*
X22146666Y2438809D01*
X22146666Y2438809D02*
X22337142Y2438809D01*
X22337142Y2438809D02*
X22432380Y2391190D01*
X22432380Y2391190D02*
X22479999Y2343571D01*
X22479999Y2343571D02*
X22527618Y2248333D01*
X22527618Y2248333D02*
X22527618Y2057857D01*
X22527618Y2057857D02*
X22479999Y1962619D01*
X22479999Y1962619D02*
X22432380Y1915000D01*
X22432380Y1915000D02*
X22337142Y1867380D01*
X22337142Y1867380D02*
X22146666Y1867380D01*
X22146666Y1867380D02*
X22051428Y1915000D01*
X22051428Y1915000D02*
X22003809Y1962619D01*
X22003809Y1962619D02*
X21956190Y2057857D01*
X21956190Y2057857D02*
X21956190Y2248333D01*
X21956190Y2248333D02*
X22003809Y2343571D01*
X22003809Y2343571D02*
X22051428Y2391190D01*
X22051428Y2391190D02*
X22146666Y2438809D01*
X31886190Y50247380D02*
X31314762Y50247380D01*
X31600476Y49247380D02*
X31600476Y50247380D01*
X30838571Y49247380D02*
X30933809Y49295000D01*
X30933809Y49295000D02*
X30981428Y49342619D01*
X30981428Y49342619D02*
X31029047Y49437857D01*
X31029047Y49437857D02*
X31029047Y49723571D01*
X31029047Y49723571D02*
X30981428Y49818809D01*
X30981428Y49818809D02*
X30933809Y49866428D01*
X30933809Y49866428D02*
X30838571Y49914047D01*
X30838571Y49914047D02*
X30695714Y49914047D01*
X30695714Y49914047D02*
X30600476Y49866428D01*
X30600476Y49866428D02*
X30552857Y49818809D01*
X30552857Y49818809D02*
X30505238Y49723571D01*
X30505238Y49723571D02*
X30505238Y49437857D01*
X30505238Y49437857D02*
X30552857Y49342619D01*
X30552857Y49342619D02*
X30600476Y49295000D01*
X30600476Y49295000D02*
X30695714Y49247380D01*
X30695714Y49247380D02*
X30838571Y49247380D01*
X28981428Y49771190D02*
X28838571Y49723571D01*
X28838571Y49723571D02*
X28790952Y49675952D01*
X28790952Y49675952D02*
X28743333Y49580714D01*
X28743333Y49580714D02*
X28743333Y49437857D01*
X28743333Y49437857D02*
X28790952Y49342619D01*
X28790952Y49342619D02*
X28838571Y49295000D01*
X28838571Y49295000D02*
X28933809Y49247380D01*
X28933809Y49247380D02*
X29314761Y49247380D01*
X29314761Y49247380D02*
X29314761Y50247380D01*
X29314761Y50247380D02*
X28981428Y50247380D01*
X28981428Y50247380D02*
X28886190Y50199761D01*
X28886190Y50199761D02*
X28838571Y50152142D01*
X28838571Y50152142D02*
X28790952Y50056904D01*
X28790952Y50056904D02*
X28790952Y49961666D01*
X28790952Y49961666D02*
X28838571Y49866428D01*
X28838571Y49866428D02*
X28886190Y49818809D01*
X28886190Y49818809D02*
X28981428Y49771190D01*
X28981428Y49771190D02*
X29314761Y49771190D01*
X28171904Y49247380D02*
X28267142Y49295000D01*
X28267142Y49295000D02*
X28314761Y49342619D01*
X28314761Y49342619D02*
X28362380Y49437857D01*
X28362380Y49437857D02*
X28362380Y49723571D01*
X28362380Y49723571D02*
X28314761Y49818809D01*
X28314761Y49818809D02*
X28267142Y49866428D01*
X28267142Y49866428D02*
X28171904Y49914047D01*
X28171904Y49914047D02*
X28029047Y49914047D01*
X28029047Y49914047D02*
X27933809Y49866428D01*
X27933809Y49866428D02*
X27886190Y49818809D01*
X27886190Y49818809D02*
X27838571Y49723571D01*
X27838571Y49723571D02*
X27838571Y49437857D01*
X27838571Y49437857D02*
X27886190Y49342619D01*
X27886190Y49342619D02*
X27933809Y49295000D01*
X27933809Y49295000D02*
X28029047Y49247380D01*
X28029047Y49247380D02*
X28171904Y49247380D01*
X26981428Y49247380D02*
X26981428Y49771190D01*
X26981428Y49771190D02*
X27029047Y49866428D01*
X27029047Y49866428D02*
X27124285Y49914047D01*
X27124285Y49914047D02*
X27314761Y49914047D01*
X27314761Y49914047D02*
X27409999Y49866428D01*
X26981428Y49295000D02*
X27076666Y49247380D01*
X27076666Y49247380D02*
X27314761Y49247380D01*
X27314761Y49247380D02*
X27409999Y49295000D01*
X27409999Y49295000D02*
X27457618Y49390238D01*
X27457618Y49390238D02*
X27457618Y49485476D01*
X27457618Y49485476D02*
X27409999Y49580714D01*
X27409999Y49580714D02*
X27314761Y49628333D01*
X27314761Y49628333D02*
X27076666Y49628333D01*
X27076666Y49628333D02*
X26981428Y49675952D01*
X26505237Y49247380D02*
X26505237Y49914047D01*
X26505237Y49723571D02*
X26457618Y49818809D01*
X26457618Y49818809D02*
X26409999Y49866428D01*
X26409999Y49866428D02*
X26314761Y49914047D01*
X26314761Y49914047D02*
X26219523Y49914047D01*
X25457618Y49247380D02*
X25457618Y50247380D01*
X25457618Y49295000D02*
X25552856Y49247380D01*
X25552856Y49247380D02*
X25743332Y49247380D01*
X25743332Y49247380D02*
X25838570Y49295000D01*
X25838570Y49295000D02*
X25886189Y49342619D01*
X25886189Y49342619D02*
X25933808Y49437857D01*
X25933808Y49437857D02*
X25933808Y49723571D01*
X25933808Y49723571D02*
X25886189Y49818809D01*
X25886189Y49818809D02*
X25838570Y49866428D01*
X25838570Y49866428D02*
X25743332Y49914047D01*
X25743332Y49914047D02*
X25552856Y49914047D01*
X25552856Y49914047D02*
X25457618Y49866428D01*
X24314760Y49914047D02*
X24124284Y49247380D01*
X24124284Y49247380D02*
X23933808Y49723571D01*
X23933808Y49723571D02*
X23743332Y49247380D01*
X23743332Y49247380D02*
X23552856Y49914047D01*
X23171903Y49247380D02*
X23171903Y49914047D01*
X23171903Y50247380D02*
X23219522Y50199761D01*
X23219522Y50199761D02*
X23171903Y50152142D01*
X23171903Y50152142D02*
X23124284Y50199761D01*
X23124284Y50199761D02*
X23171903Y50247380D01*
X23171903Y50247380D02*
X23171903Y50152142D01*
X22838570Y49914047D02*
X22457618Y49914047D01*
X22695713Y50247380D02*
X22695713Y49390238D01*
X22695713Y49390238D02*
X22648094Y49295000D01*
X22648094Y49295000D02*
X22552856Y49247380D01*
X22552856Y49247380D02*
X22457618Y49247380D01*
X22124284Y49247380D02*
X22124284Y50247380D01*
X21695713Y49247380D02*
X21695713Y49771190D01*
X21695713Y49771190D02*
X21743332Y49866428D01*
X21743332Y49866428D02*
X21838570Y49914047D01*
X21838570Y49914047D02*
X21981427Y49914047D01*
X21981427Y49914047D02*
X22076665Y49866428D01*
X22076665Y49866428D02*
X22124284Y49818809D01*
X20457617Y49247380D02*
X20457617Y50247380D01*
X20457617Y50247380D02*
X20124284Y49533095D01*
X20124284Y49533095D02*
X19790951Y50247380D01*
X19790951Y50247380D02*
X19790951Y49247380D01*
X18886189Y49914047D02*
X18886189Y49247380D01*
X19314760Y49914047D02*
X19314760Y49390238D01*
X19314760Y49390238D02*
X19267141Y49295000D01*
X19267141Y49295000D02*
X19171903Y49247380D01*
X19171903Y49247380D02*
X19029046Y49247380D01*
X19029046Y49247380D02*
X18933808Y49295000D01*
X18933808Y49295000D02*
X18886189Y49342619D01*
X18505236Y49247380D02*
X17981427Y49914047D01*
X18505236Y49914047D02*
X17981427Y49247380D01*
X33289524Y-36942619D02*
X32718096Y-36942619D01*
X33003810Y-37942619D02*
X33003810Y-36942619D01*
X32241905Y-37942619D02*
X32337143Y-37895000D01*
X32337143Y-37895000D02*
X32384762Y-37847380D01*
X32384762Y-37847380D02*
X32432381Y-37752142D01*
X32432381Y-37752142D02*
X32432381Y-37466428D01*
X32432381Y-37466428D02*
X32384762Y-37371190D01*
X32384762Y-37371190D02*
X32337143Y-37323571D01*
X32337143Y-37323571D02*
X32241905Y-37275952D01*
X32241905Y-37275952D02*
X32099048Y-37275952D01*
X32099048Y-37275952D02*
X32003810Y-37323571D01*
X32003810Y-37323571D02*
X31956191Y-37371190D01*
X31956191Y-37371190D02*
X31908572Y-37466428D01*
X31908572Y-37466428D02*
X31908572Y-37752142D01*
X31908572Y-37752142D02*
X31956191Y-37847380D01*
X31956191Y-37847380D02*
X32003810Y-37895000D01*
X32003810Y-37895000D02*
X32099048Y-37942619D01*
X32099048Y-37942619D02*
X32241905Y-37942619D01*
X30384762Y-37418809D02*
X30241905Y-37466428D01*
X30241905Y-37466428D02*
X30194286Y-37514047D01*
X30194286Y-37514047D02*
X30146667Y-37609285D01*
X30146667Y-37609285D02*
X30146667Y-37752142D01*
X30146667Y-37752142D02*
X30194286Y-37847380D01*
X30194286Y-37847380D02*
X30241905Y-37895000D01*
X30241905Y-37895000D02*
X30337143Y-37942619D01*
X30337143Y-37942619D02*
X30718095Y-37942619D01*
X30718095Y-37942619D02*
X30718095Y-36942619D01*
X30718095Y-36942619D02*
X30384762Y-36942619D01*
X30384762Y-36942619D02*
X30289524Y-36990238D01*
X30289524Y-36990238D02*
X30241905Y-37037857D01*
X30241905Y-37037857D02*
X30194286Y-37133095D01*
X30194286Y-37133095D02*
X30194286Y-37228333D01*
X30194286Y-37228333D02*
X30241905Y-37323571D01*
X30241905Y-37323571D02*
X30289524Y-37371190D01*
X30289524Y-37371190D02*
X30384762Y-37418809D01*
X30384762Y-37418809D02*
X30718095Y-37418809D01*
X29575238Y-37942619D02*
X29670476Y-37895000D01*
X29670476Y-37895000D02*
X29718095Y-37847380D01*
X29718095Y-37847380D02*
X29765714Y-37752142D01*
X29765714Y-37752142D02*
X29765714Y-37466428D01*
X29765714Y-37466428D02*
X29718095Y-37371190D01*
X29718095Y-37371190D02*
X29670476Y-37323571D01*
X29670476Y-37323571D02*
X29575238Y-37275952D01*
X29575238Y-37275952D02*
X29432381Y-37275952D01*
X29432381Y-37275952D02*
X29337143Y-37323571D01*
X29337143Y-37323571D02*
X29289524Y-37371190D01*
X29289524Y-37371190D02*
X29241905Y-37466428D01*
X29241905Y-37466428D02*
X29241905Y-37752142D01*
X29241905Y-37752142D02*
X29289524Y-37847380D01*
X29289524Y-37847380D02*
X29337143Y-37895000D01*
X29337143Y-37895000D02*
X29432381Y-37942619D01*
X29432381Y-37942619D02*
X29575238Y-37942619D01*
X28384762Y-37942619D02*
X28384762Y-37418809D01*
X28384762Y-37418809D02*
X28432381Y-37323571D01*
X28432381Y-37323571D02*
X28527619Y-37275952D01*
X28527619Y-37275952D02*
X28718095Y-37275952D01*
X28718095Y-37275952D02*
X28813333Y-37323571D01*
X28384762Y-37895000D02*
X28480000Y-37942619D01*
X28480000Y-37942619D02*
X28718095Y-37942619D01*
X28718095Y-37942619D02*
X28813333Y-37895000D01*
X28813333Y-37895000D02*
X28860952Y-37799761D01*
X28860952Y-37799761D02*
X28860952Y-37704523D01*
X28860952Y-37704523D02*
X28813333Y-37609285D01*
X28813333Y-37609285D02*
X28718095Y-37561666D01*
X28718095Y-37561666D02*
X28480000Y-37561666D01*
X28480000Y-37561666D02*
X28384762Y-37514047D01*
X27908571Y-37942619D02*
X27908571Y-37275952D01*
X27908571Y-37466428D02*
X27860952Y-37371190D01*
X27860952Y-37371190D02*
X27813333Y-37323571D01*
X27813333Y-37323571D02*
X27718095Y-37275952D01*
X27718095Y-37275952D02*
X27622857Y-37275952D01*
X26860952Y-37942619D02*
X26860952Y-36942619D01*
X26860952Y-37895000D02*
X26956190Y-37942619D01*
X26956190Y-37942619D02*
X27146666Y-37942619D01*
X27146666Y-37942619D02*
X27241904Y-37895000D01*
X27241904Y-37895000D02*
X27289523Y-37847380D01*
X27289523Y-37847380D02*
X27337142Y-37752142D01*
X27337142Y-37752142D02*
X27337142Y-37466428D01*
X27337142Y-37466428D02*
X27289523Y-37371190D01*
X27289523Y-37371190D02*
X27241904Y-37323571D01*
X27241904Y-37323571D02*
X27146666Y-37275952D01*
X27146666Y-37275952D02*
X26956190Y-37275952D01*
X26956190Y-37275952D02*
X26860952Y-37323571D01*
X25718094Y-37275952D02*
X25527618Y-37942619D01*
X25527618Y-37942619D02*
X25337142Y-37466428D01*
X25337142Y-37466428D02*
X25146666Y-37942619D01*
X25146666Y-37942619D02*
X24956190Y-37275952D01*
X24575237Y-37942619D02*
X24575237Y-37275952D01*
X24575237Y-36942619D02*
X24622856Y-36990238D01*
X24622856Y-36990238D02*
X24575237Y-37037857D01*
X24575237Y-37037857D02*
X24527618Y-36990238D01*
X24527618Y-36990238D02*
X24575237Y-36942619D01*
X24575237Y-36942619D02*
X24575237Y-37037857D01*
X24241904Y-37275952D02*
X23860952Y-37275952D01*
X24099047Y-36942619D02*
X24099047Y-37799761D01*
X24099047Y-37799761D02*
X24051428Y-37895000D01*
X24051428Y-37895000D02*
X23956190Y-37942619D01*
X23956190Y-37942619D02*
X23860952Y-37942619D01*
X23527618Y-37942619D02*
X23527618Y-36942619D01*
X23099047Y-37942619D02*
X23099047Y-37418809D01*
X23099047Y-37418809D02*
X23146666Y-37323571D01*
X23146666Y-37323571D02*
X23241904Y-37275952D01*
X23241904Y-37275952D02*
X23384761Y-37275952D01*
X23384761Y-37275952D02*
X23479999Y-37323571D01*
X23479999Y-37323571D02*
X23527618Y-37371190D01*
X22479999Y-37942619D02*
X22575237Y-37895000D01*
X22575237Y-37895000D02*
X22622856Y-37847380D01*
X22622856Y-37847380D02*
X22670475Y-37752142D01*
X22670475Y-37752142D02*
X22670475Y-37466428D01*
X22670475Y-37466428D02*
X22622856Y-37371190D01*
X22622856Y-37371190D02*
X22575237Y-37323571D01*
X22575237Y-37323571D02*
X22479999Y-37275952D01*
X22479999Y-37275952D02*
X22337142Y-37275952D01*
X22337142Y-37275952D02*
X22241904Y-37323571D01*
X22241904Y-37323571D02*
X22194285Y-37371190D01*
X22194285Y-37371190D02*
X22146666Y-37466428D01*
X22146666Y-37466428D02*
X22146666Y-37752142D01*
X22146666Y-37752142D02*
X22194285Y-37847380D01*
X22194285Y-37847380D02*
X22241904Y-37895000D01*
X22241904Y-37895000D02*
X22337142Y-37942619D01*
X22337142Y-37942619D02*
X22479999Y-37942619D01*
X21289523Y-37275952D02*
X21289523Y-37942619D01*
X21718094Y-37275952D02*
X21718094Y-37799761D01*
X21718094Y-37799761D02*
X21670475Y-37895000D01*
X21670475Y-37895000D02*
X21575237Y-37942619D01*
X21575237Y-37942619D02*
X21432380Y-37942619D01*
X21432380Y-37942619D02*
X21337142Y-37895000D01*
X21337142Y-37895000D02*
X21289523Y-37847380D01*
X20956189Y-37275952D02*
X20575237Y-37275952D01*
X20813332Y-36942619D02*
X20813332Y-37799761D01*
X20813332Y-37799761D02*
X20765713Y-37895000D01*
X20765713Y-37895000D02*
X20670475Y-37942619D01*
X20670475Y-37942619D02*
X20575237Y-37942619D01*
X19479998Y-37942619D02*
X19479998Y-36942619D01*
X19479998Y-36942619D02*
X19146665Y-37656904D01*
X19146665Y-37656904D02*
X18813332Y-36942619D01*
X18813332Y-36942619D02*
X18813332Y-37942619D01*
X18337141Y-36942619D02*
X18337141Y-37752142D01*
X18337141Y-37752142D02*
X18289522Y-37847380D01*
X18289522Y-37847380D02*
X18241903Y-37895000D01*
X18241903Y-37895000D02*
X18146665Y-37942619D01*
X18146665Y-37942619D02*
X17956189Y-37942619D01*
X17956189Y-37942619D02*
X17860951Y-37895000D01*
X17860951Y-37895000D02*
X17813332Y-37847380D01*
X17813332Y-37847380D02*
X17765713Y-37752142D01*
X17765713Y-37752142D02*
X17765713Y-36942619D01*
X17384760Y-36942619D02*
X16718094Y-37942619D01*
X16718094Y-36942619D02*
X17384760Y-37942619D01*
X28952380Y42237380D02*
X28380952Y42237380D01*
X28666666Y41237380D02*
X28666666Y42237380D01*
X27666666Y41285000D02*
X27761904Y41237380D01*
X27761904Y41237380D02*
X27952380Y41237380D01*
X27952380Y41237380D02*
X28047618Y41285000D01*
X28047618Y41285000D02*
X28095237Y41380238D01*
X28095237Y41380238D02*
X28095237Y41761190D01*
X28095237Y41761190D02*
X28047618Y41856428D01*
X28047618Y41856428D02*
X27952380Y41904047D01*
X27952380Y41904047D02*
X27761904Y41904047D01*
X27761904Y41904047D02*
X27666666Y41856428D01*
X27666666Y41856428D02*
X27619047Y41761190D01*
X27619047Y41761190D02*
X27619047Y41665952D01*
X27619047Y41665952D02*
X28095237Y41570714D01*
X26809523Y41285000D02*
X26904761Y41237380D01*
X26904761Y41237380D02*
X27095237Y41237380D01*
X27095237Y41237380D02*
X27190475Y41285000D01*
X27190475Y41285000D02*
X27238094Y41380238D01*
X27238094Y41380238D02*
X27238094Y41761190D01*
X27238094Y41761190D02*
X27190475Y41856428D01*
X27190475Y41856428D02*
X27095237Y41904047D01*
X27095237Y41904047D02*
X26904761Y41904047D01*
X26904761Y41904047D02*
X26809523Y41856428D01*
X26809523Y41856428D02*
X26761904Y41761190D01*
X26761904Y41761190D02*
X26761904Y41665952D01*
X26761904Y41665952D02*
X27238094Y41570714D01*
X26333332Y41904047D02*
X26333332Y41237380D01*
X26333332Y41808809D02*
X26285713Y41856428D01*
X26285713Y41856428D02*
X26190475Y41904047D01*
X26190475Y41904047D02*
X26047618Y41904047D01*
X26047618Y41904047D02*
X25952380Y41856428D01*
X25952380Y41856428D02*
X25904761Y41761190D01*
X25904761Y41761190D02*
X25904761Y41237380D01*
X25476189Y41285000D02*
X25380951Y41237380D01*
X25380951Y41237380D02*
X25190475Y41237380D01*
X25190475Y41237380D02*
X25095237Y41285000D01*
X25095237Y41285000D02*
X25047618Y41380238D01*
X25047618Y41380238D02*
X25047618Y41427857D01*
X25047618Y41427857D02*
X25095237Y41523095D01*
X25095237Y41523095D02*
X25190475Y41570714D01*
X25190475Y41570714D02*
X25333332Y41570714D01*
X25333332Y41570714D02*
X25428570Y41618333D01*
X25428570Y41618333D02*
X25476189Y41713571D01*
X25476189Y41713571D02*
X25476189Y41761190D01*
X25476189Y41761190D02*
X25428570Y41856428D01*
X25428570Y41856428D02*
X25333332Y41904047D01*
X25333332Y41904047D02*
X25190475Y41904047D01*
X25190475Y41904047D02*
X25095237Y41856428D01*
X24714284Y41904047D02*
X24476189Y41237380D01*
X24238094Y41904047D02*
X24476189Y41237380D01*
X24476189Y41237380D02*
X24571427Y40999285D01*
X24571427Y40999285D02*
X24619046Y40951666D01*
X24619046Y40951666D02*
X24714284Y40904047D01*
X22666665Y41904047D02*
X22666665Y41237380D01*
X22904760Y42285000D02*
X23142855Y41570714D01*
X23142855Y41570714D02*
X22523808Y41570714D01*
X22142855Y41332619D02*
X22095236Y41285000D01*
X22095236Y41285000D02*
X22142855Y41237380D01*
X22142855Y41237380D02*
X22190474Y41285000D01*
X22190474Y41285000D02*
X22142855Y41332619D01*
X22142855Y41332619D02*
X22142855Y41237380D01*
X21476189Y42237380D02*
X21380951Y42237380D01*
X21380951Y42237380D02*
X21285713Y42189761D01*
X21285713Y42189761D02*
X21238094Y42142142D01*
X21238094Y42142142D02*
X21190475Y42046904D01*
X21190475Y42046904D02*
X21142856Y41856428D01*
X21142856Y41856428D02*
X21142856Y41618333D01*
X21142856Y41618333D02*
X21190475Y41427857D01*
X21190475Y41427857D02*
X21238094Y41332619D01*
X21238094Y41332619D02*
X21285713Y41285000D01*
X21285713Y41285000D02*
X21380951Y41237380D01*
X21380951Y41237380D02*
X21476189Y41237380D01*
X21476189Y41237380D02*
X21571427Y41285000D01*
X21571427Y41285000D02*
X21619046Y41332619D01*
X21619046Y41332619D02*
X21666665Y41427857D01*
X21666665Y41427857D02*
X21714284Y41618333D01*
X21714284Y41618333D02*
X21714284Y41856428D01*
X21714284Y41856428D02*
X21666665Y42046904D01*
X21666665Y42046904D02*
X21619046Y42142142D01*
X21619046Y42142142D02*
X21571427Y42189761D01*
X21571427Y42189761D02*
X21476189Y42237380D01*
D12*
X35200000Y-34410000D02*
X14760000Y-34410000D01*
X35200000Y1390000D02*
X35200000Y-34410000D01*
X31440000Y-34350000D02*
X18520000Y-34350000D01*
X25980000Y1330000D02*
X32710000Y1330000D01*
X17250000Y1330000D02*
X23980000Y1330000D01*
X14760000Y-34410000D02*
X14760000Y1390000D01*
X14760000Y1390000D02*
X35200000Y1390000D01*
X14790000Y43880000D02*
X14790000Y49080000D01*
X35230000Y43880000D02*
X14790000Y43880000D01*
X35230000Y43880000D02*
X35230000Y46480000D01*
X32630000Y46480000D02*
X32630000Y49080000D01*
X35230000Y46480000D02*
X32630000Y46480000D01*
X35230000Y47750000D02*
X35230000Y49080000D01*
X32630000Y49080000D02*
X14790000Y49080000D01*
X35230000Y49080000D02*
X33900000Y49080000D01*
X17300000Y-38100000D02*
X35110000Y-38130000D01*
X17300000Y-38100000D02*
X17300000Y-40700000D01*
X35110000Y-38130000D02*
X35110000Y-43330000D01*
X14640000Y-38140000D02*
X15970000Y-38140000D01*
X14640000Y-39470000D02*
X14640000Y-38140000D01*
X14700000Y-40700000D02*
X17300000Y-40700000D01*
X14700000Y-40730000D02*
X14700000Y-43330000D01*
X14700000Y-43330000D02*
X35110000Y-43330000D01*
D10*
X21190000Y3950000D02*
X21190000Y5220000D01*
X28810000Y3950000D02*
X21190000Y3950000D01*
X16110000Y5220000D02*
X16110000Y40780000D01*
X28810000Y5220000D02*
X28810000Y3950000D01*
X33890000Y5220000D02*
X16110000Y5220000D01*
X16110000Y40780000D02*
X33890000Y40780000D01*
X33890000Y40780000D02*
X33890000Y5220000D01*
%LPC*%
D13*
X22425000Y-45212000D03*
D14*
X20600000Y24250000D03*
X27630000Y11250000D03*
X28220000Y24250000D03*
X25090000Y11250000D03*
X23140000Y24250000D03*
X25680000Y24250000D03*
X22550000Y11250000D03*
D15*
X31500000Y-3000000D03*
X18500000Y-10030000D03*
X31500000Y-10620000D03*
X18500000Y-7490000D03*
X31500000Y-5540000D03*
X31500000Y-8080000D03*
X18500000Y-4950000D03*
D16*
X16375000Y-45212000D03*
X33700000Y-45175000D03*
D14*
X21130000Y53500000D03*
X23670000Y53500000D03*
X26210000Y53500000D03*
X28750000Y53500000D03*
D17*
X27515000Y-45212000D03*
D18*
X24975000Y-46912000D03*
D15*
X31500000Y-28000000D03*
X18500000Y-35030000D03*
X31500000Y-35620000D03*
X18500000Y-32490000D03*
X31500000Y-30540000D03*
X31500000Y-33080000D03*
X18500000Y-29950000D03*
D19*
X33870000Y0D03*
D20*
X33870000Y-2540000D03*
X33870000Y-5080000D03*
X33870000Y-7620000D03*
X33870000Y-10160000D03*
X33870000Y-12700000D03*
X33870000Y-15240000D03*
X33870000Y-17780000D03*
X33870000Y-20320000D03*
X33870000Y-22860000D03*
X33870000Y-25400000D03*
X33870000Y-27940000D03*
X33870000Y-30480000D03*
X33870000Y-33020000D03*
X16090000Y-33020000D03*
X16090000Y-30480000D03*
X16090000Y-27940000D03*
X16090000Y-25400000D03*
X16090000Y-22860000D03*
X16090000Y-20320000D03*
X16090000Y-17780000D03*
X16090000Y-15240000D03*
X16090000Y-12700000D03*
X16090000Y-10160000D03*
X16090000Y-7620000D03*
X16090000Y-5080000D03*
X16090000Y-2540000D03*
X16090000Y0D03*
D16*
X33900000Y47750000D03*
D21*
X33900000Y45210000D03*
X31360000Y47750000D03*
X31360000Y45210000D03*
X28820000Y47750000D03*
X28820000Y45210000D03*
X26280000Y47750000D03*
X26280000Y45210000D03*
X23740000Y47750000D03*
X23740000Y45210000D03*
X21200000Y47750000D03*
X21200000Y45210000D03*
X18660000Y47750000D03*
X18660000Y45210000D03*
X16120000Y47750000D03*
D16*
X16120000Y45210000D03*
D22*
X16000000Y-42000000D03*
D16*
X16000000Y-39460000D03*
D21*
X18540000Y-42000000D03*
X18540000Y-39460000D03*
X21080000Y-42000000D03*
X21080000Y-39460000D03*
X23620000Y-42000000D03*
X23620000Y-39460000D03*
X26160000Y-42000000D03*
X26160000Y-39460000D03*
X28700000Y-42000000D03*
X28700000Y-39460000D03*
X31240000Y-42000000D03*
X31240000Y-39460000D03*
D16*
X33780000Y-42000000D03*
D21*
X33780000Y-39460000D03*
D23*
X17380000Y6490000D03*
X17380000Y9030000D03*
X17380000Y11570000D03*
X17380000Y14110000D03*
X17380000Y16650000D03*
X17380000Y19190000D03*
X17380000Y21730000D03*
X17380000Y24270000D03*
X17380000Y26810000D03*
X17380000Y29350000D03*
X17380000Y31890000D03*
X17380000Y34430000D03*
X17380000Y36970000D03*
X17380000Y39510000D03*
D24*
X32620000Y39510000D03*
D23*
X32620000Y36970000D03*
X32620000Y34430000D03*
X32620000Y31890000D03*
X32620000Y29350000D03*
X32620000Y26810000D03*
X32620000Y24270000D03*
X32620000Y21730000D03*
X32620000Y19190000D03*
X32620000Y16650000D03*
X32620000Y14110000D03*
X32620000Y11570000D03*
X32620000Y9030000D03*
X32620000Y6490000D03*
%LPD*%
M02*
