M48
; DRILL file {KiCad 7.0.10} date Saturday, January 13, 2024 at 04:45:26 PM
; FORMAT={-:-/ absolute / metric / decimal}
; #@! TF.CreationDate,2024-01-13T16:45:26+01:00
; #@! TF.GenerationSoftware,Kicad,Pcbnew,7.0.10
; #@! TF.FileFunction,Plated,1,2,PTH
FMAT,2
METRIC
; #@! TA.AperFunction,Plated,PTH,ViaDrill
T1C0.400
; #@! TA.AperFunction,Plated,PTH,ViaDrill
T2C0.500
; #@! TA.AperFunction,Plated,PTH,ComponentDrill
T3C1.000
; #@! TA.AperFunction,Plated,PTH,ComponentDrill
T4C1.020
; #@! TA.AperFunction,Plated,PTH,ComponentDrill
T5C1.100
; #@! TA.AperFunction,Plated,PTH,ComponentDrill
T6C1.200
; #@! TA.AperFunction,Plated,PTH,ComponentDrill
T7C1.400
%
G90
G05
T1
X13.55Y29.15
X14.2Y9.0
X14.85Y11.5
X20.5Y37.1
X20.5Y14.1
X21.5Y34.4
X22.9Y31.9
X27.0Y-20.8
X27.7Y-19.4
X29.94Y19.34
X31.2Y54.2
X31.2Y51.8
T2
X27.2Y-24.6
X27.2Y-30.2
X29.4Y-5.2
X29.4Y-11.2
X36.0Y50.8
T3
X16.0Y-39.46
X16.0Y-42.0
X16.12Y47.75
X16.12Y45.21
X16.375Y-45.212
X18.5Y-4.95
X18.5Y-7.49
X18.5Y-10.03
X18.5Y-29.95
X18.5Y-32.49
X18.5Y-35.03
X18.54Y-39.46
X18.54Y-42.0
X18.66Y47.75
X18.66Y45.21
X20.6Y24.25
X21.08Y-39.46
X21.08Y-42.0
X21.13Y53.5
X21.2Y47.75
X21.2Y45.21
X22.55Y11.25
X23.14Y24.25
X23.62Y-39.46
X23.62Y-42.0
X23.67Y53.5
X23.74Y47.75
X23.74Y45.21
X25.09Y11.25
X25.68Y24.25
X26.16Y-39.46
X26.16Y-42.0
X26.21Y53.5
X26.28Y47.75
X26.28Y45.21
X27.63Y11.25
X28.22Y24.25
X28.7Y-39.46
X28.7Y-42.0
X28.75Y53.5
X28.82Y47.75
X28.82Y45.21
X31.24Y-39.46
X31.24Y-42.0
X31.36Y47.75
X31.36Y45.21
X31.5Y-3.0
X31.5Y-5.54
X31.5Y-8.08
X31.5Y-10.62
X31.5Y-28.0
X31.5Y-30.54
X31.5Y-33.08
X31.5Y-35.62
X33.7Y-45.175
X33.78Y-39.46
X33.78Y-42.0
X33.9Y47.75
X33.9Y45.21
T4
X16.09Y0.0
X16.09Y-2.54
X16.09Y-5.08
X16.09Y-7.62
X16.09Y-10.16
X16.09Y-12.7
X16.09Y-15.24
X16.09Y-17.78
X16.09Y-20.32
X16.09Y-22.86
X16.09Y-25.4
X16.09Y-27.94
X17.38Y39.51
X17.38Y36.97
X17.38Y34.43
X17.38Y31.89
X17.38Y29.35
X17.38Y26.81
X17.38Y24.27
X17.38Y21.73
X17.38Y19.19
X17.38Y16.65
X17.38Y14.11
X17.38Y11.57
X17.38Y9.03
X17.38Y6.49
X32.62Y36.97
X32.62Y34.43
X32.62Y31.89
X32.62Y29.35
X32.62Y26.81
X32.62Y24.27
X32.62Y21.73
X32.62Y19.19
X32.62Y16.65
X32.62Y14.11
X32.62Y11.57
X32.62Y9.03
X32.62Y6.49
X33.87Y0.0
X33.87Y-2.54
X33.87Y-5.08
X33.87Y-7.62
X33.87Y-10.16
X33.87Y-12.7
X33.87Y-15.24
X33.87Y-17.78
X33.87Y-20.32
X33.87Y-22.86
X33.87Y-25.4
X33.87Y-27.94
T5
X32.62Y39.51
T6
X22.425Y-45.212
T7
X27.515Y-45.212
T6
X24.975Y-46.262G85X24.975Y-47.562
G05
M30
